  0
SECTION
  2
HEADER
  9
$ACADVER
  1
AC1009
  9
$FILLMODE
 70
0
  9
$EXTMIN
 10
-0.5080
 20
-0.5927
 30
0.0000
  9
$EXTMAX
 10
388.2495
 20
260.9427
 30
0.0000
  0
ENDSEC
  0
SECTION
  2
TABLES
  0
TABLE
  2
LTYPE
 70
1
  0
LTYPE
  2
CONTINUOUS
 70
64
  3
Solid line
 72
65
 73
0
 40
0
  0
ENDTAB
  0
TABLE
  2
LAYER
 70
255
  0
LAYER
  2
91
 70
64
 62
94
  6
CONTINUOUS
  0
LAYER
  2
92
 70
64
 62
174
  6
CONTINUOUS
  0
LAYER
  2
94
 70
64
 62
14
  6
CONTINUOUS
  0
LAYER
  2
95
 70
64
 62
251
  6
CONTINUOUS
  0
LAYER
  2
96
 70
64
 62
251
  6
CONTINUOUS
  0
LAYER
  2
97
 70
64
 62
251
  6
CONTINUOUS
  0
LAYER
  2
98
 70
64
 62
54
  6
CONTINUOUS
  0
LAYER
  2
199
 70
64
 62
251
  6
CONTINUOUS
  0
LAYER
  2
200
 70
64
 62
174
  6
CONTINUOUS
  0
ENDTAB
  0
ENDSEC
  0
SECTION
  2
BLOCKS
  0
BLOCK
  8
0
  2
RECT
 70
64
 10
0.0000
 20
0.0000
 30
0.0000
  3
RECT
  0
SOLID
  8
0
 10
-0.5000
 20
-0.5000
 30
0.0000
 11
0.5000
 21
-0.5000
 31
0.0000
 12
-0.5000
 22
0.5000
 32
0.0000
 13
0.5000
 23
0.5000
 33
0.0000
  0
ENDBLK
  8
0
  0
BLOCK
  8
0
  2
PIE
 70
64
 10
0.0000
 20
0.0000
 30
0.0000
  3
PIE
  0
CIRCLE
  8
0
 10
0.0000
 20
0.0000
 30
0.0000
 40
0.5000
  0
ENDBLK
  8
0
  0
ENDSEC
  0
SECTION
  2
ENTITIES
  0
TEXT
  7
ISOCP
  8
94
 10
15.2400
 20
205.7400
 30
0.0000
 40
1.7780
  1
RABBIT/INTERFACE BOARDS
  0
TEXT
  7
ISOCP
  8
94
 10
48.2600
 20
25.4000
 30
0.0000
 40
1.7780
  1
TERMINAL BLOCKS
  0
TEXT
  7
ISOCP
  8
94
 10
7.6200
 20
27.9400
 30
0.0000
 40
1.7780
  1
TO AC MOTOR
  0
TEXT
  7
ISOCP
  8
94
 10
5.0800
 20
15.2400
 30
0.0000
 40
1.7780
  1
TO MOTOR BRAKE
  0
TEXT
  7
ISOCP
  8
94
 10
360.6800
 20
215.9000
 30
0.0000
 40
1.7780
  1
TO PENDANT
  0
TEXT
  7
ISOCP
  8
94
 10
360.6800
 20
203.2000
 30
0.0000
 40
1.7780
  1
TO LEFT T-STOP
  0
TEXT
  7
ISOCP
  8
94
 10
360.6800
 20
193.0400
 30
0.0000
 40
1.7780
  1
TO R T-STOP
  0
TEXT
  7
ISOCP
  8
94
 10
360.6800
 20
73.6600
 30
0.0000
 40
1.7780
  1
TO LW MOTOR
  0
TEXT
  7
ISOCP
  8
94
 10
363.2200
 20
33.0200
 30
0.0000
 40
1.7780
  1
TO MAINS
  0
TEXT
  7
ISOCP
  8
94
 10
360.6800
 20
182.8800
 30
0.0000
 40
1.7780
  1
TO ENCODER
  0
TEXT
  7
ISOCP
  8
94
 10
281.9400
 20
233.6800
 30
0.0000
 40
1.7780
  1
LEESON PARAMETERS
  0
TEXT
  7
ISOCP
  8
94
 10
284.4800
 20
228.6000
 30
0.0000
 40
1.7780
  1
P05 = 03     Speed source 0-10V
  0
TEXT
  7
ISOCP
  8
94
 10
284.4800
 20
226.0600
 30
0.0000
 40
1.7780
  1
P06 = 02     Brake release
  0
TEXT
  7
ISOCP
  8
94
 10
284.4800
 20
223.5200
 30
0.0000
 40
1.7780
  1
P10 = 06     13A=Run reverse
  0
TEXT
  7
ISOCP
  8
94
 10
284.4800
 20
220.9800
 30
0.0000
 40
1.7780
  1
P11 = 10     13B=Shunt overheat
  0
TEXT
  7
ISOCP
  8
94
 10
284.4800
 20
218.4400
 30
0.0000
 40
1.7780
  1
P12 = 20     13E=Dynamic braking
  0
TEXT
  7
ISOCP
  8
94
 10
284.4800
 20
215.9000
 30
0.0000
 40
1.7780
  1
P17 = 02     Forward and reverse
  0
TEXT
  7
ISOCP
  8
94
 10
284.4800
 20
213.3600
 30
0.0000
 40
1.7780
  1
P19 = 2.0     Accel
  0
TEXT
  7
ISOCP
  8
94
 10
284.4800
 20
210.8200
 30
0.0000
 40
1.7780
  1
P20 = 2.0     Decel
  0
TEXT
  7
ISOCP
  8
94
 10
284.4800
 20
208.2800
 30
0.0000
 40
1.7780
  1
P23 = 6.6     Min freq
  0
TEXT
  7
ISOCP
  8
94
 10
284.4800
 20
205.7400
 30
0.0000
 40
1.7780
  1
P24 = 66     Max freq
  0
TEXT
  7
ISOCP
  8
94
 10
284.4800
 20
203.2000
 30
0.0000
 40
1.7780
  1
P28 = 4.4     Percent fixed boost
  0
TEXT
  7
ISOCP
  8
94
 10
284.4800
 20
200.6600
 30
0.0000
 40
1.7780
  1
P33 = 6.4     Brake enable
  0
TEXT
  7
ISOCP
  8
94
 10
284.4800
 20
198.1200
 30
0.0000
 40
1.7780
  1
P45 = 6.6     Speed at min
  0
TEXT
  7
ISOCP
  8
94
 10
284.4800
 20
195.5800
 30
0.0000
 40
1.7780
  1
P46 = 66      Speed at max
  0
TEXT
  7
ISOCP
  8
94
 10
284.4800
 20
190.5000
 30
0.0000
 40
1.7780
  1
ALL OTHER VALUES DEFAULT
  0
TEXT
  7
ISOCP
  8
94
 10
22.8600
 20
215.9000
 30
0.0000
 40
1.7780
  1
W2
  0
TEXT
  7
ISOCP
  8
94
 10
22.8600
 20
236.2200
 30
0.0000
 40
1.7780
  1
DC11
  0
TEXT
  7
ISOCP
  8
94
 10
358.1400
 20
251.4600
 30
0.0000
 40
1.7780
  1
DC10
  0
TEXT
  7
ISOCP
  8
94
 10
358.1400
 20
220.9800
 30
0.0000
 40
1.7780
  1
W1
  0
TEXT
  7
ISOCP
  8
94
 10
208.2800
 20
127.0000
 30
0.0000
 40
1.7780
  1
W5
 50
90.0000
  0
TEXT
  7
ISOCP
  8
94
 10
220.9800
 20
127.0000
 30
0.0000
 40
1.7780
  1
W6
 50
90.0000
  0
TEXT
  7
ISOCP
  8
94
 10
213.3600
 20
127.0000
 30
0.0000
 40
1.7780
  1
W4
 50
90.0000
  0
TEXT
  7
ISOCP
  8
94
 10
210.8200
 20
127.0000
 30
0.0000
 40
1.7780
  1
GND11
 50
90.0000
  0
TEXT
  7
ISOCP
  8
94
 10
124.4600
 20
236.2200
 30
0.0000
 40
1.7780
  1
W8
  0
TEXT
  7
ISOCP
  8
94
 10
124.4600
 20
241.3000
 30
0.0000
 40
1.7780
  1
W7
  0
TEXT
  7
ISOCP
  8
94
 10
124.4600
 20
238.7600
 30
0.0000
 40
1.7780
  1
GND10
  0
TEXT
  7
ISOCP
  8
94
 10
170.1800
 20
190.5000
 30
0.0000
 40
1.7780
  1
GND9
  0
TEXT
  7
ISOCP
  8
94
 10
170.1800
 20
187.9600
 30
0.0000
 40
1.7780
  1
DC9
  0
TEXT
  7
ISOCP
  8
94
 10
93.9800
 20
203.2000
 30
0.0000
 40
1.7780
  1
A+
 50
90.0000
  0
TEXT
  7
ISOCP
  8
94
 10
96.5200
 20
203.2000
 30
0.0000
 40
1.7780
  1
A-
 50
90.0000
  0
TEXT
  7
ISOCP
  8
94
 10
99.0600
 20
203.2000
 30
0.0000
 40
1.7780
  1
B+
 50
90.0000
  0
TEXT
  7
ISOCP
  8
94
 10
101.6000
 20
203.2000
 30
0.0000
 40
1.7780
  1
B-
 50
90.0000
  0
TEXT
  7
ISOCP
  8
94
 10
185.4200
 20
193.0400
 30
0.0000
 40
1.7780
  1
L1
 50
90.0000
  0
TEXT
  7
ISOCP
  8
94
 10
190.5000
 20
193.0400
 30
0.0000
 40
1.7780
  1
L2
 50
90.0000
  0
TEXT
  7
ISOCP
  8
94
 10
198.1200
 20
152.4000
 30
0.0000
 40
1.7780
  1
L1
  0
TEXT
  7
ISOCP
  8
94
 10
198.1200
 20
154.9400
 30
0.0000
 40
1.7780
  1
L2
  0
TEXT
  7
ISOCP
  8
94
 10
198.1200
 20
157.4800
 30
0.0000
 40
1.7780
  1
L3
  0
TEXT
  7
ISOCP
  8
94
 10
198.1200
 20
160.0200
 30
0.0000
 40
1.7780
  1
PE
  0
TEXT
  7
ISOCP
  8
94
 10
195.5800
 20
193.0400
 30
0.0000
 40
1.7780
  1
PE
 50
90.0000
  0
TEXT
  7
ISOCP
  8
94
 10
292.1000
 20
99.0600
 30
0.0000
 40
1.7780
  1
PE
 50
90.0000
  0
TEXT
  7
ISOCP
  8
94
 10
340.3600
 20
172.7200
 30
0.0000
 40
1.7780
  1
PE
  0
TEXT
  7
ISOCP
  8
94
 10
297.1800
 20
99.0600
 30
0.0000
 40
1.7780
  1
L1
 50
90.0000
  0
TEXT
  7
ISOCP
  8
94
 10
294.6400
 20
99.0600
 30
0.0000
 40
1.7780
  1
L2
 50
90.0000
  0
TEXT
  7
ISOCP
  8
94
 10
340.3600
 20
167.6400
 30
0.0000
 40
1.7780
  1
L1
  0
TEXT
  7
ISOCP
  8
94
 10
340.3600
 20
170.1800
 30
0.0000
 40
1.7780
  1
L2
  0
TEXT
  7
ISOCP
  8
94
 10
160.0200
 20
96.5200
 30
0.0000
 40
1.7780
  1
L1
 50
90.0000
  0
TEXT
  7
ISOCP
  8
94
 10
160.0200
 20
127.0000
 30
0.0000
 40
1.7780
  1
L1
 50
90.0000
  0
TEXT
  7
ISOCP
  8
94
 10
165.1000
 20
96.5200
 30
0.0000
 40
1.7780
  1
L2
 50
90.0000
  0
TEXT
  7
ISOCP
  8
94
 10
165.1000
 20
127.0000
 30
0.0000
 40
1.7780
  1
L2
 50
90.0000
  0
TEXT
  7
ISOCP
  8
94
 10
170.1800
 20
96.5200
 30
0.0000
 40
1.7780
  1
L3
 50
90.0000
  0
TEXT
  7
ISOCP
  8
94
 10
170.1800
 20
127.0000
 30
0.0000
 40
1.7780
  1
L3
 50
90.0000
  0
TEXT
  7
ISOCP
  8
94
 10
33.0200
 20
53.3400
 30
0.0000
 40
1.7780
  1
W3
  0
TEXT
  7
ISOCP
  8
94
 10
33.0200
 20
50.8000
 30
0.0000
 40
1.7780
  1
DC12
  0
TEXT
  7
ISOCP
  8
94
 10
33.0200
 20
55.8800
 30
0.0000
 40
1.7780
  1
GND12
  0
TEXT
  7
ISOCP
  8
94
 10
43.1800
 20
109.2200
 30
0.0000
 40
1.7780
  1
W50
  0
TEXT
  7
ISOCP
  8
94
 10
226.0600
 20
127.0000
 30
0.0000
 40
1.7780
  1
W50
 50
90.0000
  0
TEXT
  7
ISOCP
  8
94
 10
335.2800
 20
5.0800
 30
0.0000
 40
1.7780
  1
MJC
  0
TEXT
  7
ISOCP
  8
94
 10
335.2800
 20
10.1600
 30
0.0000
 40
1.7780
  1
TOP LEVEL WIRING
  0
TEXT
  7
ISOCP
  8
94
 10
101.6000
 20
45.7200
 30
0.0000
 40
1.7780
  1
W9
  0
TEXT
  7
ISOCP
  8
94
 10
101.6000
 20
43.1800
 30
0.0000
 40
1.7780
  1
GND16
  0
TEXT
  7
ISOCP
  8
94
 10
276.8600
 20
58.4200
 30
0.0000
 40
1.7780
  1
ALL SIGNAL WIRES ARE 24AWG WHITE
  0
TEXT
  7
ISOCP
  8
94
 10
276.8600
 20
55.8800
 30
0.0000
 40
1.7780
  1
ALL VFD WIRES/MAINS ARE 8AWG (BLK/RED/WHT)
  0
TEXT
  7
ISOCP
  8
94
 10
276.8600
 20
53.3400
 30
0.0000
 40
1.7780
  1
ALL SINGLE PHASE 240VAC ARE 8AWG (BLK/WHT)
  0
TEXT
  7
ISOCP
  8
94
 10
276.8600
 20
50.8000
 30
0.0000
 40
1.7780
  1
DC 12V WIRES ARE EITHER 18 OR 24AWG RED
  0
TEXT
  7
ISOCP
  8
94
 10
276.8600
 20
48.2600
 30
0.0000
 40
1.7780
  1
DC GND WIRES ARE EITHER 18 OR 24AWG BLACK
  0
CIRCLE
  8
94
 10
12.7000
 20
22.8600
 30
0.0000
 40
3.5921
  0
CIRCLE
  8
94
 10
12.7000
 20
10.1600
 30
0.0000
 40
3.5921
  0
CIRCLE
  8
94
 10
368.3000
 20
200.6600
 30
0.0000
 40
3.5921
  0
CIRCLE
  8
94
 10
368.3000
 20
190.5000
 30
0.0000
 40
3.5921
  0
CIRCLE
  8
94
 10
368.3000
 20
180.3400
 30
0.0000
 40
3.5921
  0
CIRCLE
  8
94
 10
368.3000
 20
210.8200
 30
0.0000
 40
3.5921
  0
CIRCLE
  8
94
 10
368.3000
 20
68.5800
 30
0.0000
 40
3.5921
  0
CIRCLE
  8
94
 10
368.3000
 20
27.9400
 30
0.0000
 40
3.5921
  0
INSERT
  8
94
  2
RECT
 10
59.6900
 20
38.1000
 30
0.0000
 41
73.6600
 42
15.2400
 43
1.0000
 50
0.0000
  0
INSERT
  8
94
  2
RECT
 10
33.0200
 20
158.7500
 30
0.0000
 41
40.6400
 42
88.9000
 43
1.0000
 50
0.0000
  0
LINE
  8
94
 10
0.0000
 20
0.0000
 30
0.0000
 11
50.8000
 21
0.0000
 31
0.0000
  0
LINE
  8
94
 10
50.8000
 20
0.0000
 30
0.0000
 11
98.4250
 21
0.0000
 31
0.0000
  0
LINE
  8
94
 10
98.4250
 20
0.0000
 30
0.0000
 11
146.0500
 21
0.0000
 31
0.0000
  0
LINE
  8
94
 10
146.0500
 20
0.0000
 30
0.0000
 11
193.6750
 21
0.0000
 31
0.0000
  0
LINE
  8
94
 10
193.6750
 20
0.0000
 30
0.0000
 11
241.3000
 21
0.0000
 31
0.0000
  0
LINE
  8
94
 10
241.3000
 20
0.0000
 30
0.0000
 11
288.9250
 21
0.0000
 31
0.0000
  0
LINE
  8
94
 10
288.9250
 20
0.0000
 30
0.0000
 11
336.5500
 21
0.0000
 31
0.0000
  0
LINE
  8
94
 10
336.5500
 20
0.0000
 30
0.0000
 11
387.3500
 21
0.0000
 31
0.0000
  0
LINE
  8
94
 10
387.3500
 20
0.0000
 30
0.0000
 11
387.3500
 21
53.9750
 31
0.0000
  0
LINE
  8
94
 10
387.3500
 20
53.9750
 30
0.0000
 11
387.3500
 21
104.7750
 31
0.0000
  0
LINE
  8
94
 10
387.3500
 20
104.7750
 30
0.0000
 11
387.3500
 21
155.5750
 31
0.0000
  0
LINE
  8
94
 10
387.3500
 20
155.5750
 30
0.0000
 11
387.3500
 21
206.3750
 31
0.0000
  0
LINE
  8
94
 10
387.3500
 20
206.3750
 30
0.0000
 11
387.3500
 21
260.3500
 31
0.0000
  0
LINE
  8
94
 10
146.0500
 20
260.3500
 30
0.0000
 11
98.4250
 21
260.3500
 31
0.0000
  0
LINE
  8
94
 10
98.4250
 20
260.3500
 30
0.0000
 11
50.8000
 21
260.3500
 31
0.0000
  0
LINE
  8
94
 10
50.8000
 20
260.3500
 30
0.0000
 11
0.0000
 21
260.3500
 31
0.0000
  0
LINE
  8
94
 10
0.0000
 20
260.3500
 30
0.0000
 11
0.0000
 21
206.3750
 31
0.0000
  0
LINE
  8
94
 10
0.0000
 20
206.3750
 30
0.0000
 11
0.0000
 21
155.5750
 31
0.0000
  0
LINE
  8
94
 10
0.0000
 20
155.5750
 30
0.0000
 11
0.0000
 21
104.7750
 31
0.0000
  0
LINE
  8
94
 10
0.0000
 20
104.7750
 30
0.0000
 11
0.0000
 21
53.9750
 31
0.0000
  0
LINE
  8
94
 10
0.0000
 20
53.9750
 30
0.0000
 11
0.0000
 21
0.0000
 31
0.0000
  0
LINE
  8
94
 10
3.1750
 20
3.1750
 30
0.0000
 11
50.8000
 21
3.1750
 31
0.0000
  0
LINE
  8
94
 10
50.8000
 20
3.1750
 30
0.0000
 11
98.4250
 21
3.1750
 31
0.0000
  0
LINE
  8
94
 10
98.4250
 20
3.1750
 30
0.0000
 11
146.0500
 21
3.1750
 31
0.0000
  0
LINE
  8
94
 10
146.0500
 20
3.1750
 30
0.0000
 11
193.6750
 21
3.1750
 31
0.0000
  0
LINE
  8
94
 10
193.6750
 20
3.1750
 30
0.0000
 11
241.3000
 21
3.1750
 31
0.0000
  0
LINE
  8
94
 10
241.3000
 20
3.1750
 30
0.0000
 11
288.9250
 21
3.1750
 31
0.0000
  0
LINE
  8
94
 10
288.9250
 20
3.1750
 30
0.0000
 11
307.3400
 21
3.1750
 31
0.0000
  0
LINE
  8
94
 10
336.5500
 20
3.1750
 30
0.0000
 11
307.3400
 21
3.1750
 31
0.0000
  0
LINE
  8
94
 10
307.3400
 20
3.1750
 30
0.0000
 11
366.3950
 21
3.1750
 31
0.0000
  0
LINE
  8
94
 10
366.3950
 20
3.1750
 30
0.0000
 11
384.1750
 21
3.1750
 31
0.0000
  0
LINE
  8
94
 10
384.1750
 20
3.1750
 30
0.0000
 11
384.1750
 21
8.2550
 31
0.0000
  0
LINE
  8
94
 10
384.1750
 20
8.2550
 30
0.0000
 11
384.1750
 21
13.3350
 31
0.0000
  0
LINE
  8
94
 10
384.1750
 20
13.3350
 30
0.0000
 11
384.1750
 21
18.4150
 31
0.0000
  0
LINE
  8
94
 10
384.1750
 20
18.4150
 30
0.0000
 11
384.1750
 21
23.4950
 31
0.0000
  0
LINE
  8
94
 10
384.1750
 20
23.4950
 30
0.0000
 11
384.1750
 21
53.9750
 31
0.0000
  0
LINE
  8
94
 10
384.1750
 20
53.9750
 30
0.0000
 11
384.1750
 21
104.7750
 31
0.0000
  0
LINE
  8
94
 10
384.1750
 20
104.7750
 30
0.0000
 11
384.1750
 21
155.5750
 31
0.0000
  0
LINE
  8
94
 10
384.1750
 20
155.5750
 30
0.0000
 11
384.1750
 21
206.3750
 31
0.0000
  0
LINE
  8
94
 10
384.1750
 20
206.3750
 30
0.0000
 11
384.1750
 21
257.1750
 31
0.0000
  0
LINE
  8
94
 10
384.1750
 20
257.1750
 30
0.0000
 11
336.5500
 21
257.1750
 31
0.0000
  0
LINE
  8
94
 10
336.5500
 20
257.1750
 30
0.0000
 11
288.9250
 21
257.1750
 31
0.0000
  0
LINE
  8
94
 10
288.9250
 20
257.1750
 30
0.0000
 11
241.3000
 21
257.1750
 31
0.0000
  0
LINE
  8
94
 10
241.3000
 20
257.1750
 30
0.0000
 11
193.6750
 21
257.1750
 31
0.0000
  0
LINE
  8
94
 10
193.6750
 20
257.1750
 30
0.0000
 11
146.0500
 21
257.1750
 31
0.0000
  0
LINE
  8
94
 10
146.0500
 20
257.1750
 30
0.0000
 11
98.4250
 21
257.1750
 31
0.0000
  0
LINE
  8
94
 10
98.4250
 20
257.1750
 30
0.0000
 11
50.8000
 21
257.1750
 31
0.0000
  0
LINE
  8
94
 10
50.8000
 20
257.1750
 30
0.0000
 11
3.1750
 21
257.1750
 31
0.0000
  0
LINE
  8
94
 10
3.1750
 20
257.1750
 30
0.0000
 11
3.1750
 21
206.3750
 31
0.0000
  0
LINE
  8
94
 10
3.1750
 20
206.3750
 30
0.0000
 11
3.1750
 21
155.5750
 31
0.0000
  0
LINE
  8
94
 10
3.1750
 20
155.5750
 30
0.0000
 11
3.1750
 21
104.7750
 31
0.0000
  0
LINE
  8
94
 10
3.1750
 20
104.7750
 30
0.0000
 11
3.1750
 21
53.9750
 31
0.0000
  0
LINE
  8
94
 10
3.1750
 20
53.9750
 30
0.0000
 11
3.1750
 21
3.1750
 31
0.0000
  0
LINE
  8
94
 10
387.3500
 20
260.3500
 30
0.0000
 11
336.5500
 21
260.3500
 31
0.0000
  0
LINE
  8
94
 10
336.5500
 20
260.3500
 30
0.0000
 11
288.9250
 21
260.3500
 31
0.0000
  0
LINE
  8
94
 10
288.9250
 20
260.3500
 30
0.0000
 11
241.3000
 21
260.3500
 31
0.0000
  0
LINE
  8
94
 10
241.3000
 20
260.3500
 30
0.0000
 11
193.6750
 21
260.3500
 31
0.0000
  0
LINE
  8
94
 10
193.6750
 20
260.3500
 30
0.0000
 11
146.0500
 21
260.3500
 31
0.0000
  0
LINE
  8
94
 10
193.6750
 20
260.3500
 30
0.0000
 11
193.6750
 21
257.1750
 31
0.0000
  0
LINE
  8
94
 10
193.6750
 20
3.1750
 30
0.0000
 11
193.6750
 21
0.0000
 31
0.0000
  0
LINE
  8
94
 10
0.0000
 20
104.7750
 30
0.0000
 11
3.1750
 21
104.7750
 31
0.0000
  0
LINE
  8
94
 10
384.1750
 20
155.5750
 30
0.0000
 11
387.3500
 21
155.5750
 31
0.0000
  0
LINE
  8
94
 10
98.4250
 20
257.1750
 30
0.0000
 11
98.4250
 21
260.3500
 31
0.0000
  0
LINE
  8
94
 10
98.4250
 20
3.1750
 30
0.0000
 11
98.4250
 21
0.0000
 31
0.0000
  0
LINE
  8
94
 10
288.9250
 20
260.3500
 30
0.0000
 11
288.9250
 21
257.1750
 31
0.0000
  0
LINE
  8
94
 10
288.9250
 20
3.1750
 30
0.0000
 11
288.9250
 21
0.0000
 31
0.0000
  0
LINE
  8
94
 10
0.0000
 20
53.9750
 30
0.0000
 11
3.1750
 21
53.9750
 31
0.0000
  0
LINE
  8
94
 10
384.1750
 20
104.7750
 30
0.0000
 11
387.3500
 21
104.7750
 31
0.0000
  0
LINE
  8
94
 10
0.0000
 20
155.5750
 30
0.0000
 11
3.1750
 21
155.5750
 31
0.0000
  0
LINE
  8
94
 10
384.1750
 20
206.3750
 30
0.0000
 11
387.3500
 21
206.3750
 31
0.0000
  0
LINE
  8
94
 10
50.8000
 20
257.1750
 30
0.0000
 11
50.8000
 21
260.3500
 31
0.0000
  0
LINE
  8
94
 10
0.0000
 20
206.3750
 30
0.0000
 11
3.1750
 21
206.3750
 31
0.0000
  0
LINE
  8
94
 10
384.1750
 20
53.9750
 30
0.0000
 11
387.3500
 21
53.9750
 31
0.0000
  0
LINE
  8
94
 10
146.0500
 20
257.1750
 30
0.0000
 11
146.0500
 21
260.3500
 31
0.0000
  0
LINE
  8
94
 10
241.3000
 20
260.3500
 30
0.0000
 11
241.3000
 21
257.1750
 31
0.0000
  0
LINE
  8
94
 10
336.5500
 20
260.3500
 30
0.0000
 11
336.5500
 21
257.1750
 31
0.0000
  0
LINE
  8
94
 10
336.5500
 20
3.1750
 30
0.0000
 11
336.5500
 21
0.0000
 31
0.0000
  0
LINE
  8
94
 10
241.3000
 20
3.1750
 30
0.0000
 11
241.3000
 21
0.0000
 31
0.0000
  0
LINE
  8
94
 10
146.0500
 20
3.1750
 30
0.0000
 11
146.0500
 21
0.0000
 31
0.0000
  0
LINE
  8
94
 10
50.8000
 20
0.0000
 30
0.0000
 11
50.8000
 21
3.1750
 31
0.0000
  0
LINE
  8
94
 10
288.9250
 20
3.1750
 30
0.0000
 11
288.9250
 21
23.4950
 31
0.0000
  0
LINE
  8
94
 10
288.9250
 20
23.4950
 30
0.0000
 11
307.3400
 21
23.4950
 31
0.0000
  0
LINE
  8
94
 10
307.3400
 20
23.4950
 30
0.0000
 11
384.1750
 21
23.4950
 31
0.0000
  0
LINE
  8
94
 10
366.3950
 20
3.1750
 30
0.0000
 11
366.3950
 21
8.2550
 31
0.0000
  0
LINE
  8
94
 10
366.3950
 20
8.2550
 30
0.0000
 11
384.1750
 21
8.2550
 31
0.0000
  0
LINE
  8
94
 10
366.3950
 20
8.2550
 30
0.0000
 11
307.3400
 21
8.2550
 31
0.0000
  0
LINE
  8
94
 10
307.3400
 20
8.2550
 30
0.0000
 11
307.3400
 21
3.1750
 31
0.0000
  0
LINE
  8
94
 10
307.3400
 20
8.2550
 30
0.0000
 11
307.3400
 21
13.3350
 31
0.0000
  0
LINE
  8
94
 10
307.3400
 20
13.3350
 30
0.0000
 11
384.1750
 21
13.3350
 31
0.0000
  0
LINE
  8
94
 10
307.3400
 20
13.3350
 30
0.0000
 11
307.3400
 21
18.4150
 31
0.0000
  0
LINE
  8
94
 10
307.3400
 20
18.4150
 30
0.0000
 11
384.1750
 21
18.4150
 31
0.0000
  0
LINE
  8
94
 10
307.3400
 20
18.4150
 30
0.0000
 11
307.3400
 21
23.4950
 31
0.0000
  0
LINE
  8
94
 10
24.4856
 20
0.3556
 30
0.0000
 11
24.4856
 21
1.9148
 31
0.0000
  0
LINE
  8
94
 10
24.4856
 20
1.9148
 30
0.0000
 11
25.2652
 21
2.6944
 31
0.0000
  0
LINE
  8
94
 10
25.2652
 20
2.6944
 30
0.0000
 11
26.0448
 21
1.9148
 31
0.0000
  0
LINE
  8
94
 10
26.0448
 20
1.9148
 30
0.0000
 11
26.0448
 21
0.3556
 31
0.0000
  0
LINE
  8
94
 10
24.4856
 20
1.5250
 30
0.0000
 11
26.0448
 21
1.5250
 31
0.0000
  0
LINE
  8
94
 10
74.5236
 20
0.3556
 30
0.0000
 11
74.5236
 21
2.6944
 31
0.0000
  0
LINE
  8
94
 10
74.5236
 20
2.6944
 30
0.0000
 11
75.6930
 21
2.6944
 31
0.0000
  0
LINE
  8
94
 10
75.6930
 20
2.6944
 30
0.0000
 11
76.0828
 21
2.3046
 31
0.0000
  0
LINE
  8
94
 10
76.0828
 20
2.3046
 30
0.0000
 11
76.0828
 21
1.9148
 31
0.0000
  0
LINE
  8
94
 10
76.0828
 20
1.9148
 30
0.0000
 11
75.6930
 21
1.5250
 31
0.0000
  0
LINE
  8
94
 10
75.6930
 20
1.5250
 30
0.0000
 11
76.0828
 21
1.1352
 31
0.0000
  0
LINE
  8
94
 10
76.0828
 20
1.1352
 30
0.0000
 11
76.0828
 21
0.7454
 31
0.0000
  0
LINE
  8
94
 10
76.0828
 20
0.7454
 30
0.0000
 11
75.6930
 21
0.3556
 31
0.0000
  0
LINE
  8
94
 10
75.6930
 20
0.3556
 30
0.0000
 11
74.5236
 21
0.3556
 31
0.0000
  0
LINE
  8
94
 10
74.5236
 20
1.5250
 30
0.0000
 11
75.6930
 21
1.5250
 31
0.0000
  0
LINE
  8
94
 10
122.8188
 20
2.3046
 30
0.0000
 11
122.4290
 21
2.6944
 31
0.0000
  0
LINE
  8
94
 10
122.4290
 20
2.6944
 30
0.0000
 11
121.6494
 21
2.6944
 31
0.0000
  0
LINE
  8
94
 10
121.6494
 20
2.6944
 30
0.0000
 11
121.2596
 21
2.3046
 31
0.0000
  0
LINE
  8
94
 10
121.2596
 20
2.3046
 30
0.0000
 11
121.2596
 21
0.7454
 31
0.0000
  0
LINE
  8
94
 10
121.2596
 20
0.7454
 30
0.0000
 11
121.6494
 21
0.3556
 31
0.0000
  0
LINE
  8
94
 10
121.6494
 20
0.3556
 30
0.0000
 11
122.4290
 21
0.3556
 31
0.0000
  0
LINE
  8
94
 10
122.4290
 20
0.3556
 30
0.0000
 11
122.8188
 21
0.7454
 31
0.0000
  0
LINE
  8
94
 10
169.5196
 20
2.6944
 30
0.0000
 11
169.5196
 21
0.3556
 31
0.0000
  0
LINE
  8
94
 10
169.5196
 20
0.3556
 30
0.0000
 11
170.6890
 21
0.3556
 31
0.0000
  0
LINE
  8
94
 10
170.6890
 20
0.3556
 30
0.0000
 11
171.0788
 21
0.7454
 31
0.0000
  0
LINE
  8
94
 10
171.0788
 20
0.7454
 30
0.0000
 11
171.0788
 21
2.3046
 31
0.0000
  0
LINE
  8
94
 10
171.0788
 20
2.3046
 30
0.0000
 11
170.6890
 21
2.6944
 31
0.0000
  0
LINE
  8
94
 10
170.6890
 20
2.6944
 30
0.0000
 11
169.5196
 21
2.6944
 31
0.0000
  0
LINE
  8
94
 10
218.5768
 20
2.6944
 30
0.0000
 11
217.0176
 21
2.6944
 31
0.0000
  0
LINE
  8
94
 10
217.0176
 20
2.6944
 30
0.0000
 11
217.0176
 21
0.3556
 31
0.0000
  0
LINE
  8
94
 10
217.0176
 20
0.3556
 30
0.0000
 11
218.5768
 21
0.3556
 31
0.0000
  0
LINE
  8
94
 10
217.0176
 20
1.5250
 30
0.0000
 11
217.7972
 21
1.5250
 31
0.0000
  0
LINE
  8
94
 10
263.7536
 20
0.3556
 30
0.0000
 11
263.7536
 21
2.6944
 31
0.0000
  0
LINE
  8
94
 10
263.7536
 20
2.6944
 30
0.0000
 11
265.3128
 21
2.6944
 31
0.0000
  0
LINE
  8
94
 10
263.7536
 20
1.5250
 30
0.0000
 11
264.5332
 21
1.5250
 31
0.0000
  0
LINE
  8
94
 10
312.3028
 20
2.3046
 30
0.0000
 11
311.9130
 21
2.6944
 31
0.0000
  0
LINE
  8
94
 10
311.9130
 20
2.6944
 30
0.0000
 11
311.1334
 21
2.6944
 31
0.0000
  0
LINE
  8
94
 10
311.1334
 20
2.6944
 30
0.0000
 11
310.7436
 21
2.3046
 31
0.0000
  0
LINE
  8
94
 10
310.7436
 20
2.3046
 30
0.0000
 11
310.7436
 21
0.7454
 31
0.0000
  0
LINE
  8
94
 10
310.7436
 20
0.7454
 30
0.0000
 11
311.1334
 21
0.3556
 31
0.0000
  0
LINE
  8
94
 10
311.1334
 20
0.3556
 30
0.0000
 11
311.9130
 21
0.3556
 31
0.0000
  0
LINE
  8
94
 10
311.9130
 20
0.3556
 30
0.0000
 11
312.3028
 21
0.7454
 31
0.0000
  0
LINE
  8
94
 10
312.3028
 20
0.7454
 30
0.0000
 11
312.3028
 21
1.5250
 31
0.0000
  0
LINE
  8
94
 10
312.3028
 20
1.5250
 30
0.0000
 11
311.5232
 21
1.5250
 31
0.0000
  0
LINE
  8
94
 10
361.0356
 20
0.3556
 30
0.0000
 11
361.0356
 21
2.6944
 31
0.0000
  0
LINE
  8
94
 10
361.0356
 20
1.5250
 30
0.0000
 11
362.5948
 21
1.5250
 31
0.0000
  0
LINE
  8
94
 10
362.5948
 20
2.6944
 30
0.0000
 11
362.5948
 21
0.3556
 31
0.0000
  0
LINE
  8
94
 10
385.1656
 20
30.3628
 30
0.0000
 11
385.9452
 21
31.1424
 31
0.0000
  0
LINE
  8
94
 10
385.9452
 20
31.1424
 30
0.0000
 11
385.9452
 21
28.8036
 31
0.0000
  0
LINE
  8
94
 10
385.1656
 20
28.8036
 30
0.0000
 11
386.7248
 21
28.8036
 31
0.0000
  0
LINE
  8
94
 10
386.4708
 20
79.6036
 30
0.0000
 11
384.9116
 21
79.6036
 31
0.0000
  0
LINE
  8
94
 10
384.9116
 20
79.6036
 30
0.0000
 11
386.4708
 21
81.1628
 31
0.0000
  0
LINE
  8
94
 10
386.4708
 20
81.1628
 30
0.0000
 11
386.4708
 21
81.5526
 31
0.0000
  0
LINE
  8
94
 10
386.4708
 20
81.5526
 30
0.0000
 11
386.0810
 21
81.9424
 31
0.0000
  0
LINE
  8
94
 10
386.0810
 20
81.9424
 30
0.0000
 11
385.3014
 21
81.9424
 31
0.0000
  0
LINE
  8
94
 10
385.3014
 20
81.9424
 30
0.0000
 11
384.9116
 21
81.5526
 31
0.0000
  0
LINE
  8
94
 10
384.9116
 20
132.3526
 30
0.0000
 11
385.3014
 21
132.7424
 31
0.0000
  0
LINE
  8
94
 10
385.3014
 20
132.7424
 30
0.0000
 11
386.0810
 21
132.7424
 31
0.0000
  0
LINE
  8
94
 10
386.0810
 20
132.7424
 30
0.0000
 11
386.4708
 21
132.3526
 31
0.0000
  0
LINE
  8
94
 10
386.4708
 20
132.3526
 30
0.0000
 11
386.4708
 21
131.9628
 31
0.0000
  0
LINE
  8
94
 10
386.4708
 20
131.9628
 30
0.0000
 11
386.0810
 21
131.5730
 31
0.0000
  0
LINE
  8
94
 10
386.0810
 20
131.5730
 30
0.0000
 11
385.6912
 21
131.5730
 31
0.0000
  0
LINE
  8
94
 10
386.0810
 20
131.5730
 30
0.0000
 11
386.4708
 21
131.1832
 31
0.0000
  0
LINE
  8
94
 10
386.4708
 20
131.1832
 30
0.0000
 11
386.4708
 21
130.7934
 31
0.0000
  0
LINE
  8
94
 10
386.4708
 20
130.7934
 30
0.0000
 11
386.0810
 21
130.4036
 31
0.0000
  0
LINE
  8
94
 10
386.0810
 20
130.4036
 30
0.0000
 11
385.3014
 21
130.4036
 31
0.0000
  0
LINE
  8
94
 10
385.3014
 20
130.4036
 30
0.0000
 11
384.9116
 21
130.7934
 31
0.0000
  0
LINE
  8
94
 10
386.0810
 20
181.9656
 30
0.0000
 11
386.0810
 21
184.3044
 31
0.0000
  0
LINE
  8
94
 10
386.0810
 20
184.3044
 30
0.0000
 11
384.9116
 21
183.1350
 31
0.0000
  0
LINE
  8
94
 10
384.9116
 20
183.1350
 30
0.0000
 11
386.4708
 21
183.1350
 31
0.0000
  0
LINE
  8
94
 10
386.4708
 20
233.5804
 30
0.0000
 11
384.9116
 21
233.5804
 31
0.0000
  0
LINE
  8
94
 10
384.9116
 20
233.5804
 30
0.0000
 11
384.9116
 21
232.4110
 31
0.0000
  0
LINE
  8
94
 10
384.9116
 20
232.4110
 30
0.0000
 11
385.6912
 21
232.8008
 31
0.0000
  0
LINE
  8
94
 10
385.6912
 20
232.8008
 30
0.0000
 11
386.0810
 21
232.8008
 31
0.0000
  0
LINE
  8
94
 10
386.0810
 20
232.8008
 30
0.0000
 11
386.4708
 21
232.4110
 31
0.0000
  0
LINE
  8
94
 10
386.4708
 20
232.4110
 30
0.0000
 11
386.4708
 21
231.6314
 31
0.0000
  0
LINE
  8
94
 10
386.4708
 20
231.6314
 30
0.0000
 11
386.0810
 21
231.2416
 31
0.0000
  0
LINE
  8
94
 10
386.0810
 20
231.2416
 30
0.0000
 11
385.3014
 21
231.2416
 31
0.0000
  0
LINE
  8
94
 10
385.3014
 20
231.2416
 30
0.0000
 11
384.9116
 21
231.6314
 31
0.0000
  0
LINE
  8
94
 10
361.2896
 20
257.6576
 30
0.0000
 11
361.2896
 21
259.9964
 31
0.0000
  0
LINE
  8
94
 10
361.2896
 20
258.8270
 30
0.0000
 11
362.8488
 21
258.8270
 31
0.0000
  0
LINE
  8
94
 10
362.8488
 20
259.9964
 30
0.0000
 11
362.8488
 21
257.6576
 31
0.0000
  0
LINE
  8
94
 10
313.0648
 20
259.6066
 30
0.0000
 11
312.6750
 21
259.9964
 31
0.0000
  0
LINE
  8
94
 10
312.6750
 20
259.9964
 30
0.0000
 11
311.8954
 21
259.9964
 31
0.0000
  0
LINE
  8
94
 10
311.8954
 20
259.9964
 30
0.0000
 11
311.5056
 21
259.6066
 31
0.0000
  0
LINE
  8
94
 10
311.5056
 20
259.6066
 30
0.0000
 11
311.5056
 21
258.0474
 31
0.0000
  0
LINE
  8
94
 10
311.5056
 20
258.0474
 30
0.0000
 11
311.8954
 21
257.6576
 31
0.0000
  0
LINE
  8
94
 10
311.8954
 20
257.6576
 30
0.0000
 11
312.6750
 21
257.6576
 31
0.0000
  0
LINE
  8
94
 10
312.6750
 20
257.6576
 30
0.0000
 11
313.0648
 21
258.0474
 31
0.0000
  0
LINE
  8
94
 10
313.0648
 20
258.0474
 30
0.0000
 11
313.0648
 21
258.8270
 31
0.0000
  0
LINE
  8
94
 10
313.0648
 20
258.8270
 30
0.0000
 11
312.2852
 21
258.8270
 31
0.0000
  0
LINE
  8
94
 10
262.9916
 20
257.6576
 30
0.0000
 11
262.9916
 21
259.9964
 31
0.0000
  0
LINE
  8
94
 10
262.9916
 20
259.9964
 30
0.0000
 11
264.5508
 21
259.9964
 31
0.0000
  0
LINE
  8
94
 10
262.9916
 20
258.8270
 30
0.0000
 11
263.7712
 21
258.8270
 31
0.0000
  0
LINE
  8
94
 10
217.5608
 20
259.9964
 30
0.0000
 11
216.0016
 21
259.9964
 31
0.0000
  0
LINE
  8
94
 10
216.0016
 20
259.9964
 30
0.0000
 11
216.0016
 21
257.6576
 31
0.0000
  0
LINE
  8
94
 10
216.0016
 20
257.6576
 30
0.0000
 11
217.5608
 21
257.6576
 31
0.0000
  0
LINE
  8
94
 10
216.0016
 20
258.8270
 30
0.0000
 11
216.7812
 21
258.8270
 31
0.0000
  0
LINE
  8
94
 10
168.2496
 20
259.9964
 30
0.0000
 11
168.2496
 21
257.6576
 31
0.0000
  0
LINE
  8
94
 10
168.2496
 20
257.6576
 30
0.0000
 11
169.4190
 21
257.6576
 31
0.0000
  0
LINE
  8
94
 10
169.4190
 20
257.6576
 30
0.0000
 11
169.8088
 21
258.0474
 31
0.0000
  0
LINE
  8
94
 10
169.8088
 20
258.0474
 30
0.0000
 11
169.8088
 21
259.6066
 31
0.0000
  0
LINE
  8
94
 10
169.8088
 20
259.6066
 30
0.0000
 11
169.4190
 21
259.9964
 31
0.0000
  0
LINE
  8
94
 10
169.4190
 20
259.9964
 30
0.0000
 11
168.2496
 21
259.9964
 31
0.0000
  0
LINE
  8
94
 10
122.5648
 20
259.6066
 30
0.0000
 11
122.1750
 21
259.9964
 31
0.0000
  0
LINE
  8
94
 10
122.1750
 20
259.9964
 30
0.0000
 11
121.3954
 21
259.9964
 31
0.0000
  0
LINE
  8
94
 10
121.3954
 20
259.9964
 30
0.0000
 11
121.0056
 21
259.6066
 31
0.0000
  0
LINE
  8
94
 10
121.0056
 20
259.6066
 30
0.0000
 11
121.0056
 21
258.0474
 31
0.0000
  0
LINE
  8
94
 10
121.0056
 20
258.0474
 30
0.0000
 11
121.3954
 21
257.6576
 31
0.0000
  0
LINE
  8
94
 10
121.3954
 20
257.6576
 30
0.0000
 11
122.1750
 21
257.6576
 31
0.0000
  0
LINE
  8
94
 10
122.1750
 20
257.6576
 30
0.0000
 11
122.5648
 21
258.0474
 31
0.0000
  0
LINE
  8
94
 10
72.9996
 20
257.6576
 30
0.0000
 11
72.9996
 21
259.9964
 31
0.0000
  0
LINE
  8
94
 10
72.9996
 20
259.9964
 30
0.0000
 11
74.1690
 21
259.9964
 31
0.0000
  0
LINE
  8
94
 10
74.1690
 20
259.9964
 30
0.0000
 11
74.5588
 21
259.6066
 31
0.0000
  0
LINE
  8
94
 10
74.5588
 20
259.6066
 30
0.0000
 11
74.5588
 21
259.2168
 31
0.0000
  0
LINE
  8
94
 10
74.5588
 20
259.2168
 30
0.0000
 11
74.1690
 21
258.8270
 31
0.0000
  0
LINE
  8
94
 10
74.1690
 20
258.8270
 30
0.0000
 11
74.5588
 21
258.4372
 31
0.0000
  0
LINE
  8
94
 10
74.5588
 20
258.4372
 30
0.0000
 11
74.5588
 21
258.0474
 31
0.0000
  0
LINE
  8
94
 10
74.5588
 20
258.0474
 30
0.0000
 11
74.1690
 21
257.6576
 31
0.0000
  0
LINE
  8
94
 10
74.1690
 20
257.6576
 30
0.0000
 11
72.9996
 21
257.6576
 31
0.0000
  0
LINE
  8
94
 10
72.9996
 20
258.8270
 30
0.0000
 11
74.1690
 21
258.8270
 31
0.0000
  0
LINE
  8
94
 10
24.4856
 20
257.6576
 30
0.0000
 11
24.4856
 21
259.2168
 31
0.0000
  0
LINE
  8
94
 10
24.4856
 20
259.2168
 30
0.0000
 11
25.2652
 21
259.9964
 31
0.0000
  0
LINE
  8
94
 10
25.2652
 20
259.9964
 30
0.0000
 11
26.0448
 21
259.2168
 31
0.0000
  0
LINE
  8
94
 10
26.0448
 20
259.2168
 30
0.0000
 11
26.0448
 21
257.6576
 31
0.0000
  0
LINE
  8
94
 10
24.4856
 20
258.8270
 30
0.0000
 11
26.0448
 21
258.8270
 31
0.0000
  0
LINE
  8
94
 10
2.4228
 20
233.5804
 30
0.0000
 11
0.8636
 21
233.5804
 31
0.0000
  0
LINE
  8
94
 10
0.8636
 20
233.5804
 30
0.0000
 11
0.8636
 21
232.4110
 31
0.0000
  0
LINE
  8
94
 10
0.8636
 20
232.4110
 30
0.0000
 11
1.6432
 21
232.8008
 31
0.0000
  0
LINE
  8
94
 10
1.6432
 20
232.8008
 30
0.0000
 11
2.0330
 21
232.8008
 31
0.0000
  0
LINE
  8
94
 10
2.0330
 20
232.8008
 30
0.0000
 11
2.4228
 21
232.4110
 31
0.0000
  0
LINE
  8
94
 10
2.4228
 20
232.4110
 30
0.0000
 11
2.4228
 21
231.6314
 31
0.0000
  0
LINE
  8
94
 10
2.4228
 20
231.6314
 30
0.0000
 11
2.0330
 21
231.2416
 31
0.0000
  0
LINE
  8
94
 10
2.0330
 20
231.2416
 30
0.0000
 11
1.2534
 21
231.2416
 31
0.0000
  0
LINE
  8
94
 10
1.2534
 20
231.2416
 30
0.0000
 11
0.8636
 21
231.6314
 31
0.0000
  0
LINE
  8
94
 10
2.0330
 20
181.7116
 30
0.0000
 11
2.0330
 21
184.0504
 31
0.0000
  0
LINE
  8
94
 10
2.0330
 20
184.0504
 30
0.0000
 11
0.8636
 21
182.8810
 31
0.0000
  0
LINE
  8
94
 10
0.8636
 20
182.8810
 30
0.0000
 11
2.4228
 21
182.8810
 31
0.0000
  0
LINE
  8
94
 10
0.8636
 20
132.3526
 30
0.0000
 11
1.2534
 21
132.7424
 31
0.0000
  0
LINE
  8
94
 10
1.2534
 20
132.7424
 30
0.0000
 11
2.0330
 21
132.7424
 31
0.0000
  0
LINE
  8
94
 10
2.0330
 20
132.7424
 30
0.0000
 11
2.4228
 21
132.3526
 31
0.0000
  0
LINE
  8
94
 10
2.4228
 20
132.3526
 30
0.0000
 11
2.4228
 21
131.9628
 31
0.0000
  0
LINE
  8
94
 10
2.4228
 20
131.9628
 30
0.0000
 11
2.0330
 21
131.5730
 31
0.0000
  0
LINE
  8
94
 10
2.0330
 20
131.5730
 30
0.0000
 11
1.6432
 21
131.5730
 31
0.0000
  0
LINE
  8
94
 10
2.0330
 20
131.5730
 30
0.0000
 11
2.4228
 21
131.1832
 31
0.0000
  0
LINE
  8
94
 10
2.4228
 20
131.1832
 30
0.0000
 11
2.4228
 21
130.7934
 31
0.0000
  0
LINE
  8
94
 10
2.4228
 20
130.7934
 30
0.0000
 11
2.0330
 21
130.4036
 31
0.0000
  0
LINE
  8
94
 10
2.0330
 20
130.4036
 30
0.0000
 11
1.2534
 21
130.4036
 31
0.0000
  0
LINE
  8
94
 10
1.2534
 20
130.4036
 30
0.0000
 11
0.8636
 21
130.7934
 31
0.0000
  0
LINE
  8
94
 10
2.4228
 20
79.3496
 30
0.0000
 11
0.8636
 21
79.3496
 31
0.0000
  0
LINE
  8
94
 10
0.8636
 20
79.3496
 30
0.0000
 11
2.4228
 21
80.9088
 31
0.0000
  0
LINE
  8
94
 10
2.4228
 20
80.9088
 30
0.0000
 11
2.4228
 21
81.2986
 31
0.0000
  0
LINE
  8
94
 10
2.4228
 20
81.2986
 30
0.0000
 11
2.0330
 21
81.6884
 31
0.0000
  0
LINE
  8
94
 10
2.0330
 20
81.6884
 30
0.0000
 11
1.2534
 21
81.6884
 31
0.0000
  0
LINE
  8
94
 10
1.2534
 20
81.6884
 30
0.0000
 11
0.8636
 21
81.2986
 31
0.0000
  0
LINE
  8
94
 10
1.1176
 20
28.3308
 30
0.0000
 11
1.8972
 21
29.1104
 31
0.0000
  0
LINE
  8
94
 10
1.8972
 20
29.1104
 30
0.0000
 11
1.8972
 21
26.7716
 31
0.0000
  0
LINE
  8
94
 10
1.1176
 20
26.7716
 30
0.0000
 11
2.6768
 21
26.7716
 31
0.0000
  0
LINE
  8
94
 10
319.2526
 20
21.0918
 30
0.0000
 11
320.0322
 21
21.8714
 31
0.0000
  0
LINE
  8
94
 10
320.0322
 20
21.8714
 30
0.0000
 11
320.0322
 21
19.5326
 31
0.0000
  0
LINE
  8
94
 10
319.2526
 20
19.5326
 30
0.0000
 11
320.8118
 21
19.5326
 31
0.0000
  0
LINE
  8
94
 10
322.7608
 20
19.5326
 30
0.0000
 11
322.7608
 21
21.8714
 31
0.0000
  0
LINE
  8
94
 10
322.7608
 20
21.8714
 30
0.0000
 11
321.5914
 21
20.7020
 31
0.0000
  0
LINE
  8
94
 10
321.5914
 20
20.7020
 30
0.0000
 11
323.1506
 21
20.7020
 31
0.0000
  0
LINE
  8
94
 10
323.9302
 20
19.9224
 30
0.0000
 11
323.9302
 21
21.4816
 31
0.0000
  0
LINE
  8
94
 10
323.9302
 20
21.4816
 30
0.0000
 11
324.3200
 21
21.8714
 31
0.0000
  0
LINE
  8
94
 10
324.3200
 20
21.8714
 30
0.0000
 11
325.0996
 21
21.8714
 31
0.0000
  0
LINE
  8
94
 10
325.0996
 20
21.8714
 30
0.0000
 11
325.4894
 21
21.4816
 31
0.0000
  0
LINE
  8
94
 10
325.4894
 20
21.4816
 30
0.0000
 11
325.4894
 21
19.9224
 31
0.0000
  0
LINE
  8
94
 10
325.4894
 20
19.9224
 30
0.0000
 11
325.0996
 21
19.5326
 31
0.0000
  0
LINE
  8
94
 10
325.0996
 20
19.5326
 30
0.0000
 11
324.3200
 21
19.5326
 31
0.0000
  0
LINE
  8
94
 10
324.3200
 20
19.5326
 30
0.0000
 11
323.9302
 21
19.9224
 31
0.0000
  0
LINE
  8
94
 10
323.9302
 20
19.9224
 30
0.0000
 11
325.4894
 21
21.4816
 31
0.0000
  0
LINE
  8
94
 10
326.2690
 20
19.9224
 30
0.0000
 11
326.2690
 21
21.4816
 31
0.0000
  0
LINE
  8
94
 10
326.2690
 20
21.4816
 30
0.0000
 11
326.6588
 21
21.8714
 31
0.0000
  0
LINE
  8
94
 10
326.6588
 20
21.8714
 30
0.0000
 11
327.4384
 21
21.8714
 31
0.0000
  0
LINE
  8
94
 10
327.4384
 20
21.8714
 30
0.0000
 11
327.8282
 21
21.4816
 31
0.0000
  0
LINE
  8
94
 10
327.8282
 20
21.4816
 30
0.0000
 11
327.8282
 21
19.9224
 31
0.0000
  0
LINE
  8
94
 10
327.8282
 20
19.9224
 30
0.0000
 11
327.4384
 21
19.5326
 31
0.0000
  0
LINE
  8
94
 10
327.4384
 20
19.5326
 30
0.0000
 11
326.6588
 21
19.5326
 31
0.0000
  0
LINE
  8
94
 10
326.6588
 20
19.5326
 30
0.0000
 11
326.2690
 21
19.9224
 31
0.0000
  0
LINE
  8
94
 10
326.2690
 20
19.9224
 30
0.0000
 11
327.8282
 21
21.4816
 31
0.0000
  0
LINE
  8
94
 10
328.6078
 20
19.9224
 30
0.0000
 11
328.6078
 21
21.4816
 31
0.0000
  0
LINE
  8
94
 10
328.6078
 20
21.4816
 30
0.0000
 11
328.9976
 21
21.8714
 31
0.0000
  0
LINE
  8
94
 10
328.9976
 20
21.8714
 30
0.0000
 11
329.7772
 21
21.8714
 31
0.0000
  0
LINE
  8
94
 10
329.7772
 20
21.8714
 30
0.0000
 11
330.1670
 21
21.4816
 31
0.0000
  0
LINE
  8
94
 10
330.1670
 20
21.4816
 30
0.0000
 11
330.1670
 21
19.9224
 31
0.0000
  0
LINE
  8
94
 10
330.1670
 20
19.9224
 30
0.0000
 11
329.7772
 21
19.5326
 31
0.0000
  0
LINE
  8
94
 10
329.7772
 20
19.5326
 30
0.0000
 11
328.9976
 21
19.5326
 31
0.0000
  0
LINE
  8
94
 10
328.9976
 20
19.5326
 30
0.0000
 11
328.6078
 21
19.9224
 31
0.0000
  0
LINE
  8
94
 10
328.6078
 20
19.9224
 30
0.0000
 11
330.1670
 21
21.4816
 31
0.0000
  0
LINE
  8
94
 10
332.5058
 20
21.8714
 30
0.0000
 11
331.7262
 21
21.4816
 31
0.0000
  0
LINE
  8
94
 10
331.7262
 20
21.4816
 30
0.0000
 11
330.9466
 21
20.7020
 31
0.0000
  0
LINE
  8
94
 10
330.9466
 20
20.7020
 30
0.0000
 11
330.9466
 21
19.9224
 31
0.0000
  0
LINE
  8
94
 10
330.9466
 20
19.9224
 30
0.0000
 11
331.3364
 21
19.5326
 31
0.0000
  0
LINE
  8
94
 10
331.3364
 20
19.5326
 30
0.0000
 11
332.1160
 21
19.5326
 31
0.0000
  0
LINE
  8
94
 10
332.1160
 20
19.5326
 30
0.0000
 11
332.5058
 21
19.9224
 31
0.0000
  0
LINE
  8
94
 10
332.5058
 20
19.9224
 30
0.0000
 11
332.5058
 21
20.3122
 31
0.0000
  0
LINE
  8
94
 10
332.5058
 20
20.3122
 30
0.0000
 11
332.1160
 21
20.7020
 31
0.0000
  0
LINE
  8
94
 10
332.1160
 20
20.7020
 30
0.0000
 11
330.9466
 21
20.7020
 31
0.0000
  0
LINE
  8
94
 10
333.2854
 20
19.5326
 30
0.0000
 11
333.2854
 21
21.8714
 31
0.0000
  0
LINE
  8
94
 10
333.2854
 20
21.8714
 30
0.0000
 11
334.4548
 21
21.8714
 31
0.0000
  0
LINE
  8
94
 10
334.4548
 20
21.8714
 30
0.0000
 11
334.8446
 21
21.4816
 31
0.0000
  0
LINE
  8
94
 10
334.8446
 20
21.4816
 30
0.0000
 11
334.8446
 21
20.7020
 31
0.0000
  0
LINE
  8
94
 10
334.8446
 20
20.7020
 30
0.0000
 11
334.4548
 21
20.3122
 31
0.0000
  0
LINE
  8
94
 10
334.4548
 20
20.3122
 30
0.0000
 11
333.2854
 21
20.3122
 31
0.0000
  0
LINE
  8
94
 10
334.0650
 20
20.3122
 30
0.0000
 11
334.8446
 21
19.5326
 31
0.0000
  0
LINE
  8
94
 10
335.6242
 20
19.1428
 30
0.0000
 11
337.1834
 21
19.1428
 31
0.0000
  0
LINE
  8
94
 10
337.9630
 20
21.4816
 30
0.0000
 11
338.3528
 21
21.8714
 31
0.0000
  0
LINE
  8
94
 10
338.3528
 20
21.8714
 30
0.0000
 11
339.1324
 21
21.8714
 31
0.0000
  0
LINE
  8
94
 10
339.1324
 20
21.8714
 30
0.0000
 11
339.5222
 21
21.4816
 31
0.0000
  0
LINE
  8
94
 10
339.5222
 20
21.4816
 30
0.0000
 11
339.5222
 21
21.0918
 31
0.0000
  0
LINE
  8
94
 10
339.5222
 20
21.0918
 30
0.0000
 11
339.1324
 21
20.7020
 31
0.0000
  0
LINE
  8
94
 10
339.1324
 20
20.7020
 30
0.0000
 11
338.7426
 21
20.7020
 31
0.0000
  0
LINE
  8
94
 10
339.1324
 20
20.7020
 30
0.0000
 11
339.5222
 21
20.3122
 31
0.0000
  0
LINE
  8
94
 10
339.5222
 20
20.3122
 30
0.0000
 11
339.5222
 21
19.9224
 31
0.0000
  0
LINE
  8
94
 10
339.5222
 20
19.9224
 30
0.0000
 11
339.1324
 21
19.5326
 31
0.0000
  0
LINE
  8
94
 10
339.1324
 20
19.5326
 30
0.0000
 11
338.3528
 21
19.5326
 31
0.0000
  0
LINE
  8
94
 10
338.3528
 20
19.5326
 30
0.0000
 11
337.9630
 21
19.9224
 31
0.0000
  0
LINE
  8
94
 10
340.3018
 20
19.5326
 30
0.0000
 11
340.3018
 21
21.8714
 31
0.0000
  0
LINE
  8
94
 10
340.3018
 20
20.7020
 30
0.0000
 11
341.8610
 21
20.7020
 31
0.0000
  0
LINE
  8
94
 10
341.8610
 20
21.8714
 30
0.0000
 11
341.8610
 21
19.5326
 31
0.0000
  0
LINE
  8
94
 10
342.6406
 20
19.5326
 30
0.0000
 11
342.6406
 21
21.8714
 31
0.0000
  0
LINE
  8
94
 10
342.6406
 20
21.8714
 30
0.0000
 11
343.8100
 21
21.8714
 31
0.0000
  0
LINE
  8
94
 10
343.8100
 20
21.8714
 30
0.0000
 11
344.1998
 21
21.4816
 31
0.0000
  0
LINE
  8
94
 10
344.1998
 20
21.4816
 30
0.0000
 11
344.1998
 21
20.7020
 31
0.0000
  0
LINE
  8
94
 10
344.1998
 20
20.7020
 30
0.0000
 11
343.8100
 21
20.3122
 31
0.0000
  0
LINE
  8
94
 10
343.8100
 20
20.3122
 30
0.0000
 11
342.6406
 21
20.3122
 31
0.0000
  0
LINE
  8
94
 10
344.9794
 20
19.1428
 30
0.0000
 11
346.5386
 21
19.1428
 31
0.0000
  0
LINE
  8
94
 10
347.3182
 20
21.8714
 30
0.0000
 11
347.3182
 21
19.9224
 31
0.0000
  0
LINE
  8
94
 10
347.3182
 20
19.9224
 30
0.0000
 11
347.7080
 21
19.5326
 31
0.0000
  0
LINE
  8
94
 10
347.7080
 20
19.5326
 30
0.0000
 11
348.4876
 21
19.5326
 31
0.0000
  0
LINE
  8
94
 10
348.4876
 20
19.5326
 30
0.0000
 11
348.8774
 21
19.9224
 31
0.0000
  0
LINE
  8
94
 10
348.8774
 20
19.9224
 30
0.0000
 11
348.8774
 21
21.8714
 31
0.0000
  0
LINE
  8
94
 10
349.6570
 20
18.7530
 30
0.0000
 11
349.6570
 21
21.0918
 31
0.0000
  0
LINE
  8
94
 10
349.6570
 20
21.0918
 30
0.0000
 11
350.8264
 21
21.0918
 31
0.0000
  0
LINE
  8
94
 10
350.8264
 20
21.0918
 30
0.0000
 11
351.2162
 21
20.7020
 31
0.0000
  0
LINE
  8
94
 10
351.2162
 20
20.7020
 30
0.0000
 11
351.2162
 21
19.9224
 31
0.0000
  0
LINE
  8
94
 10
351.2162
 20
19.9224
 30
0.0000
 11
350.8264
 21
19.5326
 31
0.0000
  0
LINE
  8
94
 10
350.8264
 20
19.5326
 30
0.0000
 11
349.6570
 21
19.5326
 31
0.0000
  0
LINE
  8
94
 10
352.7754
 20
18.7530
 30
0.0000
 11
353.1652
 21
18.7530
 31
0.0000
  0
LINE
  8
94
 10
353.1652
 20
18.7530
 30
0.0000
 11
353.5550
 21
19.1428
 31
0.0000
  0
LINE
  8
94
 10
353.5550
 20
19.1428
 30
0.0000
 11
353.5550
 21
21.0918
 31
0.0000
  0
LINE
  8
94
 10
353.5550
 20
21.0918
 30
0.0000
 11
352.3856
 21
21.0918
 31
0.0000
  0
LINE
  8
94
 10
352.3856
 20
21.0918
 30
0.0000
 11
351.9958
 21
20.7020
 31
0.0000
  0
LINE
  8
94
 10
351.9958
 20
20.7020
 30
0.0000
 11
351.9958
 21
19.9224
 31
0.0000
  0
LINE
  8
94
 10
351.9958
 20
19.9224
 30
0.0000
 11
352.3856
 21
19.5326
 31
0.0000
  0
LINE
  8
94
 10
352.3856
 20
19.5326
 30
0.0000
 11
353.5550
 21
19.5326
 31
0.0000
  0
LINE
  8
94
 10
354.3346
 20
19.5326
 30
0.0000
 11
354.3346
 21
21.0918
 31
0.0000
  0
LINE
  8
94
 10
354.3346
 20
20.3122
 30
0.0000
 11
355.1141
 21
21.0918
 31
0.0000
  0
LINE
  8
94
 10
355.1141
 20
21.0918
 30
0.0000
 11
355.5040
 21
21.0918
 31
0.0000
  0
LINE
  8
94
 10
356.6733
 20
21.0918
 30
0.0000
 11
357.4529
 21
21.0918
 31
0.0000
  0
LINE
  8
94
 10
357.4529
 20
21.0918
 30
0.0000
 11
357.8427
 21
20.7020
 31
0.0000
  0
LINE
  8
94
 10
357.8427
 20
20.7020
 30
0.0000
 11
357.8427
 21
19.5326
 31
0.0000
  0
LINE
  8
94
 10
357.8427
 20
19.5326
 30
0.0000
 11
356.6733
 21
19.5326
 31
0.0000
  0
LINE
  8
94
 10
356.6733
 20
19.5326
 30
0.0000
 11
356.2835
 21
19.9224
 31
0.0000
  0
LINE
  8
94
 10
356.2835
 20
19.9224
 30
0.0000
 11
356.6733
 21
20.3122
 31
0.0000
  0
LINE
  8
94
 10
356.6733
 20
20.3122
 30
0.0000
 11
357.8427
 21
20.3122
 31
0.0000
  0
LINE
  8
94
 10
360.1815
 20
21.8714
 30
0.0000
 11
360.1815
 21
19.5326
 31
0.0000
  0
LINE
  8
94
 10
360.1815
 20
19.5326
 30
0.0000
 11
359.0121
 21
19.5326
 31
0.0000
  0
LINE
  8
94
 10
359.0121
 20
19.5326
 30
0.0000
 11
358.6223
 21
19.9224
 31
0.0000
  0
LINE
  8
94
 10
358.6223
 20
19.9224
 30
0.0000
 11
358.6223
 21
20.7020
 31
0.0000
  0
LINE
  8
94
 10
358.6223
 20
20.7020
 30
0.0000
 11
359.0121
 21
21.0918
 31
0.0000
  0
LINE
  8
94
 10
359.0121
 20
21.0918
 30
0.0000
 11
360.1815
 21
21.0918
 31
0.0000
  0
LINE
  8
94
 10
362.1305
 20
19.5326
 30
0.0000
 11
361.3509
 21
19.5326
 31
0.0000
  0
LINE
  8
94
 10
361.3509
 20
19.5326
 30
0.0000
 11
360.9611
 21
19.9224
 31
0.0000
  0
LINE
  8
94
 10
360.9611
 20
19.9224
 30
0.0000
 11
360.9611
 21
20.7020
 31
0.0000
  0
LINE
  8
94
 10
360.9611
 20
20.7020
 30
0.0000
 11
361.3509
 21
21.0918
 31
0.0000
  0
LINE
  8
94
 10
361.3509
 20
21.0918
 30
0.0000
 11
362.1305
 21
21.0918
 31
0.0000
  0
LINE
  8
94
 10
362.1305
 20
21.0918
 30
0.0000
 11
362.5203
 21
20.7020
 31
0.0000
  0
LINE
  8
94
 10
362.5203
 20
20.7020
 30
0.0000
 11
362.5203
 21
20.3122
 31
0.0000
  0
LINE
  8
94
 10
362.5203
 20
20.3122
 30
0.0000
 11
360.9611
 21
20.3122
 31
0.0000
  0
LINE
  8
94
 10
311.2486
 20
9.6139
 30
0.0000
 11
309.8419
 21
9.6139
 31
0.0000
  0
LINE
  8
94
 10
309.8419
 20
9.6139
 30
0.0000
 11
311.2486
 21
11.0206
 31
0.0000
  0
LINE
  8
94
 10
311.2486
 20
11.0206
 30
0.0000
 11
311.2486
 21
11.3722
 31
0.0000
  0
LINE
  8
94
 10
311.2486
 20
11.3722
 30
0.0000
 11
310.8969
 21
11.7239
 31
0.0000
  0
LINE
  8
94
 10
310.8969
 20
11.7239
 30
0.0000
 11
310.1936
 21
11.7239
 31
0.0000
  0
LINE
  8
94
 10
310.1936
 20
11.7239
 30
0.0000
 11
309.8419
 21
11.3722
 31
0.0000
  0
LINE
  8
94
 10
311.9468
 20
9.6139
 30
0.0000
 11
313.3535
 21
11.7239
 31
0.0000
  0
LINE
  8
94
 10
315.4584
 20
9.6139
 30
0.0000
 11
314.0517
 21
9.6139
 31
0.0000
  0
LINE
  8
94
 10
314.0517
 20
9.6139
 30
0.0000
 11
315.4584
 21
11.0206
 31
0.0000
  0
LINE
  8
94
 10
315.4584
 20
11.0206
 30
0.0000
 11
315.4584
 21
11.3722
 31
0.0000
  0
LINE
  8
94
 10
315.4584
 20
11.3722
 30
0.0000
 11
315.1067
 21
11.7239
 31
0.0000
  0
LINE
  8
94
 10
315.1067
 20
11.7239
 30
0.0000
 11
314.4034
 21
11.7239
 31
0.0000
  0
LINE
  8
94
 10
314.4034
 20
11.7239
 30
0.0000
 11
314.0517
 21
11.3722
 31
0.0000
  0
LINE
  8
94
 10
316.1567
 20
9.9656
 30
0.0000
 11
316.1567
 21
11.3722
 31
0.0000
  0
LINE
  8
94
 10
316.1567
 20
11.3722
 30
0.0000
 11
316.5083
 21
11.7239
 31
0.0000
  0
LINE
  8
94
 10
316.5083
 20
11.7239
 30
0.0000
 11
317.2117
 21
11.7239
 31
0.0000
  0
LINE
  8
94
 10
317.2117
 20
11.7239
 30
0.0000
 11
317.5633
 21
11.3722
 31
0.0000
  0
LINE
  8
94
 10
317.5633
 20
11.3722
 30
0.0000
 11
317.5633
 21
9.9656
 31
0.0000
  0
LINE
  8
94
 10
317.5633
 20
9.9656
 30
0.0000
 11
317.2117
 21
9.6139
 31
0.0000
  0
LINE
  8
94
 10
317.2117
 20
9.6139
 30
0.0000
 11
316.5083
 21
9.6139
 31
0.0000
  0
LINE
  8
94
 10
316.5083
 20
9.6139
 30
0.0000
 11
316.1567
 21
9.9656
 31
0.0000
  0
LINE
  8
94
 10
316.1567
 20
9.9656
 30
0.0000
 11
317.5633
 21
11.3722
 31
0.0000
  0
LINE
  8
94
 10
318.2616
 20
9.6139
 30
0.0000
 11
319.6682
 21
11.7239
 31
0.0000
  0
LINE
  8
94
 10
321.7732
 20
9.6139
 30
0.0000
 11
320.3665
 21
9.6139
 31
0.0000
  0
LINE
  8
94
 10
320.3665
 20
9.6139
 30
0.0000
 11
321.7732
 21
11.0206
 31
0.0000
  0
LINE
  8
94
 10
321.7732
 20
11.0206
 30
0.0000
 11
321.7732
 21
11.3722
 31
0.0000
  0
LINE
  8
94
 10
321.7732
 20
11.3722
 30
0.0000
 11
321.4215
 21
11.7239
 31
0.0000
  0
LINE
  8
94
 10
321.4215
 20
11.7239
 30
0.0000
 11
320.7182
 21
11.7239
 31
0.0000
  0
LINE
  8
94
 10
320.7182
 20
11.7239
 30
0.0000
 11
320.3665
 21
11.3722
 31
0.0000
  0
LINE
  8
94
 10
322.4714
 20
9.9656
 30
0.0000
 11
322.4714
 21
11.3722
 31
0.0000
  0
LINE
  8
94
 10
322.4714
 20
11.3722
 30
0.0000
 11
322.8231
 21
11.7239
 31
0.0000
  0
LINE
  8
94
 10
322.8231
 20
11.7239
 30
0.0000
 11
323.5264
 21
11.7239
 31
0.0000
  0
LINE
  8
94
 10
323.5264
 20
11.7239
 30
0.0000
 11
323.8781
 21
11.3722
 31
0.0000
  0
LINE
  8
94
 10
323.8781
 20
11.3722
 30
0.0000
 11
323.8781
 21
9.9656
 31
0.0000
  0
LINE
  8
94
 10
323.8781
 20
9.9656
 30
0.0000
 11
323.5264
 21
9.6139
 31
0.0000
  0
LINE
  8
94
 10
323.5264
 20
9.6139
 30
0.0000
 11
322.8231
 21
9.6139
 31
0.0000
  0
LINE
  8
94
 10
322.8231
 20
9.6139
 30
0.0000
 11
322.4714
 21
9.9656
 31
0.0000
  0
LINE
  8
94
 10
322.4714
 20
9.9656
 30
0.0000
 11
323.8781
 21
11.3722
 31
0.0000
  0
LINE
  8
94
 10
324.5763
 20
11.0206
 30
0.0000
 11
325.2797
 21
11.7239
 31
0.0000
  0
LINE
  8
94
 10
325.2797
 20
11.7239
 30
0.0000
 11
325.2797
 21
9.6139
 31
0.0000
  0
LINE
  8
94
 10
324.5763
 20
9.6139
 30
0.0000
 11
325.9830
 21
9.6139
 31
0.0000
  0
LINE
  8
94
 10
327.7363
 20
9.6139
 30
0.0000
 11
327.7363
 21
11.7239
 31
0.0000
  0
LINE
  8
94
 10
327.7363
 20
11.7239
 30
0.0000
 11
326.6813
 21
10.6689
 31
0.0000
  0
LINE
  8
94
 10
326.6813
 20
10.6689
 30
0.0000
 11
328.0879
 21
10.6689
 31
0.0000
  0
LINE
  8
94
 10
331.9461
 20
9.6139
 30
0.0000
 11
331.9461
 21
11.7239
 31
0.0000
  0
LINE
  8
94
 10
331.9461
 20
11.7239
 30
0.0000
 11
330.8911
 21
10.6689
 31
0.0000
  0
LINE
  8
94
 10
330.8911
 20
10.6689
 30
0.0000
 11
332.2978
 21
10.6689
 31
0.0000
  0
LINE
  8
94
 10
332.9960
 20
11.0206
 30
0.0000
 11
333.3477
 21
11.0206
 31
0.0000
  0
LINE
  8
94
 10
333.3477
 20
11.0206
 30
0.0000
 11
333.3477
 21
10.6689
 31
0.0000
  0
LINE
  8
94
 10
333.3477
 20
10.6689
 30
0.0000
 11
332.9960
 21
10.6689
 31
0.0000
  0
LINE
  8
94
 10
332.9960
 20
10.6689
 30
0.0000
 11
332.9960
 21
11.0206
 31
0.0000
  0
LINE
  8
94
 10
332.9960
 20
9.9656
 30
0.0000
 11
333.3477
 21
9.9656
 31
0.0000
  0
LINE
  8
94
 10
333.3477
 20
9.9656
 30
0.0000
 11
333.3477
 21
9.6139
 31
0.0000
  0
LINE
  8
94
 10
333.3477
 20
9.6139
 30
0.0000
 11
332.9960
 21
9.6139
 31
0.0000
  0
LINE
  8
94
 10
332.9960
 20
9.6139
 30
0.0000
 11
332.9960
 21
9.9656
 31
0.0000
  0
LINE
  8
94
 10
335.1035
 20
9.6139
 30
0.0000
 11
335.1035
 21
11.7239
 31
0.0000
  0
LINE
  8
94
 10
335.1035
 20
11.7239
 30
0.0000
 11
334.0485
 21
10.6689
 31
0.0000
  0
LINE
  8
94
 10
334.0485
 20
10.6689
 30
0.0000
 11
335.4551
 21
10.6689
 31
0.0000
  0
LINE
  8
94
 10
337.5601
 20
11.7239
 30
0.0000
 11
336.8567
 21
11.3722
 31
0.0000
  0
LINE
  8
94
 10
336.8567
 20
11.3722
 30
0.0000
 11
336.1534
 21
10.6689
 31
0.0000
  0
LINE
  8
94
 10
336.1534
 20
10.6689
 30
0.0000
 11
336.1534
 21
9.9656
 31
0.0000
  0
LINE
  8
94
 10
336.1534
 20
9.9656
 30
0.0000
 11
336.5051
 21
9.6139
 31
0.0000
  0
LINE
  8
94
 10
336.5051
 20
9.6139
 30
0.0000
 11
337.2084
 21
9.6139
 31
0.0000
  0
LINE
  8
94
 10
337.2084
 20
9.6139
 30
0.0000
 11
337.5601
 21
9.9656
 31
0.0000
  0
LINE
  8
94
 10
337.5601
 20
9.9656
 30
0.0000
 11
337.5601
 21
10.3172
 31
0.0000
  0
LINE
  8
94
 10
337.5601
 20
10.3172
 30
0.0000
 11
337.2084
 21
10.6689
 31
0.0000
  0
LINE
  8
94
 10
337.2084
 20
10.6689
 30
0.0000
 11
336.1534
 21
10.6689
 31
0.0000
  0
LINE
  8
94
 10
338.2583
 20
11.0206
 30
0.0000
 11
338.6100
 21
11.0206
 31
0.0000
  0
LINE
  8
94
 10
338.6100
 20
11.0206
 30
0.0000
 11
338.6100
 21
10.6689
 31
0.0000
  0
LINE
  8
94
 10
338.6100
 20
10.6689
 30
0.0000
 11
338.2583
 21
10.6689
 31
0.0000
  0
LINE
  8
94
 10
338.2583
 20
10.6689
 30
0.0000
 11
338.2583
 21
11.0206
 31
0.0000
  0
LINE
  8
94
 10
338.2583
 20
9.9656
 30
0.0000
 11
338.6100
 21
9.9656
 31
0.0000
  0
LINE
  8
94
 10
338.6100
 20
9.9656
 30
0.0000
 11
338.6100
 21
9.6139
 31
0.0000
  0
LINE
  8
94
 10
338.6100
 20
9.6139
 30
0.0000
 11
338.2583
 21
9.6139
 31
0.0000
  0
LINE
  8
94
 10
338.2583
 20
9.6139
 30
0.0000
 11
338.2583
 21
9.9656
 31
0.0000
  0
LINE
  8
94
 10
340.3658
 20
9.6139
 30
0.0000
 11
340.3658
 21
11.7239
 31
0.0000
  0
LINE
  8
94
 10
340.3658
 20
11.7239
 30
0.0000
 11
339.3108
 21
10.6689
 31
0.0000
  0
LINE
  8
94
 10
339.3108
 20
10.6689
 30
0.0000
 11
340.7174
 21
10.6689
 31
0.0000
  0
LINE
  8
94
 10
342.4707
 20
9.6139
 30
0.0000
 11
342.4707
 21
11.7239
 31
0.0000
  0
LINE
  8
94
 10
342.4707
 20
11.7239
 30
0.0000
 11
341.4157
 21
10.6689
 31
0.0000
  0
LINE
  8
94
 10
341.4157
 20
10.6689
 30
0.0000
 11
342.8224
 21
10.6689
 31
0.0000
  0
LINE
  8
94
 10
345.6255
 20
9.6139
 30
0.0000
 11
345.6255
 21
11.7239
 31
0.0000
  0
LINE
  8
94
 10
345.6255
 20
11.7239
 30
0.0000
 11
346.6805
 21
11.7239
 31
0.0000
  0
LINE
  8
94
 10
346.6805
 20
11.7239
 30
0.0000
 11
347.0322
 21
11.3722
 31
0.0000
  0
LINE
  8
94
 10
347.0322
 20
11.3722
 30
0.0000
 11
347.0322
 21
10.6689
 31
0.0000
  0
LINE
  8
94
 10
347.0322
 20
10.6689
 30
0.0000
 11
346.6805
 21
10.3172
 31
0.0000
  0
LINE
  8
94
 10
346.6805
 20
10.3172
 30
0.0000
 11
345.6255
 21
10.3172
 31
0.0000
  0
LINE
  8
94
 10
347.7304
 20
9.6139
 30
0.0000
 11
347.7304
 21
11.7239
 31
0.0000
  0
LINE
  8
94
 10
347.7304
 20
11.7239
 30
0.0000
 11
348.4338
 21
11.0206
 31
0.0000
  0
LINE
  8
94
 10
348.4338
 20
11.0206
 30
0.0000
 11
349.1371
 21
11.7239
 31
0.0000
  0
LINE
  8
94
 10
349.1371
 20
11.7239
 30
0.0000
 11
349.1371
 21
9.6139
 31
0.0000
  0
LINE
  8
94
 10
368.4016
 20
6.1058
 30
0.0000
 11
369.1812
 21
6.8854
 31
0.0000
  0
LINE
  8
94
 10
369.1812
 20
6.8854
 30
0.0000
 11
369.1812
 21
4.5466
 31
0.0000
  0
LINE
  8
94
 10
368.4016
 20
4.5466
 30
0.0000
 11
369.9608
 21
4.5466
 31
0.0000
  0
LINE
  8
94
 10
370.7404
 20
4.5466
 30
0.0000
 11
372.2996
 21
6.8854
 31
0.0000
  0
LINE
  8
94
 10
374.2486
 20
4.5466
 30
0.0000
 11
374.2486
 21
6.8854
 31
0.0000
  0
LINE
  8
94
 10
374.2486
 20
6.8854
 30
0.0000
 11
373.0792
 21
5.7160
 31
0.0000
  0
LINE
  8
94
 10
373.0792
 20
5.7160
 30
0.0000
 11
374.6384
 21
5.7160
 31
0.0000
  0
TEXT
  7
ISOCP
  8
94
 10
309.6260
 20
4.3180
 30
0.0000
 40
2.5400
  1
Drawn By:
  0
TEXT
  7
ISOCP
  8
94
 10
309.8800
 20
19.5580
 30
0.0000
 40
2.5400
  1
Title:
  0
TEXT
  7
ISOCP
  8
94
 10
310.1340
 20
14.4780
 30
0.0000
 40
2.5400
  1
Version:
  0
LINE
  8
94
 10
186.0550
 20
63.5000
 30
0.0000
 11
189.8650
 21
63.5000
 31
0.0000
  0
LINE
  8
94
 10
184.5310
 20
61.5188
 30
0.0000
 11
186.0550
 21
63.4492
 31
0.0000
  0
LINE
  8
94
 10
188.3410
 20
61.5188
 30
0.0000
 11
189.8650
 21
63.4492
 31
0.0000
  0
LINE
  8
94
 10
186.4360
 20
61.5188
 30
0.0000
 11
187.9600
 21
63.4492
 31
0.0000
  0
LINE
  8
94
 10
187.9600
 20
66.0400
 30
0.0000
 11
187.9600
 21
63.5000
 31
0.0000
  0
LINE
  8
94
 10
25.4000
 20
63.5000
 30
0.0000
 11
24.3840
 21
63.8810
 31
0.0000
  0
LINE
  8
94
 10
24.3840
 20
63.8810
 30
0.0000
 11
26.4160
 21
64.5160
 31
0.0000
  0
LINE
  8
94
 10
26.4160
 20
64.5160
 30
0.0000
 11
24.3840
 21
65.1510
 31
0.0000
  0
LINE
  8
94
 10
24.3840
 20
65.1510
 30
0.0000
 11
26.4160
 21
65.7860
 31
0.0000
  0
LINE
  8
94
 10
26.4160
 20
65.7860
 30
0.0000
 11
24.3840
 21
66.4210
 31
0.0000
  0
LINE
  8
94
 10
24.3840
 20
66.4210
 30
0.0000
 11
26.4160
 21
67.0560
 31
0.0000
  0
LINE
  8
94
 10
26.4160
 20
67.0560
 30
0.0000
 11
24.3840
 21
67.6910
 31
0.0000
  0
LINE
  8
94
 10
24.3840
 20
67.6910
 30
0.0000
 11
26.4160
 21
68.3260
 31
0.0000
  0
LINE
  8
94
 10
26.4160
 20
68.3260
 30
0.0000
 11
25.4000
 21
68.5800
 31
0.0000
  0
TEXT
  7
ISOCP
  8
95
 10
23.9014
 20
62.2300
 30
0.0000
 40
1.7780
  1
R8
 50
90.0000
  0
TEXT
  7
ISOCP
  8
96
 10
28.7020
 20
62.2300
 30
0.0000
 40
1.7780
  1
100
 50
90.0000
  0
LINE
  8
94
 10
25.4000
 20
60.9600
 30
0.0000
 11
25.4000
 21
63.5000
 31
0.0000
  0
LINE
  8
94
 10
25.4000
 20
71.1200
 30
0.0000
 11
25.4000
 21
68.5800
 31
0.0000
  0
LINE
  8
94
 10
269.2400
 20
162.5600
 30
0.0000
 11
302.2600
 21
162.5600
 31
0.0000
  0
LINE
  8
94
 10
302.2600
 20
162.5600
 30
0.0000
 11
302.2600
 21
104.1400
 31
0.0000
  0
LINE
  8
94
 10
302.2600
 20
104.1400
 30
0.0000
 11
269.2400
 21
104.1400
 31
0.0000
  0
LINE
  8
94
 10
269.2400
 20
104.1400
 30
0.0000
 11
269.2400
 21
162.5600
 31
0.0000
  0
TEXT
  7
ISOCP
  8
94
 10
279.4000
 20
129.5400
 30
0.0000
 40
1.7780
  1
QPDF-320-24
  0
TEXT
  7
ISOCP
  8
94
 10
269.2400
 20
163.8300
 30
0.0000
 40
1.7780
  1
U$24
  0
TEXT
  7
ISOCP
  8
94
 10
267.9700
 20
104.3940
 30
0.0000
 40
1.7780
  1
DC-DC_CONVERTER_QPDF-320-24
 50
90.0000
  0
LINE
  8
94
 10
297.1800
 20
99.0600
 30
0.0000
 11
297.1800
 21
104.1400
 31
0.0000
  0
TEXT
  7
ISOCP
  8
95
 10
297.9420
 20
106.4768
 30
0.0000
 40
1.5240
  1
1-AC/L
 50
90.0000
  0
LINE
  8
94
 10
294.6400
 20
99.0600
 30
0.0000
 11
294.6400
 21
104.1400
 31
0.0000
  0
TEXT
  7
ISOCP
  8
95
 10
295.4020
 20
106.4768
 30
0.0000
 40
1.5240
  1
2-AC/N
 50
90.0000
  0
LINE
  8
94
 10
292.1000
 20
99.0600
 30
0.0000
 11
292.1000
 21
104.1400
 31
0.0000
  0
TEXT
  7
ISOCP
  8
95
 10
292.8620
 20
106.4768
 30
0.0000
 40
1.5240
  1
3-PE
 50
90.0000
  0
LINE
  8
94
 10
287.0200
 20
99.0600
 30
0.0000
 11
287.0200
 21
104.1400
 31
0.0000
  0
TEXT
  7
ISOCP
  8
95
 10
287.7820
 20
106.4768
 30
0.0000
 40
1.5240
  1
4-(V-)
 50
90.0000
  0
LINE
  8
94
 10
284.4800
 20
99.0600
 30
0.0000
 11
284.4800
 21
104.1400
 31
0.0000
  0
TEXT
  7
ISOCP
  8
95
 10
285.2420
 20
106.4768
 30
0.0000
 40
1.5240
  1
5-(V-)
 50
90.0000
  0
LINE
  8
94
 10
281.9400
 20
99.0600
 30
0.0000
 11
281.9400
 21
104.1400
 31
0.0000
  0
TEXT
  7
ISOCP
  8
95
 10
282.7020
 20
106.4768
 30
0.0000
 40
1.5240
  1
6-(V-)
 50
90.0000
  0
LINE
  8
94
 10
279.4000
 20
99.0600
 30
0.0000
 11
279.4000
 21
104.1400
 31
0.0000
  0
TEXT
  7
ISOCP
  8
95
 10
280.1620
 20
106.4768
 30
0.0000
 40
1.5240
  1
7-(V+)
 50
90.0000
  0
LINE
  8
94
 10
276.8600
 20
99.0600
 30
0.0000
 11
276.8600
 21
104.1400
 31
0.0000
  0
TEXT
  7
ISOCP
  8
95
 10
277.6220
 20
106.4768
 30
0.0000
 40
1.5240
  1
8-(V+)
 50
90.0000
  0
LINE
  8
94
 10
274.3200
 20
99.0600
 30
0.0000
 11
274.3200
 21
104.1400
 31
0.0000
  0
TEXT
  7
ISOCP
  8
95
 10
275.0820
 20
106.4768
 30
0.0000
 40
1.5240
  1
9-(V+)
 50
90.0000
  0
LINE
  8
94
 10
314.9600
 20
162.5600
 30
0.0000
 11
314.9600
 21
104.1400
 31
0.0000
  0
LINE
  8
94
 10
314.9600
 20
104.1400
 30
0.0000
 11
345.4400
 21
104.1400
 31
0.0000
  0
LINE
  8
94
 10
345.4400
 20
104.1400
 30
0.0000
 11
345.4400
 21
162.5600
 31
0.0000
  0
LINE
  8
94
 10
345.4400
 20
162.5600
 30
0.0000
 11
314.9600
 21
162.5600
 31
0.0000
  0
TEXT
  7
ISOCP
  8
94
 10
314.9600
 20
163.8300
 30
0.0000
 40
1.7780
  1
U$25
  0
TEXT
  7
ISOCP
  8
94
 10
313.6900
 20
104.3940
 30
0.0000
 40
1.7780
  1
DC-DC_CONVERTER_USP-500-48
 50
90.0000
  0
TEXT
  7
ISOCP
  8
94
 10
322.5800
 20
137.1600
 30
0.0000
 40
1.7780
  1
MEANWELL
  0
TEXT
  7
ISOCP
  8
94
 10
322.5800
 20
134.6200
 30
0.0000
 40
1.7780
  1
USP-500-48
  0
LINE
  8
94
 10
340.3600
 20
99.0600
 30
0.0000
 11
340.3600
 21
104.1400
 31
0.0000
  0
TEXT
  7
ISOCP
  8
95
 10
341.1220
 20
106.4768
 30
0.0000
 40
1.5240
  1
1-(V-)
 50
90.0000
  0
LINE
  8
94
 10
335.2800
 20
167.6400
 30
0.0000
 11
335.2800
 21
162.5600
 31
0.0000
  0
TEXT
  7
ISOCP
  8
95
 10
334.5180
 20
160.2232
 30
0.0000
 40
1.5240
  1
1-AC/L
 50
90.0000
 72
2
 73
3
 11
334.5180
 21
160.2232
 31
0.0000
  0
LINE
  8
94
 10
337.8200
 20
99.0600
 30
0.0000
 11
337.8200
 21
104.1400
 31
0.0000
  0
TEXT
  7
ISOCP
  8
95
 10
338.5820
 20
106.4768
 30
0.0000
 40
1.5240
  1
2-(V-)
 50
90.0000
  0
LINE
  8
94
 10
330.2000
 20
167.6400
 30
0.0000
 11
330.2000
 21
162.5600
 31
0.0000
  0
TEXT
  7
ISOCP
  8
95
 10
329.4380
 20
160.2232
 30
0.0000
 40
1.5240
  1
2-AC/N
 50
90.0000
 72
2
 73
3
 11
329.4380
 21
160.2232
 31
0.0000
  0
LINE
  8
94
 10
335.2800
 20
99.0600
 30
0.0000
 11
335.2800
 21
104.1400
 31
0.0000
  0
TEXT
  7
ISOCP
  8
95
 10
336.0420
 20
106.4768
 30
0.0000
 40
1.5240
  1
3-(V-)
 50
90.0000
  0
LINE
  8
94
 10
325.1200
 20
167.6400
 30
0.0000
 11
325.1200
 21
162.5600
 31
0.0000
  0
TEXT
  7
ISOCP
  8
95
 10
324.3580
 20
160.2232
 30
0.0000
 40
1.5240
  1
3-PE
 50
90.0000
 72
2
 73
3
 11
324.3580
 21
160.2232
 31
0.0000
  0
LINE
  8
94
 10
332.7400
 20
99.0600
 30
0.0000
 11
332.7400
 21
104.1400
 31
0.0000
  0
TEXT
  7
ISOCP
  8
95
 10
333.5020
 20
106.4768
 30
0.0000
 40
1.5240
  1
4-(V-)
 50
90.0000
  0
LINE
  8
94
 10
327.6600
 20
99.0600
 30
0.0000
 11
327.6600
 21
104.1400
 31
0.0000
  0
TEXT
  7
ISOCP
  8
95
 10
328.4220
 20
106.4768
 30
0.0000
 40
1.5240
  1
5-(V+)
 50
90.0000
  0
LINE
  8
94
 10
325.1200
 20
99.0600
 30
0.0000
 11
325.1200
 21
104.1400
 31
0.0000
  0
TEXT
  7
ISOCP
  8
95
 10
325.8820
 20
106.4768
 30
0.0000
 40
1.5240
  1
6-(V+)
 50
90.0000
  0
LINE
  8
94
 10
322.5800
 20
99.0600
 30
0.0000
 11
322.5800
 21
104.1400
 31
0.0000
  0
TEXT
  7
ISOCP
  8
95
 10
323.3420
 20
106.4768
 30
0.0000
 40
1.5240
  1
7-(V+)
 50
90.0000
  0
LINE
  8
94
 10
320.0400
 20
99.0600
 30
0.0000
 11
320.0400
 21
104.1400
 31
0.0000
  0
TEXT
  7
ISOCP
  8
95
 10
320.8020
 20
106.4768
 30
0.0000
 40
1.5240
  1
8-(V+)
 50
90.0000
  0
LINE
  8
94
 10
180.3400
 20
238.7600
 30
0.0000
 11
180.3400
 21
200.6600
 31
0.0000
  0
LINE
  8
94
 10
180.3400
 20
200.6600
 30
0.0000
 11
210.8200
 21
200.6600
 31
0.0000
  0
LINE
  8
94
 10
210.8200
 20
200.6600
 30
0.0000
 11
210.8200
 21
238.7600
 31
0.0000
  0
LINE
  8
94
 10
210.8200
 20
238.7600
 30
0.0000
 11
180.3400
 21
238.7600
 31
0.0000
  0
TEXT
  7
ISOCP
  8
94
 10
180.3400
 20
239.7760
 30
0.0000
 40
1.7780
  1
U$26
  0
TEXT
  7
ISOCP
  8
94
 10
179.0700
 20
200.6600
 30
0.0000
 40
1.7780
  1
DC-DC_CONVERTER_VGS-50-12
 50
90.0000
  0
TEXT
  7
ISOCP
  8
94
 10
193.0400
 20
215.9000
 30
0.0000
 40
1.7780
  1
CUI
  0
TEXT
  7
ISOCP
  8
94
 10
187.9600
 20
213.3600
 30
0.0000
 40
1.7780
  1
VGS-50-12
  0
LINE
  8
94
 10
185.4200
 20
195.5800
 30
0.0000
 11
185.4200
 21
200.6600
 31
0.0000
  0
TEXT
  7
ISOCP
  8
95
 10
186.1820
 20
202.9968
 30
0.0000
 40
1.5240
  1
1-AC/L
 50
90.0000
  0
LINE
  8
94
 10
190.5000
 20
195.5800
 30
0.0000
 11
190.5000
 21
200.6600
 31
0.0000
  0
TEXT
  7
ISOCP
  8
95
 10
191.2620
 20
202.9968
 30
0.0000
 40
1.5240
  1
2-AC/N
 50
90.0000
  0
LINE
  8
94
 10
195.5800
 20
195.5800
 30
0.0000
 11
195.5800
 21
200.6600
 31
0.0000
  0
TEXT
  7
ISOCP
  8
95
 10
196.3420
 20
202.9968
 30
0.0000
 40
1.5240
  1
3-PE
 50
90.0000
  0
LINE
  8
94
 10
200.6600
 20
195.5800
 30
0.0000
 11
200.6600
 21
200.6600
 31
0.0000
  0
TEXT
  7
ISOCP
  8
95
 10
201.4220
 20
202.9968
 30
0.0000
 40
1.5240
  1
4-(V-)
 50
90.0000
  0
LINE
  8
94
 10
205.7400
 20
195.5800
 30
0.0000
 11
205.7400
 21
200.6600
 31
0.0000
  0
TEXT
  7
ISOCP
  8
95
 10
206.5020
 20
202.9968
 30
0.0000
 40
1.5240
  1
5-(V+)
 50
90.0000
  0
LINE
  8
94
 10
11.4300
 20
76.2000
 30
0.0000
 11
13.9700
 21
76.2000
 31
0.0000
  0
LINE
  8
94
 10
13.9700
 20
76.2000
 30
0.0000
 11
13.9700
 21
68.5800
 31
0.0000
  0
LINE
  8
94
 10
13.9700
 20
68.5800
 30
0.0000
 11
11.4300
 21
68.5800
 31
0.0000
  0
LINE
  8
94
 10
11.4300
 20
68.5800
 30
0.0000
 11
11.4300
 21
76.2000
 31
0.0000
  0
LINE
  8
94
 10
15.2400
 20
69.8500
 30
0.0000
 11
15.2400
 21
71.1200
 31
0.0000
  0
LINE
  8
94
 10
15.2400
 20
71.1200
 30
0.0000
 11
10.1600
 21
74.9300
 31
0.0000
  0
LINE
  8
94
 10
12.7000
 20
78.7400
 30
0.0000
 11
12.7000
 21
76.2000
 31
0.0000
  0
LINE
  8
94
 10
12.7000
 20
66.0400
 30
0.0000
 11
12.7000
 21
68.5800
 31
0.0000
  0
LINE
  8
94
 10
132.0800
 20
40.6400
 30
0.0000
 11
132.0800
 21
27.9400
 31
0.0000
  0
LINE
  8
94
 10
132.0800
 20
27.9400
 30
0.0000
 11
127.0000
 21
27.9400
 31
0.0000
  0
LINE
  8
94
 10
127.0000
 20
27.9400
 30
0.0000
 11
124.4600
 21
27.9400
 31
0.0000
  0
LINE
  8
94
 10
124.4600
 20
27.9400
 30
0.0000
 11
124.4600
 21
40.6400
 31
0.0000
  0
LINE
  8
94
 10
124.4600
 20
40.6400
 30
0.0000
 11
127.0000
 21
40.6400
 31
0.0000
  0
LINE
  8
94
 10
127.0000
 20
40.6400
 30
0.0000
 11
132.0800
 21
40.6400
 31
0.0000
  0
ARC
  8
94
 10
127.0000
 20
36.1950
 30
0.0000
 40
1.9050
 50
270.0000
 51
90.0000
  0
ARC
  8
94
 10
127.0000
 20
32.3850
 30
0.0000
 40
1.9050
 50
90.0000
 51
270.0000
  0
LINE
  8
94
 10
127.0000
 20
30.4800
 30
0.0000
 11
127.0000
 21
27.9400
 31
0.0000
  0
LINE
  8
94
 10
127.0000
 20
38.1000
 30
0.0000
 11
127.0000
 21
40.6400
 31
0.0000
  0
LINE
  8
94
 10
127.0000
 20
22.8600
 30
0.0000
 11
127.0000
 21
27.9400
 31
0.0000
  0
LINE
  8
94
 10
127.0000
 20
45.7200
 30
0.0000
 11
127.0000
 21
40.6400
 31
0.0000
  0
LINE
  8
94
 10
93.9800
 20
83.8200
 30
0.0000
 11
93.9800
 21
71.1200
 31
0.0000
  0
LINE
  8
94
 10
93.9800
 20
71.1200
 30
0.0000
 11
88.9000
 21
71.1200
 31
0.0000
  0
LINE
  8
94
 10
88.9000
 20
71.1200
 30
0.0000
 11
86.3600
 21
71.1200
 31
0.0000
  0
LINE
  8
94
 10
86.3600
 20
71.1200
 30
0.0000
 11
86.3600
 21
83.8200
 31
0.0000
  0
LINE
  8
94
 10
86.3600
 20
83.8200
 30
0.0000
 11
88.9000
 21
83.8200
 31
0.0000
  0
LINE
  8
94
 10
88.9000
 20
83.8200
 30
0.0000
 11
93.9800
 21
83.8200
 31
0.0000
  0
ARC
  8
94
 10
88.9000
 20
79.3750
 30
0.0000
 40
1.9050
 50
270.0000
 51
90.0000
  0
ARC
  8
94
 10
88.9000
 20
75.5650
 30
0.0000
 40
1.9050
 50
90.0000
 51
270.0000
  0
LINE
  8
94
 10
88.9000
 20
73.6600
 30
0.0000
 11
88.9000
 21
71.1200
 31
0.0000
  0
LINE
  8
94
 10
88.9000
 20
81.2800
 30
0.0000
 11
88.9000
 21
83.8200
 31
0.0000
  0
LINE
  8
94
 10
88.9000
 20
66.0400
 30
0.0000
 11
88.9000
 21
71.1200
 31
0.0000
  0
LINE
  8
94
 10
88.9000
 20
88.9000
 30
0.0000
 11
88.9000
 21
83.8200
 31
0.0000
  0
LINE
  8
94
 10
15.2400
 20
220.9800
 30
0.0000
 11
15.2400
 21
226.0600
 31
0.0000
  0
LINE
  8
94
 10
15.2400
 20
226.0600
 30
0.0000
 11
15.2400
 21
231.1400
 31
0.0000
  0
ARC
  8
94
 10
14.7637
 20
226.0600
 30
0.0000
 40
3.2727
 50
129.0932
 51
230.9068
  0
LINE
  8
94
 10
11.4300
 20
226.0600
 30
0.0000
 11
15.2400
 21
226.0600
 31
0.0000
  0
TEXT
  7
ISOCP
  8
95
 10
10.7950
 20
221.6150
 30
0.0000
 40
1.7780
  1
U$30
 50
90.0000
  0
TEXT
  7
ISOCP
  8
96
 10
8.3820
 20
221.4880
 30
0.0000
 40
1.7780
  1
9210-0072
 50
90.0000
  0
LINE
  8
94
 10
17.7800
 20
215.9000
 30
0.0000
 11
17.7800
 21
220.9800
 31
0.0000
  0
LINE
  8
94
 10
17.7800
 20
236.2200
 30
0.0000
 11
17.7800
 21
231.1400
 31
0.0000
  0
CIRCLE
  8
94
 10
17.7800
 20
220.9800
 30
0.0000
 40
0.6350
  0
CIRCLE
  8
94
 10
17.7800
 20
231.1400
 30
0.0000
 40
0.6350
  0
LINE
  8
94
 10
368.3000
 20
236.2200
 30
0.0000
 11
368.3000
 21
231.1400
 31
0.0000
  0
LINE
  8
94
 10
368.3000
 20
231.1400
 30
0.0000
 11
368.3000
 21
226.0600
 31
0.0000
  0
ARC
  8
94
 10
368.7763
 20
231.1400
 30
0.0000
 40
3.2727
 50
309.0932
 51
50.9068
  0
LINE
  8
94
 10
372.1100
 20
231.1400
 30
0.0000
 11
368.3000
 21
231.1400
 31
0.0000
  0
TEXT
  7
ISOCP
  8
95
 10
372.7450
 20
235.5850
 30
0.0000
 40
1.7780
  1
U$31
 50
90.0000
 72
2
 73
3
 11
372.7450
 21
235.5850
 31
0.0000
  0
TEXT
  7
ISOCP
  8
96
 10
375.1580
 20
235.7120
 30
0.0000
 40
1.7780
  1
9210-0072
 50
90.0000
 72
2
 73
3
 11
375.1580
 21
235.7120
 31
0.0000
  0
LINE
  8
94
 10
365.7600
 20
241.3000
 30
0.0000
 11
365.7600
 21
236.2200
 31
0.0000
  0
LINE
  8
94
 10
365.7600
 20
220.9800
 30
0.0000
 11
365.7600
 21
226.0600
 31
0.0000
  0
CIRCLE
  8
94
 10
365.7600
 20
236.2200
 30
0.0000
 40
0.6350
  0
CIRCLE
  8
94
 10
365.7600
 20
226.0600
 30
0.0000
 40
0.6350
  0
LINE
  8
94
 10
154.9400
 20
228.6000
 30
0.0000
 11
154.9400
 21
193.0400
 31
0.0000
  0
LINE
  8
94
 10
106.6800
 20
193.0400
 30
0.0000
 11
106.6800
 21
228.6000
 31
0.0000
  0
LINE
  8
94
 10
154.9400
 20
193.0400
 30
0.0000
 11
106.6800
 21
193.0400
 31
0.0000
  0
LINE
  8
94
 10
154.9400
 20
228.6000
 30
0.0000
 11
106.6800
 21
228.6000
 31
0.0000
  0
LINE
  8
94
 10
133.9850
 20
203.2000
 30
0.0000
 11
133.9850
 21
198.1200
 31
0.0000
  0
LINE
  8
94
 10
133.9850
 20
198.1200
 30
0.0000
 11
135.8900
 21
198.1200
 31
0.0000
  0
LINE
  8
94
 10
135.8900
 20
198.1200
 30
0.0000
 11
135.8900
 21
196.8500
 31
0.0000
  0
LINE
  8
94
 10
135.8900
 20
196.8500
 30
0.0000
 11
137.1600
 21
196.8500
 31
0.0000
  0
LINE
  8
94
 10
137.1600
 20
196.8500
 30
0.0000
 11
137.1600
 21
195.5800
 31
0.0000
  0
LINE
  8
94
 10
137.1600
 20
195.5800
 30
0.0000
 11
139.7000
 21
195.5800
 31
0.0000
  0
LINE
  8
94
 10
139.7000
 20
195.5800
 30
0.0000
 11
139.7000
 21
196.8500
 31
0.0000
  0
LINE
  8
94
 10
139.7000
 20
196.8500
 30
0.0000
 11
140.9700
 21
196.8500
 31
0.0000
  0
LINE
  8
94
 10
140.9700
 20
196.8500
 30
0.0000
 11
140.9700
 21
198.1200
 31
0.0000
  0
LINE
  8
94
 10
140.9700
 20
198.1200
 30
0.0000
 11
142.8750
 21
198.1200
 31
0.0000
  0
LINE
  8
94
 10
142.8750
 20
198.1200
 30
0.0000
 11
142.8750
 21
203.2000
 31
0.0000
  0
LINE
  8
94
 10
142.8750
 20
203.2000
 30
0.0000
 11
133.9850
 21
203.2000
 31
0.0000
  0
LINE
  8
94
 10
136.5250
 20
201.9300
 30
0.0000
 11
136.5250
 21
199.3900
 31
0.0000
  0
LINE
  8
94
 10
137.7950
 20
201.9300
 30
0.0000
 11
137.7950
 21
199.3900
 31
0.0000
  0
LINE
  8
94
 10
139.0650
 20
201.9300
 30
0.0000
 11
139.0650
 21
199.3900
 31
0.0000
  0
LINE
  8
94
 10
140.3350
 20
201.9300
 30
0.0000
 11
140.3350
 21
199.3900
 31
0.0000
  0
TEXT
  7
ISOCP
  8
94
 10
111.7600
 20
203.2000
 30
0.0000
 40
1.7780
  1
SURE STEP 
  0
TEXT
  7
ISOCP
  8
94
 10
111.7600
 20
200.6600
 30
0.0000
 40
1.7780
  1
STP-DRV-80100
  0
TEXT
  7
ISOCP
  8
94
 10
135.8900
 20
203.8350
 30
0.0000
 40
1.7780
  1
2
  0
TEXT
  7
ISOCP
  8
94
 10
139.7000
 20
203.8350
 30
0.0000
 40
1.7780
  1
5
  0
TEXT
  7
ISOCP
  8
96
 10
106.4260
 20
229.1080
 30
0.0000
 40
1.7780
  1
9260-0009
  0
LINE
  8
94
 10
104.1400
 20
195.5800
 30
0.0000
 11
106.6800
 21
195.5800
 31
0.0000
  0
TEXT
  7
ISOCP
  8
95
 10
109.0168
 20
194.8180
 30
0.0000
 40
1.5240
  1
(CHASIS_GND)
  0
LINE
  8
94
 10
104.1400
 20
223.5200
 30
0.0000
 11
106.6800
 21
223.5200
 31
0.0000
  0
TEXT
  7
ISOCP
  8
95
 10
109.0168
 20
222.7580
 30
0.0000
 40
1.5240
  1
1_V+(POWER)
  0
LINE
  8
94
 10
157.4800
 20
200.6600
 30
0.0000
 11
154.9400
 21
200.6600
 31
0.0000
  0
TEXT
  7
ISOCP
  8
95
 10
152.6032
 20
201.4220
 30
0.0000
 40
1.5240
  1
2_GND
 72
2
 73
3
 11
152.6032
 21
201.4220
 31
0.0000
  0
LINE
  8
94
 10
104.1400
 20
220.9800
 30
0.0000
 11
106.6800
 21
220.9800
 31
0.0000
  0
TEXT
  7
ISOCP
  8
95
 10
109.0168
 20
220.2180
 30
0.0000
 40
1.5240
  1
2_V-(GND)
  0
LINE
  8
94
 10
104.1400
 20
218.4400
 30
0.0000
 11
106.6800
 21
218.4400
 31
0.0000
  0
TEXT
  7
ISOCP
  8
95
 10
109.0168
 20
217.6780
 30
0.0000
 40
1.5240
  1
3_A+(MOTOR)
  0
LINE
  8
94
 10
157.4800
 20
203.2000
 30
0.0000
 11
154.9400
 21
203.2000
 31
0.0000
  0
TEXT
  7
ISOCP
  8
95
 10
152.6032
 20
203.9620
 30
0.0000
 40
1.5240
  1
3_TX
 72
2
 73
3
 11
152.6032
 21
203.9620
 31
0.0000
  0
LINE
  8
94
 10
104.1400
 20
215.9000
 30
0.0000
 11
106.6800
 21
215.9000
 31
0.0000
  0
TEXT
  7
ISOCP
  8
95
 10
109.0168
 20
215.1380
 30
0.0000
 40
1.5240
  1
4_A-(MOTOR)
  0
LINE
  8
94
 10
157.4800
 20
205.7400
 30
0.0000
 11
154.9400
 21
205.7400
 31
0.0000
  0
TEXT
  7
ISOCP
  8
95
 10
152.6032
 20
206.5020
 30
0.0000
 40
1.5240
  1
4_NC
 72
2
 73
3
 11
152.6032
 21
206.5020
 31
0.0000
  0
LINE
  8
94
 10
104.1400
 20
213.3600
 30
0.0000
 11
106.6800
 21
213.3600
 31
0.0000
  0
TEXT
  7
ISOCP
  8
95
 10
109.0168
 20
212.5980
 30
0.0000
 40
1.5240
  1
5_B+(MOTOR)
  0
LINE
  8
94
 10
157.4800
 20
208.2800
 30
0.0000
 11
154.9400
 21
208.2800
 31
0.0000
  0
TEXT
  7
ISOCP
  8
95
 10
152.6032
 20
209.0420
 30
0.0000
 40
1.5240
  1
5_RX
 72
2
 73
3
 11
152.6032
 21
209.0420
 31
0.0000
  0
LINE
  8
94
 10
104.1400
 20
210.8200
 30
0.0000
 11
106.6800
 21
210.8200
 31
0.0000
  0
TEXT
  7
ISOCP
  8
95
 10
109.0168
 20
210.0580
 30
0.0000
 40
1.5240
  1
6_B-(MOTOR)
  0
LINE
  8
94
 10
157.4800
 20
213.3600
 30
0.0000
 11
154.9400
 21
213.3600
 31
0.0000
  0
TEXT
  7
ISOCP
  8
95
 10
152.6032
 20
214.1220
 30
0.0000
 40
1.5240
  1
7_GND
 72
2
 73
3
 11
152.6032
 21
214.1220
 31
0.0000
  0
LINE
  8
94
 10
157.4800
 20
215.9000
 30
0.0000
 11
154.9400
 21
215.9000
 31
0.0000
  0
TEXT
  7
ISOCP
  8
95
 10
152.6032
 20
216.6620
 30
0.0000
 40
1.5240
  1
8_AIN
 72
2
 73
3
 11
152.6032
 21
216.6620
 31
0.0000
  0
LINE
  8
94
 10
157.4800
 20
218.4400
 30
0.0000
 11
154.9400
 21
218.4400
 31
0.0000
  0
TEXT
  7
ISOCP
  8
95
 10
152.6032
 20
219.2020
 30
0.0000
 40
1.5240
  1
9_+5V
 72
2
 73
3
 11
152.6032
 21
219.2020
 31
0.0000
  0
LINE
  8
94
 10
157.4800
 20
220.9800
 30
0.0000
 11
154.9400
 21
220.9800
 31
0.0000
  0
TEXT
  7
ISOCP
  8
95
 10
152.6032
 20
221.7420
 30
0.0000
 40
1.5240
  1
10_OUT-
 72
2
 73
3
 11
152.6032
 21
221.7420
 31
0.0000
  0
LINE
  8
94
 10
157.4800
 20
223.5200
 30
0.0000
 11
154.9400
 21
223.5200
 31
0.0000
  0
TEXT
  7
ISOCP
  8
95
 10
152.6032
 20
224.2820
 30
0.0000
 40
1.5240
  1
11_OUT+
 72
2
 73
3
 11
152.6032
 21
224.2820
 31
0.0000
  0
LINE
  8
94
 10
127.0000
 20
231.1400
 30
0.0000
 11
127.0000
 21
228.6000
 31
0.0000
  0
TEXT
  7
ISOCP
  8
95
 10
126.2380
 20
226.2632
 30
0.0000
 40
1.5240
  1
12_EN-
 50
90.0000
 72
2
 73
3
 11
126.2380
 21
226.2632
 31
0.0000
  0
LINE
  8
94
 10
129.5400
 20
231.1400
 30
0.0000
 11
129.5400
 21
228.6000
 31
0.0000
  0
TEXT
  7
ISOCP
  8
95
 10
128.7780
 20
226.2632
 30
0.0000
 40
1.5240
  1
13_EN+
 50
90.0000
 72
2
 73
3
 11
128.7780
 21
226.2632
 31
0.0000
  0
LINE
  8
94
 10
132.0800
 20
231.1400
 30
0.0000
 11
132.0800
 21
228.6000
 31
0.0000
  0
TEXT
  7
ISOCP
  8
95
 10
131.3180
 20
226.2632
 30
0.0000
 40
1.5240
  1
14_DIR-
 50
90.0000
 72
2
 73
3
 11
131.3180
 21
226.2632
 31
0.0000
  0
LINE
  8
94
 10
134.6200
 20
231.1400
 30
0.0000
 11
134.6200
 21
228.6000
 31
0.0000
  0
TEXT
  7
ISOCP
  8
95
 10
133.8580
 20
226.2632
 30
0.0000
 40
1.5240
  1
15_DIR+
 50
90.0000
 72
2
 73
3
 11
133.8580
 21
226.2632
 31
0.0000
  0
LINE
  8
94
 10
137.1600
 20
231.1400
 30
0.0000
 11
137.1600
 21
228.6000
 31
0.0000
  0
TEXT
  7
ISOCP
  8
95
 10
136.3980
 20
226.2632
 30
0.0000
 40
1.5240
  1
16_STEP-
 50
90.0000
 72
2
 73
3
 11
136.3980
 21
226.2632
 31
0.0000
  0
LINE
  8
94
 10
139.7000
 20
231.1400
 30
0.0000
 11
139.7000
 21
228.6000
 31
0.0000
  0
TEXT
  7
ISOCP
  8
95
 10
138.9380
 20
226.2632
 30
0.0000
 40
1.5240
  1
17_STEP+
 50
90.0000
 72
2
 73
3
 11
138.9380
 21
226.2632
 31
0.0000
  0
LINE
  8
94
 10
205.7400
 20
149.8600
 30
0.0000
 11
246.3800
 21
149.8600
 31
0.0000
  0
LINE
  8
94
 10
246.3800
 20
149.8600
 30
0.0000
 11
246.3800
 21
109.2200
 31
0.0000
  0
LINE
  8
94
 10
246.3800
 20
109.2200
 30
0.0000
 11
205.7400
 21
109.2200
 31
0.0000
  0
LINE
  8
94
 10
205.7400
 20
109.2200
 30
0.0000
 11
205.7400
 21
149.8600
 31
0.0000
  0
LINE
  8
94
 10
207.0100
 20
124.4600
 30
0.0000
 11
236.2200
 21
124.4600
 31
0.0000
  0
LINE
  8
94
 10
236.2200
 20
124.4600
 30
0.0000
 11
236.2200
 21
118.1100
 31
0.0000
  0
LINE
  8
94
 10
236.2200
 20
118.1100
 30
0.0000
 11
207.0100
 21
118.1100
 31
0.0000
  0
LINE
  8
94
 10
207.0100
 20
118.1100
 30
0.0000
 11
207.0100
 21
124.4600
 31
0.0000
  0
TEXT
  7
ISOCP
  8
94
 10
220.9800
 20
114.3000
 30
0.0000
 40
1.7780
  1
LEESON INVERTER
  0
TEXT
  7
ISOCP
  8
96
 10
220.9800
 20
111.7600
 30
0.0000
 40
1.7780
  1
LEESON_INVERTER_3PHASE
  0
TEXT
  7
ISOCP
  8
94
 10
237.7440
 20
150.6220
 30
0.0000
 40
1.7780
  1
U$33
  0
LINE
  8
94
 10
208.2800
 20
127.0000
 30
0.0000
 11
208.2800
 21
124.4600
 31
0.0000
  0
TEXT
  7
ISOCP
  8
95
 10
207.5180
 20
122.1232
 30
0.0000
 40
1.5240
  1
1
 50
90.0000
 72
2
 73
3
 11
207.5180
 21
122.1232
 31
0.0000
  0
LINE
  8
94
 10
210.8200
 20
127.0000
 30
0.0000
 11
210.8200
 21
124.4600
 31
0.0000
  0
TEXT
  7
ISOCP
  8
95
 10
210.0580
 20
122.1232
 30
0.0000
 40
1.5240
  1
2
 50
90.0000
 72
2
 73
3
 11
210.0580
 21
122.1232
 31
0.0000
  0
LINE
  8
94
 10
213.3600
 20
127.0000
 30
0.0000
 11
213.3600
 21
124.4600
 31
0.0000
  0
TEXT
  7
ISOCP
  8
95
 10
212.5980
 20
122.1232
 30
0.0000
 40
1.5240
  1
5
 50
90.0000
 72
2
 73
3
 11
212.5980
 21
122.1232
 31
0.0000
  0
LINE
  8
94
 10
215.9000
 20
127.0000
 30
0.0000
 11
215.9000
 21
124.4600
 31
0.0000
  0
TEXT
  7
ISOCP
  8
95
 10
215.1380
 20
122.1232
 30
0.0000
 40
1.5240
  1
6
 50
90.0000
 72
2
 73
3
 11
215.1380
 21
122.1232
 31
0.0000
  0
LINE
  8
94
 10
218.4400
 20
127.0000
 30
0.0000
 11
218.4400
 21
124.4600
 31
0.0000
  0
TEXT
  7
ISOCP
  8
95
 10
217.6780
 20
122.1232
 30
0.0000
 40
1.5240
  1
11
 50
90.0000
 72
2
 73
3
 11
217.6780
 21
122.1232
 31
0.0000
  0
LINE
  8
94
 10
220.9800
 20
127.0000
 30
0.0000
 11
220.9800
 21
124.4600
 31
0.0000
  0
TEXT
  7
ISOCP
  8
95
 10
220.2180
 20
122.1232
 30
0.0000
 40
1.5240
  1
13A
 50
90.0000
 72
2
 73
3
 11
220.2180
 21
122.1232
 31
0.0000
  0
LINE
  8
94
 10
223.5200
 20
127.0000
 30
0.0000
 11
223.5200
 21
124.4600
 31
0.0000
  0
TEXT
  7
ISOCP
  8
95
 10
222.7580
 20
122.1232
 30
0.0000
 40
1.5240
  1
13B
 50
90.0000
 72
2
 73
3
 11
222.7580
 21
122.1232
 31
0.0000
  0
LINE
  8
94
 10
226.0600
 20
127.0000
 30
0.0000
 11
226.0600
 21
124.4600
 31
0.0000
  0
TEXT
  7
ISOCP
  8
95
 10
225.2980
 20
122.1232
 30
0.0000
 40
1.5240
  1
13E
 50
90.0000
 72
2
 73
3
 11
225.2980
 21
122.1232
 31
0.0000
  0
LINE
  8
94
 10
231.1400
 20
127.0000
 30
0.0000
 11
231.1400
 21
124.4600
 31
0.0000
  0
TEXT
  7
ISOCP
  8
95
 10
230.3780
 20
122.1232
 30
0.0000
 40
1.5240
  1
16
 50
90.0000
 72
2
 73
3
 11
230.3780
 21
122.1232
 31
0.0000
  0
LINE
  8
94
 10
233.6800
 20
127.0000
 30
0.0000
 11
233.6800
 21
124.4600
 31
0.0000
  0
TEXT
  7
ISOCP
  8
95
 10
232.9180
 20
122.1232
 30
0.0000
 40
1.5240
  1
17
 50
90.0000
 72
2
 73
3
 11
232.9180
 21
122.1232
 31
0.0000
  0
LINE
  8
94
 10
228.6000
 20
127.0000
 30
0.0000
 11
228.6000
 21
124.4600
 31
0.0000
  0
TEXT
  7
ISOCP
  8
95
 10
227.8380
 20
122.1232
 30
0.0000
 40
1.5240
  1
25
 50
90.0000
 72
2
 73
3
 11
227.8380
 21
122.1232
 31
0.0000
  0
LINE
  8
94
 10
220.9800
 20
152.4000
 30
0.0000
 11
220.9800
 21
149.8600
 31
0.0000
  0
TEXT
  7
ISOCP
  8
95
 10
220.2180
 20
147.5232
 30
0.0000
 40
1.5240
  1
B+
 50
90.0000
 72
2
 73
3
 11
220.2180
 21
147.5232
 31
0.0000
  0
LINE
  8
94
 10
218.4400
 20
152.4000
 30
0.0000
 11
218.4400
 21
149.8600
 31
0.0000
  0
TEXT
  7
ISOCP
  8
95
 10
217.6780
 20
147.5232
 30
0.0000
 40
1.5240
  1
B-
 50
90.0000
 72
2
 73
3
 11
217.6780
 21
147.5232
 31
0.0000
  0
LINE
  8
94
 10
208.2800
 20
152.4000
 30
0.0000
 11
208.2800
 21
149.8600
 31
0.0000
  0
TEXT
  7
ISOCP
  8
95
 10
207.5180
 20
147.5232
 30
0.0000
 40
1.5240
  1
L1
 50
90.0000
 72
2
 73
3
 11
207.5180
 21
147.5232
 31
0.0000
  0
LINE
  8
94
 10
210.8200
 20
152.4000
 30
0.0000
 11
210.8200
 21
149.8600
 31
0.0000
  0
TEXT
  7
ISOCP
  8
95
 10
210.0580
 20
147.5232
 30
0.0000
 40
1.5240
  1
L2
 50
90.0000
 72
2
 73
3
 11
210.0580
 21
147.5232
 31
0.0000
  0
LINE
  8
94
 10
213.3600
 20
152.4000
 30
0.0000
 11
213.3600
 21
149.8600
 31
0.0000
  0
TEXT
  7
ISOCP
  8
95
 10
212.5980
 20
147.5232
 30
0.0000
 40
1.5240
  1
L3
 50
90.0000
 72
2
 73
3
 11
212.5980
 21
147.5232
 31
0.0000
  0
LINE
  8
94
 10
215.9000
 20
152.4000
 30
0.0000
 11
215.9000
 21
149.8600
 31
0.0000
  0
TEXT
  7
ISOCP
  8
95
 10
215.1380
 20
147.5232
 30
0.0000
 40
1.5240
  1
PE
 50
90.0000
 72
2
 73
3
 11
215.1380
 21
147.5232
 31
0.0000
  0
LINE
  8
94
 10
215.9000
 20
106.6800
 30
0.0000
 11
215.9000
 21
109.2200
 31
0.0000
  0
TEXT
  7
ISOCP
  8
95
 10
216.6620
 20
111.5568
 30
0.0000
 40
1.5240
  1
PE
 50
90.0000
  0
LINE
  8
94
 10
218.4400
 20
106.6800
 30
0.0000
 11
218.4400
 21
109.2200
 31
0.0000
  0
TEXT
  7
ISOCP
  8
95
 10
219.2020
 20
111.5568
 30
0.0000
 40
1.5240
  1
PE
 50
90.0000
  0
LINE
  8
94
 10
208.2800
 20
106.6800
 30
0.0000
 11
208.2800
 21
109.2200
 31
0.0000
  0
TEXT
  7
ISOCP
  8
95
 10
209.0420
 20
111.5568
 30
0.0000
 40
1.5240
  1
U
 50
90.0000
  0
LINE
  8
94
 10
210.8200
 20
106.6800
 30
0.0000
 11
210.8200
 21
109.2200
 31
0.0000
  0
TEXT
  7
ISOCP
  8
95
 10
211.5820
 20
111.5568
 30
0.0000
 40
1.5240
  1
V
 50
90.0000
  0
LINE
  8
94
 10
213.3600
 20
106.6800
 30
0.0000
 11
213.3600
 21
109.2200
 31
0.0000
  0
TEXT
  7
ISOCP
  8
95
 10
214.1220
 20
111.5568
 30
0.0000
 40
1.5240
  1
W
 50
90.0000
  0
LINE
  8
94
 10
157.4800
 20
106.6800
 30
0.0000
 11
157.4800
 21
121.9200
 31
0.0000
  0
LINE
  8
94
 10
157.4800
 20
121.9200
 30
0.0000
 11
160.0200
 21
121.9200
 31
0.0000
  0
LINE
  8
94
 10
160.0200
 20
121.9200
 30
0.0000
 11
167.6400
 21
121.9200
 31
0.0000
  0
LINE
  8
94
 10
167.6400
 20
106.6800
 30
0.0000
 11
160.0200
 21
106.6800
 31
0.0000
  0
LINE
  8
94
 10
160.0200
 20
106.6800
 30
0.0000
 11
157.4800
 21
106.6800
 31
0.0000
  0
LINE
  8
94
 10
158.1150
 20
109.2200
 30
0.0000
 11
158.1150
 21
119.3800
 31
0.0000
  0
LINE
  8
94
 10
158.1150
 20
119.3800
 30
0.0000
 11
161.9250
 21
119.3800
 31
0.0000
  0
LINE
  8
94
 10
161.9250
 20
119.3800
 30
0.0000
 11
161.9250
 21
109.2200
 31
0.0000
  0
LINE
  8
94
 10
161.9250
 20
109.2200
 30
0.0000
 11
158.1150
 21
109.2200
 31
0.0000
  0
ARC
  8
94
 10
160.0200
 20
113.0300
 30
0.0000
 40
1.2700
 50
90.0000
 51
270.0000
  0
ARC
  8
94
 10
160.0200
 20
115.5700
 30
0.0000
 40
1.2700
 50
270.0000
 51
90.0000
  0
LINE
  8
94
 10
160.0200
 20
106.6800
 30
0.0000
 11
160.0200
 21
111.7600
 31
0.0000
  0
LINE
  8
94
 10
160.0200
 20
116.8400
 30
0.0000
 11
160.0200
 21
121.9200
 31
0.0000
  0
LINE
  8
94
 10
163.1950
 20
109.2200
 30
0.0000
 11
163.1950
 21
119.3800
 31
0.0000
  0
LINE
  8
94
 10
163.1950
 20
119.3800
 30
0.0000
 11
167.0050
 21
119.3800
 31
0.0000
  0
LINE
  8
94
 10
167.0050
 20
119.3800
 30
0.0000
 11
167.0050
 21
109.2200
 31
0.0000
  0
LINE
  8
94
 10
167.0050
 20
109.2200
 30
0.0000
 11
163.1950
 21
109.2200
 31
0.0000
  0
ARC
  8
94
 10
165.1000
 20
113.0300
 30
0.0000
 40
1.2700
 50
90.0000
 51
270.0000
  0
ARC
  8
94
 10
165.1000
 20
115.5700
 30
0.0000
 40
1.2700
 50
270.0000
 51
90.0000
  0
LINE
  8
94
 10
165.1000
 20
106.6800
 30
0.0000
 11
165.1000
 21
111.7600
 31
0.0000
  0
LINE
  8
94
 10
165.1000
 20
116.8400
 30
0.0000
 11
165.1000
 21
121.9200
 31
0.0000
  0
LINE
  8
94
 10
165.1000
 20
121.9200
 30
0.0000
 11
172.7200
 21
121.9200
 31
0.0000
  0
LINE
  8
94
 10
172.7200
 20
121.9200
 30
0.0000
 11
172.7200
 21
106.6800
 31
0.0000
  0
LINE
  8
94
 10
172.7200
 20
106.6800
 30
0.0000
 11
165.1000
 21
106.6800
 31
0.0000
  0
LINE
  8
94
 10
168.2750
 20
109.2200
 30
0.0000
 11
168.2750
 21
119.3800
 31
0.0000
  0
LINE
  8
94
 10
168.2750
 20
119.3800
 30
0.0000
 11
172.0850
 21
119.3800
 31
0.0000
  0
LINE
  8
94
 10
172.0850
 20
119.3800
 30
0.0000
 11
172.0850
 21
109.2200
 31
0.0000
  0
LINE
  8
94
 10
172.0850
 20
109.2200
 30
0.0000
 11
168.2750
 21
109.2200
 31
0.0000
  0
ARC
  8
94
 10
170.1800
 20
113.0300
 30
0.0000
 40
1.2700
 50
90.0000
 51
270.0000
  0
ARC
  8
94
 10
170.1800
 20
115.5700
 30
0.0000
 40
1.2700
 50
270.0000
 51
90.0000
  0
LINE
  8
94
 10
170.1800
 20
106.6800
 30
0.0000
 11
170.1800
 21
111.7600
 31
0.0000
  0
LINE
  8
94
 10
170.1800
 20
116.8400
 30
0.0000
 11
170.1800
 21
121.9200
 31
0.0000
  0
TEXT
  7
ISOCP
  8
94
 10
161.9250
 20
107.3150
 30
0.0000
 40
1.4224
  1
A
 50
90.0000
  0
TEXT
  7
ISOCP
  8
94
 10
167.0050
 20
107.3150
 30
0.0000
 40
1.4224
  1
B
 50
90.0000
  0
TEXT
  7
ISOCP
  8
96
 10
156.9720
 20
109.2200
 30
0.0000
 40
1.7780
  1
9210-0086
 50
90.0000
  0
TEXT
  7
ISOCP
  8
94
 10
172.0850
 20
107.3150
 30
0.0000
 40
1.4224
  1
C
 50
90.0000
  0
LINE
  8
94
 10
165.1000
 20
101.6000
 30
0.0000
 11
165.1000
 21
106.6800
 31
0.0000
  0
LINE
  8
94
 10
160.0200
 20
101.6000
 30
0.0000
 11
160.0200
 21
106.6800
 31
0.0000
  0
LINE
  8
94
 10
160.0200
 20
127.0000
 30
0.0000
 11
160.0200
 21
121.9200
 31
0.0000
  0
LINE
  8
94
 10
165.1000
 20
127.0000
 30
0.0000
 11
165.1000
 21
121.9200
 31
0.0000
  0
LINE
  8
94
 10
170.1800
 20
101.6000
 30
0.0000
 11
170.1800
 21
106.6800
 31
0.0000
  0
LINE
  8
94
 10
170.1800
 20
127.0000
 30
0.0000
 11
170.1800
 21
121.9200
 31
0.0000
  0
LINE
  8
94
 10
40.6400
 20
83.8200
 30
0.0000
 11
40.6400
 21
99.0600
 31
0.0000
  0
LINE
  8
94
 10
40.6400
 20
99.0600
 30
0.0000
 11
38.1000
 21
99.0600
 31
0.0000
  0
LINE
  8
94
 10
38.1000
 20
99.0600
 30
0.0000
 11
27.9400
 21
99.0600
 31
0.0000
  0
LINE
  8
94
 10
27.9400
 20
99.0600
 30
0.0000
 11
25.4000
 21
99.0600
 31
0.0000
  0
LINE
  8
94
 10
25.4000
 20
99.0600
 30
0.0000
 11
25.4000
 21
83.8200
 31
0.0000
  0
LINE
  8
94
 10
25.4000
 20
83.8200
 30
0.0000
 11
27.9400
 21
83.8200
 31
0.0000
  0
LINE
  8
94
 10
27.9400
 20
83.8200
 30
0.0000
 11
38.1000
 21
83.8200
 31
0.0000
  0
LINE
  8
94
 10
38.1000
 20
83.8200
 30
0.0000
 11
40.6400
 21
83.8200
 31
0.0000
  0
LINE
  8
94
 10
38.1000
 20
99.0600
 30
0.0000
 11
38.1000
 21
95.2500
 31
0.0000
  0
LINE
  8
94
 10
38.1000
 20
95.2500
 30
0.0000
 11
34.2900
 21
95.2500
 31
0.0000
  0
LINE
  8
94
 10
34.2900
 20
95.2500
 30
0.0000
 11
34.2900
 21
93.9800
 31
0.0000
  0
LINE
  8
94
 10
34.2900
 20
93.9800
 30
0.0000
 11
31.7500
 21
95.2500
 31
0.0000
  0
LINE
  8
94
 10
31.7500
 20
95.2500
 30
0.0000
 11
34.2900
 21
96.5200
 31
0.0000
  0
LINE
  8
94
 10
34.2900
 20
96.5200
 30
0.0000
 11
34.2900
 21
95.2500
 31
0.0000
  0
LINE
  8
94
 10
31.7500
 20
95.2500
 30
0.0000
 11
31.7500
 21
93.9800
 31
0.0000
  0
LINE
  8
94
 10
31.7500
 20
95.2500
 30
0.0000
 11
27.9400
 21
95.2500
 31
0.0000
  0
LINE
  8
94
 10
27.9400
 20
95.2500
 30
0.0000
 11
27.9400
 21
99.0600
 31
0.0000
  0
LINE
  8
94
 10
38.1000
 20
87.6300
 30
0.0000
 11
35.5600
 21
87.6300
 31
0.0000
  0
LINE
  8
94
 10
35.5600
 20
87.6300
 30
0.0000
 11
35.5600
 21
86.3600
 31
0.0000
  0
LINE
  8
94
 10
35.5600
 20
86.3600
 30
0.0000
 11
30.4800
 21
86.3600
 31
0.0000
  0
LINE
  8
94
 10
30.4800
 20
86.3600
 30
0.0000
 11
30.4800
 21
87.6300
 31
0.0000
  0
LINE
  8
94
 10
30.4800
 20
87.6300
 30
0.0000
 11
30.4800
 21
88.9000
 31
0.0000
  0
LINE
  8
94
 10
30.4800
 20
88.9000
 30
0.0000
 11
35.5600
 21
88.9000
 31
0.0000
  0
LINE
  8
94
 10
35.5600
 20
88.9000
 30
0.0000
 11
35.5600
 21
87.6300
 31
0.0000
  0
LINE
  8
94
 10
30.4800
 20
87.6300
 30
0.0000
 11
27.9400
 21
87.6300
 31
0.0000
  0
LINE
  8
94
 10
27.9400
 20
87.6300
 30
0.0000
 11
27.9400
 21
83.8200
 31
0.0000
  0
LINE
  8
94
 10
31.7500
 20
95.2500
 30
0.0000
 11
31.7500
 21
96.5200
 31
0.0000
  0
LINE
  8
94
 10
35.5600
 20
93.9800
 30
0.0000
 11
33.0200
 21
91.4400
 31
0.0000
  0
LINE
  8
94
 10
33.0200
 20
91.4400
 30
0.0000
 11
33.0200
 21
92.7100
 31
0.0000
  0
LINE
  8
94
 10
33.0200
 20
92.7100
 30
0.0000
 11
30.4800
 21
90.1700
 31
0.0000
  0
LINE
  8
94
 10
30.4800
 20
90.1700
 30
0.0000
 11
30.4800
 21
91.4400
 31
0.0000
  0
LINE
  8
94
 10
30.4800
 20
91.4400
 30
0.0000
 11
31.7500
 21
90.1700
 31
0.0000
  0
LINE
  8
94
 10
31.7500
 20
90.1700
 30
0.0000
 11
30.4800
 21
90.1700
 31
0.0000
  0
LINE
  8
94
 10
38.1000
 20
87.6300
 30
0.0000
 11
38.1000
 21
83.8200
 31
0.0000
  0
TEXT
  7
ISOCP
  8
94
 10
38.1000
 20
101.6000
 30
0.0000
 40
1.7780
  1
U$35
 72
2
 73
3
 11
38.1000
 21
101.6000
 31
0.0000
  0
TEXT
  7
ISOCP
  8
94
 10
46.9900
 20
99.0600
 30
0.0000
 40
1.7780
  1
RELAY_SSR
 50
90.0000
 72
2
 73
3
 11
46.9900
 21
99.0600
 31
0.0000
  0
LINE
  8
94
 10
38.1000
 20
78.7400
 30
0.0000
 11
38.1000
 21
83.8200
 31
0.0000
  0
TEXT
  7
ISOCP
  8
95
 10
38.8620
 20
86.1568
 30
0.0000
 40
1.5240
  1
1
 50
90.0000
  0
LINE
  8
94
 10
27.9400
 20
78.7400
 30
0.0000
 11
27.9400
 21
83.8200
 31
0.0000
  0
TEXT
  7
ISOCP
  8
95
 10
28.7020
 20
86.1568
 30
0.0000
 40
1.5240
  1
2
 50
90.0000
  0
LINE
  8
94
 10
38.1000
 20
104.1400
 30
0.0000
 11
38.1000
 21
99.0600
 31
0.0000
  0
TEXT
  7
ISOCP
  8
95
 10
37.3380
 20
96.7232
 30
0.0000
 40
1.5240
  1
3+
 50
90.0000
 72
2
 73
3
 11
37.3380
 21
96.7232
 31
0.0000
  0
LINE
  8
94
 10
27.9400
 20
104.1400
 30
0.0000
 11
27.9400
 21
99.0600
 31
0.0000
  0
TEXT
  7
ISOCP
  8
95
 10
27.1780
 20
96.7232
 30
0.0000
 40
1.5240
  1
4
 50
90.0000
 72
2
 73
3
 11
27.1780
 21
96.7232
 31
0.0000
  0
LINE
  8
94
 10
149.8600
 20
71.1200
 30
0.0000
 11
149.8600
 21
66.0400
 31
0.0000
  0
LINE
  8
94
 10
149.8600
 20
66.0400
 30
0.0000
 11
149.8600
 21
38.1000
 31
0.0000
  0
LINE
  8
94
 10
149.8600
 20
38.1000
 30
0.0000
 11
175.2600
 21
38.1000
 31
0.0000
  0
LINE
  8
94
 10
175.2600
 20
38.1000
 30
0.0000
 11
175.2600
 21
66.0400
 31
0.0000
  0
LINE
  8
94
 10
175.2600
 20
66.0400
 30
0.0000
 11
167.6400
 21
66.0400
 31
0.0000
  0
LINE
  8
94
 10
149.8600
 20
71.1200
 30
0.0000
 11
167.6400
 21
71.1200
 31
0.0000
  0
LINE
  8
94
 10
167.6400
 20
71.1200
 30
0.0000
 11
167.6400
 21
66.0400
 31
0.0000
  0
LINE
  8
94
 10
149.8600
 20
66.0400
 30
0.0000
 11
167.6400
 21
66.0400
 31
0.0000
  0
TEXT
  7
ISOCP
  8
94
 10
152.4000
 20
55.8800
 30
0.0000
 40
1.7780
  1
U$36
  0
TEXT
  7
ISOCP
  8
94
 10
148.5900
 20
38.3540
 30
0.0000
 40
1.7780
  1
CONTACTOR_3PHASE
 50
90.0000
  0
LINE
  8
94
 10
154.9400
 20
68.5800
 30
0.0000
 11
154.9400
 21
66.0400
 31
0.0000
  0
TEXT
  7
ISOCP
  8
95
 10
154.1780
 20
63.7032
 30
0.0000
 40
1.5240
  1
1L1
 50
90.0000
 72
2
 73
3
 11
154.1780
 21
63.7032
 31
0.0000
  0
LINE
  8
94
 10
154.9400
 20
33.0200
 30
0.0000
 11
154.9400
 21
38.1000
 31
0.0000
  0
TEXT
  7
ISOCP
  8
95
 10
155.7020
 20
40.4368
 30
0.0000
 40
1.5240
  1
2T1
 50
90.0000
  0
TEXT
  7
ISOCP
  8
95
 10
154.5844
 20
35.7632
 30
0.0000
 40
1.5240
  1
P$2
 50
90.0000
 72
2
 73
0
 11
154.5844
 21
35.7632
 31
0.0000
  0
LINE
  8
94
 10
160.0200
 20
68.5800
 30
0.0000
 11
160.0200
 21
66.0400
 31
0.0000
  0
TEXT
  7
ISOCP
  8
95
 10
159.2580
 20
63.7032
 30
0.0000
 40
1.5240
  1
3L2
 50
90.0000
 72
2
 73
3
 11
159.2580
 21
63.7032
 31
0.0000
  0
LINE
  8
94
 10
160.0200
 20
33.0200
 30
0.0000
 11
160.0200
 21
38.1000
 31
0.0000
  0
TEXT
  7
ISOCP
  8
95
 10
160.7820
 20
40.4368
 30
0.0000
 40
1.5240
  1
4T2
 50
90.0000
  0
TEXT
  7
ISOCP
  8
95
 10
159.6644
 20
35.7632
 30
0.0000
 40
1.5240
  1
P$4
 50
90.0000
 72
2
 73
0
 11
159.6644
 21
35.7632
 31
0.0000
  0
LINE
  8
94
 10
165.1000
 20
68.5800
 30
0.0000
 11
165.1000
 21
66.0400
 31
0.0000
  0
TEXT
  7
ISOCP
  8
95
 10
164.3380
 20
63.7032
 30
0.0000
 40
1.5240
  1
5L3
 50
90.0000
 72
2
 73
3
 11
164.3380
 21
63.7032
 31
0.0000
  0
LINE
  8
94
 10
165.1000
 20
33.0200
 30
0.0000
 11
165.1000
 21
38.1000
 31
0.0000
  0
TEXT
  7
ISOCP
  8
95
 10
165.8620
 20
40.4368
 30
0.0000
 40
1.5240
  1
6T3
 50
90.0000
  0
TEXT
  7
ISOCP
  8
95
 10
164.7444
 20
35.7632
 30
0.0000
 40
1.5240
  1
P$6
 50
90.0000
 72
2
 73
0
 11
164.7444
 21
35.7632
 31
0.0000
  0
LINE
  8
94
 10
170.1800
 20
68.5800
 30
0.0000
 11
170.1800
 21
66.0400
 31
0.0000
  0
TEXT
  7
ISOCP
  8
95
 10
169.4180
 20
63.7032
 30
0.0000
 40
1.5240
  1
13NO
 50
90.0000
 72
2
 73
3
 11
169.4180
 21
63.7032
 31
0.0000
  0
LINE
  8
94
 10
170.1800
 20
33.0200
 30
0.0000
 11
170.1800
 21
38.1000
 31
0.0000
  0
TEXT
  7
ISOCP
  8
95
 10
170.9420
 20
40.4368
 30
0.0000
 40
1.5240
  1
14N0
 50
90.0000
  0
TEXT
  7
ISOCP
  8
95
 10
169.8244
 20
35.7632
 30
0.0000
 40
1.5240
  1
P$8
 50
90.0000
 72
2
 73
0
 11
169.8244
 21
35.7632
 31
0.0000
  0
LINE
  8
94
 10
152.4000
 20
73.6600
 30
0.0000
 11
152.4000
 21
71.1200
 31
0.0000
  0
TEXT
  7
ISOCP
  8
95
 10
151.6380
 20
68.7832
 30
0.0000
 40
1.5240
  1
A1
 50
90.0000
 72
2
 73
3
 11
151.6380
 21
68.7832
 31
0.0000
  0
LINE
  8
94
 10
162.5600
 20
73.6600
 30
0.0000
 11
162.5600
 21
71.1200
 31
0.0000
  0
TEXT
  7
ISOCP
  8
95
 10
161.7980
 20
68.7832
 30
0.0000
 40
1.5240
  1
A2
 50
90.0000
 72
2
 73
3
 11
161.7980
 21
68.7832
 31
0.0000
  0
LINE
  8
94
 10
106.6800
 20
73.6600
 30
0.0000
 11
106.6800
 21
53.3400
 31
0.0000
  0
LINE
  8
94
 10
106.6800
 20
53.3400
 30
0.0000
 11
109.2200
 21
53.3400
 31
0.0000
  0
LINE
  8
94
 10
109.2200
 20
53.3400
 30
0.0000
 11
124.4600
 21
53.3400
 31
0.0000
  0
LINE
  8
94
 10
124.4600
 20
53.3400
 30
0.0000
 11
127.0000
 21
53.3400
 31
0.0000
  0
LINE
  8
94
 10
127.0000
 20
53.3400
 30
0.0000
 11
127.0000
 21
73.6600
 31
0.0000
  0
LINE
  8
94
 10
127.0000
 20
73.6600
 30
0.0000
 11
124.4600
 21
73.6600
 31
0.0000
  0
LINE
  8
94
 10
124.4600
 20
73.6600
 30
0.0000
 11
116.8400
 21
73.6600
 31
0.0000
  0
LINE
  8
94
 10
116.8400
 20
73.6600
 30
0.0000
 11
109.2200
 21
73.6600
 31
0.0000
  0
LINE
  8
94
 10
109.2200
 20
73.6600
 30
0.0000
 11
106.6800
 21
73.6600
 31
0.0000
  0
LINE
  8
94
 10
109.2200
 20
53.3400
 30
0.0000
 11
111.7600
 21
55.8800
 31
0.0000
  0
LINE
  8
94
 10
111.7600
 20
55.8800
 30
0.0000
 11
111.7600
 21
58.4200
 31
0.0000
  0
LINE
  8
94
 10
111.7600
 20
58.4200
 30
0.0000
 11
111.7600
 21
60.9600
 31
0.0000
  0
LINE
  8
94
 10
111.7600
 20
60.9600
 30
0.0000
 11
114.3000
 21
60.9600
 31
0.0000
  0
LINE
  8
94
 10
114.3000
 20
60.9600
 30
0.0000
 11
114.3000
 21
62.2300
 31
0.0000
  0
LINE
  8
94
 10
114.3000
 20
62.2300
 30
0.0000
 11
119.3800
 21
62.2300
 31
0.0000
  0
LINE
  8
94
 10
119.3800
 20
62.2300
 30
0.0000
 11
119.3800
 21
60.9600
 31
0.0000
  0
LINE
  8
94
 10
119.3800
 20
60.9600
 30
0.0000
 11
119.3800
 21
59.6900
 31
0.0000
  0
LINE
  8
94
 10
119.3800
 20
59.6900
 30
0.0000
 11
114.3000
 21
59.6900
 31
0.0000
  0
LINE
  8
94
 10
114.3000
 20
59.6900
 30
0.0000
 11
114.3000
 21
60.9600
 31
0.0000
  0
LINE
  8
94
 10
119.3800
 20
60.9600
 30
0.0000
 11
121.9200
 21
60.9600
 31
0.0000
  0
LINE
  8
94
 10
121.9200
 20
60.9600
 30
0.0000
 11
121.9200
 21
55.8800
 31
0.0000
  0
LINE
  8
94
 10
121.9200
 20
55.8800
 30
0.0000
 11
124.4600
 21
53.3400
 31
0.0000
  0
LINE
  8
94
 10
109.2200
 20
73.6600
 30
0.0000
 11
111.7600
 21
71.1200
 31
0.0000
  0
LINE
  8
94
 10
111.7600
 20
71.1200
 30
0.0000
 11
111.7600
 21
66.0400
 31
0.0000
  0
LINE
  8
94
 10
121.9200
 20
66.0400
 30
0.0000
 11
121.9200
 21
71.1200
 31
0.0000
  0
LINE
  8
94
 10
121.9200
 20
71.1200
 30
0.0000
 11
124.4600
 21
73.6600
 31
0.0000
  0
LINE
  8
94
 10
116.8400
 20
73.6600
 30
0.0000
 11
116.8400
 21
67.3100
 31
0.0000
  0
LINE
  8
94
 10
111.7600
 20
66.0400
 30
0.0000
 11
114.3000
 21
66.0400
 31
0.0000
  0
LINE
  8
94
 10
121.9200
 20
66.0400
 30
0.0000
 11
119.3800
 21
66.0400
 31
0.0000
  0
LINE
  8
94
 10
116.8400
 20
67.3100
 30
0.0000
 11
114.3000
 21
64.7700
 31
0.0000
  0
LINE
  8
94
 10
111.7600
 20
55.8800
 30
0.0000
 11
110.4900
 21
55.8800
 31
0.0000
  0
LINE
  8
94
 10
110.4900
 20
55.8800
 30
0.0000
 11
111.7600
 21
58.4200
 31
0.0000
  0
LINE
  8
94
 10
111.7600
 20
58.4200
 30
0.0000
 11
113.0300
 21
55.8800
 31
0.0000
  0
LINE
  8
94
 10
113.0300
 20
55.8800
 30
0.0000
 11
111.7600
 21
55.8800
 31
0.0000
  0
LINE
  8
94
 10
110.4900
 20
58.4200
 30
0.0000
 11
113.0300
 21
58.4200
 31
0.0000
  0
LINE
  8
94
 10
116.8400
 20
78.7400
 30
0.0000
 11
116.8400
 21
73.6600
 31
0.0000
  0
TEXT
  7
ISOCP
  8
95
 10
116.0780
 20
71.3232
 30
0.0000
 40
1.5240
  1
11
 50
90.0000
 72
2
 73
3
 11
116.0780
 21
71.3232
 31
0.0000
  0
LINE
  8
94
 10
109.2200
 20
78.7400
 30
0.0000
 11
109.2200
 21
73.6600
 31
0.0000
  0
TEXT
  7
ISOCP
  8
95
 10
108.4580
 20
71.3232
 30
0.0000
 40
1.5240
  1
12
 50
90.0000
 72
2
 73
3
 11
108.4580
 21
71.3232
 31
0.0000
  0
LINE
  8
94
 10
124.4600
 20
78.7400
 30
0.0000
 11
124.4600
 21
73.6600
 31
0.0000
  0
TEXT
  7
ISOCP
  8
95
 10
123.6980
 20
71.3232
 30
0.0000
 40
1.5240
  1
14
 50
90.0000
 72
2
 73
3
 11
123.6980
 21
71.3232
 31
0.0000
  0
LINE
  8
94
 10
109.2200
 20
48.2600
 30
0.0000
 11
109.2200
 21
53.3400
 31
0.0000
  0
TEXT
  7
ISOCP
  8
95
 10
109.9820
 20
55.6768
 30
0.0000
 40
1.5240
  1
A1
 50
90.0000
  0
LINE
  8
94
 10
124.4600
 20
48.2600
 30
0.0000
 11
124.4600
 21
53.3400
 31
0.0000
  0
TEXT
  7
ISOCP
  8
95
 10
125.2220
 20
55.6768
 30
0.0000
 40
1.5240
  1
A2
 50
90.0000
  0
LINE
  8
92
 10
160.0200
 20
27.9400
 30
0.0000
 11
378.4600
 21
27.9400
 31
0.0000
  0
LINE
  8
92
 10
215.9000
 20
22.8600
 30
0.0000
 11
7.6200
 21
22.8600
 31
0.0000
  0
LINE
  8
92
 10
7.6200
 20
10.1600
 30
0.0000
 11
127.0000
 21
10.1600
 31
0.0000
  0
LINE
  8
92
 10
160.0200
 20
139.7000
 30
0.0000
 11
190.5000
 21
139.7000
 31
0.0000
  0
LINE
  8
92
 10
190.5000
 20
139.7000
 30
0.0000
 11
190.5000
 21
86.3600
 31
0.0000
  0
LINE
  8
92
 10
190.5000
 20
86.3600
 30
0.0000
 11
355.6000
 21
86.3600
 31
0.0000
  0
LINE
  8
92
 10
355.6000
 20
86.3600
 30
0.0000
 11
355.6000
 21
172.7200
 31
0.0000
  0
LINE
  8
92
 10
340.3600
 20
91.4400
 30
0.0000
 11
259.0800
 21
91.4400
 31
0.0000
  0
LINE
  8
92
 10
259.0800
 20
91.4400
 30
0.0000
 11
259.0800
 21
243.8400
 31
0.0000
  0
LINE
  8
92
 10
259.0800
 20
243.8400
 30
0.0000
 11
93.9800
 21
243.8400
 31
0.0000
  0
LINE
  8
92
 10
93.9800
 20
243.8400
 30
0.0000
 11
93.9800
 21
220.9800
 31
0.0000
  0
LINE
  8
92
 10
71.1200
 20
45.7200
 30
0.0000
 11
71.1200
 21
149.8600
 31
0.0000
  0
LINE
  8
92
 10
71.1200
 20
149.8600
 30
0.0000
 11
71.1200
 21
175.2600
 31
0.0000
  0
LINE
  8
92
 10
71.1200
 20
175.2600
 30
0.0000
 11
53.3400
 21
175.2600
 31
0.0000
  0
LINE
  8
92
 10
71.1200
 20
149.8600
 30
0.0000
 11
129.5400
 21
149.8600
 31
0.0000
  0
LINE
  8
92
 10
129.5400
 20
149.8600
 30
0.0000
 11
129.5400
 21
180.3400
 31
0.0000
  0
LINE
  8
92
 10
129.5400
 20
180.3400
 30
0.0000
 11
358.1400
 21
180.3400
 31
0.0000
  0
LINE
  8
92
 10
358.1400
 20
180.3400
 30
0.0000
 11
358.1400
 21
190.5000
 31
0.0000
  0
LINE
  8
92
 10
358.1400
 20
190.5000
 30
0.0000
 11
358.1400
 21
200.6600
 31
0.0000
  0
LINE
  8
92
 10
358.1400
 20
200.6600
 30
0.0000
 11
381.0000
 21
200.6600
 31
0.0000
  0
LINE
  8
92
 10
358.1400
 20
190.5000
 30
0.0000
 11
381.0000
 21
190.5000
 31
0.0000
  0
LINE
  8
92
 10
358.1400
 20
180.3400
 30
0.0000
 11
381.0000
 21
180.3400
 31
0.0000
  0
LINE
  8
92
 10
358.1400
 20
200.6600
 30
0.0000
 11
358.1400
 21
210.8200
 31
0.0000
  0
LINE
  8
92
 10
358.1400
 20
210.8200
 30
0.0000
 11
381.0000
 21
210.8200
 31
0.0000
  0
LINE
  8
92
 10
134.6200
 20
78.7400
 30
0.0000
 11
358.1400
 21
78.7400
 31
0.0000
  0
LINE
  8
92
 10
134.6200
 20
78.7400
 30
0.0000
 11
134.6200
 21
134.6200
 31
0.0000
  0
LINE
  8
92
 10
134.6200
 20
134.6200
 30
0.0000
 11
93.9800
 21
134.6200
 31
0.0000
  0
LINE
  8
92
 10
358.1400
 20
78.7400
 30
0.0000
 11
358.1400
 21
68.5800
 31
0.0000
  0
LINE
  8
92
 10
358.1400
 20
68.5800
 30
0.0000
 11
378.4600
 21
68.5800
 31
0.0000
  0
LINE
  8
91
 10
187.9600
 20
73.6600
 30
0.0000
 11
187.9600
 21
66.0400
 31
0.0000
  0
LINE
  8
91
 10
154.9400
 20
33.0200
 30
0.0000
 11
154.9400
 21
27.9400
 31
0.0000
  0
LINE
  8
91
 10
160.0200
 20
27.9400
 30
0.0000
 11
154.9400
 21
27.9400
 31
0.0000
  0
LINE
  8
91
 10
160.0200
 20
27.9400
 30
0.0000
 11
160.0200
 21
33.0200
 31
0.0000
  0
LINE
  8
91
 10
165.1000
 20
27.9400
 30
0.0000
 11
165.1000
 21
33.0200
 31
0.0000
  0
LINE
  8
91
 10
208.2800
 20
106.6800
 30
0.0000
 11
208.2800
 21
22.8600
 31
0.0000
  0
LINE
  8
91
 10
210.8200
 20
106.6800
 30
0.0000
 11
210.8200
 21
22.8600
 31
0.0000
  0
LINE
  8
91
 10
213.3600
 20
106.6800
 30
0.0000
 11
213.3600
 21
22.8600
 31
0.0000
  0
LINE
  8
91
 10
215.9000
 20
106.6800
 30
0.0000
 11
215.9000
 21
22.8600
 31
0.0000
  0
LINE
  8
91
 10
208.2800
 20
152.4000
 30
0.0000
 11
187.9600
 21
152.4000
 31
0.0000
  0
LINE
  8
91
 10
187.9600
 20
139.7000
 30
0.0000
 11
187.9600
 21
152.4000
 31
0.0000
  0
LINE
  8
91
 10
185.4200
 20
139.7000
 30
0.0000
 11
185.4200
 21
154.9400
 31
0.0000
  0
LINE
  8
91
 10
185.4200
 20
154.9400
 30
0.0000
 11
210.8200
 21
154.9400
 31
0.0000
  0
LINE
  8
91
 10
210.8200
 20
154.9400
 30
0.0000
 11
210.8200
 21
152.4000
 31
0.0000
  0
LINE
  8
91
 10
182.8800
 20
139.7000
 30
0.0000
 11
182.8800
 21
157.4800
 31
0.0000
  0
LINE
  8
91
 10
182.8800
 20
157.4800
 30
0.0000
 11
213.3600
 21
157.4800
 31
0.0000
  0
LINE
  8
91
 10
213.3600
 20
157.4800
 30
0.0000
 11
213.3600
 21
152.4000
 31
0.0000
  0
LINE
  8
91
 10
180.3400
 20
139.7000
 30
0.0000
 11
180.3400
 21
160.0200
 31
0.0000
  0
LINE
  8
91
 10
180.3400
 20
160.0200
 30
0.0000
 11
215.9000
 21
160.0200
 31
0.0000
  0
LINE
  8
91
 10
215.9000
 20
160.0200
 30
0.0000
 11
215.9000
 21
152.4000
 31
0.0000
  0
LINE
  8
91
 10
297.1800
 20
99.0600
 30
0.0000
 11
297.1800
 21
86.3600
 31
0.0000
  0
LINE
  8
91
 10
294.6400
 20
99.0600
 30
0.0000
 11
294.6400
 21
86.3600
 31
0.0000
  0
LINE
  8
91
 10
292.1000
 20
99.0600
 30
0.0000
 11
292.1000
 21
86.3600
 31
0.0000
  0
LINE
  8
91
 10
335.2800
 20
167.6400
 30
0.0000
 11
355.6000
 21
167.6400
 31
0.0000
  0
LINE
  8
91
 10
355.6000
 20
170.1800
 30
0.0000
 11
330.2000
 21
170.1800
 31
0.0000
  0
LINE
  8
91
 10
330.2000
 20
170.1800
 30
0.0000
 11
330.2000
 21
167.6400
 31
0.0000
  0
LINE
  8
91
 10
355.6000
 20
172.7200
 30
0.0000
 11
325.1200
 21
172.7200
 31
0.0000
  0
LINE
  8
91
 10
325.1200
 20
172.7200
 30
0.0000
 11
325.1200
 21
167.6400
 31
0.0000
  0
LINE
  8
91
 10
190.5000
 20
86.3600
 30
0.0000
 11
187.9600
 21
86.3600
 31
0.0000
  0
LINE
  8
91
 10
187.9600
 20
86.3600
 30
0.0000
 11
187.9600
 21
73.6600
 31
0.0000
  0
LINE
  8
91
 10
187.9600
 20
71.1200
 30
0.0000
 11
187.9600
 21
73.6600
 31
0.0000
  0
LINE
  8
91
 10
195.5800
 20
195.5800
 30
0.0000
 11
195.5800
 21
162.5600
 31
0.0000
  0
LINE
  8
91
 10
195.5800
 20
162.5600
 30
0.0000
 11
177.8000
 21
162.5600
 31
0.0000
  0
LINE
  8
91
 10
177.8000
 20
162.5600
 30
0.0000
 11
177.8000
 21
139.7000
 31
0.0000
  0
LINE
  8
91
 10
175.2600
 20
139.7000
 30
0.0000
 11
175.2600
 21
165.1000
 31
0.0000
  0
LINE
  8
91
 10
175.2600
 20
165.1000
 30
0.0000
 11
190.5000
 21
165.1000
 31
0.0000
  0
LINE
  8
91
 10
190.5000
 20
165.1000
 30
0.0000
 11
190.5000
 21
195.5800
 31
0.0000
  0
LINE
  8
91
 10
172.7200
 20
139.7000
 30
0.0000
 11
172.7200
 21
167.6400
 31
0.0000
  0
LINE
  8
91
 10
172.7200
 20
167.6400
 30
0.0000
 11
185.4200
 21
167.6400
 31
0.0000
  0
LINE
  8
91
 10
185.4200
 20
167.6400
 30
0.0000
 11
185.4200
 21
195.5800
 31
0.0000
  0
LINE
  8
91
 10
160.0200
 20
127.0000
 30
0.0000
 11
160.0200
 21
139.7000
 31
0.0000
  0
LINE
  8
91
 10
165.1000
 20
127.0000
 30
0.0000
 11
165.1000
 21
139.7000
 31
0.0000
  0
LINE
  8
91
 10
170.1800
 20
127.0000
 30
0.0000
 11
170.1800
 21
139.7000
 31
0.0000
  0
LINE
  8
91
 10
233.6800
 20
127.0000
 30
0.0000
 11
248.9200
 21
127.0000
 31
0.0000
  0
LINE
  8
91
 10
248.9200
 20
127.0000
 30
0.0000
 11
248.9200
 21
93.9800
 31
0.0000
  0
LINE
  8
91
 10
154.9400
 20
68.5800
 30
0.0000
 11
154.9400
 21
83.8200
 31
0.0000
  0
LINE
  8
91
 10
154.9400
 20
83.8200
 30
0.0000
 11
160.0200
 21
83.8200
 31
0.0000
  0
LINE
  8
91
 10
160.0200
 20
83.8200
 30
0.0000
 11
160.0200
 21
93.9800
 31
0.0000
  0
LINE
  8
91
 10
160.0200
 20
93.9800
 30
0.0000
 11
160.0200
 21
101.6000
 31
0.0000
  0
LINE
  8
91
 10
160.0200
 20
93.9800
 30
0.0000
 11
116.8400
 21
93.9800
 31
0.0000
  0
LINE
  8
91
 10
116.8400
 20
93.9800
 30
0.0000
 11
116.8400
 21
78.7400
 31
0.0000
  0
LINE
  8
91
 10
160.0200
 20
93.9800
 30
0.0000
 11
248.9200
 21
93.9800
 31
0.0000
  0
CIRCLE
  8
91
 10
160.0200
 20
93.9800
 30
0.0000
 40
0.5080
  0
LINE
  8
91
 10
104.1400
 20
220.9800
 30
0.0000
 11
93.9800
 21
220.9800
 31
0.0000
  0
LINE
  8
91
 10
104.1400
 20
223.5200
 30
0.0000
 11
93.9800
 21
223.5200
 31
0.0000
  0
LINE
  8
91
 10
332.7400
 20
99.0600
 30
0.0000
 11
332.7400
 21
91.4400
 31
0.0000
  0
LINE
  8
91
 10
335.2800
 20
99.0600
 30
0.0000
 11
335.2800
 21
91.4400
 31
0.0000
  0
LINE
  8
91
 10
337.8200
 20
99.0600
 30
0.0000
 11
337.8200
 21
91.4400
 31
0.0000
  0
LINE
  8
91
 10
340.3600
 20
99.0600
 30
0.0000
 11
340.3600
 21
91.4400
 31
0.0000
  0
LINE
  8
91
 10
279.4000
 20
99.0600
 30
0.0000
 11
279.4000
 21
91.4400
 31
0.0000
  0
LINE
  8
91
 10
276.8600
 20
99.0600
 30
0.0000
 11
276.8600
 21
91.4400
 31
0.0000
  0
LINE
  8
91
 10
274.3200
 20
99.0600
 30
0.0000
 11
274.3200
 21
91.4400
 31
0.0000
  0
LINE
  8
91
 10
17.7800
 20
215.9000
 30
0.0000
 11
63.5000
 21
215.9000
 31
0.0000
  0
LINE
  8
91
 10
63.5000
 20
215.9000
 30
0.0000
 11
63.5000
 21
175.2600
 31
0.0000
  0
LINE
  8
91
 10
17.7800
 20
236.2200
 30
0.0000
 11
66.0400
 21
236.2200
 31
0.0000
  0
LINE
  8
91
 10
66.0400
 20
236.2200
 30
0.0000
 11
66.0400
 21
175.2600
 31
0.0000
  0
LINE
  8
91
 10
365.7600
 20
220.9800
 30
0.0000
 11
355.6000
 21
220.9800
 31
0.0000
  0
LINE
  8
91
 10
355.6000
 20
246.3800
 30
0.0000
 11
71.1200
 21
246.3800
 31
0.0000
  0
LINE
  8
91
 10
71.1200
 20
246.3800
 30
0.0000
 11
71.1200
 21
175.2600
 31
0.0000
  0
LINE
  8
91
 10
355.6000
 20
246.3800
 30
0.0000
 11
355.6000
 21
220.9800
 31
0.0000
  0
LINE
  8
91
 10
68.5800
 20
175.2600
 30
0.0000
 11
68.5800
 21
251.4600
 31
0.0000
  0
LINE
  8
91
 10
68.5800
 20
251.4600
 30
0.0000
 11
365.7600
 21
251.4600
 31
0.0000
  0
LINE
  8
91
 10
365.7600
 20
251.4600
 30
0.0000
 11
365.7600
 21
238.7600
 31
0.0000
  0
LINE
  8
91
 10
71.1200
 20
170.1800
 30
0.0000
 11
76.2000
 21
170.1800
 31
0.0000
  0
LINE
  8
91
 10
76.2000
 20
170.1800
 30
0.0000
 11
76.2000
 21
241.3000
 31
0.0000
  0
LINE
  8
91
 10
76.2000
 20
241.3000
 30
0.0000
 11
139.7000
 21
241.3000
 31
0.0000
  0
LINE
  8
91
 10
139.7000
 20
231.1400
 30
0.0000
 11
139.7000
 21
241.3000
 31
0.0000
  0
LINE
  8
91
 10
71.1200
 20
167.6400
 30
0.0000
 11
78.7400
 21
167.6400
 31
0.0000
  0
LINE
  8
91
 10
78.7400
 20
167.6400
 30
0.0000
 11
78.7400
 21
238.7600
 31
0.0000
  0
LINE
  8
91
 10
78.7400
 20
238.7600
 30
0.0000
 11
132.0800
 21
238.7600
 31
0.0000
  0
LINE
  8
91
 10
132.0800
 20
238.7600
 30
0.0000
 11
137.1600
 21
238.7600
 31
0.0000
  0
LINE
  8
91
 10
137.1600
 20
238.7600
 30
0.0000
 11
137.1600
 21
231.1400
 31
0.0000
  0
LINE
  8
91
 10
132.0800
 20
231.1400
 30
0.0000
 11
132.0800
 21
238.7600
 31
0.0000
  0
CIRCLE
  8
91
 10
132.0800
 20
238.7600
 30
0.0000
 40
0.5080
  0
LINE
  8
91
 10
71.1200
 20
165.1000
 30
0.0000
 11
81.2800
 21
165.1000
 31
0.0000
  0
LINE
  8
91
 10
81.2800
 20
165.1000
 30
0.0000
 11
81.2800
 21
236.2200
 31
0.0000
  0
LINE
  8
91
 10
81.2800
 20
236.2200
 30
0.0000
 11
134.6200
 21
236.2200
 31
0.0000
  0
LINE
  8
91
 10
134.6200
 20
236.2200
 30
0.0000
 11
134.6200
 21
231.1400
 31
0.0000
  0
LINE
  8
91
 10
71.1200
 20
160.0200
 30
0.0000
 11
88.9000
 21
160.0200
 31
0.0000
  0
LINE
  8
91
 10
88.9000
 20
160.0200
 30
0.0000
 11
88.9000
 21
190.5000
 31
0.0000
  0
LINE
  8
91
 10
88.9000
 20
190.5000
 30
0.0000
 11
200.6600
 21
190.5000
 31
0.0000
  0
LINE
  8
91
 10
200.6600
 20
190.5000
 30
0.0000
 11
200.6600
 21
195.5800
 31
0.0000
  0
LINE
  8
91
 10
71.1200
 20
157.4800
 30
0.0000
 11
91.4400
 21
157.4800
 31
0.0000
  0
LINE
  8
91
 10
91.4400
 20
157.4800
 30
0.0000
 11
91.4400
 21
187.9600
 31
0.0000
  0
LINE
  8
91
 10
91.4400
 20
187.9600
 30
0.0000
 11
205.7400
 21
187.9600
 31
0.0000
  0
LINE
  8
91
 10
205.7400
 20
187.9600
 30
0.0000
 11
205.7400
 21
195.5800
 31
0.0000
  0
LINE
  8
91
 10
226.0600
 20
180.3400
 30
0.0000
 11
226.0600
 21
144.7800
 31
0.0000
  0
LINE
  8
91
 10
208.2800
 20
127.0000
 30
0.0000
 11
208.2800
 21
144.7800
 31
0.0000
  0
LINE
  8
91
 10
208.2800
 20
144.7800
 30
0.0000
 11
226.0600
 21
144.7800
 31
0.0000
  0
LINE
  8
91
 10
228.6000
 20
180.3400
 30
0.0000
 11
228.6000
 21
142.2400
 31
0.0000
  0
LINE
  8
91
 10
210.8200
 20
127.0000
 30
0.0000
 11
210.8200
 21
142.2400
 31
0.0000
  0
LINE
  8
91
 10
210.8200
 20
142.2400
 30
0.0000
 11
228.6000
 21
142.2400
 31
0.0000
  0
LINE
  8
91
 10
231.1400
 20
180.3400
 30
0.0000
 11
231.1400
 21
139.7000
 31
0.0000
  0
LINE
  8
91
 10
213.3600
 20
127.0000
 30
0.0000
 11
213.3600
 21
139.7000
 31
0.0000
  0
LINE
  8
91
 10
213.3600
 20
139.7000
 30
0.0000
 11
231.1400
 21
139.7000
 31
0.0000
  0
LINE
  8
91
 10
236.2200
 20
180.3400
 30
0.0000
 11
236.2200
 21
134.6200
 31
0.0000
  0
LINE
  8
91
 10
236.2200
 20
134.6200
 30
0.0000
 11
220.9800
 21
134.6200
 31
0.0000
  0
LINE
  8
91
 10
220.9800
 20
134.6200
 30
0.0000
 11
220.9800
 21
127.0000
 31
0.0000
  0
LINE
  8
91
 10
127.0000
 20
22.8600
 30
0.0000
 11
127.0000
 21
10.1600
 31
0.0000
  0
LINE
  8
91
 10
104.1400
 20
218.4400
 30
0.0000
 11
93.9800
 21
218.4400
 31
0.0000
  0
LINE
  8
91
 10
93.9800
 20
218.4400
 30
0.0000
 11
93.9800
 21
134.6200
 31
0.0000
  0
LINE
  8
91
 10
104.1400
 20
215.9000
 30
0.0000
 11
96.5200
 21
215.9000
 31
0.0000
  0
LINE
  8
91
 10
96.5200
 20
215.9000
 30
0.0000
 11
96.5200
 21
134.6200
 31
0.0000
  0
LINE
  8
91
 10
104.1400
 20
213.3600
 30
0.0000
 11
99.0600
 21
213.3600
 31
0.0000
  0
LINE
  8
91
 10
99.0600
 20
213.3600
 30
0.0000
 11
99.0600
 21
134.6200
 31
0.0000
  0
LINE
  8
91
 10
104.1400
 20
210.8200
 30
0.0000
 11
101.6000
 21
210.8200
 31
0.0000
  0
LINE
  8
91
 10
101.6000
 20
210.8200
 30
0.0000
 11
101.6000
 21
134.6200
 31
0.0000
  0
LINE
  8
91
 10
320.0400
 20
99.0600
 30
0.0000
 11
320.0400
 21
96.5200
 31
0.0000
  0
LINE
  8
91
 10
320.0400
 20
96.5200
 30
0.0000
 11
287.0200
 21
96.5200
 31
0.0000
  0
LINE
  8
91
 10
287.0200
 20
96.5200
 30
0.0000
 11
287.0200
 21
99.0600
 31
0.0000
  0
LINE
  8
91
 10
320.0400
 20
96.5200
 30
0.0000
 11
322.5800
 21
96.5200
 31
0.0000
  0
LINE
  8
91
 10
322.5800
 20
96.5200
 30
0.0000
 11
322.5800
 21
99.0600
 31
0.0000
  0
LINE
  8
91
 10
322.5800
 20
96.5200
 30
0.0000
 11
325.1200
 21
96.5200
 31
0.0000
  0
LINE
  8
91
 10
325.1200
 20
96.5200
 30
0.0000
 11
325.1200
 21
99.0600
 31
0.0000
  0
LINE
  8
91
 10
325.1200
 20
96.5200
 30
0.0000
 11
327.6600
 21
96.5200
 31
0.0000
  0
LINE
  8
91
 10
327.6600
 20
96.5200
 30
0.0000
 11
327.6600
 21
99.0600
 31
0.0000
  0
LINE
  8
91
 10
287.0200
 20
96.5200
 30
0.0000
 11
284.4800
 21
96.5200
 31
0.0000
  0
LINE
  8
91
 10
284.4800
 20
96.5200
 30
0.0000
 11
284.4800
 21
99.0600
 31
0.0000
  0
LINE
  8
91
 10
284.4800
 20
96.5200
 30
0.0000
 11
281.9400
 21
96.5200
 31
0.0000
  0
LINE
  8
91
 10
281.9400
 20
96.5200
 30
0.0000
 11
281.9400
 21
99.0600
 31
0.0000
  0
CIRCLE
  8
91
 10
320.0400
 20
96.5200
 30
0.0000
 40
0.5080
  0
CIRCLE
  8
91
 10
322.5800
 20
96.5200
 30
0.0000
 40
0.5080
  0
CIRCLE
  8
91
 10
325.1200
 20
96.5200
 30
0.0000
 40
0.5080
  0
CIRCLE
  8
91
 10
287.0200
 20
96.5200
 30
0.0000
 40
0.5080
  0
CIRCLE
  8
91
 10
284.4800
 20
96.5200
 30
0.0000
 40
0.5080
  0
LINE
  8
91
 10
218.4400
 20
152.4000
 30
0.0000
 11
218.4400
 21
170.1800
 31
0.0000
  0
LINE
  8
91
 10
218.4400
 20
170.1800
 30
0.0000
 11
149.8600
 21
170.1800
 31
0.0000
  0
LINE
  8
91
 10
149.8600
 20
170.1800
 30
0.0000
 11
149.8600
 21
101.6000
 31
0.0000
  0
LINE
  8
91
 10
88.9000
 20
88.9000
 30
0.0000
 11
88.9000
 21
101.6000
 31
0.0000
  0
LINE
  8
91
 10
88.9000
 20
101.6000
 30
0.0000
 11
149.8600
 21
101.6000
 31
0.0000
  0
LINE
  8
91
 10
220.9800
 20
152.4000
 30
0.0000
 11
220.9800
 21
172.7200
 31
0.0000
  0
LINE
  8
91
 10
220.9800
 20
172.7200
 30
0.0000
 11
147.3200
 21
172.7200
 31
0.0000
  0
LINE
  8
91
 10
147.3200
 20
172.7200
 30
0.0000
 11
147.3200
 21
104.1400
 31
0.0000
  0
LINE
  8
91
 10
147.3200
 20
104.1400
 30
0.0000
 11
78.7400
 21
104.1400
 31
0.0000
  0
LINE
  8
91
 10
78.7400
 20
104.1400
 30
0.0000
 11
78.7400
 21
73.6600
 31
0.0000
  0
LINE
  8
91
 10
78.7400
 20
73.6600
 30
0.0000
 11
38.1000
 21
73.6600
 31
0.0000
  0
LINE
  8
91
 10
38.1000
 20
73.6600
 30
0.0000
 11
38.1000
 21
78.7400
 31
0.0000
  0
LINE
  8
91
 10
25.4000
 20
71.1200
 30
0.0000
 11
27.9400
 21
71.1200
 31
0.0000
  0
LINE
  8
91
 10
27.9400
 20
71.1200
 30
0.0000
 11
27.9400
 21
78.7400
 31
0.0000
  0
LINE
  8
91
 10
25.4000
 20
60.9600
 30
0.0000
 11
88.9000
 21
60.9600
 31
0.0000
  0
LINE
  8
91
 10
88.9000
 20
60.9600
 30
0.0000
 11
88.9000
 21
66.0400
 31
0.0000
  0
LINE
  8
91
 10
231.1400
 20
127.0000
 30
0.0000
 11
231.1400
 21
129.5400
 31
0.0000
  0
LINE
  8
91
 10
231.1400
 20
129.5400
 30
0.0000
 11
251.4600
 21
129.5400
 31
0.0000
  0
LINE
  8
91
 10
251.4600
 20
129.5400
 30
0.0000
 11
251.4600
 21
50.8000
 31
0.0000
  0
LINE
  8
91
 10
251.4600
 20
50.8000
 30
0.0000
 11
127.0000
 21
50.8000
 31
0.0000
  0
LINE
  8
91
 10
127.0000
 20
50.8000
 30
0.0000
 11
127.0000
 21
45.7200
 31
0.0000
  0
LINE
  8
91
 10
226.0600
 20
127.0000
 30
0.0000
 11
226.0600
 21
132.0800
 31
0.0000
  0
LINE
  8
91
 10
226.0600
 20
132.0800
 30
0.0000
 11
254.0000
 21
132.0800
 31
0.0000
  0
LINE
  8
91
 10
254.0000
 20
132.0800
 30
0.0000
 11
254.0000
 21
91.4400
 31
0.0000
  0
LINE
  8
91
 10
254.0000
 20
91.4400
 30
0.0000
 11
66.0400
 21
91.4400
 31
0.0000
  0
LINE
  8
91
 10
66.0400
 20
91.4400
 30
0.0000
 11
66.0400
 21
109.2200
 31
0.0000
  0
LINE
  8
91
 10
66.0400
 20
109.2200
 30
0.0000
 11
38.1000
 21
109.2200
 31
0.0000
  0
LINE
  8
91
 10
38.1000
 20
109.2200
 30
0.0000
 11
38.1000
 21
104.1400
 31
0.0000
  0
LINE
  8
91
 10
27.9400
 20
104.1400
 30
0.0000
 11
20.3200
 21
104.1400
 31
0.0000
  0
LINE
  8
91
 10
20.3200
 20
104.1400
 30
0.0000
 11
20.3200
 21
55.8800
 31
0.0000
  0
LINE
  8
91
 10
20.3200
 20
55.8800
 30
0.0000
 11
60.9600
 21
55.8800
 31
0.0000
  0
LINE
  8
91
 10
60.9600
 20
55.8800
 30
0.0000
 11
60.9600
 21
45.7200
 31
0.0000
  0
LINE
  8
91
 10
12.7000
 20
78.7400
 30
0.0000
 11
12.7000
 21
81.2800
 31
0.0000
  0
LINE
  8
91
 10
12.7000
 20
81.2800
 30
0.0000
 11
17.7800
 21
81.2800
 31
0.0000
  0
LINE
  8
91
 10
17.7800
 20
81.2800
 30
0.0000
 11
17.7800
 21
53.3400
 31
0.0000
  0
LINE
  8
91
 10
17.7800
 20
53.3400
 30
0.0000
 11
58.4200
 21
53.3400
 31
0.0000
  0
LINE
  8
91
 10
58.4200
 20
53.3400
 30
0.0000
 11
58.4200
 21
45.7200
 31
0.0000
  0
LINE
  8
91
 10
12.7000
 20
66.0400
 30
0.0000
 11
12.7000
 21
50.8000
 31
0.0000
  0
LINE
  8
91
 10
12.7000
 20
50.8000
 30
0.0000
 11
55.8800
 21
50.8000
 31
0.0000
  0
LINE
  8
91
 10
55.8800
 20
50.8000
 30
0.0000
 11
55.8800
 21
45.7200
 31
0.0000
  0
LINE
  8
91
 10
279.4000
 20
236.2200
 30
0.0000
 11
337.8200
 21
236.2200
 31
0.0000
  0
LINE
  8
91
 10
337.8200
 20
236.2200
 30
0.0000
 11
337.8200
 21
187.9600
 31
0.0000
  0
LINE
  8
91
 10
337.8200
 20
187.9600
 30
0.0000
 11
279.4000
 21
187.9600
 31
0.0000
  0
LINE
  8
91
 10
279.4000
 20
187.9600
 30
0.0000
 11
279.4000
 21
236.2200
 31
0.0000
  0
LINE
  8
91
 10
165.1000
 20
68.5800
 30
0.0000
 11
165.1000
 21
73.6600
 31
0.0000
  0
LINE
  8
91
 10
165.1000
 20
73.6600
 30
0.0000
 11
170.1800
 21
73.6600
 31
0.0000
  0
LINE
  8
91
 10
170.1800
 20
73.6600
 30
0.0000
 11
170.1800
 21
101.6000
 31
0.0000
  0
LINE
  8
91
 10
160.0200
 20
68.5800
 30
0.0000
 11
160.0200
 21
81.2800
 31
0.0000
  0
LINE
  8
91
 10
160.0200
 20
81.2800
 30
0.0000
 11
162.5600
 21
81.2800
 31
0.0000
  0
LINE
  8
91
 10
162.5600
 20
81.2800
 30
0.0000
 11
165.1000
 21
81.2800
 31
0.0000
  0
LINE
  8
91
 10
165.1000
 20
81.2800
 30
0.0000
 11
165.1000
 21
101.6000
 31
0.0000
  0
LINE
  8
91
 10
162.5600
 20
73.6600
 30
0.0000
 11
162.5600
 21
81.2800
 31
0.0000
  0
CIRCLE
  8
91
 10
162.5600
 20
81.2800
 30
0.0000
 40
0.5080
  0
LINE
  8
91
 10
124.4600
 20
48.2600
 30
0.0000
 11
124.4600
 21
43.1800
 31
0.0000
  0
LINE
  8
91
 10
124.4600
 20
43.1800
 30
0.0000
 11
96.5200
 21
43.1800
 31
0.0000
  0
LINE
  8
91
 10
109.2200
 20
48.2600
 30
0.0000
 11
109.2200
 21
45.7200
 31
0.0000
  0
LINE
  8
91
 10
109.2200
 20
45.7200
 30
0.0000
 11
96.5200
 21
45.7200
 31
0.0000
  0
LINE
  8
91
 10
124.4600
 20
78.7400
 30
0.0000
 11
129.5400
 21
78.7400
 31
0.0000
  0
LINE
  8
91
 10
129.5400
 20
78.7400
 30
0.0000
 11
129.5400
 21
73.6600
 31
0.0000
  0
LINE
  8
91
 10
129.5400
 20
73.6600
 30
0.0000
 11
152.4000
 21
73.6600
 31
0.0000
  0
ENDSEC
  0
EOF
