  0
SECTION
  2
HEADER
  9
$ACADVER
  1
AC1009
  9
$FILLMODE
 70
0
  9
$EXTMIN
 10
-0.5080
 20
-0.5927
 30
0.0000
  9
$EXTMAX
 10
388.2495
 20
260.9427
 30
0.0000
  0
ENDSEC
  0
SECTION
  2
TABLES
  0
TABLE
  2
LTYPE
 70
1
  0
LTYPE
  2
CONTINUOUS
 70
64
  3
Solid line
 72
65
 73
0
 40
0
  0
ENDTAB
  0
TABLE
  2
LAYER
 70
255
  0
LAYER
  2
91
 70
64
 62
94
  6
CONTINUOUS
  0
LAYER
  2
92
 70
64
 62
174
  6
CONTINUOUS
  0
LAYER
  2
94
 70
64
 62
14
  6
CONTINUOUS
  0
LAYER
  2
95
 70
64
 62
251
  6
CONTINUOUS
  0
LAYER
  2
96
 70
64
 62
251
  6
CONTINUOUS
  0
LAYER
  2
97
 70
64
 62
251
  6
CONTINUOUS
  0
LAYER
  2
98
 70
64
 62
54
  6
CONTINUOUS
  0
LAYER
  2
199
 70
64
 62
251
  6
CONTINUOUS
  0
LAYER
  2
200
 70
64
 62
174
  6
CONTINUOUS
  0
ENDTAB
  0
ENDSEC
  0
SECTION
  2
BLOCKS
  0
BLOCK
  8
0
  2
RECT
 70
64
 10
0.0000
 20
0.0000
 30
0.0000
  3
RECT
  0
SOLID
  8
0
 10
-0.5000
 20
-0.5000
 30
0.0000
 11
0.5000
 21
-0.5000
 31
0.0000
 12
-0.5000
 22
0.5000
 32
0.0000
 13
0.5000
 23
0.5000
 33
0.0000
  0
ENDBLK
  8
0
  0
BLOCK
  8
0
  2
PIE
 70
64
 10
0.0000
 20
0.0000
 30
0.0000
  3
PIE
  0
CIRCLE
  8
0
 10
0.0000
 20
0.0000
 30
0.0000
 40
0.5000
  0
ENDBLK
  8
0
  0
ENDSEC
  0
SECTION
  2
ENTITIES
  0
TEXT
  7
ISOCP
  8
94
 10
238.7600
 20
213.3600
 30
0.0000
 40
3.8100
  1
STEPPER MOTOR
  0
TEXT
  7
ISOCP
  8
94
 10
309.8800
 20
195.5800
 30
0.0000
 40
1.7780
  1
BK
  0
TEXT
  7
ISOCP
  8
94
 10
281.9400
 20
157.4800
 30
0.0000
 40
1.7780
  1
BK OR/WH
  0
TEXT
  7
ISOCP
  8
94
 10
243.8400
 20
149.8600
 30
0.0000
 40
1.7780
  1
BK1
  0
TEXT
  7
ISOCP
  8
94
 10
243.8400
 20
172.7200
 30
0.0000
 40
1.7780
  1
BK
  0
TEXT
  7
ISOCP
  8
94
 10
243.8400
 20
144.7800
 30
0.0000
 40
1.7780
  1
BK2
  0
TEXT
  7
ISOCP
  8
94
 10
243.8400
 20
167.6400
 30
0.0000
 40
1.7780
  1
RD
  0
TEXT
  7
ISOCP
  8
94
 10
281.9400
 20
152.4000
 30
0.0000
 40
1.7780
  1
RD YL/WH
  0
TEXT
  7
ISOCP
  8
94
 10
309.8800
 20
190.5000
 30
0.0000
 40
1.7780
  1
RD
  0
TEXT
  7
ISOCP
  8
94
 10
281.9400
 20
154.9400
 30
0.0000
 40
1.7780
  1
OR BK/WH
  0
TEXT
  7
ISOCP
  8
94
 10
281.9400
 20
149.8600
 30
0.0000
 40
1.7780
  1
YL RD/WH
  0
TEXT
  7
ISOCP
  8
94
 10
243.8400
 20
165.1000
 30
0.0000
 40
1.7780
  1
GN
  0
TEXT
  7
ISOCP
  8
94
 10
309.8800
 20
187.9600
 30
0.0000
 40
1.7780
  1
GN
  0
TEXT
  7
ISOCP
  8
94
 10
243.8400
 20
170.1800
 30
0.0000
 40
1.7780
  1
WH
  0
TEXT
  7
ISOCP
  8
94
 10
309.8800
 20
193.0400
 30
0.0000
 40
1.7780
  1
WH
  0
TEXT
  7
ISOCP
  8
94
 10
243.8400
 20
152.4000
 30
0.0000
 40
1.7780
  1
RD1
  0
TEXT
  7
ISOCP
  8
94
 10
243.8400
 20
147.3200
 30
0.0000
 40
1.7780
  1
RD2
  0
TEXT
  7
ISOCP
  8
94
 10
231.1400
 20
165.1000
 30
0.0000
 40
2.5400
  1
ENOCDER CABLE
 50
90.0000
  0
TEXT
  7
ISOCP
  8
94
 10
228.6000
 20
154.9400
 30
0.0000
 40
2.5400
  1
STEPPER MOTOR CABLE
 50
90.0000
 72
2
 73
3
 11
228.6000
 21
154.9400
 31
0.0000
  0
TEXT
  7
ISOCP
  8
94
 10
236.2200
 20
165.1000
 30
0.0000
 40
2.5400
  1
see sheet 1
 50
90.0000
  0
TEXT
  7
ISOCP
  8
94
 10
233.6800
 20
154.9400
 30
0.0000
 40
2.5400
  1
see sheet 1
 50
90.0000
 72
2
 73
3
 11
233.6800
 21
154.9400
 31
0.0000
  0
TEXT
  7
ISOCP
  8
94
 10
248.9200
 20
114.3000
 30
0.0000
 40
2.5400
  1
Terminal block on end plate,
  0
TEXT
  7
ISOCP
  8
94
 10
248.9200
 20
110.4900
 30
0.0000
 40
2.5400
  1
424-100-036 in LW drive motor assembly
  0
TEXT
  7
ISOCP
  8
94
 10
248.9200
 20
100.3300
 30
0.0000
 40
2.5400
  1
through rubber grommet in end plate
  0
TEXT
  7
ISOCP
  8
94
 10
248.9200
 20
104.1400
 30
0.0000
 40
2.5400
  1
Route wires from motor and encoder
  0
TEXT
  7
ISOCP
  8
94
 10
40.6400
 20
198.1200
 30
0.0000
 40
1.9304
  1
REMOTE BOX 361-100-035
  0
TEXT
  7
ISOCP
  8
94
 10
38.1000
 20
203.2000
 30
0.0000
 40
3.8100
  1
REMOTE PENDANT
  0
TEXT
  7
ISOCP
  8
94
 10
5.0800
 20
175.2600
 30
0.0000
 40
1.9304
  1
TO MAIN BOX
 50
90.0000
 72
2
 73
3
 11
5.0800
 21
175.2600
 31
0.0000
  0
TEXT
  7
ISOCP
  8
94
 10
33.0200
 20
152.4000
 30
0.0000
 40
1.9304
  1
CABLE THROUGH GLAND
  0
TEXT
  7
ISOCP
  8
94
 10
185.4200
 20
139.7000
 30
0.0000
 40
1.7780
  1
Counter Reset
  0
TEXT
  7
ISOCP
  8
94
 10
33.0200
 20
149.8600
 30
0.0000
 40
1.9304
  1
FITTING WITH STRAIN RELIEF
  0
TEXT
  7
ISOCP
  8
94
 10
142.2400
 20
139.7000
 30
0.0000
 40
1.7780
  1
BK
 50
90.0000
  0
TEXT
  7
ISOCP
  8
94
 10
170.1800
 20
96.5200
 30
0.0000
 40
1.7780
  1
BK
  0
TEXT
  7
ISOCP
  8
94
 10
172.7200
 20
185.4200
 30
0.0000
 40
1.7780
  1
BK
  0
TEXT
  7
ISOCP
  8
94
 10
172.7200
 20
182.8800
 30
0.0000
 40
1.7780
  1
RD
  0
TEXT
  7
ISOCP
  8
94
 10
99.0600
 20
172.7200
 30
0.0000
 40
1.7780
  1
RD
  0
TEXT
  7
ISOCP
  8
94
 10
210.8200
 20
114.3000
 30
0.0000
 40
1.7780
  1
WH
  0
TEXT
  7
ISOCP
  8
94
 10
170.1800
 20
109.2200
 30
0.0000
 40
1.7780
  1
WH
  0
TEXT
  7
ISOCP
  8
94
 10
170.1800
 20
116.8400
 30
0.0000
 40
1.7780
  1
WH
  0
TEXT
  7
ISOCP
  8
94
 10
114.3000
 20
185.4200
 30
0.0000
 40
1.7780
  1
WH
 50
90.0000
  0
TEXT
  7
ISOCP
  8
94
 10
170.1800
 20
101.6000
 30
0.0000
 40
1.7780
  1
BL
  0
TEXT
  7
ISOCP
  8
94
 10
139.7000
 20
203.2000
 30
0.0000
 40
1.7780
  1
BN
  0
TEXT
  7
ISOCP
  8
94
 10
210.8200
 20
96.5200
 30
0.0000
 40
1.7780
  1
YL
  0
TEXT
  7
ISOCP
  8
94
 10
172.7200
 20
180.3400
 30
0.0000
 40
1.7780
  1
GN
  0
TEXT
  7
ISOCP
  8
94
 10
210.8200
 20
106.6800
 30
0.0000
 40
1.7780
  1
OR
  0
TEXT
  7
ISOCP
  8
94
 10
154.9400
 20
73.6600
 30
0.0000
 40
2.5400
  1
JOYSTICK
  0
TEXT
  7
ISOCP
  8
94
 10
154.9400
 20
69.8500
 30
0.0000
 40
2.5400
  1
A = forward; B = reverse
  0
TEXT
  7
ISOCP
  8
94
 10
154.9400
 20
66.0400
 30
0.0000
 40
2.5400
  1
A is S1 and B is S2
  0
TEXT
  7
ISOCP
  8
94
 10
25.4000
 20
180.3400
 30
0.0000
 40
1.9304
  1
SOOW 20/8, shld, 12'
  0
TEXT
  7
ISOCP
  8
94
 10
22.8600
 20
175.2600
 30
0.0000
 40
1.7780
  1
GN
  0
TEXT
  7
ISOCP
  8
94
 10
22.8600
 20
172.7200
 30
0.0000
 40
1.7780
  1
RD
  0
TEXT
  7
ISOCP
  8
94
 10
22.8600
 20
170.1800
 30
0.0000
 40
1.7780
  1
BK
  0
TEXT
  7
ISOCP
  8
94
 10
22.8600
 20
167.6400
 30
0.0000
 40
1.7780
  1
WT
  0
TEXT
  7
ISOCP
  8
94
 10
22.8600
 20
165.1000
 30
0.0000
 40
1.7780
  1
YL
  0
TEXT
  7
ISOCP
  8
94
 10
22.8600
 20
162.5600
 30
0.0000
 40
1.7780
  1
BL
  0
TEXT
  7
ISOCP
  8
94
 10
22.8600
 20
160.0200
 30
0.0000
 40
1.7780
  1
BN
  0
TEXT
  7
ISOCP
  8
94
 10
22.8600
 20
157.4800
 30
0.0000
 40
1.7780
  1
OR
  0
TEXT
  7
ISOCP
  8
94
 10
335.2800
 20
5.0800
 30
0.0000
 40
1.7780
  1
MJC
  0
TEXT
  7
ISOCP
  8
94
 10
337.8200
 20
10.1600
 30
0.0000
 40
1.7780
  1
JOYBOX WIRING DIAGRAM
  0
TEXT
  7
ISOCP
  8
94
 10
33.0200
 20
175.2600
 30
0.0000
 40
1.7780
  1
W14
  0
TEXT
  7
ISOCP
  8
94
 10
33.0200
 20
172.7200
 30
0.0000
 40
1.7780
  1
DC5
  0
TEXT
  7
ISOCP
  8
94
 10
33.0200
 20
170.1800
 30
0.0000
 40
1.7780
  1
GND5
  0
TEXT
  7
ISOCP
  8
94
 10
33.0200
 20
167.6400
 30
0.0000
 40
1.7780
  1
W13
  0
TEXT
  7
ISOCP
  8
94
 10
33.0200
 20
165.1000
 30
0.0000
 40
1.7780
  1
W10
  0
TEXT
  7
ISOCP
  8
94
 10
33.0200
 20
162.5600
 30
0.0000
 40
1.7780
  1
W15
  0
TEXT
  7
ISOCP
  8
94
 10
33.0200
 20
160.0200
 30
0.0000
 40
1.7780
  1
W11
  0
TEXT
  7
ISOCP
  8
94
 10
33.0200
 20
157.4800
 30
0.0000
 40
1.7780
  1
W12
  0
TEXT
  7
ISOCP
  8
94
 10
256.5400
 20
157.4800
 30
0.0000
 40
1.7780
  1
A+
  0
TEXT
  7
ISOCP
  8
94
 10
256.5400
 20
154.9400
 30
0.0000
 40
1.7780
  1
A-
  0
TEXT
  7
ISOCP
  8
94
 10
256.5400
 20
152.4000
 30
0.0000
 40
1.7780
  1
B+
  0
TEXT
  7
ISOCP
  8
94
 10
256.5400
 20
149.8600
 30
0.0000
 40
1.7780
  1
B-
  0
TEXT
  7
ISOCP
  8
94
 10
274.3200
 20
93.9800
 30
0.0000
 40
1.7780
  1
SURESTEP STP-DRV-80100 PARAMETERS
  0
TEXT
  7
ISOCP
  8
94
 10
276.8600
 20
88.9000
 30
0.0000
 40
1.7780
  1
PULSE & DIRECTION CONTROL
  0
TEXT
  7
ISOCP
  8
94
 10
276.8600
 20
86.3600
 30
0.0000
 40
1.7780
  1
Steps/Rev = 2200
  0
TEXT
  7
ISOCP
  8
94
 10
276.8600
 20
83.8200
 30
0.0000
 40
1.7780
  1
Step Smoothing Filter = 1000HZ
  0
TEXT
  7
ISOCP
  8
94
 10
276.8600
 20
81.2800
 30
0.0000
 40
1.7780
  1
Input Noise Filter = 1.875MHZ
  0
TEXT
  7
ISOCP
  8
94
 10
276.8600
 20
78.7400
 30
0.0000
 40
1.7780
  1
EN Input = NOT USED
  0
TEXT
  7
ISOCP
  8
94
 10
276.8600
 20
76.2000
 30
0.0000
 40
1.7780
  1
Output = NOT USED
  0
TEXT
  7
ISOCP
  8
94
 10
276.8600
 20
71.1200
 30
0.0000
 40
1.7780
  1
MOTOR   - Custom Motor Settings
  0
TEXT
  7
ISOCP
  8
94
 10
276.8600
 20
68.5800
 30
0.0000
 40
1.7780
  1
Maximum Current = 8.5amps
  0
TEXT
  7
ISOCP
  8
94
 10
276.8600
 20
66.0400
 30
0.0000
 40
1.7780
  1
Holding Torque = 2974 oz-in
  0
TEXT
  7
ISOCP
  8
94
 10
276.8600
 20
63.5000
 30
0.0000
 40
1.7780
  1
Rotor Inertia = 0.154 oz-in-sec^2
  0
TEXT
  7
ISOCP
  8
94
 10
276.8600
 20
60.9600
 30
0.0000
 40
1.7780
  1
Idle Current = 50%
  0
TEXT
  7
ISOCP
  8
94
 10
276.8600
 20
58.4200
 30
0.0000
 40
1.7780
  1
Idle Current Delay = 0.40secs
  0
TEXT
  7
ISOCP
  8
94
 10
276.8600
 20
55.8800
 30
0.0000
 40
1.7780
  1
Load Inertia = 4x rotor inertia
  0
TEXT
  7
ISOCP
  8
94
 10
276.8600
 20
50.8000
 30
0.0000
 40
1.7780
  1
ALL OTHER VALUES DEFAULT
  0
LINE
  8
94
 10
93.9800
 20
180.3400
 30
0.0000
 11
96.5200
 21
180.3400
 31
0.0000
  0
LINE
  8
94
 10
101.6000
 20
180.3400
 30
0.0000
 11
99.0600
 21
180.3400
 31
0.0000
  0
INSERT
  8
94
  2
RECT
 10
98.8060
 20
180.3400
 30
0.0000
 41
4.0640
 42
0.5080
 43
1.0000
 50
90.0000
  0
INSERT
  8
94
  2
RECT
 10
96.7740
 20
180.3400
 30
0.0000
 41
4.0640
 42
0.5080
 43
1.0000
 50
90.0000
  0
TEXT
  7
ISOCP
  8
95
 10
97.5360
 20
185.0390
 30
0.0000
 40
1.7780
  1
C1
 72
2
 73
3
 11
97.5360
 21
185.0390
 31
0.0000
  0
TEXT
  7
ISOCP
  8
96
 10
97.5360
 20
177.4190
 30
0.0000
 40
1.7780
  1
10
 72
2
 73
3
 11
97.5360
 21
177.4190
 31
0.0000
  0
LINE
  8
94
 10
0.0000
 20
0.0000
 30
0.0000
 11
50.8000
 21
0.0000
 31
0.0000
  0
LINE
  8
94
 10
50.8000
 20
0.0000
 30
0.0000
 11
98.4250
 21
0.0000
 31
0.0000
  0
LINE
  8
94
 10
98.4250
 20
0.0000
 30
0.0000
 11
146.0500
 21
0.0000
 31
0.0000
  0
LINE
  8
94
 10
146.0500
 20
0.0000
 30
0.0000
 11
193.6750
 21
0.0000
 31
0.0000
  0
LINE
  8
94
 10
193.6750
 20
0.0000
 30
0.0000
 11
241.3000
 21
0.0000
 31
0.0000
  0
LINE
  8
94
 10
241.3000
 20
0.0000
 30
0.0000
 11
288.9250
 21
0.0000
 31
0.0000
  0
LINE
  8
94
 10
288.9250
 20
0.0000
 30
0.0000
 11
336.5500
 21
0.0000
 31
0.0000
  0
LINE
  8
94
 10
336.5500
 20
0.0000
 30
0.0000
 11
387.3500
 21
0.0000
 31
0.0000
  0
LINE
  8
94
 10
387.3500
 20
0.0000
 30
0.0000
 11
387.3500
 21
53.9750
 31
0.0000
  0
LINE
  8
94
 10
387.3500
 20
53.9750
 30
0.0000
 11
387.3500
 21
104.7750
 31
0.0000
  0
LINE
  8
94
 10
387.3500
 20
104.7750
 30
0.0000
 11
387.3500
 21
155.5750
 31
0.0000
  0
LINE
  8
94
 10
387.3500
 20
155.5750
 30
0.0000
 11
387.3500
 21
206.3750
 31
0.0000
  0
LINE
  8
94
 10
387.3500
 20
206.3750
 30
0.0000
 11
387.3500
 21
260.3500
 31
0.0000
  0
LINE
  8
94
 10
146.0500
 20
260.3500
 30
0.0000
 11
98.4250
 21
260.3500
 31
0.0000
  0
LINE
  8
94
 10
98.4250
 20
260.3500
 30
0.0000
 11
50.8000
 21
260.3500
 31
0.0000
  0
LINE
  8
94
 10
50.8000
 20
260.3500
 30
0.0000
 11
0.0000
 21
260.3500
 31
0.0000
  0
LINE
  8
94
 10
0.0000
 20
260.3500
 30
0.0000
 11
0.0000
 21
206.3750
 31
0.0000
  0
LINE
  8
94
 10
0.0000
 20
206.3750
 30
0.0000
 11
0.0000
 21
155.5750
 31
0.0000
  0
LINE
  8
94
 10
0.0000
 20
155.5750
 30
0.0000
 11
0.0000
 21
104.7750
 31
0.0000
  0
LINE
  8
94
 10
0.0000
 20
104.7750
 30
0.0000
 11
0.0000
 21
53.9750
 31
0.0000
  0
LINE
  8
94
 10
0.0000
 20
53.9750
 30
0.0000
 11
0.0000
 21
0.0000
 31
0.0000
  0
LINE
  8
94
 10
3.1750
 20
3.1750
 30
0.0000
 11
50.8000
 21
3.1750
 31
0.0000
  0
LINE
  8
94
 10
50.8000
 20
3.1750
 30
0.0000
 11
98.4250
 21
3.1750
 31
0.0000
  0
LINE
  8
94
 10
98.4250
 20
3.1750
 30
0.0000
 11
146.0500
 21
3.1750
 31
0.0000
  0
LINE
  8
94
 10
146.0500
 20
3.1750
 30
0.0000
 11
193.6750
 21
3.1750
 31
0.0000
  0
LINE
  8
94
 10
193.6750
 20
3.1750
 30
0.0000
 11
241.3000
 21
3.1750
 31
0.0000
  0
LINE
  8
94
 10
241.3000
 20
3.1750
 30
0.0000
 11
288.9250
 21
3.1750
 31
0.0000
  0
LINE
  8
94
 10
288.9250
 20
3.1750
 30
0.0000
 11
307.3400
 21
3.1750
 31
0.0000
  0
LINE
  8
94
 10
336.5500
 20
3.1750
 30
0.0000
 11
307.3400
 21
3.1750
 31
0.0000
  0
LINE
  8
94
 10
307.3400
 20
3.1750
 30
0.0000
 11
366.3950
 21
3.1750
 31
0.0000
  0
LINE
  8
94
 10
366.3950
 20
3.1750
 30
0.0000
 11
384.1750
 21
3.1750
 31
0.0000
  0
LINE
  8
94
 10
384.1750
 20
3.1750
 30
0.0000
 11
384.1750
 21
8.2550
 31
0.0000
  0
LINE
  8
94
 10
384.1750
 20
8.2550
 30
0.0000
 11
384.1750
 21
13.3350
 31
0.0000
  0
LINE
  8
94
 10
384.1750
 20
13.3350
 30
0.0000
 11
384.1750
 21
18.4150
 31
0.0000
  0
LINE
  8
94
 10
384.1750
 20
18.4150
 30
0.0000
 11
384.1750
 21
23.4950
 31
0.0000
  0
LINE
  8
94
 10
384.1750
 20
23.4950
 30
0.0000
 11
384.1750
 21
53.9750
 31
0.0000
  0
LINE
  8
94
 10
384.1750
 20
53.9750
 30
0.0000
 11
384.1750
 21
104.7750
 31
0.0000
  0
LINE
  8
94
 10
384.1750
 20
104.7750
 30
0.0000
 11
384.1750
 21
155.5750
 31
0.0000
  0
LINE
  8
94
 10
384.1750
 20
155.5750
 30
0.0000
 11
384.1750
 21
206.3750
 31
0.0000
  0
LINE
  8
94
 10
384.1750
 20
206.3750
 30
0.0000
 11
384.1750
 21
257.1750
 31
0.0000
  0
LINE
  8
94
 10
384.1750
 20
257.1750
 30
0.0000
 11
336.5500
 21
257.1750
 31
0.0000
  0
LINE
  8
94
 10
336.5500
 20
257.1750
 30
0.0000
 11
288.9250
 21
257.1750
 31
0.0000
  0
LINE
  8
94
 10
288.9250
 20
257.1750
 30
0.0000
 11
241.3000
 21
257.1750
 31
0.0000
  0
LINE
  8
94
 10
241.3000
 20
257.1750
 30
0.0000
 11
193.6750
 21
257.1750
 31
0.0000
  0
LINE
  8
94
 10
193.6750
 20
257.1750
 30
0.0000
 11
146.0500
 21
257.1750
 31
0.0000
  0
LINE
  8
94
 10
146.0500
 20
257.1750
 30
0.0000
 11
98.4250
 21
257.1750
 31
0.0000
  0
LINE
  8
94
 10
98.4250
 20
257.1750
 30
0.0000
 11
50.8000
 21
257.1750
 31
0.0000
  0
LINE
  8
94
 10
50.8000
 20
257.1750
 30
0.0000
 11
3.1750
 21
257.1750
 31
0.0000
  0
LINE
  8
94
 10
3.1750
 20
257.1750
 30
0.0000
 11
3.1750
 21
206.3750
 31
0.0000
  0
LINE
  8
94
 10
3.1750
 20
206.3750
 30
0.0000
 11
3.1750
 21
155.5750
 31
0.0000
  0
LINE
  8
94
 10
3.1750
 20
155.5750
 30
0.0000
 11
3.1750
 21
104.7750
 31
0.0000
  0
LINE
  8
94
 10
3.1750
 20
104.7750
 30
0.0000
 11
3.1750
 21
53.9750
 31
0.0000
  0
LINE
  8
94
 10
3.1750
 20
53.9750
 30
0.0000
 11
3.1750
 21
3.1750
 31
0.0000
  0
LINE
  8
94
 10
387.3500
 20
260.3500
 30
0.0000
 11
336.5500
 21
260.3500
 31
0.0000
  0
LINE
  8
94
 10
336.5500
 20
260.3500
 30
0.0000
 11
288.9250
 21
260.3500
 31
0.0000
  0
LINE
  8
94
 10
288.9250
 20
260.3500
 30
0.0000
 11
241.3000
 21
260.3500
 31
0.0000
  0
LINE
  8
94
 10
241.3000
 20
260.3500
 30
0.0000
 11
193.6750
 21
260.3500
 31
0.0000
  0
LINE
  8
94
 10
193.6750
 20
260.3500
 30
0.0000
 11
146.0500
 21
260.3500
 31
0.0000
  0
LINE
  8
94
 10
193.6750
 20
260.3500
 30
0.0000
 11
193.6750
 21
257.1750
 31
0.0000
  0
LINE
  8
94
 10
193.6750
 20
3.1750
 30
0.0000
 11
193.6750
 21
0.0000
 31
0.0000
  0
LINE
  8
94
 10
0.0000
 20
104.7750
 30
0.0000
 11
3.1750
 21
104.7750
 31
0.0000
  0
LINE
  8
94
 10
384.1750
 20
155.5750
 30
0.0000
 11
387.3500
 21
155.5750
 31
0.0000
  0
LINE
  8
94
 10
98.4250
 20
257.1750
 30
0.0000
 11
98.4250
 21
260.3500
 31
0.0000
  0
LINE
  8
94
 10
98.4250
 20
3.1750
 30
0.0000
 11
98.4250
 21
0.0000
 31
0.0000
  0
LINE
  8
94
 10
288.9250
 20
260.3500
 30
0.0000
 11
288.9250
 21
257.1750
 31
0.0000
  0
LINE
  8
94
 10
288.9250
 20
3.1750
 30
0.0000
 11
288.9250
 21
0.0000
 31
0.0000
  0
LINE
  8
94
 10
0.0000
 20
53.9750
 30
0.0000
 11
3.1750
 21
53.9750
 31
0.0000
  0
LINE
  8
94
 10
384.1750
 20
104.7750
 30
0.0000
 11
387.3500
 21
104.7750
 31
0.0000
  0
LINE
  8
94
 10
0.0000
 20
155.5750
 30
0.0000
 11
3.1750
 21
155.5750
 31
0.0000
  0
LINE
  8
94
 10
384.1750
 20
206.3750
 30
0.0000
 11
387.3500
 21
206.3750
 31
0.0000
  0
LINE
  8
94
 10
50.8000
 20
257.1750
 30
0.0000
 11
50.8000
 21
260.3500
 31
0.0000
  0
LINE
  8
94
 10
0.0000
 20
206.3750
 30
0.0000
 11
3.1750
 21
206.3750
 31
0.0000
  0
LINE
  8
94
 10
384.1750
 20
53.9750
 30
0.0000
 11
387.3500
 21
53.9750
 31
0.0000
  0
LINE
  8
94
 10
146.0500
 20
257.1750
 30
0.0000
 11
146.0500
 21
260.3500
 31
0.0000
  0
LINE
  8
94
 10
241.3000
 20
260.3500
 30
0.0000
 11
241.3000
 21
257.1750
 31
0.0000
  0
LINE
  8
94
 10
336.5500
 20
260.3500
 30
0.0000
 11
336.5500
 21
257.1750
 31
0.0000
  0
LINE
  8
94
 10
336.5500
 20
3.1750
 30
0.0000
 11
336.5500
 21
0.0000
 31
0.0000
  0
LINE
  8
94
 10
241.3000
 20
3.1750
 30
0.0000
 11
241.3000
 21
0.0000
 31
0.0000
  0
LINE
  8
94
 10
146.0500
 20
3.1750
 30
0.0000
 11
146.0500
 21
0.0000
 31
0.0000
  0
LINE
  8
94
 10
50.8000
 20
0.0000
 30
0.0000
 11
50.8000
 21
3.1750
 31
0.0000
  0
LINE
  8
94
 10
288.9250
 20
3.1750
 30
0.0000
 11
288.9250
 21
23.4950
 31
0.0000
  0
LINE
  8
94
 10
288.9250
 20
23.4950
 30
0.0000
 11
307.3400
 21
23.4950
 31
0.0000
  0
LINE
  8
94
 10
307.3400
 20
23.4950
 30
0.0000
 11
384.1750
 21
23.4950
 31
0.0000
  0
LINE
  8
94
 10
366.3950
 20
3.1750
 30
0.0000
 11
366.3950
 21
8.2550
 31
0.0000
  0
LINE
  8
94
 10
366.3950
 20
8.2550
 30
0.0000
 11
384.1750
 21
8.2550
 31
0.0000
  0
LINE
  8
94
 10
366.3950
 20
8.2550
 30
0.0000
 11
307.3400
 21
8.2550
 31
0.0000
  0
LINE
  8
94
 10
307.3400
 20
8.2550
 30
0.0000
 11
307.3400
 21
3.1750
 31
0.0000
  0
LINE
  8
94
 10
307.3400
 20
8.2550
 30
0.0000
 11
307.3400
 21
13.3350
 31
0.0000
  0
LINE
  8
94
 10
307.3400
 20
13.3350
 30
0.0000
 11
384.1750
 21
13.3350
 31
0.0000
  0
LINE
  8
94
 10
307.3400
 20
13.3350
 30
0.0000
 11
307.3400
 21
18.4150
 31
0.0000
  0
LINE
  8
94
 10
307.3400
 20
18.4150
 30
0.0000
 11
384.1750
 21
18.4150
 31
0.0000
  0
LINE
  8
94
 10
307.3400
 20
18.4150
 30
0.0000
 11
307.3400
 21
23.4950
 31
0.0000
  0
LINE
  8
94
 10
24.4856
 20
0.3556
 30
0.0000
 11
24.4856
 21
1.9148
 31
0.0000
  0
LINE
  8
94
 10
24.4856
 20
1.9148
 30
0.0000
 11
25.2652
 21
2.6944
 31
0.0000
  0
LINE
  8
94
 10
25.2652
 20
2.6944
 30
0.0000
 11
26.0448
 21
1.9148
 31
0.0000
  0
LINE
  8
94
 10
26.0448
 20
1.9148
 30
0.0000
 11
26.0448
 21
0.3556
 31
0.0000
  0
LINE
  8
94
 10
24.4856
 20
1.5250
 30
0.0000
 11
26.0448
 21
1.5250
 31
0.0000
  0
LINE
  8
94
 10
74.5236
 20
0.3556
 30
0.0000
 11
74.5236
 21
2.6944
 31
0.0000
  0
LINE
  8
94
 10
74.5236
 20
2.6944
 30
0.0000
 11
75.6930
 21
2.6944
 31
0.0000
  0
LINE
  8
94
 10
75.6930
 20
2.6944
 30
0.0000
 11
76.0828
 21
2.3046
 31
0.0000
  0
LINE
  8
94
 10
76.0828
 20
2.3046
 30
0.0000
 11
76.0828
 21
1.9148
 31
0.0000
  0
LINE
  8
94
 10
76.0828
 20
1.9148
 30
0.0000
 11
75.6930
 21
1.5250
 31
0.0000
  0
LINE
  8
94
 10
75.6930
 20
1.5250
 30
0.0000
 11
76.0828
 21
1.1352
 31
0.0000
  0
LINE
  8
94
 10
76.0828
 20
1.1352
 30
0.0000
 11
76.0828
 21
0.7454
 31
0.0000
  0
LINE
  8
94
 10
76.0828
 20
0.7454
 30
0.0000
 11
75.6930
 21
0.3556
 31
0.0000
  0
LINE
  8
94
 10
75.6930
 20
0.3556
 30
0.0000
 11
74.5236
 21
0.3556
 31
0.0000
  0
LINE
  8
94
 10
74.5236
 20
1.5250
 30
0.0000
 11
75.6930
 21
1.5250
 31
0.0000
  0
LINE
  8
94
 10
122.8188
 20
2.3046
 30
0.0000
 11
122.4290
 21
2.6944
 31
0.0000
  0
LINE
  8
94
 10
122.4290
 20
2.6944
 30
0.0000
 11
121.6494
 21
2.6944
 31
0.0000
  0
LINE
  8
94
 10
121.6494
 20
2.6944
 30
0.0000
 11
121.2596
 21
2.3046
 31
0.0000
  0
LINE
  8
94
 10
121.2596
 20
2.3046
 30
0.0000
 11
121.2596
 21
0.7454
 31
0.0000
  0
LINE
  8
94
 10
121.2596
 20
0.7454
 30
0.0000
 11
121.6494
 21
0.3556
 31
0.0000
  0
LINE
  8
94
 10
121.6494
 20
0.3556
 30
0.0000
 11
122.4290
 21
0.3556
 31
0.0000
  0
LINE
  8
94
 10
122.4290
 20
0.3556
 30
0.0000
 11
122.8188
 21
0.7454
 31
0.0000
  0
LINE
  8
94
 10
169.5196
 20
2.6944
 30
0.0000
 11
169.5196
 21
0.3556
 31
0.0000
  0
LINE
  8
94
 10
169.5196
 20
0.3556
 30
0.0000
 11
170.6890
 21
0.3556
 31
0.0000
  0
LINE
  8
94
 10
170.6890
 20
0.3556
 30
0.0000
 11
171.0788
 21
0.7454
 31
0.0000
  0
LINE
  8
94
 10
171.0788
 20
0.7454
 30
0.0000
 11
171.0788
 21
2.3046
 31
0.0000
  0
LINE
  8
94
 10
171.0788
 20
2.3046
 30
0.0000
 11
170.6890
 21
2.6944
 31
0.0000
  0
LINE
  8
94
 10
170.6890
 20
2.6944
 30
0.0000
 11
169.5196
 21
2.6944
 31
0.0000
  0
LINE
  8
94
 10
218.5768
 20
2.6944
 30
0.0000
 11
217.0176
 21
2.6944
 31
0.0000
  0
LINE
  8
94
 10
217.0176
 20
2.6944
 30
0.0000
 11
217.0176
 21
0.3556
 31
0.0000
  0
LINE
  8
94
 10
217.0176
 20
0.3556
 30
0.0000
 11
218.5768
 21
0.3556
 31
0.0000
  0
LINE
  8
94
 10
217.0176
 20
1.5250
 30
0.0000
 11
217.7972
 21
1.5250
 31
0.0000
  0
LINE
  8
94
 10
263.7536
 20
0.3556
 30
0.0000
 11
263.7536
 21
2.6944
 31
0.0000
  0
LINE
  8
94
 10
263.7536
 20
2.6944
 30
0.0000
 11
265.3128
 21
2.6944
 31
0.0000
  0
LINE
  8
94
 10
263.7536
 20
1.5250
 30
0.0000
 11
264.5332
 21
1.5250
 31
0.0000
  0
LINE
  8
94
 10
312.3028
 20
2.3046
 30
0.0000
 11
311.9130
 21
2.6944
 31
0.0000
  0
LINE
  8
94
 10
311.9130
 20
2.6944
 30
0.0000
 11
311.1334
 21
2.6944
 31
0.0000
  0
LINE
  8
94
 10
311.1334
 20
2.6944
 30
0.0000
 11
310.7436
 21
2.3046
 31
0.0000
  0
LINE
  8
94
 10
310.7436
 20
2.3046
 30
0.0000
 11
310.7436
 21
0.7454
 31
0.0000
  0
LINE
  8
94
 10
310.7436
 20
0.7454
 30
0.0000
 11
311.1334
 21
0.3556
 31
0.0000
  0
LINE
  8
94
 10
311.1334
 20
0.3556
 30
0.0000
 11
311.9130
 21
0.3556
 31
0.0000
  0
LINE
  8
94
 10
311.9130
 20
0.3556
 30
0.0000
 11
312.3028
 21
0.7454
 31
0.0000
  0
LINE
  8
94
 10
312.3028
 20
0.7454
 30
0.0000
 11
312.3028
 21
1.5250
 31
0.0000
  0
LINE
  8
94
 10
312.3028
 20
1.5250
 30
0.0000
 11
311.5232
 21
1.5250
 31
0.0000
  0
LINE
  8
94
 10
361.0356
 20
0.3556
 30
0.0000
 11
361.0356
 21
2.6944
 31
0.0000
  0
LINE
  8
94
 10
361.0356
 20
1.5250
 30
0.0000
 11
362.5948
 21
1.5250
 31
0.0000
  0
LINE
  8
94
 10
362.5948
 20
2.6944
 30
0.0000
 11
362.5948
 21
0.3556
 31
0.0000
  0
LINE
  8
94
 10
385.1656
 20
30.3628
 30
0.0000
 11
385.9452
 21
31.1424
 31
0.0000
  0
LINE
  8
94
 10
385.9452
 20
31.1424
 30
0.0000
 11
385.9452
 21
28.8036
 31
0.0000
  0
LINE
  8
94
 10
385.1656
 20
28.8036
 30
0.0000
 11
386.7248
 21
28.8036
 31
0.0000
  0
LINE
  8
94
 10
386.4708
 20
79.6036
 30
0.0000
 11
384.9116
 21
79.6036
 31
0.0000
  0
LINE
  8
94
 10
384.9116
 20
79.6036
 30
0.0000
 11
386.4708
 21
81.1628
 31
0.0000
  0
LINE
  8
94
 10
386.4708
 20
81.1628
 30
0.0000
 11
386.4708
 21
81.5526
 31
0.0000
  0
LINE
  8
94
 10
386.4708
 20
81.5526
 30
0.0000
 11
386.0810
 21
81.9424
 31
0.0000
  0
LINE
  8
94
 10
386.0810
 20
81.9424
 30
0.0000
 11
385.3014
 21
81.9424
 31
0.0000
  0
LINE
  8
94
 10
385.3014
 20
81.9424
 30
0.0000
 11
384.9116
 21
81.5526
 31
0.0000
  0
LINE
  8
94
 10
384.9116
 20
132.3526
 30
0.0000
 11
385.3014
 21
132.7424
 31
0.0000
  0
LINE
  8
94
 10
385.3014
 20
132.7424
 30
0.0000
 11
386.0810
 21
132.7424
 31
0.0000
  0
LINE
  8
94
 10
386.0810
 20
132.7424
 30
0.0000
 11
386.4708
 21
132.3526
 31
0.0000
  0
LINE
  8
94
 10
386.4708
 20
132.3526
 30
0.0000
 11
386.4708
 21
131.9628
 31
0.0000
  0
LINE
  8
94
 10
386.4708
 20
131.9628
 30
0.0000
 11
386.0810
 21
131.5730
 31
0.0000
  0
LINE
  8
94
 10
386.0810
 20
131.5730
 30
0.0000
 11
385.6912
 21
131.5730
 31
0.0000
  0
LINE
  8
94
 10
386.0810
 20
131.5730
 30
0.0000
 11
386.4708
 21
131.1832
 31
0.0000
  0
LINE
  8
94
 10
386.4708
 20
131.1832
 30
0.0000
 11
386.4708
 21
130.7934
 31
0.0000
  0
LINE
  8
94
 10
386.4708
 20
130.7934
 30
0.0000
 11
386.0810
 21
130.4036
 31
0.0000
  0
LINE
  8
94
 10
386.0810
 20
130.4036
 30
0.0000
 11
385.3014
 21
130.4036
 31
0.0000
  0
LINE
  8
94
 10
385.3014
 20
130.4036
 30
0.0000
 11
384.9116
 21
130.7934
 31
0.0000
  0
LINE
  8
94
 10
386.0810
 20
181.9656
 30
0.0000
 11
386.0810
 21
184.3044
 31
0.0000
  0
LINE
  8
94
 10
386.0810
 20
184.3044
 30
0.0000
 11
384.9116
 21
183.1350
 31
0.0000
  0
LINE
  8
94
 10
384.9116
 20
183.1350
 30
0.0000
 11
386.4708
 21
183.1350
 31
0.0000
  0
LINE
  8
94
 10
386.4708
 20
233.5804
 30
0.0000
 11
384.9116
 21
233.5804
 31
0.0000
  0
LINE
  8
94
 10
384.9116
 20
233.5804
 30
0.0000
 11
384.9116
 21
232.4110
 31
0.0000
  0
LINE
  8
94
 10
384.9116
 20
232.4110
 30
0.0000
 11
385.6912
 21
232.8008
 31
0.0000
  0
LINE
  8
94
 10
385.6912
 20
232.8008
 30
0.0000
 11
386.0810
 21
232.8008
 31
0.0000
  0
LINE
  8
94
 10
386.0810
 20
232.8008
 30
0.0000
 11
386.4708
 21
232.4110
 31
0.0000
  0
LINE
  8
94
 10
386.4708
 20
232.4110
 30
0.0000
 11
386.4708
 21
231.6314
 31
0.0000
  0
LINE
  8
94
 10
386.4708
 20
231.6314
 30
0.0000
 11
386.0810
 21
231.2416
 31
0.0000
  0
LINE
  8
94
 10
386.0810
 20
231.2416
 30
0.0000
 11
385.3014
 21
231.2416
 31
0.0000
  0
LINE
  8
94
 10
385.3014
 20
231.2416
 30
0.0000
 11
384.9116
 21
231.6314
 31
0.0000
  0
LINE
  8
94
 10
361.2896
 20
257.6576
 30
0.0000
 11
361.2896
 21
259.9964
 31
0.0000
  0
LINE
  8
94
 10
361.2896
 20
258.8270
 30
0.0000
 11
362.8488
 21
258.8270
 31
0.0000
  0
LINE
  8
94
 10
362.8488
 20
259.9964
 30
0.0000
 11
362.8488
 21
257.6576
 31
0.0000
  0
LINE
  8
94
 10
313.0648
 20
259.6066
 30
0.0000
 11
312.6750
 21
259.9964
 31
0.0000
  0
LINE
  8
94
 10
312.6750
 20
259.9964
 30
0.0000
 11
311.8954
 21
259.9964
 31
0.0000
  0
LINE
  8
94
 10
311.8954
 20
259.9964
 30
0.0000
 11
311.5056
 21
259.6066
 31
0.0000
  0
LINE
  8
94
 10
311.5056
 20
259.6066
 30
0.0000
 11
311.5056
 21
258.0474
 31
0.0000
  0
LINE
  8
94
 10
311.5056
 20
258.0474
 30
0.0000
 11
311.8954
 21
257.6576
 31
0.0000
  0
LINE
  8
94
 10
311.8954
 20
257.6576
 30
0.0000
 11
312.6750
 21
257.6576
 31
0.0000
  0
LINE
  8
94
 10
312.6750
 20
257.6576
 30
0.0000
 11
313.0648
 21
258.0474
 31
0.0000
  0
LINE
  8
94
 10
313.0648
 20
258.0474
 30
0.0000
 11
313.0648
 21
258.8270
 31
0.0000
  0
LINE
  8
94
 10
313.0648
 20
258.8270
 30
0.0000
 11
312.2852
 21
258.8270
 31
0.0000
  0
LINE
  8
94
 10
262.9916
 20
257.6576
 30
0.0000
 11
262.9916
 21
259.9964
 31
0.0000
  0
LINE
  8
94
 10
262.9916
 20
259.9964
 30
0.0000
 11
264.5508
 21
259.9964
 31
0.0000
  0
LINE
  8
94
 10
262.9916
 20
258.8270
 30
0.0000
 11
263.7712
 21
258.8270
 31
0.0000
  0
LINE
  8
94
 10
217.5608
 20
259.9964
 30
0.0000
 11
216.0016
 21
259.9964
 31
0.0000
  0
LINE
  8
94
 10
216.0016
 20
259.9964
 30
0.0000
 11
216.0016
 21
257.6576
 31
0.0000
  0
LINE
  8
94
 10
216.0016
 20
257.6576
 30
0.0000
 11
217.5608
 21
257.6576
 31
0.0000
  0
LINE
  8
94
 10
216.0016
 20
258.8270
 30
0.0000
 11
216.7812
 21
258.8270
 31
0.0000
  0
LINE
  8
94
 10
168.2496
 20
259.9964
 30
0.0000
 11
168.2496
 21
257.6576
 31
0.0000
  0
LINE
  8
94
 10
168.2496
 20
257.6576
 30
0.0000
 11
169.4190
 21
257.6576
 31
0.0000
  0
LINE
  8
94
 10
169.4190
 20
257.6576
 30
0.0000
 11
169.8088
 21
258.0474
 31
0.0000
  0
LINE
  8
94
 10
169.8088
 20
258.0474
 30
0.0000
 11
169.8088
 21
259.6066
 31
0.0000
  0
LINE
  8
94
 10
169.8088
 20
259.6066
 30
0.0000
 11
169.4190
 21
259.9964
 31
0.0000
  0
LINE
  8
94
 10
169.4190
 20
259.9964
 30
0.0000
 11
168.2496
 21
259.9964
 31
0.0000
  0
LINE
  8
94
 10
122.5648
 20
259.6066
 30
0.0000
 11
122.1750
 21
259.9964
 31
0.0000
  0
LINE
  8
94
 10
122.1750
 20
259.9964
 30
0.0000
 11
121.3954
 21
259.9964
 31
0.0000
  0
LINE
  8
94
 10
121.3954
 20
259.9964
 30
0.0000
 11
121.0056
 21
259.6066
 31
0.0000
  0
LINE
  8
94
 10
121.0056
 20
259.6066
 30
0.0000
 11
121.0056
 21
258.0474
 31
0.0000
  0
LINE
  8
94
 10
121.0056
 20
258.0474
 30
0.0000
 11
121.3954
 21
257.6576
 31
0.0000
  0
LINE
  8
94
 10
121.3954
 20
257.6576
 30
0.0000
 11
122.1750
 21
257.6576
 31
0.0000
  0
LINE
  8
94
 10
122.1750
 20
257.6576
 30
0.0000
 11
122.5648
 21
258.0474
 31
0.0000
  0
LINE
  8
94
 10
72.9996
 20
257.6576
 30
0.0000
 11
72.9996
 21
259.9964
 31
0.0000
  0
LINE
  8
94
 10
72.9996
 20
259.9964
 30
0.0000
 11
74.1690
 21
259.9964
 31
0.0000
  0
LINE
  8
94
 10
74.1690
 20
259.9964
 30
0.0000
 11
74.5588
 21
259.6066
 31
0.0000
  0
LINE
  8
94
 10
74.5588
 20
259.6066
 30
0.0000
 11
74.5588
 21
259.2168
 31
0.0000
  0
LINE
  8
94
 10
74.5588
 20
259.2168
 30
0.0000
 11
74.1690
 21
258.8270
 31
0.0000
  0
LINE
  8
94
 10
74.1690
 20
258.8270
 30
0.0000
 11
74.5588
 21
258.4372
 31
0.0000
  0
LINE
  8
94
 10
74.5588
 20
258.4372
 30
0.0000
 11
74.5588
 21
258.0474
 31
0.0000
  0
LINE
  8
94
 10
74.5588
 20
258.0474
 30
0.0000
 11
74.1690
 21
257.6576
 31
0.0000
  0
LINE
  8
94
 10
74.1690
 20
257.6576
 30
0.0000
 11
72.9996
 21
257.6576
 31
0.0000
  0
LINE
  8
94
 10
72.9996
 20
258.8270
 30
0.0000
 11
74.1690
 21
258.8270
 31
0.0000
  0
LINE
  8
94
 10
24.4856
 20
257.6576
 30
0.0000
 11
24.4856
 21
259.2168
 31
0.0000
  0
LINE
  8
94
 10
24.4856
 20
259.2168
 30
0.0000
 11
25.2652
 21
259.9964
 31
0.0000
  0
LINE
  8
94
 10
25.2652
 20
259.9964
 30
0.0000
 11
26.0448
 21
259.2168
 31
0.0000
  0
LINE
  8
94
 10
26.0448
 20
259.2168
 30
0.0000
 11
26.0448
 21
257.6576
 31
0.0000
  0
LINE
  8
94
 10
24.4856
 20
258.8270
 30
0.0000
 11
26.0448
 21
258.8270
 31
0.0000
  0
LINE
  8
94
 10
2.4228
 20
233.5804
 30
0.0000
 11
0.8636
 21
233.5804
 31
0.0000
  0
LINE
  8
94
 10
0.8636
 20
233.5804
 30
0.0000
 11
0.8636
 21
232.4110
 31
0.0000
  0
LINE
  8
94
 10
0.8636
 20
232.4110
 30
0.0000
 11
1.6432
 21
232.8008
 31
0.0000
  0
LINE
  8
94
 10
1.6432
 20
232.8008
 30
0.0000
 11
2.0330
 21
232.8008
 31
0.0000
  0
LINE
  8
94
 10
2.0330
 20
232.8008
 30
0.0000
 11
2.4228
 21
232.4110
 31
0.0000
  0
LINE
  8
94
 10
2.4228
 20
232.4110
 30
0.0000
 11
2.4228
 21
231.6314
 31
0.0000
  0
LINE
  8
94
 10
2.4228
 20
231.6314
 30
0.0000
 11
2.0330
 21
231.2416
 31
0.0000
  0
LINE
  8
94
 10
2.0330
 20
231.2416
 30
0.0000
 11
1.2534
 21
231.2416
 31
0.0000
  0
LINE
  8
94
 10
1.2534
 20
231.2416
 30
0.0000
 11
0.8636
 21
231.6314
 31
0.0000
  0
LINE
  8
94
 10
2.0330
 20
181.7116
 30
0.0000
 11
2.0330
 21
184.0504
 31
0.0000
  0
LINE
  8
94
 10
2.0330
 20
184.0504
 30
0.0000
 11
0.8636
 21
182.8810
 31
0.0000
  0
LINE
  8
94
 10
0.8636
 20
182.8810
 30
0.0000
 11
2.4228
 21
182.8810
 31
0.0000
  0
LINE
  8
94
 10
0.8636
 20
132.3526
 30
0.0000
 11
1.2534
 21
132.7424
 31
0.0000
  0
LINE
  8
94
 10
1.2534
 20
132.7424
 30
0.0000
 11
2.0330
 21
132.7424
 31
0.0000
  0
LINE
  8
94
 10
2.0330
 20
132.7424
 30
0.0000
 11
2.4228
 21
132.3526
 31
0.0000
  0
LINE
  8
94
 10
2.4228
 20
132.3526
 30
0.0000
 11
2.4228
 21
131.9628
 31
0.0000
  0
LINE
  8
94
 10
2.4228
 20
131.9628
 30
0.0000
 11
2.0330
 21
131.5730
 31
0.0000
  0
LINE
  8
94
 10
2.0330
 20
131.5730
 30
0.0000
 11
1.6432
 21
131.5730
 31
0.0000
  0
LINE
  8
94
 10
2.0330
 20
131.5730
 30
0.0000
 11
2.4228
 21
131.1832
 31
0.0000
  0
LINE
  8
94
 10
2.4228
 20
131.1832
 30
0.0000
 11
2.4228
 21
130.7934
 31
0.0000
  0
LINE
  8
94
 10
2.4228
 20
130.7934
 30
0.0000
 11
2.0330
 21
130.4036
 31
0.0000
  0
LINE
  8
94
 10
2.0330
 20
130.4036
 30
0.0000
 11
1.2534
 21
130.4036
 31
0.0000
  0
LINE
  8
94
 10
1.2534
 20
130.4036
 30
0.0000
 11
0.8636
 21
130.7934
 31
0.0000
  0
LINE
  8
94
 10
2.4228
 20
79.3496
 30
0.0000
 11
0.8636
 21
79.3496
 31
0.0000
  0
LINE
  8
94
 10
0.8636
 20
79.3496
 30
0.0000
 11
2.4228
 21
80.9088
 31
0.0000
  0
LINE
  8
94
 10
2.4228
 20
80.9088
 30
0.0000
 11
2.4228
 21
81.2986
 31
0.0000
  0
LINE
  8
94
 10
2.4228
 20
81.2986
 30
0.0000
 11
2.0330
 21
81.6884
 31
0.0000
  0
LINE
  8
94
 10
2.0330
 20
81.6884
 30
0.0000
 11
1.2534
 21
81.6884
 31
0.0000
  0
LINE
  8
94
 10
1.2534
 20
81.6884
 30
0.0000
 11
0.8636
 21
81.2986
 31
0.0000
  0
LINE
  8
94
 10
1.1176
 20
28.3308
 30
0.0000
 11
1.8972
 21
29.1104
 31
0.0000
  0
LINE
  8
94
 10
1.8972
 20
29.1104
 30
0.0000
 11
1.8972
 21
26.7716
 31
0.0000
  0
LINE
  8
94
 10
1.1176
 20
26.7716
 30
0.0000
 11
2.6768
 21
26.7716
 31
0.0000
  0
LINE
  8
94
 10
319.2526
 20
21.0918
 30
0.0000
 11
320.0322
 21
21.8714
 31
0.0000
  0
LINE
  8
94
 10
320.0322
 20
21.8714
 30
0.0000
 11
320.0322
 21
19.5326
 31
0.0000
  0
LINE
  8
94
 10
319.2526
 20
19.5326
 30
0.0000
 11
320.8118
 21
19.5326
 31
0.0000
  0
LINE
  8
94
 10
322.7608
 20
19.5326
 30
0.0000
 11
322.7608
 21
21.8714
 31
0.0000
  0
LINE
  8
94
 10
322.7608
 20
21.8714
 30
0.0000
 11
321.5914
 21
20.7020
 31
0.0000
  0
LINE
  8
94
 10
321.5914
 20
20.7020
 30
0.0000
 11
323.1506
 21
20.7020
 31
0.0000
  0
LINE
  8
94
 10
323.9302
 20
19.9224
 30
0.0000
 11
323.9302
 21
21.4816
 31
0.0000
  0
LINE
  8
94
 10
323.9302
 20
21.4816
 30
0.0000
 11
324.3200
 21
21.8714
 31
0.0000
  0
LINE
  8
94
 10
324.3200
 20
21.8714
 30
0.0000
 11
325.0996
 21
21.8714
 31
0.0000
  0
LINE
  8
94
 10
325.0996
 20
21.8714
 30
0.0000
 11
325.4894
 21
21.4816
 31
0.0000
  0
LINE
  8
94
 10
325.4894
 20
21.4816
 30
0.0000
 11
325.4894
 21
19.9224
 31
0.0000
  0
LINE
  8
94
 10
325.4894
 20
19.9224
 30
0.0000
 11
325.0996
 21
19.5326
 31
0.0000
  0
LINE
  8
94
 10
325.0996
 20
19.5326
 30
0.0000
 11
324.3200
 21
19.5326
 31
0.0000
  0
LINE
  8
94
 10
324.3200
 20
19.5326
 30
0.0000
 11
323.9302
 21
19.9224
 31
0.0000
  0
LINE
  8
94
 10
323.9302
 20
19.9224
 30
0.0000
 11
325.4894
 21
21.4816
 31
0.0000
  0
LINE
  8
94
 10
326.2690
 20
19.9224
 30
0.0000
 11
326.2690
 21
21.4816
 31
0.0000
  0
LINE
  8
94
 10
326.2690
 20
21.4816
 30
0.0000
 11
326.6588
 21
21.8714
 31
0.0000
  0
LINE
  8
94
 10
326.6588
 20
21.8714
 30
0.0000
 11
327.4384
 21
21.8714
 31
0.0000
  0
LINE
  8
94
 10
327.4384
 20
21.8714
 30
0.0000
 11
327.8282
 21
21.4816
 31
0.0000
  0
LINE
  8
94
 10
327.8282
 20
21.4816
 30
0.0000
 11
327.8282
 21
19.9224
 31
0.0000
  0
LINE
  8
94
 10
327.8282
 20
19.9224
 30
0.0000
 11
327.4384
 21
19.5326
 31
0.0000
  0
LINE
  8
94
 10
327.4384
 20
19.5326
 30
0.0000
 11
326.6588
 21
19.5326
 31
0.0000
  0
LINE
  8
94
 10
326.6588
 20
19.5326
 30
0.0000
 11
326.2690
 21
19.9224
 31
0.0000
  0
LINE
  8
94
 10
326.2690
 20
19.9224
 30
0.0000
 11
327.8282
 21
21.4816
 31
0.0000
  0
LINE
  8
94
 10
328.6078
 20
19.9224
 30
0.0000
 11
328.6078
 21
21.4816
 31
0.0000
  0
LINE
  8
94
 10
328.6078
 20
21.4816
 30
0.0000
 11
328.9976
 21
21.8714
 31
0.0000
  0
LINE
  8
94
 10
328.9976
 20
21.8714
 30
0.0000
 11
329.7772
 21
21.8714
 31
0.0000
  0
LINE
  8
94
 10
329.7772
 20
21.8714
 30
0.0000
 11
330.1670
 21
21.4816
 31
0.0000
  0
LINE
  8
94
 10
330.1670
 20
21.4816
 30
0.0000
 11
330.1670
 21
19.9224
 31
0.0000
  0
LINE
  8
94
 10
330.1670
 20
19.9224
 30
0.0000
 11
329.7772
 21
19.5326
 31
0.0000
  0
LINE
  8
94
 10
329.7772
 20
19.5326
 30
0.0000
 11
328.9976
 21
19.5326
 31
0.0000
  0
LINE
  8
94
 10
328.9976
 20
19.5326
 30
0.0000
 11
328.6078
 21
19.9224
 31
0.0000
  0
LINE
  8
94
 10
328.6078
 20
19.9224
 30
0.0000
 11
330.1670
 21
21.4816
 31
0.0000
  0
LINE
  8
94
 10
332.5058
 20
21.8714
 30
0.0000
 11
331.7262
 21
21.4816
 31
0.0000
  0
LINE
  8
94
 10
331.7262
 20
21.4816
 30
0.0000
 11
330.9466
 21
20.7020
 31
0.0000
  0
LINE
  8
94
 10
330.9466
 20
20.7020
 30
0.0000
 11
330.9466
 21
19.9224
 31
0.0000
  0
LINE
  8
94
 10
330.9466
 20
19.9224
 30
0.0000
 11
331.3364
 21
19.5326
 31
0.0000
  0
LINE
  8
94
 10
331.3364
 20
19.5326
 30
0.0000
 11
332.1160
 21
19.5326
 31
0.0000
  0
LINE
  8
94
 10
332.1160
 20
19.5326
 30
0.0000
 11
332.5058
 21
19.9224
 31
0.0000
  0
LINE
  8
94
 10
332.5058
 20
19.9224
 30
0.0000
 11
332.5058
 21
20.3122
 31
0.0000
  0
LINE
  8
94
 10
332.5058
 20
20.3122
 30
0.0000
 11
332.1160
 21
20.7020
 31
0.0000
  0
LINE
  8
94
 10
332.1160
 20
20.7020
 30
0.0000
 11
330.9466
 21
20.7020
 31
0.0000
  0
LINE
  8
94
 10
333.2854
 20
19.5326
 30
0.0000
 11
333.2854
 21
21.8714
 31
0.0000
  0
LINE
  8
94
 10
333.2854
 20
21.8714
 30
0.0000
 11
334.4548
 21
21.8714
 31
0.0000
  0
LINE
  8
94
 10
334.4548
 20
21.8714
 30
0.0000
 11
334.8446
 21
21.4816
 31
0.0000
  0
LINE
  8
94
 10
334.8446
 20
21.4816
 30
0.0000
 11
334.8446
 21
20.7020
 31
0.0000
  0
LINE
  8
94
 10
334.8446
 20
20.7020
 30
0.0000
 11
334.4548
 21
20.3122
 31
0.0000
  0
LINE
  8
94
 10
334.4548
 20
20.3122
 30
0.0000
 11
333.2854
 21
20.3122
 31
0.0000
  0
LINE
  8
94
 10
334.0650
 20
20.3122
 30
0.0000
 11
334.8446
 21
19.5326
 31
0.0000
  0
LINE
  8
94
 10
335.6242
 20
19.1428
 30
0.0000
 11
337.1834
 21
19.1428
 31
0.0000
  0
LINE
  8
94
 10
337.9630
 20
21.4816
 30
0.0000
 11
338.3528
 21
21.8714
 31
0.0000
  0
LINE
  8
94
 10
338.3528
 20
21.8714
 30
0.0000
 11
339.1324
 21
21.8714
 31
0.0000
  0
LINE
  8
94
 10
339.1324
 20
21.8714
 30
0.0000
 11
339.5222
 21
21.4816
 31
0.0000
  0
LINE
  8
94
 10
339.5222
 20
21.4816
 30
0.0000
 11
339.5222
 21
21.0918
 31
0.0000
  0
LINE
  8
94
 10
339.5222
 20
21.0918
 30
0.0000
 11
339.1324
 21
20.7020
 31
0.0000
  0
LINE
  8
94
 10
339.1324
 20
20.7020
 30
0.0000
 11
338.7426
 21
20.7020
 31
0.0000
  0
LINE
  8
94
 10
339.1324
 20
20.7020
 30
0.0000
 11
339.5222
 21
20.3122
 31
0.0000
  0
LINE
  8
94
 10
339.5222
 20
20.3122
 30
0.0000
 11
339.5222
 21
19.9224
 31
0.0000
  0
LINE
  8
94
 10
339.5222
 20
19.9224
 30
0.0000
 11
339.1324
 21
19.5326
 31
0.0000
  0
LINE
  8
94
 10
339.1324
 20
19.5326
 30
0.0000
 11
338.3528
 21
19.5326
 31
0.0000
  0
LINE
  8
94
 10
338.3528
 20
19.5326
 30
0.0000
 11
337.9630
 21
19.9224
 31
0.0000
  0
LINE
  8
94
 10
340.3018
 20
19.5326
 30
0.0000
 11
340.3018
 21
21.8714
 31
0.0000
  0
LINE
  8
94
 10
340.3018
 20
20.7020
 30
0.0000
 11
341.8610
 21
20.7020
 31
0.0000
  0
LINE
  8
94
 10
341.8610
 20
21.8714
 30
0.0000
 11
341.8610
 21
19.5326
 31
0.0000
  0
LINE
  8
94
 10
342.6406
 20
19.5326
 30
0.0000
 11
342.6406
 21
21.8714
 31
0.0000
  0
LINE
  8
94
 10
342.6406
 20
21.8714
 30
0.0000
 11
343.8100
 21
21.8714
 31
0.0000
  0
LINE
  8
94
 10
343.8100
 20
21.8714
 30
0.0000
 11
344.1998
 21
21.4816
 31
0.0000
  0
LINE
  8
94
 10
344.1998
 20
21.4816
 30
0.0000
 11
344.1998
 21
20.7020
 31
0.0000
  0
LINE
  8
94
 10
344.1998
 20
20.7020
 30
0.0000
 11
343.8100
 21
20.3122
 31
0.0000
  0
LINE
  8
94
 10
343.8100
 20
20.3122
 30
0.0000
 11
342.6406
 21
20.3122
 31
0.0000
  0
LINE
  8
94
 10
344.9794
 20
19.1428
 30
0.0000
 11
346.5386
 21
19.1428
 31
0.0000
  0
LINE
  8
94
 10
347.3182
 20
21.8714
 30
0.0000
 11
347.3182
 21
19.9224
 31
0.0000
  0
LINE
  8
94
 10
347.3182
 20
19.9224
 30
0.0000
 11
347.7080
 21
19.5326
 31
0.0000
  0
LINE
  8
94
 10
347.7080
 20
19.5326
 30
0.0000
 11
348.4876
 21
19.5326
 31
0.0000
  0
LINE
  8
94
 10
348.4876
 20
19.5326
 30
0.0000
 11
348.8774
 21
19.9224
 31
0.0000
  0
LINE
  8
94
 10
348.8774
 20
19.9224
 30
0.0000
 11
348.8774
 21
21.8714
 31
0.0000
  0
LINE
  8
94
 10
349.6570
 20
18.7530
 30
0.0000
 11
349.6570
 21
21.0918
 31
0.0000
  0
LINE
  8
94
 10
349.6570
 20
21.0918
 30
0.0000
 11
350.8264
 21
21.0918
 31
0.0000
  0
LINE
  8
94
 10
350.8264
 20
21.0918
 30
0.0000
 11
351.2162
 21
20.7020
 31
0.0000
  0
LINE
  8
94
 10
351.2162
 20
20.7020
 30
0.0000
 11
351.2162
 21
19.9224
 31
0.0000
  0
LINE
  8
94
 10
351.2162
 20
19.9224
 30
0.0000
 11
350.8264
 21
19.5326
 31
0.0000
  0
LINE
  8
94
 10
350.8264
 20
19.5326
 30
0.0000
 11
349.6570
 21
19.5326
 31
0.0000
  0
LINE
  8
94
 10
352.7754
 20
18.7530
 30
0.0000
 11
353.1652
 21
18.7530
 31
0.0000
  0
LINE
  8
94
 10
353.1652
 20
18.7530
 30
0.0000
 11
353.5550
 21
19.1428
 31
0.0000
  0
LINE
  8
94
 10
353.5550
 20
19.1428
 30
0.0000
 11
353.5550
 21
21.0918
 31
0.0000
  0
LINE
  8
94
 10
353.5550
 20
21.0918
 30
0.0000
 11
352.3856
 21
21.0918
 31
0.0000
  0
LINE
  8
94
 10
352.3856
 20
21.0918
 30
0.0000
 11
351.9958
 21
20.7020
 31
0.0000
  0
LINE
  8
94
 10
351.9958
 20
20.7020
 30
0.0000
 11
351.9958
 21
19.9224
 31
0.0000
  0
LINE
  8
94
 10
351.9958
 20
19.9224
 30
0.0000
 11
352.3856
 21
19.5326
 31
0.0000
  0
LINE
  8
94
 10
352.3856
 20
19.5326
 30
0.0000
 11
353.5550
 21
19.5326
 31
0.0000
  0
LINE
  8
94
 10
354.3346
 20
19.5326
 30
0.0000
 11
354.3346
 21
21.0918
 31
0.0000
  0
LINE
  8
94
 10
354.3346
 20
20.3122
 30
0.0000
 11
355.1141
 21
21.0918
 31
0.0000
  0
LINE
  8
94
 10
355.1141
 20
21.0918
 30
0.0000
 11
355.5040
 21
21.0918
 31
0.0000
  0
LINE
  8
94
 10
356.6733
 20
21.0918
 30
0.0000
 11
357.4529
 21
21.0918
 31
0.0000
  0
LINE
  8
94
 10
357.4529
 20
21.0918
 30
0.0000
 11
357.8427
 21
20.7020
 31
0.0000
  0
LINE
  8
94
 10
357.8427
 20
20.7020
 30
0.0000
 11
357.8427
 21
19.5326
 31
0.0000
  0
LINE
  8
94
 10
357.8427
 20
19.5326
 30
0.0000
 11
356.6733
 21
19.5326
 31
0.0000
  0
LINE
  8
94
 10
356.6733
 20
19.5326
 30
0.0000
 11
356.2835
 21
19.9224
 31
0.0000
  0
LINE
  8
94
 10
356.2835
 20
19.9224
 30
0.0000
 11
356.6733
 21
20.3122
 31
0.0000
  0
LINE
  8
94
 10
356.6733
 20
20.3122
 30
0.0000
 11
357.8427
 21
20.3122
 31
0.0000
  0
LINE
  8
94
 10
360.1815
 20
21.8714
 30
0.0000
 11
360.1815
 21
19.5326
 31
0.0000
  0
LINE
  8
94
 10
360.1815
 20
19.5326
 30
0.0000
 11
359.0121
 21
19.5326
 31
0.0000
  0
LINE
  8
94
 10
359.0121
 20
19.5326
 30
0.0000
 11
358.6223
 21
19.9224
 31
0.0000
  0
LINE
  8
94
 10
358.6223
 20
19.9224
 30
0.0000
 11
358.6223
 21
20.7020
 31
0.0000
  0
LINE
  8
94
 10
358.6223
 20
20.7020
 30
0.0000
 11
359.0121
 21
21.0918
 31
0.0000
  0
LINE
  8
94
 10
359.0121
 20
21.0918
 30
0.0000
 11
360.1815
 21
21.0918
 31
0.0000
  0
LINE
  8
94
 10
362.1305
 20
19.5326
 30
0.0000
 11
361.3509
 21
19.5326
 31
0.0000
  0
LINE
  8
94
 10
361.3509
 20
19.5326
 30
0.0000
 11
360.9611
 21
19.9224
 31
0.0000
  0
LINE
  8
94
 10
360.9611
 20
19.9224
 30
0.0000
 11
360.9611
 21
20.7020
 31
0.0000
  0
LINE
  8
94
 10
360.9611
 20
20.7020
 30
0.0000
 11
361.3509
 21
21.0918
 31
0.0000
  0
LINE
  8
94
 10
361.3509
 20
21.0918
 30
0.0000
 11
362.1305
 21
21.0918
 31
0.0000
  0
LINE
  8
94
 10
362.1305
 20
21.0918
 30
0.0000
 11
362.5203
 21
20.7020
 31
0.0000
  0
LINE
  8
94
 10
362.5203
 20
20.7020
 30
0.0000
 11
362.5203
 21
20.3122
 31
0.0000
  0
LINE
  8
94
 10
362.5203
 20
20.3122
 30
0.0000
 11
360.9611
 21
20.3122
 31
0.0000
  0
LINE
  8
94
 10
311.2486
 20
9.6139
 30
0.0000
 11
309.8419
 21
9.6139
 31
0.0000
  0
LINE
  8
94
 10
309.8419
 20
9.6139
 30
0.0000
 11
311.2486
 21
11.0206
 31
0.0000
  0
LINE
  8
94
 10
311.2486
 20
11.0206
 30
0.0000
 11
311.2486
 21
11.3722
 31
0.0000
  0
LINE
  8
94
 10
311.2486
 20
11.3722
 30
0.0000
 11
310.8969
 21
11.7239
 31
0.0000
  0
LINE
  8
94
 10
310.8969
 20
11.7239
 30
0.0000
 11
310.1936
 21
11.7239
 31
0.0000
  0
LINE
  8
94
 10
310.1936
 20
11.7239
 30
0.0000
 11
309.8419
 21
11.3722
 31
0.0000
  0
LINE
  8
94
 10
311.9468
 20
9.6139
 30
0.0000
 11
313.3535
 21
11.7239
 31
0.0000
  0
LINE
  8
94
 10
315.4584
 20
9.6139
 30
0.0000
 11
314.0517
 21
9.6139
 31
0.0000
  0
LINE
  8
94
 10
314.0517
 20
9.6139
 30
0.0000
 11
315.4584
 21
11.0206
 31
0.0000
  0
LINE
  8
94
 10
315.4584
 20
11.0206
 30
0.0000
 11
315.4584
 21
11.3722
 31
0.0000
  0
LINE
  8
94
 10
315.4584
 20
11.3722
 30
0.0000
 11
315.1067
 21
11.7239
 31
0.0000
  0
LINE
  8
94
 10
315.1067
 20
11.7239
 30
0.0000
 11
314.4034
 21
11.7239
 31
0.0000
  0
LINE
  8
94
 10
314.4034
 20
11.7239
 30
0.0000
 11
314.0517
 21
11.3722
 31
0.0000
  0
LINE
  8
94
 10
316.1567
 20
9.9656
 30
0.0000
 11
316.1567
 21
11.3722
 31
0.0000
  0
LINE
  8
94
 10
316.1567
 20
11.3722
 30
0.0000
 11
316.5083
 21
11.7239
 31
0.0000
  0
LINE
  8
94
 10
316.5083
 20
11.7239
 30
0.0000
 11
317.2117
 21
11.7239
 31
0.0000
  0
LINE
  8
94
 10
317.2117
 20
11.7239
 30
0.0000
 11
317.5633
 21
11.3722
 31
0.0000
  0
LINE
  8
94
 10
317.5633
 20
11.3722
 30
0.0000
 11
317.5633
 21
9.9656
 31
0.0000
  0
LINE
  8
94
 10
317.5633
 20
9.9656
 30
0.0000
 11
317.2117
 21
9.6139
 31
0.0000
  0
LINE
  8
94
 10
317.2117
 20
9.6139
 30
0.0000
 11
316.5083
 21
9.6139
 31
0.0000
  0
LINE
  8
94
 10
316.5083
 20
9.6139
 30
0.0000
 11
316.1567
 21
9.9656
 31
0.0000
  0
LINE
  8
94
 10
316.1567
 20
9.9656
 30
0.0000
 11
317.5633
 21
11.3722
 31
0.0000
  0
LINE
  8
94
 10
318.2616
 20
9.6139
 30
0.0000
 11
319.6682
 21
11.7239
 31
0.0000
  0
LINE
  8
94
 10
321.7732
 20
9.6139
 30
0.0000
 11
320.3665
 21
9.6139
 31
0.0000
  0
LINE
  8
94
 10
320.3665
 20
9.6139
 30
0.0000
 11
321.7732
 21
11.0206
 31
0.0000
  0
LINE
  8
94
 10
321.7732
 20
11.0206
 30
0.0000
 11
321.7732
 21
11.3722
 31
0.0000
  0
LINE
  8
94
 10
321.7732
 20
11.3722
 30
0.0000
 11
321.4215
 21
11.7239
 31
0.0000
  0
LINE
  8
94
 10
321.4215
 20
11.7239
 30
0.0000
 11
320.7182
 21
11.7239
 31
0.0000
  0
LINE
  8
94
 10
320.7182
 20
11.7239
 30
0.0000
 11
320.3665
 21
11.3722
 31
0.0000
  0
LINE
  8
94
 10
322.4714
 20
9.9656
 30
0.0000
 11
322.4714
 21
11.3722
 31
0.0000
  0
LINE
  8
94
 10
322.4714
 20
11.3722
 30
0.0000
 11
322.8231
 21
11.7239
 31
0.0000
  0
LINE
  8
94
 10
322.8231
 20
11.7239
 30
0.0000
 11
323.5264
 21
11.7239
 31
0.0000
  0
LINE
  8
94
 10
323.5264
 20
11.7239
 30
0.0000
 11
323.8781
 21
11.3722
 31
0.0000
  0
LINE
  8
94
 10
323.8781
 20
11.3722
 30
0.0000
 11
323.8781
 21
9.9656
 31
0.0000
  0
LINE
  8
94
 10
323.8781
 20
9.9656
 30
0.0000
 11
323.5264
 21
9.6139
 31
0.0000
  0
LINE
  8
94
 10
323.5264
 20
9.6139
 30
0.0000
 11
322.8231
 21
9.6139
 31
0.0000
  0
LINE
  8
94
 10
322.8231
 20
9.6139
 30
0.0000
 11
322.4714
 21
9.9656
 31
0.0000
  0
LINE
  8
94
 10
322.4714
 20
9.9656
 30
0.0000
 11
323.8781
 21
11.3722
 31
0.0000
  0
LINE
  8
94
 10
324.5763
 20
11.0206
 30
0.0000
 11
325.2797
 21
11.7239
 31
0.0000
  0
LINE
  8
94
 10
325.2797
 20
11.7239
 30
0.0000
 11
325.2797
 21
9.6139
 31
0.0000
  0
LINE
  8
94
 10
324.5763
 20
9.6139
 30
0.0000
 11
325.9830
 21
9.6139
 31
0.0000
  0
LINE
  8
94
 10
327.7363
 20
9.6139
 30
0.0000
 11
327.7363
 21
11.7239
 31
0.0000
  0
LINE
  8
94
 10
327.7363
 20
11.7239
 30
0.0000
 11
326.6813
 21
10.6689
 31
0.0000
  0
LINE
  8
94
 10
326.6813
 20
10.6689
 30
0.0000
 11
328.0879
 21
10.6689
 31
0.0000
  0
LINE
  8
94
 10
331.9461
 20
9.6139
 30
0.0000
 11
331.9461
 21
11.7239
 31
0.0000
  0
LINE
  8
94
 10
331.9461
 20
11.7239
 30
0.0000
 11
330.8911
 21
10.6689
 31
0.0000
  0
LINE
  8
94
 10
330.8911
 20
10.6689
 30
0.0000
 11
332.2978
 21
10.6689
 31
0.0000
  0
LINE
  8
94
 10
332.9960
 20
11.0206
 30
0.0000
 11
333.3477
 21
11.0206
 31
0.0000
  0
LINE
  8
94
 10
333.3477
 20
11.0206
 30
0.0000
 11
333.3477
 21
10.6689
 31
0.0000
  0
LINE
  8
94
 10
333.3477
 20
10.6689
 30
0.0000
 11
332.9960
 21
10.6689
 31
0.0000
  0
LINE
  8
94
 10
332.9960
 20
10.6689
 30
0.0000
 11
332.9960
 21
11.0206
 31
0.0000
  0
LINE
  8
94
 10
332.9960
 20
9.9656
 30
0.0000
 11
333.3477
 21
9.9656
 31
0.0000
  0
LINE
  8
94
 10
333.3477
 20
9.9656
 30
0.0000
 11
333.3477
 21
9.6139
 31
0.0000
  0
LINE
  8
94
 10
333.3477
 20
9.6139
 30
0.0000
 11
332.9960
 21
9.6139
 31
0.0000
  0
LINE
  8
94
 10
332.9960
 20
9.6139
 30
0.0000
 11
332.9960
 21
9.9656
 31
0.0000
  0
LINE
  8
94
 10
335.1035
 20
9.6139
 30
0.0000
 11
335.1035
 21
11.7239
 31
0.0000
  0
LINE
  8
94
 10
335.1035
 20
11.7239
 30
0.0000
 11
334.0485
 21
10.6689
 31
0.0000
  0
LINE
  8
94
 10
334.0485
 20
10.6689
 30
0.0000
 11
335.4551
 21
10.6689
 31
0.0000
  0
LINE
  8
94
 10
337.5601
 20
11.7239
 30
0.0000
 11
336.8567
 21
11.3722
 31
0.0000
  0
LINE
  8
94
 10
336.8567
 20
11.3722
 30
0.0000
 11
336.1534
 21
10.6689
 31
0.0000
  0
LINE
  8
94
 10
336.1534
 20
10.6689
 30
0.0000
 11
336.1534
 21
9.9656
 31
0.0000
  0
LINE
  8
94
 10
336.1534
 20
9.9656
 30
0.0000
 11
336.5051
 21
9.6139
 31
0.0000
  0
LINE
  8
94
 10
336.5051
 20
9.6139
 30
0.0000
 11
337.2084
 21
9.6139
 31
0.0000
  0
LINE
  8
94
 10
337.2084
 20
9.6139
 30
0.0000
 11
337.5601
 21
9.9656
 31
0.0000
  0
LINE
  8
94
 10
337.5601
 20
9.9656
 30
0.0000
 11
337.5601
 21
10.3172
 31
0.0000
  0
LINE
  8
94
 10
337.5601
 20
10.3172
 30
0.0000
 11
337.2084
 21
10.6689
 31
0.0000
  0
LINE
  8
94
 10
337.2084
 20
10.6689
 30
0.0000
 11
336.1534
 21
10.6689
 31
0.0000
  0
LINE
  8
94
 10
338.2583
 20
11.0206
 30
0.0000
 11
338.6100
 21
11.0206
 31
0.0000
  0
LINE
  8
94
 10
338.6100
 20
11.0206
 30
0.0000
 11
338.6100
 21
10.6689
 31
0.0000
  0
LINE
  8
94
 10
338.6100
 20
10.6689
 30
0.0000
 11
338.2583
 21
10.6689
 31
0.0000
  0
LINE
  8
94
 10
338.2583
 20
10.6689
 30
0.0000
 11
338.2583
 21
11.0206
 31
0.0000
  0
LINE
  8
94
 10
338.2583
 20
9.9656
 30
0.0000
 11
338.6100
 21
9.9656
 31
0.0000
  0
LINE
  8
94
 10
338.6100
 20
9.9656
 30
0.0000
 11
338.6100
 21
9.6139
 31
0.0000
  0
LINE
  8
94
 10
338.6100
 20
9.6139
 30
0.0000
 11
338.2583
 21
9.6139
 31
0.0000
  0
LINE
  8
94
 10
338.2583
 20
9.6139
 30
0.0000
 11
338.2583
 21
9.9656
 31
0.0000
  0
LINE
  8
94
 10
340.3658
 20
9.6139
 30
0.0000
 11
340.3658
 21
11.7239
 31
0.0000
  0
LINE
  8
94
 10
340.3658
 20
11.7239
 30
0.0000
 11
339.3108
 21
10.6689
 31
0.0000
  0
LINE
  8
94
 10
339.3108
 20
10.6689
 30
0.0000
 11
340.7174
 21
10.6689
 31
0.0000
  0
LINE
  8
94
 10
342.4707
 20
9.6139
 30
0.0000
 11
342.4707
 21
11.7239
 31
0.0000
  0
LINE
  8
94
 10
342.4707
 20
11.7239
 30
0.0000
 11
341.4157
 21
10.6689
 31
0.0000
  0
LINE
  8
94
 10
341.4157
 20
10.6689
 30
0.0000
 11
342.8224
 21
10.6689
 31
0.0000
  0
LINE
  8
94
 10
345.6255
 20
9.6139
 30
0.0000
 11
345.6255
 21
11.7239
 31
0.0000
  0
LINE
  8
94
 10
345.6255
 20
11.7239
 30
0.0000
 11
346.6805
 21
11.7239
 31
0.0000
  0
LINE
  8
94
 10
346.6805
 20
11.7239
 30
0.0000
 11
347.0322
 21
11.3722
 31
0.0000
  0
LINE
  8
94
 10
347.0322
 20
11.3722
 30
0.0000
 11
347.0322
 21
10.6689
 31
0.0000
  0
LINE
  8
94
 10
347.0322
 20
10.6689
 30
0.0000
 11
346.6805
 21
10.3172
 31
0.0000
  0
LINE
  8
94
 10
346.6805
 20
10.3172
 30
0.0000
 11
345.6255
 21
10.3172
 31
0.0000
  0
LINE
  8
94
 10
347.7304
 20
9.6139
 30
0.0000
 11
347.7304
 21
11.7239
 31
0.0000
  0
LINE
  8
94
 10
347.7304
 20
11.7239
 30
0.0000
 11
348.4338
 21
11.0206
 31
0.0000
  0
LINE
  8
94
 10
348.4338
 20
11.0206
 30
0.0000
 11
349.1371
 21
11.7239
 31
0.0000
  0
LINE
  8
94
 10
349.1371
 20
11.7239
 30
0.0000
 11
349.1371
 21
9.6139
 31
0.0000
  0
LINE
  8
94
 10
368.4016
 20
6.4956
 30
0.0000
 11
368.7914
 21
6.8854
 31
0.0000
  0
LINE
  8
94
 10
368.7914
 20
6.8854
 30
0.0000
 11
369.5710
 21
6.8854
 31
0.0000
  0
LINE
  8
94
 10
369.5710
 20
6.8854
 30
0.0000
 11
369.9608
 21
6.4956
 31
0.0000
  0
LINE
  8
94
 10
369.9608
 20
6.4956
 30
0.0000
 11
369.9608
 21
6.1058
 31
0.0000
  0
LINE
  8
94
 10
369.9608
 20
6.1058
 30
0.0000
 11
369.5710
 21
5.7160
 31
0.0000
  0
LINE
  8
94
 10
369.5710
 20
5.7160
 30
0.0000
 11
369.1812
 21
5.7160
 31
0.0000
  0
LINE
  8
94
 10
369.5710
 20
5.7160
 30
0.0000
 11
369.9608
 21
5.3262
 31
0.0000
  0
LINE
  8
94
 10
369.9608
 20
5.3262
 30
0.0000
 11
369.9608
 21
4.9364
 31
0.0000
  0
LINE
  8
94
 10
369.9608
 20
4.9364
 30
0.0000
 11
369.5710
 21
4.5466
 31
0.0000
  0
LINE
  8
94
 10
369.5710
 20
4.5466
 30
0.0000
 11
368.7914
 21
4.5466
 31
0.0000
  0
LINE
  8
94
 10
368.7914
 20
4.5466
 30
0.0000
 11
368.4016
 21
4.9364
 31
0.0000
  0
LINE
  8
94
 10
370.7404
 20
4.5466
 30
0.0000
 11
372.2996
 21
6.8854
 31
0.0000
  0
LINE
  8
94
 10
374.2486
 20
4.5466
 30
0.0000
 11
374.2486
 21
6.8854
 31
0.0000
  0
LINE
  8
94
 10
374.2486
 20
6.8854
 30
0.0000
 11
373.0792
 21
5.7160
 31
0.0000
  0
LINE
  8
94
 10
373.0792
 20
5.7160
 30
0.0000
 11
374.6384
 21
5.7160
 31
0.0000
  0
TEXT
  7
ISOCP
  8
94
 10
309.6260
 20
4.3180
 30
0.0000
 40
2.5400
  1
Drawn By:
  0
TEXT
  7
ISOCP
  8
94
 10
309.8800
 20
19.5580
 30
0.0000
 40
2.5400
  1
Title:
  0
TEXT
  7
ISOCP
  8
94
 10
310.1340
 20
14.4780
 30
0.0000
 40
2.5400
  1
Version:
  0
LINE
  8
94
 10
185.4200
 20
147.3200
 30
0.0000
 11
190.5000
 21
147.3200
 31
0.0000
  0
LINE
  8
94
 10
190.5000
 20
147.3200
 30
0.0000
 11
195.5800
 21
147.3200
 31
0.0000
  0
ARC
  8
94
 10
190.5000
 20
147.7963
 30
0.0000
 40
3.2727
 50
39.0932
 51
140.9068
  0
LINE
  8
94
 10
190.5000
 20
151.1300
 30
0.0000
 11
190.5000
 21
147.3200
 31
0.0000
  0
TEXT
  7
ISOCP
  8
95
 10
186.0550
 20
151.7650
 30
0.0000
 40
1.7780
  1
U$16
  0
TEXT
  7
ISOCP
  8
96
 10
185.9280
 20
154.1780
 30
0.0000
 40
1.7780
  1
9210-0072
  0
LINE
  8
94
 10
180.3400
 20
144.7800
 30
0.0000
 11
185.4200
 21
144.7800
 31
0.0000
  0
LINE
  8
94
 10
200.6600
 20
144.7800
 30
0.0000
 11
195.5800
 21
144.7800
 31
0.0000
  0
CIRCLE
  8
94
 10
185.4200
 20
144.7800
 30
0.0000
 40
0.6350
  0
CIRCLE
  8
94
 10
195.5800
 20
144.7800
 30
0.0000
 40
0.6350
  0
LINE
  8
94
 10
127.2540
 20
210.8200
 30
0.0000
 11
131.8260
 21
210.8200
 31
0.0000
  0
LINE
  8
94
 10
129.5400
 20
202.4380
 30
0.0000
 11
129.5400
 21
214.3760
 31
0.0000
  0
LINE
  8
94
 10
127.2540
 20
202.1840
 30
0.0000
 11
131.8260
 21
202.1840
 31
0.0000
  0
ARC
  8
94
 10
129.5400
 20
210.8200
 30
0.0000
 40
3.5921
 50
45.0000
 51
135.0000
  0
ARC
  8
94
 10
128.3971
 20
199.8555
 30
0.0000
 40
2.2280
 50
231.1653
 51
14.3051
  0
ARC
  8
94
 10
130.6830
 20
199.8557
 30
0.0000
 40
2.2281
 50
165.7007
 51
308.8289
  0
ARC
  8
94
 10
129.5400
 20
200.4060
 30
0.0000
 40
1.0160
 50
0.0000
 51
180.0000
  0
TEXT
  7
ISOCP
  8
94
 10
125.2220
 20
215.1380
 30
0.0000
 40
1.7780
  1
E-STOP
  0
LINE
  8
94
 10
121.9200
 20
208.2800
 30
0.0000
 11
127.0000
 21
208.2800
 31
0.0000
  0
LINE
  8
94
 10
121.9200
 20
203.2000
 30
0.0000
 11
127.0000
 21
203.2000
 31
0.0000
  0
LINE
  8
94
 10
137.1600
 20
208.2800
 30
0.0000
 11
132.0800
 21
208.2800
 31
0.0000
  0
LINE
  8
94
 10
137.1600
 20
203.2000
 30
0.0000
 11
132.0800
 21
203.2000
 31
0.0000
  0
LINE
  8
94
 10
121.9200
 20
198.1200
 30
0.0000
 11
127.0000
 21
198.1200
 31
0.0000
  0
LINE
  8
94
 10
137.1600
 20
198.1200
 30
0.0000
 11
132.0800
 21
198.1200
 31
0.0000
  0
CIRCLE
  8
94
 10
127.7620
 20
208.2800
 30
0.0000
 40
0.7620
  0
CIRCLE
  8
94
 10
131.3180
 20
208.2800
 30
0.0000
 40
0.7620
  0
CIRCLE
  8
94
 10
127.7620
 20
203.2000
 30
0.0000
 40
0.7620
  0
CIRCLE
  8
94
 10
131.3180
 20
203.2000
 30
0.0000
 40
0.7620
  0
LINE
  8
94
 10
185.9280
 20
92.2020
 30
0.0000
 11
184.9120
 21
92.9640
 31
0.0000
  0
LINE
  8
94
 10
184.9120
 20
92.9640
 30
0.0000
 11
186.9440
 21
93.9800
 31
0.0000
  0
LINE
  8
94
 10
186.9440
 20
93.9800
 30
0.0000
 11
184.9120
 21
95.2500
 31
0.0000
  0
LINE
  8
94
 10
184.9120
 20
95.2500
 30
0.0000
 11
186.9440
 21
96.5200
 31
0.0000
  0
LINE
  8
94
 10
186.9440
 20
96.5200
 30
0.0000
 11
184.9120
 21
97.7900
 31
0.0000
  0
LINE
  8
94
 10
184.9120
 20
97.7900
 30
0.0000
 11
186.9440
 21
99.0600
 31
0.0000
  0
LINE
  8
94
 10
186.9440
 20
99.0600
 30
0.0000
 11
184.9120
 21
100.3300
 31
0.0000
  0
LINE
  8
94
 10
184.9120
 20
100.3300
 30
0.0000
 11
185.9280
 21
101.0920
 31
0.0000
  0
LINE
  8
94
 10
188.7220
 20
97.5360
 30
0.0000
 11
187.7060
 21
96.5200
 31
0.0000
  0
LINE
  8
94
 10
187.7060
 20
96.5200
 30
0.0000
 11
188.7220
 21
95.5040
 31
0.0000
  0
LINE
  8
94
 10
177.8000
 20
121.9200
 30
0.0000
 11
203.2000
 21
121.9200
 31
0.0000
  0
LINE
  8
94
 10
203.2000
 20
121.9200
 30
0.0000
 11
203.2000
 21
119.3800
 31
0.0000
  0
LINE
  8
94
 10
203.2000
 20
119.3800
 30
0.0000
 11
203.2000
 21
114.3000
 31
0.0000
  0
LINE
  8
94
 10
203.2000
 20
114.3000
 30
0.0000
 11
203.2000
 21
111.7600
 31
0.0000
  0
LINE
  8
94
 10
203.2000
 20
111.7600
 30
0.0000
 11
203.2000
 21
106.6800
 31
0.0000
  0
LINE
  8
94
 10
203.2000
 20
106.6800
 30
0.0000
 11
203.2000
 21
96.5200
 31
0.0000
  0
LINE
  8
94
 10
203.2000
 20
96.5200
 30
0.0000
 11
203.2000
 21
88.9000
 31
0.0000
  0
LINE
  8
94
 10
203.2000
 20
88.9000
 30
0.0000
 11
177.8000
 21
88.9000
 31
0.0000
  0
LINE
  8
94
 10
177.8000
 20
88.9000
 30
0.0000
 11
177.8000
 21
91.4400
 31
0.0000
  0
LINE
  8
94
 10
177.8000
 20
91.4400
 30
0.0000
 11
177.8000
 21
96.5200
 31
0.0000
  0
LINE
  8
94
 10
177.8000
 20
96.5200
 30
0.0000
 11
177.8000
 21
101.6000
 31
0.0000
  0
LINE
  8
94
 10
177.8000
 20
101.6000
 30
0.0000
 11
177.8000
 21
109.2200
 31
0.0000
  0
LINE
  8
94
 10
177.8000
 20
109.2200
 30
0.0000
 11
177.8000
 21
116.8400
 31
0.0000
  0
LINE
  8
94
 10
177.8000
 20
116.8400
 30
0.0000
 11
177.8000
 21
121.9200
 31
0.0000
  0
LINE
  8
94
 10
181.8640
 20
101.6000
 30
0.0000
 11
185.9280
 21
101.6000
 31
0.0000
  0
LINE
  8
94
 10
185.9280
 20
101.6000
 30
0.0000
 11
185.9280
 21
101.0920
 31
0.0000
  0
LINE
  8
94
 10
185.9280
 20
92.2020
 30
0.0000
 11
185.9280
 21
91.4400
 31
0.0000
  0
LINE
  8
94
 10
185.9280
 20
91.4400
 30
0.0000
 11
182.1180
 21
91.4400
 31
0.0000
  0
LINE
  8
94
 10
187.7060
 20
96.5200
 30
0.0000
 11
193.0400
 21
96.5200
 31
0.0000
  0
LINE
  8
94
 10
194.5640
 20
96.5200
 30
0.0000
 11
198.6280
 21
96.5200
 31
0.0000
  0
LINE
  8
94
 10
185.9280
 20
96.5200
 30
0.0000
 11
181.8640
 21
96.5200
 31
0.0000
  0
LINE
  8
94
 10
177.8000
 20
116.8400
 30
0.0000
 11
179.8320
 21
116.8400
 31
0.0000
  0
LINE
  8
94
 10
177.8000
 20
109.2200
 30
0.0000
 11
179.8320
 21
109.2200
 31
0.0000
  0
LINE
  8
94
 10
177.8000
 20
91.4400
 30
0.0000
 11
179.8320
 21
91.4400
 31
0.0000
  0
LINE
  8
94
 10
177.8000
 20
96.5200
 30
0.0000
 11
179.8320
 21
96.5200
 31
0.0000
  0
LINE
  8
94
 10
177.8000
 20
101.6000
 30
0.0000
 11
179.8320
 21
101.6000
 31
0.0000
  0
LINE
  8
94
 10
203.2000
 20
96.5200
 30
0.0000
 11
201.1680
 21
96.5200
 31
0.0000
  0
LINE
  8
94
 10
203.2000
 20
119.3800
 30
0.0000
 11
201.1680
 21
119.3800
 31
0.0000
  0
LINE
  8
94
 10
203.2000
 20
114.3000
 30
0.0000
 11
201.1680
 21
114.3000
 31
0.0000
  0
LINE
  8
94
 10
203.2000
 20
111.7600
 30
0.0000
 11
201.1680
 21
111.7600
 31
0.0000
  0
LINE
  8
94
 10
203.2000
 20
106.6800
 30
0.0000
 11
201.1680
 21
106.6800
 31
0.0000
  0
LINE
  8
94
 10
195.0720
 20
106.6800
 30
0.0000
 11
196.0880
 21
106.6800
 31
0.0000
  0
LINE
  8
94
 10
195.0720
 20
111.7600
 30
0.0000
 11
196.0880
 21
111.7600
 31
0.0000
  0
LINE
  8
94
 10
195.0720
 20
114.3000
 30
0.0000
 11
196.0880
 21
114.3000
 31
0.0000
  0
LINE
  8
94
 10
195.0720
 20
119.3800
 30
0.0000
 11
196.0880
 21
119.3800
 31
0.0000
  0
LINE
  8
94
 10
188.7220
 20
116.8400
 30
0.0000
 11
195.0720
 21
118.6180
 31
0.0000
  0
LINE
  8
94
 10
188.7220
 20
116.8400
 30
0.0000
 11
191.2620
 21
118.6180
 31
0.0000
  0
LINE
  8
94
 10
191.2620
 20
118.6180
 30
0.0000
 11
194.8180
 21
118.6180
 31
0.0000
  0
LINE
  8
94
 10
191.2620
 20
118.6180
 30
0.0000
 11
190.5000
 21
120.1420
 31
0.0000
  0
LINE
  8
94
 10
191.2620
 20
118.6180
 30
0.0000
 11
192.2780
 21
116.5860
 31
0.0000
  0
LINE
  8
94
 10
192.2780
 20
116.5860
 30
0.0000
 11
191.5160
 21
116.8400
 31
0.0000
  0
LINE
  8
94
 10
192.2780
 20
116.5860
 30
0.0000
 11
192.5320
 21
117.0940
 31
0.0000
  0
LINE
  8
94
 10
188.7220
 20
109.2200
 30
0.0000
 11
191.2620
 21
110.9980
 31
0.0000
  0
LINE
  8
94
 10
191.2620
 20
110.9980
 30
0.0000
 11
194.8180
 21
110.9980
 31
0.0000
  0
LINE
  8
94
 10
191.2620
 20
110.9980
 30
0.0000
 11
190.5000
 21
112.5220
 31
0.0000
  0
LINE
  8
94
 10
191.2620
 20
110.9980
 30
0.0000
 11
192.2780
 21
108.9660
 31
0.0000
  0
LINE
  8
94
 10
192.2780
 20
108.9660
 30
0.0000
 11
191.5160
 21
109.2200
 31
0.0000
  0
LINE
  8
94
 10
192.2780
 20
108.9660
 30
0.0000
 11
192.5320
 21
109.4740
 31
0.0000
  0
LINE
  8
94
 10
188.7220
 20
109.2200
 30
0.0000
 11
195.0720
 21
110.9980
 31
0.0000
  0
LINE
  8
94
 10
172.7200
 20
116.8400
 30
0.0000
 11
177.8000
 21
116.8400
 31
0.0000
  0
TEXT
  7
ISOCP
  8
95
 10
180.1368
 20
116.0780
 30
0.0000
 40
1.5240
  1
COM1
  0
LINE
  8
94
 10
172.7200
 20
109.2200
 30
0.0000
 11
177.8000
 21
109.2200
 31
0.0000
  0
TEXT
  7
ISOCP
  8
95
 10
180.1368
 20
108.4580
 30
0.0000
 40
1.5240
  1
COM2
  0
LINE
  8
94
 10
172.7200
 20
101.6000
 30
0.0000
 11
177.8000
 21
101.6000
 31
0.0000
  0
TEXT
  7
ISOCP
  8
95
 10
180.1368
 20
100.8380
 30
0.0000
 40
1.5240
  1
L
  0
LINE
  8
94
 10
208.2800
 20
119.3800
 30
0.0000
 11
203.2000
 21
119.3800
 31
0.0000
  0
TEXT
  7
ISOCP
  8
95
 10
200.8632
 20
120.1420
 30
0.0000
 40
1.5240
  1
NC1
 72
2
 73
3
 11
200.8632
 21
120.1420
 31
0.0000
  0
LINE
  8
94
 10
208.2800
 20
111.7600
 30
0.0000
 11
203.2000
 21
111.7600
 31
0.0000
  0
TEXT
  7
ISOCP
  8
95
 10
200.8632
 20
112.5220
 30
0.0000
 40
1.5240
  1
NC2
 72
2
 73
3
 11
200.8632
 21
112.5220
 31
0.0000
  0
LINE
  8
94
 10
208.2800
 20
114.3000
 30
0.0000
 11
203.2000
 21
114.3000
 31
0.0000
  0
TEXT
  7
ISOCP
  8
95
 10
200.8632
 20
115.0620
 30
0.0000
 40
1.5240
  1
NO1
 72
2
 73
3
 11
200.8632
 21
115.0620
 31
0.0000
  0
LINE
  8
94
 10
208.2800
 20
106.6800
 30
0.0000
 11
203.2000
 21
106.6800
 31
0.0000
  0
TEXT
  7
ISOCP
  8
95
 10
200.8632
 20
107.4420
 30
0.0000
 40
1.5240
  1
NO2
 72
2
 73
3
 11
200.8632
 21
107.4420
 31
0.0000
  0
LINE
  8
94
 10
172.7200
 20
91.4400
 30
0.0000
 11
177.8000
 21
91.4400
 31
0.0000
  0
TEXT
  7
ISOCP
  8
95
 10
180.1368
 20
90.6780
 30
0.0000
 40
1.5240
  1
R
  0
LINE
  8
94
 10
172.7200
 20
96.5200
 30
0.0000
 11
177.8000
 21
96.5200
 31
0.0000
  0
TEXT
  7
ISOCP
  8
95
 10
180.1368
 20
95.7580
 30
0.0000
 40
1.5240
  1
T
  0
LINE
  8
94
 10
208.2800
 20
96.5200
 30
0.0000
 11
203.2000
 21
96.5200
 31
0.0000
  0
TEXT
  7
ISOCP
  8
95
 10
200.8632
 20
97.2820
 30
0.0000
 40
1.5240
  1
W
 72
2
 73
3
 11
200.8632
 21
97.2820
 31
0.0000
  0
CIRCLE
  8
94
 10
193.8020
 20
96.5200
 30
0.0000
 40
0.7620
  0
CIRCLE
  8
94
 10
185.9280
 20
96.5200
 30
0.0000
 40
0.2540
  0
CIRCLE
  8
94
 10
187.9600
 20
116.8400
 30
0.0000
 40
0.7620
  0
CIRCLE
  8
94
 10
194.3100
 20
119.3800
 30
0.0000
 40
0.7620
  0
CIRCLE
  8
94
 10
194.3100
 20
114.3000
 30
0.0000
 40
0.7620
  0
CIRCLE
  8
94
 10
194.3100
 20
111.7600
 30
0.0000
 40
0.7620
  0
CIRCLE
  8
94
 10
194.3100
 20
106.6800
 30
0.0000
 40
0.7620
  0
CIRCLE
  8
94
 10
187.9600
 20
109.2200
 30
0.0000
 40
0.7620
  0
LINE
  8
94
 10
182.8800
 20
190.5000
 30
0.0000
 11
203.2000
 21
190.5000
 31
0.0000
  0
LINE
  8
94
 10
203.2000
 20
190.5000
 30
0.0000
 11
203.2000
 21
170.1800
 31
0.0000
  0
LINE
  8
94
 10
203.2000
 20
170.1800
 30
0.0000
 11
182.8800
 21
170.1800
 31
0.0000
  0
LINE
  8
94
 10
182.8800
 20
170.1800
 30
0.0000
 11
182.8800
 21
190.5000
 31
0.0000
  0
LINE
  8
94
 10
195.5800
 20
187.9600
 30
0.0000
 11
200.6600
 21
187.9600
 31
0.0000
  0
LINE
  8
94
 10
200.6600
 20
187.9600
 30
0.0000
 11
200.6600
 21
172.7200
 31
0.0000
  0
LINE
  8
94
 10
200.6600
 20
172.7200
 30
0.0000
 11
195.5800
 21
172.7200
 31
0.0000
  0
LINE
  8
94
 10
195.5800
 20
172.7200
 30
0.0000
 11
195.5800
 21
187.9600
 31
0.0000
  0
TEXT
  7
ISOCP
  8
95
 10
185.4200
 20
194.3100
 30
0.0000
 40
1.7780
  1
U$19
  0
TEXT
  7
ISOCP
  8
96
 10
185.4200
 20
191.7700
 30
0.0000
 40
1.7780
  1
DISPLAY_COUNTER_ELW
  0
LINE
  8
94
 10
177.8000
 20
182.8800
 30
0.0000
 11
182.8800
 21
182.8800
 31
0.0000
  0
TEXT
  7
ISOCP
  8
95
 10
185.2168
 20
182.1180
 30
0.0000
 40
1.5240
  1
+V
  0
LINE
  8
94
 10
177.8000
 20
185.4200
 30
0.0000
 11
182.8800
 21
185.4200
 31
0.0000
  0
TEXT
  7
ISOCP
  8
95
 10
185.2168
 20
184.6580
 30
0.0000
 40
1.5240
  1
COM
  0
LINE
  8
94
 10
177.8000
 20
175.2600
 30
0.0000
 11
182.8800
 21
175.2600
 31
0.0000
  0
TEXT
  7
ISOCP
  8
95
 10
185.2168
 20
174.4980
 30
0.0000
 40
1.5240
  1
COM
  0
LINE
  8
94
 10
177.8000
 20
177.8000
 30
0.0000
 11
182.8800
 21
177.8000
 31
0.0000
  0
TEXT
  7
ISOCP
  8
95
 10
185.2168
 20
177.0380
 30
0.0000
 40
1.5240
  1
RST
  0
LINE
  8
94
 10
177.8000
 20
180.3400
 30
0.0000
 11
182.8800
 21
180.3400
 31
0.0000
  0
TEXT
  7
ISOCP
  8
95
 10
185.2168
 20
179.5780
 30
0.0000
 40
1.5240
  1
SPD
  0
LINE
  8
94
 10
264.1600
 20
147.3200
 30
0.0000
 11
264.1600
 21
149.8600
 31
0.0000
  0
LINE
  8
94
 10
264.1600
 20
149.8600
 30
0.0000
 11
264.1600
 21
152.4000
 31
0.0000
  0
LINE
  8
94
 10
264.1600
 20
152.4000
 30
0.0000
 11
264.1600
 21
154.9400
 31
0.0000
  0
LINE
  8
94
 10
264.1600
 20
154.9400
 30
0.0000
 11
264.1600
 21
157.4800
 31
0.0000
  0
LINE
  8
94
 10
264.1600
 20
157.4800
 30
0.0000
 11
264.1600
 21
160.0200
 31
0.0000
  0
LINE
  8
94
 10
264.1600
 20
160.0200
 30
0.0000
 11
264.1600
 21
162.5600
 31
0.0000
  0
LINE
  8
94
 10
264.1600
 20
162.5600
 30
0.0000
 11
264.1600
 21
165.1000
 31
0.0000
  0
LINE
  8
94
 10
264.1600
 20
165.1000
 30
0.0000
 11
264.1600
 21
167.6400
 31
0.0000
  0
LINE
  8
94
 10
264.1600
 20
167.6400
 30
0.0000
 11
264.1600
 21
170.1800
 31
0.0000
  0
LINE
  8
94
 10
264.1600
 20
167.6400
 30
0.0000
 11
265.6840
 21
167.6400
 31
0.0000
  0
LINE
  8
94
 10
264.1600
 20
165.1000
 30
0.0000
 11
265.6840
 21
165.1000
 31
0.0000
  0
LINE
  8
94
 10
264.1600
 20
162.5600
 30
0.0000
 11
265.6840
 21
162.5600
 31
0.0000
  0
LINE
  8
94
 10
264.1600
 20
149.8600
 30
0.0000
 11
265.6840
 21
149.8600
 31
0.0000
  0
LINE
  8
94
 10
264.1600
 20
152.4000
 30
0.0000
 11
265.6840
 21
152.4000
 31
0.0000
  0
LINE
  8
94
 10
264.1600
 20
154.9400
 30
0.0000
 11
265.6840
 21
154.9400
 31
0.0000
  0
LINE
  8
94
 10
264.1600
 20
160.0200
 30
0.0000
 11
265.6840
 21
160.0200
 31
0.0000
  0
LINE
  8
94
 10
264.1600
 20
157.4800
 30
0.0000
 11
265.6840
 21
157.4800
 31
0.0000
  0
LINE
  8
94
 10
274.3200
 20
147.3200
 30
0.0000
 11
264.1600
 21
147.3200
 31
0.0000
  0
LINE
  8
94
 10
264.1600
 20
170.1800
 30
0.0000
 11
274.3200
 21
170.1800
 31
0.0000
  0
LINE
  8
94
 10
274.3200
 20
170.1800
 30
0.0000
 11
274.3200
 21
167.6400
 31
0.0000
  0
LINE
  8
94
 10
274.3200
 20
167.6400
 30
0.0000
 11
274.3200
 21
165.1000
 31
0.0000
  0
LINE
  8
94
 10
274.3200
 20
165.1000
 30
0.0000
 11
274.3200
 21
162.5600
 31
0.0000
  0
LINE
  8
94
 10
274.3200
 20
162.5600
 30
0.0000
 11
274.3200
 21
160.0200
 31
0.0000
  0
LINE
  8
94
 10
274.3200
 20
160.0200
 30
0.0000
 11
274.3200
 21
157.4800
 31
0.0000
  0
LINE
  8
94
 10
274.3200
 20
157.4800
 30
0.0000
 11
274.3200
 21
154.9400
 31
0.0000
  0
LINE
  8
94
 10
274.3200
 20
154.9400
 30
0.0000
 11
274.3200
 21
152.4000
 31
0.0000
  0
LINE
  8
94
 10
274.3200
 20
152.4000
 30
0.0000
 11
274.3200
 21
149.8600
 31
0.0000
  0
LINE
  8
94
 10
274.3200
 20
149.8600
 30
0.0000
 11
274.3200
 21
147.3200
 31
0.0000
  0
LINE
  8
94
 10
274.3200
 20
167.6400
 30
0.0000
 11
272.7960
 21
167.6400
 31
0.0000
  0
LINE
  8
94
 10
274.3200
 20
165.1000
 30
0.0000
 11
272.7960
 21
165.1000
 31
0.0000
  0
LINE
  8
94
 10
274.3200
 20
162.5600
 30
0.0000
 11
272.7960
 21
162.5600
 31
0.0000
  0
LINE
  8
94
 10
274.3200
 20
160.0200
 30
0.0000
 11
272.7960
 21
160.0200
 31
0.0000
  0
LINE
  8
94
 10
274.3200
 20
157.4800
 30
0.0000
 11
272.7960
 21
157.4800
 31
0.0000
  0
LINE
  8
94
 10
274.3200
 20
154.9400
 30
0.0000
 11
272.7960
 21
154.9400
 31
0.0000
  0
LINE
  8
94
 10
274.3200
 20
152.4000
 30
0.0000
 11
272.7960
 21
152.4000
 31
0.0000
  0
LINE
  8
94
 10
274.3200
 20
149.8600
 30
0.0000
 11
272.7960
 21
149.8600
 31
0.0000
  0
LINE
  8
94
 10
267.7160
 20
149.8600
 30
0.0000
 11
270.7640
 21
149.8600
 31
0.0000
  0
LINE
  8
94
 10
267.7160
 20
152.4000
 30
0.0000
 11
270.7640
 21
152.4000
 31
0.0000
  0
LINE
  8
94
 10
267.7160
 20
154.9400
 30
0.0000
 11
270.7640
 21
154.9400
 31
0.0000
  0
LINE
  8
94
 10
267.7160
 20
157.4800
 30
0.0000
 11
270.7640
 21
157.4800
 31
0.0000
  0
LINE
  8
94
 10
267.7160
 20
160.0200
 30
0.0000
 11
270.7640
 21
160.0200
 31
0.0000
  0
LINE
  8
94
 10
267.7160
 20
162.5600
 30
0.0000
 11
270.7640
 21
162.5600
 31
0.0000
  0
LINE
  8
94
 10
267.7160
 20
165.1000
 30
0.0000
 11
270.7640
 21
165.1000
 31
0.0000
  0
LINE
  8
94
 10
267.7160
 20
167.6400
 30
0.0000
 11
270.7640
 21
167.6400
 31
0.0000
  0
TEXT
  7
ISOCP
  8
94
 10
264.6680
 20
168.4020
 30
0.0000
 40
1.2700
  1
1
  0
TEXT
  7
ISOCP
  8
94
 10
264.4140
 20
147.5740
 30
0.0000
 40
1.2700
  1
14
  0
LINE
  8
94
 10
259.0800
 20
167.6400
 30
0.0000
 11
264.1600
 21
167.6400
 31
0.0000
  0
LINE
  8
94
 10
259.0800
 20
165.1000
 30
0.0000
 11
264.1600
 21
165.1000
 31
0.0000
  0
LINE
  8
94
 10
259.0800
 20
162.5600
 30
0.0000
 11
264.1600
 21
162.5600
 31
0.0000
  0
LINE
  8
94
 10
259.0800
 20
160.0200
 30
0.0000
 11
264.1600
 21
160.0200
 31
0.0000
  0
LINE
  8
94
 10
259.0800
 20
157.4800
 30
0.0000
 11
264.1600
 21
157.4800
 31
0.0000
  0
LINE
  8
94
 10
259.0800
 20
154.9400
 30
0.0000
 11
264.1600
 21
154.9400
 31
0.0000
  0
LINE
  8
94
 10
259.0800
 20
152.4000
 30
0.0000
 11
264.1600
 21
152.4000
 31
0.0000
  0
LINE
  8
94
 10
259.0800
 20
149.8600
 30
0.0000
 11
264.1600
 21
149.8600
 31
0.0000
  0
LINE
  8
94
 10
279.4000
 20
149.8600
 30
0.0000
 11
274.3200
 21
149.8600
 31
0.0000
  0
LINE
  8
94
 10
279.4000
 20
152.4000
 30
0.0000
 11
274.3200
 21
152.4000
 31
0.0000
  0
LINE
  8
94
 10
279.4000
 20
154.9400
 30
0.0000
 11
274.3200
 21
154.9400
 31
0.0000
  0
LINE
  8
94
 10
279.4000
 20
157.4800
 30
0.0000
 11
274.3200
 21
157.4800
 31
0.0000
  0
LINE
  8
94
 10
279.4000
 20
160.0200
 30
0.0000
 11
274.3200
 21
160.0200
 31
0.0000
  0
LINE
  8
94
 10
279.4000
 20
162.5600
 30
0.0000
 11
274.3200
 21
162.5600
 31
0.0000
  0
LINE
  8
94
 10
279.4000
 20
165.1000
 30
0.0000
 11
274.3200
 21
165.1000
 31
0.0000
  0
LINE
  8
94
 10
279.4000
 20
167.6400
 30
0.0000
 11
274.3200
 21
167.6400
 31
0.0000
  0
CIRCLE
  8
94
 10
266.7000
 20
167.6400
 30
0.0000
 40
1.0160
  0
CIRCLE
  8
94
 10
266.7000
 20
165.1000
 30
0.0000
 40
1.0160
  0
CIRCLE
  8
94
 10
266.7000
 20
162.5600
 30
0.0000
 40
1.0160
  0
CIRCLE
  8
94
 10
266.7000
 20
160.0200
 30
0.0000
 40
1.0160
  0
CIRCLE
  8
94
 10
266.7000
 20
157.4800
 30
0.0000
 40
1.0160
  0
CIRCLE
  8
94
 10
266.7000
 20
154.9400
 30
0.0000
 40
1.0160
  0
CIRCLE
  8
94
 10
266.7000
 20
154.9400
 30
0.0000
 40
1.0160
  0
CIRCLE
  8
94
 10
266.7000
 20
152.4000
 30
0.0000
 40
1.0160
  0
CIRCLE
  8
94
 10
266.7000
 20
149.8600
 30
0.0000
 40
1.0160
  0
CIRCLE
  8
94
 10
271.7800
 20
154.9400
 30
0.0000
 40
1.0160
  0
CIRCLE
  8
94
 10
271.7800
 20
157.4800
 30
0.0000
 40
1.0160
  0
CIRCLE
  8
94
 10
271.7800
 20
160.0200
 30
0.0000
 40
1.0160
  0
CIRCLE
  8
94
 10
271.7800
 20
162.5600
 30
0.0000
 40
1.0160
  0
CIRCLE
  8
94
 10
271.7800
 20
162.5600
 30
0.0000
 40
1.0160
  0
CIRCLE
  8
94
 10
271.7800
 20
165.1000
 30
0.0000
 40
1.0160
  0
CIRCLE
  8
94
 10
271.7800
 20
149.8600
 30
0.0000
 40
1.0160
  0
CIRCLE
  8
94
 10
271.7800
 20
152.4000
 30
0.0000
 40
1.0160
  0
CIRCLE
  8
94
 10
271.7800
 20
154.9400
 30
0.0000
 40
1.0160
  0
CIRCLE
  8
94
 10
271.7800
 20
167.6400
 30
0.0000
 40
1.0160
  0
ARC
  8
94
 10
307.3400
 20
171.4500
 30
0.0000
 40
1.2700
 50
270.0000
 51
90.0000
  0
ARC
  8
94
 10
307.3400
 20
168.9100
 30
0.0000
 40
1.2700
 50
270.0000
 51
90.0000
  0
ARC
  8
94
 10
307.3400
 20
161.2900
 30
0.0000
 40
1.2700
 50
270.0000
 51
90.0000
  0
ARC
  8
94
 10
307.3400
 20
158.7500
 30
0.0000
 40
1.2700
 50
270.0000
 51
90.0000
  0
ARC
  8
94
 10
323.8500
 20
142.2400
 30
0.0000
 40
1.2700
 50
0.0000
 51
180.0000
  0
ARC
  8
94
 10
326.3900
 20
142.2400
 30
0.0000
 40
1.2700
 50
0.0000
 51
180.0000
  0
ARC
  8
94
 10
334.0100
 20
142.2400
 30
0.0000
 40
1.2700
 50
0.0000
 51
180.0000
  0
ARC
  8
94
 10
336.5500
 20
142.2400
 30
0.0000
 40
1.2700
 50
0.0000
 51
180.0000
  0
TEXT
  7
ISOCP
  8
94
 10
325.1200
 20
167.6400
 30
0.0000
 40
1.7780
  1
Stepper
  0
TEXT
  7
ISOCP
  8
94
 10
325.1200
 20
165.1000
 30
0.0000
 40
1.7780
  1
Unipolar
  0
LINE
  8
94
 10
304.8000
 20
172.7200
 30
0.0000
 11
307.3400
 21
172.7200
 31
0.0000
  0
TEXT
  7
ISOCP
  8
95
 10
309.6768
 20
171.9580
 30
0.0000
 40
1.5240
  1
A1(BK)
  0
LINE
  8
94
 10
304.8000
 20
162.5600
 30
0.0000
 11
307.3400
 21
162.5600
 31
0.0000
  0
TEXT
  7
ISOCP
  8
95
 10
309.6768
 20
161.7980
 30
0.0000
 40
1.5240
  1
A2(OR/WH)
  0
LINE
  8
94
 10
304.8000
 20
167.6400
 30
0.0000
 11
307.3400
 21
167.6400
 31
0.0000
  0
TEXT
  7
ISOCP
  8
95
 10
309.6768
 20
166.8780
 30
0.0000
 40
1.5240
  1
A3(BK/WH)
  0
LINE
  8
94
 10
304.8000
 20
157.4800
 30
0.0000
 11
307.3400
 21
157.4800
 31
0.0000
  0
TEXT
  7
ISOCP
  8
95
 10
309.6768
 20
156.7180
 30
0.0000
 40
1.5240
  1
A4(OR)
  0
LINE
  8
94
 10
322.5800
 20
139.7000
 30
0.0000
 11
322.5800
 21
142.2400
 31
0.0000
  0
TEXT
  7
ISOCP
  8
95
 10
323.3420
 20
144.5768
 30
0.0000
 40
1.5240
  1
B5(RD)
 50
90.0000
  0
LINE
  8
94
 10
332.7400
 20
139.7000
 30
0.0000
 11
332.7400
 21
142.2400
 31
0.0000
  0
TEXT
  7
ISOCP
  8
95
 10
333.5020
 20
144.5768
 30
0.0000
 40
1.5240
  1
B6(YL/WH)
 50
90.0000
  0
LINE
  8
94
 10
327.6600
 20
139.7000
 30
0.0000
 11
327.6600
 21
142.2400
 31
0.0000
  0
TEXT
  7
ISOCP
  8
95
 10
328.4220
 20
144.5768
 30
0.0000
 40
1.5240
  1
B7(RD/WH)
 50
90.0000
  0
LINE
  8
94
 10
337.8200
 20
139.7000
 30
0.0000
 11
337.8200
 21
142.2400
 31
0.0000
  0
TEXT
  7
ISOCP
  8
95
 10
338.5820
 20
144.5768
 30
0.0000
 40
1.5240
  1
B8(YL)
 50
90.0000
  0
CIRCLE
  8
94
 10
330.2000
 20
165.1000
 30
0.0000
 40
8.0321
  0
ARC
  8
94
 10
325.1200
 20
215.9000
 30
0.0000
 40
7.6200
 50
0.0000
 51
180.0000
  0
LINE
  8
94
 10
317.5000
 20
215.9000
 30
0.0000
 11
317.5000
 21
203.2000
 31
0.0000
  0
LINE
  8
94
 10
317.5000
 20
203.2000
 30
0.0000
 11
332.7400
 21
203.2000
 31
0.0000
  0
LINE
  8
94
 10
332.7400
 20
203.2000
 30
0.0000
 11
332.7400
 21
215.9000
 31
0.0000
  0
TEXT
  7
ISOCP
  8
96
 10
320.0400
 20
224.0280
 30
0.0000
 40
1.7780
  1
ENCODER_1000SI
  0
TEXT
  7
ISOCP
  8
94
 10
320.0400
 20
226.0600
 30
0.0000
 40
1.7780
  1
Encoder
  0
LINE
  8
94
 10
327.6600
 20
198.1200
 30
0.0000
 11
327.6600
 21
203.2000
 31
0.0000
  0
TEXT
  7
ISOCP
  8
95
 10
328.4220
 20
205.5368
 30
0.0000
 40
1.5240
  1
+5VDC
 50
90.0000
  0
LINE
  8
94
 10
325.1200
 20
198.1200
 30
0.0000
 11
325.1200
 21
203.2000
 31
0.0000
  0
TEXT
  7
ISOCP
  8
95
 10
325.8820
 20
205.5368
 30
0.0000
 40
1.5240
  1
CH_A
 50
90.0000
  0
LINE
  8
94
 10
330.2000
 20
198.1200
 30
0.0000
 11
330.2000
 21
203.2000
 31
0.0000
  0
TEXT
  7
ISOCP
  8
95
 10
330.9620
 20
205.5368
 30
0.0000
 40
1.5240
  1
CH_B
 50
90.0000
  0
LINE
  8
94
 10
320.0400
 20
198.1200
 30
0.0000
 11
320.0400
 21
203.2000
 31
0.0000
  0
TEXT
  7
ISOCP
  8
95
 10
320.8020
 20
205.5368
 30
0.0000
 40
1.5240
  1
GROUND
 50
90.0000
  0
LINE
  8
94
 10
322.5800
 20
198.1200
 30
0.0000
 11
322.5800
 21
203.2000
 31
0.0000
  0
TEXT
  7
ISOCP
  8
95
 10
323.3420
 20
205.5368
 30
0.0000
 40
1.5240
  1
INDEX
 50
90.0000
  0
CIRCLE
  8
94
 10
325.1200
 20
215.9000
 30
0.0000
 40
2.5526
  0
LINE
  8
91
 10
271.7800
 20
96.5200
 30
0.0000
 11
330.2000
 21
96.5200
 31
0.0000
  0
LINE
  8
91
 10
330.2000
 20
96.5200
 30
0.0000
 11
330.2000
 21
48.2600
 31
0.0000
  0
LINE
  8
91
 10
330.2000
 20
48.2600
 30
0.0000
 11
271.7800
 21
48.2600
 31
0.0000
  0
LINE
  8
91
 10
177.8000
 20
185.4200
 30
0.0000
 11
142.2400
 21
185.4200
 31
0.0000
  0
LINE
  8
91
 10
142.2400
 20
185.4200
 30
0.0000
 11
142.2400
 21
170.1800
 31
0.0000
  0
LINE
  8
91
 10
142.2400
 20
170.1800
 30
0.0000
 11
142.2400
 21
91.4400
 31
0.0000
  0
LINE
  8
91
 10
137.1600
 20
198.1200
 30
0.0000
 11
142.2400
 21
198.1200
 31
0.0000
  0
LINE
  8
91
 10
142.2400
 20
198.1200
 30
0.0000
 11
142.2400
 21
185.4200
 31
0.0000
  0
LINE
  8
91
 10
30.4800
 20
170.1800
 30
0.0000
 11
142.2400
 21
170.1800
 31
0.0000
  0
LINE
  8
91
 10
172.7200
 20
91.4400
 30
0.0000
 11
142.2400
 21
91.4400
 31
0.0000
  0
CIRCLE
  8
91
 10
30.4800
 20
170.1800
 30
0.0000
 40
0.5080
  0
CIRCLE
  8
91
 10
142.2400
 20
185.4200
 30
0.0000
 40
0.5080
  0
CIRCLE
  8
91
 10
142.2400
 20
170.1800
 30
0.0000
 40
0.5080
  0
LINE
  8
91
 10
101.6000
 20
180.3400
 30
0.0000
 11
177.8000
 21
180.3400
 31
0.0000
  0
LINE
  8
91
 10
271.7800
 20
48.2600
 30
0.0000
 11
271.7800
 21
96.5200
 31
0.0000
  0
LINE
  8
91
 10
81.2800
 20
175.2600
 30
0.0000
 11
30.4800
 21
175.2600
 31
0.0000
  0
LINE
  8
91
 10
81.2800
 20
180.3400
 30
0.0000
 11
81.2800
 21
175.2600
 31
0.0000
  0
LINE
  8
91
 10
81.2800
 20
180.3400
 30
0.0000
 11
93.9800
 21
180.3400
 31
0.0000
  0
CIRCLE
  8
91
 10
30.4800
 20
175.2600
 30
0.0000
 40
0.5080
  0
LINE
  8
91
 10
30.4800
 20
167.6400
 30
0.0000
 11
162.5600
 21
167.6400
 31
0.0000
  0
LINE
  8
91
 10
162.5600
 20
167.6400
 30
0.0000
 11
162.5600
 21
129.5400
 31
0.0000
  0
LINE
  8
91
 10
162.5600
 20
129.5400
 30
0.0000
 11
218.4400
 21
129.5400
 31
0.0000
  0
LINE
  8
91
 10
218.4400
 20
129.5400
 30
0.0000
 11
218.4400
 21
114.3000
 31
0.0000
  0
LINE
  8
91
 10
218.4400
 20
114.3000
 30
0.0000
 11
208.2800
 21
114.3000
 31
0.0000
  0
CIRCLE
  8
91
 10
30.4800
 20
167.6400
 30
0.0000
 40
0.5080
  0
LINE
  8
91
 10
137.1600
 20
165.1000
 30
0.0000
 11
30.4800
 21
165.1000
 31
0.0000
  0
LINE
  8
91
 10
137.1600
 20
165.1000
 30
0.0000
 11
137.1600
 21
83.8200
 31
0.0000
  0
LINE
  8
91
 10
137.1600
 20
83.8200
 30
0.0000
 11
213.3600
 21
83.8200
 31
0.0000
  0
LINE
  8
91
 10
213.3600
 20
83.8200
 30
0.0000
 11
213.3600
 21
96.5200
 31
0.0000
  0
LINE
  8
91
 10
213.3600
 20
96.5200
 30
0.0000
 11
208.2800
 21
96.5200
 31
0.0000
  0
CIRCLE
  8
91
 10
30.4800
 20
165.1000
 30
0.0000
 40
0.5080
  0
LINE
  8
91
 10
30.4800
 20
162.5600
 30
0.0000
 11
157.4800
 21
162.5600
 31
0.0000
  0
LINE
  8
91
 10
157.4800
 20
162.5600
 30
0.0000
 11
157.4800
 21
144.7800
 31
0.0000
  0
LINE
  8
91
 10
157.4800
 20
144.7800
 30
0.0000
 11
172.7200
 21
144.7800
 31
0.0000
  0
CIRCLE
  8
91
 10
30.4800
 20
162.5600
 30
0.0000
 40
0.5080
  0
LINE
  8
91
 10
177.8000
 20
182.8800
 30
0.0000
 11
147.3200
 21
182.8800
 31
0.0000
  0
LINE
  8
91
 10
147.3200
 20
182.8800
 30
0.0000
 11
147.3200
 21
203.2000
 31
0.0000
  0
LINE
  8
91
 10
147.3200
 20
203.2000
 30
0.0000
 11
137.1600
 21
203.2000
 31
0.0000
  0
LINE
  8
91
 10
147.3200
 20
160.0200
 30
0.0000
 11
30.4800
 21
160.0200
 31
0.0000
  0
LINE
  8
91
 10
147.3200
 20
160.0200
 30
0.0000
 11
147.3200
 21
182.8800
 31
0.0000
  0
CIRCLE
  8
91
 10
30.4800
 20
160.0200
 30
0.0000
 40
0.5080
  0
CIRCLE
  8
91
 10
147.3200
 20
182.8800
 30
0.0000
 40
0.5080
  0
LINE
  8
91
 10
208.2800
 20
106.6800
 30
0.0000
 11
218.4400
 21
106.6800
 31
0.0000
  0
LINE
  8
91
 10
218.4400
 20
106.6800
 30
0.0000
 11
218.4400
 21
78.7400
 31
0.0000
  0
LINE
  8
91
 10
218.4400
 20
78.7400
 30
0.0000
 11
132.0800
 21
78.7400
 31
0.0000
  0
LINE
  8
91
 10
132.0800
 20
78.7400
 30
0.0000
 11
132.0800
 21
157.4800
 31
0.0000
  0
LINE
  8
91
 10
132.0800
 20
157.4800
 30
0.0000
 11
30.4800
 21
157.4800
 31
0.0000
  0
CIRCLE
  8
91
 10
30.4800
 20
157.4800
 30
0.0000
 40
0.5080
  0
LINE
  8
91
 10
172.7200
 20
144.7800
 30
0.0000
 11
180.3400
 21
144.7800
 31
0.0000
  0
LINE
  8
91
 10
167.6400
 20
134.6200
 30
0.0000
 11
203.2000
 21
134.6200
 31
0.0000
  0
LINE
  8
91
 10
203.2000
 20
134.6200
 30
0.0000
 11
203.2000
 21
144.7800
 31
0.0000
  0
LINE
  8
91
 10
203.2000
 20
144.7800
 30
0.0000
 11
200.6600
 21
144.7800
 31
0.0000
  0
LINE
  8
91
 10
114.3000
 20
116.8400
 30
0.0000
 11
114.3000
 21
172.7200
 31
0.0000
  0
LINE
  8
91
 10
114.3000
 20
172.7200
 30
0.0000
 11
114.3000
 21
198.1200
 31
0.0000
  0
LINE
  8
91
 10
114.3000
 20
198.1200
 30
0.0000
 11
121.9200
 21
198.1200
 31
0.0000
  0
LINE
  8
91
 10
121.9200
 20
203.2000
 30
0.0000
 11
114.3000
 21
203.2000
 31
0.0000
  0
LINE
  8
91
 10
114.3000
 20
203.2000
 30
0.0000
 11
114.3000
 21
198.1200
 31
0.0000
  0
LINE
  8
91
 10
114.3000
 20
172.7200
 30
0.0000
 11
30.4800
 21
172.7200
 31
0.0000
  0
LINE
  8
91
 10
172.7200
 20
116.8400
 30
0.0000
 11
167.6400
 21
116.8400
 31
0.0000
  0
LINE
  8
91
 10
167.6400
 20
116.8400
 30
0.0000
 11
114.3000
 21
116.8400
 31
0.0000
  0
LINE
  8
91
 10
172.7200
 20
109.2200
 30
0.0000
 11
167.6400
 21
109.2200
 31
0.0000
  0
LINE
  8
91
 10
167.6400
 20
109.2200
 30
0.0000
 11
167.6400
 21
116.8400
 31
0.0000
  0
LINE
  8
91
 10
167.6400
 20
134.6200
 30
0.0000
 11
167.6400
 21
116.8400
 31
0.0000
  0
LINE
  8
91
 10
167.6400
 20
101.6000
 30
0.0000
 11
172.7200
 21
101.6000
 31
0.0000
  0
LINE
  8
91
 10
167.6400
 20
109.2200
 30
0.0000
 11
167.6400
 21
101.6000
 31
0.0000
  0
CIRCLE
  8
91
 10
30.4800
 20
172.7200
 30
0.0000
 40
0.5080
  0
CIRCLE
  8
91
 10
114.3000
 20
198.1200
 30
0.0000
 40
0.5080
  0
CIRCLE
  8
91
 10
114.3000
 20
172.7200
 30
0.0000
 40
0.5080
  0
CIRCLE
  8
91
 10
167.6400
 20
116.8400
 30
0.0000
 40
0.5080
  0
CIRCLE
  8
91
 10
167.6400
 20
109.2200
 30
0.0000
 40
0.5080
  0
LINE
  8
91
 10
297.1800
 20
172.7200
 30
0.0000
 11
304.8000
 21
172.7200
 31
0.0000
  0
LINE
  8
91
 10
279.4000
 20
157.4800
 30
0.0000
 11
297.1800
 21
157.4800
 31
0.0000
  0
LINE
  8
91
 10
297.1800
 20
157.4800
 30
0.0000
 11
297.1800
 21
162.5600
 31
0.0000
  0
LINE
  8
91
 10
297.1800
 20
162.5600
 30
0.0000
 11
297.1800
 21
172.7200
 31
0.0000
  0
LINE
  8
91
 10
304.8000
 20
162.5600
 30
0.0000
 11
297.1800
 21
162.5600
 31
0.0000
  0
CIRCLE
  8
91
 10
297.1800
 20
162.5600
 30
0.0000
 40
0.5080
  0
LINE
  8
91
 10
304.8000
 20
157.4800
 30
0.0000
 11
299.7200
 21
157.4800
 31
0.0000
  0
LINE
  8
91
 10
279.4000
 20
154.9400
 30
0.0000
 11
299.7200
 21
154.9400
 31
0.0000
  0
LINE
  8
91
 10
299.7200
 20
154.9400
 30
0.0000
 11
299.7200
 21
157.4800
 31
0.0000
  0
LINE
  8
91
 10
304.8000
 20
167.6400
 30
0.0000
 11
299.7200
 21
167.6400
 31
0.0000
  0
LINE
  8
91
 10
299.7200
 20
167.6400
 30
0.0000
 11
299.7200
 21
157.4800
 31
0.0000
  0
CIRCLE
  8
91
 10
299.7200
 20
157.4800
 30
0.0000
 40
0.5080
  0
LINE
  8
91
 10
337.8200
 20
139.7000
 30
0.0000
 11
337.8200
 21
127.0000
 31
0.0000
  0
LINE
  8
91
 10
337.8200
 20
127.0000
 30
0.0000
 11
327.6600
 21
127.0000
 31
0.0000
  0
LINE
  8
91
 10
327.6600
 20
127.0000
 30
0.0000
 11
299.7200
 21
127.0000
 31
0.0000
  0
LINE
  8
91
 10
299.7200
 20
127.0000
 30
0.0000
 11
299.7200
 21
149.8600
 31
0.0000
  0
LINE
  8
91
 10
279.4000
 20
149.8600
 30
0.0000
 11
299.7200
 21
149.8600
 31
0.0000
  0
LINE
  8
91
 10
327.6600
 20
139.7000
 30
0.0000
 11
327.6600
 21
127.0000
 31
0.0000
  0
CIRCLE
  8
91
 10
327.6600
 20
127.0000
 30
0.0000
 40
0.5080
  0
LINE
  8
91
 10
322.5800
 20
139.7000
 30
0.0000
 11
322.5800
 21
129.5400
 31
0.0000
  0
LINE
  8
91
 10
322.5800
 20
129.5400
 30
0.0000
 11
297.1800
 21
129.5400
 31
0.0000
  0
LINE
  8
91
 10
297.1800
 20
129.5400
 30
0.0000
 11
297.1800
 21
152.4000
 31
0.0000
  0
LINE
  8
91
 10
279.4000
 20
152.4000
 30
0.0000
 11
297.1800
 21
152.4000
 31
0.0000
  0
LINE
  8
91
 10
332.7400
 20
139.7000
 30
0.0000
 11
332.7400
 21
129.5400
 31
0.0000
  0
LINE
  8
91
 10
332.7400
 20
129.5400
 30
0.0000
 11
322.5800
 21
129.5400
 31
0.0000
  0
CIRCLE
  8
91
 10
322.5800
 20
129.5400
 30
0.0000
 40
0.5080
  0
LINE
  8
91
 10
279.4000
 20
167.6400
 30
0.0000
 11
281.9400
 21
167.6400
 31
0.0000
  0
LINE
  8
91
 10
281.9400
 20
167.6400
 30
0.0000
 11
281.9400
 21
195.5800
 31
0.0000
  0
LINE
  8
91
 10
281.9400
 20
195.5800
 30
0.0000
 11
320.0400
 21
195.5800
 31
0.0000
  0
LINE
  8
91
 10
320.0400
 20
195.5800
 30
0.0000
 11
320.0400
 21
198.1200
 31
0.0000
  0
LINE
  8
91
 10
279.4000
 20
165.1000
 30
0.0000
 11
284.4800
 21
165.1000
 31
0.0000
  0
LINE
  8
91
 10
284.4800
 20
165.1000
 30
0.0000
 11
284.4800
 21
193.0400
 31
0.0000
  0
LINE
  8
91
 10
284.4800
 20
193.0400
 30
0.0000
 11
325.1200
 21
193.0400
 31
0.0000
  0
LINE
  8
91
 10
325.1200
 20
193.0400
 30
0.0000
 11
325.1200
 21
198.1200
 31
0.0000
  0
LINE
  8
91
 10
279.4000
 20
162.5600
 30
0.0000
 11
287.0200
 21
162.5600
 31
0.0000
  0
LINE
  8
91
 10
287.0200
 20
162.5600
 30
0.0000
 11
287.0200
 21
190.5000
 31
0.0000
  0
LINE
  8
91
 10
287.0200
 20
190.5000
 30
0.0000
 11
327.6600
 21
190.5000
 31
0.0000
  0
LINE
  8
91
 10
327.6600
 20
190.5000
 30
0.0000
 11
327.6600
 21
198.1200
 31
0.0000
  0
LINE
  8
91
 10
279.4000
 20
160.0200
 30
0.0000
 11
289.5600
 21
160.0200
 31
0.0000
  0
LINE
  8
91
 10
289.5600
 20
160.0200
 30
0.0000
 11
289.5600
 21
187.9600
 31
0.0000
  0
LINE
  8
91
 10
289.5600
 20
187.9600
 30
0.0000
 11
330.2000
 21
187.9600
 31
0.0000
  0
LINE
  8
91
 10
330.2000
 20
187.9600
 30
0.0000
 11
330.2000
 21
198.1200
 31
0.0000
  0
LINE
  8
91
 10
259.0800
 20
167.6400
 30
0.0000
 11
256.5400
 21
167.6400
 31
0.0000
  0
LINE
  8
91
 10
256.5400
 20
167.6400
 30
0.0000
 11
256.5400
 21
172.7200
 31
0.0000
  0
LINE
  8
91
 10
256.5400
 20
172.7200
 30
0.0000
 11
241.3000
 21
172.7200
 31
0.0000
  0
CIRCLE
  8
91
 10
241.3000
 20
172.7200
 30
0.0000
 40
0.5080
  0
LINE
  8
91
 10
259.0800
 20
165.1000
 30
0.0000
 11
254.0000
 21
165.1000
 31
0.0000
  0
LINE
  8
91
 10
254.0000
 20
165.1000
 30
0.0000
 11
254.0000
 21
170.1800
 31
0.0000
  0
LINE
  8
91
 10
254.0000
 20
170.1800
 30
0.0000
 11
241.3000
 21
170.1800
 31
0.0000
  0
CIRCLE
  8
91
 10
241.3000
 20
170.1800
 30
0.0000
 40
0.5080
  0
LINE
  8
91
 10
259.0800
 20
162.5600
 30
0.0000
 11
251.4600
 21
162.5600
 31
0.0000
  0
LINE
  8
91
 10
251.4600
 20
162.5600
 30
0.0000
 11
251.4600
 21
167.6400
 31
0.0000
  0
LINE
  8
91
 10
251.4600
 20
167.6400
 30
0.0000
 11
241.3000
 21
167.6400
 31
0.0000
  0
CIRCLE
  8
91
 10
241.3000
 20
167.6400
 30
0.0000
 40
0.5080
  0
LINE
  8
91
 10
259.0800
 20
160.0200
 30
0.0000
 11
248.9200
 21
160.0200
 31
0.0000
  0
LINE
  8
91
 10
248.9200
 20
160.0200
 30
0.0000
 11
248.9200
 21
165.1000
 31
0.0000
  0
LINE
  8
91
 10
248.9200
 20
165.1000
 30
0.0000
 11
241.3000
 21
165.1000
 31
0.0000
  0
CIRCLE
  8
91
 10
241.3000
 20
165.1000
 30
0.0000
 40
0.5080
  0
LINE
  8
91
 10
259.0800
 20
149.8600
 30
0.0000
 11
256.5400
 21
149.8600
 31
0.0000
  0
LINE
  8
91
 10
256.5400
 20
149.8600
 30
0.0000
 11
256.5400
 21
144.7800
 31
0.0000
  0
LINE
  8
91
 10
256.5400
 20
144.7800
 30
0.0000
 11
241.3000
 21
144.7800
 31
0.0000
  0
CIRCLE
  8
91
 10
241.3000
 20
144.7800
 30
0.0000
 40
0.5080
  0
LINE
  8
91
 10
259.0800
 20
152.4000
 30
0.0000
 11
254.0000
 21
152.4000
 31
0.0000
  0
LINE
  8
91
 10
254.0000
 20
152.4000
 30
0.0000
 11
254.0000
 21
147.3200
 31
0.0000
  0
LINE
  8
91
 10
254.0000
 20
147.3200
 30
0.0000
 11
241.3000
 21
147.3200
 31
0.0000
  0
CIRCLE
  8
91
 10
241.3000
 20
147.3200
 30
0.0000
 40
0.5080
  0
LINE
  8
91
 10
259.0800
 20
154.9400
 30
0.0000
 11
251.4600
 21
154.9400
 31
0.0000
  0
LINE
  8
91
 10
251.4600
 20
154.9400
 30
0.0000
 11
251.4600
 21
149.8600
 31
0.0000
  0
LINE
  8
91
 10
251.4600
 20
149.8600
 30
0.0000
 11
241.3000
 21
149.8600
 31
0.0000
  0
CIRCLE
  8
91
 10
241.3000
 20
149.8600
 30
0.0000
 40
0.5080
  0
LINE
  8
91
 10
259.0800
 20
157.4800
 30
0.0000
 11
248.9200
 21
157.4800
 31
0.0000
  0
LINE
  8
91
 10
248.9200
 20
157.4800
 30
0.0000
 11
248.9200
 21
152.4000
 31
0.0000
  0
LINE
  8
91
 10
248.9200
 20
152.4000
 30
0.0000
 11
241.3000
 21
152.4000
 31
0.0000
  0
CIRCLE
  8
91
 10
241.3000
 20
152.4000
 30
0.0000
 40
0.5080
  0
ENDSEC
  0
EOF
