  0
SECTION
  2
HEADER
  9
$ACADVER
  1
AC1009
  9
$FILLMODE
 70
0
  9
$EXTMIN
 10
-0.5080
 20
-0.5927
 30
0.0000
  9
$EXTMAX
 10
388.2495
 20
260.9427
 30
0.0000
  0
ENDSEC
  0
SECTION
  2
TABLES
  0
TABLE
  2
LTYPE
 70
1
  0
LTYPE
  2
CONTINUOUS
 70
64
  3
Solid line
 72
65
 73
0
 40
0
  0
ENDTAB
  0
TABLE
  2
LAYER
 70
255
  0
LAYER
  2
91
 70
64
 62
94
  6
CONTINUOUS
  0
LAYER
  2
92
 70
64
 62
174
  6
CONTINUOUS
  0
LAYER
  2
94
 70
64
 62
14
  6
CONTINUOUS
  0
LAYER
  2
95
 70
64
 62
251
  6
CONTINUOUS
  0
LAYER
  2
96
 70
64
 62
251
  6
CONTINUOUS
  0
LAYER
  2
97
 70
64
 62
251
  6
CONTINUOUS
  0
LAYER
  2
98
 70
64
 62
54
  6
CONTINUOUS
  0
LAYER
  2
199
 70
64
 62
251
  6
CONTINUOUS
  0
LAYER
  2
200
 70
64
 62
174
  6
CONTINUOUS
  0
ENDTAB
  0
ENDSEC
  0
SECTION
  2
BLOCKS
  0
BLOCK
  8
0
  2
RECT
 70
64
 10
0.0000
 20
0.0000
 30
0.0000
  3
RECT
  0
SOLID
  8
0
 10
-0.5000
 20
-0.5000
 30
0.0000
 11
0.5000
 21
-0.5000
 31
0.0000
 12
-0.5000
 22
0.5000
 32
0.0000
 13
0.5000
 23
0.5000
 33
0.0000
  0
ENDBLK
  8
0
  0
BLOCK
  8
0
  2
PIE
 70
64
 10
0.0000
 20
0.0000
 30
0.0000
  3
PIE
  0
CIRCLE
  8
0
 10
0.0000
 20
0.0000
 30
0.0000
 40
0.5000
  0
ENDBLK
  8
0
  0
ENDSEC
  0
SECTION
  2
ENTITIES
  0
TEXT
  7
ISOCP
  8
94
 10
149.8600
 20
238.7600
 30
0.0000
 40
5.0800
  1
RABBIT/INTERFACE BOARD
  0
TEXT
  7
ISOCP
  8
94
 10
332.7400
 20
10.1600
 30
0.0000
 40
1.7780
  1
Rabbit/Interface Board Connections
  0
TEXT
  7
ISOCP
  8
94
 10
332.7400
 20
5.0800
 30
0.0000
 40
1.7780
  1
MJC
  0
TEXT
  7
ISOCP
  8
94
 10
17.7800
 20
203.2000
 30
0.0000
 40
1.7780
  1
DC1
  0
TEXT
  7
ISOCP
  8
94
 10
17.7800
 20
200.6600
 30
0.0000
 40
1.7780
  1
GND1
  0
TEXT
  7
ISOCP
  8
94
 10
17.7800
 20
193.0400
 30
0.0000
 40
1.7780
  1
W7
  0
TEXT
  7
ISOCP
  8
94
 10
17.7800
 20
187.9600
 30
0.0000
 40
1.7780
  1
W8
  0
TEXT
  7
ISOCP
  8
94
 10
17.7800
 20
175.2600
 30
0.0000
 40
1.7780
  1
DC4
  0
TEXT
  7
ISOCP
  8
94
 10
17.7800
 20
149.8600
 30
0.0000
 40
1.7780
  1
DC3
  0
TEXT
  7
ISOCP
  8
94
 10
17.7800
 20
167.6400
 30
0.0000
 40
1.7780
  1
W5
  0
TEXT
  7
ISOCP
  8
94
 10
17.7800
 20
162.5600
 30
0.0000
 40
1.7780
  1
W6
  0
TEXT
  7
ISOCP
  8
94
 10
17.7800
 20
142.2400
 30
0.0000
 40
1.7780
  1
W17
  0
TEXT
  7
ISOCP
  8
94
 10
17.7800
 20
139.7000
 30
0.0000
 40
1.7780
  1
W18
  0
TEXT
  7
ISOCP
  8
94
 10
17.7800
 20
134.6200
 30
0.0000
 40
1.7780
  1
W16
  0
TEXT
  7
ISOCP
  8
94
 10
17.7800
 20
111.7600
 30
0.0000
 40
1.7780
  1
W11
  0
TEXT
  7
ISOCP
  8
94
 10
17.7800
 20
104.1400
 30
0.0000
 40
1.7780
  1
W1
  0
TEXT
  7
ISOCP
  8
94
 10
17.7800
 20
106.6800
 30
0.0000
 40
1.7780
  1
W2
  0
TEXT
  7
ISOCP
  8
94
 10
17.7800
 20
99.0600
 30
0.0000
 40
1.7780
  1
W15
  0
TEXT
  7
ISOCP
  8
94
 10
17.7800
 20
96.5200
 30
0.0000
 40
1.7780
  1
W13
  0
TEXT
  7
ISOCP
  8
94
 10
17.7800
 20
93.9800
 30
0.0000
 40
1.7780
  1
W12
  0
TEXT
  7
ISOCP
  8
94
 10
360.6800
 20
208.2800
 30
0.0000
 40
1.7780
  1
W3
  0
TEXT
  7
ISOCP
  8
94
 10
360.6800
 20
205.7400
 30
0.0000
 40
1.7780
  1
W10
  0
TEXT
  7
ISOCP
  8
94
 10
360.6800
 20
203.2000
 30
0.0000
 40
1.7780
  1
W4
  0
TEXT
  7
ISOCP
  8
94
 10
360.6800
 20
198.1200
 30
0.0000
 40
1.7780
  1
W14
  0
TEXT
  7
ISOCP
  8
94
 10
360.6800
 20
190.5000
 30
0.0000
 40
1.7780
  1
W23
  0
TEXT
  7
ISOCP
  8
94
 10
360.6800
 20
187.9600
 30
0.0000
 40
1.7780
  1
W24
  0
TEXT
  7
ISOCP
  8
94
 10
363.2200
 20
93.9800
 30
0.0000
 40
1.7780
  1
DC2
  0
TEXT
  7
ISOCP
  8
94
 10
363.2200
 20
91.4400
 30
0.0000
 40
1.7780
  1
GND2
  0
TEXT
  7
ISOCP
  8
94
 10
360.6800
 20
149.8600
 30
0.0000
 40
1.7780
  1
W19
  0
TEXT
  7
ISOCP
  8
94
 10
360.6800
 20
154.9400
 30
0.0000
 40
1.7780
  1
W20
  0
TEXT
  7
ISOCP
  8
94
 10
360.6800
 20
152.4000
 30
0.0000
 40
1.7780
  1
W21
  0
TEXT
  7
ISOCP
  8
94
 10
360.6800
 20
147.3200
 30
0.0000
 40
1.7780
  1
W22
  0
TEXT
  7
ISOCP
  8
94
 10
96.5200
 20
43.1800
 30
0.0000
 40
1.7780
  1
JP1 - JUMPER ON GND
  0
TEXT
  7
ISOCP
  8
94
 10
96.5200
 20
40.6400
 30
0.0000
 40
1.7780
  1
JP2 - JUMPER ON GND
  0
TEXT
  7
ISOCP
  8
94
 10
96.5200
 20
38.1000
 30
0.0000
 40
1.7780
  1
JP8 - JUMPER ON GND
  0
TEXT
  7
ISOCP
  8
94
 10
96.5200
 20
35.5600
 30
0.0000
 40
1.7780
  1
JP9 - JUMPER ON GND
  0
TEXT
  7
ISOCP
  8
94
 10
96.5200
 20
50.8000
 30
0.0000
 40
1.7780
  1
NOTE
  0
TEXT
  7
ISOCP
  8
94
 10
96.5200
 20
48.2600
 30
0.0000
 40
1.7780
  1
THE FOLLOWING JUMPERS MUST BE IN PLACE
  0
LINE
  8
94
 10
0.0000
 20
0.0000
 30
0.0000
 11
50.8000
 21
0.0000
 31
0.0000
  0
LINE
  8
94
 10
50.8000
 20
0.0000
 30
0.0000
 11
98.4250
 21
0.0000
 31
0.0000
  0
LINE
  8
94
 10
98.4250
 20
0.0000
 30
0.0000
 11
146.0500
 21
0.0000
 31
0.0000
  0
LINE
  8
94
 10
146.0500
 20
0.0000
 30
0.0000
 11
193.6750
 21
0.0000
 31
0.0000
  0
LINE
  8
94
 10
193.6750
 20
0.0000
 30
0.0000
 11
241.3000
 21
0.0000
 31
0.0000
  0
LINE
  8
94
 10
241.3000
 20
0.0000
 30
0.0000
 11
288.9250
 21
0.0000
 31
0.0000
  0
LINE
  8
94
 10
288.9250
 20
0.0000
 30
0.0000
 11
336.5500
 21
0.0000
 31
0.0000
  0
LINE
  8
94
 10
336.5500
 20
0.0000
 30
0.0000
 11
387.3500
 21
0.0000
 31
0.0000
  0
LINE
  8
94
 10
387.3500
 20
0.0000
 30
0.0000
 11
387.3500
 21
53.9750
 31
0.0000
  0
LINE
  8
94
 10
387.3500
 20
53.9750
 30
0.0000
 11
387.3500
 21
104.7750
 31
0.0000
  0
LINE
  8
94
 10
387.3500
 20
104.7750
 30
0.0000
 11
387.3500
 21
155.5750
 31
0.0000
  0
LINE
  8
94
 10
387.3500
 20
155.5750
 30
0.0000
 11
387.3500
 21
206.3750
 31
0.0000
  0
LINE
  8
94
 10
387.3500
 20
206.3750
 30
0.0000
 11
387.3500
 21
260.3500
 31
0.0000
  0
LINE
  8
94
 10
146.0500
 20
260.3500
 30
0.0000
 11
98.4250
 21
260.3500
 31
0.0000
  0
LINE
  8
94
 10
98.4250
 20
260.3500
 30
0.0000
 11
50.8000
 21
260.3500
 31
0.0000
  0
LINE
  8
94
 10
50.8000
 20
260.3500
 30
0.0000
 11
0.0000
 21
260.3500
 31
0.0000
  0
LINE
  8
94
 10
0.0000
 20
260.3500
 30
0.0000
 11
0.0000
 21
206.3750
 31
0.0000
  0
LINE
  8
94
 10
0.0000
 20
206.3750
 30
0.0000
 11
0.0000
 21
155.5750
 31
0.0000
  0
LINE
  8
94
 10
0.0000
 20
155.5750
 30
0.0000
 11
0.0000
 21
104.7750
 31
0.0000
  0
LINE
  8
94
 10
0.0000
 20
104.7750
 30
0.0000
 11
0.0000
 21
53.9750
 31
0.0000
  0
LINE
  8
94
 10
0.0000
 20
53.9750
 30
0.0000
 11
0.0000
 21
0.0000
 31
0.0000
  0
LINE
  8
94
 10
3.1750
 20
3.1750
 30
0.0000
 11
50.8000
 21
3.1750
 31
0.0000
  0
LINE
  8
94
 10
50.8000
 20
3.1750
 30
0.0000
 11
98.4250
 21
3.1750
 31
0.0000
  0
LINE
  8
94
 10
98.4250
 20
3.1750
 30
0.0000
 11
146.0500
 21
3.1750
 31
0.0000
  0
LINE
  8
94
 10
146.0500
 20
3.1750
 30
0.0000
 11
193.6750
 21
3.1750
 31
0.0000
  0
LINE
  8
94
 10
193.6750
 20
3.1750
 30
0.0000
 11
241.3000
 21
3.1750
 31
0.0000
  0
LINE
  8
94
 10
241.3000
 20
3.1750
 30
0.0000
 11
288.9250
 21
3.1750
 31
0.0000
  0
LINE
  8
94
 10
288.9250
 20
3.1750
 30
0.0000
 11
307.3400
 21
3.1750
 31
0.0000
  0
LINE
  8
94
 10
336.5500
 20
3.1750
 30
0.0000
 11
307.3400
 21
3.1750
 31
0.0000
  0
LINE
  8
94
 10
307.3400
 20
3.1750
 30
0.0000
 11
366.3950
 21
3.1750
 31
0.0000
  0
LINE
  8
94
 10
366.3950
 20
3.1750
 30
0.0000
 11
384.1750
 21
3.1750
 31
0.0000
  0
LINE
  8
94
 10
384.1750
 20
3.1750
 30
0.0000
 11
384.1750
 21
8.2550
 31
0.0000
  0
LINE
  8
94
 10
384.1750
 20
8.2550
 30
0.0000
 11
384.1750
 21
13.3350
 31
0.0000
  0
LINE
  8
94
 10
384.1750
 20
13.3350
 30
0.0000
 11
384.1750
 21
18.4150
 31
0.0000
  0
LINE
  8
94
 10
384.1750
 20
18.4150
 30
0.0000
 11
384.1750
 21
23.4950
 31
0.0000
  0
LINE
  8
94
 10
384.1750
 20
23.4950
 30
0.0000
 11
384.1750
 21
53.9750
 31
0.0000
  0
LINE
  8
94
 10
384.1750
 20
53.9750
 30
0.0000
 11
384.1750
 21
104.7750
 31
0.0000
  0
LINE
  8
94
 10
384.1750
 20
104.7750
 30
0.0000
 11
384.1750
 21
155.5750
 31
0.0000
  0
LINE
  8
94
 10
384.1750
 20
155.5750
 30
0.0000
 11
384.1750
 21
206.3750
 31
0.0000
  0
LINE
  8
94
 10
384.1750
 20
206.3750
 30
0.0000
 11
384.1750
 21
257.1750
 31
0.0000
  0
LINE
  8
94
 10
384.1750
 20
257.1750
 30
0.0000
 11
336.5500
 21
257.1750
 31
0.0000
  0
LINE
  8
94
 10
336.5500
 20
257.1750
 30
0.0000
 11
288.9250
 21
257.1750
 31
0.0000
  0
LINE
  8
94
 10
288.9250
 20
257.1750
 30
0.0000
 11
241.3000
 21
257.1750
 31
0.0000
  0
LINE
  8
94
 10
241.3000
 20
257.1750
 30
0.0000
 11
193.6750
 21
257.1750
 31
0.0000
  0
LINE
  8
94
 10
193.6750
 20
257.1750
 30
0.0000
 11
146.0500
 21
257.1750
 31
0.0000
  0
LINE
  8
94
 10
146.0500
 20
257.1750
 30
0.0000
 11
98.4250
 21
257.1750
 31
0.0000
  0
LINE
  8
94
 10
98.4250
 20
257.1750
 30
0.0000
 11
50.8000
 21
257.1750
 31
0.0000
  0
LINE
  8
94
 10
50.8000
 20
257.1750
 30
0.0000
 11
3.1750
 21
257.1750
 31
0.0000
  0
LINE
  8
94
 10
3.1750
 20
257.1750
 30
0.0000
 11
3.1750
 21
206.3750
 31
0.0000
  0
LINE
  8
94
 10
3.1750
 20
206.3750
 30
0.0000
 11
3.1750
 21
155.5750
 31
0.0000
  0
LINE
  8
94
 10
3.1750
 20
155.5750
 30
0.0000
 11
3.1750
 21
104.7750
 31
0.0000
  0
LINE
  8
94
 10
3.1750
 20
104.7750
 30
0.0000
 11
3.1750
 21
53.9750
 31
0.0000
  0
LINE
  8
94
 10
3.1750
 20
53.9750
 30
0.0000
 11
3.1750
 21
3.1750
 31
0.0000
  0
LINE
  8
94
 10
387.3500
 20
260.3500
 30
0.0000
 11
336.5500
 21
260.3500
 31
0.0000
  0
LINE
  8
94
 10
336.5500
 20
260.3500
 30
0.0000
 11
288.9250
 21
260.3500
 31
0.0000
  0
LINE
  8
94
 10
288.9250
 20
260.3500
 30
0.0000
 11
241.3000
 21
260.3500
 31
0.0000
  0
LINE
  8
94
 10
241.3000
 20
260.3500
 30
0.0000
 11
193.6750
 21
260.3500
 31
0.0000
  0
LINE
  8
94
 10
193.6750
 20
260.3500
 30
0.0000
 11
146.0500
 21
260.3500
 31
0.0000
  0
LINE
  8
94
 10
193.6750
 20
260.3500
 30
0.0000
 11
193.6750
 21
257.1750
 31
0.0000
  0
LINE
  8
94
 10
193.6750
 20
3.1750
 30
0.0000
 11
193.6750
 21
0.0000
 31
0.0000
  0
LINE
  8
94
 10
0.0000
 20
104.7750
 30
0.0000
 11
3.1750
 21
104.7750
 31
0.0000
  0
LINE
  8
94
 10
384.1750
 20
155.5750
 30
0.0000
 11
387.3500
 21
155.5750
 31
0.0000
  0
LINE
  8
94
 10
98.4250
 20
257.1750
 30
0.0000
 11
98.4250
 21
260.3500
 31
0.0000
  0
LINE
  8
94
 10
98.4250
 20
3.1750
 30
0.0000
 11
98.4250
 21
0.0000
 31
0.0000
  0
LINE
  8
94
 10
288.9250
 20
260.3500
 30
0.0000
 11
288.9250
 21
257.1750
 31
0.0000
  0
LINE
  8
94
 10
288.9250
 20
3.1750
 30
0.0000
 11
288.9250
 21
0.0000
 31
0.0000
  0
LINE
  8
94
 10
0.0000
 20
53.9750
 30
0.0000
 11
3.1750
 21
53.9750
 31
0.0000
  0
LINE
  8
94
 10
384.1750
 20
104.7750
 30
0.0000
 11
387.3500
 21
104.7750
 31
0.0000
  0
LINE
  8
94
 10
0.0000
 20
155.5750
 30
0.0000
 11
3.1750
 21
155.5750
 31
0.0000
  0
LINE
  8
94
 10
384.1750
 20
206.3750
 30
0.0000
 11
387.3500
 21
206.3750
 31
0.0000
  0
LINE
  8
94
 10
50.8000
 20
257.1750
 30
0.0000
 11
50.8000
 21
260.3500
 31
0.0000
  0
LINE
  8
94
 10
0.0000
 20
206.3750
 30
0.0000
 11
3.1750
 21
206.3750
 31
0.0000
  0
LINE
  8
94
 10
384.1750
 20
53.9750
 30
0.0000
 11
387.3500
 21
53.9750
 31
0.0000
  0
LINE
  8
94
 10
146.0500
 20
257.1750
 30
0.0000
 11
146.0500
 21
260.3500
 31
0.0000
  0
LINE
  8
94
 10
241.3000
 20
260.3500
 30
0.0000
 11
241.3000
 21
257.1750
 31
0.0000
  0
LINE
  8
94
 10
336.5500
 20
260.3500
 30
0.0000
 11
336.5500
 21
257.1750
 31
0.0000
  0
LINE
  8
94
 10
336.5500
 20
3.1750
 30
0.0000
 11
336.5500
 21
0.0000
 31
0.0000
  0
LINE
  8
94
 10
241.3000
 20
3.1750
 30
0.0000
 11
241.3000
 21
0.0000
 31
0.0000
  0
LINE
  8
94
 10
146.0500
 20
3.1750
 30
0.0000
 11
146.0500
 21
0.0000
 31
0.0000
  0
LINE
  8
94
 10
50.8000
 20
0.0000
 30
0.0000
 11
50.8000
 21
3.1750
 31
0.0000
  0
LINE
  8
94
 10
288.9250
 20
3.1750
 30
0.0000
 11
288.9250
 21
23.4950
 31
0.0000
  0
LINE
  8
94
 10
288.9250
 20
23.4950
 30
0.0000
 11
307.3400
 21
23.4950
 31
0.0000
  0
LINE
  8
94
 10
307.3400
 20
23.4950
 30
0.0000
 11
384.1750
 21
23.4950
 31
0.0000
  0
LINE
  8
94
 10
366.3950
 20
3.1750
 30
0.0000
 11
366.3950
 21
8.2550
 31
0.0000
  0
LINE
  8
94
 10
366.3950
 20
8.2550
 30
0.0000
 11
384.1750
 21
8.2550
 31
0.0000
  0
LINE
  8
94
 10
366.3950
 20
8.2550
 30
0.0000
 11
307.3400
 21
8.2550
 31
0.0000
  0
LINE
  8
94
 10
307.3400
 20
8.2550
 30
0.0000
 11
307.3400
 21
3.1750
 31
0.0000
  0
LINE
  8
94
 10
307.3400
 20
8.2550
 30
0.0000
 11
307.3400
 21
13.3350
 31
0.0000
  0
LINE
  8
94
 10
307.3400
 20
13.3350
 30
0.0000
 11
384.1750
 21
13.3350
 31
0.0000
  0
LINE
  8
94
 10
307.3400
 20
13.3350
 30
0.0000
 11
307.3400
 21
18.4150
 31
0.0000
  0
LINE
  8
94
 10
307.3400
 20
18.4150
 30
0.0000
 11
384.1750
 21
18.4150
 31
0.0000
  0
LINE
  8
94
 10
307.3400
 20
18.4150
 30
0.0000
 11
307.3400
 21
23.4950
 31
0.0000
  0
LINE
  8
94
 10
24.4856
 20
0.3556
 30
0.0000
 11
24.4856
 21
1.9148
 31
0.0000
  0
LINE
  8
94
 10
24.4856
 20
1.9148
 30
0.0000
 11
25.2652
 21
2.6944
 31
0.0000
  0
LINE
  8
94
 10
25.2652
 20
2.6944
 30
0.0000
 11
26.0448
 21
1.9148
 31
0.0000
  0
LINE
  8
94
 10
26.0448
 20
1.9148
 30
0.0000
 11
26.0448
 21
0.3556
 31
0.0000
  0
LINE
  8
94
 10
24.4856
 20
1.5250
 30
0.0000
 11
26.0448
 21
1.5250
 31
0.0000
  0
LINE
  8
94
 10
74.5236
 20
0.3556
 30
0.0000
 11
74.5236
 21
2.6944
 31
0.0000
  0
LINE
  8
94
 10
74.5236
 20
2.6944
 30
0.0000
 11
75.6930
 21
2.6944
 31
0.0000
  0
LINE
  8
94
 10
75.6930
 20
2.6944
 30
0.0000
 11
76.0828
 21
2.3046
 31
0.0000
  0
LINE
  8
94
 10
76.0828
 20
2.3046
 30
0.0000
 11
76.0828
 21
1.9148
 31
0.0000
  0
LINE
  8
94
 10
76.0828
 20
1.9148
 30
0.0000
 11
75.6930
 21
1.5250
 31
0.0000
  0
LINE
  8
94
 10
75.6930
 20
1.5250
 30
0.0000
 11
76.0828
 21
1.1352
 31
0.0000
  0
LINE
  8
94
 10
76.0828
 20
1.1352
 30
0.0000
 11
76.0828
 21
0.7454
 31
0.0000
  0
LINE
  8
94
 10
76.0828
 20
0.7454
 30
0.0000
 11
75.6930
 21
0.3556
 31
0.0000
  0
LINE
  8
94
 10
75.6930
 20
0.3556
 30
0.0000
 11
74.5236
 21
0.3556
 31
0.0000
  0
LINE
  8
94
 10
74.5236
 20
1.5250
 30
0.0000
 11
75.6930
 21
1.5250
 31
0.0000
  0
LINE
  8
94
 10
122.8188
 20
2.3046
 30
0.0000
 11
122.4290
 21
2.6944
 31
0.0000
  0
LINE
  8
94
 10
122.4290
 20
2.6944
 30
0.0000
 11
121.6494
 21
2.6944
 31
0.0000
  0
LINE
  8
94
 10
121.6494
 20
2.6944
 30
0.0000
 11
121.2596
 21
2.3046
 31
0.0000
  0
LINE
  8
94
 10
121.2596
 20
2.3046
 30
0.0000
 11
121.2596
 21
0.7454
 31
0.0000
  0
LINE
  8
94
 10
121.2596
 20
0.7454
 30
0.0000
 11
121.6494
 21
0.3556
 31
0.0000
  0
LINE
  8
94
 10
121.6494
 20
0.3556
 30
0.0000
 11
122.4290
 21
0.3556
 31
0.0000
  0
LINE
  8
94
 10
122.4290
 20
0.3556
 30
0.0000
 11
122.8188
 21
0.7454
 31
0.0000
  0
LINE
  8
94
 10
169.5196
 20
2.6944
 30
0.0000
 11
169.5196
 21
0.3556
 31
0.0000
  0
LINE
  8
94
 10
169.5196
 20
0.3556
 30
0.0000
 11
170.6890
 21
0.3556
 31
0.0000
  0
LINE
  8
94
 10
170.6890
 20
0.3556
 30
0.0000
 11
171.0788
 21
0.7454
 31
0.0000
  0
LINE
  8
94
 10
171.0788
 20
0.7454
 30
0.0000
 11
171.0788
 21
2.3046
 31
0.0000
  0
LINE
  8
94
 10
171.0788
 20
2.3046
 30
0.0000
 11
170.6890
 21
2.6944
 31
0.0000
  0
LINE
  8
94
 10
170.6890
 20
2.6944
 30
0.0000
 11
169.5196
 21
2.6944
 31
0.0000
  0
LINE
  8
94
 10
218.5768
 20
2.6944
 30
0.0000
 11
217.0176
 21
2.6944
 31
0.0000
  0
LINE
  8
94
 10
217.0176
 20
2.6944
 30
0.0000
 11
217.0176
 21
0.3556
 31
0.0000
  0
LINE
  8
94
 10
217.0176
 20
0.3556
 30
0.0000
 11
218.5768
 21
0.3556
 31
0.0000
  0
LINE
  8
94
 10
217.0176
 20
1.5250
 30
0.0000
 11
217.7972
 21
1.5250
 31
0.0000
  0
LINE
  8
94
 10
263.7536
 20
0.3556
 30
0.0000
 11
263.7536
 21
2.6944
 31
0.0000
  0
LINE
  8
94
 10
263.7536
 20
2.6944
 30
0.0000
 11
265.3128
 21
2.6944
 31
0.0000
  0
LINE
  8
94
 10
263.7536
 20
1.5250
 30
0.0000
 11
264.5332
 21
1.5250
 31
0.0000
  0
LINE
  8
94
 10
312.3028
 20
2.3046
 30
0.0000
 11
311.9130
 21
2.6944
 31
0.0000
  0
LINE
  8
94
 10
311.9130
 20
2.6944
 30
0.0000
 11
311.1334
 21
2.6944
 31
0.0000
  0
LINE
  8
94
 10
311.1334
 20
2.6944
 30
0.0000
 11
310.7436
 21
2.3046
 31
0.0000
  0
LINE
  8
94
 10
310.7436
 20
2.3046
 30
0.0000
 11
310.7436
 21
0.7454
 31
0.0000
  0
LINE
  8
94
 10
310.7436
 20
0.7454
 30
0.0000
 11
311.1334
 21
0.3556
 31
0.0000
  0
LINE
  8
94
 10
311.1334
 20
0.3556
 30
0.0000
 11
311.9130
 21
0.3556
 31
0.0000
  0
LINE
  8
94
 10
311.9130
 20
0.3556
 30
0.0000
 11
312.3028
 21
0.7454
 31
0.0000
  0
LINE
  8
94
 10
312.3028
 20
0.7454
 30
0.0000
 11
312.3028
 21
1.5250
 31
0.0000
  0
LINE
  8
94
 10
312.3028
 20
1.5250
 30
0.0000
 11
311.5232
 21
1.5250
 31
0.0000
  0
LINE
  8
94
 10
361.0356
 20
0.3556
 30
0.0000
 11
361.0356
 21
2.6944
 31
0.0000
  0
LINE
  8
94
 10
361.0356
 20
1.5250
 30
0.0000
 11
362.5948
 21
1.5250
 31
0.0000
  0
LINE
  8
94
 10
362.5948
 20
2.6944
 30
0.0000
 11
362.5948
 21
0.3556
 31
0.0000
  0
LINE
  8
94
 10
385.1656
 20
30.3628
 30
0.0000
 11
385.9452
 21
31.1424
 31
0.0000
  0
LINE
  8
94
 10
385.9452
 20
31.1424
 30
0.0000
 11
385.9452
 21
28.8036
 31
0.0000
  0
LINE
  8
94
 10
385.1656
 20
28.8036
 30
0.0000
 11
386.7248
 21
28.8036
 31
0.0000
  0
LINE
  8
94
 10
386.4708
 20
79.6036
 30
0.0000
 11
384.9116
 21
79.6036
 31
0.0000
  0
LINE
  8
94
 10
384.9116
 20
79.6036
 30
0.0000
 11
386.4708
 21
81.1628
 31
0.0000
  0
LINE
  8
94
 10
386.4708
 20
81.1628
 30
0.0000
 11
386.4708
 21
81.5526
 31
0.0000
  0
LINE
  8
94
 10
386.4708
 20
81.5526
 30
0.0000
 11
386.0810
 21
81.9424
 31
0.0000
  0
LINE
  8
94
 10
386.0810
 20
81.9424
 30
0.0000
 11
385.3014
 21
81.9424
 31
0.0000
  0
LINE
  8
94
 10
385.3014
 20
81.9424
 30
0.0000
 11
384.9116
 21
81.5526
 31
0.0000
  0
LINE
  8
94
 10
384.9116
 20
132.3526
 30
0.0000
 11
385.3014
 21
132.7424
 31
0.0000
  0
LINE
  8
94
 10
385.3014
 20
132.7424
 30
0.0000
 11
386.0810
 21
132.7424
 31
0.0000
  0
LINE
  8
94
 10
386.0810
 20
132.7424
 30
0.0000
 11
386.4708
 21
132.3526
 31
0.0000
  0
LINE
  8
94
 10
386.4708
 20
132.3526
 30
0.0000
 11
386.4708
 21
131.9628
 31
0.0000
  0
LINE
  8
94
 10
386.4708
 20
131.9628
 30
0.0000
 11
386.0810
 21
131.5730
 31
0.0000
  0
LINE
  8
94
 10
386.0810
 20
131.5730
 30
0.0000
 11
385.6912
 21
131.5730
 31
0.0000
  0
LINE
  8
94
 10
386.0810
 20
131.5730
 30
0.0000
 11
386.4708
 21
131.1832
 31
0.0000
  0
LINE
  8
94
 10
386.4708
 20
131.1832
 30
0.0000
 11
386.4708
 21
130.7934
 31
0.0000
  0
LINE
  8
94
 10
386.4708
 20
130.7934
 30
0.0000
 11
386.0810
 21
130.4036
 31
0.0000
  0
LINE
  8
94
 10
386.0810
 20
130.4036
 30
0.0000
 11
385.3014
 21
130.4036
 31
0.0000
  0
LINE
  8
94
 10
385.3014
 20
130.4036
 30
0.0000
 11
384.9116
 21
130.7934
 31
0.0000
  0
LINE
  8
94
 10
386.0810
 20
181.9656
 30
0.0000
 11
386.0810
 21
184.3044
 31
0.0000
  0
LINE
  8
94
 10
386.0810
 20
184.3044
 30
0.0000
 11
384.9116
 21
183.1350
 31
0.0000
  0
LINE
  8
94
 10
384.9116
 20
183.1350
 30
0.0000
 11
386.4708
 21
183.1350
 31
0.0000
  0
LINE
  8
94
 10
386.4708
 20
233.5804
 30
0.0000
 11
384.9116
 21
233.5804
 31
0.0000
  0
LINE
  8
94
 10
384.9116
 20
233.5804
 30
0.0000
 11
384.9116
 21
232.4110
 31
0.0000
  0
LINE
  8
94
 10
384.9116
 20
232.4110
 30
0.0000
 11
385.6912
 21
232.8008
 31
0.0000
  0
LINE
  8
94
 10
385.6912
 20
232.8008
 30
0.0000
 11
386.0810
 21
232.8008
 31
0.0000
  0
LINE
  8
94
 10
386.0810
 20
232.8008
 30
0.0000
 11
386.4708
 21
232.4110
 31
0.0000
  0
LINE
  8
94
 10
386.4708
 20
232.4110
 30
0.0000
 11
386.4708
 21
231.6314
 31
0.0000
  0
LINE
  8
94
 10
386.4708
 20
231.6314
 30
0.0000
 11
386.0810
 21
231.2416
 31
0.0000
  0
LINE
  8
94
 10
386.0810
 20
231.2416
 30
0.0000
 11
385.3014
 21
231.2416
 31
0.0000
  0
LINE
  8
94
 10
385.3014
 20
231.2416
 30
0.0000
 11
384.9116
 21
231.6314
 31
0.0000
  0
LINE
  8
94
 10
361.2896
 20
257.6576
 30
0.0000
 11
361.2896
 21
259.9964
 31
0.0000
  0
LINE
  8
94
 10
361.2896
 20
258.8270
 30
0.0000
 11
362.8488
 21
258.8270
 31
0.0000
  0
LINE
  8
94
 10
362.8488
 20
259.9964
 30
0.0000
 11
362.8488
 21
257.6576
 31
0.0000
  0
LINE
  8
94
 10
313.0648
 20
259.6066
 30
0.0000
 11
312.6750
 21
259.9964
 31
0.0000
  0
LINE
  8
94
 10
312.6750
 20
259.9964
 30
0.0000
 11
311.8954
 21
259.9964
 31
0.0000
  0
LINE
  8
94
 10
311.8954
 20
259.9964
 30
0.0000
 11
311.5056
 21
259.6066
 31
0.0000
  0
LINE
  8
94
 10
311.5056
 20
259.6066
 30
0.0000
 11
311.5056
 21
258.0474
 31
0.0000
  0
LINE
  8
94
 10
311.5056
 20
258.0474
 30
0.0000
 11
311.8954
 21
257.6576
 31
0.0000
  0
LINE
  8
94
 10
311.8954
 20
257.6576
 30
0.0000
 11
312.6750
 21
257.6576
 31
0.0000
  0
LINE
  8
94
 10
312.6750
 20
257.6576
 30
0.0000
 11
313.0648
 21
258.0474
 31
0.0000
  0
LINE
  8
94
 10
313.0648
 20
258.0474
 30
0.0000
 11
313.0648
 21
258.8270
 31
0.0000
  0
LINE
  8
94
 10
313.0648
 20
258.8270
 30
0.0000
 11
312.2852
 21
258.8270
 31
0.0000
  0
LINE
  8
94
 10
262.9916
 20
257.6576
 30
0.0000
 11
262.9916
 21
259.9964
 31
0.0000
  0
LINE
  8
94
 10
262.9916
 20
259.9964
 30
0.0000
 11
264.5508
 21
259.9964
 31
0.0000
  0
LINE
  8
94
 10
262.9916
 20
258.8270
 30
0.0000
 11
263.7712
 21
258.8270
 31
0.0000
  0
LINE
  8
94
 10
217.5608
 20
259.9964
 30
0.0000
 11
216.0016
 21
259.9964
 31
0.0000
  0
LINE
  8
94
 10
216.0016
 20
259.9964
 30
0.0000
 11
216.0016
 21
257.6576
 31
0.0000
  0
LINE
  8
94
 10
216.0016
 20
257.6576
 30
0.0000
 11
217.5608
 21
257.6576
 31
0.0000
  0
LINE
  8
94
 10
216.0016
 20
258.8270
 30
0.0000
 11
216.7812
 21
258.8270
 31
0.0000
  0
LINE
  8
94
 10
168.2496
 20
259.9964
 30
0.0000
 11
168.2496
 21
257.6576
 31
0.0000
  0
LINE
  8
94
 10
168.2496
 20
257.6576
 30
0.0000
 11
169.4190
 21
257.6576
 31
0.0000
  0
LINE
  8
94
 10
169.4190
 20
257.6576
 30
0.0000
 11
169.8088
 21
258.0474
 31
0.0000
  0
LINE
  8
94
 10
169.8088
 20
258.0474
 30
0.0000
 11
169.8088
 21
259.6066
 31
0.0000
  0
LINE
  8
94
 10
169.8088
 20
259.6066
 30
0.0000
 11
169.4190
 21
259.9964
 31
0.0000
  0
LINE
  8
94
 10
169.4190
 20
259.9964
 30
0.0000
 11
168.2496
 21
259.9964
 31
0.0000
  0
LINE
  8
94
 10
122.5648
 20
259.6066
 30
0.0000
 11
122.1750
 21
259.9964
 31
0.0000
  0
LINE
  8
94
 10
122.1750
 20
259.9964
 30
0.0000
 11
121.3954
 21
259.9964
 31
0.0000
  0
LINE
  8
94
 10
121.3954
 20
259.9964
 30
0.0000
 11
121.0056
 21
259.6066
 31
0.0000
  0
LINE
  8
94
 10
121.0056
 20
259.6066
 30
0.0000
 11
121.0056
 21
258.0474
 31
0.0000
  0
LINE
  8
94
 10
121.0056
 20
258.0474
 30
0.0000
 11
121.3954
 21
257.6576
 31
0.0000
  0
LINE
  8
94
 10
121.3954
 20
257.6576
 30
0.0000
 11
122.1750
 21
257.6576
 31
0.0000
  0
LINE
  8
94
 10
122.1750
 20
257.6576
 30
0.0000
 11
122.5648
 21
258.0474
 31
0.0000
  0
LINE
  8
94
 10
72.9996
 20
257.6576
 30
0.0000
 11
72.9996
 21
259.9964
 31
0.0000
  0
LINE
  8
94
 10
72.9996
 20
259.9964
 30
0.0000
 11
74.1690
 21
259.9964
 31
0.0000
  0
LINE
  8
94
 10
74.1690
 20
259.9964
 30
0.0000
 11
74.5588
 21
259.6066
 31
0.0000
  0
LINE
  8
94
 10
74.5588
 20
259.6066
 30
0.0000
 11
74.5588
 21
259.2168
 31
0.0000
  0
LINE
  8
94
 10
74.5588
 20
259.2168
 30
0.0000
 11
74.1690
 21
258.8270
 31
0.0000
  0
LINE
  8
94
 10
74.1690
 20
258.8270
 30
0.0000
 11
74.5588
 21
258.4372
 31
0.0000
  0
LINE
  8
94
 10
74.5588
 20
258.4372
 30
0.0000
 11
74.5588
 21
258.0474
 31
0.0000
  0
LINE
  8
94
 10
74.5588
 20
258.0474
 30
0.0000
 11
74.1690
 21
257.6576
 31
0.0000
  0
LINE
  8
94
 10
74.1690
 20
257.6576
 30
0.0000
 11
72.9996
 21
257.6576
 31
0.0000
  0
LINE
  8
94
 10
72.9996
 20
258.8270
 30
0.0000
 11
74.1690
 21
258.8270
 31
0.0000
  0
LINE
  8
94
 10
24.4856
 20
257.6576
 30
0.0000
 11
24.4856
 21
259.2168
 31
0.0000
  0
LINE
  8
94
 10
24.4856
 20
259.2168
 30
0.0000
 11
25.2652
 21
259.9964
 31
0.0000
  0
LINE
  8
94
 10
25.2652
 20
259.9964
 30
0.0000
 11
26.0448
 21
259.2168
 31
0.0000
  0
LINE
  8
94
 10
26.0448
 20
259.2168
 30
0.0000
 11
26.0448
 21
257.6576
 31
0.0000
  0
LINE
  8
94
 10
24.4856
 20
258.8270
 30
0.0000
 11
26.0448
 21
258.8270
 31
0.0000
  0
LINE
  8
94
 10
2.4228
 20
233.5804
 30
0.0000
 11
0.8636
 21
233.5804
 31
0.0000
  0
LINE
  8
94
 10
0.8636
 20
233.5804
 30
0.0000
 11
0.8636
 21
232.4110
 31
0.0000
  0
LINE
  8
94
 10
0.8636
 20
232.4110
 30
0.0000
 11
1.6432
 21
232.8008
 31
0.0000
  0
LINE
  8
94
 10
1.6432
 20
232.8008
 30
0.0000
 11
2.0330
 21
232.8008
 31
0.0000
  0
LINE
  8
94
 10
2.0330
 20
232.8008
 30
0.0000
 11
2.4228
 21
232.4110
 31
0.0000
  0
LINE
  8
94
 10
2.4228
 20
232.4110
 30
0.0000
 11
2.4228
 21
231.6314
 31
0.0000
  0
LINE
  8
94
 10
2.4228
 20
231.6314
 30
0.0000
 11
2.0330
 21
231.2416
 31
0.0000
  0
LINE
  8
94
 10
2.0330
 20
231.2416
 30
0.0000
 11
1.2534
 21
231.2416
 31
0.0000
  0
LINE
  8
94
 10
1.2534
 20
231.2416
 30
0.0000
 11
0.8636
 21
231.6314
 31
0.0000
  0
LINE
  8
94
 10
2.0330
 20
181.7116
 30
0.0000
 11
2.0330
 21
184.0504
 31
0.0000
  0
LINE
  8
94
 10
2.0330
 20
184.0504
 30
0.0000
 11
0.8636
 21
182.8810
 31
0.0000
  0
LINE
  8
94
 10
0.8636
 20
182.8810
 30
0.0000
 11
2.4228
 21
182.8810
 31
0.0000
  0
LINE
  8
94
 10
0.8636
 20
132.3526
 30
0.0000
 11
1.2534
 21
132.7424
 31
0.0000
  0
LINE
  8
94
 10
1.2534
 20
132.7424
 30
0.0000
 11
2.0330
 21
132.7424
 31
0.0000
  0
LINE
  8
94
 10
2.0330
 20
132.7424
 30
0.0000
 11
2.4228
 21
132.3526
 31
0.0000
  0
LINE
  8
94
 10
2.4228
 20
132.3526
 30
0.0000
 11
2.4228
 21
131.9628
 31
0.0000
  0
LINE
  8
94
 10
2.4228
 20
131.9628
 30
0.0000
 11
2.0330
 21
131.5730
 31
0.0000
  0
LINE
  8
94
 10
2.0330
 20
131.5730
 30
0.0000
 11
1.6432
 21
131.5730
 31
0.0000
  0
LINE
  8
94
 10
2.0330
 20
131.5730
 30
0.0000
 11
2.4228
 21
131.1832
 31
0.0000
  0
LINE
  8
94
 10
2.4228
 20
131.1832
 30
0.0000
 11
2.4228
 21
130.7934
 31
0.0000
  0
LINE
  8
94
 10
2.4228
 20
130.7934
 30
0.0000
 11
2.0330
 21
130.4036
 31
0.0000
  0
LINE
  8
94
 10
2.0330
 20
130.4036
 30
0.0000
 11
1.2534
 21
130.4036
 31
0.0000
  0
LINE
  8
94
 10
1.2534
 20
130.4036
 30
0.0000
 11
0.8636
 21
130.7934
 31
0.0000
  0
LINE
  8
94
 10
2.4228
 20
79.3496
 30
0.0000
 11
0.8636
 21
79.3496
 31
0.0000
  0
LINE
  8
94
 10
0.8636
 20
79.3496
 30
0.0000
 11
2.4228
 21
80.9088
 31
0.0000
  0
LINE
  8
94
 10
2.4228
 20
80.9088
 30
0.0000
 11
2.4228
 21
81.2986
 31
0.0000
  0
LINE
  8
94
 10
2.4228
 20
81.2986
 30
0.0000
 11
2.0330
 21
81.6884
 31
0.0000
  0
LINE
  8
94
 10
2.0330
 20
81.6884
 30
0.0000
 11
1.2534
 21
81.6884
 31
0.0000
  0
LINE
  8
94
 10
1.2534
 20
81.6884
 30
0.0000
 11
0.8636
 21
81.2986
 31
0.0000
  0
LINE
  8
94
 10
1.1176
 20
28.3308
 30
0.0000
 11
1.8972
 21
29.1104
 31
0.0000
  0
LINE
  8
94
 10
1.8972
 20
29.1104
 30
0.0000
 11
1.8972
 21
26.7716
 31
0.0000
  0
LINE
  8
94
 10
1.1176
 20
26.7716
 30
0.0000
 11
2.6768
 21
26.7716
 31
0.0000
  0
LINE
  8
94
 10
319.2526
 20
21.0918
 30
0.0000
 11
320.0322
 21
21.8714
 31
0.0000
  0
LINE
  8
94
 10
320.0322
 20
21.8714
 30
0.0000
 11
320.0322
 21
19.5326
 31
0.0000
  0
LINE
  8
94
 10
319.2526
 20
19.5326
 30
0.0000
 11
320.8118
 21
19.5326
 31
0.0000
  0
LINE
  8
94
 10
322.7608
 20
19.5326
 30
0.0000
 11
322.7608
 21
21.8714
 31
0.0000
  0
LINE
  8
94
 10
322.7608
 20
21.8714
 30
0.0000
 11
321.5914
 21
20.7020
 31
0.0000
  0
LINE
  8
94
 10
321.5914
 20
20.7020
 30
0.0000
 11
323.1506
 21
20.7020
 31
0.0000
  0
LINE
  8
94
 10
323.9302
 20
19.9224
 30
0.0000
 11
323.9302
 21
21.4816
 31
0.0000
  0
LINE
  8
94
 10
323.9302
 20
21.4816
 30
0.0000
 11
324.3200
 21
21.8714
 31
0.0000
  0
LINE
  8
94
 10
324.3200
 20
21.8714
 30
0.0000
 11
325.0996
 21
21.8714
 31
0.0000
  0
LINE
  8
94
 10
325.0996
 20
21.8714
 30
0.0000
 11
325.4894
 21
21.4816
 31
0.0000
  0
LINE
  8
94
 10
325.4894
 20
21.4816
 30
0.0000
 11
325.4894
 21
19.9224
 31
0.0000
  0
LINE
  8
94
 10
325.4894
 20
19.9224
 30
0.0000
 11
325.0996
 21
19.5326
 31
0.0000
  0
LINE
  8
94
 10
325.0996
 20
19.5326
 30
0.0000
 11
324.3200
 21
19.5326
 31
0.0000
  0
LINE
  8
94
 10
324.3200
 20
19.5326
 30
0.0000
 11
323.9302
 21
19.9224
 31
0.0000
  0
LINE
  8
94
 10
323.9302
 20
19.9224
 30
0.0000
 11
325.4894
 21
21.4816
 31
0.0000
  0
LINE
  8
94
 10
326.2690
 20
19.9224
 30
0.0000
 11
326.2690
 21
21.4816
 31
0.0000
  0
LINE
  8
94
 10
326.2690
 20
21.4816
 30
0.0000
 11
326.6588
 21
21.8714
 31
0.0000
  0
LINE
  8
94
 10
326.6588
 20
21.8714
 30
0.0000
 11
327.4384
 21
21.8714
 31
0.0000
  0
LINE
  8
94
 10
327.4384
 20
21.8714
 30
0.0000
 11
327.8282
 21
21.4816
 31
0.0000
  0
LINE
  8
94
 10
327.8282
 20
21.4816
 30
0.0000
 11
327.8282
 21
19.9224
 31
0.0000
  0
LINE
  8
94
 10
327.8282
 20
19.9224
 30
0.0000
 11
327.4384
 21
19.5326
 31
0.0000
  0
LINE
  8
94
 10
327.4384
 20
19.5326
 30
0.0000
 11
326.6588
 21
19.5326
 31
0.0000
  0
LINE
  8
94
 10
326.6588
 20
19.5326
 30
0.0000
 11
326.2690
 21
19.9224
 31
0.0000
  0
LINE
  8
94
 10
326.2690
 20
19.9224
 30
0.0000
 11
327.8282
 21
21.4816
 31
0.0000
  0
LINE
  8
94
 10
328.6078
 20
19.9224
 30
0.0000
 11
328.6078
 21
21.4816
 31
0.0000
  0
LINE
  8
94
 10
328.6078
 20
21.4816
 30
0.0000
 11
328.9976
 21
21.8714
 31
0.0000
  0
LINE
  8
94
 10
328.9976
 20
21.8714
 30
0.0000
 11
329.7772
 21
21.8714
 31
0.0000
  0
LINE
  8
94
 10
329.7772
 20
21.8714
 30
0.0000
 11
330.1670
 21
21.4816
 31
0.0000
  0
LINE
  8
94
 10
330.1670
 20
21.4816
 30
0.0000
 11
330.1670
 21
19.9224
 31
0.0000
  0
LINE
  8
94
 10
330.1670
 20
19.9224
 30
0.0000
 11
329.7772
 21
19.5326
 31
0.0000
  0
LINE
  8
94
 10
329.7772
 20
19.5326
 30
0.0000
 11
328.9976
 21
19.5326
 31
0.0000
  0
LINE
  8
94
 10
328.9976
 20
19.5326
 30
0.0000
 11
328.6078
 21
19.9224
 31
0.0000
  0
LINE
  8
94
 10
328.6078
 20
19.9224
 30
0.0000
 11
330.1670
 21
21.4816
 31
0.0000
  0
LINE
  8
94
 10
332.5058
 20
21.8714
 30
0.0000
 11
331.7262
 21
21.4816
 31
0.0000
  0
LINE
  8
94
 10
331.7262
 20
21.4816
 30
0.0000
 11
330.9466
 21
20.7020
 31
0.0000
  0
LINE
  8
94
 10
330.9466
 20
20.7020
 30
0.0000
 11
330.9466
 21
19.9224
 31
0.0000
  0
LINE
  8
94
 10
330.9466
 20
19.9224
 30
0.0000
 11
331.3364
 21
19.5326
 31
0.0000
  0
LINE
  8
94
 10
331.3364
 20
19.5326
 30
0.0000
 11
332.1160
 21
19.5326
 31
0.0000
  0
LINE
  8
94
 10
332.1160
 20
19.5326
 30
0.0000
 11
332.5058
 21
19.9224
 31
0.0000
  0
LINE
  8
94
 10
332.5058
 20
19.9224
 30
0.0000
 11
332.5058
 21
20.3122
 31
0.0000
  0
LINE
  8
94
 10
332.5058
 20
20.3122
 30
0.0000
 11
332.1160
 21
20.7020
 31
0.0000
  0
LINE
  8
94
 10
332.1160
 20
20.7020
 30
0.0000
 11
330.9466
 21
20.7020
 31
0.0000
  0
LINE
  8
94
 10
333.2854
 20
19.5326
 30
0.0000
 11
333.2854
 21
21.8714
 31
0.0000
  0
LINE
  8
94
 10
333.2854
 20
21.8714
 30
0.0000
 11
334.4548
 21
21.8714
 31
0.0000
  0
LINE
  8
94
 10
334.4548
 20
21.8714
 30
0.0000
 11
334.8446
 21
21.4816
 31
0.0000
  0
LINE
  8
94
 10
334.8446
 20
21.4816
 30
0.0000
 11
334.8446
 21
20.7020
 31
0.0000
  0
LINE
  8
94
 10
334.8446
 20
20.7020
 30
0.0000
 11
334.4548
 21
20.3122
 31
0.0000
  0
LINE
  8
94
 10
334.4548
 20
20.3122
 30
0.0000
 11
333.2854
 21
20.3122
 31
0.0000
  0
LINE
  8
94
 10
334.0650
 20
20.3122
 30
0.0000
 11
334.8446
 21
19.5326
 31
0.0000
  0
LINE
  8
94
 10
335.6242
 20
19.1428
 30
0.0000
 11
337.1834
 21
19.1428
 31
0.0000
  0
LINE
  8
94
 10
337.9630
 20
21.4816
 30
0.0000
 11
338.3528
 21
21.8714
 31
0.0000
  0
LINE
  8
94
 10
338.3528
 20
21.8714
 30
0.0000
 11
339.1324
 21
21.8714
 31
0.0000
  0
LINE
  8
94
 10
339.1324
 20
21.8714
 30
0.0000
 11
339.5222
 21
21.4816
 31
0.0000
  0
LINE
  8
94
 10
339.5222
 20
21.4816
 30
0.0000
 11
339.5222
 21
21.0918
 31
0.0000
  0
LINE
  8
94
 10
339.5222
 20
21.0918
 30
0.0000
 11
339.1324
 21
20.7020
 31
0.0000
  0
LINE
  8
94
 10
339.1324
 20
20.7020
 30
0.0000
 11
338.7426
 21
20.7020
 31
0.0000
  0
LINE
  8
94
 10
339.1324
 20
20.7020
 30
0.0000
 11
339.5222
 21
20.3122
 31
0.0000
  0
LINE
  8
94
 10
339.5222
 20
20.3122
 30
0.0000
 11
339.5222
 21
19.9224
 31
0.0000
  0
LINE
  8
94
 10
339.5222
 20
19.9224
 30
0.0000
 11
339.1324
 21
19.5326
 31
0.0000
  0
LINE
  8
94
 10
339.1324
 20
19.5326
 30
0.0000
 11
338.3528
 21
19.5326
 31
0.0000
  0
LINE
  8
94
 10
338.3528
 20
19.5326
 30
0.0000
 11
337.9630
 21
19.9224
 31
0.0000
  0
LINE
  8
94
 10
340.3018
 20
19.5326
 30
0.0000
 11
340.3018
 21
21.8714
 31
0.0000
  0
LINE
  8
94
 10
340.3018
 20
20.7020
 30
0.0000
 11
341.8610
 21
20.7020
 31
0.0000
  0
LINE
  8
94
 10
341.8610
 20
21.8714
 30
0.0000
 11
341.8610
 21
19.5326
 31
0.0000
  0
LINE
  8
94
 10
342.6406
 20
19.5326
 30
0.0000
 11
342.6406
 21
21.8714
 31
0.0000
  0
LINE
  8
94
 10
342.6406
 20
21.8714
 30
0.0000
 11
343.8100
 21
21.8714
 31
0.0000
  0
LINE
  8
94
 10
343.8100
 20
21.8714
 30
0.0000
 11
344.1998
 21
21.4816
 31
0.0000
  0
LINE
  8
94
 10
344.1998
 20
21.4816
 30
0.0000
 11
344.1998
 21
20.7020
 31
0.0000
  0
LINE
  8
94
 10
344.1998
 20
20.7020
 30
0.0000
 11
343.8100
 21
20.3122
 31
0.0000
  0
LINE
  8
94
 10
343.8100
 20
20.3122
 30
0.0000
 11
342.6406
 21
20.3122
 31
0.0000
  0
LINE
  8
94
 10
344.9794
 20
19.1428
 30
0.0000
 11
346.5386
 21
19.1428
 31
0.0000
  0
LINE
  8
94
 10
347.3182
 20
21.8714
 30
0.0000
 11
347.3182
 21
19.9224
 31
0.0000
  0
LINE
  8
94
 10
347.3182
 20
19.9224
 30
0.0000
 11
347.7080
 21
19.5326
 31
0.0000
  0
LINE
  8
94
 10
347.7080
 20
19.5326
 30
0.0000
 11
348.4876
 21
19.5326
 31
0.0000
  0
LINE
  8
94
 10
348.4876
 20
19.5326
 30
0.0000
 11
348.8774
 21
19.9224
 31
0.0000
  0
LINE
  8
94
 10
348.8774
 20
19.9224
 30
0.0000
 11
348.8774
 21
21.8714
 31
0.0000
  0
LINE
  8
94
 10
349.6570
 20
18.7530
 30
0.0000
 11
349.6570
 21
21.0918
 31
0.0000
  0
LINE
  8
94
 10
349.6570
 20
21.0918
 30
0.0000
 11
350.8264
 21
21.0918
 31
0.0000
  0
LINE
  8
94
 10
350.8264
 20
21.0918
 30
0.0000
 11
351.2162
 21
20.7020
 31
0.0000
  0
LINE
  8
94
 10
351.2162
 20
20.7020
 30
0.0000
 11
351.2162
 21
19.9224
 31
0.0000
  0
LINE
  8
94
 10
351.2162
 20
19.9224
 30
0.0000
 11
350.8264
 21
19.5326
 31
0.0000
  0
LINE
  8
94
 10
350.8264
 20
19.5326
 30
0.0000
 11
349.6570
 21
19.5326
 31
0.0000
  0
LINE
  8
94
 10
352.7754
 20
18.7530
 30
0.0000
 11
353.1652
 21
18.7530
 31
0.0000
  0
LINE
  8
94
 10
353.1652
 20
18.7530
 30
0.0000
 11
353.5550
 21
19.1428
 31
0.0000
  0
LINE
  8
94
 10
353.5550
 20
19.1428
 30
0.0000
 11
353.5550
 21
21.0918
 31
0.0000
  0
LINE
  8
94
 10
353.5550
 20
21.0918
 30
0.0000
 11
352.3856
 21
21.0918
 31
0.0000
  0
LINE
  8
94
 10
352.3856
 20
21.0918
 30
0.0000
 11
351.9958
 21
20.7020
 31
0.0000
  0
LINE
  8
94
 10
351.9958
 20
20.7020
 30
0.0000
 11
351.9958
 21
19.9224
 31
0.0000
  0
LINE
  8
94
 10
351.9958
 20
19.9224
 30
0.0000
 11
352.3856
 21
19.5326
 31
0.0000
  0
LINE
  8
94
 10
352.3856
 20
19.5326
 30
0.0000
 11
353.5550
 21
19.5326
 31
0.0000
  0
LINE
  8
94
 10
354.3346
 20
19.5326
 30
0.0000
 11
354.3346
 21
21.0918
 31
0.0000
  0
LINE
  8
94
 10
354.3346
 20
20.3122
 30
0.0000
 11
355.1141
 21
21.0918
 31
0.0000
  0
LINE
  8
94
 10
355.1141
 20
21.0918
 30
0.0000
 11
355.5040
 21
21.0918
 31
0.0000
  0
LINE
  8
94
 10
356.6733
 20
21.0918
 30
0.0000
 11
357.4529
 21
21.0918
 31
0.0000
  0
LINE
  8
94
 10
357.4529
 20
21.0918
 30
0.0000
 11
357.8427
 21
20.7020
 31
0.0000
  0
LINE
  8
94
 10
357.8427
 20
20.7020
 30
0.0000
 11
357.8427
 21
19.5326
 31
0.0000
  0
LINE
  8
94
 10
357.8427
 20
19.5326
 30
0.0000
 11
356.6733
 21
19.5326
 31
0.0000
  0
LINE
  8
94
 10
356.6733
 20
19.5326
 30
0.0000
 11
356.2835
 21
19.9224
 31
0.0000
  0
LINE
  8
94
 10
356.2835
 20
19.9224
 30
0.0000
 11
356.6733
 21
20.3122
 31
0.0000
  0
LINE
  8
94
 10
356.6733
 20
20.3122
 30
0.0000
 11
357.8427
 21
20.3122
 31
0.0000
  0
LINE
  8
94
 10
360.1815
 20
21.8714
 30
0.0000
 11
360.1815
 21
19.5326
 31
0.0000
  0
LINE
  8
94
 10
360.1815
 20
19.5326
 30
0.0000
 11
359.0121
 21
19.5326
 31
0.0000
  0
LINE
  8
94
 10
359.0121
 20
19.5326
 30
0.0000
 11
358.6223
 21
19.9224
 31
0.0000
  0
LINE
  8
94
 10
358.6223
 20
19.9224
 30
0.0000
 11
358.6223
 21
20.7020
 31
0.0000
  0
LINE
  8
94
 10
358.6223
 20
20.7020
 30
0.0000
 11
359.0121
 21
21.0918
 31
0.0000
  0
LINE
  8
94
 10
359.0121
 20
21.0918
 30
0.0000
 11
360.1815
 21
21.0918
 31
0.0000
  0
LINE
  8
94
 10
362.1305
 20
19.5326
 30
0.0000
 11
361.3509
 21
19.5326
 31
0.0000
  0
LINE
  8
94
 10
361.3509
 20
19.5326
 30
0.0000
 11
360.9611
 21
19.9224
 31
0.0000
  0
LINE
  8
94
 10
360.9611
 20
19.9224
 30
0.0000
 11
360.9611
 21
20.7020
 31
0.0000
  0
LINE
  8
94
 10
360.9611
 20
20.7020
 30
0.0000
 11
361.3509
 21
21.0918
 31
0.0000
  0
LINE
  8
94
 10
361.3509
 20
21.0918
 30
0.0000
 11
362.1305
 21
21.0918
 31
0.0000
  0
LINE
  8
94
 10
362.1305
 20
21.0918
 30
0.0000
 11
362.5203
 21
20.7020
 31
0.0000
  0
LINE
  8
94
 10
362.5203
 20
20.7020
 30
0.0000
 11
362.5203
 21
20.3122
 31
0.0000
  0
LINE
  8
94
 10
362.5203
 20
20.3122
 30
0.0000
 11
360.9611
 21
20.3122
 31
0.0000
  0
LINE
  8
94
 10
311.2486
 20
9.6139
 30
0.0000
 11
309.8419
 21
9.6139
 31
0.0000
  0
LINE
  8
94
 10
309.8419
 20
9.6139
 30
0.0000
 11
311.2486
 21
11.0206
 31
0.0000
  0
LINE
  8
94
 10
311.2486
 20
11.0206
 30
0.0000
 11
311.2486
 21
11.3722
 31
0.0000
  0
LINE
  8
94
 10
311.2486
 20
11.3722
 30
0.0000
 11
310.8969
 21
11.7239
 31
0.0000
  0
LINE
  8
94
 10
310.8969
 20
11.7239
 30
0.0000
 11
310.1936
 21
11.7239
 31
0.0000
  0
LINE
  8
94
 10
310.1936
 20
11.7239
 30
0.0000
 11
309.8419
 21
11.3722
 31
0.0000
  0
LINE
  8
94
 10
311.9468
 20
9.6139
 30
0.0000
 11
313.3535
 21
11.7239
 31
0.0000
  0
LINE
  8
94
 10
315.4584
 20
9.6139
 30
0.0000
 11
314.0517
 21
9.6139
 31
0.0000
  0
LINE
  8
94
 10
314.0517
 20
9.6139
 30
0.0000
 11
315.4584
 21
11.0206
 31
0.0000
  0
LINE
  8
94
 10
315.4584
 20
11.0206
 30
0.0000
 11
315.4584
 21
11.3722
 31
0.0000
  0
LINE
  8
94
 10
315.4584
 20
11.3722
 30
0.0000
 11
315.1067
 21
11.7239
 31
0.0000
  0
LINE
  8
94
 10
315.1067
 20
11.7239
 30
0.0000
 11
314.4034
 21
11.7239
 31
0.0000
  0
LINE
  8
94
 10
314.4034
 20
11.7239
 30
0.0000
 11
314.0517
 21
11.3722
 31
0.0000
  0
LINE
  8
94
 10
316.1567
 20
9.9656
 30
0.0000
 11
316.1567
 21
11.3722
 31
0.0000
  0
LINE
  8
94
 10
316.1567
 20
11.3722
 30
0.0000
 11
316.5083
 21
11.7239
 31
0.0000
  0
LINE
  8
94
 10
316.5083
 20
11.7239
 30
0.0000
 11
317.2117
 21
11.7239
 31
0.0000
  0
LINE
  8
94
 10
317.2117
 20
11.7239
 30
0.0000
 11
317.5633
 21
11.3722
 31
0.0000
  0
LINE
  8
94
 10
317.5633
 20
11.3722
 30
0.0000
 11
317.5633
 21
9.9656
 31
0.0000
  0
LINE
  8
94
 10
317.5633
 20
9.9656
 30
0.0000
 11
317.2117
 21
9.6139
 31
0.0000
  0
LINE
  8
94
 10
317.2117
 20
9.6139
 30
0.0000
 11
316.5083
 21
9.6139
 31
0.0000
  0
LINE
  8
94
 10
316.5083
 20
9.6139
 30
0.0000
 11
316.1567
 21
9.9656
 31
0.0000
  0
LINE
  8
94
 10
316.1567
 20
9.9656
 30
0.0000
 11
317.5633
 21
11.3722
 31
0.0000
  0
LINE
  8
94
 10
318.2616
 20
9.6139
 30
0.0000
 11
319.6682
 21
11.7239
 31
0.0000
  0
LINE
  8
94
 10
321.7732
 20
9.6139
 30
0.0000
 11
320.3665
 21
9.6139
 31
0.0000
  0
LINE
  8
94
 10
320.3665
 20
9.6139
 30
0.0000
 11
321.7732
 21
11.0206
 31
0.0000
  0
LINE
  8
94
 10
321.7732
 20
11.0206
 30
0.0000
 11
321.7732
 21
11.3722
 31
0.0000
  0
LINE
  8
94
 10
321.7732
 20
11.3722
 30
0.0000
 11
321.4215
 21
11.7239
 31
0.0000
  0
LINE
  8
94
 10
321.4215
 20
11.7239
 30
0.0000
 11
320.7182
 21
11.7239
 31
0.0000
  0
LINE
  8
94
 10
320.7182
 20
11.7239
 30
0.0000
 11
320.3665
 21
11.3722
 31
0.0000
  0
LINE
  8
94
 10
322.4714
 20
9.9656
 30
0.0000
 11
322.4714
 21
11.3722
 31
0.0000
  0
LINE
  8
94
 10
322.4714
 20
11.3722
 30
0.0000
 11
322.8231
 21
11.7239
 31
0.0000
  0
LINE
  8
94
 10
322.8231
 20
11.7239
 30
0.0000
 11
323.5264
 21
11.7239
 31
0.0000
  0
LINE
  8
94
 10
323.5264
 20
11.7239
 30
0.0000
 11
323.8781
 21
11.3722
 31
0.0000
  0
LINE
  8
94
 10
323.8781
 20
11.3722
 30
0.0000
 11
323.8781
 21
9.9656
 31
0.0000
  0
LINE
  8
94
 10
323.8781
 20
9.9656
 30
0.0000
 11
323.5264
 21
9.6139
 31
0.0000
  0
LINE
  8
94
 10
323.5264
 20
9.6139
 30
0.0000
 11
322.8231
 21
9.6139
 31
0.0000
  0
LINE
  8
94
 10
322.8231
 20
9.6139
 30
0.0000
 11
322.4714
 21
9.9656
 31
0.0000
  0
LINE
  8
94
 10
322.4714
 20
9.9656
 30
0.0000
 11
323.8781
 21
11.3722
 31
0.0000
  0
LINE
  8
94
 10
324.5763
 20
11.0206
 30
0.0000
 11
325.2797
 21
11.7239
 31
0.0000
  0
LINE
  8
94
 10
325.2797
 20
11.7239
 30
0.0000
 11
325.2797
 21
9.6139
 31
0.0000
  0
LINE
  8
94
 10
324.5763
 20
9.6139
 30
0.0000
 11
325.9830
 21
9.6139
 31
0.0000
  0
LINE
  8
94
 10
327.7363
 20
9.6139
 30
0.0000
 11
327.7363
 21
11.7239
 31
0.0000
  0
LINE
  8
94
 10
327.7363
 20
11.7239
 30
0.0000
 11
326.6813
 21
10.6689
 31
0.0000
  0
LINE
  8
94
 10
326.6813
 20
10.6689
 30
0.0000
 11
328.0879
 21
10.6689
 31
0.0000
  0
LINE
  8
94
 10
331.9461
 20
9.6139
 30
0.0000
 11
331.9461
 21
11.7239
 31
0.0000
  0
LINE
  8
94
 10
331.9461
 20
11.7239
 30
0.0000
 11
330.8911
 21
10.6689
 31
0.0000
  0
LINE
  8
94
 10
330.8911
 20
10.6689
 30
0.0000
 11
332.2978
 21
10.6689
 31
0.0000
  0
LINE
  8
94
 10
332.9960
 20
11.0206
 30
0.0000
 11
333.3477
 21
11.0206
 31
0.0000
  0
LINE
  8
94
 10
333.3477
 20
11.0206
 30
0.0000
 11
333.3477
 21
10.6689
 31
0.0000
  0
LINE
  8
94
 10
333.3477
 20
10.6689
 30
0.0000
 11
332.9960
 21
10.6689
 31
0.0000
  0
LINE
  8
94
 10
332.9960
 20
10.6689
 30
0.0000
 11
332.9960
 21
11.0206
 31
0.0000
  0
LINE
  8
94
 10
332.9960
 20
9.9656
 30
0.0000
 11
333.3477
 21
9.9656
 31
0.0000
  0
LINE
  8
94
 10
333.3477
 20
9.9656
 30
0.0000
 11
333.3477
 21
9.6139
 31
0.0000
  0
LINE
  8
94
 10
333.3477
 20
9.6139
 30
0.0000
 11
332.9960
 21
9.6139
 31
0.0000
  0
LINE
  8
94
 10
332.9960
 20
9.6139
 30
0.0000
 11
332.9960
 21
9.9656
 31
0.0000
  0
LINE
  8
94
 10
335.1035
 20
9.6139
 30
0.0000
 11
335.1035
 21
11.7239
 31
0.0000
  0
LINE
  8
94
 10
335.1035
 20
11.7239
 30
0.0000
 11
334.0485
 21
10.6689
 31
0.0000
  0
LINE
  8
94
 10
334.0485
 20
10.6689
 30
0.0000
 11
335.4551
 21
10.6689
 31
0.0000
  0
LINE
  8
94
 10
337.5601
 20
11.7239
 30
0.0000
 11
336.8567
 21
11.3722
 31
0.0000
  0
LINE
  8
94
 10
336.8567
 20
11.3722
 30
0.0000
 11
336.1534
 21
10.6689
 31
0.0000
  0
LINE
  8
94
 10
336.1534
 20
10.6689
 30
0.0000
 11
336.1534
 21
9.9656
 31
0.0000
  0
LINE
  8
94
 10
336.1534
 20
9.9656
 30
0.0000
 11
336.5051
 21
9.6139
 31
0.0000
  0
LINE
  8
94
 10
336.5051
 20
9.6139
 30
0.0000
 11
337.2084
 21
9.6139
 31
0.0000
  0
LINE
  8
94
 10
337.2084
 20
9.6139
 30
0.0000
 11
337.5601
 21
9.9656
 31
0.0000
  0
LINE
  8
94
 10
337.5601
 20
9.9656
 30
0.0000
 11
337.5601
 21
10.3172
 31
0.0000
  0
LINE
  8
94
 10
337.5601
 20
10.3172
 30
0.0000
 11
337.2084
 21
10.6689
 31
0.0000
  0
LINE
  8
94
 10
337.2084
 20
10.6689
 30
0.0000
 11
336.1534
 21
10.6689
 31
0.0000
  0
LINE
  8
94
 10
338.2583
 20
11.0206
 30
0.0000
 11
338.6100
 21
11.0206
 31
0.0000
  0
LINE
  8
94
 10
338.6100
 20
11.0206
 30
0.0000
 11
338.6100
 21
10.6689
 31
0.0000
  0
LINE
  8
94
 10
338.6100
 20
10.6689
 30
0.0000
 11
338.2583
 21
10.6689
 31
0.0000
  0
LINE
  8
94
 10
338.2583
 20
10.6689
 30
0.0000
 11
338.2583
 21
11.0206
 31
0.0000
  0
LINE
  8
94
 10
338.2583
 20
9.9656
 30
0.0000
 11
338.6100
 21
9.9656
 31
0.0000
  0
LINE
  8
94
 10
338.6100
 20
9.9656
 30
0.0000
 11
338.6100
 21
9.6139
 31
0.0000
  0
LINE
  8
94
 10
338.6100
 20
9.6139
 30
0.0000
 11
338.2583
 21
9.6139
 31
0.0000
  0
LINE
  8
94
 10
338.2583
 20
9.6139
 30
0.0000
 11
338.2583
 21
9.9656
 31
0.0000
  0
LINE
  8
94
 10
340.3658
 20
9.6139
 30
0.0000
 11
340.3658
 21
11.7239
 31
0.0000
  0
LINE
  8
94
 10
340.3658
 20
11.7239
 30
0.0000
 11
339.3108
 21
10.6689
 31
0.0000
  0
LINE
  8
94
 10
339.3108
 20
10.6689
 30
0.0000
 11
340.7174
 21
10.6689
 31
0.0000
  0
LINE
  8
94
 10
342.4707
 20
9.6139
 30
0.0000
 11
342.4707
 21
11.7239
 31
0.0000
  0
LINE
  8
94
 10
342.4707
 20
11.7239
 30
0.0000
 11
341.4157
 21
10.6689
 31
0.0000
  0
LINE
  8
94
 10
341.4157
 20
10.6689
 30
0.0000
 11
342.8224
 21
10.6689
 31
0.0000
  0
LINE
  8
94
 10
345.6255
 20
9.6139
 30
0.0000
 11
345.6255
 21
11.7239
 31
0.0000
  0
LINE
  8
94
 10
345.6255
 20
11.7239
 30
0.0000
 11
346.6805
 21
11.7239
 31
0.0000
  0
LINE
  8
94
 10
346.6805
 20
11.7239
 30
0.0000
 11
347.0322
 21
11.3722
 31
0.0000
  0
LINE
  8
94
 10
347.0322
 20
11.3722
 30
0.0000
 11
347.0322
 21
10.6689
 31
0.0000
  0
LINE
  8
94
 10
347.0322
 20
10.6689
 30
0.0000
 11
346.6805
 21
10.3172
 31
0.0000
  0
LINE
  8
94
 10
346.6805
 20
10.3172
 30
0.0000
 11
345.6255
 21
10.3172
 31
0.0000
  0
LINE
  8
94
 10
347.7304
 20
9.6139
 30
0.0000
 11
347.7304
 21
11.7239
 31
0.0000
  0
LINE
  8
94
 10
347.7304
 20
11.7239
 30
0.0000
 11
348.4338
 21
11.0206
 31
0.0000
  0
LINE
  8
94
 10
348.4338
 20
11.0206
 30
0.0000
 11
349.1371
 21
11.7239
 31
0.0000
  0
LINE
  8
94
 10
349.1371
 20
11.7239
 30
0.0000
 11
349.1371
 21
9.6139
 31
0.0000
  0
LINE
  8
94
 10
369.5710
 20
4.5466
 30
0.0000
 11
369.5710
 21
6.8854
 31
0.0000
  0
LINE
  8
94
 10
369.5710
 20
6.8854
 30
0.0000
 11
368.4016
 21
5.7160
 31
0.0000
  0
LINE
  8
94
 10
368.4016
 20
5.7160
 30
0.0000
 11
369.9608
 21
5.7160
 31
0.0000
  0
LINE
  8
94
 10
370.7404
 20
4.5466
 30
0.0000
 11
372.2996
 21
6.8854
 31
0.0000
  0
LINE
  8
94
 10
374.2486
 20
4.5466
 30
0.0000
 11
374.2486
 21
6.8854
 31
0.0000
  0
LINE
  8
94
 10
374.2486
 20
6.8854
 30
0.0000
 11
373.0792
 21
5.7160
 31
0.0000
  0
LINE
  8
94
 10
373.0792
 20
5.7160
 30
0.0000
 11
374.6384
 21
5.7160
 31
0.0000
  0
TEXT
  7
ISOCP
  8
94
 10
309.6260
 20
4.3180
 30
0.0000
 40
2.5400
  1
Drawn By:
  0
TEXT
  7
ISOCP
  8
94
 10
309.8800
 20
19.5580
 30
0.0000
 40
2.5400
  1
Title:
  0
TEXT
  7
ISOCP
  8
94
 10
310.1340
 20
14.4780
 30
0.0000
 40
2.5400
  1
Version:
  0
LINE
  8
94
 10
256.5400
 20
182.8800
 30
0.0000
 11
256.5400
 21
111.7600
 31
0.0000
  0
LINE
  8
94
 10
256.5400
 20
111.7600
 30
0.0000
 11
297.1800
 21
111.7600
 31
0.0000
  0
LINE
  8
94
 10
297.1800
 20
111.7600
 30
0.0000
 11
297.1800
 21
182.8800
 31
0.0000
  0
LINE
  8
94
 10
297.1800
 20
182.8800
 30
0.0000
 11
256.5400
 21
182.8800
 31
0.0000
  0
TEXT
  7
ISOCP
  8
94
 10
256.5400
 20
183.6420
 30
0.0000
 40
1.7780
  1
U$14
  0
TEXT
  7
ISOCP
  8
94
 10
256.5400
 20
109.2200
 30
0.0000
 40
1.7780
  1
ENCODER_INTERFACE
  0
LINE
  8
94
 10
251.4600
 20
180.3400
 30
0.0000
 11
256.5400
 21
180.3400
 31
0.0000
  0
TEXT
  7
ISOCP
  8
95
 10
258.8768
 20
179.5780
 30
0.0000
 40
1.5240
  1
1-BIT0
  0
LINE
  8
94
 10
251.4600
 20
157.4800
 30
0.0000
 11
256.5400
 21
157.4800
 31
0.0000
  0
TEXT
  7
ISOCP
  8
95
 10
258.8768
 20
156.7180
 30
0.0000
 40
1.5240
  1
1-BIT7
  0
LINE
  8
94
 10
251.4600
 20
119.3800
 30
0.0000
 11
256.5400
 21
119.3800
 31
0.0000
  0
TEXT
  7
ISOCP
  8
95
 10
258.8768
 20
118.6180
 30
0.0000
 40
1.5240
  1
1-GND
  0
LINE
  8
94
 10
302.2600
 20
147.3200
 30
0.0000
 11
297.1800
 21
147.3200
 31
0.0000
  0
TEXT
  7
ISOCP
  8
95
 10
294.8432
 20
148.0820
 30
0.0000
 40
1.5240
  1
1-GND(1)
 72
2
 73
3
 11
294.8432
 21
148.0820
 31
0.0000
  0
LINE
  8
94
 10
302.2600
 20
170.1800
 30
0.0000
 11
297.1800
 21
170.1800
 31
0.0000
  0
TEXT
  7
ISOCP
  8
95
 10
294.8432
 20
170.9420
 30
0.0000
 40
1.5240
  1
1-GND(5V)
 72
2
 73
3
 11
294.8432
 21
170.9420
 31
0.0000
  0
LINE
  8
94
 10
302.2600
 20
124.4600
 30
0.0000
 11
297.1800
 21
124.4600
 31
0.0000
  0
TEXT
  7
ISOCP
  8
95
 10
294.8432
 20
125.2220
 30
0.0000
 40
1.5240
  1
1-TX
 72
2
 73
3
 11
294.8432
 21
125.2220
 31
0.0000
  0
LINE
  8
94
 10
251.4600
 20
116.8400
 30
0.0000
 11
256.5400
 21
116.8400
 31
0.0000
  0
TEXT
  7
ISOCP
  8
95
 10
258.8768
 20
116.0780
 30
0.0000
 40
1.5240
  1
2-(+12V)
  0
LINE
  8
94
 10
251.4600
 20
177.8000
 30
0.0000
 11
256.5400
 21
177.8000
 31
0.0000
  0
TEXT
  7
ISOCP
  8
95
 10
258.8768
 20
177.0380
 30
0.0000
 40
1.5240
  1
2-BIT1
  0
LINE
  8
94
 10
251.4600
 20
154.9400
 30
0.0000
 11
256.5400
 21
154.9400
 31
0.0000
  0
TEXT
  7
ISOCP
  8
95
 10
258.8768
 20
154.1780
 30
0.0000
 40
1.5240
  1
2-BIT8
  0
LINE
  8
94
 10
302.2600
 20
172.7200
 30
0.0000
 11
297.1800
 21
172.7200
 31
0.0000
  0
TEXT
  7
ISOCP
  8
95
 10
294.8432
 20
173.4820
 30
0.0000
 40
1.5240
  1
2-INPUT
 72
2
 73
3
 11
294.8432
 21
173.4820
 31
0.0000
  0
LINE
  8
94
 10
251.4600
 20
132.0800
 30
0.0000
 11
256.5400
 21
132.0800
 31
0.0000
  0
TEXT
  7
ISOCP
  8
95
 10
258.8768
 20
131.3180
 30
0.0000
 40
1.5240
  1
2-LTSTOP
  0
LINE
  8
94
 10
302.2600
 20
149.8600
 30
0.0000
 11
297.1800
 21
149.8600
 31
0.0000
  0
TEXT
  7
ISOCP
  8
95
 10
294.8432
 20
150.6220
 30
0.0000
 40
1.5240
  1
2-QEA
 72
2
 73
3
 11
294.8432
 21
150.6220
 31
0.0000
  0
LINE
  8
94
 10
302.2600
 20
127.0000
 30
0.0000
 11
297.1800
 21
127.0000
 31
0.0000
  0
TEXT
  7
ISOCP
  8
95
 10
294.8432
 20
127.7620
 30
0.0000
 40
1.5240
  1
2-RX
 72
2
 73
3
 11
294.8432
 21
127.7620
 31
0.0000
  0
LINE
  8
94
 10
251.4600
 20
175.2600
 30
0.0000
 11
256.5400
 21
175.2600
 31
0.0000
  0
TEXT
  7
ISOCP
  8
95
 10
258.8768
 20
174.4980
 30
0.0000
 40
1.5240
  1
3-BIT2
  0
LINE
  8
94
 10
251.4600
 20
152.4000
 30
0.0000
 11
256.5400
 21
152.4000
 31
0.0000
  0
TEXT
  7
ISOCP
  8
95
 10
258.8768
 20
151.6380
 30
0.0000
 40
1.5240
  1
3-BIT9
  0
LINE
  8
94
 10
302.2600
 20
129.5400
 30
0.0000
 11
297.1800
 21
129.5400
 31
0.0000
  0
TEXT
  7
ISOCP
  8
95
 10
294.8432
 20
130.3020
 30
0.0000
 40
1.5240
  1
3-GND
 72
2
 73
3
 11
294.8432
 21
130.3020
 31
0.0000
  0
LINE
  8
94
 10
302.2600
 20
152.4000
 30
0.0000
 11
297.1800
 21
152.4000
 31
0.0000
  0
TEXT
  7
ISOCP
  8
95
 10
294.8432
 20
153.1620
 30
0.0000
 40
1.5240
  1
3-QEB
 72
2
 73
3
 11
294.8432
 21
153.1620
 31
0.0000
  0
LINE
  8
94
 10
251.4600
 20
129.5400
 30
0.0000
 11
256.5400
 21
129.5400
 31
0.0000
  0
TEXT
  7
ISOCP
  8
95
 10
258.8768
 20
128.7780
 30
0.0000
 40
1.5240
  1
3-RTSTOP
  0
LINE
  8
94
 10
302.2600
 20
154.9400
 30
0.0000
 11
297.1800
 21
154.9400
 31
0.0000
  0
TEXT
  7
ISOCP
  8
95
 10
294.8432
 20
155.7020
 30
0.0000
 40
1.5240
  1
4-(+5VDC)
 72
2
 73
3
 11
294.8432
 21
155.7020
 31
0.0000
  0
LINE
  8
94
 10
251.4600
 20
149.8600
 30
0.0000
 11
256.5400
 21
149.8600
 31
0.0000
  0
TEXT
  7
ISOCP
  8
95
 10
258.8768
 20
149.0980
 30
0.0000
 40
1.5240
  1
4-AUX
  0
LINE
  8
94
 10
251.4600
 20
172.7200
 30
0.0000
 11
256.5400
 21
172.7200
 31
0.0000
  0
TEXT
  7
ISOCP
  8
95
 10
258.8768
 20
171.9580
 30
0.0000
 40
1.5240
  1
4-BIT3
  0
LINE
  8
94
 10
251.4600
 20
127.0000
 30
0.0000
 11
256.5400
 21
127.0000
 31
0.0000
  0
TEXT
  7
ISOCP
  8
95
 10
258.8768
 20
126.2380
 30
0.0000
 40
1.5240
  1
4-GND
  0
LINE
  8
94
 10
251.4600
 20
170.1800
 30
0.0000
 11
256.5400
 21
170.1800
 31
0.0000
  0
TEXT
  7
ISOCP
  8
95
 10
258.8768
 20
169.4180
 30
0.0000
 40
1.5240
  1
5-BIT4
  0
LINE
  8
94
 10
251.4600
 20
147.3200
 30
0.0000
 11
256.5400
 21
147.3200
 31
0.0000
  0
TEXT
  7
ISOCP
  8
95
 10
258.8768
 20
146.5580
 30
0.0000
 40
1.5240
  1
5-SPARE
  0
LINE
  8
94
 10
251.4600
 20
167.6400
 30
0.0000
 11
256.5400
 21
167.6400
 31
0.0000
  0
TEXT
  7
ISOCP
  8
95
 10
258.8768
 20
166.8780
 30
0.0000
 40
1.5240
  1
6-BIT5
  0
LINE
  8
94
 10
251.4600
 20
165.1000
 30
0.0000
 11
256.5400
 21
165.1000
 31
0.0000
  0
TEXT
  7
ISOCP
  8
95
 10
258.8768
 20
164.3380
 30
0.0000
 40
1.5240
  1
7-BIT6
  0
LINE
  8
94
 10
251.4600
 20
162.5600
 30
0.0000
 11
256.5400
 21
162.5600
 31
0.0000
  0
TEXT
  7
ISOCP
  8
95
 10
258.8768
 20
161.7980
 30
0.0000
 40
1.5240
  1
8-GND(0)
  0
LINE
  8
94
 10
251.4600
 20
139.7000
 30
0.0000
 11
256.5400
 21
139.7000
 31
0.0000
  0
TEXT
  7
ISOCP
  8
95
 10
258.8768
 20
138.9380
 30
0.0000
 40
1.5240
  1
8-GND(1)
  0
LINE
  8
94
 10
251.4600
 20
144.7800
 30
0.0000
 11
256.5400
 21
144.7800
 31
0.0000
  0
TEXT
  7
ISOCP
  8
95
 10
258.8768
 20
144.0180
 30
0.0000
 40
1.5240
  1
P$14
  0
LINE
  8
94
 10
251.4600
 20
142.2400
 30
0.0000
 11
256.5400
 21
142.2400
 31
0.0000
  0
TEXT
  7
ISOCP
  8
95
 10
258.8768
 20
141.4780
 30
0.0000
 40
1.5240
  1
P$15
  0
LINE
  8
94
 10
251.4600
 20
134.6200
 30
0.0000
 11
256.5400
 21
134.6200
 31
0.0000
  0
TEXT
  7
ISOCP
  8
95
 10
258.8768
 20
133.8580
 30
0.0000
 40
1.5240
  1
P$17
  0
LINE
  8
94
 10
154.9400
 20
208.2800
 30
0.0000
 11
88.9000
 21
208.2800
 31
0.0000
  0
LINE
  8
94
 10
88.9000
 20
208.2800
 30
0.0000
 11
88.9000
 21
78.7400
 31
0.0000
  0
LINE
  8
94
 10
88.9000
 20
78.7400
 30
0.0000
 11
154.9400
 21
78.7400
 31
0.0000
  0
LINE
  8
94
 10
154.9400
 20
78.7400
 30
0.0000
 11
154.9400
 21
208.2800
 31
0.0000
  0
LINE
  8
94
 10
89.6620
 20
204.4700
 30
0.0000
 11
90.6780
 21
204.4700
 31
0.0000
  0
LINE
  8
94
 10
90.6780
 20
204.4700
 30
0.0000
 11
90.6780
 21
199.6440
 31
0.0000
  0
LINE
  8
94
 10
90.6780
 20
199.6440
 30
0.0000
 11
89.6620
 21
199.6440
 31
0.0000
  0
LINE
  8
94
 10
89.6620
 20
199.6440
 30
0.0000
 11
89.6620
 21
204.4700
 31
0.0000
  0
LINE
  8
94
 10
89.6620
 20
194.3100
 30
0.0000
 11
90.6780
 21
194.3100
 31
0.0000
  0
LINE
  8
94
 10
90.6780
 20
194.3100
 30
0.0000
 11
90.6780
 21
174.2440
 31
0.0000
  0
LINE
  8
94
 10
90.6780
 20
174.2440
 30
0.0000
 11
89.6620
 21
174.2440
 31
0.0000
  0
LINE
  8
94
 10
89.6620
 20
174.2440
 30
0.0000
 11
89.6620
 21
194.3100
 31
0.0000
  0
LINE
  8
94
 10
89.6620
 20
168.9100
 30
0.0000
 11
90.6780
 21
168.9100
 31
0.0000
  0
LINE
  8
94
 10
90.6780
 20
168.9100
 30
0.0000
 11
90.6780
 21
148.8440
 31
0.0000
  0
LINE
  8
94
 10
90.6780
 20
148.8440
 30
0.0000
 11
89.6620
 21
148.8440
 31
0.0000
  0
LINE
  8
94
 10
89.6620
 20
148.8440
 30
0.0000
 11
89.6620
 21
168.9100
 31
0.0000
  0
LINE
  8
94
 10
89.6620
 20
143.5100
 30
0.0000
 11
90.6780
 21
143.5100
 31
0.0000
  0
LINE
  8
94
 10
90.6780
 20
143.5100
 30
0.0000
 11
90.6780
 21
118.3640
 31
0.0000
  0
LINE
  8
94
 10
90.6780
 20
118.3640
 30
0.0000
 11
89.6620
 21
118.3640
 31
0.0000
  0
LINE
  8
94
 10
89.6620
 20
118.3640
 30
0.0000
 11
89.6620
 21
143.5100
 31
0.0000
  0
LINE
  8
94
 10
89.6620
 20
113.0300
 30
0.0000
 11
90.6780
 21
113.0300
 31
0.0000
  0
LINE
  8
94
 10
90.6780
 20
113.0300
 30
0.0000
 11
90.6780
 21
87.8840
 31
0.0000
  0
LINE
  8
94
 10
90.6780
 20
87.8840
 30
0.0000
 11
89.6620
 21
87.8840
 31
0.0000
  0
LINE
  8
94
 10
89.6620
 20
87.8840
 30
0.0000
 11
89.6620
 21
113.0300
 31
0.0000
  0
LINE
  8
94
 10
154.1780
 20
168.9100
 30
0.0000
 11
153.1620
 21
168.9100
 31
0.0000
  0
LINE
  8
94
 10
153.1620
 20
168.9100
 30
0.0000
 11
153.1620
 21
204.2160
 31
0.0000
  0
LINE
  8
94
 10
153.1620
 20
204.2160
 30
0.0000
 11
154.1780
 21
204.2160
 31
0.0000
  0
LINE
  8
94
 10
154.1780
 20
204.2160
 30
0.0000
 11
154.1780
 21
168.9100
 31
0.0000
  0
LINE
  8
94
 10
154.1780
 20
140.9700
 30
0.0000
 11
153.1620
 21
140.9700
 31
0.0000
  0
LINE
  8
94
 10
153.1620
 20
140.9700
 30
0.0000
 11
153.1620
 21
163.5760
 31
0.0000
  0
LINE
  8
94
 10
153.1620
 20
163.5760
 30
0.0000
 11
154.1780
 21
163.5760
 31
0.0000
  0
LINE
  8
94
 10
154.1780
 20
163.5760
 30
0.0000
 11
154.1780
 21
140.9700
 31
0.0000
  0
LINE
  8
94
 10
154.1780
 20
110.4900
 30
0.0000
 11
153.1620
 21
110.4900
 31
0.0000
  0
LINE
  8
94
 10
153.1620
 20
110.4900
 30
0.0000
 11
153.1620
 21
135.6360
 31
0.0000
  0
LINE
  8
94
 10
153.1620
 20
135.6360
 30
0.0000
 11
154.1780
 21
135.6360
 31
0.0000
  0
LINE
  8
94
 10
154.1780
 20
135.6360
 30
0.0000
 11
154.1780
 21
110.4900
 31
0.0000
  0
LINE
  8
94
 10
130.8100
 20
207.5180
 30
0.0000
 11
130.8100
 21
206.5020
 31
0.0000
  0
LINE
  8
94
 10
130.8100
 20
206.5020
 30
0.0000
 11
115.8240
 21
206.5020
 31
0.0000
  0
LINE
  8
94
 10
115.8240
 20
206.5020
 30
0.0000
 11
115.8240
 21
207.5180
 31
0.0000
  0
LINE
  8
94
 10
115.8240
 20
207.5180
 30
0.0000
 11
130.8100
 21
207.5180
 31
0.0000
  0
LINE
  8
94
 10
154.1780
 20
80.0100
 30
0.0000
 11
153.1620
 21
80.0100
 31
0.0000
  0
LINE
  8
94
 10
153.1620
 20
80.0100
 30
0.0000
 11
153.1620
 21
105.1560
 31
0.0000
  0
LINE
  8
94
 10
153.1620
 20
105.1560
 30
0.0000
 11
154.1780
 21
105.1560
 31
0.0000
  0
LINE
  8
94
 10
154.1780
 20
105.1560
 30
0.0000
 11
154.1780
 21
80.0100
 31
0.0000
  0
TEXT
  7
ISOCP
  8
94
 10
89.6620
 20
205.2320
 30
0.0000
 40
1.7780
  1
Power Supply
  0
TEXT
  7
ISOCP
  8
94
 10
89.6620
 20
195.0720
 30
0.0000
 40
1.7780
  1
High Current Outputs
  0
TEXT
  7
ISOCP
  8
94
 10
89.6620
 20
169.6720
 30
0.0000
 40
1.7780
  1
High Current Outputs
  0
TEXT
  7
ISOCP
  8
94
 10
89.6620
 20
144.2720
 30
0.0000
 40
1.7780
  1
GPIO
  0
TEXT
  7
ISOCP
  8
94
 10
89.6620
 20
113.7920
 30
0.0000
 40
1.7780
  1
GPIO
  0
TEXT
  7
ISOCP
  8
94
 10
154.1780
 20
206.5020
 30
0.0000
 40
1.7780
  1
Analog IO
 72
2
 73
3
 11
154.1780
 21
206.5020
 31
0.0000
  0
TEXT
  7
ISOCP
  8
94
 10
154.1780
 20
165.8620
 30
0.0000
 40
1.7780
  1
RS485 RS232
 72
2
 73
3
 11
154.1780
 21
165.8620
 31
0.0000
  0
TEXT
  7
ISOCP
  8
94
 10
154.1780
 20
137.9220
 30
0.0000
 40
1.7780
  1
GPOI
 72
2
 73
3
 11
154.1780
 21
137.9220
 31
0.0000
  0
TEXT
  7
ISOCP
  8
94
 10
131.5720
 20
207.5180
 30
0.0000
 40
1.7780
  1
RabbitNet Power Supply
 50
90.0000
 72
2
 73
3
 11
131.5720
 21
207.5180
 31
0.0000
  0
TEXT
  7
ISOCP
  8
94
 10
154.1780
 20
107.4420
 30
0.0000
 40
1.7780
  1
GPOI
 72
2
 73
3
 11
154.1780
 21
107.4420
 31
0.0000
  0
LINE
  8
94
 10
83.8200
 20
111.7600
 30
0.0000
 11
88.9000
 21
111.7600
 31
0.0000
  0
TEXT
  7
ISOCP
  8
95
 10
91.2368
 20
110.9980
 30
0.0000
 40
1.5240
  1
J1_1_DIO23
  0
TEXT
  7
ISOCP
  8
95
 10
86.5632
 20
112.1156
 30
0.0000
 40
1.5240
  1
P$J1-1
 72
2
 73
0
 11
86.5632
 21
112.1156
 31
0.0000
  0
LINE
  8
94
 10
83.8200
 20
109.2200
 30
0.0000
 11
88.9000
 21
109.2200
 31
0.0000
  0
TEXT
  7
ISOCP
  8
95
 10
91.2368
 20
108.4580
 30
0.0000
 40
1.5240
  1
J1_2_DIO21
  0
TEXT
  7
ISOCP
  8
95
 10
86.5632
 20
109.5756
 30
0.0000
 40
1.5240
  1
P$J1-2
 72
2
 73
0
 11
86.5632
 21
109.5756
 31
0.0000
  0
LINE
  8
94
 10
83.8200
 20
106.6800
 30
0.0000
 11
88.9000
 21
106.6800
 31
0.0000
  0
TEXT
  7
ISOCP
  8
95
 10
91.2368
 20
105.9180
 30
0.0000
 40
1.5240
  1
J1_3_DIO19
  0
TEXT
  7
ISOCP
  8
95
 10
86.5632
 20
107.0356
 30
0.0000
 40
1.5240
  1
P$J1-3
 72
2
 73
0
 11
86.5632
 21
107.0356
 31
0.0000
  0
LINE
  8
94
 10
83.8200
 20
104.1400
 30
0.0000
 11
88.9000
 21
104.1400
 31
0.0000
  0
TEXT
  7
ISOCP
  8
95
 10
91.2368
 20
103.3780
 30
0.0000
 40
1.5240
  1
J1_4_DIO17
  0
TEXT
  7
ISOCP
  8
95
 10
86.5632
 20
104.4956
 30
0.0000
 40
1.5240
  1
P$J1-4
 72
2
 73
0
 11
86.5632
 21
104.4956
 31
0.0000
  0
LINE
  8
94
 10
83.8200
 20
101.6000
 30
0.0000
 11
88.9000
 21
101.6000
 31
0.0000
  0
TEXT
  7
ISOCP
  8
95
 10
91.2368
 20
100.8380
 30
0.0000
 40
1.5240
  1
J1_5_GND
  0
TEXT
  7
ISOCP
  8
95
 10
86.5632
 20
101.9556
 30
0.0000
 40
1.5240
  1
P$J1-5
 72
2
 73
0
 11
86.5632
 21
101.9556
 31
0.0000
  0
LINE
  8
94
 10
83.8200
 20
99.0600
 30
0.0000
 11
88.9000
 21
99.0600
 31
0.0000
  0
TEXT
  7
ISOCP
  8
95
 10
91.2368
 20
98.2980
 30
0.0000
 40
1.5240
  1
J1_6_DIO22
  0
TEXT
  7
ISOCP
  8
95
 10
86.5632
 20
99.4156
 30
0.0000
 40
1.5240
  1
P$J1-6
 72
2
 73
0
 11
86.5632
 21
99.4156
 31
0.0000
  0
LINE
  8
94
 10
83.8200
 20
96.5200
 30
0.0000
 11
88.9000
 21
96.5200
 31
0.0000
  0
TEXT
  7
ISOCP
  8
95
 10
91.2368
 20
95.7580
 30
0.0000
 40
1.5240
  1
J1_7_DIO20
  0
TEXT
  7
ISOCP
  8
95
 10
86.5632
 20
96.8756
 30
0.0000
 40
1.5240
  1
P$J1-7
 72
2
 73
0
 11
86.5632
 21
96.8756
 31
0.0000
  0
LINE
  8
94
 10
83.8200
 20
93.9800
 30
0.0000
 11
88.9000
 21
93.9800
 31
0.0000
  0
TEXT
  7
ISOCP
  8
95
 10
91.2368
 20
93.2180
 30
0.0000
 40
1.5240
  1
J1_8_DIO18
  0
TEXT
  7
ISOCP
  8
95
 10
86.5632
 20
94.3356
 30
0.0000
 40
1.5240
  1
P$J1-8
 72
2
 73
0
 11
86.5632
 21
94.3356
 31
0.0000
  0
LINE
  8
94
 10
83.8200
 20
91.4400
 30
0.0000
 11
88.9000
 21
91.4400
 31
0.0000
  0
TEXT
  7
ISOCP
  8
95
 10
91.2368
 20
90.6780
 30
0.0000
 40
1.5240
  1
J1_9_DIO16
  0
TEXT
  7
ISOCP
  8
95
 10
86.5632
 20
91.7956
 30
0.0000
 40
1.5240
  1
P$J1-9
 72
2
 73
0
 11
86.5632
 21
91.7956
 31
0.0000
  0
LINE
  8
94
 10
83.8200
 20
88.9000
 30
0.0000
 11
88.9000
 21
88.9000
 31
0.0000
  0
TEXT
  7
ISOCP
  8
95
 10
91.2368
 20
88.1380
 30
0.0000
 40
1.5240
  1
J1_10_+KC
  0
TEXT
  7
ISOCP
  8
95
 10
86.5632
 20
89.2556
 30
0.0000
 40
1.5240
  1
P$J1-10
 72
2
 73
0
 11
86.5632
 21
89.2556
 31
0.0000
  0
LINE
  8
94
 10
83.8200
 20
142.2400
 30
0.0000
 11
88.9000
 21
142.2400
 31
0.0000
  0
TEXT
  7
ISOCP
  8
95
 10
91.2368
 20
141.4780
 30
0.0000
 40
1.5240
  1
J2_1_DIO31
  0
TEXT
  7
ISOCP
  8
95
 10
86.5632
 20
142.5956
 30
0.0000
 40
1.5240
  1
P$J2-1
 72
2
 73
0
 11
86.5632
 21
142.5956
 31
0.0000
  0
LINE
  8
94
 10
83.8200
 20
139.7000
 30
0.0000
 11
88.9000
 21
139.7000
 31
0.0000
  0
TEXT
  7
ISOCP
  8
95
 10
91.2368
 20
138.9380
 30
0.0000
 40
1.5240
  1
J2_2_DIO29
  0
TEXT
  7
ISOCP
  8
95
 10
86.5632
 20
140.0556
 30
0.0000
 40
1.5240
  1
P$J2-2
 72
2
 73
0
 11
86.5632
 21
140.0556
 31
0.0000
  0
LINE
  8
94
 10
83.8200
 20
137.1600
 30
0.0000
 11
88.9000
 21
137.1600
 31
0.0000
  0
TEXT
  7
ISOCP
  8
95
 10
91.2368
 20
136.3980
 30
0.0000
 40
1.5240
  1
J2_3_DIO27
  0
TEXT
  7
ISOCP
  8
95
 10
86.5632
 20
137.5156
 30
0.0000
 40
1.5240
  1
P$J2-3
 72
2
 73
0
 11
86.5632
 21
137.5156
 31
0.0000
  0
LINE
  8
94
 10
83.8200
 20
134.6200
 30
0.0000
 11
88.9000
 21
134.6200
 31
0.0000
  0
TEXT
  7
ISOCP
  8
95
 10
91.2368
 20
133.8580
 30
0.0000
 40
1.5240
  1
J2_4_DIO25
  0
TEXT
  7
ISOCP
  8
95
 10
86.5632
 20
134.9756
 30
0.0000
 40
1.5240
  1
P$J2-4
 72
2
 73
0
 11
86.5632
 21
134.9756
 31
0.0000
  0
LINE
  8
94
 10
83.8200
 20
132.0800
 30
0.0000
 11
88.9000
 21
132.0800
 31
0.0000
  0
TEXT
  7
ISOCP
  8
95
 10
91.2368
 20
131.3180
 30
0.0000
 40
1.5240
  1
J2_5_GND
  0
TEXT
  7
ISOCP
  8
95
 10
86.5632
 20
132.4356
 30
0.0000
 40
1.5240
  1
P$J2-5
 72
2
 73
0
 11
86.5632
 21
132.4356
 31
0.0000
  0
LINE
  8
94
 10
83.8200
 20
129.5400
 30
0.0000
 11
88.9000
 21
129.5400
 31
0.0000
  0
TEXT
  7
ISOCP
  8
95
 10
91.2368
 20
128.7780
 30
0.0000
 40
1.5240
  1
J2_6_DIO30
  0
TEXT
  7
ISOCP
  8
95
 10
86.5632
 20
129.8956
 30
0.0000
 40
1.5240
  1
P$J2-6
 72
2
 73
0
 11
86.5632
 21
129.8956
 31
0.0000
  0
LINE
  8
94
 10
83.8200
 20
127.0000
 30
0.0000
 11
88.9000
 21
127.0000
 31
0.0000
  0
TEXT
  7
ISOCP
  8
95
 10
91.2368
 20
126.2380
 30
0.0000
 40
1.5240
  1
J2_7_DIO28
  0
TEXT
  7
ISOCP
  8
95
 10
86.5632
 20
127.3556
 30
0.0000
 40
1.5240
  1
P$J2-7
 72
2
 73
0
 11
86.5632
 21
127.3556
 31
0.0000
  0
LINE
  8
94
 10
83.8200
 20
124.4600
 30
0.0000
 11
88.9000
 21
124.4600
 31
0.0000
  0
TEXT
  7
ISOCP
  8
95
 10
91.2368
 20
123.6980
 30
0.0000
 40
1.5240
  1
J2_8_DIO26
  0
TEXT
  7
ISOCP
  8
95
 10
86.5632
 20
124.8156
 30
0.0000
 40
1.5240
  1
P$J2-8
 72
2
 73
0
 11
86.5632
 21
124.8156
 31
0.0000
  0
LINE
  8
94
 10
83.8200
 20
121.9200
 30
0.0000
 11
88.9000
 21
121.9200
 31
0.0000
  0
TEXT
  7
ISOCP
  8
95
 10
91.2368
 20
121.1580
 30
0.0000
 40
1.5240
  1
J2_9_DIO24
  0
TEXT
  7
ISOCP
  8
95
 10
86.5632
 20
122.2756
 30
0.0000
 40
1.5240
  1
P$J2-9
 72
2
 73
0
 11
86.5632
 21
122.2756
 31
0.0000
  0
LINE
  8
94
 10
83.8200
 20
119.3800
 30
0.0000
 11
88.9000
 21
119.3800
 31
0.0000
  0
TEXT
  7
ISOCP
  8
95
 10
91.2368
 20
118.6180
 30
0.0000
 40
1.5240
  1
J2_10_+KD
  0
TEXT
  7
ISOCP
  8
95
 10
86.5632
 20
119.7356
 30
0.0000
 40
1.5240
  1
P$J2-10
 72
2
 73
0
 11
86.5632
 21
119.7356
 31
0.0000
  0
LINE
  8
94
 10
83.8200
 20
167.6400
 30
0.0000
 11
88.9000
 21
167.6400
 31
0.0000
  0
TEXT
  7
ISOCP
  8
95
 10
91.2368
 20
166.8780
 30
0.0000
 40
1.5240
  1
J3_1_HOUT1
  0
TEXT
  7
ISOCP
  8
95
 10
86.5632
 20
167.9956
 30
0.0000
 40
1.5240
  1
P$J3-1
 72
2
 73
0
 11
86.5632
 21
167.9956
 31
0.0000
  0
LINE
  8
94
 10
83.8200
 20
165.1000
 30
0.0000
 11
88.9000
 21
165.1000
 31
0.0000
  0
TEXT
  7
ISOCP
  8
95
 10
91.2368
 20
164.3380
 30
0.0000
 40
1.5240
  1
J3_2_GND
  0
TEXT
  7
ISOCP
  8
95
 10
86.5632
 20
165.4556
 30
0.0000
 40
1.5240
  1
P$J3-2
 72
2
 73
0
 11
86.5632
 21
165.4556
 31
0.0000
  0
LINE
  8
94
 10
83.8200
 20
162.5600
 30
0.0000
 11
88.9000
 21
162.5600
 31
0.0000
  0
TEXT
  7
ISOCP
  8
95
 10
91.2368
 20
161.7980
 30
0.0000
 40
1.5240
  1
J3_4_HOUT3
  0
TEXT
  7
ISOCP
  8
95
 10
86.5632
 20
162.9156
 30
0.0000
 40
1.5240
  1
P$J3-4
 72
2
 73
0
 11
86.5632
 21
162.9156
 31
0.0000
  0
LINE
  8
94
 10
83.8200
 20
160.0200
 30
0.0000
 11
88.9000
 21
160.0200
 31
0.0000
  0
TEXT
  7
ISOCP
  8
95
 10
91.2368
 20
159.2580
 30
0.0000
 40
1.5240
  1
J3_5_GND
  0
TEXT
  7
ISOCP
  8
95
 10
86.5632
 20
160.3756
 30
0.0000
 40
1.5240
  1
P$J3-5
 72
2
 73
0
 11
86.5632
 21
160.3756
 31
0.0000
  0
LINE
  8
94
 10
83.8200
 20
157.4800
 30
0.0000
 11
88.9000
 21
157.4800
 31
0.0000
  0
TEXT
  7
ISOCP
  8
95
 10
91.2368
 20
156.7180
 30
0.0000
 40
1.5240
  1
J3_6_HOUT0
  0
TEXT
  7
ISOCP
  8
95
 10
86.5632
 20
157.8356
 30
0.0000
 40
1.5240
  1
P$J3-6
 72
2
 73
0
 11
86.5632
 21
157.8356
 31
0.0000
  0
LINE
  8
94
 10
83.8200
 20
154.9400
 30
0.0000
 11
88.9000
 21
154.9400
 31
0.0000
  0
TEXT
  7
ISOCP
  8
95
 10
91.2368
 20
154.1780
 30
0.0000
 40
1.5240
  1
J3_7_+K1
  0
TEXT
  7
ISOCP
  8
95
 10
86.5632
 20
155.2956
 30
0.0000
 40
1.5240
  1
P$J3-7
 72
2
 73
0
 11
86.5632
 21
155.2956
 31
0.0000
  0
LINE
  8
94
 10
83.8200
 20
152.4000
 30
0.0000
 11
88.9000
 21
152.4000
 31
0.0000
  0
TEXT
  7
ISOCP
  8
95
 10
91.2368
 20
151.6380
 30
0.0000
 40
1.5240
  1
J3_9_HOUT2
  0
TEXT
  7
ISOCP
  8
95
 10
86.5632
 20
152.7556
 30
0.0000
 40
1.5240
  1
P$J3-9
 72
2
 73
0
 11
86.5632
 21
152.7556
 31
0.0000
  0
LINE
  8
94
 10
83.8200
 20
149.8600
 30
0.0000
 11
88.9000
 21
149.8600
 31
0.0000
  0
TEXT
  7
ISOCP
  8
95
 10
91.2368
 20
149.0980
 30
0.0000
 40
1.5240
  1
J3_10_+K1
  0
TEXT
  7
ISOCP
  8
95
 10
86.5632
 20
150.2156
 30
0.0000
 40
1.5240
  1
P$J3-10
 72
2
 73
0
 11
86.5632
 21
150.2156
 31
0.0000
  0
LINE
  8
94
 10
83.8200
 20
193.0400
 30
0.0000
 11
88.9000
 21
193.0400
 31
0.0000
  0
TEXT
  7
ISOCP
  8
95
 10
91.2368
 20
192.2780
 30
0.0000
 40
1.5240
  1
J4_1_HOUT5
  0
TEXT
  7
ISOCP
  8
95
 10
86.5632
 20
193.3956
 30
0.0000
 40
1.5240
  1
P$J4-1
 72
2
 73
0
 11
86.5632
 21
193.3956
 31
0.0000
  0
LINE
  8
94
 10
83.8200
 20
190.5000
 30
0.0000
 11
88.9000
 21
190.5000
 31
0.0000
  0
TEXT
  7
ISOCP
  8
95
 10
91.2368
 20
189.7380
 30
0.0000
 40
1.5240
  1
J4_2_GND
  0
TEXT
  7
ISOCP
  8
95
 10
86.5632
 20
190.8556
 30
0.0000
 40
1.5240
  1
P$J4-2
 72
2
 73
0
 11
86.5632
 21
190.8556
 31
0.0000
  0
LINE
  8
94
 10
83.8200
 20
187.9600
 30
0.0000
 11
88.9000
 21
187.9600
 31
0.0000
  0
TEXT
  7
ISOCP
  8
95
 10
91.2368
 20
187.1980
 30
0.0000
 40
1.5240
  1
J4_4_HOUT7
  0
TEXT
  7
ISOCP
  8
95
 10
86.5632
 20
188.3156
 30
0.0000
 40
1.5240
  1
P$J4-4
 72
2
 73
0
 11
86.5632
 21
188.3156
 31
0.0000
  0
LINE
  8
94
 10
83.8200
 20
185.4200
 30
0.0000
 11
88.9000
 21
185.4200
 31
0.0000
  0
TEXT
  7
ISOCP
  8
95
 10
91.2368
 20
184.6580
 30
0.0000
 40
1.5240
  1
J4_5_GND
  0
TEXT
  7
ISOCP
  8
95
 10
86.5632
 20
185.7756
 30
0.0000
 40
1.5240
  1
P$J4-5
 72
2
 73
0
 11
86.5632
 21
185.7756
 31
0.0000
  0
LINE
  8
94
 10
83.8200
 20
182.8800
 30
0.0000
 11
88.9000
 21
182.8800
 31
0.0000
  0
TEXT
  7
ISOCP
  8
95
 10
91.2368
 20
182.1180
 30
0.0000
 40
1.5240
  1
J4_6_HOUT4
  0
TEXT
  7
ISOCP
  8
95
 10
86.5632
 20
183.2356
 30
0.0000
 40
1.5240
  1
P$J4-6
 72
2
 73
0
 11
86.5632
 21
183.2356
 31
0.0000
  0
LINE
  8
94
 10
83.8200
 20
180.3400
 30
0.0000
 11
88.9000
 21
180.3400
 31
0.0000
  0
TEXT
  7
ISOCP
  8
95
 10
91.2368
 20
179.5780
 30
0.0000
 40
1.5240
  1
J4_7_+K2
  0
TEXT
  7
ISOCP
  8
95
 10
86.5632
 20
180.6956
 30
0.0000
 40
1.5240
  1
P$J4-7
 72
2
 73
0
 11
86.5632
 21
180.6956
 31
0.0000
  0
LINE
  8
94
 10
83.8200
 20
177.8000
 30
0.0000
 11
88.9000
 21
177.8000
 31
0.0000
  0
TEXT
  7
ISOCP
  8
95
 10
91.2368
 20
177.0380
 30
0.0000
 40
1.5240
  1
J4_9_HOUT6
  0
TEXT
  7
ISOCP
  8
95
 10
86.5632
 20
178.1556
 30
0.0000
 40
1.5240
  1
P$J4-9
 72
2
 73
0
 11
86.5632
 21
178.1556
 31
0.0000
  0
LINE
  8
94
 10
83.8200
 20
175.2600
 30
0.0000
 11
88.9000
 21
175.2600
 31
0.0000
  0
TEXT
  7
ISOCP
  8
95
 10
91.2368
 20
174.4980
 30
0.0000
 40
1.5240
  1
J4_10_+K2
  0
TEXT
  7
ISOCP
  8
95
 10
86.5632
 20
175.6156
 30
0.0000
 40
1.5240
  1
P$J4-10
 72
2
 73
0
 11
86.5632
 21
175.6156
 31
0.0000
  0
LINE
  8
94
 10
83.8200
 20
203.2000
 30
0.0000
 11
88.9000
 21
203.2000
 31
0.0000
  0
TEXT
  7
ISOCP
  8
95
 10
91.2368
 20
202.4380
 30
0.0000
 40
1.5240
  1
J5_1_+RAW
  0
TEXT
  7
ISOCP
  8
95
 10
86.5632
 20
203.5556
 30
0.0000
 40
1.5240
  1
P$J5-1
 72
2
 73
0
 11
86.5632
 21
203.5556
 31
0.0000
  0
LINE
  8
94
 10
83.8200
 20
200.6600
 30
0.0000
 11
88.9000
 21
200.6600
 31
0.0000
  0
TEXT
  7
ISOCP
  8
95
 10
91.2368
 20
199.8980
 30
0.0000
 40
1.5240
  1
J5_3_GND
  0
TEXT
  7
ISOCP
  8
95
 10
86.5632
 20
201.0156
 30
0.0000
 40
1.5240
  1
P$J5-3
 72
2
 73
0
 11
86.5632
 21
201.0156
 31
0.0000
  0
LINE
  8
94
 10
129.5400
 20
213.3600
 30
0.0000
 11
129.5400
 21
208.2800
 31
0.0000
  0
TEXT
  7
ISOCP
  8
95
 10
128.7780
 20
205.9432
 30
0.0000
 40
1.5240
  1
J7_1_+RAW
 50
90.0000
 72
2
 73
3
 11
128.7780
 21
205.9432
 31
0.0000
  0
TEXT
  7
ISOCP
  8
95
 10
129.1844
 20
210.6168
 30
0.0000
 40
1.5240
  1
P$J7-1
 50
90.0000
  0
LINE
  8
94
 10
127.0000
 20
213.3600
 30
0.0000
 11
127.0000
 21
208.2800
 31
0.0000
  0
TEXT
  7
ISOCP
  8
95
 10
126.2380
 20
205.9432
 30
0.0000
 40
1.5240
  1
J7_2_+RAW
 50
90.0000
 72
2
 73
3
 11
126.2380
 21
205.9432
 31
0.0000
  0
TEXT
  7
ISOCP
  8
95
 10
126.6444
 20
210.6168
 30
0.0000
 40
1.5240
  1
P$J7-2
 50
90.0000
  0
LINE
  8
94
 10
124.4600
 20
213.3600
 30
0.0000
 11
124.4600
 21
208.2800
 31
0.0000
  0
TEXT
  7
ISOCP
  8
95
 10
123.6980
 20
205.9432
 30
0.0000
 40
1.5240
  1
J7_3_+5V
 50
90.0000
 72
2
 73
3
 11
123.6980
 21
205.9432
 31
0.0000
  0
TEXT
  7
ISOCP
  8
95
 10
124.1044
 20
210.6168
 30
0.0000
 40
1.5240
  1
P$J7-3
 50
90.0000
  0
LINE
  8
94
 10
121.9200
 20
213.3600
 30
0.0000
 11
121.9200
 21
208.2800
 31
0.0000
  0
TEXT
  7
ISOCP
  8
95
 10
121.1580
 20
205.9432
 30
0.0000
 40
1.5240
  1
J7_4_GND
 50
90.0000
 72
2
 73
3
 11
121.1580
 21
205.9432
 31
0.0000
  0
TEXT
  7
ISOCP
  8
95
 10
121.5644
 20
210.6168
 30
0.0000
 40
1.5240
  1
P$J7-4
 50
90.0000
  0
LINE
  8
94
 10
119.3800
 20
213.3600
 30
0.0000
 11
119.3800
 21
208.2800
 31
0.0000
  0
TEXT
  7
ISOCP
  8
95
 10
118.6180
 20
205.9432
 30
0.0000
 40
1.5240
  1
J7_5_GND
 50
90.0000
 72
2
 73
3
 11
118.6180
 21
205.9432
 31
0.0000
  0
TEXT
  7
ISOCP
  8
95
 10
119.0244
 20
210.6168
 30
0.0000
 40
1.5240
  1
P$J7-5
 50
90.0000
  0
LINE
  8
94
 10
116.8400
 20
213.3600
 30
0.0000
 11
116.8400
 21
208.2800
 31
0.0000
  0
TEXT
  7
ISOCP
  8
95
 10
116.0780
 20
205.9432
 30
0.0000
 40
1.5240
  1
J7_6_+5V
 50
90.0000
 72
2
 73
3
 11
116.0780
 21
205.9432
 31
0.0000
  0
TEXT
  7
ISOCP
  8
95
 10
116.4844
 20
210.6168
 30
0.0000
 40
1.5240
  1
P$J7-6
 50
90.0000
  0
LINE
  8
94
 10
160.0200
 20
104.1400
 30
0.0000
 11
154.9400
 21
104.1400
 31
0.0000
  0
TEXT
  7
ISOCP
  8
95
 10
152.6032
 20
104.9020
 30
0.0000
 40
1.5240
  1
J9_1_DIO15
 72
2
 73
3
 11
152.6032
 21
104.9020
 31
0.0000
  0
TEXT
  7
ISOCP
  8
95
 10
157.2768
 20
104.4956
 30
0.0000
 40
1.5240
  1
P$J9-1
  0
LINE
  8
94
 10
160.0200
 20
101.6000
 30
0.0000
 11
154.9400
 21
101.6000
 31
0.0000
  0
TEXT
  7
ISOCP
  8
95
 10
152.6032
 20
102.3620
 30
0.0000
 40
1.5240
  1
J9_2_DIO13
 72
2
 73
3
 11
152.6032
 21
102.3620
 31
0.0000
  0
TEXT
  7
ISOCP
  8
95
 10
157.2768
 20
101.9556
 30
0.0000
 40
1.5240
  1
P$J9-2
  0
LINE
  8
94
 10
160.0200
 20
99.0600
 30
0.0000
 11
154.9400
 21
99.0600
 31
0.0000
  0
TEXT
  7
ISOCP
  8
95
 10
152.6032
 20
99.8220
 30
0.0000
 40
1.5240
  1
J9_3_DIO11
 72
2
 73
3
 11
152.6032
 21
99.8220
 31
0.0000
  0
TEXT
  7
ISOCP
  8
95
 10
157.2768
 20
99.4156
 30
0.0000
 40
1.5240
  1
P$J9-3
  0
LINE
  8
94
 10
160.0200
 20
96.5200
 30
0.0000
 11
154.9400
 21
96.5200
 31
0.0000
  0
TEXT
  7
ISOCP
  8
95
 10
152.6032
 20
97.2820
 30
0.0000
 40
1.5240
  1
J9_4_DIO9
 72
2
 73
3
 11
152.6032
 21
97.2820
 31
0.0000
  0
TEXT
  7
ISOCP
  8
95
 10
157.2768
 20
96.8756
 30
0.0000
 40
1.5240
  1
P$J9-4
  0
LINE
  8
94
 10
160.0200
 20
93.9800
 30
0.0000
 11
154.9400
 21
93.9800
 31
0.0000
  0
TEXT
  7
ISOCP
  8
95
 10
152.6032
 20
94.7420
 30
0.0000
 40
1.5240
  1
J9_5_GND
 72
2
 73
3
 11
152.6032
 21
94.7420
 31
0.0000
  0
TEXT
  7
ISOCP
  8
95
 10
157.2768
 20
94.3356
 30
0.0000
 40
1.5240
  1
P$J9-5
  0
LINE
  8
94
 10
160.0200
 20
91.4400
 30
0.0000
 11
154.9400
 21
91.4400
 31
0.0000
  0
TEXT
  7
ISOCP
  8
95
 10
152.6032
 20
92.2020
 30
0.0000
 40
1.5240
  1
J9_6_DIO14
 72
2
 73
3
 11
152.6032
 21
92.2020
 31
0.0000
  0
TEXT
  7
ISOCP
  8
95
 10
157.2768
 20
91.7956
 30
0.0000
 40
1.5240
  1
P$J9-6
  0
LINE
  8
94
 10
160.0200
 20
88.9000
 30
0.0000
 11
154.9400
 21
88.9000
 31
0.0000
  0
TEXT
  7
ISOCP
  8
95
 10
152.6032
 20
89.6620
 30
0.0000
 40
1.5240
  1
J9_7_DIO12
 72
2
 73
3
 11
152.6032
 21
89.6620
 31
0.0000
  0
TEXT
  7
ISOCP
  8
95
 10
157.2768
 20
89.2556
 30
0.0000
 40
1.5240
  1
P$J9-7
  0
LINE
  8
94
 10
160.0200
 20
86.3600
 30
0.0000
 11
154.9400
 21
86.3600
 31
0.0000
  0
TEXT
  7
ISOCP
  8
95
 10
152.6032
 20
87.1220
 30
0.0000
 40
1.5240
  1
J9_8_DIO10
 72
2
 73
3
 11
152.6032
 21
87.1220
 31
0.0000
  0
TEXT
  7
ISOCP
  8
95
 10
157.2768
 20
86.7156
 30
0.0000
 40
1.5240
  1
P$J9-8
  0
LINE
  8
94
 10
160.0200
 20
83.8200
 30
0.0000
 11
154.9400
 21
83.8200
 31
0.0000
  0
TEXT
  7
ISOCP
  8
95
 10
152.6032
 20
84.5820
 30
0.0000
 40
1.5240
  1
J9_9_DIO8
 72
2
 73
3
 11
152.6032
 21
84.5820
 31
0.0000
  0
TEXT
  7
ISOCP
  8
95
 10
157.2768
 20
84.1756
 30
0.0000
 40
1.5240
  1
P$J9-9
  0
LINE
  8
94
 10
160.0200
 20
81.2800
 30
0.0000
 11
154.9400
 21
81.2800
 31
0.0000
  0
TEXT
  7
ISOCP
  8
95
 10
152.6032
 20
82.0420
 30
0.0000
 40
1.5240
  1
J9_10_+KB
 72
2
 73
3
 11
152.6032
 21
82.0420
 31
0.0000
  0
TEXT
  7
ISOCP
  8
95
 10
157.2768
 20
81.6356
 30
0.0000
 40
1.5240
  1
P$J9-10
  0
LINE
  8
94
 10
160.0200
 20
134.6200
 30
0.0000
 11
154.9400
 21
134.6200
 31
0.0000
  0
TEXT
  7
ISOCP
  8
95
 10
152.6032
 20
135.3820
 30
0.0000
 40
1.5240
  1
J10_1_DIO7
 72
2
 73
3
 11
152.6032
 21
135.3820
 31
0.0000
  0
TEXT
  7
ISOCP
  8
95
 10
157.2768
 20
134.9756
 30
0.0000
 40
1.5240
  1
P$J10-1
  0
LINE
  8
94
 10
160.0200
 20
132.0800
 30
0.0000
 11
154.9400
 21
132.0800
 31
0.0000
  0
TEXT
  7
ISOCP
  8
95
 10
152.6032
 20
132.8420
 30
0.0000
 40
1.5240
  1
J10_2_DIO5
 72
2
 73
3
 11
152.6032
 21
132.8420
 31
0.0000
  0
TEXT
  7
ISOCP
  8
95
 10
157.2768
 20
132.4356
 30
0.0000
 40
1.5240
  1
P$J10-2
  0
LINE
  8
94
 10
160.0200
 20
129.5400
 30
0.0000
 11
154.9400
 21
129.5400
 31
0.0000
  0
TEXT
  7
ISOCP
  8
95
 10
152.6032
 20
130.3020
 30
0.0000
 40
1.5240
  1
J10_3_DIO3
 72
2
 73
3
 11
152.6032
 21
130.3020
 31
0.0000
  0
TEXT
  7
ISOCP
  8
95
 10
157.2768
 20
129.8956
 30
0.0000
 40
1.5240
  1
P$J10-3
  0
LINE
  8
94
 10
160.0200
 20
127.0000
 30
0.0000
 11
154.9400
 21
127.0000
 31
0.0000
  0
TEXT
  7
ISOCP
  8
95
 10
152.6032
 20
127.7620
 30
0.0000
 40
1.5240
  1
J10_4_DIO1
 72
2
 73
3
 11
152.6032
 21
127.7620
 31
0.0000
  0
TEXT
  7
ISOCP
  8
95
 10
157.2768
 20
127.3556
 30
0.0000
 40
1.5240
  1
P$J10-4
  0
LINE
  8
94
 10
160.0200
 20
124.4600
 30
0.0000
 11
154.9400
 21
124.4600
 31
0.0000
  0
TEXT
  7
ISOCP
  8
95
 10
152.6032
 20
125.2220
 30
0.0000
 40
1.5240
  1
J10_5_GND
 72
2
 73
3
 11
152.6032
 21
125.2220
 31
0.0000
  0
TEXT
  7
ISOCP
  8
95
 10
157.2768
 20
124.8156
 30
0.0000
 40
1.5240
  1
P$J10-5
  0
LINE
  8
94
 10
160.0200
 20
121.9200
 30
0.0000
 11
154.9400
 21
121.9200
 31
0.0000
  0
TEXT
  7
ISOCP
  8
95
 10
152.6032
 20
122.6820
 30
0.0000
 40
1.5240
  1
J10_6_DIO6
 72
2
 73
3
 11
152.6032
 21
122.6820
 31
0.0000
  0
TEXT
  7
ISOCP
  8
95
 10
157.2768
 20
122.2756
 30
0.0000
 40
1.5240
  1
P$J10-6
  0
LINE
  8
94
 10
160.0200
 20
119.3800
 30
0.0000
 11
154.9400
 21
119.3800
 31
0.0000
  0
TEXT
  7
ISOCP
  8
95
 10
152.6032
 20
120.1420
 30
0.0000
 40
1.5240
  1
J10_7_DIO4
 72
2
 73
3
 11
152.6032
 21
120.1420
 31
0.0000
  0
TEXT
  7
ISOCP
  8
95
 10
157.2768
 20
119.7356
 30
0.0000
 40
1.5240
  1
P$J10-7
  0
LINE
  8
94
 10
160.0200
 20
116.8400
 30
0.0000
 11
154.9400
 21
116.8400
 31
0.0000
  0
TEXT
  7
ISOCP
  8
95
 10
152.6032
 20
117.6020
 30
0.0000
 40
1.5240
  1
J10_8_DIO2
 72
2
 73
3
 11
152.6032
 21
117.6020
 31
0.0000
  0
TEXT
  7
ISOCP
  8
95
 10
157.2768
 20
117.1956
 30
0.0000
 40
1.5240
  1
P$J10-8
  0
LINE
  8
94
 10
160.0200
 20
114.3000
 30
0.0000
 11
154.9400
 21
114.3000
 31
0.0000
  0
TEXT
  7
ISOCP
  8
95
 10
152.6032
 20
115.0620
 30
0.0000
 40
1.5240
  1
J10_9_DIO0
 72
2
 73
3
 11
152.6032
 21
115.0620
 31
0.0000
  0
TEXT
  7
ISOCP
  8
95
 10
157.2768
 20
114.6556
 30
0.0000
 40
1.5240
  1
P$J10-9
  0
LINE
  8
94
 10
160.0200
 20
111.7600
 30
0.0000
 11
154.9400
 21
111.7600
 31
0.0000
  0
TEXT
  7
ISOCP
  8
95
 10
152.6032
 20
112.5220
 30
0.0000
 40
1.5240
  1
J10_10_+KA
 72
2
 73
3
 11
152.6032
 21
112.5220
 31
0.0000
  0
TEXT
  7
ISOCP
  8
95
 10
157.2768
 20
112.1156
 30
0.0000
 40
1.5240
  1
P$J10-10
  0
LINE
  8
94
 10
160.0200
 20
162.5600
 30
0.0000
 11
154.9400
 21
162.5600
 31
0.0000
  0
TEXT
  7
ISOCP
  8
95
 10
152.6032
 20
163.3220
 30
0.0000
 40
1.5240
  1
J11_1_PD6_TXE
 72
2
 73
3
 11
152.6032
 21
163.3220
 31
0.0000
  0
TEXT
  7
ISOCP
  8
95
 10
157.2768
 20
162.9156
 30
0.0000
 40
1.5240
  1
P$J11-1
  0
LINE
  8
94
 10
160.0200
 20
160.0200
 30
0.0000
 11
154.9400
 21
160.0200
 31
0.0000
  0
TEXT
  7
ISOCP
  8
95
 10
152.6032
 20
160.7820
 30
0.0000
 40
1.5240
  1
J11_2_PD2_TXF
 72
2
 73
3
 11
152.6032
 21
160.7820
 31
0.0000
  0
TEXT
  7
ISOCP
  8
95
 10
157.2768
 20
160.3756
 30
0.0000
 40
1.5240
  1
P$J11-2
  0
LINE
  8
94
 10
160.0200
 20
157.4800
 30
0.0000
 11
154.9400
 21
157.4800
 31
0.0000
  0
TEXT
  7
ISOCP
  8
95
 10
152.6032
 20
158.2420
 30
0.0000
 40
1.5240
  1
J11_3_GND
 72
2
 73
3
 11
152.6032
 21
158.2420
 31
0.0000
  0
TEXT
  7
ISOCP
  8
95
 10
157.2768
 20
157.8356
 30
0.0000
 40
1.5240
  1
P$J11-3
  0
LINE
  8
94
 10
160.0200
 20
154.9400
 30
0.0000
 11
154.9400
 21
154.9400
 31
0.0000
  0
TEXT
  7
ISOCP
  8
95
 10
152.6032
 20
155.7020
 30
0.0000
 40
1.5240
  1
J11_4_485-
 72
2
 73
3
 11
152.6032
 21
155.7020
 31
0.0000
  0
TEXT
  7
ISOCP
  8
95
 10
157.2768
 20
155.2956
 30
0.0000
 40
1.5240
  1
P$J11-4
  0
LINE
  8
94
 10
160.0200
 20
152.4000
 30
0.0000
 11
154.9400
 21
152.4000
 31
0.0000
  0
TEXT
  7
ISOCP
  8
95
 10
152.6032
 20
153.1620
 30
0.0000
 40
1.5240
  1
J11_5_GND
 72
2
 73
3
 11
152.6032
 21
153.1620
 31
0.0000
  0
TEXT
  7
ISOCP
  8
95
 10
157.2768
 20
152.7556
 30
0.0000
 40
1.5240
  1
P$J11-5
  0
LINE
  8
94
 10
160.0200
 20
149.8600
 30
0.0000
 11
154.9400
 21
149.8600
 31
0.0000
  0
TEXT
  7
ISOCP
  8
95
 10
152.6032
 20
150.6220
 30
0.0000
 40
1.5240
  1
J11_6_PD7_RXE
 72
2
 73
3
 11
152.6032
 21
150.6220
 31
0.0000
  0
TEXT
  7
ISOCP
  8
95
 10
157.2768
 20
150.2156
 30
0.0000
 40
1.5240
  1
P$J11-6
  0
LINE
  8
94
 10
160.0200
 20
147.3200
 30
0.0000
 11
154.9400
 21
147.3200
 31
0.0000
  0
TEXT
  7
ISOCP
  8
95
 10
152.6032
 20
148.0820
 30
0.0000
 40
1.5240
  1
J11_7_PD3_RXF
 72
2
 73
3
 11
152.6032
 21
148.0820
 31
0.0000
  0
TEXT
  7
ISOCP
  8
95
 10
157.2768
 20
147.6756
 30
0.0000
 40
1.5240
  1
P$J11-7
  0
LINE
  8
94
 10
160.0200
 20
144.7800
 30
0.0000
 11
154.9400
 21
144.7800
 31
0.0000
  0
TEXT
  7
ISOCP
  8
95
 10
152.6032
 20
145.5420
 30
0.0000
 40
1.5240
  1
J11_8_GND
 72
2
 73
3
 11
152.6032
 21
145.5420
 31
0.0000
  0
TEXT
  7
ISOCP
  8
95
 10
157.2768
 20
145.1356
 30
0.0000
 40
1.5240
  1
P$J11-8
  0
LINE
  8
94
 10
160.0200
 20
142.2400
 30
0.0000
 11
154.9400
 21
142.2400
 31
0.0000
  0
TEXT
  7
ISOCP
  8
95
 10
152.6032
 20
143.0020
 30
0.0000
 40
1.5240
  1
J11_9_485+
 72
2
 73
3
 11
152.6032
 21
143.0020
 31
0.0000
  0
TEXT
  7
ISOCP
  8
95
 10
157.2768
 20
142.5956
 30
0.0000
 40
1.5240
  1
P$J11-9
  0
LINE
  8
94
 10
160.0200
 20
203.2000
 30
0.0000
 11
154.9400
 21
203.2000
 31
0.0000
  0
TEXT
  7
ISOCP
  8
95
 10
152.6032
 20
203.9620
 30
0.0000
 40
1.5240
  1
J12_1_AGND
 72
2
 73
3
 11
152.6032
 21
203.9620
 31
0.0000
  0
TEXT
  7
ISOCP
  8
95
 10
157.2768
 20
203.5556
 30
0.0000
 40
1.5240
  1
P$J12-1
  0
LINE
  8
94
 10
160.0200
 20
200.6600
 30
0.0000
 11
154.9400
 21
200.6600
 31
0.0000
  0
TEXT
  7
ISOCP
  8
95
 10
152.6032
 20
201.4220
 30
0.0000
 40
1.5240
  1
J12_2_AIN6
 72
2
 73
3
 11
152.6032
 21
201.4220
 31
0.0000
  0
TEXT
  7
ISOCP
  8
95
 10
157.2768
 20
201.0156
 30
0.0000
 40
1.5240
  1
P$J12-2
  0
LINE
  8
94
 10
160.0200
 20
198.1200
 30
0.0000
 11
154.9400
 21
198.1200
 31
0.0000
  0
TEXT
  7
ISOCP
  8
95
 10
152.6032
 20
198.8820
 30
0.0000
 40
1.5240
  1
J12_3_AIN4
 72
2
 73
3
 11
152.6032
 21
198.8820
 31
0.0000
  0
TEXT
  7
ISOCP
  8
95
 10
157.2768
 20
198.4756
 30
0.0000
 40
1.5240
  1
P$J12-3
  0
LINE
  8
94
 10
160.0200
 20
195.5800
 30
0.0000
 11
154.9400
 21
195.5800
 31
0.0000
  0
TEXT
  7
ISOCP
  8
95
 10
152.6032
 20
196.3420
 30
0.0000
 40
1.5240
  1
J12_4_AIN3
 72
2
 73
3
 11
152.6032
 21
196.3420
 31
0.0000
  0
TEXT
  7
ISOCP
  8
95
 10
157.2768
 20
195.9356
 30
0.0000
 40
1.5240
  1
P$J12-4
  0
LINE
  8
94
 10
160.0200
 20
193.0400
 30
0.0000
 11
154.9400
 21
193.0400
 31
0.0000
  0
TEXT
  7
ISOCP
  8
95
 10
152.6032
 20
193.8020
 30
0.0000
 40
1.5240
  1
J12_5_AIN1
 72
2
 73
3
 11
152.6032
 21
193.8020
 31
0.0000
  0
TEXT
  7
ISOCP
  8
95
 10
157.2768
 20
193.3956
 30
0.0000
 40
1.5240
  1
P$J12-5
  0
LINE
  8
94
 10
160.0200
 20
190.5000
 30
0.0000
 11
154.9400
 21
190.5000
 31
0.0000
  0
TEXT
  7
ISOCP
  8
95
 10
152.6032
 20
191.2620
 30
0.0000
 40
1.5240
  1
J12_6_AGND
 72
2
 73
3
 11
152.6032
 21
191.2620
 31
0.0000
  0
TEXT
  7
ISOCP
  8
95
 10
157.2768
 20
190.8556
 30
0.0000
 40
1.5240
  1
P$J12-6
  0
LINE
  8
94
 10
160.0200
 20
187.9600
 30
0.0000
 11
154.9400
 21
187.9600
 31
0.0000
  0
TEXT
  7
ISOCP
  8
95
 10
152.6032
 20
188.7220
 30
0.0000
 40
1.5240
  1
J12_7_AOUT1
 72
2
 73
3
 11
152.6032
 21
188.7220
 31
0.0000
  0
TEXT
  7
ISOCP
  8
95
 10
157.2768
 20
188.3156
 30
0.0000
 40
1.5240
  1
P$J12-7
  0
LINE
  8
94
 10
160.0200
 20
185.4200
 30
0.0000
 11
154.9400
 21
185.4200
 31
0.0000
  0
TEXT
  7
ISOCP
  8
95
 10
152.6032
 20
186.1820
 30
0.0000
 40
1.5240
  1
J12_8_AIN7
 72
2
 73
3
 11
152.6032
 21
186.1820
 31
0.0000
  0
TEXT
  7
ISOCP
  8
95
 10
157.2768
 20
185.7756
 30
0.0000
 40
1.5240
  1
P$J12-8
  0
LINE
  8
94
 10
160.0200
 20
182.8800
 30
0.0000
 11
154.9400
 21
182.8800
 31
0.0000
  0
TEXT
  7
ISOCP
  8
95
 10
152.6032
 20
183.6420
 30
0.0000
 40
1.5240
  1
J12_9_AIN5
 72
2
 73
3
 11
152.6032
 21
183.6420
 31
0.0000
  0
TEXT
  7
ISOCP
  8
95
 10
157.2768
 20
183.2356
 30
0.0000
 40
1.5240
  1
P$J12-9
  0
LINE
  8
94
 10
160.0200
 20
180.3400
 30
0.0000
 11
154.9400
 21
180.3400
 31
0.0000
  0
TEXT
  7
ISOCP
  8
95
 10
152.6032
 20
181.1020
 30
0.0000
 40
1.5240
  1
J12_10_AGND
 72
2
 73
3
 11
152.6032
 21
181.1020
 31
0.0000
  0
TEXT
  7
ISOCP
  8
95
 10
157.2768
 20
180.6956
 30
0.0000
 40
1.5240
  1
P$J12-10
  0
LINE
  8
94
 10
160.0200
 20
177.8000
 30
0.0000
 11
154.9400
 21
177.8000
 31
0.0000
  0
TEXT
  7
ISOCP
  8
95
 10
152.6032
 20
178.5620
 30
0.0000
 40
1.5240
  1
J12_11_AIN2
 72
2
 73
3
 11
152.6032
 21
178.5620
 31
0.0000
  0
TEXT
  7
ISOCP
  8
95
 10
157.2768
 20
178.1556
 30
0.0000
 40
1.5240
  1
P$J12-11
  0
LINE
  8
94
 10
160.0200
 20
175.2600
 30
0.0000
 11
154.9400
 21
175.2600
 31
0.0000
  0
TEXT
  7
ISOCP
  8
95
 10
152.6032
 20
176.0220
 30
0.0000
 40
1.5240
  1
J12_12_AIN0
 72
2
 73
3
 11
152.6032
 21
176.0220
 31
0.0000
  0
TEXT
  7
ISOCP
  8
95
 10
157.2768
 20
175.6156
 30
0.0000
 40
1.5240
  1
P$J12-12
  0
LINE
  8
94
 10
160.0200
 20
172.7200
 30
0.0000
 11
154.9400
 21
172.7200
 31
0.0000
  0
TEXT
  7
ISOCP
  8
95
 10
152.6032
 20
173.4820
 30
0.0000
 40
1.5240
  1
J12_13_AOUT0
 72
2
 73
3
 11
152.6032
 21
173.4820
 31
0.0000
  0
TEXT
  7
ISOCP
  8
95
 10
157.2768
 20
173.0756
 30
0.0000
 40
1.5240
  1
P$J12-13
  0
LINE
  8
94
 10
160.0200
 20
170.1800
 30
0.0000
 11
154.9400
 21
170.1800
 31
0.0000
  0
TEXT
  7
ISOCP
  8
95
 10
152.6032
 20
170.9420
 30
0.0000
 40
1.5240
  1
J12_14_AGND
 72
2
 73
3
 11
152.6032
 21
170.9420
 31
0.0000
  0
TEXT
  7
ISOCP
  8
95
 10
157.2768
 20
170.5356
 30
0.0000
 40
1.5240
  1
P$J12-14
  0
LINE
  8
91
 10
83.8200
 20
149.8600
 30
0.0000
 11
15.2400
 21
149.8600
 31
0.0000
  0
TEXT
  7
ISOCP
  8
95
 10
38.1000
 20
149.8600
 30
0.0000
 40
1.7780
  1
+K1.POWER.12V
  0
LINE
  8
91
 10
83.8200
 20
175.2600
 30
0.0000
 11
15.2400
 21
175.2600
 31
0.0000
  0
TEXT
  7
ISOCP
  8
95
 10
38.1000
 20
175.2600
 30
0.0000
 40
1.7780
  1
+K2.POWER.12V
  0
LINE
  8
91
 10
160.0200
 20
142.2400
 30
0.0000
 11
187.9600
 21
142.2400
 31
0.0000
  0
LINE
  8
91
 10
187.9600
 20
142.2400
 30
0.0000
 11
187.9600
 21
190.5000
 31
0.0000
  0
LINE
  8
91
 10
187.9600
 20
190.5000
 30
0.0000
 11
365.7600
 21
190.5000
 31
0.0000
  0
TEXT
  7
ISOCP
  8
95
 10
264.1600
 20
190.5000
 30
0.0000
 40
1.7780
  1
CONSOLE.RS485.D+
  0
LINE
  8
91
 10
160.0200
 20
154.9400
 30
0.0000
 11
190.5000
 21
154.9400
 31
0.0000
  0
LINE
  8
91
 10
190.5000
 20
154.9400
 30
0.0000
 11
190.5000
 21
187.9600
 31
0.0000
  0
LINE
  8
91
 10
190.5000
 20
187.9600
 30
0.0000
 11
365.7600
 21
187.9600
 31
0.0000
  0
TEXT
  7
ISOCP
  8
95
 10
264.1600
 20
187.9600
 30
0.0000
 40
1.7780
  1
CONSOLE.RS485.D-
  0
LINE
  8
91
 10
160.0200
 20
162.5600
 30
0.0000
 11
180.3400
 21
162.5600
 31
0.0000
  0
LINE
  8
91
 10
180.3400
 20
162.5600
 30
0.0000
 11
180.3400
 21
198.1200
 31
0.0000
  0
LINE
  8
91
 10
180.3400
 20
198.1200
 30
0.0000
 11
365.7600
 21
198.1200
 31
0.0000
  0
TEXT
  7
ISOCP
  8
95
 10
264.1600
 20
198.1200
 30
0.0000
 40
1.7780
  1
DISPLAY.RS232.TX
  0
LINE
  8
91
 10
83.8200
 20
134.6200
 30
0.0000
 11
15.2400
 21
134.6200
 31
0.0000
  0
TEXT
  7
ISOCP
  8
95
 10
38.1000
 20
134.6200
 30
0.0000
 40
1.7780
  1
DRUM.ROTATION.SIG
  0
LINE
  8
91
 10
302.2600
 20
154.9400
 30
0.0000
 11
368.3000
 21
154.9400
 31
0.0000
  0
TEXT
  7
ISOCP
  8
95
 10
314.9600
 20
154.9400
 30
0.0000
 40
1.7780
  1
ENCODER.5V
  0
LINE
  8
91
 10
302.2600
 20
147.3200
 30
0.0000
 11
368.3000
 21
147.3200
 31
0.0000
  0
TEXT
  7
ISOCP
  8
95
 10
314.9600
 20
147.3200
 30
0.0000
 40
1.7780
  1
ENCODER.GND
  0
LINE
  8
91
 10
302.2600
 20
149.8600
 30
0.0000
 11
368.3000
 21
149.8600
 31
0.0000
  0
TEXT
  7
ISOCP
  8
95
 10
314.9600
 20
149.8600
 30
0.0000
 40
1.7780
  1
ENCODER.QEA.SIG
  0
LINE
  8
91
 10
302.2600
 20
152.4000
 30
0.0000
 11
368.3000
 21
152.4000
 31
0.0000
  0
TEXT
  7
ISOCP
  8
95
 10
314.9600
 20
152.4000
 30
0.0000
 40
1.7780
  1
ENCODER.QEB.SIG
  0
LINE
  8
91
 10
83.8200
 20
139.7000
 30
0.0000
 11
15.2400
 21
139.7000
 31
0.0000
  0
TEXT
  7
ISOCP
  8
95
 10
38.1000
 20
139.7000
 30
0.0000
 40
1.7780
  1
ENDTRAVEL.LEFT.SIG
  0
LINE
  8
91
 10
83.8200
 20
142.2400
 30
0.0000
 11
15.2400
 21
142.2400
 31
0.0000
  0
TEXT
  7
ISOCP
  8
95
 10
38.1000
 20
142.2400
 30
0.0000
 40
1.7780
  1
ENDTRAVEL.RIGHT.SIG
  0
LINE
  8
91
 10
83.8200
 20
111.7600
 30
0.0000
 11
15.2400
 21
111.7600
 31
0.0000
  0
TEXT
  7
ISOCP
  8
95
 10
38.1000
 20
111.7600
 30
0.0000
 40
1.7780
  1
ESTOP.SIG
  0
LINE
  8
91
 10
223.5200
 20
157.4800
 30
0.0000
 11
251.4600
 21
157.4800
 31
0.0000
  0
LINE
  8
91
 10
160.0200
 20
104.1400
 30
0.0000
 11
223.5200
 21
104.1400
 31
0.0000
  0
LINE
  8
91
 10
223.5200
 20
104.1400
 30
0.0000
 11
223.5200
 21
157.4800
 31
0.0000
  0
LINE
  8
91
 10
226.0600
 20
71.1200
 30
0.0000
 11
226.0600
 21
154.9400
 31
0.0000
  0
LINE
  8
91
 10
226.0600
 20
154.9400
 30
0.0000
 11
251.4600
 21
154.9400
 31
0.0000
  0
LINE
  8
91
 10
83.8200
 20
121.9200
 30
0.0000
 11
76.2000
 21
121.9200
 31
0.0000
  0
LINE
  8
91
 10
76.2000
 20
121.9200
 30
0.0000
 11
76.2000
 21
71.1200
 31
0.0000
  0
LINE
  8
91
 10
76.2000
 20
71.1200
 30
0.0000
 11
226.0600
 21
71.1200
 31
0.0000
  0
TEXT
  7
ISOCP
  8
95
 10
175.2600
 20
71.1200
 30
0.0000
 40
1.7780
  1
INTERFACE.BIT8
  0
LINE
  8
91
 10
228.6000
 20
68.5800
 30
0.0000
 11
228.6000
 21
152.4000
 31
0.0000
  0
LINE
  8
91
 10
228.6000
 20
152.4000
 30
0.0000
 11
251.4600
 21
152.4000
 31
0.0000
  0
LINE
  8
91
 10
86.3600
 20
124.4600
 30
0.0000
 11
73.6600
 21
124.4600
 31
0.0000
  0
LINE
  8
91
 10
73.6600
 20
124.4600
 30
0.0000
 11
73.6600
 21
68.5800
 31
0.0000
  0
LINE
  8
91
 10
73.6600
 20
68.5800
 30
0.0000
 11
228.6000
 21
68.5800
 31
0.0000
  0
TEXT
  7
ISOCP
  8
95
 10
175.2600
 20
68.5800
 30
0.0000
 40
1.7780
  1
INTERFACE.BIT9
  0
LINE
  8
91
 10
213.3600
 20
162.5600
 30
0.0000
 11
251.4600
 21
162.5600
 31
0.0000
  0
LINE
  8
91
 10
160.0200
 20
93.9800
 30
0.0000
 11
213.3600
 21
93.9800
 31
0.0000
  0
LINE
  8
91
 10
213.3600
 20
93.9800
 30
0.0000
 11
213.3600
 21
162.5600
 31
0.0000
  0
LINE
  8
91
 10
243.8400
 20
116.8400
 30
0.0000
 11
251.4600
 21
116.8400
 31
0.0000
  0
LINE
  8
91
 10
243.8400
 20
116.8400
 30
0.0000
 11
243.8400
 21
93.9800
 31
0.0000
  0
LINE
  8
91
 10
243.8400
 20
93.9800
 30
0.0000
 11
368.3000
 21
93.9800
 31
0.0000
  0
TEXT
  7
ISOCP
  8
95
 10
314.9600
 20
93.9800
 30
0.0000
 40
1.7780
  1
INTERFACE.POWER.12V
  0
LINE
  8
91
 10
251.4600
 20
119.3800
 30
0.0000
 11
241.3000
 21
119.3800
 31
0.0000
  0
LINE
  8
91
 10
241.3000
 20
119.3800
 30
0.0000
 11
241.3000
 21
91.4400
 31
0.0000
  0
LINE
  8
91
 10
241.3000
 20
91.4400
 30
0.0000
 11
368.3000
 21
91.4400
 31
0.0000
  0
TEXT
  7
ISOCP
  8
95
 10
314.9600
 20
91.4400
 30
0.0000
 40
1.7780
  1
INTERFACE.POWER.GND
  0
LINE
  8
91
 10
83.8200
 20
106.6800
 30
0.0000
 11
15.2400
 21
106.6800
 31
0.0000
  0
TEXT
  7
ISOCP
  8
95
 10
38.1000
 20
106.6800
 30
0.0000
 40
1.7780
  1
JOGLEFT.SIG
  0
LINE
  8
91
 10
83.8200
 20
104.1400
 30
0.0000
 11
15.2400
 21
104.1400
 31
0.0000
  0
TEXT
  7
ISOCP
  8
95
 10
38.1000
 20
104.1400
 30
0.0000
 40
1.7780
  1
JOGRIGHT.SIG
  0
LINE
  8
91
 10
83.8200
 20
96.5200
 30
0.0000
 11
15.2400
 21
96.5200
 31
0.0000
  0
TEXT
  7
ISOCP
  8
95
 10
38.1000
 20
96.5200
 30
0.0000
 40
1.7780
  1
JOYSTICK.FORWARD.SIG
  0
LINE
  8
91
 10
83.8200
 20
93.9800
 30
0.0000
 11
15.2400
 21
93.9800
 31
0.0000
  0
TEXT
  7
ISOCP
  8
95
 10
38.1000
 20
93.9800
 30
0.0000
 40
1.7780
  1
JOYSTICK.REVERSE.SIG
  0
LINE
  8
91
 10
160.0200
 20
185.4200
 30
0.0000
 11
172.7200
 21
185.4200
 31
0.0000
  0
LINE
  8
91
 10
172.7200
 20
185.4200
 30
0.0000
 11
172.7200
 21
205.7400
 31
0.0000
  0
LINE
  8
91
 10
172.7200
 20
205.7400
 30
0.0000
 11
365.7600
 21
205.7400
 31
0.0000
  0
TEXT
  7
ISOCP
  8
95
 10
264.1600
 20
205.7400
 30
0.0000
 40
1.7780
  1
JOYSTICK.SIG
  0
LINE
  8
91
 10
83.8200
 20
167.6400
 30
0.0000
 11
15.2400
 21
167.6400
 31
0.0000
  0
TEXT
  7
ISOCP
  8
95
 10
38.1000
 20
167.6400
 30
0.0000
 40
1.7780
  1
LEESON.RUN.ENABLE.SIG
  0
LINE
  8
91
 10
83.8200
 20
162.5600
 30
0.0000
 11
15.2400
 21
162.5600
 31
0.0000
  0
TEXT
  7
ISOCP
  8
95
 10
38.1000
 20
162.5600
 30
0.0000
 40
1.7780
  1
LEESON.RUN.REVERSE.SIG
  0
LINE
  8
91
 10
160.0200
 20
172.7200
 30
0.0000
 11
175.2600
 21
172.7200
 31
0.0000
  0
LINE
  8
91
 10
175.2600
 20
172.7200
 30
0.0000
 11
175.2600
 21
203.2000
 31
0.0000
  0
LINE
  8
91
 10
175.2600
 20
203.2000
 30
0.0000
 11
365.7600
 21
203.2000
 31
0.0000
  0
TEXT
  7
ISOCP
  8
95
 10
264.1600
 20
203.2000
 30
0.0000
 40
1.7780
  1
LEESON.SPEED.SIG
  0
LINE
  8
91
 10
160.0200
 20
99.0600
 30
0.0000
 11
218.4400
 21
99.0600
 31
0.0000
  0
LINE
  8
91
 10
218.4400
 20
99.0600
 30
0.0000
 11
218.4400
 21
172.7200
 31
0.0000
  0
LINE
  8
91
 10
218.4400
 20
172.7200
 30
0.0000
 11
251.4600
 21
172.7200
 31
0.0000
  0
LINE
  8
91
 10
160.0200
 20
101.6000
 30
0.0000
 11
220.9800
 21
101.6000
 31
0.0000
  0
LINE
  8
91
 10
220.9800
 20
101.6000
 30
0.0000
 11
220.9800
 21
167.6400
 31
0.0000
  0
LINE
  8
91
 10
220.9800
 20
167.6400
 30
0.0000
 11
251.4600
 21
167.6400
 31
0.0000
  0
LINE
  8
91
 10
160.0200
 20
96.5200
 30
0.0000
 11
215.9000
 21
96.5200
 31
0.0000
  0
LINE
  8
91
 10
215.9000
 20
96.5200
 30
0.0000
 11
215.9000
 21
177.8000
 31
0.0000
  0
LINE
  8
91
 10
215.9000
 20
177.8000
 30
0.0000
 11
251.4600
 21
177.8000
 31
0.0000
  0
LINE
  8
91
 10
160.0200
 20
91.4400
 30
0.0000
 11
210.8200
 21
91.4400
 31
0.0000
  0
LINE
  8
91
 10
210.8200
 20
91.4400
 30
0.0000
 11
210.8200
 21
165.1000
 31
0.0000
  0
LINE
  8
91
 10
210.8200
 20
165.1000
 30
0.0000
 11
251.4600
 21
165.1000
 31
0.0000
  0
LINE
  8
91
 10
160.0200
 20
88.9000
 30
0.0000
 11
208.2800
 21
88.9000
 31
0.0000
  0
LINE
  8
91
 10
208.2800
 20
88.9000
 30
0.0000
 11
208.2800
 21
170.1800
 31
0.0000
  0
LINE
  8
91
 10
208.2800
 20
170.1800
 30
0.0000
 11
251.4600
 21
170.1800
 31
0.0000
  0
LINE
  8
91
 10
160.0200
 20
86.3600
 30
0.0000
 11
205.7400
 21
86.3600
 31
0.0000
  0
LINE
  8
91
 10
205.7400
 20
86.3600
 30
0.0000
 11
205.7400
 21
175.2600
 31
0.0000
  0
LINE
  8
91
 10
205.7400
 20
175.2600
 30
0.0000
 11
251.4600
 21
175.2600
 31
0.0000
  0
LINE
  8
91
 10
160.0200
 20
83.8200
 30
0.0000
 11
203.2000
 21
83.8200
 31
0.0000
  0
LINE
  8
91
 10
203.2000
 20
83.8200
 30
0.0000
 11
203.2000
 21
180.3400
 31
0.0000
  0
LINE
  8
91
 10
203.2000
 20
180.3400
 30
0.0000
 11
251.4600
 21
180.3400
 31
0.0000
  0
LINE
  8
91
 10
83.8200
 20
203.2000
 30
0.0000
 11
15.2400
 21
203.2000
 31
0.0000
  0
TEXT
  7
ISOCP
  8
95
 10
38.1000
 20
203.2000
 30
0.0000
 40
1.7780
  1
RABBIT.POWER.12V
  0
LINE
  8
91
 10
83.8200
 20
200.6600
 30
0.0000
 11
15.2400
 21
200.6600
 31
0.0000
  0
TEXT
  7
ISOCP
  8
95
 10
38.1000
 20
200.6600
 30
0.0000
 40
1.7780
  1
RABBIT.POWER.GND
  0
LINE
  8
91
 10
83.8200
 20
99.0600
 30
0.0000
 11
15.2400
 21
99.0600
 31
0.0000
  0
TEXT
  7
ISOCP
  8
95
 10
38.1000
 20
99.0600
 30
0.0000
 40
1.7780
  1
RESET.SIG
  0
LINE
  8
91
 10
83.8200
 20
187.9600
 30
0.0000
 11
15.2400
 21
187.9600
 31
0.0000
  0
TEXT
  7
ISOCP
  8
95
 10
38.1000
 20
187.9600
 30
0.0000
 40
1.7780
  1
STEPPER.DRV.DIR+
  0
LINE
  8
91
 10
83.8200
 20
193.0400
 30
0.0000
 11
15.2400
 21
193.0400
 31
0.0000
  0
TEXT
  7
ISOCP
  8
95
 10
38.1000
 20
193.0400
 30
0.0000
 40
1.7780
  1
STEPPER.DRV.STEP+
  0
LINE
  8
91
 10
160.0200
 20
200.6600
 30
0.0000
 11
170.1800
 21
200.6600
 31
0.0000
  0
LINE
  8
91
 10
170.1800
 20
200.6600
 30
0.0000
 11
170.1800
 21
208.2800
 31
0.0000
  0
LINE
  8
91
 10
170.1800
 20
208.2800
 30
0.0000
 11
365.7600
 21
208.2800
 31
0.0000
  0
TEXT
  7
ISOCP
  8
95
 10
264.1600
 20
208.2800
 30
0.0000
 40
1.7780
  1
THERMISTOR.SIG
  0
ENDSEC
  0
EOF
