  0
SECTION
  2
HEADER
  9
$ACADVER
  1
AC1009
  9
$FILLMODE
 70
0
  9
$EXTMIN
 10
-0.5080
 20
-0.5927
 30
0.0000
  9
$EXTMAX
 10
388.2495
 20
260.9427
 30
0.0000
  0
ENDSEC
  0
SECTION
  2
TABLES
  0
TABLE
  2
LTYPE
 70
1
  0
LTYPE
  2
CONTINUOUS
 70
64
  3
Solid line
 72
65
 73
0
 40
0
  0
ENDTAB
  0
TABLE
  2
LAYER
 70
255
  0
LAYER
  2
91
 70
64
 62
94
  6
CONTINUOUS
  0
LAYER
  2
92
 70
64
 62
174
  6
CONTINUOUS
  0
LAYER
  2
94
 70
64
 62
14
  6
CONTINUOUS
  0
LAYER
  2
95
 70
64
 62
251
  6
CONTINUOUS
  0
LAYER
  2
96
 70
64
 62
251
  6
CONTINUOUS
  0
LAYER
  2
97
 70
64
 62
251
  6
CONTINUOUS
  0
LAYER
  2
98
 70
64
 62
54
  6
CONTINUOUS
  0
LAYER
  2
199
 70
64
 62
251
  6
CONTINUOUS
  0
LAYER
  2
200
 70
64
 62
174
  6
CONTINUOUS
  0
ENDTAB
  0
ENDSEC
  0
SECTION
  2
BLOCKS
  0
BLOCK
  8
0
  2
RECT
 70
64
 10
0.0000
 20
0.0000
 30
0.0000
  3
RECT
  0
SOLID
  8
0
 10
-0.5000
 20
-0.5000
 30
0.0000
 11
0.5000
 21
-0.5000
 31
0.0000
 12
-0.5000
 22
0.5000
 32
0.0000
 13
0.5000
 23
0.5000
 33
0.0000
  0
ENDBLK
  8
0
  0
BLOCK
  8
0
  2
PIE
 70
64
 10
0.0000
 20
0.0000
 30
0.0000
  3
PIE
  0
CIRCLE
  8
0
 10
0.0000
 20
0.0000
 30
0.0000
 40
0.5000
  0
ENDBLK
  8
0
  0
ENDSEC
  0
SECTION
  2
ENTITIES
  0
LINE
  8
94
 10
187.9600
 20
96.5200
 30
0.0000
 11
187.9600
 21
91.4400
 31
0.0000
  0
LINE
  8
94
 10
185.4200
 20
172.7200
 30
0.0000
 11
185.4200
 21
157.4800
 31
0.0000
  0
LINE
  8
94
 10
185.4200
 20
208.2800
 30
0.0000
 11
185.4200
 21
223.5200
 31
0.0000
  0
TEXT
  7
ISOCP
  8
94
 10
157.4800
 20
116.8400
 30
0.0000
 40
1.7780
  1
W1
  0
TEXT
  7
ISOCP
  8
94
 10
157.4800
 20
111.7600
 30
0.0000
 40
1.7780
  1
W3
  0
TEXT
  7
ISOCP
  8
94
 10
157.4800
 20
109.2200
 30
0.0000
 40
1.7780
  1
W4
  0
TEXT
  7
ISOCP
  8
94
 10
157.4800
 20
106.6800
 30
0.0000
 40
1.7780
  1
W5
  0
TEXT
  7
ISOCP
  8
94
 10
157.4800
 20
104.1400
 30
0.0000
 40
1.7780
  1
W6
  0
TEXT
  7
ISOCP
  8
94
 10
157.4800
 20
99.0600
 30
0.0000
 40
1.7780
  1
W8
  0
TEXT
  7
ISOCP
  8
94
 10
157.4800
 20
101.6000
 30
0.0000
 40
1.7780
  1
W7
  0
TEXT
  7
ISOCP
  8
94
 10
157.4800
 20
93.9800
 30
0.0000
 40
1.7780
  1
W10
  0
TEXT
  7
ISOCP
  8
94
 10
157.4800
 20
91.4400
 30
0.0000
 40
1.7780
  1
W11
  0
TEXT
  7
ISOCP
  8
94
 10
157.4800
 20
88.9000
 30
0.0000
 40
1.7780
  1
W12
  0
TEXT
  7
ISOCP
  8
94
 10
157.4800
 20
86.3600
 30
0.0000
 40
1.7780
  1
W13
  0
TEXT
  7
ISOCP
  8
94
 10
157.4800
 20
83.8200
 30
0.0000
 40
1.7780
  1
W14
  0
TEXT
  7
ISOCP
  8
94
 10
157.4800
 20
81.2800
 30
0.0000
 40
1.7780
  1
W15
  0
TEXT
  7
ISOCP
  8
94
 10
157.4800
 20
78.7400
 30
0.0000
 40
1.7780
  1
W16
  0
TEXT
  7
ISOCP
  8
94
 10
157.4800
 20
76.2000
 30
0.0000
 40
1.7780
  1
W17
  0
TEXT
  7
ISOCP
  8
94
 10
157.4800
 20
73.6600
 30
0.0000
 40
1.7780
  1
W18
  0
TEXT
  7
ISOCP
  8
94
 10
157.4800
 20
71.1200
 30
0.0000
 40
1.7780
  1
W19
  0
TEXT
  7
ISOCP
  8
94
 10
157.4800
 20
68.5800
 30
0.0000
 40
1.7780
  1
W20
  0
TEXT
  7
ISOCP
  8
94
 10
157.4800
 20
66.0400
 30
0.0000
 40
1.7780
  1
W21
  0
TEXT
  7
ISOCP
  8
94
 10
157.4800
 20
63.5000
 30
0.0000
 40
1.7780
  1
W22
  0
TEXT
  7
ISOCP
  8
94
 10
10.1600
 20
76.2000
 30
0.0000
 40
2.5400
  1
TO RABBIT BOARD
 50
90.0000
  0
TEXT
  7
ISOCP
  8
94
 10
147.3200
 20
226.0600
 30
0.0000
 40
1.7780
  1
GND1
  0
TEXT
  7
ISOCP
  8
94
 10
147.3200
 20
223.5200
 30
0.0000
 40
1.7780
  1
GND2
  0
TEXT
  7
ISOCP
  8
94
 10
147.3200
 20
213.3600
 30
0.0000
 40
1.7780
  1
GND6
  0
TEXT
  7
ISOCP
  8
94
 10
147.3200
 20
210.8200
 30
0.0000
 40
1.7780
  1
GND7
  0
TEXT
  7
ISOCP
  8
94
 10
147.3200
 20
208.2800
 30
0.0000
 40
1.7780
  1
GND8
  0
TEXT
  7
ISOCP
  8
94
 10
152.4000
 20
175.2600
 30
0.0000
 40
1.7780
  1
DC1
  0
TEXT
  7
ISOCP
  8
94
 10
152.4000
 20
172.7200
 30
0.0000
 40
1.7780
  1
DC2
  0
TEXT
  7
ISOCP
  8
94
 10
152.4000
 20
170.1800
 30
0.0000
 40
1.7780
  1
DC3
  0
TEXT
  7
ISOCP
  8
94
 10
152.4000
 20
162.5600
 30
0.0000
 40
1.7780
  1
DC6
  0
TEXT
  7
ISOCP
  8
94
 10
152.4000
 20
160.0200
 30
0.0000
 40
1.7780
  1
DC7
  0
TEXT
  7
ISOCP
  8
94
 10
152.4000
 20
157.4800
 30
0.0000
 40
1.7780
  1
DC8
  0
TEXT
  7
ISOCP
  8
94
 10
335.2800
 20
10.1600
 30
0.0000
 40
1.7780
  1
TERMINAL BLOCK WIRING DIAGRAM
  0
TEXT
  7
ISOCP
  8
94
 10
335.2800
 20
5.0800
 30
0.0000
 40
1.7780
  1
MJC
  0
TEXT
  7
ISOCP
  8
94
 10
213.3600
 20
175.2600
 30
0.0000
 40
1.7780
  1
DC9
  0
TEXT
  7
ISOCP
  8
94
 10
213.3600
 20
172.7200
 30
0.0000
 40
1.7780
  1
DC10
  0
TEXT
  7
ISOCP
  8
94
 10
213.3600
 20
170.1800
 30
0.0000
 40
1.7780
  1
DC11
  0
TEXT
  7
ISOCP
  8
94
 10
213.3600
 20
167.6400
 30
0.0000
 40
1.7780
  1
DC12
  0
TEXT
  7
ISOCP
  8
94
 10
213.3600
 20
226.0600
 30
0.0000
 40
1.7780
  1
GND9
  0
TEXT
  7
ISOCP
  8
94
 10
213.3600
 20
223.5200
 30
0.0000
 40
1.7780
  1
GND10
  0
TEXT
  7
ISOCP
  8
94
 10
213.3600
 20
220.9800
 30
0.0000
 40
1.7780
  1
GND11
  0
TEXT
  7
ISOCP
  8
94
 10
213.3600
 20
218.4400
 30
0.0000
 40
1.7780
  1
GND12
  0
TEXT
  7
ISOCP
  8
94
 10
213.3600
 20
215.9000
 30
0.0000
 40
1.7780
  1
GND13
  0
TEXT
  7
ISOCP
  8
94
 10
213.3600
 20
213.3600
 30
0.0000
 40
1.7780
  1
GND14
  0
TEXT
  7
ISOCP
  8
94
 10
213.3600
 20
210.8200
 30
0.0000
 40
1.7780
  1
GND15
  0
TEXT
  7
ISOCP
  8
94
 10
213.3600
 20
208.2800
 30
0.0000
 40
1.7780
  1
GND16
  0
TEXT
  7
ISOCP
  8
94
 10
12.7000
 20
243.8400
 30
0.0000
 40
1.7780
  1
FRONT OF ENCLOSURE
  0
TEXT
  7
ISOCP
  8
94
 10
342.9000
 20
241.3000
 30
0.0000
 40
1.7780
  1
REAR OF ENCLOSURE
  0
TEXT
  7
ISOCP
  8
94
 10
157.4800
 20
114.3000
 30
0.0000
 40
1.7780
  1
W2
  0
TEXT
  7
ISOCP
  8
94
 10
210.8200
 20
116.8400
 30
0.0000
 40
1.7780
  1
W1
  0
TEXT
  7
ISOCP
  8
94
 10
210.8200
 20
111.7600
 30
0.0000
 40
1.7780
  1
W3
  0
TEXT
  7
ISOCP
  8
94
 10
210.8200
 20
109.2200
 30
0.0000
 40
1.7780
  1
W4
  0
TEXT
  7
ISOCP
  8
94
 10
210.8200
 20
106.6800
 30
0.0000
 40
1.7780
  1
W5
  0
TEXT
  7
ISOCP
  8
94
 10
210.8200
 20
104.1400
 30
0.0000
 40
1.7780
  1
W6
  0
TEXT
  7
ISOCP
  8
94
 10
210.8200
 20
99.0600
 30
0.0000
 40
1.7780
  1
W8
  0
TEXT
  7
ISOCP
  8
94
 10
210.8200
 20
101.6000
 30
0.0000
 40
1.7780
  1
W7
  0
TEXT
  7
ISOCP
  8
94
 10
210.8200
 20
96.5200
 30
0.0000
 40
1.7780
  1
W9
  0
TEXT
  7
ISOCP
  8
94
 10
210.8200
 20
93.9800
 30
0.0000
 40
1.7780
  1
W10
  0
TEXT
  7
ISOCP
  8
94
 10
210.8200
 20
91.4400
 30
0.0000
 40
1.7780
  1
W11
  0
TEXT
  7
ISOCP
  8
94
 10
210.8200
 20
88.9000
 30
0.0000
 40
1.7780
  1
W12
  0
TEXT
  7
ISOCP
  8
94
 10
210.8200
 20
86.3600
 30
0.0000
 40
1.7780
  1
W13
  0
TEXT
  7
ISOCP
  8
94
 10
210.8200
 20
83.8200
 30
0.0000
 40
1.7780
  1
W14
  0
TEXT
  7
ISOCP
  8
94
 10
210.8200
 20
81.2800
 30
0.0000
 40
1.7780
  1
W15
  0
TEXT
  7
ISOCP
  8
94
 10
210.8200
 20
78.7400
 30
0.0000
 40
1.7780
  1
W16
  0
TEXT
  7
ISOCP
  8
94
 10
210.8200
 20
76.2000
 30
0.0000
 40
1.7780
  1
W17
  0
TEXT
  7
ISOCP
  8
94
 10
210.8200
 20
73.6600
 30
0.0000
 40
1.7780
  1
W18
  0
TEXT
  7
ISOCP
  8
94
 10
210.8200
 20
71.1200
 30
0.0000
 40
1.7780
  1
W19
  0
TEXT
  7
ISOCP
  8
94
 10
210.8200
 20
68.5800
 30
0.0000
 40
1.7780
  1
W20
  0
TEXT
  7
ISOCP
  8
94
 10
210.8200
 20
66.0400
 30
0.0000
 40
1.7780
  1
W21
  0
TEXT
  7
ISOCP
  8
94
 10
210.8200
 20
63.5000
 30
0.0000
 40
1.7780
  1
W22
  0
TEXT
  7
ISOCP
  8
94
 10
210.8200
 20
114.3000
 30
0.0000
 40
1.7780
  1
W2
  0
TEXT
  7
ISOCP
  8
94
 10
320.0400
 20
208.2800
 30
0.0000
 40
1.7780
  1
C.RELAY.A2
  0
TEXT
  7
ISOCP
  8
94
 10
314.9600
 20
226.0600
 30
0.0000
 40
1.7780
  1
DC.POWER.GND
  0
TEXT
  7
ISOCP
  8
94
 10
314.9600
 20
223.5200
 30
0.0000
 40
1.7780
  1
STEPPER.STEP-
  0
TEXT
  7
ISOCP
  8
94
 10
314.9600
 20
220.9800
 30
0.0000
 40
1.7780
  1
LEESON.2
  0
TEXT
  7
ISOCP
  8
94
 10
314.9600
 20
218.4400
 30
0.0000
 40
1.7780
  1
DB.RELAY.4
  0
TEXT
  7
ISOCP
  8
94
 10
322.5800
 20
175.2600
 30
0.0000
 40
1.7780
  1
DC.POWER.12V
  0
TEXT
  7
ISOCP
  8
94
 10
322.5800
 20
170.1800
 30
0.0000
 40
1.7780
  1
JOGLEFT.1
  0
TEXT
  7
ISOCP
  8
94
 10
322.5800
 20
172.7200
 30
0.0000
 40
1.7780
  1
JOGRIGHT.1
  0
TEXT
  7
ISOCP
  8
94
 10
43.1800
 20
165.1000
 30
0.0000
 40
1.7780
  1
PENDANT.RED
  0
TEXT
  7
ISOCP
  8
94
 10
43.1800
 20
215.9000
 30
0.0000
 40
1.7780
  1
JOYSTICK.BLACK
  0
TEXT
  7
ISOCP
  8
94
 10
43.1800
 20
157.4800
 30
0.0000
 40
1.7780
  1
ETLEFT.BROWN
  0
TEXT
  7
ISOCP
  8
94
 10
43.1800
 20
160.0200
 30
0.0000
 40
1.7780
  1
ETRIGHT.BROWN
  0
TEXT
  7
ISOCP
  8
94
 10
43.1800
 20
162.5600
 30
0.0000
 40
1.7780
  1
DRUM.RED
  0
TEXT
  7
ISOCP
  8
94
 10
43.1800
 20
213.3600
 30
0.0000
 40
1.7780
  1
DRUM.BLACK
  0
TEXT
  7
ISOCP
  8
94
 10
43.1800
 20
210.8200
 30
0.0000
 40
1.7780
  1
ETRIGHT.BLUE
  0
TEXT
  7
ISOCP
  8
94
 10
43.1800
 20
208.2800
 30
0.0000
 40
1.7780
  1
ETLEFT.BLUE
  0
TEXT
  7
ISOCP
  8
94
 10
43.1800
 20
175.2600
 30
0.0000
 40
1.7780
  1
J5.1
  0
TEXT
  7
ISOCP
  8
94
 10
43.1800
 20
226.0600
 30
0.0000
 40
1.7780
  1
J5.3
  0
TEXT
  7
ISOCP
  8
94
 10
43.1800
 20
172.7200
 30
0.0000
 40
1.7780
  1
INTERFACE.12V
  0
TEXT
  7
ISOCP
  8
94
 10
43.1800
 20
223.5200
 30
0.0000
 40
1.7780
  1
INTERFACE.GND
  0
TEXT
  7
ISOCP
  8
94
 10
43.1800
 20
170.1800
 30
0.0000
 40
1.7780
  1
J3.10
  0
TEXT
  7
ISOCP
  8
94
 10
322.5800
 20
116.8400
 30
0.0000
 40
1.7780
  1
J1.4
  0
TEXT
  7
ISOCP
  8
94
 10
322.5800
 20
114.3000
 30
0.0000
 40
1.7780
  1
J1.3
  0
TEXT
  7
ISOCP
  8
94
 10
322.5800
 20
111.7600
 30
0.0000
 40
1.7780
  1
J12.2
  0
TEXT
  7
ISOCP
  8
94
 10
322.5800
 20
109.2200
 30
0.0000
 40
1.7780
  1
J12.13
  0
TEXT
  7
ISOCP
  8
94
 10
322.5800
 20
106.6800
 30
0.0000
 40
1.7780
  1
J3.1
  0
TEXT
  7
ISOCP
  8
94
 10
322.5800
 20
104.1400
 30
0.0000
 40
1.7780
  1
J3.4
  0
TEXT
  7
ISOCP
  8
94
 10
322.5800
 20
101.6000
 30
0.0000
 40
1.7780
  1
J4.1
  0
TEXT
  7
ISOCP
  8
94
 10
322.5800
 20
99.0600
 30
0.0000
 40
1.7780
  1
J4.4
  0
TEXT
  7
ISOCP
  8
94
 10
322.5800
 20
91.4400
 30
0.0000
 40
1.7780
  1
J1.1
  0
TEXT
  7
ISOCP
  8
94
 10
314.9600
 20
96.5200
 30
0.0000
 40
1.7780
  1
C.RELAY.A1
  0
TEXT
  7
ISOCP
  8
94
 10
322.5800
 20
93.9800
 30
0.0000
 40
1.7780
  1
J12.8
  0
TEXT
  7
ISOCP
  8
94
 10
322.5800
 20
86.3600
 30
0.0000
 40
1.7780
  1
J1.7
  0
TEXT
  7
ISOCP
  8
94
 10
322.5800
 20
88.9000
 30
0.0000
 40
1.7780
  1
J1.8
  0
TEXT
  7
ISOCP
  8
94
 10
322.5800
 20
83.8200
 30
0.0000
 40
1.7780
  1
J11.1
  0
TEXT
  7
ISOCP
  8
94
 10
322.5800
 20
81.2800
 30
0.0000
 40
1.7780
  1
J1.6
  0
TEXT
  7
ISOCP
  8
94
 10
322.5800
 20
78.7400
 30
0.0000
 40
1.7780
  1
J2.4
  0
TEXT
  7
ISOCP
  8
94
 10
322.5800
 20
76.2000
 30
0.0000
 40
1.7780
  1
J2.1
  0
TEXT
  7
ISOCP
  8
94
 10
322.5800
 20
73.6600
 30
0.0000
 40
1.7780
  1
J2.2
  0
TEXT
  7
ISOCP
  8
94
 10
307.3400
 20
71.1200
 30
0.0000
 40
1.7780
  1
INTERFACE.QEA
  0
TEXT
  7
ISOCP
  8
94
 10
307.3400
 20
66.0400
 30
0.0000
 40
1.7780
  1
INTERFACE.QEB
  0
TEXT
  7
ISOCP
  8
94
 10
307.3400
 20
68.5800
 30
0.0000
 40
1.7780
  1
INTERFACE.5V
  0
TEXT
  7
ISOCP
  8
94
 10
307.3400
 20
63.5000
 30
0.0000
 40
1.7780
  1
INTERFACE.GND
  0
TEXT
  7
ISOCP
  8
94
 10
45.7200
 20
116.8400
 30
0.0000
 40
1.7780
  1
JOGRIGHT.2
  0
TEXT
  7
ISOCP
  8
94
 10
45.7200
 20
114.3000
 30
0.0000
 40
1.7780
  1
JOGLEFT.2
  0
TEXT
  7
ISOCP
  8
94
 10
45.7200
 20
111.7600
 30
0.0000
 40
1.7780
  1
THERMISTOR.2
  0
TEXT
  7
ISOCP
  8
94
 10
45.7200
 20
109.2200
 30
0.0000
 40
1.7780
  1
LEESON.5
  0
TEXT
  7
ISOCP
  8
94
 10
45.7200
 20
106.6800
 30
0.0000
 40
1.7780
  1
LEESON.1
  0
TEXT
  7
ISOCP
  8
94
 10
45.7200
 20
104.1400
 30
0.0000
 40
1.7780
  1
LEESON.13A
  0
TEXT
  7
ISOCP
  8
94
 10
45.7200
 20
101.6000
 30
0.0000
 40
1.7780
  1
STEPPER.STEP+
  0
TEXT
  7
ISOCP
  8
94
 10
45.7200
 20
99.0600
 30
0.0000
 40
1.7780
  1
STEPPER.DIR+
  0
TEXT
  7
ISOCP
  8
94
 10
45.7200
 20
93.9800
 30
0.0000
 40
1.7780
  1
PENDANT.YELLOW
  0
TEXT
  7
ISOCP
  8
94
 10
45.7200
 20
91.4400
 30
0.0000
 40
1.7780
  1
PENDANT.BROWN
  0
TEXT
  7
ISOCP
  8
94
 10
45.7200
 20
88.9000
 30
0.0000
 40
1.7780
  1
PENDANT.ORANGE
  0
TEXT
  7
ISOCP
  8
94
 10
45.7200
 20
86.3600
 30
0.0000
 40
1.7780
  1
PENDANT.WHITE
  0
TEXT
  7
ISOCP
  8
94
 10
45.7200
 20
81.2800
 30
0.0000
 40
1.7780
  1
PENDANT.BLUE
  0
TEXT
  7
ISOCP
  8
94
 10
45.7200
 20
83.8200
 30
0.0000
 40
1.7780
  1
PENDANT.GREEN
  0
TEXT
  7
ISOCP
  8
94
 10
45.7200
 20
78.7400
 30
0.0000
 40
1.7780
  1
DRUM.GREEN
  0
TEXT
  7
ISOCP
  8
94
 10
45.7200
 20
76.2000
 30
0.0000
 40
1.7780
  1
ETRIGHT.BLACK
  0
TEXT
  7
ISOCP
  8
94
 10
45.7200
 20
73.6600
 30
0.0000
 40
1.7780
  1
ETLEFT.BLACK
  0
TEXT
  7
ISOCP
  8
94
 10
45.7200
 20
68.5800
 30
0.0000
 40
1.7780
  1
ENCODER.RED
  0
TEXT
  7
ISOCP
  8
94
 10
45.7200
 20
63.5000
 30
0.0000
 40
1.7780
  1
ENCODER.BLACK
  0
TEXT
  7
ISOCP
  8
94
 10
45.7200
 20
66.0400
 30
0.0000
 40
1.7780
  1
ENCODER.GREEN
  0
TEXT
  7
ISOCP
  8
94
 10
45.7200
 20
71.1200
 30
0.0000
 40
1.7780
  1
ENCODER.WHITE
  0
TEXT
  7
ISOCP
  8
94
 10
210.8200
 20
50.8000
 30
0.0000
 40
1.7780
  1
W23
  0
TEXT
  7
ISOCP
  8
94
 10
210.8200
 20
48.2600
 30
0.0000
 40
1.7780
  1
W24
  0
TEXT
  7
ISOCP
  8
94
 10
322.5800
 20
50.8000
 30
0.0000
 40
1.7780
  1
J11.9
  0
TEXT
  7
ISOCP
  8
94
 10
322.5800
 20
48.2600
 30
0.0000
 40
1.7780
  1
J11.4
  0
TEXT
  7
ISOCP
  8
94
 10
322.5800
 20
167.6400
 30
0.0000
 40
1.7780
  1
THERMISTOR.1
  0
TEXT
  7
ISOCP
  8
94
 10
43.1800
 20
167.6400
 30
0.0000
 40
1.7780
  1
J4.10
  0
TEXT
  7
ISOCP
  8
94
 10
162.5600
 20
195.5800
 30
0.0000
 40
1.7780
  1
ALL GROUND ARE AT CHASSIS GND
  0
TEXT
  7
ISOCP
  8
94
 10
162.5600
 20
147.3200
 30
0.0000
 40
1.7780
  1
JUMPER ACROSS ALL +12V TBs (4 POS)
  0
TEXT
  7
ISOCP
  8
94
 10
167.6400
 20
58.4200
 30
0.0000
 40
1.7780
  1
JUMPER BETWEEN R5T AND R6T
  0
TEXT
  7
ISOCP
  8
94
 10
134.6200
 20
50.8000
 30
0.0000
 40
1.7780
  1
NOT CONNECTED
  0
TEXT
  7
ISOCP
  8
94
 10
134.6200
 20
48.2600
 30
0.0000
 40
1.7780
  1
CONSOLE APPLICATION ONLY
  0
TEXT
  7
ISOCP
  8
94
 10
147.3200
 20
215.9000
 30
0.0000
 40
1.7780
  1
GND5
  0
TEXT
  7
ISOCP
  8
94
 10
152.4000
 20
167.6400
 30
0.0000
 40
1.7780
  1
DC4
  0
TEXT
  7
ISOCP
  8
94
 10
152.4000
 20
165.1000
 30
0.0000
 40
1.7780
  1
DC5
  0
LINE
  8
94
 10
0.0000
 20
0.0000
 30
0.0000
 11
50.8000
 21
0.0000
 31
0.0000
  0
LINE
  8
94
 10
50.8000
 20
0.0000
 30
0.0000
 11
98.4250
 21
0.0000
 31
0.0000
  0
LINE
  8
94
 10
98.4250
 20
0.0000
 30
0.0000
 11
146.0500
 21
0.0000
 31
0.0000
  0
LINE
  8
94
 10
146.0500
 20
0.0000
 30
0.0000
 11
193.6750
 21
0.0000
 31
0.0000
  0
LINE
  8
94
 10
193.6750
 20
0.0000
 30
0.0000
 11
241.3000
 21
0.0000
 31
0.0000
  0
LINE
  8
94
 10
241.3000
 20
0.0000
 30
0.0000
 11
288.9250
 21
0.0000
 31
0.0000
  0
LINE
  8
94
 10
288.9250
 20
0.0000
 30
0.0000
 11
336.5500
 21
0.0000
 31
0.0000
  0
LINE
  8
94
 10
336.5500
 20
0.0000
 30
0.0000
 11
387.3500
 21
0.0000
 31
0.0000
  0
LINE
  8
94
 10
387.3500
 20
0.0000
 30
0.0000
 11
387.3500
 21
53.9750
 31
0.0000
  0
LINE
  8
94
 10
387.3500
 20
53.9750
 30
0.0000
 11
387.3500
 21
104.7750
 31
0.0000
  0
LINE
  8
94
 10
387.3500
 20
104.7750
 30
0.0000
 11
387.3500
 21
155.5750
 31
0.0000
  0
LINE
  8
94
 10
387.3500
 20
155.5750
 30
0.0000
 11
387.3500
 21
206.3750
 31
0.0000
  0
LINE
  8
94
 10
387.3500
 20
206.3750
 30
0.0000
 11
387.3500
 21
260.3500
 31
0.0000
  0
LINE
  8
94
 10
146.0500
 20
260.3500
 30
0.0000
 11
98.4250
 21
260.3500
 31
0.0000
  0
LINE
  8
94
 10
98.4250
 20
260.3500
 30
0.0000
 11
50.8000
 21
260.3500
 31
0.0000
  0
LINE
  8
94
 10
50.8000
 20
260.3500
 30
0.0000
 11
0.0000
 21
260.3500
 31
0.0000
  0
LINE
  8
94
 10
0.0000
 20
260.3500
 30
0.0000
 11
0.0000
 21
206.3750
 31
0.0000
  0
LINE
  8
94
 10
0.0000
 20
206.3750
 30
0.0000
 11
0.0000
 21
155.5750
 31
0.0000
  0
LINE
  8
94
 10
0.0000
 20
155.5750
 30
0.0000
 11
0.0000
 21
104.7750
 31
0.0000
  0
LINE
  8
94
 10
0.0000
 20
104.7750
 30
0.0000
 11
0.0000
 21
53.9750
 31
0.0000
  0
LINE
  8
94
 10
0.0000
 20
53.9750
 30
0.0000
 11
0.0000
 21
0.0000
 31
0.0000
  0
LINE
  8
94
 10
3.1750
 20
3.1750
 30
0.0000
 11
50.8000
 21
3.1750
 31
0.0000
  0
LINE
  8
94
 10
50.8000
 20
3.1750
 30
0.0000
 11
98.4250
 21
3.1750
 31
0.0000
  0
LINE
  8
94
 10
98.4250
 20
3.1750
 30
0.0000
 11
146.0500
 21
3.1750
 31
0.0000
  0
LINE
  8
94
 10
146.0500
 20
3.1750
 30
0.0000
 11
193.6750
 21
3.1750
 31
0.0000
  0
LINE
  8
94
 10
193.6750
 20
3.1750
 30
0.0000
 11
241.3000
 21
3.1750
 31
0.0000
  0
LINE
  8
94
 10
241.3000
 20
3.1750
 30
0.0000
 11
288.9250
 21
3.1750
 31
0.0000
  0
LINE
  8
94
 10
288.9250
 20
3.1750
 30
0.0000
 11
307.3400
 21
3.1750
 31
0.0000
  0
LINE
  8
94
 10
336.5500
 20
3.1750
 30
0.0000
 11
307.3400
 21
3.1750
 31
0.0000
  0
LINE
  8
94
 10
307.3400
 20
3.1750
 30
0.0000
 11
366.3950
 21
3.1750
 31
0.0000
  0
LINE
  8
94
 10
366.3950
 20
3.1750
 30
0.0000
 11
384.1750
 21
3.1750
 31
0.0000
  0
LINE
  8
94
 10
384.1750
 20
3.1750
 30
0.0000
 11
384.1750
 21
8.2550
 31
0.0000
  0
LINE
  8
94
 10
384.1750
 20
8.2550
 30
0.0000
 11
384.1750
 21
13.3350
 31
0.0000
  0
LINE
  8
94
 10
384.1750
 20
13.3350
 30
0.0000
 11
384.1750
 21
18.4150
 31
0.0000
  0
LINE
  8
94
 10
384.1750
 20
18.4150
 30
0.0000
 11
384.1750
 21
23.4950
 31
0.0000
  0
LINE
  8
94
 10
384.1750
 20
23.4950
 30
0.0000
 11
384.1750
 21
53.9750
 31
0.0000
  0
LINE
  8
94
 10
384.1750
 20
53.9750
 30
0.0000
 11
384.1750
 21
104.7750
 31
0.0000
  0
LINE
  8
94
 10
384.1750
 20
104.7750
 30
0.0000
 11
384.1750
 21
155.5750
 31
0.0000
  0
LINE
  8
94
 10
384.1750
 20
155.5750
 30
0.0000
 11
384.1750
 21
206.3750
 31
0.0000
  0
LINE
  8
94
 10
384.1750
 20
206.3750
 30
0.0000
 11
384.1750
 21
257.1750
 31
0.0000
  0
LINE
  8
94
 10
384.1750
 20
257.1750
 30
0.0000
 11
336.5500
 21
257.1750
 31
0.0000
  0
LINE
  8
94
 10
336.5500
 20
257.1750
 30
0.0000
 11
288.9250
 21
257.1750
 31
0.0000
  0
LINE
  8
94
 10
288.9250
 20
257.1750
 30
0.0000
 11
241.3000
 21
257.1750
 31
0.0000
  0
LINE
  8
94
 10
241.3000
 20
257.1750
 30
0.0000
 11
193.6750
 21
257.1750
 31
0.0000
  0
LINE
  8
94
 10
193.6750
 20
257.1750
 30
0.0000
 11
146.0500
 21
257.1750
 31
0.0000
  0
LINE
  8
94
 10
146.0500
 20
257.1750
 30
0.0000
 11
98.4250
 21
257.1750
 31
0.0000
  0
LINE
  8
94
 10
98.4250
 20
257.1750
 30
0.0000
 11
50.8000
 21
257.1750
 31
0.0000
  0
LINE
  8
94
 10
50.8000
 20
257.1750
 30
0.0000
 11
3.1750
 21
257.1750
 31
0.0000
  0
LINE
  8
94
 10
3.1750
 20
257.1750
 30
0.0000
 11
3.1750
 21
206.3750
 31
0.0000
  0
LINE
  8
94
 10
3.1750
 20
206.3750
 30
0.0000
 11
3.1750
 21
155.5750
 31
0.0000
  0
LINE
  8
94
 10
3.1750
 20
155.5750
 30
0.0000
 11
3.1750
 21
104.7750
 31
0.0000
  0
LINE
  8
94
 10
3.1750
 20
104.7750
 30
0.0000
 11
3.1750
 21
53.9750
 31
0.0000
  0
LINE
  8
94
 10
3.1750
 20
53.9750
 30
0.0000
 11
3.1750
 21
3.1750
 31
0.0000
  0
LINE
  8
94
 10
387.3500
 20
260.3500
 30
0.0000
 11
336.5500
 21
260.3500
 31
0.0000
  0
LINE
  8
94
 10
336.5500
 20
260.3500
 30
0.0000
 11
288.9250
 21
260.3500
 31
0.0000
  0
LINE
  8
94
 10
288.9250
 20
260.3500
 30
0.0000
 11
241.3000
 21
260.3500
 31
0.0000
  0
LINE
  8
94
 10
241.3000
 20
260.3500
 30
0.0000
 11
193.6750
 21
260.3500
 31
0.0000
  0
LINE
  8
94
 10
193.6750
 20
260.3500
 30
0.0000
 11
146.0500
 21
260.3500
 31
0.0000
  0
LINE
  8
94
 10
193.6750
 20
260.3500
 30
0.0000
 11
193.6750
 21
257.1750
 31
0.0000
  0
LINE
  8
94
 10
193.6750
 20
3.1750
 30
0.0000
 11
193.6750
 21
0.0000
 31
0.0000
  0
LINE
  8
94
 10
0.0000
 20
104.7750
 30
0.0000
 11
3.1750
 21
104.7750
 31
0.0000
  0
LINE
  8
94
 10
384.1750
 20
155.5750
 30
0.0000
 11
387.3500
 21
155.5750
 31
0.0000
  0
LINE
  8
94
 10
98.4250
 20
257.1750
 30
0.0000
 11
98.4250
 21
260.3500
 31
0.0000
  0
LINE
  8
94
 10
98.4250
 20
3.1750
 30
0.0000
 11
98.4250
 21
0.0000
 31
0.0000
  0
LINE
  8
94
 10
288.9250
 20
260.3500
 30
0.0000
 11
288.9250
 21
257.1750
 31
0.0000
  0
LINE
  8
94
 10
288.9250
 20
3.1750
 30
0.0000
 11
288.9250
 21
0.0000
 31
0.0000
  0
LINE
  8
94
 10
0.0000
 20
53.9750
 30
0.0000
 11
3.1750
 21
53.9750
 31
0.0000
  0
LINE
  8
94
 10
384.1750
 20
104.7750
 30
0.0000
 11
387.3500
 21
104.7750
 31
0.0000
  0
LINE
  8
94
 10
0.0000
 20
155.5750
 30
0.0000
 11
3.1750
 21
155.5750
 31
0.0000
  0
LINE
  8
94
 10
384.1750
 20
206.3750
 30
0.0000
 11
387.3500
 21
206.3750
 31
0.0000
  0
LINE
  8
94
 10
50.8000
 20
257.1750
 30
0.0000
 11
50.8000
 21
260.3500
 31
0.0000
  0
LINE
  8
94
 10
0.0000
 20
206.3750
 30
0.0000
 11
3.1750
 21
206.3750
 31
0.0000
  0
LINE
  8
94
 10
384.1750
 20
53.9750
 30
0.0000
 11
387.3500
 21
53.9750
 31
0.0000
  0
LINE
  8
94
 10
146.0500
 20
257.1750
 30
0.0000
 11
146.0500
 21
260.3500
 31
0.0000
  0
LINE
  8
94
 10
241.3000
 20
260.3500
 30
0.0000
 11
241.3000
 21
257.1750
 31
0.0000
  0
LINE
  8
94
 10
336.5500
 20
260.3500
 30
0.0000
 11
336.5500
 21
257.1750
 31
0.0000
  0
LINE
  8
94
 10
336.5500
 20
3.1750
 30
0.0000
 11
336.5500
 21
0.0000
 31
0.0000
  0
LINE
  8
94
 10
241.3000
 20
3.1750
 30
0.0000
 11
241.3000
 21
0.0000
 31
0.0000
  0
LINE
  8
94
 10
146.0500
 20
3.1750
 30
0.0000
 11
146.0500
 21
0.0000
 31
0.0000
  0
LINE
  8
94
 10
50.8000
 20
0.0000
 30
0.0000
 11
50.8000
 21
3.1750
 31
0.0000
  0
LINE
  8
94
 10
288.9250
 20
3.1750
 30
0.0000
 11
288.9250
 21
23.4950
 31
0.0000
  0
LINE
  8
94
 10
288.9250
 20
23.4950
 30
0.0000
 11
307.3400
 21
23.4950
 31
0.0000
  0
LINE
  8
94
 10
307.3400
 20
23.4950
 30
0.0000
 11
384.1750
 21
23.4950
 31
0.0000
  0
LINE
  8
94
 10
366.3950
 20
3.1750
 30
0.0000
 11
366.3950
 21
8.2550
 31
0.0000
  0
LINE
  8
94
 10
366.3950
 20
8.2550
 30
0.0000
 11
384.1750
 21
8.2550
 31
0.0000
  0
LINE
  8
94
 10
366.3950
 20
8.2550
 30
0.0000
 11
307.3400
 21
8.2550
 31
0.0000
  0
LINE
  8
94
 10
307.3400
 20
8.2550
 30
0.0000
 11
307.3400
 21
3.1750
 31
0.0000
  0
LINE
  8
94
 10
307.3400
 20
8.2550
 30
0.0000
 11
307.3400
 21
13.3350
 31
0.0000
  0
LINE
  8
94
 10
307.3400
 20
13.3350
 30
0.0000
 11
384.1750
 21
13.3350
 31
0.0000
  0
LINE
  8
94
 10
307.3400
 20
13.3350
 30
0.0000
 11
307.3400
 21
18.4150
 31
0.0000
  0
LINE
  8
94
 10
307.3400
 20
18.4150
 30
0.0000
 11
384.1750
 21
18.4150
 31
0.0000
  0
LINE
  8
94
 10
307.3400
 20
18.4150
 30
0.0000
 11
307.3400
 21
23.4950
 31
0.0000
  0
LINE
  8
94
 10
24.4856
 20
0.3556
 30
0.0000
 11
24.4856
 21
1.9148
 31
0.0000
  0
LINE
  8
94
 10
24.4856
 20
1.9148
 30
0.0000
 11
25.2652
 21
2.6944
 31
0.0000
  0
LINE
  8
94
 10
25.2652
 20
2.6944
 30
0.0000
 11
26.0448
 21
1.9148
 31
0.0000
  0
LINE
  8
94
 10
26.0448
 20
1.9148
 30
0.0000
 11
26.0448
 21
0.3556
 31
0.0000
  0
LINE
  8
94
 10
24.4856
 20
1.5250
 30
0.0000
 11
26.0448
 21
1.5250
 31
0.0000
  0
LINE
  8
94
 10
74.5236
 20
0.3556
 30
0.0000
 11
74.5236
 21
2.6944
 31
0.0000
  0
LINE
  8
94
 10
74.5236
 20
2.6944
 30
0.0000
 11
75.6930
 21
2.6944
 31
0.0000
  0
LINE
  8
94
 10
75.6930
 20
2.6944
 30
0.0000
 11
76.0828
 21
2.3046
 31
0.0000
  0
LINE
  8
94
 10
76.0828
 20
2.3046
 30
0.0000
 11
76.0828
 21
1.9148
 31
0.0000
  0
LINE
  8
94
 10
76.0828
 20
1.9148
 30
0.0000
 11
75.6930
 21
1.5250
 31
0.0000
  0
LINE
  8
94
 10
75.6930
 20
1.5250
 30
0.0000
 11
76.0828
 21
1.1352
 31
0.0000
  0
LINE
  8
94
 10
76.0828
 20
1.1352
 30
0.0000
 11
76.0828
 21
0.7454
 31
0.0000
  0
LINE
  8
94
 10
76.0828
 20
0.7454
 30
0.0000
 11
75.6930
 21
0.3556
 31
0.0000
  0
LINE
  8
94
 10
75.6930
 20
0.3556
 30
0.0000
 11
74.5236
 21
0.3556
 31
0.0000
  0
LINE
  8
94
 10
74.5236
 20
1.5250
 30
0.0000
 11
75.6930
 21
1.5250
 31
0.0000
  0
LINE
  8
94
 10
122.8188
 20
2.3046
 30
0.0000
 11
122.4290
 21
2.6944
 31
0.0000
  0
LINE
  8
94
 10
122.4290
 20
2.6944
 30
0.0000
 11
121.6494
 21
2.6944
 31
0.0000
  0
LINE
  8
94
 10
121.6494
 20
2.6944
 30
0.0000
 11
121.2596
 21
2.3046
 31
0.0000
  0
LINE
  8
94
 10
121.2596
 20
2.3046
 30
0.0000
 11
121.2596
 21
0.7454
 31
0.0000
  0
LINE
  8
94
 10
121.2596
 20
0.7454
 30
0.0000
 11
121.6494
 21
0.3556
 31
0.0000
  0
LINE
  8
94
 10
121.6494
 20
0.3556
 30
0.0000
 11
122.4290
 21
0.3556
 31
0.0000
  0
LINE
  8
94
 10
122.4290
 20
0.3556
 30
0.0000
 11
122.8188
 21
0.7454
 31
0.0000
  0
LINE
  8
94
 10
169.5196
 20
2.6944
 30
0.0000
 11
169.5196
 21
0.3556
 31
0.0000
  0
LINE
  8
94
 10
169.5196
 20
0.3556
 30
0.0000
 11
170.6890
 21
0.3556
 31
0.0000
  0
LINE
  8
94
 10
170.6890
 20
0.3556
 30
0.0000
 11
171.0788
 21
0.7454
 31
0.0000
  0
LINE
  8
94
 10
171.0788
 20
0.7454
 30
0.0000
 11
171.0788
 21
2.3046
 31
0.0000
  0
LINE
  8
94
 10
171.0788
 20
2.3046
 30
0.0000
 11
170.6890
 21
2.6944
 31
0.0000
  0
LINE
  8
94
 10
170.6890
 20
2.6944
 30
0.0000
 11
169.5196
 21
2.6944
 31
0.0000
  0
LINE
  8
94
 10
218.5768
 20
2.6944
 30
0.0000
 11
217.0176
 21
2.6944
 31
0.0000
  0
LINE
  8
94
 10
217.0176
 20
2.6944
 30
0.0000
 11
217.0176
 21
0.3556
 31
0.0000
  0
LINE
  8
94
 10
217.0176
 20
0.3556
 30
0.0000
 11
218.5768
 21
0.3556
 31
0.0000
  0
LINE
  8
94
 10
217.0176
 20
1.5250
 30
0.0000
 11
217.7972
 21
1.5250
 31
0.0000
  0
LINE
  8
94
 10
263.7536
 20
0.3556
 30
0.0000
 11
263.7536
 21
2.6944
 31
0.0000
  0
LINE
  8
94
 10
263.7536
 20
2.6944
 30
0.0000
 11
265.3128
 21
2.6944
 31
0.0000
  0
LINE
  8
94
 10
263.7536
 20
1.5250
 30
0.0000
 11
264.5332
 21
1.5250
 31
0.0000
  0
LINE
  8
94
 10
312.3028
 20
2.3046
 30
0.0000
 11
311.9130
 21
2.6944
 31
0.0000
  0
LINE
  8
94
 10
311.9130
 20
2.6944
 30
0.0000
 11
311.1334
 21
2.6944
 31
0.0000
  0
LINE
  8
94
 10
311.1334
 20
2.6944
 30
0.0000
 11
310.7436
 21
2.3046
 31
0.0000
  0
LINE
  8
94
 10
310.7436
 20
2.3046
 30
0.0000
 11
310.7436
 21
0.7454
 31
0.0000
  0
LINE
  8
94
 10
310.7436
 20
0.7454
 30
0.0000
 11
311.1334
 21
0.3556
 31
0.0000
  0
LINE
  8
94
 10
311.1334
 20
0.3556
 30
0.0000
 11
311.9130
 21
0.3556
 31
0.0000
  0
LINE
  8
94
 10
311.9130
 20
0.3556
 30
0.0000
 11
312.3028
 21
0.7454
 31
0.0000
  0
LINE
  8
94
 10
312.3028
 20
0.7454
 30
0.0000
 11
312.3028
 21
1.5250
 31
0.0000
  0
LINE
  8
94
 10
312.3028
 20
1.5250
 30
0.0000
 11
311.5232
 21
1.5250
 31
0.0000
  0
LINE
  8
94
 10
361.0356
 20
0.3556
 30
0.0000
 11
361.0356
 21
2.6944
 31
0.0000
  0
LINE
  8
94
 10
361.0356
 20
1.5250
 30
0.0000
 11
362.5948
 21
1.5250
 31
0.0000
  0
LINE
  8
94
 10
362.5948
 20
2.6944
 30
0.0000
 11
362.5948
 21
0.3556
 31
0.0000
  0
LINE
  8
94
 10
385.1656
 20
30.3628
 30
0.0000
 11
385.9452
 21
31.1424
 31
0.0000
  0
LINE
  8
94
 10
385.9452
 20
31.1424
 30
0.0000
 11
385.9452
 21
28.8036
 31
0.0000
  0
LINE
  8
94
 10
385.1656
 20
28.8036
 30
0.0000
 11
386.7248
 21
28.8036
 31
0.0000
  0
LINE
  8
94
 10
386.4708
 20
79.6036
 30
0.0000
 11
384.9116
 21
79.6036
 31
0.0000
  0
LINE
  8
94
 10
384.9116
 20
79.6036
 30
0.0000
 11
386.4708
 21
81.1628
 31
0.0000
  0
LINE
  8
94
 10
386.4708
 20
81.1628
 30
0.0000
 11
386.4708
 21
81.5526
 31
0.0000
  0
LINE
  8
94
 10
386.4708
 20
81.5526
 30
0.0000
 11
386.0810
 21
81.9424
 31
0.0000
  0
LINE
  8
94
 10
386.0810
 20
81.9424
 30
0.0000
 11
385.3014
 21
81.9424
 31
0.0000
  0
LINE
  8
94
 10
385.3014
 20
81.9424
 30
0.0000
 11
384.9116
 21
81.5526
 31
0.0000
  0
LINE
  8
94
 10
384.9116
 20
132.3526
 30
0.0000
 11
385.3014
 21
132.7424
 31
0.0000
  0
LINE
  8
94
 10
385.3014
 20
132.7424
 30
0.0000
 11
386.0810
 21
132.7424
 31
0.0000
  0
LINE
  8
94
 10
386.0810
 20
132.7424
 30
0.0000
 11
386.4708
 21
132.3526
 31
0.0000
  0
LINE
  8
94
 10
386.4708
 20
132.3526
 30
0.0000
 11
386.4708
 21
131.9628
 31
0.0000
  0
LINE
  8
94
 10
386.4708
 20
131.9628
 30
0.0000
 11
386.0810
 21
131.5730
 31
0.0000
  0
LINE
  8
94
 10
386.0810
 20
131.5730
 30
0.0000
 11
385.6912
 21
131.5730
 31
0.0000
  0
LINE
  8
94
 10
386.0810
 20
131.5730
 30
0.0000
 11
386.4708
 21
131.1832
 31
0.0000
  0
LINE
  8
94
 10
386.4708
 20
131.1832
 30
0.0000
 11
386.4708
 21
130.7934
 31
0.0000
  0
LINE
  8
94
 10
386.4708
 20
130.7934
 30
0.0000
 11
386.0810
 21
130.4036
 31
0.0000
  0
LINE
  8
94
 10
386.0810
 20
130.4036
 30
0.0000
 11
385.3014
 21
130.4036
 31
0.0000
  0
LINE
  8
94
 10
385.3014
 20
130.4036
 30
0.0000
 11
384.9116
 21
130.7934
 31
0.0000
  0
LINE
  8
94
 10
386.0810
 20
181.9656
 30
0.0000
 11
386.0810
 21
184.3044
 31
0.0000
  0
LINE
  8
94
 10
386.0810
 20
184.3044
 30
0.0000
 11
384.9116
 21
183.1350
 31
0.0000
  0
LINE
  8
94
 10
384.9116
 20
183.1350
 30
0.0000
 11
386.4708
 21
183.1350
 31
0.0000
  0
LINE
  8
94
 10
386.4708
 20
233.5804
 30
0.0000
 11
384.9116
 21
233.5804
 31
0.0000
  0
LINE
  8
94
 10
384.9116
 20
233.5804
 30
0.0000
 11
384.9116
 21
232.4110
 31
0.0000
  0
LINE
  8
94
 10
384.9116
 20
232.4110
 30
0.0000
 11
385.6912
 21
232.8008
 31
0.0000
  0
LINE
  8
94
 10
385.6912
 20
232.8008
 30
0.0000
 11
386.0810
 21
232.8008
 31
0.0000
  0
LINE
  8
94
 10
386.0810
 20
232.8008
 30
0.0000
 11
386.4708
 21
232.4110
 31
0.0000
  0
LINE
  8
94
 10
386.4708
 20
232.4110
 30
0.0000
 11
386.4708
 21
231.6314
 31
0.0000
  0
LINE
  8
94
 10
386.4708
 20
231.6314
 30
0.0000
 11
386.0810
 21
231.2416
 31
0.0000
  0
LINE
  8
94
 10
386.0810
 20
231.2416
 30
0.0000
 11
385.3014
 21
231.2416
 31
0.0000
  0
LINE
  8
94
 10
385.3014
 20
231.2416
 30
0.0000
 11
384.9116
 21
231.6314
 31
0.0000
  0
LINE
  8
94
 10
361.2896
 20
257.6576
 30
0.0000
 11
361.2896
 21
259.9964
 31
0.0000
  0
LINE
  8
94
 10
361.2896
 20
258.8270
 30
0.0000
 11
362.8488
 21
258.8270
 31
0.0000
  0
LINE
  8
94
 10
362.8488
 20
259.9964
 30
0.0000
 11
362.8488
 21
257.6576
 31
0.0000
  0
LINE
  8
94
 10
313.0648
 20
259.6066
 30
0.0000
 11
312.6750
 21
259.9964
 31
0.0000
  0
LINE
  8
94
 10
312.6750
 20
259.9964
 30
0.0000
 11
311.8954
 21
259.9964
 31
0.0000
  0
LINE
  8
94
 10
311.8954
 20
259.9964
 30
0.0000
 11
311.5056
 21
259.6066
 31
0.0000
  0
LINE
  8
94
 10
311.5056
 20
259.6066
 30
0.0000
 11
311.5056
 21
258.0474
 31
0.0000
  0
LINE
  8
94
 10
311.5056
 20
258.0474
 30
0.0000
 11
311.8954
 21
257.6576
 31
0.0000
  0
LINE
  8
94
 10
311.8954
 20
257.6576
 30
0.0000
 11
312.6750
 21
257.6576
 31
0.0000
  0
LINE
  8
94
 10
312.6750
 20
257.6576
 30
0.0000
 11
313.0648
 21
258.0474
 31
0.0000
  0
LINE
  8
94
 10
313.0648
 20
258.0474
 30
0.0000
 11
313.0648
 21
258.8270
 31
0.0000
  0
LINE
  8
94
 10
313.0648
 20
258.8270
 30
0.0000
 11
312.2852
 21
258.8270
 31
0.0000
  0
LINE
  8
94
 10
262.9916
 20
257.6576
 30
0.0000
 11
262.9916
 21
259.9964
 31
0.0000
  0
LINE
  8
94
 10
262.9916
 20
259.9964
 30
0.0000
 11
264.5508
 21
259.9964
 31
0.0000
  0
LINE
  8
94
 10
262.9916
 20
258.8270
 30
0.0000
 11
263.7712
 21
258.8270
 31
0.0000
  0
LINE
  8
94
 10
217.5608
 20
259.9964
 30
0.0000
 11
216.0016
 21
259.9964
 31
0.0000
  0
LINE
  8
94
 10
216.0016
 20
259.9964
 30
0.0000
 11
216.0016
 21
257.6576
 31
0.0000
  0
LINE
  8
94
 10
216.0016
 20
257.6576
 30
0.0000
 11
217.5608
 21
257.6576
 31
0.0000
  0
LINE
  8
94
 10
216.0016
 20
258.8270
 30
0.0000
 11
216.7812
 21
258.8270
 31
0.0000
  0
LINE
  8
94
 10
168.2496
 20
259.9964
 30
0.0000
 11
168.2496
 21
257.6576
 31
0.0000
  0
LINE
  8
94
 10
168.2496
 20
257.6576
 30
0.0000
 11
169.4190
 21
257.6576
 31
0.0000
  0
LINE
  8
94
 10
169.4190
 20
257.6576
 30
0.0000
 11
169.8088
 21
258.0474
 31
0.0000
  0
LINE
  8
94
 10
169.8088
 20
258.0474
 30
0.0000
 11
169.8088
 21
259.6066
 31
0.0000
  0
LINE
  8
94
 10
169.8088
 20
259.6066
 30
0.0000
 11
169.4190
 21
259.9964
 31
0.0000
  0
LINE
  8
94
 10
169.4190
 20
259.9964
 30
0.0000
 11
168.2496
 21
259.9964
 31
0.0000
  0
LINE
  8
94
 10
122.5648
 20
259.6066
 30
0.0000
 11
122.1750
 21
259.9964
 31
0.0000
  0
LINE
  8
94
 10
122.1750
 20
259.9964
 30
0.0000
 11
121.3954
 21
259.9964
 31
0.0000
  0
LINE
  8
94
 10
121.3954
 20
259.9964
 30
0.0000
 11
121.0056
 21
259.6066
 31
0.0000
  0
LINE
  8
94
 10
121.0056
 20
259.6066
 30
0.0000
 11
121.0056
 21
258.0474
 31
0.0000
  0
LINE
  8
94
 10
121.0056
 20
258.0474
 30
0.0000
 11
121.3954
 21
257.6576
 31
0.0000
  0
LINE
  8
94
 10
121.3954
 20
257.6576
 30
0.0000
 11
122.1750
 21
257.6576
 31
0.0000
  0
LINE
  8
94
 10
122.1750
 20
257.6576
 30
0.0000
 11
122.5648
 21
258.0474
 31
0.0000
  0
LINE
  8
94
 10
72.9996
 20
257.6576
 30
0.0000
 11
72.9996
 21
259.9964
 31
0.0000
  0
LINE
  8
94
 10
72.9996
 20
259.9964
 30
0.0000
 11
74.1690
 21
259.9964
 31
0.0000
  0
LINE
  8
94
 10
74.1690
 20
259.9964
 30
0.0000
 11
74.5588
 21
259.6066
 31
0.0000
  0
LINE
  8
94
 10
74.5588
 20
259.6066
 30
0.0000
 11
74.5588
 21
259.2168
 31
0.0000
  0
LINE
  8
94
 10
74.5588
 20
259.2168
 30
0.0000
 11
74.1690
 21
258.8270
 31
0.0000
  0
LINE
  8
94
 10
74.1690
 20
258.8270
 30
0.0000
 11
74.5588
 21
258.4372
 31
0.0000
  0
LINE
  8
94
 10
74.5588
 20
258.4372
 30
0.0000
 11
74.5588
 21
258.0474
 31
0.0000
  0
LINE
  8
94
 10
74.5588
 20
258.0474
 30
0.0000
 11
74.1690
 21
257.6576
 31
0.0000
  0
LINE
  8
94
 10
74.1690
 20
257.6576
 30
0.0000
 11
72.9996
 21
257.6576
 31
0.0000
  0
LINE
  8
94
 10
72.9996
 20
258.8270
 30
0.0000
 11
74.1690
 21
258.8270
 31
0.0000
  0
LINE
  8
94
 10
24.4856
 20
257.6576
 30
0.0000
 11
24.4856
 21
259.2168
 31
0.0000
  0
LINE
  8
94
 10
24.4856
 20
259.2168
 30
0.0000
 11
25.2652
 21
259.9964
 31
0.0000
  0
LINE
  8
94
 10
25.2652
 20
259.9964
 30
0.0000
 11
26.0448
 21
259.2168
 31
0.0000
  0
LINE
  8
94
 10
26.0448
 20
259.2168
 30
0.0000
 11
26.0448
 21
257.6576
 31
0.0000
  0
LINE
  8
94
 10
24.4856
 20
258.8270
 30
0.0000
 11
26.0448
 21
258.8270
 31
0.0000
  0
LINE
  8
94
 10
2.4228
 20
233.5804
 30
0.0000
 11
0.8636
 21
233.5804
 31
0.0000
  0
LINE
  8
94
 10
0.8636
 20
233.5804
 30
0.0000
 11
0.8636
 21
232.4110
 31
0.0000
  0
LINE
  8
94
 10
0.8636
 20
232.4110
 30
0.0000
 11
1.6432
 21
232.8008
 31
0.0000
  0
LINE
  8
94
 10
1.6432
 20
232.8008
 30
0.0000
 11
2.0330
 21
232.8008
 31
0.0000
  0
LINE
  8
94
 10
2.0330
 20
232.8008
 30
0.0000
 11
2.4228
 21
232.4110
 31
0.0000
  0
LINE
  8
94
 10
2.4228
 20
232.4110
 30
0.0000
 11
2.4228
 21
231.6314
 31
0.0000
  0
LINE
  8
94
 10
2.4228
 20
231.6314
 30
0.0000
 11
2.0330
 21
231.2416
 31
0.0000
  0
LINE
  8
94
 10
2.0330
 20
231.2416
 30
0.0000
 11
1.2534
 21
231.2416
 31
0.0000
  0
LINE
  8
94
 10
1.2534
 20
231.2416
 30
0.0000
 11
0.8636
 21
231.6314
 31
0.0000
  0
LINE
  8
94
 10
2.0330
 20
181.7116
 30
0.0000
 11
2.0330
 21
184.0504
 31
0.0000
  0
LINE
  8
94
 10
2.0330
 20
184.0504
 30
0.0000
 11
0.8636
 21
182.8810
 31
0.0000
  0
LINE
  8
94
 10
0.8636
 20
182.8810
 30
0.0000
 11
2.4228
 21
182.8810
 31
0.0000
  0
LINE
  8
94
 10
0.8636
 20
132.3526
 30
0.0000
 11
1.2534
 21
132.7424
 31
0.0000
  0
LINE
  8
94
 10
1.2534
 20
132.7424
 30
0.0000
 11
2.0330
 21
132.7424
 31
0.0000
  0
LINE
  8
94
 10
2.0330
 20
132.7424
 30
0.0000
 11
2.4228
 21
132.3526
 31
0.0000
  0
LINE
  8
94
 10
2.4228
 20
132.3526
 30
0.0000
 11
2.4228
 21
131.9628
 31
0.0000
  0
LINE
  8
94
 10
2.4228
 20
131.9628
 30
0.0000
 11
2.0330
 21
131.5730
 31
0.0000
  0
LINE
  8
94
 10
2.0330
 20
131.5730
 30
0.0000
 11
1.6432
 21
131.5730
 31
0.0000
  0
LINE
  8
94
 10
2.0330
 20
131.5730
 30
0.0000
 11
2.4228
 21
131.1832
 31
0.0000
  0
LINE
  8
94
 10
2.4228
 20
131.1832
 30
0.0000
 11
2.4228
 21
130.7934
 31
0.0000
  0
LINE
  8
94
 10
2.4228
 20
130.7934
 30
0.0000
 11
2.0330
 21
130.4036
 31
0.0000
  0
LINE
  8
94
 10
2.0330
 20
130.4036
 30
0.0000
 11
1.2534
 21
130.4036
 31
0.0000
  0
LINE
  8
94
 10
1.2534
 20
130.4036
 30
0.0000
 11
0.8636
 21
130.7934
 31
0.0000
  0
LINE
  8
94
 10
2.4228
 20
79.3496
 30
0.0000
 11
0.8636
 21
79.3496
 31
0.0000
  0
LINE
  8
94
 10
0.8636
 20
79.3496
 30
0.0000
 11
2.4228
 21
80.9088
 31
0.0000
  0
LINE
  8
94
 10
2.4228
 20
80.9088
 30
0.0000
 11
2.4228
 21
81.2986
 31
0.0000
  0
LINE
  8
94
 10
2.4228
 20
81.2986
 30
0.0000
 11
2.0330
 21
81.6884
 31
0.0000
  0
LINE
  8
94
 10
2.0330
 20
81.6884
 30
0.0000
 11
1.2534
 21
81.6884
 31
0.0000
  0
LINE
  8
94
 10
1.2534
 20
81.6884
 30
0.0000
 11
0.8636
 21
81.2986
 31
0.0000
  0
LINE
  8
94
 10
1.1176
 20
28.3308
 30
0.0000
 11
1.8972
 21
29.1104
 31
0.0000
  0
LINE
  8
94
 10
1.8972
 20
29.1104
 30
0.0000
 11
1.8972
 21
26.7716
 31
0.0000
  0
LINE
  8
94
 10
1.1176
 20
26.7716
 30
0.0000
 11
2.6768
 21
26.7716
 31
0.0000
  0
LINE
  8
94
 10
319.2526
 20
21.0918
 30
0.0000
 11
320.0322
 21
21.8714
 31
0.0000
  0
LINE
  8
94
 10
320.0322
 20
21.8714
 30
0.0000
 11
320.0322
 21
19.5326
 31
0.0000
  0
LINE
  8
94
 10
319.2526
 20
19.5326
 30
0.0000
 11
320.8118
 21
19.5326
 31
0.0000
  0
LINE
  8
94
 10
322.7608
 20
19.5326
 30
0.0000
 11
322.7608
 21
21.8714
 31
0.0000
  0
LINE
  8
94
 10
322.7608
 20
21.8714
 30
0.0000
 11
321.5914
 21
20.7020
 31
0.0000
  0
LINE
  8
94
 10
321.5914
 20
20.7020
 30
0.0000
 11
323.1506
 21
20.7020
 31
0.0000
  0
LINE
  8
94
 10
323.9302
 20
19.9224
 30
0.0000
 11
323.9302
 21
21.4816
 31
0.0000
  0
LINE
  8
94
 10
323.9302
 20
21.4816
 30
0.0000
 11
324.3200
 21
21.8714
 31
0.0000
  0
LINE
  8
94
 10
324.3200
 20
21.8714
 30
0.0000
 11
325.0996
 21
21.8714
 31
0.0000
  0
LINE
  8
94
 10
325.0996
 20
21.8714
 30
0.0000
 11
325.4894
 21
21.4816
 31
0.0000
  0
LINE
  8
94
 10
325.4894
 20
21.4816
 30
0.0000
 11
325.4894
 21
19.9224
 31
0.0000
  0
LINE
  8
94
 10
325.4894
 20
19.9224
 30
0.0000
 11
325.0996
 21
19.5326
 31
0.0000
  0
LINE
  8
94
 10
325.0996
 20
19.5326
 30
0.0000
 11
324.3200
 21
19.5326
 31
0.0000
  0
LINE
  8
94
 10
324.3200
 20
19.5326
 30
0.0000
 11
323.9302
 21
19.9224
 31
0.0000
  0
LINE
  8
94
 10
323.9302
 20
19.9224
 30
0.0000
 11
325.4894
 21
21.4816
 31
0.0000
  0
LINE
  8
94
 10
326.2690
 20
19.9224
 30
0.0000
 11
326.2690
 21
21.4816
 31
0.0000
  0
LINE
  8
94
 10
326.2690
 20
21.4816
 30
0.0000
 11
326.6588
 21
21.8714
 31
0.0000
  0
LINE
  8
94
 10
326.6588
 20
21.8714
 30
0.0000
 11
327.4384
 21
21.8714
 31
0.0000
  0
LINE
  8
94
 10
327.4384
 20
21.8714
 30
0.0000
 11
327.8282
 21
21.4816
 31
0.0000
  0
LINE
  8
94
 10
327.8282
 20
21.4816
 30
0.0000
 11
327.8282
 21
19.9224
 31
0.0000
  0
LINE
  8
94
 10
327.8282
 20
19.9224
 30
0.0000
 11
327.4384
 21
19.5326
 31
0.0000
  0
LINE
  8
94
 10
327.4384
 20
19.5326
 30
0.0000
 11
326.6588
 21
19.5326
 31
0.0000
  0
LINE
  8
94
 10
326.6588
 20
19.5326
 30
0.0000
 11
326.2690
 21
19.9224
 31
0.0000
  0
LINE
  8
94
 10
326.2690
 20
19.9224
 30
0.0000
 11
327.8282
 21
21.4816
 31
0.0000
  0
LINE
  8
94
 10
328.6078
 20
19.9224
 30
0.0000
 11
328.6078
 21
21.4816
 31
0.0000
  0
LINE
  8
94
 10
328.6078
 20
21.4816
 30
0.0000
 11
328.9976
 21
21.8714
 31
0.0000
  0
LINE
  8
94
 10
328.9976
 20
21.8714
 30
0.0000
 11
329.7772
 21
21.8714
 31
0.0000
  0
LINE
  8
94
 10
329.7772
 20
21.8714
 30
0.0000
 11
330.1670
 21
21.4816
 31
0.0000
  0
LINE
  8
94
 10
330.1670
 20
21.4816
 30
0.0000
 11
330.1670
 21
19.9224
 31
0.0000
  0
LINE
  8
94
 10
330.1670
 20
19.9224
 30
0.0000
 11
329.7772
 21
19.5326
 31
0.0000
  0
LINE
  8
94
 10
329.7772
 20
19.5326
 30
0.0000
 11
328.9976
 21
19.5326
 31
0.0000
  0
LINE
  8
94
 10
328.9976
 20
19.5326
 30
0.0000
 11
328.6078
 21
19.9224
 31
0.0000
  0
LINE
  8
94
 10
328.6078
 20
19.9224
 30
0.0000
 11
330.1670
 21
21.4816
 31
0.0000
  0
LINE
  8
94
 10
332.5058
 20
21.8714
 30
0.0000
 11
331.7262
 21
21.4816
 31
0.0000
  0
LINE
  8
94
 10
331.7262
 20
21.4816
 30
0.0000
 11
330.9466
 21
20.7020
 31
0.0000
  0
LINE
  8
94
 10
330.9466
 20
20.7020
 30
0.0000
 11
330.9466
 21
19.9224
 31
0.0000
  0
LINE
  8
94
 10
330.9466
 20
19.9224
 30
0.0000
 11
331.3364
 21
19.5326
 31
0.0000
  0
LINE
  8
94
 10
331.3364
 20
19.5326
 30
0.0000
 11
332.1160
 21
19.5326
 31
0.0000
  0
LINE
  8
94
 10
332.1160
 20
19.5326
 30
0.0000
 11
332.5058
 21
19.9224
 31
0.0000
  0
LINE
  8
94
 10
332.5058
 20
19.9224
 30
0.0000
 11
332.5058
 21
20.3122
 31
0.0000
  0
LINE
  8
94
 10
332.5058
 20
20.3122
 30
0.0000
 11
332.1160
 21
20.7020
 31
0.0000
  0
LINE
  8
94
 10
332.1160
 20
20.7020
 30
0.0000
 11
330.9466
 21
20.7020
 31
0.0000
  0
LINE
  8
94
 10
333.2854
 20
19.5326
 30
0.0000
 11
333.2854
 21
21.8714
 31
0.0000
  0
LINE
  8
94
 10
333.2854
 20
21.8714
 30
0.0000
 11
334.4548
 21
21.8714
 31
0.0000
  0
LINE
  8
94
 10
334.4548
 20
21.8714
 30
0.0000
 11
334.8446
 21
21.4816
 31
0.0000
  0
LINE
  8
94
 10
334.8446
 20
21.4816
 30
0.0000
 11
334.8446
 21
20.7020
 31
0.0000
  0
LINE
  8
94
 10
334.8446
 20
20.7020
 30
0.0000
 11
334.4548
 21
20.3122
 31
0.0000
  0
LINE
  8
94
 10
334.4548
 20
20.3122
 30
0.0000
 11
333.2854
 21
20.3122
 31
0.0000
  0
LINE
  8
94
 10
334.0650
 20
20.3122
 30
0.0000
 11
334.8446
 21
19.5326
 31
0.0000
  0
LINE
  8
94
 10
335.6242
 20
19.1428
 30
0.0000
 11
337.1834
 21
19.1428
 31
0.0000
  0
LINE
  8
94
 10
337.9630
 20
21.4816
 30
0.0000
 11
338.3528
 21
21.8714
 31
0.0000
  0
LINE
  8
94
 10
338.3528
 20
21.8714
 30
0.0000
 11
339.1324
 21
21.8714
 31
0.0000
  0
LINE
  8
94
 10
339.1324
 20
21.8714
 30
0.0000
 11
339.5222
 21
21.4816
 31
0.0000
  0
LINE
  8
94
 10
339.5222
 20
21.4816
 30
0.0000
 11
339.5222
 21
21.0918
 31
0.0000
  0
LINE
  8
94
 10
339.5222
 20
21.0918
 30
0.0000
 11
339.1324
 21
20.7020
 31
0.0000
  0
LINE
  8
94
 10
339.1324
 20
20.7020
 30
0.0000
 11
338.7426
 21
20.7020
 31
0.0000
  0
LINE
  8
94
 10
339.1324
 20
20.7020
 30
0.0000
 11
339.5222
 21
20.3122
 31
0.0000
  0
LINE
  8
94
 10
339.5222
 20
20.3122
 30
0.0000
 11
339.5222
 21
19.9224
 31
0.0000
  0
LINE
  8
94
 10
339.5222
 20
19.9224
 30
0.0000
 11
339.1324
 21
19.5326
 31
0.0000
  0
LINE
  8
94
 10
339.1324
 20
19.5326
 30
0.0000
 11
338.3528
 21
19.5326
 31
0.0000
  0
LINE
  8
94
 10
338.3528
 20
19.5326
 30
0.0000
 11
337.9630
 21
19.9224
 31
0.0000
  0
LINE
  8
94
 10
340.3018
 20
19.5326
 30
0.0000
 11
340.3018
 21
21.8714
 31
0.0000
  0
LINE
  8
94
 10
340.3018
 20
20.7020
 30
0.0000
 11
341.8610
 21
20.7020
 31
0.0000
  0
LINE
  8
94
 10
341.8610
 20
21.8714
 30
0.0000
 11
341.8610
 21
19.5326
 31
0.0000
  0
LINE
  8
94
 10
342.6406
 20
19.5326
 30
0.0000
 11
342.6406
 21
21.8714
 31
0.0000
  0
LINE
  8
94
 10
342.6406
 20
21.8714
 30
0.0000
 11
343.8100
 21
21.8714
 31
0.0000
  0
LINE
  8
94
 10
343.8100
 20
21.8714
 30
0.0000
 11
344.1998
 21
21.4816
 31
0.0000
  0
LINE
  8
94
 10
344.1998
 20
21.4816
 30
0.0000
 11
344.1998
 21
20.7020
 31
0.0000
  0
LINE
  8
94
 10
344.1998
 20
20.7020
 30
0.0000
 11
343.8100
 21
20.3122
 31
0.0000
  0
LINE
  8
94
 10
343.8100
 20
20.3122
 30
0.0000
 11
342.6406
 21
20.3122
 31
0.0000
  0
LINE
  8
94
 10
344.9794
 20
19.1428
 30
0.0000
 11
346.5386
 21
19.1428
 31
0.0000
  0
LINE
  8
94
 10
347.3182
 20
21.8714
 30
0.0000
 11
347.3182
 21
19.9224
 31
0.0000
  0
LINE
  8
94
 10
347.3182
 20
19.9224
 30
0.0000
 11
347.7080
 21
19.5326
 31
0.0000
  0
LINE
  8
94
 10
347.7080
 20
19.5326
 30
0.0000
 11
348.4876
 21
19.5326
 31
0.0000
  0
LINE
  8
94
 10
348.4876
 20
19.5326
 30
0.0000
 11
348.8774
 21
19.9224
 31
0.0000
  0
LINE
  8
94
 10
348.8774
 20
19.9224
 30
0.0000
 11
348.8774
 21
21.8714
 31
0.0000
  0
LINE
  8
94
 10
349.6570
 20
18.7530
 30
0.0000
 11
349.6570
 21
21.0918
 31
0.0000
  0
LINE
  8
94
 10
349.6570
 20
21.0918
 30
0.0000
 11
350.8264
 21
21.0918
 31
0.0000
  0
LINE
  8
94
 10
350.8264
 20
21.0918
 30
0.0000
 11
351.2162
 21
20.7020
 31
0.0000
  0
LINE
  8
94
 10
351.2162
 20
20.7020
 30
0.0000
 11
351.2162
 21
19.9224
 31
0.0000
  0
LINE
  8
94
 10
351.2162
 20
19.9224
 30
0.0000
 11
350.8264
 21
19.5326
 31
0.0000
  0
LINE
  8
94
 10
350.8264
 20
19.5326
 30
0.0000
 11
349.6570
 21
19.5326
 31
0.0000
  0
LINE
  8
94
 10
352.7754
 20
18.7530
 30
0.0000
 11
353.1652
 21
18.7530
 31
0.0000
  0
LINE
  8
94
 10
353.1652
 20
18.7530
 30
0.0000
 11
353.5550
 21
19.1428
 31
0.0000
  0
LINE
  8
94
 10
353.5550
 20
19.1428
 30
0.0000
 11
353.5550
 21
21.0918
 31
0.0000
  0
LINE
  8
94
 10
353.5550
 20
21.0918
 30
0.0000
 11
352.3856
 21
21.0918
 31
0.0000
  0
LINE
  8
94
 10
352.3856
 20
21.0918
 30
0.0000
 11
351.9958
 21
20.7020
 31
0.0000
  0
LINE
  8
94
 10
351.9958
 20
20.7020
 30
0.0000
 11
351.9958
 21
19.9224
 31
0.0000
  0
LINE
  8
94
 10
351.9958
 20
19.9224
 30
0.0000
 11
352.3856
 21
19.5326
 31
0.0000
  0
LINE
  8
94
 10
352.3856
 20
19.5326
 30
0.0000
 11
353.5550
 21
19.5326
 31
0.0000
  0
LINE
  8
94
 10
354.3346
 20
19.5326
 30
0.0000
 11
354.3346
 21
21.0918
 31
0.0000
  0
LINE
  8
94
 10
354.3346
 20
20.3122
 30
0.0000
 11
355.1141
 21
21.0918
 31
0.0000
  0
LINE
  8
94
 10
355.1141
 20
21.0918
 30
0.0000
 11
355.5040
 21
21.0918
 31
0.0000
  0
LINE
  8
94
 10
356.6733
 20
21.0918
 30
0.0000
 11
357.4529
 21
21.0918
 31
0.0000
  0
LINE
  8
94
 10
357.4529
 20
21.0918
 30
0.0000
 11
357.8427
 21
20.7020
 31
0.0000
  0
LINE
  8
94
 10
357.8427
 20
20.7020
 30
0.0000
 11
357.8427
 21
19.5326
 31
0.0000
  0
LINE
  8
94
 10
357.8427
 20
19.5326
 30
0.0000
 11
356.6733
 21
19.5326
 31
0.0000
  0
LINE
  8
94
 10
356.6733
 20
19.5326
 30
0.0000
 11
356.2835
 21
19.9224
 31
0.0000
  0
LINE
  8
94
 10
356.2835
 20
19.9224
 30
0.0000
 11
356.6733
 21
20.3122
 31
0.0000
  0
LINE
  8
94
 10
356.6733
 20
20.3122
 30
0.0000
 11
357.8427
 21
20.3122
 31
0.0000
  0
LINE
  8
94
 10
360.1815
 20
21.8714
 30
0.0000
 11
360.1815
 21
19.5326
 31
0.0000
  0
LINE
  8
94
 10
360.1815
 20
19.5326
 30
0.0000
 11
359.0121
 21
19.5326
 31
0.0000
  0
LINE
  8
94
 10
359.0121
 20
19.5326
 30
0.0000
 11
358.6223
 21
19.9224
 31
0.0000
  0
LINE
  8
94
 10
358.6223
 20
19.9224
 30
0.0000
 11
358.6223
 21
20.7020
 31
0.0000
  0
LINE
  8
94
 10
358.6223
 20
20.7020
 30
0.0000
 11
359.0121
 21
21.0918
 31
0.0000
  0
LINE
  8
94
 10
359.0121
 20
21.0918
 30
0.0000
 11
360.1815
 21
21.0918
 31
0.0000
  0
LINE
  8
94
 10
362.1305
 20
19.5326
 30
0.0000
 11
361.3509
 21
19.5326
 31
0.0000
  0
LINE
  8
94
 10
361.3509
 20
19.5326
 30
0.0000
 11
360.9611
 21
19.9224
 31
0.0000
  0
LINE
  8
94
 10
360.9611
 20
19.9224
 30
0.0000
 11
360.9611
 21
20.7020
 31
0.0000
  0
LINE
  8
94
 10
360.9611
 20
20.7020
 30
0.0000
 11
361.3509
 21
21.0918
 31
0.0000
  0
LINE
  8
94
 10
361.3509
 20
21.0918
 30
0.0000
 11
362.1305
 21
21.0918
 31
0.0000
  0
LINE
  8
94
 10
362.1305
 20
21.0918
 30
0.0000
 11
362.5203
 21
20.7020
 31
0.0000
  0
LINE
  8
94
 10
362.5203
 20
20.7020
 30
0.0000
 11
362.5203
 21
20.3122
 31
0.0000
  0
LINE
  8
94
 10
362.5203
 20
20.3122
 30
0.0000
 11
360.9611
 21
20.3122
 31
0.0000
  0
LINE
  8
94
 10
311.2486
 20
9.6139
 30
0.0000
 11
309.8419
 21
9.6139
 31
0.0000
  0
LINE
  8
94
 10
309.8419
 20
9.6139
 30
0.0000
 11
311.2486
 21
11.0206
 31
0.0000
  0
LINE
  8
94
 10
311.2486
 20
11.0206
 30
0.0000
 11
311.2486
 21
11.3722
 31
0.0000
  0
LINE
  8
94
 10
311.2486
 20
11.3722
 30
0.0000
 11
310.8969
 21
11.7239
 31
0.0000
  0
LINE
  8
94
 10
310.8969
 20
11.7239
 30
0.0000
 11
310.1936
 21
11.7239
 31
0.0000
  0
LINE
  8
94
 10
310.1936
 20
11.7239
 30
0.0000
 11
309.8419
 21
11.3722
 31
0.0000
  0
LINE
  8
94
 10
311.9468
 20
9.6139
 30
0.0000
 11
313.3535
 21
11.7239
 31
0.0000
  0
LINE
  8
94
 10
315.4584
 20
9.6139
 30
0.0000
 11
314.0517
 21
9.6139
 31
0.0000
  0
LINE
  8
94
 10
314.0517
 20
9.6139
 30
0.0000
 11
315.4584
 21
11.0206
 31
0.0000
  0
LINE
  8
94
 10
315.4584
 20
11.0206
 30
0.0000
 11
315.4584
 21
11.3722
 31
0.0000
  0
LINE
  8
94
 10
315.4584
 20
11.3722
 30
0.0000
 11
315.1067
 21
11.7239
 31
0.0000
  0
LINE
  8
94
 10
315.1067
 20
11.7239
 30
0.0000
 11
314.4034
 21
11.7239
 31
0.0000
  0
LINE
  8
94
 10
314.4034
 20
11.7239
 30
0.0000
 11
314.0517
 21
11.3722
 31
0.0000
  0
LINE
  8
94
 10
316.1567
 20
9.9656
 30
0.0000
 11
316.1567
 21
11.3722
 31
0.0000
  0
LINE
  8
94
 10
316.1567
 20
11.3722
 30
0.0000
 11
316.5083
 21
11.7239
 31
0.0000
  0
LINE
  8
94
 10
316.5083
 20
11.7239
 30
0.0000
 11
317.2117
 21
11.7239
 31
0.0000
  0
LINE
  8
94
 10
317.2117
 20
11.7239
 30
0.0000
 11
317.5633
 21
11.3722
 31
0.0000
  0
LINE
  8
94
 10
317.5633
 20
11.3722
 30
0.0000
 11
317.5633
 21
9.9656
 31
0.0000
  0
LINE
  8
94
 10
317.5633
 20
9.9656
 30
0.0000
 11
317.2117
 21
9.6139
 31
0.0000
  0
LINE
  8
94
 10
317.2117
 20
9.6139
 30
0.0000
 11
316.5083
 21
9.6139
 31
0.0000
  0
LINE
  8
94
 10
316.5083
 20
9.6139
 30
0.0000
 11
316.1567
 21
9.9656
 31
0.0000
  0
LINE
  8
94
 10
316.1567
 20
9.9656
 30
0.0000
 11
317.5633
 21
11.3722
 31
0.0000
  0
LINE
  8
94
 10
318.2616
 20
9.6139
 30
0.0000
 11
319.6682
 21
11.7239
 31
0.0000
  0
LINE
  8
94
 10
321.7732
 20
9.6139
 30
0.0000
 11
320.3665
 21
9.6139
 31
0.0000
  0
LINE
  8
94
 10
320.3665
 20
9.6139
 30
0.0000
 11
321.7732
 21
11.0206
 31
0.0000
  0
LINE
  8
94
 10
321.7732
 20
11.0206
 30
0.0000
 11
321.7732
 21
11.3722
 31
0.0000
  0
LINE
  8
94
 10
321.7732
 20
11.3722
 30
0.0000
 11
321.4215
 21
11.7239
 31
0.0000
  0
LINE
  8
94
 10
321.4215
 20
11.7239
 30
0.0000
 11
320.7182
 21
11.7239
 31
0.0000
  0
LINE
  8
94
 10
320.7182
 20
11.7239
 30
0.0000
 11
320.3665
 21
11.3722
 31
0.0000
  0
LINE
  8
94
 10
322.4714
 20
9.9656
 30
0.0000
 11
322.4714
 21
11.3722
 31
0.0000
  0
LINE
  8
94
 10
322.4714
 20
11.3722
 30
0.0000
 11
322.8231
 21
11.7239
 31
0.0000
  0
LINE
  8
94
 10
322.8231
 20
11.7239
 30
0.0000
 11
323.5264
 21
11.7239
 31
0.0000
  0
LINE
  8
94
 10
323.5264
 20
11.7239
 30
0.0000
 11
323.8781
 21
11.3722
 31
0.0000
  0
LINE
  8
94
 10
323.8781
 20
11.3722
 30
0.0000
 11
323.8781
 21
9.9656
 31
0.0000
  0
LINE
  8
94
 10
323.8781
 20
9.9656
 30
0.0000
 11
323.5264
 21
9.6139
 31
0.0000
  0
LINE
  8
94
 10
323.5264
 20
9.6139
 30
0.0000
 11
322.8231
 21
9.6139
 31
0.0000
  0
LINE
  8
94
 10
322.8231
 20
9.6139
 30
0.0000
 11
322.4714
 21
9.9656
 31
0.0000
  0
LINE
  8
94
 10
322.4714
 20
9.9656
 30
0.0000
 11
323.8781
 21
11.3722
 31
0.0000
  0
LINE
  8
94
 10
324.5763
 20
11.0206
 30
0.0000
 11
325.2797
 21
11.7239
 31
0.0000
  0
LINE
  8
94
 10
325.2797
 20
11.7239
 30
0.0000
 11
325.2797
 21
9.6139
 31
0.0000
  0
LINE
  8
94
 10
324.5763
 20
9.6139
 30
0.0000
 11
325.9830
 21
9.6139
 31
0.0000
  0
LINE
  8
94
 10
327.7363
 20
9.6139
 30
0.0000
 11
327.7363
 21
11.7239
 31
0.0000
  0
LINE
  8
94
 10
327.7363
 20
11.7239
 30
0.0000
 11
326.6813
 21
10.6689
 31
0.0000
  0
LINE
  8
94
 10
326.6813
 20
10.6689
 30
0.0000
 11
328.0879
 21
10.6689
 31
0.0000
  0
LINE
  8
94
 10
331.9461
 20
9.6139
 30
0.0000
 11
331.9461
 21
11.7239
 31
0.0000
  0
LINE
  8
94
 10
331.9461
 20
11.7239
 30
0.0000
 11
330.8911
 21
10.6689
 31
0.0000
  0
LINE
  8
94
 10
330.8911
 20
10.6689
 30
0.0000
 11
332.2978
 21
10.6689
 31
0.0000
  0
LINE
  8
94
 10
332.9960
 20
11.0206
 30
0.0000
 11
333.3477
 21
11.0206
 31
0.0000
  0
LINE
  8
94
 10
333.3477
 20
11.0206
 30
0.0000
 11
333.3477
 21
10.6689
 31
0.0000
  0
LINE
  8
94
 10
333.3477
 20
10.6689
 30
0.0000
 11
332.9960
 21
10.6689
 31
0.0000
  0
LINE
  8
94
 10
332.9960
 20
10.6689
 30
0.0000
 11
332.9960
 21
11.0206
 31
0.0000
  0
LINE
  8
94
 10
332.9960
 20
9.9656
 30
0.0000
 11
333.3477
 21
9.9656
 31
0.0000
  0
LINE
  8
94
 10
333.3477
 20
9.9656
 30
0.0000
 11
333.3477
 21
9.6139
 31
0.0000
  0
LINE
  8
94
 10
333.3477
 20
9.6139
 30
0.0000
 11
332.9960
 21
9.6139
 31
0.0000
  0
LINE
  8
94
 10
332.9960
 20
9.6139
 30
0.0000
 11
332.9960
 21
9.9656
 31
0.0000
  0
LINE
  8
94
 10
335.1035
 20
9.6139
 30
0.0000
 11
335.1035
 21
11.7239
 31
0.0000
  0
LINE
  8
94
 10
335.1035
 20
11.7239
 30
0.0000
 11
334.0485
 21
10.6689
 31
0.0000
  0
LINE
  8
94
 10
334.0485
 20
10.6689
 30
0.0000
 11
335.4551
 21
10.6689
 31
0.0000
  0
LINE
  8
94
 10
337.5601
 20
11.7239
 30
0.0000
 11
336.8567
 21
11.3722
 31
0.0000
  0
LINE
  8
94
 10
336.8567
 20
11.3722
 30
0.0000
 11
336.1534
 21
10.6689
 31
0.0000
  0
LINE
  8
94
 10
336.1534
 20
10.6689
 30
0.0000
 11
336.1534
 21
9.9656
 31
0.0000
  0
LINE
  8
94
 10
336.1534
 20
9.9656
 30
0.0000
 11
336.5051
 21
9.6139
 31
0.0000
  0
LINE
  8
94
 10
336.5051
 20
9.6139
 30
0.0000
 11
337.2084
 21
9.6139
 31
0.0000
  0
LINE
  8
94
 10
337.2084
 20
9.6139
 30
0.0000
 11
337.5601
 21
9.9656
 31
0.0000
  0
LINE
  8
94
 10
337.5601
 20
9.9656
 30
0.0000
 11
337.5601
 21
10.3172
 31
0.0000
  0
LINE
  8
94
 10
337.5601
 20
10.3172
 30
0.0000
 11
337.2084
 21
10.6689
 31
0.0000
  0
LINE
  8
94
 10
337.2084
 20
10.6689
 30
0.0000
 11
336.1534
 21
10.6689
 31
0.0000
  0
LINE
  8
94
 10
338.2583
 20
11.0206
 30
0.0000
 11
338.6100
 21
11.0206
 31
0.0000
  0
LINE
  8
94
 10
338.6100
 20
11.0206
 30
0.0000
 11
338.6100
 21
10.6689
 31
0.0000
  0
LINE
  8
94
 10
338.6100
 20
10.6689
 30
0.0000
 11
338.2583
 21
10.6689
 31
0.0000
  0
LINE
  8
94
 10
338.2583
 20
10.6689
 30
0.0000
 11
338.2583
 21
11.0206
 31
0.0000
  0
LINE
  8
94
 10
338.2583
 20
9.9656
 30
0.0000
 11
338.6100
 21
9.9656
 31
0.0000
  0
LINE
  8
94
 10
338.6100
 20
9.9656
 30
0.0000
 11
338.6100
 21
9.6139
 31
0.0000
  0
LINE
  8
94
 10
338.6100
 20
9.6139
 30
0.0000
 11
338.2583
 21
9.6139
 31
0.0000
  0
LINE
  8
94
 10
338.2583
 20
9.6139
 30
0.0000
 11
338.2583
 21
9.9656
 31
0.0000
  0
LINE
  8
94
 10
340.3658
 20
9.6139
 30
0.0000
 11
340.3658
 21
11.7239
 31
0.0000
  0
LINE
  8
94
 10
340.3658
 20
11.7239
 30
0.0000
 11
339.3108
 21
10.6689
 31
0.0000
  0
LINE
  8
94
 10
339.3108
 20
10.6689
 30
0.0000
 11
340.7174
 21
10.6689
 31
0.0000
  0
LINE
  8
94
 10
342.4707
 20
9.6139
 30
0.0000
 11
342.4707
 21
11.7239
 31
0.0000
  0
LINE
  8
94
 10
342.4707
 20
11.7239
 30
0.0000
 11
341.4157
 21
10.6689
 31
0.0000
  0
LINE
  8
94
 10
341.4157
 20
10.6689
 30
0.0000
 11
342.8224
 21
10.6689
 31
0.0000
  0
LINE
  8
94
 10
345.6255
 20
9.6139
 30
0.0000
 11
345.6255
 21
11.7239
 31
0.0000
  0
LINE
  8
94
 10
345.6255
 20
11.7239
 30
0.0000
 11
346.6805
 21
11.7239
 31
0.0000
  0
LINE
  8
94
 10
346.6805
 20
11.7239
 30
0.0000
 11
347.0322
 21
11.3722
 31
0.0000
  0
LINE
  8
94
 10
347.0322
 20
11.3722
 30
0.0000
 11
347.0322
 21
10.6689
 31
0.0000
  0
LINE
  8
94
 10
347.0322
 20
10.6689
 30
0.0000
 11
346.6805
 21
10.3172
 31
0.0000
  0
LINE
  8
94
 10
346.6805
 20
10.3172
 30
0.0000
 11
345.6255
 21
10.3172
 31
0.0000
  0
LINE
  8
94
 10
347.7304
 20
9.6139
 30
0.0000
 11
347.7304
 21
11.7239
 31
0.0000
  0
LINE
  8
94
 10
347.7304
 20
11.7239
 30
0.0000
 11
348.4338
 21
11.0206
 31
0.0000
  0
LINE
  8
94
 10
348.4338
 20
11.0206
 30
0.0000
 11
349.1371
 21
11.7239
 31
0.0000
  0
LINE
  8
94
 10
349.1371
 20
11.7239
 30
0.0000
 11
349.1371
 21
9.6139
 31
0.0000
  0
LINE
  8
94
 10
369.9608
 20
4.5466
 30
0.0000
 11
368.4016
 21
4.5466
 31
0.0000
  0
LINE
  8
94
 10
368.4016
 20
4.5466
 30
0.0000
 11
369.9608
 21
6.1058
 31
0.0000
  0
LINE
  8
94
 10
369.9608
 20
6.1058
 30
0.0000
 11
369.9608
 21
6.4956
 31
0.0000
  0
LINE
  8
94
 10
369.9608
 20
6.4956
 30
0.0000
 11
369.5710
 21
6.8854
 31
0.0000
  0
LINE
  8
94
 10
369.5710
 20
6.8854
 30
0.0000
 11
368.7914
 21
6.8854
 31
0.0000
  0
LINE
  8
94
 10
368.7914
 20
6.8854
 30
0.0000
 11
368.4016
 21
6.4956
 31
0.0000
  0
LINE
  8
94
 10
370.7404
 20
4.5466
 30
0.0000
 11
372.2996
 21
6.8854
 31
0.0000
  0
LINE
  8
94
 10
374.2486
 20
4.5466
 30
0.0000
 11
374.2486
 21
6.8854
 31
0.0000
  0
LINE
  8
94
 10
374.2486
 20
6.8854
 30
0.0000
 11
373.0792
 21
5.7160
 31
0.0000
  0
LINE
  8
94
 10
373.0792
 20
5.7160
 30
0.0000
 11
374.6384
 21
5.7160
 31
0.0000
  0
TEXT
  7
ISOCP
  8
94
 10
309.6260
 20
4.3180
 30
0.0000
 40
2.5400
  1
Drawn By:
  0
TEXT
  7
ISOCP
  8
94
 10
309.8800
 20
19.5580
 30
0.0000
 40
2.5400
  1
Title:
  0
TEXT
  7
ISOCP
  8
94
 10
310.1340
 20
14.4780
 30
0.0000
 40
2.5400
  1
Version:
  0
LINE
  8
94
 10
248.9200
 20
134.6200
 30
0.0000
 11
247.9040
 21
135.0010
 31
0.0000
  0
LINE
  8
94
 10
247.9040
 20
135.0010
 30
0.0000
 11
249.9360
 21
135.6360
 31
0.0000
  0
LINE
  8
94
 10
249.9360
 20
135.6360
 30
0.0000
 11
247.9040
 21
136.2710
 31
0.0000
  0
LINE
  8
94
 10
247.9040
 20
136.2710
 30
0.0000
 11
249.9360
 21
136.9060
 31
0.0000
  0
LINE
  8
94
 10
249.9360
 20
136.9060
 30
0.0000
 11
247.9040
 21
137.5410
 31
0.0000
  0
LINE
  8
94
 10
247.9040
 20
137.5410
 30
0.0000
 11
249.9360
 21
138.1760
 31
0.0000
  0
LINE
  8
94
 10
249.9360
 20
138.1760
 30
0.0000
 11
247.9040
 21
138.8110
 31
0.0000
  0
LINE
  8
94
 10
247.9040
 20
138.8110
 30
0.0000
 11
249.9360
 21
139.4460
 31
0.0000
  0
LINE
  8
94
 10
249.9360
 20
139.4460
 30
0.0000
 11
248.9200
 21
139.7000
 31
0.0000
  0
TEXT
  7
ISOCP
  8
95
 10
247.4214
 20
133.3500
 30
0.0000
 40
1.7780
  1
R1
 50
90.0000
  0
TEXT
  7
ISOCP
  8
96
 10
252.2220
 20
133.3500
 30
0.0000
 40
1.7780
  1
2.2k
 50
90.0000
  0
LINE
  8
94
 10
248.9200
 20
132.0800
 30
0.0000
 11
248.9200
 21
134.6200
 31
0.0000
  0
LINE
  8
94
 10
248.9200
 20
142.2400
 30
0.0000
 11
248.9200
 21
139.7000
 31
0.0000
  0
LINE
  8
94
 10
238.7600
 20
134.6200
 30
0.0000
 11
237.7440
 21
135.0010
 31
0.0000
  0
LINE
  8
94
 10
237.7440
 20
135.0010
 30
0.0000
 11
239.7760
 21
135.6360
 31
0.0000
  0
LINE
  8
94
 10
239.7760
 20
135.6360
 30
0.0000
 11
237.7440
 21
136.2710
 31
0.0000
  0
LINE
  8
94
 10
237.7440
 20
136.2710
 30
0.0000
 11
239.7760
 21
136.9060
 31
0.0000
  0
LINE
  8
94
 10
239.7760
 20
136.9060
 30
0.0000
 11
237.7440
 21
137.5410
 31
0.0000
  0
LINE
  8
94
 10
237.7440
 20
137.5410
 30
0.0000
 11
239.7760
 21
138.1760
 31
0.0000
  0
LINE
  8
94
 10
239.7760
 20
138.1760
 30
0.0000
 11
237.7440
 21
138.8110
 31
0.0000
  0
LINE
  8
94
 10
237.7440
 20
138.8110
 30
0.0000
 11
239.7760
 21
139.4460
 31
0.0000
  0
LINE
  8
94
 10
239.7760
 20
139.4460
 30
0.0000
 11
238.7600
 21
139.7000
 31
0.0000
  0
TEXT
  7
ISOCP
  8
95
 10
237.2614
 20
133.3500
 30
0.0000
 40
1.7780
  1
R2
 50
90.0000
  0
TEXT
  7
ISOCP
  8
96
 10
242.0620
 20
133.3500
 30
0.0000
 40
1.7780
  1
2.2k
 50
90.0000
  0
LINE
  8
94
 10
238.7600
 20
132.0800
 30
0.0000
 11
238.7600
 21
134.6200
 31
0.0000
  0
LINE
  8
94
 10
238.7600
 20
142.2400
 30
0.0000
 11
238.7600
 21
139.7000
 31
0.0000
  0
LINE
  8
94
 10
317.5000
 20
134.6200
 30
0.0000
 11
316.4840
 21
135.0010
 31
0.0000
  0
LINE
  8
94
 10
316.4840
 20
135.0010
 30
0.0000
 11
318.5160
 21
135.6360
 31
0.0000
  0
LINE
  8
94
 10
318.5160
 20
135.6360
 30
0.0000
 11
316.4840
 21
136.2710
 31
0.0000
  0
LINE
  8
94
 10
316.4840
 20
136.2710
 30
0.0000
 11
318.5160
 21
136.9060
 31
0.0000
  0
LINE
  8
94
 10
318.5160
 20
136.9060
 30
0.0000
 11
316.4840
 21
137.5410
 31
0.0000
  0
LINE
  8
94
 10
316.4840
 20
137.5410
 30
0.0000
 11
318.5160
 21
138.1760
 31
0.0000
  0
LINE
  8
94
 10
318.5160
 20
138.1760
 30
0.0000
 11
316.4840
 21
138.8110
 31
0.0000
  0
LINE
  8
94
 10
316.4840
 20
138.8110
 30
0.0000
 11
318.5160
 21
139.4460
 31
0.0000
  0
LINE
  8
94
 10
318.5160
 20
139.4460
 30
0.0000
 11
317.5000
 21
139.7000
 31
0.0000
  0
TEXT
  7
ISOCP
  8
95
 10
316.0014
 20
133.3500
 30
0.0000
 40
1.7780
  1
R3
 50
90.0000
  0
TEXT
  7
ISOCP
  8
96
 10
320.8020
 20
133.3500
 30
0.0000
 40
1.7780
  1
10K
 50
90.0000
  0
LINE
  8
94
 10
317.5000
 20
132.0800
 30
0.0000
 11
317.5000
 21
134.6200
 31
0.0000
  0
LINE
  8
94
 10
317.5000
 20
142.2400
 30
0.0000
 11
317.5000
 21
139.7000
 31
0.0000
  0
LINE
  8
94
 10
297.1800
 20
134.6200
 30
0.0000
 11
296.1640
 21
135.0010
 31
0.0000
  0
LINE
  8
94
 10
296.1640
 20
135.0010
 30
0.0000
 11
298.1960
 21
135.6360
 31
0.0000
  0
LINE
  8
94
 10
298.1960
 20
135.6360
 30
0.0000
 11
296.1640
 21
136.2710
 31
0.0000
  0
LINE
  8
94
 10
296.1640
 20
136.2710
 30
0.0000
 11
298.1960
 21
136.9060
 31
0.0000
  0
LINE
  8
94
 10
298.1960
 20
136.9060
 30
0.0000
 11
296.1640
 21
137.5410
 31
0.0000
  0
LINE
  8
94
 10
296.1640
 20
137.5410
 30
0.0000
 11
298.1960
 21
138.1760
 31
0.0000
  0
LINE
  8
94
 10
298.1960
 20
138.1760
 30
0.0000
 11
296.1640
 21
138.8110
 31
0.0000
  0
LINE
  8
94
 10
296.1640
 20
138.8110
 30
0.0000
 11
298.1960
 21
139.4460
 31
0.0000
  0
LINE
  8
94
 10
298.1960
 20
139.4460
 30
0.0000
 11
297.1800
 21
139.7000
 31
0.0000
  0
TEXT
  7
ISOCP
  8
95
 10
295.6814
 20
133.3500
 30
0.0000
 40
1.7780
  1
R4
 50
90.0000
  0
TEXT
  7
ISOCP
  8
96
 10
300.4820
 20
133.3500
 30
0.0000
 40
1.7780
  1
1K
 50
90.0000
  0
LINE
  8
94
 10
297.1800
 20
132.0800
 30
0.0000
 11
297.1800
 21
134.6200
 31
0.0000
  0
LINE
  8
94
 10
297.1800
 20
142.2400
 30
0.0000
 11
297.1800
 21
139.7000
 31
0.0000
  0
LINE
  8
94
 10
307.3400
 20
134.6200
 30
0.0000
 11
306.3240
 21
135.0010
 31
0.0000
  0
LINE
  8
94
 10
306.3240
 20
135.0010
 30
0.0000
 11
308.3560
 21
135.6360
 31
0.0000
  0
LINE
  8
94
 10
308.3560
 20
135.6360
 30
0.0000
 11
306.3240
 21
136.2710
 31
0.0000
  0
LINE
  8
94
 10
306.3240
 20
136.2710
 30
0.0000
 11
308.3560
 21
136.9060
 31
0.0000
  0
LINE
  8
94
 10
308.3560
 20
136.9060
 30
0.0000
 11
306.3240
 21
137.5410
 31
0.0000
  0
LINE
  8
94
 10
306.3240
 20
137.5410
 30
0.0000
 11
308.3560
 21
138.1760
 31
0.0000
  0
LINE
  8
94
 10
308.3560
 20
138.1760
 30
0.0000
 11
306.3240
 21
138.8110
 31
0.0000
  0
LINE
  8
94
 10
306.3240
 20
138.8110
 30
0.0000
 11
308.3560
 21
139.4460
 31
0.0000
  0
LINE
  8
94
 10
308.3560
 20
139.4460
 30
0.0000
 11
307.3400
 21
139.7000
 31
0.0000
  0
TEXT
  7
ISOCP
  8
95
 10
305.8414
 20
133.3500
 30
0.0000
 40
1.7780
  1
R5
 50
90.0000
  0
TEXT
  7
ISOCP
  8
96
 10
310.6420
 20
133.3500
 30
0.0000
 40
1.7780
  1
1K
 50
90.0000
  0
LINE
  8
94
 10
307.3400
 20
132.0800
 30
0.0000
 11
307.3400
 21
134.6200
 31
0.0000
  0
LINE
  8
94
 10
307.3400
 20
142.2400
 30
0.0000
 11
307.3400
 21
139.7000
 31
0.0000
  0
LINE
  8
94
 10
228.6000
 20
134.6200
 30
0.0000
 11
227.5840
 21
135.0010
 31
0.0000
  0
LINE
  8
94
 10
227.5840
 20
135.0010
 30
0.0000
 11
229.6160
 21
135.6360
 31
0.0000
  0
LINE
  8
94
 10
229.6160
 20
135.6360
 30
0.0000
 11
227.5840
 21
136.2710
 31
0.0000
  0
LINE
  8
94
 10
227.5840
 20
136.2710
 30
0.0000
 11
229.6160
 21
136.9060
 31
0.0000
  0
LINE
  8
94
 10
229.6160
 20
136.9060
 30
0.0000
 11
227.5840
 21
137.5410
 31
0.0000
  0
LINE
  8
94
 10
227.5840
 20
137.5410
 30
0.0000
 11
229.6160
 21
138.1760
 31
0.0000
  0
LINE
  8
94
 10
229.6160
 20
138.1760
 30
0.0000
 11
227.5840
 21
138.8110
 31
0.0000
  0
LINE
  8
94
 10
227.5840
 20
138.8110
 30
0.0000
 11
229.6160
 21
139.4460
 31
0.0000
  0
LINE
  8
94
 10
229.6160
 20
139.4460
 30
0.0000
 11
228.6000
 21
139.7000
 31
0.0000
  0
TEXT
  7
ISOCP
  8
95
 10
227.1014
 20
133.3500
 30
0.0000
 40
1.7780
  1
R7
 50
90.0000
  0
TEXT
  7
ISOCP
  8
96
 10
231.9020
 20
133.3500
 30
0.0000
 40
1.7780
  1
820
 50
90.0000
  0
LINE
  8
94
 10
228.6000
 20
132.0800
 30
0.0000
 11
228.6000
 21
134.6200
 31
0.0000
  0
LINE
  8
94
 10
228.6000
 20
142.2400
 30
0.0000
 11
228.6000
 21
139.7000
 31
0.0000
  0
LINE
  8
94
 10
198.1200
 20
53.3400
 30
0.0000
 11
175.2600
 21
53.3400
 31
0.0000
  0
LINE
  8
94
 10
175.2600
 20
53.3400
 30
0.0000
 11
175.2600
 21
45.7200
 31
0.0000
  0
LINE
  8
94
 10
175.2600
 20
45.7200
 30
0.0000
 11
198.1200
 21
45.7200
 31
0.0000
  0
LINE
  8
94
 10
198.1200
 20
45.7200
 30
0.0000
 11
198.1200
 21
53.3400
 31
0.0000
  0
LINE
  8
94
 10
190.5000
 20
50.8000
 30
0.0000
 11
182.8800
 21
50.8000
 31
0.0000
  0
LINE
  8
94
 10
182.8800
 20
48.2600
 30
0.0000
 11
190.5000
 21
48.2600
 31
0.0000
  0
TEXT
  7
ISOCP
  8
95
 10
175.5140
 20
54.3560
 30
0.0000
 40
1.7780
  1
U$1
  0
TEXT
  7
ISOCP
  8
96
 10
175.2600
 20
43.1800
 30
0.0000
 40
1.7780
  1
TB_1608510000_SINGLE_2POS
  0
LINE
  8
94
 10
170.1800
 20
50.8000
 30
0.0000
 11
175.2600
 21
50.8000
 31
0.0000
  0
TEXT
  7
ISOCP
  8
95
 10
177.5968
 20
50.0380
 30
0.0000
 40
1.5240
  1
L1
  0
LINE
  8
94
 10
170.1800
 20
48.2600
 30
0.0000
 11
175.2600
 21
48.2600
 31
0.0000
  0
TEXT
  7
ISOCP
  8
95
 10
177.5968
 20
47.4980
 30
0.0000
 40
1.5240
  1
L2
  0
LINE
  8
94
 10
203.2000
 20
50.8000
 30
0.0000
 11
198.1200
 21
50.8000
 31
0.0000
  0
TEXT
  7
ISOCP
  8
95
 10
195.7832
 20
51.5620
 30
0.0000
 40
1.5240
  1
R1
 72
2
 73
3
 11
195.7832
 21
51.5620
 31
0.0000
  0
LINE
  8
94
 10
203.2000
 20
48.2600
 30
0.0000
 11
198.1200
 21
48.2600
 31
0.0000
  0
TEXT
  7
ISOCP
  8
95
 10
195.7832
 20
49.0220
 30
0.0000
 40
1.5240
  1
R2
 72
2
 73
3
 11
195.7832
 21
49.0220
 31
0.0000
  0
LINE
  8
94
 10
172.7200
 20
228.6000
 30
0.0000
 11
198.1200
 21
228.6000
 31
0.0000
  0
LINE
  8
94
 10
180.3400
 20
218.4400
 30
0.0000
 11
182.8800
 21
218.4400
 31
0.0000
  0
LINE
  8
94
 10
182.8800
 20
218.4400
 30
0.0000
 11
187.9600
 21
218.4400
 31
0.0000
  0
LINE
  8
94
 10
187.9600
 20
218.4400
 30
0.0000
 11
190.5000
 21
218.4400
 31
0.0000
  0
LINE
  8
94
 10
180.3400
 20
223.5200
 30
0.0000
 11
182.8800
 21
223.5200
 31
0.0000
  0
LINE
  8
94
 10
182.8800
 20
223.5200
 30
0.0000
 11
187.9600
 21
223.5200
 31
0.0000
  0
LINE
  8
94
 10
187.9600
 20
223.5200
 30
0.0000
 11
190.5000
 21
223.5200
 31
0.0000
  0
LINE
  8
94
 10
187.9600
 20
223.5200
 30
0.0000
 11
187.9600
 21
226.0600
 31
0.0000
  0
LINE
  8
94
 10
187.9600
 20
226.0600
 30
0.0000
 11
190.5000
 21
226.0600
 31
0.0000
  0
LINE
  8
94
 10
182.8800
 20
223.5200
 30
0.0000
 11
182.8800
 21
226.0600
 31
0.0000
  0
LINE
  8
94
 10
182.8800
 20
226.0600
 30
0.0000
 11
180.3400
 21
226.0600
 31
0.0000
  0
LINE
  8
94
 10
182.8800
 20
218.4400
 30
0.0000
 11
182.8800
 21
220.9800
 31
0.0000
  0
LINE
  8
94
 10
182.8800
 20
220.9800
 30
0.0000
 11
180.3400
 21
220.9800
 31
0.0000
  0
LINE
  8
94
 10
187.9600
 20
218.4400
 30
0.0000
 11
187.9600
 21
220.9800
 31
0.0000
  0
LINE
  8
94
 10
187.9600
 20
220.9800
 30
0.0000
 11
190.5000
 21
220.9800
 31
0.0000
  0
LINE
  8
94
 10
180.3400
 20
208.2800
 30
0.0000
 11
182.8800
 21
208.2800
 31
0.0000
  0
LINE
  8
94
 10
182.8800
 20
208.2800
 30
0.0000
 11
187.9600
 21
208.2800
 31
0.0000
  0
LINE
  8
94
 10
187.9600
 20
208.2800
 30
0.0000
 11
190.5000
 21
208.2800
 31
0.0000
  0
LINE
  8
94
 10
180.3400
 20
213.3600
 30
0.0000
 11
182.8800
 21
213.3600
 31
0.0000
  0
LINE
  8
94
 10
182.8800
 20
213.3600
 30
0.0000
 11
187.9600
 21
213.3600
 31
0.0000
  0
LINE
  8
94
 10
187.9600
 20
213.3600
 30
0.0000
 11
190.5000
 21
213.3600
 31
0.0000
  0
LINE
  8
94
 10
187.9600
 20
213.3600
 30
0.0000
 11
187.9600
 21
215.9000
 31
0.0000
  0
LINE
  8
94
 10
187.9600
 20
215.9000
 30
0.0000
 11
190.5000
 21
215.9000
 31
0.0000
  0
LINE
  8
94
 10
182.8800
 20
213.3600
 30
0.0000
 11
182.8800
 21
215.9000
 31
0.0000
  0
LINE
  8
94
 10
182.8800
 20
215.9000
 30
0.0000
 11
180.3400
 21
215.9000
 31
0.0000
  0
LINE
  8
94
 10
182.8800
 20
208.2800
 30
0.0000
 11
182.8800
 21
210.8200
 31
0.0000
  0
LINE
  8
94
 10
182.8800
 20
210.8200
 30
0.0000
 11
180.3400
 21
210.8200
 31
0.0000
  0
LINE
  8
94
 10
187.9600
 20
208.2800
 30
0.0000
 11
187.9600
 21
210.8200
 31
0.0000
  0
LINE
  8
94
 10
187.9600
 20
210.8200
 30
0.0000
 11
190.5000
 21
210.8200
 31
0.0000
  0
LINE
  8
94
 10
172.7200
 20
228.6000
 30
0.0000
 11
172.7200
 21
205.7400
 31
0.0000
  0
LINE
  8
94
 10
172.7200
 20
205.7400
 30
0.0000
 11
198.1200
 21
205.7400
 31
0.0000
  0
LINE
  8
94
 10
198.1200
 20
205.7400
 30
0.0000
 11
198.1200
 21
228.6000
 31
0.0000
  0
TEXT
  7
ISOCP
  8
95
 10
172.7200
 20
229.1080
 30
0.0000
 40
1.7780
  1
U$2
  0
TEXT
  7
ISOCP
  8
96
 10
172.7200
 20
203.2000
 30
0.0000
 40
1.7780
  1
TB_3XXXXXX_4X_4POS
  0
LINE
  8
94
 10
170.1800
 20
226.0600
 30
0.0000
 11
172.7200
 21
226.0600
 31
0.0000
  0
TEXT
  7
ISOCP
  8
95
 10
175.0568
 20
225.2980
 30
0.0000
 40
1.5240
  1
L1L
  0
LINE
  8
94
 10
167.6400
 20
223.5200
 30
0.0000
 11
172.7200
 21
223.5200
 31
0.0000
  0
TEXT
  7
ISOCP
  8
95
 10
175.0568
 20
222.7580
 30
0.0000
 40
1.5240
  1
L1R
  0
LINE
  8
94
 10
170.1800
 20
220.9800
 30
0.0000
 11
172.7200
 21
220.9800
 31
0.0000
  0
TEXT
  7
ISOCP
  8
95
 10
175.0568
 20
220.2180
 30
0.0000
 40
1.5240
  1
L2L
  0
LINE
  8
94
 10
167.6400
 20
218.4400
 30
0.0000
 11
172.7200
 21
218.4400
 31
0.0000
  0
TEXT
  7
ISOCP
  8
95
 10
175.0568
 20
217.6780
 30
0.0000
 40
1.5240
  1
L2R
  0
LINE
  8
94
 10
170.1800
 20
215.9000
 30
0.0000
 11
172.7200
 21
215.9000
 31
0.0000
  0
TEXT
  7
ISOCP
  8
95
 10
175.0568
 20
215.1380
 30
0.0000
 40
1.5240
  1
L3L
  0
LINE
  8
94
 10
167.6400
 20
213.3600
 30
0.0000
 11
172.7200
 21
213.3600
 31
0.0000
  0
TEXT
  7
ISOCP
  8
95
 10
175.0568
 20
212.5980
 30
0.0000
 40
1.5240
  1
L3R
  0
LINE
  8
94
 10
170.1800
 20
210.8200
 30
0.0000
 11
172.7200
 21
210.8200
 31
0.0000
  0
TEXT
  7
ISOCP
  8
95
 10
175.0568
 20
210.0580
 30
0.0000
 40
1.5240
  1
L4L
  0
LINE
  8
94
 10
167.6400
 20
208.2800
 30
0.0000
 11
172.7200
 21
208.2800
 31
0.0000
  0
TEXT
  7
ISOCP
  8
95
 10
175.0568
 20
207.5180
 30
0.0000
 40
1.5240
  1
L4R
  0
LINE
  8
94
 10
200.6600
 20
226.0600
 30
0.0000
 11
198.1200
 21
226.0600
 31
0.0000
  0
TEXT
  7
ISOCP
  8
95
 10
195.7832
 20
226.8220
 30
0.0000
 40
1.5240
  1
R1L
 72
2
 73
3
 11
195.7832
 21
226.8220
 31
0.0000
  0
LINE
  8
94
 10
203.2000
 20
223.5200
 30
0.0000
 11
198.1200
 21
223.5200
 31
0.0000
  0
TEXT
  7
ISOCP
  8
95
 10
195.7832
 20
224.2820
 30
0.0000
 40
1.5240
  1
R1R
 72
2
 73
3
 11
195.7832
 21
224.2820
 31
0.0000
  0
LINE
  8
94
 10
200.6600
 20
220.9800
 30
0.0000
 11
198.1200
 21
220.9800
 31
0.0000
  0
TEXT
  7
ISOCP
  8
95
 10
195.7832
 20
221.7420
 30
0.0000
 40
1.5240
  1
R2L
 72
2
 73
3
 11
195.7832
 21
221.7420
 31
0.0000
  0
LINE
  8
94
 10
203.2000
 20
218.4400
 30
0.0000
 11
198.1200
 21
218.4400
 31
0.0000
  0
TEXT
  7
ISOCP
  8
95
 10
195.7832
 20
219.2020
 30
0.0000
 40
1.5240
  1
R2R
 72
2
 73
3
 11
195.7832
 21
219.2020
 31
0.0000
  0
LINE
  8
94
 10
200.6600
 20
215.9000
 30
0.0000
 11
198.1200
 21
215.9000
 31
0.0000
  0
TEXT
  7
ISOCP
  8
95
 10
195.7832
 20
216.6620
 30
0.0000
 40
1.5240
  1
R3L
 72
2
 73
3
 11
195.7832
 21
216.6620
 31
0.0000
  0
LINE
  8
94
 10
203.2000
 20
213.3600
 30
0.0000
 11
198.1200
 21
213.3600
 31
0.0000
  0
TEXT
  7
ISOCP
  8
95
 10
195.7832
 20
214.1220
 30
0.0000
 40
1.5240
  1
R3R
 72
2
 73
3
 11
195.7832
 21
214.1220
 31
0.0000
  0
LINE
  8
94
 10
200.6600
 20
210.8200
 30
0.0000
 11
198.1200
 21
210.8200
 31
0.0000
  0
TEXT
  7
ISOCP
  8
95
 10
195.7832
 20
211.5820
 30
0.0000
 40
1.5240
  1
R4L
 72
2
 73
3
 11
195.7832
 21
211.5820
 31
0.0000
  0
LINE
  8
94
 10
203.2000
 20
208.2800
 30
0.0000
 11
198.1200
 21
208.2800
 31
0.0000
  0
TEXT
  7
ISOCP
  8
95
 10
195.7832
 20
209.0420
 30
0.0000
 40
1.5240
  1
R4R
 72
2
 73
3
 11
195.7832
 21
209.0420
 31
0.0000
  0
LINE
  8
94
 10
172.7200
 20
177.8000
 30
0.0000
 11
198.1200
 21
177.8000
 31
0.0000
  0
LINE
  8
94
 10
180.3400
 20
167.6400
 30
0.0000
 11
182.8800
 21
167.6400
 31
0.0000
  0
LINE
  8
94
 10
182.8800
 20
167.6400
 30
0.0000
 11
187.9600
 21
167.6400
 31
0.0000
  0
LINE
  8
94
 10
187.9600
 20
167.6400
 30
0.0000
 11
190.5000
 21
167.6400
 31
0.0000
  0
LINE
  8
94
 10
180.3400
 20
172.7200
 30
0.0000
 11
182.8800
 21
172.7200
 31
0.0000
  0
LINE
  8
94
 10
182.8800
 20
172.7200
 30
0.0000
 11
187.9600
 21
172.7200
 31
0.0000
  0
LINE
  8
94
 10
187.9600
 20
172.7200
 30
0.0000
 11
190.5000
 21
172.7200
 31
0.0000
  0
LINE
  8
94
 10
187.9600
 20
172.7200
 30
0.0000
 11
187.9600
 21
175.2600
 31
0.0000
  0
LINE
  8
94
 10
187.9600
 20
175.2600
 30
0.0000
 11
190.5000
 21
175.2600
 31
0.0000
  0
LINE
  8
94
 10
182.8800
 20
172.7200
 30
0.0000
 11
182.8800
 21
175.2600
 31
0.0000
  0
LINE
  8
94
 10
182.8800
 20
175.2600
 30
0.0000
 11
180.3400
 21
175.2600
 31
0.0000
  0
LINE
  8
94
 10
182.8800
 20
167.6400
 30
0.0000
 11
182.8800
 21
170.1800
 31
0.0000
  0
LINE
  8
94
 10
182.8800
 20
170.1800
 30
0.0000
 11
180.3400
 21
170.1800
 31
0.0000
  0
LINE
  8
94
 10
187.9600
 20
167.6400
 30
0.0000
 11
187.9600
 21
170.1800
 31
0.0000
  0
LINE
  8
94
 10
187.9600
 20
170.1800
 30
0.0000
 11
190.5000
 21
170.1800
 31
0.0000
  0
LINE
  8
94
 10
180.3400
 20
157.4800
 30
0.0000
 11
182.8800
 21
157.4800
 31
0.0000
  0
LINE
  8
94
 10
182.8800
 20
157.4800
 30
0.0000
 11
187.9600
 21
157.4800
 31
0.0000
  0
LINE
  8
94
 10
187.9600
 20
157.4800
 30
0.0000
 11
190.5000
 21
157.4800
 31
0.0000
  0
LINE
  8
94
 10
180.3400
 20
162.5600
 30
0.0000
 11
182.8800
 21
162.5600
 31
0.0000
  0
LINE
  8
94
 10
182.8800
 20
162.5600
 30
0.0000
 11
187.9600
 21
162.5600
 31
0.0000
  0
LINE
  8
94
 10
187.9600
 20
162.5600
 30
0.0000
 11
190.5000
 21
162.5600
 31
0.0000
  0
LINE
  8
94
 10
187.9600
 20
162.5600
 30
0.0000
 11
187.9600
 21
165.1000
 31
0.0000
  0
LINE
  8
94
 10
187.9600
 20
165.1000
 30
0.0000
 11
190.5000
 21
165.1000
 31
0.0000
  0
LINE
  8
94
 10
182.8800
 20
162.5600
 30
0.0000
 11
182.8800
 21
165.1000
 31
0.0000
  0
LINE
  8
94
 10
182.8800
 20
165.1000
 30
0.0000
 11
180.3400
 21
165.1000
 31
0.0000
  0
LINE
  8
94
 10
182.8800
 20
157.4800
 30
0.0000
 11
182.8800
 21
160.0200
 31
0.0000
  0
LINE
  8
94
 10
182.8800
 20
160.0200
 30
0.0000
 11
180.3400
 21
160.0200
 31
0.0000
  0
LINE
  8
94
 10
187.9600
 20
157.4800
 30
0.0000
 11
187.9600
 21
160.0200
 31
0.0000
  0
LINE
  8
94
 10
187.9600
 20
160.0200
 30
0.0000
 11
190.5000
 21
160.0200
 31
0.0000
  0
LINE
  8
94
 10
172.7200
 20
177.8000
 30
0.0000
 11
172.7200
 21
154.9400
 31
0.0000
  0
LINE
  8
94
 10
172.7200
 20
154.9400
 30
0.0000
 11
198.1200
 21
154.9400
 31
0.0000
  0
LINE
  8
94
 10
198.1200
 20
154.9400
 30
0.0000
 11
198.1200
 21
177.8000
 31
0.0000
  0
TEXT
  7
ISOCP
  8
95
 10
172.7200
 20
178.3080
 30
0.0000
 40
1.7780
  1
U$3
  0
TEXT
  7
ISOCP
  8
96
 10
172.7200
 20
152.4000
 30
0.0000
 40
1.7780
  1
TB_3XXXXXX_4X_4POS
  0
LINE
  8
94
 10
170.1800
 20
175.2600
 30
0.0000
 11
172.7200
 21
175.2600
 31
0.0000
  0
TEXT
  7
ISOCP
  8
95
 10
175.0568
 20
174.4980
 30
0.0000
 40
1.5240
  1
L1L
  0
LINE
  8
94
 10
167.6400
 20
172.7200
 30
0.0000
 11
172.7200
 21
172.7200
 31
0.0000
  0
TEXT
  7
ISOCP
  8
95
 10
175.0568
 20
171.9580
 30
0.0000
 40
1.5240
  1
L1R
  0
LINE
  8
94
 10
170.1800
 20
170.1800
 30
0.0000
 11
172.7200
 21
170.1800
 31
0.0000
  0
TEXT
  7
ISOCP
  8
95
 10
175.0568
 20
169.4180
 30
0.0000
 40
1.5240
  1
L2L
  0
LINE
  8
94
 10
167.6400
 20
167.6400
 30
0.0000
 11
172.7200
 21
167.6400
 31
0.0000
  0
TEXT
  7
ISOCP
  8
95
 10
175.0568
 20
166.8780
 30
0.0000
 40
1.5240
  1
L2R
  0
LINE
  8
94
 10
170.1800
 20
165.1000
 30
0.0000
 11
172.7200
 21
165.1000
 31
0.0000
  0
TEXT
  7
ISOCP
  8
95
 10
175.0568
 20
164.3380
 30
0.0000
 40
1.5240
  1
L3L
  0
LINE
  8
94
 10
167.6400
 20
162.5600
 30
0.0000
 11
172.7200
 21
162.5600
 31
0.0000
  0
TEXT
  7
ISOCP
  8
95
 10
175.0568
 20
161.7980
 30
0.0000
 40
1.5240
  1
L3R
  0
LINE
  8
94
 10
170.1800
 20
160.0200
 30
0.0000
 11
172.7200
 21
160.0200
 31
0.0000
  0
TEXT
  7
ISOCP
  8
95
 10
175.0568
 20
159.2580
 30
0.0000
 40
1.5240
  1
L4L
  0
LINE
  8
94
 10
167.6400
 20
157.4800
 30
0.0000
 11
172.7200
 21
157.4800
 31
0.0000
  0
TEXT
  7
ISOCP
  8
95
 10
175.0568
 20
156.7180
 30
0.0000
 40
1.5240
  1
L4R
  0
LINE
  8
94
 10
200.6600
 20
175.2600
 30
0.0000
 11
198.1200
 21
175.2600
 31
0.0000
  0
TEXT
  7
ISOCP
  8
95
 10
195.7832
 20
176.0220
 30
0.0000
 40
1.5240
  1
R1L
 72
2
 73
3
 11
195.7832
 21
176.0220
 31
0.0000
  0
LINE
  8
94
 10
203.2000
 20
172.7200
 30
0.0000
 11
198.1200
 21
172.7200
 31
0.0000
  0
TEXT
  7
ISOCP
  8
95
 10
195.7832
 20
173.4820
 30
0.0000
 40
1.5240
  1
R1R
 72
2
 73
3
 11
195.7832
 21
173.4820
 31
0.0000
  0
LINE
  8
94
 10
200.6600
 20
170.1800
 30
0.0000
 11
198.1200
 21
170.1800
 31
0.0000
  0
TEXT
  7
ISOCP
  8
95
 10
195.7832
 20
170.9420
 30
0.0000
 40
1.5240
  1
R2L
 72
2
 73
3
 11
195.7832
 21
170.9420
 31
0.0000
  0
LINE
  8
94
 10
203.2000
 20
167.6400
 30
0.0000
 11
198.1200
 21
167.6400
 31
0.0000
  0
TEXT
  7
ISOCP
  8
95
 10
195.7832
 20
168.4020
 30
0.0000
 40
1.5240
  1
R2R
 72
2
 73
3
 11
195.7832
 21
168.4020
 31
0.0000
  0
LINE
  8
94
 10
200.6600
 20
165.1000
 30
0.0000
 11
198.1200
 21
165.1000
 31
0.0000
  0
TEXT
  7
ISOCP
  8
95
 10
195.7832
 20
165.8620
 30
0.0000
 40
1.5240
  1
R3L
 72
2
 73
3
 11
195.7832
 21
165.8620
 31
0.0000
  0
LINE
  8
94
 10
203.2000
 20
162.5600
 30
0.0000
 11
198.1200
 21
162.5600
 31
0.0000
  0
TEXT
  7
ISOCP
  8
95
 10
195.7832
 20
163.3220
 30
0.0000
 40
1.5240
  1
R3R
 72
2
 73
3
 11
195.7832
 21
163.3220
 31
0.0000
  0
LINE
  8
94
 10
200.6600
 20
160.0200
 30
0.0000
 11
198.1200
 21
160.0200
 31
0.0000
  0
TEXT
  7
ISOCP
  8
95
 10
195.7832
 20
160.7820
 30
0.0000
 40
1.5240
  1
R4L
 72
2
 73
3
 11
195.7832
 21
160.7820
 31
0.0000
  0
LINE
  8
94
 10
203.2000
 20
157.4800
 30
0.0000
 11
198.1200
 21
157.4800
 31
0.0000
  0
TEXT
  7
ISOCP
  8
95
 10
195.7832
 20
158.2420
 30
0.0000
 40
1.5240
  1
R4R
 72
2
 73
3
 11
195.7832
 21
158.2420
 31
0.0000
  0
LINE
  8
94
 10
198.1200
 20
119.3800
 30
0.0000
 11
175.2600
 21
119.3800
 31
0.0000
  0
LINE
  8
94
 10
198.1200
 20
119.3800
 30
0.0000
 11
198.1200
 21
60.9600
 31
0.0000
  0
LINE
  8
94
 10
175.2600
 20
60.9600
 30
0.0000
 11
175.2600
 21
119.3800
 31
0.0000
  0
LINE
  8
94
 10
175.2600
 20
60.9600
 30
0.0000
 11
198.1200
 21
60.9600
 31
0.0000
  0
LINE
  8
94
 10
187.9600
 20
116.8400
 30
0.0000
 11
190.5000
 21
116.8400
 31
0.0000
  0
LINE
  8
94
 10
185.4200
 20
114.3000
 30
0.0000
 11
182.8800
 21
114.3000
 31
0.0000
  0
LINE
  8
94
 10
187.9600
 20
111.7600
 30
0.0000
 11
190.5000
 21
111.7600
 31
0.0000
  0
LINE
  8
94
 10
185.4200
 20
109.2200
 30
0.0000
 11
182.8800
 21
109.2200
 31
0.0000
  0
LINE
  8
94
 10
185.4200
 20
104.1400
 30
0.0000
 11
182.8800
 21
104.1400
 31
0.0000
  0
LINE
  8
94
 10
187.9600
 20
101.6000
 30
0.0000
 11
190.5000
 21
101.6000
 31
0.0000
  0
LINE
  8
94
 10
185.4200
 20
99.0600
 30
0.0000
 11
182.8800
 21
99.0600
 31
0.0000
  0
LINE
  8
94
 10
187.9600
 20
96.5200
 30
0.0000
 11
190.5000
 21
96.5200
 31
0.0000
  0
LINE
  8
94
 10
185.4200
 20
93.9800
 30
0.0000
 11
182.8800
 21
93.9800
 31
0.0000
  0
LINE
  8
94
 10
187.9600
 20
91.4400
 30
0.0000
 11
190.5000
 21
91.4400
 31
0.0000
  0
LINE
  8
94
 10
185.4200
 20
88.9000
 30
0.0000
 11
182.8800
 21
88.9000
 31
0.0000
  0
LINE
  8
94
 10
187.9600
 20
86.3600
 30
0.0000
 11
190.5000
 21
86.3600
 31
0.0000
  0
LINE
  8
94
 10
185.4200
 20
83.8200
 30
0.0000
 11
182.8800
 21
83.8200
 31
0.0000
  0
LINE
  8
94
 10
187.9600
 20
81.2800
 30
0.0000
 11
190.5000
 21
81.2800
 31
0.0000
  0
LINE
  8
94
 10
185.4200
 20
78.7400
 30
0.0000
 11
182.8800
 21
78.7400
 31
0.0000
  0
LINE
  8
94
 10
187.9600
 20
76.2000
 30
0.0000
 11
190.5000
 21
76.2000
 31
0.0000
  0
LINE
  8
94
 10
185.4200
 20
73.6600
 30
0.0000
 11
182.8800
 21
73.6600
 31
0.0000
  0
LINE
  8
94
 10
187.9600
 20
71.1200
 30
0.0000
 11
190.5000
 21
71.1200
 31
0.0000
  0
LINE
  8
94
 10
185.4200
 20
68.5800
 30
0.0000
 11
182.8800
 21
68.5800
 31
0.0000
  0
LINE
  8
94
 10
187.9600
 20
66.0400
 30
0.0000
 11
190.5000
 21
66.0400
 31
0.0000
  0
LINE
  8
94
 10
185.4200
 20
63.5000
 30
0.0000
 11
182.8800
 21
63.5000
 31
0.0000
  0
LINE
  8
94
 10
187.9600
 20
106.6800
 30
0.0000
 11
190.5000
 21
106.6800
 31
0.0000
  0
LINE
  8
94
 10
170.1800
 20
114.3000
 30
0.0000
 11
175.2600
 21
114.3000
 31
0.0000
  0
TEXT
  7
ISOCP
  8
95
 10
177.5968
 20
113.5380
 30
0.0000
 40
1.5240
  1
L1B
  0
LINE
  8
94
 10
172.7200
 20
116.8400
 30
0.0000
 11
175.2600
 21
116.8400
 31
0.0000
  0
TEXT
  7
ISOCP
  8
95
 10
177.5968
 20
116.0780
 30
0.0000
 40
1.5240
  1
L1T
  0
LINE
  8
94
 10
170.1800
 20
109.2200
 30
0.0000
 11
175.2600
 21
109.2200
 31
0.0000
  0
TEXT
  7
ISOCP
  8
95
 10
177.5968
 20
108.4580
 30
0.0000
 40
1.5240
  1
L2B
  0
LINE
  8
94
 10
172.7200
 20
111.7600
 30
0.0000
 11
175.2600
 21
111.7600
 31
0.0000
  0
TEXT
  7
ISOCP
  8
95
 10
177.5968
 20
110.9980
 30
0.0000
 40
1.5240
  1
L2T
  0
LINE
  8
94
 10
170.1800
 20
104.1400
 30
0.0000
 11
175.2600
 21
104.1400
 31
0.0000
  0
TEXT
  7
ISOCP
  8
95
 10
177.5968
 20
103.3780
 30
0.0000
 40
1.5240
  1
L3B
  0
LINE
  8
94
 10
172.7200
 20
106.6800
 30
0.0000
 11
175.2600
 21
106.6800
 31
0.0000
  0
TEXT
  7
ISOCP
  8
95
 10
177.5968
 20
105.9180
 30
0.0000
 40
1.5240
  1
L3T
  0
LINE
  8
94
 10
170.1800
 20
99.0600
 30
0.0000
 11
175.2600
 21
99.0600
 31
0.0000
  0
TEXT
  7
ISOCP
  8
95
 10
177.5968
 20
98.2980
 30
0.0000
 40
1.5240
  1
L4B
  0
LINE
  8
94
 10
172.7200
 20
101.6000
 30
0.0000
 11
175.2600
 21
101.6000
 31
0.0000
  0
TEXT
  7
ISOCP
  8
95
 10
177.5968
 20
100.8380
 30
0.0000
 40
1.5240
  1
L4T
  0
LINE
  8
94
 10
170.1800
 20
93.9800
 30
0.0000
 11
175.2600
 21
93.9800
 31
0.0000
  0
TEXT
  7
ISOCP
  8
95
 10
177.5968
 20
93.2180
 30
0.0000
 40
1.5240
  1
L5B
  0
LINE
  8
94
 10
172.7200
 20
96.5200
 30
0.0000
 11
175.2600
 21
96.5200
 31
0.0000
  0
TEXT
  7
ISOCP
  8
95
 10
177.5968
 20
95.7580
 30
0.0000
 40
1.5240
  1
L5T
  0
LINE
  8
94
 10
170.1800
 20
88.9000
 30
0.0000
 11
175.2600
 21
88.9000
 31
0.0000
  0
TEXT
  7
ISOCP
  8
95
 10
177.5968
 20
88.1380
 30
0.0000
 40
1.5240
  1
L6N
  0
LINE
  8
94
 10
172.7200
 20
91.4400
 30
0.0000
 11
175.2600
 21
91.4400
 31
0.0000
  0
TEXT
  7
ISOCP
  8
95
 10
177.5968
 20
90.6780
 30
0.0000
 40
1.5240
  1
L6T
  0
LINE
  8
94
 10
170.1800
 20
83.8200
 30
0.0000
 11
175.2600
 21
83.8200
 31
0.0000
  0
TEXT
  7
ISOCP
  8
95
 10
177.5968
 20
83.0580
 30
0.0000
 40
1.5240
  1
L7B
  0
LINE
  8
94
 10
172.7200
 20
86.3600
 30
0.0000
 11
175.2600
 21
86.3600
 31
0.0000
  0
TEXT
  7
ISOCP
  8
95
 10
177.5968
 20
85.5980
 30
0.0000
 40
1.5240
  1
L7T
  0
LINE
  8
94
 10
170.1800
 20
78.7400
 30
0.0000
 11
175.2600
 21
78.7400
 31
0.0000
  0
TEXT
  7
ISOCP
  8
95
 10
177.5968
 20
77.9780
 30
0.0000
 40
1.5240
  1
L8B
  0
LINE
  8
94
 10
172.7200
 20
81.2800
 30
0.0000
 11
175.2600
 21
81.2800
 31
0.0000
  0
TEXT
  7
ISOCP
  8
95
 10
177.5968
 20
80.5180
 30
0.0000
 40
1.5240
  1
L8T
  0
LINE
  8
94
 10
170.1800
 20
73.6600
 30
0.0000
 11
175.2600
 21
73.6600
 31
0.0000
  0
TEXT
  7
ISOCP
  8
95
 10
177.5968
 20
72.8980
 30
0.0000
 40
1.5240
  1
L9B
  0
LINE
  8
94
 10
172.7200
 20
76.2000
 30
0.0000
 11
175.2600
 21
76.2000
 31
0.0000
  0
TEXT
  7
ISOCP
  8
95
 10
177.5968
 20
75.4380
 30
0.0000
 40
1.5240
  1
L9T
  0
LINE
  8
94
 10
170.1800
 20
68.5800
 30
0.0000
 11
175.2600
 21
68.5800
 31
0.0000
  0
TEXT
  7
ISOCP
  8
95
 10
177.5968
 20
67.8180
 30
0.0000
 40
1.5240
  1
L10B
  0
LINE
  8
94
 10
172.7200
 20
71.1200
 30
0.0000
 11
175.2600
 21
71.1200
 31
0.0000
  0
TEXT
  7
ISOCP
  8
95
 10
177.5968
 20
70.3580
 30
0.0000
 40
1.5240
  1
L10T
  0
LINE
  8
94
 10
170.1800
 20
63.5000
 30
0.0000
 11
175.2600
 21
63.5000
 31
0.0000
  0
TEXT
  7
ISOCP
  8
95
 10
177.5968
 20
62.7380
 30
0.0000
 40
1.5240
  1
L11B
  0
LINE
  8
94
 10
172.7200
 20
66.0400
 30
0.0000
 11
175.2600
 21
66.0400
 31
0.0000
  0
TEXT
  7
ISOCP
  8
95
 10
177.5968
 20
65.2780
 30
0.0000
 40
1.5240
  1
L11T
  0
LINE
  8
94
 10
203.2000
 20
114.3000
 30
0.0000
 11
198.1200
 21
114.3000
 31
0.0000
  0
TEXT
  7
ISOCP
  8
95
 10
195.7832
 20
115.0620
 30
0.0000
 40
1.5240
  1
R1B
 72
2
 73
3
 11
195.7832
 21
115.0620
 31
0.0000
  0
LINE
  8
94
 10
200.6600
 20
116.8400
 30
0.0000
 11
198.1200
 21
116.8400
 31
0.0000
  0
TEXT
  7
ISOCP
  8
95
 10
195.7832
 20
117.6020
 30
0.0000
 40
1.5240
  1
R1T
 72
2
 73
3
 11
195.7832
 21
117.6020
 31
0.0000
  0
LINE
  8
94
 10
203.2000
 20
109.2200
 30
0.0000
 11
198.1200
 21
109.2200
 31
0.0000
  0
TEXT
  7
ISOCP
  8
95
 10
195.7832
 20
109.9820
 30
0.0000
 40
1.5240
  1
R2B
 72
2
 73
3
 11
195.7832
 21
109.9820
 31
0.0000
  0
LINE
  8
94
 10
200.6600
 20
111.7600
 30
0.0000
 11
198.1200
 21
111.7600
 31
0.0000
  0
TEXT
  7
ISOCP
  8
95
 10
195.7832
 20
112.5220
 30
0.0000
 40
1.5240
  1
R2T
 72
2
 73
3
 11
195.7832
 21
112.5220
 31
0.0000
  0
LINE
  8
94
 10
203.2000
 20
104.1400
 30
0.0000
 11
198.1200
 21
104.1400
 31
0.0000
  0
TEXT
  7
ISOCP
  8
95
 10
195.7832
 20
104.9020
 30
0.0000
 40
1.5240
  1
R3B
 72
2
 73
3
 11
195.7832
 21
104.9020
 31
0.0000
  0
LINE
  8
94
 10
200.6600
 20
106.6800
 30
0.0000
 11
198.1200
 21
106.6800
 31
0.0000
  0
TEXT
  7
ISOCP
  8
95
 10
195.7832
 20
107.4420
 30
0.0000
 40
1.5240
  1
R3T
 72
2
 73
3
 11
195.7832
 21
107.4420
 31
0.0000
  0
LINE
  8
94
 10
203.2000
 20
99.0600
 30
0.0000
 11
198.1200
 21
99.0600
 31
0.0000
  0
TEXT
  7
ISOCP
  8
95
 10
195.7832
 20
99.8220
 30
0.0000
 40
1.5240
  1
R4B
 72
2
 73
3
 11
195.7832
 21
99.8220
 31
0.0000
  0
LINE
  8
94
 10
200.6600
 20
101.6000
 30
0.0000
 11
198.1200
 21
101.6000
 31
0.0000
  0
TEXT
  7
ISOCP
  8
95
 10
195.7832
 20
102.3620
 30
0.0000
 40
1.5240
  1
R4T
 72
2
 73
3
 11
195.7832
 21
102.3620
 31
0.0000
  0
LINE
  8
94
 10
203.2000
 20
93.9800
 30
0.0000
 11
198.1200
 21
93.9800
 31
0.0000
  0
TEXT
  7
ISOCP
  8
95
 10
195.7832
 20
94.7420
 30
0.0000
 40
1.5240
  1
R5B
 72
2
 73
3
 11
195.7832
 21
94.7420
 31
0.0000
  0
LINE
  8
94
 10
200.6600
 20
96.5200
 30
0.0000
 11
198.1200
 21
96.5200
 31
0.0000
  0
TEXT
  7
ISOCP
  8
95
 10
195.7832
 20
97.2820
 30
0.0000
 40
1.5240
  1
R5T
 72
2
 73
3
 11
195.7832
 21
97.2820
 31
0.0000
  0
LINE
  8
94
 10
203.2000
 20
88.9000
 30
0.0000
 11
198.1200
 21
88.9000
 31
0.0000
  0
TEXT
  7
ISOCP
  8
95
 10
195.7832
 20
89.6620
 30
0.0000
 40
1.5240
  1
R6B
 72
2
 73
3
 11
195.7832
 21
89.6620
 31
0.0000
  0
LINE
  8
94
 10
200.6600
 20
91.4400
 30
0.0000
 11
198.1200
 21
91.4400
 31
0.0000
  0
TEXT
  7
ISOCP
  8
95
 10
195.7832
 20
92.2020
 30
0.0000
 40
1.5240
  1
R6T
 72
2
 73
3
 11
195.7832
 21
92.2020
 31
0.0000
  0
LINE
  8
94
 10
203.2000
 20
83.8200
 30
0.0000
 11
198.1200
 21
83.8200
 31
0.0000
  0
TEXT
  7
ISOCP
  8
95
 10
195.7832
 20
84.5820
 30
0.0000
 40
1.5240
  1
R7B
 72
2
 73
3
 11
195.7832
 21
84.5820
 31
0.0000
  0
LINE
  8
94
 10
200.6600
 20
86.3600
 30
0.0000
 11
198.1200
 21
86.3600
 31
0.0000
  0
TEXT
  7
ISOCP
  8
95
 10
195.7832
 20
87.1220
 30
0.0000
 40
1.5240
  1
R7T
 72
2
 73
3
 11
195.7832
 21
87.1220
 31
0.0000
  0
LINE
  8
94
 10
203.2000
 20
78.7400
 30
0.0000
 11
198.1200
 21
78.7400
 31
0.0000
  0
TEXT
  7
ISOCP
  8
95
 10
195.7832
 20
79.5020
 30
0.0000
 40
1.5240
  1
R8B
 72
2
 73
3
 11
195.7832
 21
79.5020
 31
0.0000
  0
LINE
  8
94
 10
200.6600
 20
81.2800
 30
0.0000
 11
198.1200
 21
81.2800
 31
0.0000
  0
TEXT
  7
ISOCP
  8
95
 10
195.7832
 20
82.0420
 30
0.0000
 40
1.5240
  1
R8T
 72
2
 73
3
 11
195.7832
 21
82.0420
 31
0.0000
  0
LINE
  8
94
 10
203.2000
 20
73.6600
 30
0.0000
 11
198.1200
 21
73.6600
 31
0.0000
  0
TEXT
  7
ISOCP
  8
95
 10
195.7832
 20
74.4220
 30
0.0000
 40
1.5240
  1
R9B
 72
2
 73
3
 11
195.7832
 21
74.4220
 31
0.0000
  0
LINE
  8
94
 10
200.6600
 20
76.2000
 30
0.0000
 11
198.1200
 21
76.2000
 31
0.0000
  0
TEXT
  7
ISOCP
  8
95
 10
195.7832
 20
76.9620
 30
0.0000
 40
1.5240
  1
R9T
 72
2
 73
3
 11
195.7832
 21
76.9620
 31
0.0000
  0
LINE
  8
94
 10
203.2000
 20
68.5800
 30
0.0000
 11
198.1200
 21
68.5800
 31
0.0000
  0
TEXT
  7
ISOCP
  8
95
 10
195.7832
 20
69.3420
 30
0.0000
 40
1.5240
  1
R10B
 72
2
 73
3
 11
195.7832
 21
69.3420
 31
0.0000
  0
LINE
  8
94
 10
200.6600
 20
71.1200
 30
0.0000
 11
198.1200
 21
71.1200
 31
0.0000
  0
TEXT
  7
ISOCP
  8
95
 10
195.7832
 20
71.8820
 30
0.0000
 40
1.5240
  1
R10T
 72
2
 73
3
 11
195.7832
 21
71.8820
 31
0.0000
  0
LINE
  8
94
 10
203.2000
 20
63.5000
 30
0.0000
 11
198.1200
 21
63.5000
 31
0.0000
  0
TEXT
  7
ISOCP
  8
95
 10
195.7832
 20
64.2620
 30
0.0000
 40
1.5240
  1
R11B
 72
2
 73
3
 11
195.7832
 21
64.2620
 31
0.0000
  0
LINE
  8
94
 10
200.6600
 20
66.0400
 30
0.0000
 11
198.1200
 21
66.0400
 31
0.0000
  0
TEXT
  7
ISOCP
  8
95
 10
195.7832
 20
66.8020
 30
0.0000
 40
1.5240
  1
R11T
 72
2
 73
3
 11
195.7832
 21
66.8020
 31
0.0000
  0
LINE
  8
91
 10
170.1800
 20
170.1800
 30
0.0000
 11
43.1800
 21
170.1800
 31
0.0000
  0
TEXT
  7
ISOCP
  8
95
 10
76.2000
 20
170.1800
 30
0.0000
 40
1.7780
  1
+K1.POWER.12V
  0
LINE
  8
91
 10
167.6400
 20
167.6400
 30
0.0000
 11
43.1800
 21
167.6400
 31
0.0000
  0
TEXT
  7
ISOCP
  8
95
 10
76.2000
 20
167.6400
 30
0.0000
 40
1.7780
  1
+K2.POWER.12V
  0
LINE
  8
91
 10
203.2000
 20
50.8000
 30
0.0000
 11
327.6600
 21
50.8000
 31
0.0000
  0
TEXT
  7
ISOCP
  8
95
 10
259.0800
 20
50.8000
 30
0.0000
 40
1.7780
  1
CONSOLE.RS485.D+
  0
LINE
  8
91
 10
203.2000
 20
48.2600
 30
0.0000
 11
327.6600
 21
48.2600
 31
0.0000
  0
TEXT
  7
ISOCP
  8
95
 10
259.0800
 20
48.2600
 30
0.0000
 40
1.7780
  1
CONSOLE.RS485.D-
  0
LINE
  8
91
 10
203.2000
 20
208.2800
 30
0.0000
 11
332.7400
 21
208.2800
 31
0.0000
  0
TEXT
  7
ISOCP
  8
95
 10
266.7000
 20
208.2800
 30
0.0000
 40
1.7780
  1
CONTACTOR.RELAY.GND
  0
LINE
  8
91
 10
203.2000
 20
218.4400
 30
0.0000
 11
332.7400
 21
218.4400
 31
0.0000
  0
TEXT
  7
ISOCP
  8
95
 10
266.7000
 20
218.4400
 30
0.0000
 40
1.7780
  1
DB.RELAY.GND
  0
LINE
  8
91
 10
170.1800
 20
83.8200
 30
0.0000
 11
45.7200
 21
83.8200
 31
0.0000
  0
TEXT
  7
ISOCP
  8
95
 10
76.2000
 20
83.8200
 30
0.0000
 40
1.7780
  1
DISPLAY.RS232.TX
  0
LINE
  8
91
 10
203.2000
 20
83.8200
 30
0.0000
 11
327.6600
 21
83.8200
 31
0.0000
  0
TEXT
  7
ISOCP
  8
95
 10
259.0800
 20
83.8200
 30
0.0000
 40
1.7780
  1
DISPLAY.RS232.TX1
  0
LINE
  8
91
 10
167.6400
 20
162.5600
 30
0.0000
 11
43.1800
 21
162.5600
 31
0.0000
  0
TEXT
  7
ISOCP
  8
95
 10
76.2000
 20
162.5600
 30
0.0000
 40
1.7780
  1
DRUM.12V
  0
LINE
  8
91
 10
167.6400
 20
213.3600
 30
0.0000
 11
43.1800
 21
213.3600
 31
0.0000
  0
TEXT
  7
ISOCP
  8
95
 10
83.8200
 20
213.3600
 30
0.0000
 40
1.7780
  1
DRUM.GND
  0
LINE
  8
91
 10
170.1800
 20
78.7400
 30
0.0000
 11
45.7200
 21
78.7400
 31
0.0000
  0
TEXT
  7
ISOCP
  8
95
 10
76.2000
 20
78.7400
 30
0.0000
 40
1.7780
  1
DRUM.SIG
  0
LINE
  8
91
 10
203.2000
 20
78.7400
 30
0.0000
 11
327.6600
 21
78.7400
 31
0.0000
  0
TEXT
  7
ISOCP
  8
95
 10
259.0800
 20
78.7400
 30
0.0000
 40
1.7780
  1
DRUM.SIG1
  0
LINE
  8
91
 10
170.1800
 20
68.5800
 30
0.0000
 11
45.7200
 21
68.5800
 31
0.0000
  0
TEXT
  7
ISOCP
  8
95
 10
76.2000
 20
68.5800
 30
0.0000
 40
1.7780
  1
ENCODER.5V
  0
LINE
  8
91
 10
203.2000
 20
68.5800
 30
0.0000
 11
327.6600
 21
68.5800
 31
0.0000
  0
TEXT
  7
ISOCP
  8
95
 10
259.0800
 20
68.5800
 30
0.0000
 40
1.7780
  1
ENCODER.5V
  0
LINE
  8
91
 10
170.1800
 20
63.5000
 30
0.0000
 11
45.7200
 21
63.5000
 31
0.0000
  0
TEXT
  7
ISOCP
  8
95
 10
76.2000
 20
63.5000
 30
0.0000
 40
1.7780
  1
ENCODER.GND
  0
LINE
  8
91
 10
203.2000
 20
63.5000
 30
0.0000
 11
327.6600
 21
63.5000
 31
0.0000
  0
TEXT
  7
ISOCP
  8
95
 10
259.0800
 20
63.5000
 30
0.0000
 40
1.7780
  1
ENCODER.GND
  0
LINE
  8
91
 10
172.7200
 20
71.1200
 30
0.0000
 11
45.7200
 21
71.1200
 31
0.0000
  0
TEXT
  7
ISOCP
  8
95
 10
76.2000
 20
71.1200
 30
0.0000
 40
1.7780
  1
ENCODER.QEA
  0
LINE
  8
91
 10
200.6600
 20
71.1200
 30
0.0000
 11
327.6600
 21
71.1200
 31
0.0000
  0
TEXT
  7
ISOCP
  8
95
 10
259.0800
 20
71.1200
 30
0.0000
 40
1.7780
  1
ENCODER.QEA
  0
LINE
  8
91
 10
172.7200
 20
66.0400
 30
0.0000
 11
45.7200
 21
66.0400
 31
0.0000
  0
TEXT
  7
ISOCP
  8
95
 10
76.2000
 20
66.0400
 30
0.0000
 40
1.7780
  1
ENCODER.QEB
  0
LINE
  8
91
 10
200.6600
 20
66.0400
 30
0.0000
 11
327.6600
 21
66.0400
 31
0.0000
  0
TEXT
  7
ISOCP
  8
95
 10
259.0800
 20
66.0400
 30
0.0000
 40
1.7780
  1
ENCODER.QEB
  0
LINE
  8
91
 10
167.6400
 20
157.4800
 30
0.0000
 11
43.1800
 21
157.4800
 31
0.0000
  0
TEXT
  7
ISOCP
  8
95
 10
76.2000
 20
157.4800
 30
0.0000
 40
1.7780
  1
ENDTRAVEL.LEFT.12V
  0
LINE
  8
91
 10
167.6400
 20
208.2800
 30
0.0000
 11
43.1800
 21
208.2800
 31
0.0000
  0
TEXT
  7
ISOCP
  8
95
 10
83.8200
 20
208.2800
 30
0.0000
 40
1.7780
  1
ENDTRAVEL.LEFT.GND
  0
LINE
  8
91
 10
170.1800
 20
73.6600
 30
0.0000
 11
45.7200
 21
73.6600
 31
0.0000
  0
TEXT
  7
ISOCP
  8
95
 10
76.2000
 20
73.6600
 30
0.0000
 40
1.7780
  1
ENDTRAVEL.LEFT.SIG
  0
LINE
  8
91
 10
203.2000
 20
73.6600
 30
0.0000
 11
248.9200
 21
73.6600
 31
0.0000
  0
LINE
  8
91
 10
248.9200
 20
73.6600
 30
0.0000
 11
327.6600
 21
73.6600
 31
0.0000
  0
LINE
  8
91
 10
248.9200
 20
132.0800
 30
0.0000
 11
248.9200
 21
73.6600
 31
0.0000
  0
CIRCLE
  8
91
 10
248.9200
 20
73.6600
 30
0.0000
 40
0.5080
  0
TEXT
  7
ISOCP
  8
95
 10
259.0800
 20
73.6600
 30
0.0000
 40
1.7780
  1
ENDTRAVEL.LEFT.SIG1
  0
LINE
  8
91
 10
170.1800
 20
160.0200
 30
0.0000
 11
43.1800
 21
160.0200
 31
0.0000
  0
TEXT
  7
ISOCP
  8
95
 10
76.2000
 20
160.0200
 30
0.0000
 40
1.7780
  1
ENDTRAVEL.RIGHT.12V
  0
LINE
  8
91
 10
170.1800
 20
210.8200
 30
0.0000
 11
43.1800
 21
210.8200
 31
0.0000
  0
TEXT
  7
ISOCP
  8
95
 10
83.8200
 20
210.8200
 30
0.0000
 40
1.7780
  1
ENDTRAVEL.RIGHT.GND
  0
LINE
  8
91
 10
172.7200
 20
76.2000
 30
0.0000
 11
45.7200
 21
76.2000
 31
0.0000
  0
TEXT
  7
ISOCP
  8
95
 10
76.2000
 20
76.2000
 30
0.0000
 40
1.7780
  1
ENDTRAVEL.RIGHT.SIG
  0
LINE
  8
91
 10
200.6600
 20
76.2000
 30
0.0000
 11
238.7600
 21
76.2000
 31
0.0000
  0
LINE
  8
91
 10
238.7600
 20
76.2000
 30
0.0000
 11
327.6600
 21
76.2000
 31
0.0000
  0
LINE
  8
91
 10
238.7600
 20
132.0800
 30
0.0000
 11
238.7600
 21
76.2000
 31
0.0000
  0
CIRCLE
  8
91
 10
238.7600
 20
76.2000
 30
0.0000
 40
0.5080
  0
TEXT
  7
ISOCP
  8
95
 10
259.0800
 20
76.2000
 30
0.0000
 40
1.7780
  1
ENDTRAVEL.RIGHT.SIG1
  0
LINE
  8
91
 10
200.6600
 20
96.5200
 30
0.0000
 11
327.6600
 21
96.5200
 31
0.0000
  0
TEXT
  7
ISOCP
  8
95
 10
259.0800
 20
96.5200
 30
0.0000
 40
1.7780
  1
ESTOP.RELAY.SIG1
  0
LINE
  8
91
 10
172.7200
 20
91.4400
 30
0.0000
 11
45.7200
 21
91.4400
 31
0.0000
  0
TEXT
  7
ISOCP
  8
95
 10
76.2000
 20
91.4400
 30
0.0000
 40
1.7780
  1
ESTOP.SIG
  0
LINE
  8
91
 10
200.6600
 20
91.4400
 30
0.0000
 11
327.6600
 21
91.4400
 31
0.0000
  0
TEXT
  7
ISOCP
  8
95
 10
259.0800
 20
91.4400
 30
0.0000
 40
1.7780
  1
ESTOP.SIG1
  0
LINE
  8
91
 10
167.6400
 20
172.7200
 30
0.0000
 11
43.1800
 21
172.7200
 31
0.0000
  0
TEXT
  7
ISOCP
  8
95
 10
76.2000
 20
172.7200
 30
0.0000
 40
1.7780
  1
INTERFACE.POWER.12V
  0
LINE
  8
91
 10
167.6400
 20
223.5200
 30
0.0000
 11
43.1800
 21
223.5200
 31
0.0000
  0
TEXT
  7
ISOCP
  8
95
 10
83.8200
 20
223.5200
 30
0.0000
 40
1.7780
  1
INTERFACE.POWER.GND
  0
LINE
  8
91
 10
228.6000
 20
142.2400
 30
0.0000
 11
228.6000
 21
157.4800
 31
0.0000
  0
LINE
  8
91
 10
203.2000
 20
157.4800
 30
0.0000
 11
228.6000
 21
157.4800
 31
0.0000
  0
LINE
  8
91
 10
200.6600
 20
170.1800
 30
0.0000
 11
355.6000
 21
170.1800
 31
0.0000
  0
TEXT
  7
ISOCP
  8
95
 10
266.7000
 20
170.1800
 30
0.0000
 40
1.7780
  1
JOGLEFT.12V
  0
LINE
  8
91
 10
170.1800
 20
114.3000
 30
0.0000
 11
45.7200
 21
114.3000
 31
0.0000
  0
TEXT
  7
ISOCP
  8
95
 10
76.2000
 20
114.3000
 30
0.0000
 40
1.7780
  1
JOGLEFT.SIG
  0
LINE
  8
91
 10
203.2000
 20
114.3000
 30
0.0000
 11
327.6600
 21
114.3000
 31
0.0000
  0
TEXT
  7
ISOCP
  8
95
 10
259.0800
 20
114.3000
 30
0.0000
 40
1.7780
  1
JOGLEFT.SIG1
  0
LINE
  8
91
 10
203.2000
 20
172.7200
 30
0.0000
 11
355.6000
 21
172.7200
 31
0.0000
  0
TEXT
  7
ISOCP
  8
95
 10
266.7000
 20
172.7200
 30
0.0000
 40
1.7780
  1
JOGRIGHT.12V
  0
LINE
  8
91
 10
172.7200
 20
116.8400
 30
0.0000
 11
45.7200
 21
116.8400
 31
0.0000
  0
TEXT
  7
ISOCP
  8
95
 10
76.2000
 20
116.8400
 30
0.0000
 40
1.7780
  1
JOGRIGHT.SIG
  0
LINE
  8
91
 10
200.6600
 20
116.8400
 30
0.0000
 11
327.6600
 21
116.8400
 31
0.0000
  0
TEXT
  7
ISOCP
  8
95
 10
259.0800
 20
116.8400
 30
0.0000
 40
1.7780
  1
JOGRIGHT.SIG1
  0
LINE
  8
91
 10
170.1800
 20
165.1000
 30
0.0000
 11
43.1800
 21
165.1000
 31
0.0000
  0
TEXT
  7
ISOCP
  8
95
 10
76.2000
 20
165.1000
 30
0.0000
 40
1.7780
  1
JOYSTICK.12V
  0
LINE
  8
91
 10
172.7200
 20
86.3600
 30
0.0000
 11
45.7200
 21
86.3600
 31
0.0000
  0
TEXT
  7
ISOCP
  8
95
 10
76.2000
 20
86.3600
 30
0.0000
 40
1.7780
  1
JOYSTICK.FORWARD.SIG
  0
LINE
  8
91
 10
200.6600
 20
86.3600
 30
0.0000
 11
327.6600
 21
86.3600
 31
0.0000
  0
TEXT
  7
ISOCP
  8
95
 10
259.0800
 20
86.3600
 30
0.0000
 40
1.7780
  1
JOYSTICK.FORWARD.SIG1
  0
LINE
  8
91
 10
170.1800
 20
88.9000
 30
0.0000
 11
45.7200
 21
88.9000
 31
0.0000
  0
TEXT
  7
ISOCP
  8
95
 10
76.2000
 20
88.9000
 30
0.0000
 40
1.7780
  1
JOYSTICK.REVERSE.SIG
  0
LINE
  8
91
 10
203.2000
 20
88.9000
 30
0.0000
 11
327.6600
 21
88.9000
 31
0.0000
  0
TEXT
  7
ISOCP
  8
95
 10
259.0800
 20
88.9000
 30
0.0000
 40
1.7780
  1
JOYSTICK.REVERSE.SIG1
  0
LINE
  8
91
 10
170.1800
 20
93.9800
 30
0.0000
 11
45.7200
 21
93.9800
 31
0.0000
  0
TEXT
  7
ISOCP
  8
95
 10
76.2000
 20
93.9800
 30
0.0000
 40
1.7780
  1
JOYSTICK.SIG
  0
LINE
  8
91
 10
203.2000
 20
93.9800
 30
0.0000
 11
327.6600
 21
93.9800
 31
0.0000
  0
TEXT
  7
ISOCP
  8
95
 10
259.0800
 20
93.9800
 30
0.0000
 40
1.7780
  1
JOYSTICK.SIG1
  0
LINE
  8
91
 10
200.6600
 20
220.9800
 30
0.0000
 11
332.7400
 21
220.9800
 31
0.0000
  0
TEXT
  7
ISOCP
  8
95
 10
266.7000
 20
220.9800
 30
0.0000
 40
1.7780
  1
LEESON.GND
  0
LINE
  8
91
 10
172.7200
 20
106.6800
 30
0.0000
 11
45.7200
 21
106.6800
 31
0.0000
  0
TEXT
  7
ISOCP
  8
95
 10
76.2000
 20
106.6800
 30
0.0000
 40
1.7780
  1
LEESON.RUN.FORWARD.SIG
  0
LINE
  8
91
 10
200.6600
 20
106.6800
 30
0.0000
 11
297.1800
 21
106.6800
 31
0.0000
  0
LINE
  8
91
 10
297.1800
 20
106.6800
 30
0.0000
 11
327.6600
 21
106.6800
 31
0.0000
  0
LINE
  8
91
 10
297.1800
 20
132.0800
 30
0.0000
 11
297.1800
 21
106.6800
 31
0.0000
  0
CIRCLE
  8
91
 10
297.1800
 20
106.6800
 30
0.0000
 40
0.5080
  0
TEXT
  7
ISOCP
  8
95
 10
259.0800
 20
106.6800
 30
0.0000
 40
1.7780
  1
LEESON.RUN.FORWARD.SIG1
  0
LINE
  8
91
 10
170.1800
 20
104.1400
 30
0.0000
 11
45.7200
 21
104.1400
 31
0.0000
  0
TEXT
  7
ISOCP
  8
95
 10
76.2000
 20
104.1400
 30
0.0000
 40
1.7780
  1
LEESON.RUN.REVERSE.SIG
  0
LINE
  8
91
 10
203.2000
 20
104.1400
 30
0.0000
 11
307.3400
 21
104.1400
 31
0.0000
  0
LINE
  8
91
 10
307.3400
 20
104.1400
 30
0.0000
 11
327.6600
 21
104.1400
 31
0.0000
  0
LINE
  8
91
 10
307.3400
 20
132.0800
 30
0.0000
 11
307.3400
 21
104.1400
 31
0.0000
  0
CIRCLE
  8
91
 10
307.3400
 20
104.1400
 30
0.0000
 40
0.5080
  0
TEXT
  7
ISOCP
  8
95
 10
259.0800
 20
104.1400
 30
0.0000
 40
1.7780
  1
LEESON.RUN.REVERSE.SIG1
  0
LINE
  8
91
 10
170.1800
 20
109.2200
 30
0.0000
 11
45.7200
 21
109.2200
 31
0.0000
  0
TEXT
  7
ISOCP
  8
95
 10
76.2000
 20
109.2200
 30
0.0000
 40
1.7780
  1
LEESON.SPEED.SIG
  0
LINE
  8
91
 10
203.2000
 20
109.2200
 30
0.0000
 11
327.6600
 21
109.2200
 31
0.0000
  0
TEXT
  7
ISOCP
  8
95
 10
259.0800
 20
109.2200
 30
0.0000
 40
1.7780
  1
LEESON.SPEED.SIG1
  0
LINE
  8
91
 10
238.7600
 20
160.0200
 30
0.0000
 11
238.7600
 21
142.2400
 31
0.0000
  0
LINE
  8
91
 10
200.6600
 20
160.0200
 30
0.0000
 11
238.7600
 21
160.0200
 31
0.0000
  0
LINE
  8
91
 10
248.9200
 20
142.2400
 30
0.0000
 11
248.9200
 21
162.5600
 31
0.0000
  0
LINE
  8
91
 10
203.2000
 20
162.5600
 30
0.0000
 11
248.9200
 21
162.5600
 31
0.0000
  0
LINE
  8
91
 10
297.1800
 20
142.2400
 30
0.0000
 11
297.1800
 21
210.8200
 31
0.0000
  0
LINE
  8
91
 10
200.6600
 20
210.8200
 30
0.0000
 11
297.1800
 21
210.8200
 31
0.0000
  0
LINE
  8
91
 10
307.3400
 20
213.3600
 30
0.0000
 11
307.3400
 21
142.2400
 31
0.0000
  0
LINE
  8
91
 10
203.2000
 20
213.3600
 30
0.0000
 11
307.3400
 21
213.3600
 31
0.0000
  0
LINE
  8
91
 10
317.5000
 20
142.2400
 30
0.0000
 11
317.5000
 21
215.9000
 31
0.0000
  0
LINE
  8
91
 10
200.6600
 20
215.9000
 30
0.0000
 11
317.5000
 21
215.9000
 31
0.0000
  0
LINE
  8
91
 10
170.1800
 20
215.9000
 30
0.0000
 11
43.1800
 21
215.9000
 31
0.0000
  0
TEXT
  7
ISOCP
  8
95
 10
83.8200
 20
215.9000
 30
0.0000
 40
1.7780
  1
PENDANT.GND
  0
LINE
  8
91
 10
170.1800
 20
175.2600
 30
0.0000
 11
43.1800
 21
175.2600
 31
0.0000
  0
TEXT
  7
ISOCP
  8
95
 10
76.2000
 20
175.2600
 30
0.0000
 40
1.7780
  1
RABBIT.POWER.12V
  0
LINE
  8
91
 10
170.1800
 20
226.0600
 30
0.0000
 11
43.1800
 21
226.0600
 31
0.0000
  0
TEXT
  7
ISOCP
  8
95
 10
83.8200
 20
226.0600
 30
0.0000
 40
1.7780
  1
RABBIT.POWER.GND
  0
LINE
  8
91
 10
172.7200
 20
81.2800
 30
0.0000
 11
45.7200
 21
81.2800
 31
0.0000
  0
TEXT
  7
ISOCP
  8
95
 10
76.2000
 20
81.2800
 30
0.0000
 40
1.7780
  1
RESET.SIG
  0
LINE
  8
91
 10
200.6600
 20
81.2800
 30
0.0000
 11
327.6600
 21
81.2800
 31
0.0000
  0
TEXT
  7
ISOCP
  8
95
 10
259.0800
 20
81.2800
 30
0.0000
 40
1.7780
  1
RESET.SIG1
  0
LINE
  8
91
 10
170.1800
 20
99.0600
 30
0.0000
 11
45.7200
 21
99.0600
 31
0.0000
  0
TEXT
  7
ISOCP
  8
95
 10
76.2000
 20
99.0600
 30
0.0000
 40
1.7780
  1
STEPPER.DRV.DIR+
  0
LINE
  8
91
 10
203.2000
 20
99.0600
 30
0.0000
 11
327.6600
 21
99.0600
 31
0.0000
  0
TEXT
  7
ISOCP
  8
95
 10
259.0800
 20
99.0600
 30
0.0000
 40
1.7780
  1
STEPPER.DRV.DIR+1
  0
LINE
  8
91
 10
172.7200
 20
101.6000
 30
0.0000
 11
45.7200
 21
101.6000
 31
0.0000
  0
TEXT
  7
ISOCP
  8
95
 10
76.2000
 20
101.6000
 30
0.0000
 40
1.7780
  1
STEPPER.DRV.STEP+
  0
LINE
  8
91
 10
200.6600
 20
101.6000
 30
0.0000
 11
228.6000
 21
101.6000
 31
0.0000
  0
LINE
  8
91
 10
228.6000
 20
101.6000
 30
0.0000
 11
327.6600
 21
101.6000
 31
0.0000
  0
LINE
  8
91
 10
228.6000
 20
132.0800
 30
0.0000
 11
228.6000
 21
101.6000
 31
0.0000
  0
CIRCLE
  8
91
 10
228.6000
 20
101.6000
 30
0.0000
 40
0.5080
  0
TEXT
  7
ISOCP
  8
95
 10
259.0800
 20
101.6000
 30
0.0000
 40
1.7780
  1
STEPPER.DRV.STEP+1
  0
LINE
  8
91
 10
203.2000
 20
223.5200
 30
0.0000
 11
332.7400
 21
223.5200
 31
0.0000
  0
TEXT
  7
ISOCP
  8
95
 10
266.7000
 20
223.5200
 30
0.0000
 40
1.7780
  1
STEPPER.DRV.STEP-
  0
LINE
  8
91
 10
200.6600
 20
175.2600
 30
0.0000
 11
355.6000
 21
175.2600
 31
0.0000
  0
TEXT
  7
ISOCP
  8
95
 10
266.7000
 20
175.2600
 30
0.0000
 40
1.7780
  1
SYSTEM.POWER.12V
  0
LINE
  8
91
 10
200.6600
 20
226.0600
 30
0.0000
 11
332.7400
 21
226.0600
 31
0.0000
  0
TEXT
  7
ISOCP
  8
95
 10
266.7000
 20
226.0600
 30
0.0000
 40
1.7780
  1
SYSTEM.POWER.GND
  0
LINE
  8
91
 10
203.2000
 20
167.6400
 30
0.0000
 11
355.6000
 21
167.6400
 31
0.0000
  0
TEXT
  7
ISOCP
  8
95
 10
266.7000
 20
167.6400
 30
0.0000
 40
1.7780
  1
THERMISTOR.12V
  0
LINE
  8
91
 10
172.7200
 20
111.7600
 30
0.0000
 11
45.7200
 21
111.7600
 31
0.0000
  0
TEXT
  7
ISOCP
  8
95
 10
76.2000
 20
111.7600
 30
0.0000
 40
1.7780
  1
THERMISTOR.SIG
  0
LINE
  8
91
 10
200.6600
 20
111.7600
 30
0.0000
 11
317.5000
 21
111.7600
 31
0.0000
  0
LINE
  8
91
 10
317.5000
 20
111.7600
 30
0.0000
 11
327.6600
 21
111.7600
 31
0.0000
  0
LINE
  8
91
 10
317.5000
 20
132.0800
 30
0.0000
 11
317.5000
 21
111.7600
 31
0.0000
  0
CIRCLE
  8
91
 10
317.5000
 20
111.7600
 30
0.0000
 40
0.5080
  0
TEXT
  7
ISOCP
  8
95
 10
259.0800
 20
111.7600
 30
0.0000
 40
1.7780
  1
THERMISTOR.SIG1
  0
ENDSEC
  0
EOF
