  0
SECTION
  2
HEADER
  9
$ACADVER
  1
AC1009
  9
$FILLMODE
 70
0
  9
$EXTMIN
 10
-0.020000
 20
-0.023333
 30
0.000000
  9
$EXTMAX
 10
15.285412
 20
10.273333
 30
0.000000
  0
ENDSEC
  0
SECTION
  2
TABLES
  0
TABLE
  2
LTYPE
 70
1
  0
LTYPE
  2
CONTINUOUS
 70
64
  3
Solid line
 72
65
 73
0
 40
0
  0
ENDTAB
  0
TABLE
  2
LAYER
 70
255
  0
LAYER
  2
91
 70
64
 62
94
  6
CONTINUOUS
  0
LAYER
  2
92
 70
64
 62
174
  6
CONTINUOUS
  0
LAYER
  2
94
 70
64
 62
14
  6
CONTINUOUS
  0
LAYER
  2
95
 70
64
 62
251
  6
CONTINUOUS
  0
LAYER
  2
96
 70
64
 62
251
  6
CONTINUOUS
  0
LAYER
  2
97
 70
64
 62
251
  6
CONTINUOUS
  0
LAYER
  2
98
 70
64
 62
54
  6
CONTINUOUS
  0
LAYER
  2
199
 70
64
 62
251
  6
CONTINUOUS
  0
LAYER
  2
200
 70
64
 62
174
  6
CONTINUOUS
  0
ENDTAB
  0
ENDSEC
  0
SECTION
  2
BLOCKS
  0
BLOCK
  8
0
  2
RECT
 70
64
 10
0.000000
 20
0.000000
 30
0.000000
  3
RECT
  0
SOLID
  8
0
 10
-0.500000
 20
-0.500000
 30
0.000000
 11
0.500000
 21
-0.500000
 31
0.000000
 12
-0.500000
 22
0.500000
 32
0.000000
 13
0.500000
 23
0.500000
 33
0.000000
  0
ENDBLK
  8
0
  0
BLOCK
  8
0
  2
PIE
 70
64
 10
0.000000
 20
0.000000
 30
0.000000
  3
PIE
  0
CIRCLE
  8
0
 10
0.000000
 20
0.000000
 30
0.000000
 40
0.500000
  0
ENDBLK
  8
0
  0
ENDSEC
  0
SECTION
  2
ENTITIES
  0
TEXT
  7
ISOCP
  8
94
 10
9.400000
 20
8.400000
 30
0.000000
 40
0.150000
  1
STEPPER MOTOR
  0
TEXT
  7
ISOCP
  8
94
 10
12.200000
 20
7.700000
 30
0.000000
 40
0.070000
  1
BK
  0
TEXT
  7
ISOCP
  8
94
 10
11.100000
 20
6.200000
 30
0.000000
 40
0.070000
  1
BK OR/WH
  0
TEXT
  7
ISOCP
  8
94
 10
9.600000
 20
5.900000
 30
0.000000
 40
0.070000
  1
BK1
  0
TEXT
  7
ISOCP
  8
94
 10
9.600000
 20
6.800000
 30
0.000000
 40
0.070000
  1
BK
  0
TEXT
  7
ISOCP
  8
94
 10
9.600000
 20
5.700000
 30
0.000000
 40
0.070000
  1
BK2
  0
TEXT
  7
ISOCP
  8
94
 10
9.600000
 20
6.600000
 30
0.000000
 40
0.070000
  1
RD
  0
TEXT
  7
ISOCP
  8
94
 10
11.100000
 20
6.000000
 30
0.000000
 40
0.070000
  1
RD YL/WH
  0
TEXT
  7
ISOCP
  8
94
 10
12.200000
 20
7.500000
 30
0.000000
 40
0.070000
  1
RD
  0
TEXT
  7
ISOCP
  8
94
 10
11.100000
 20
6.100000
 30
0.000000
 40
0.070000
  1
OR BK/WH
  0
TEXT
  7
ISOCP
  8
94
 10
11.100000
 20
5.900000
 30
0.000000
 40
0.070000
  1
YL RD/WH
  0
TEXT
  7
ISOCP
  8
94
 10
9.600000
 20
6.500000
 30
0.000000
 40
0.070000
  1
GN
  0
TEXT
  7
ISOCP
  8
94
 10
12.200000
 20
7.400000
 30
0.000000
 40
0.070000
  1
GN
  0
TEXT
  7
ISOCP
  8
94
 10
9.600000
 20
6.700000
 30
0.000000
 40
0.070000
  1
WH
  0
TEXT
  7
ISOCP
  8
94
 10
12.200000
 20
7.600000
 30
0.000000
 40
0.070000
  1
WH
  0
TEXT
  7
ISOCP
  8
94
 10
9.600000
 20
6.000000
 30
0.000000
 40
0.070000
  1
RD1
  0
TEXT
  7
ISOCP
  8
94
 10
9.600000
 20
5.800000
 30
0.000000
 40
0.070000
  1
RD2
  0
TEXT
  7
ISOCP
  8
94
 10
9.100000
 20
6.500000
 30
0.000000
 40
0.100000
  1
ENOCDER CABLE
 50
90.000000
  0
TEXT
  7
ISOCP
  8
94
 10
9.000000
 20
6.100000
 30
0.000000
 40
0.100000
  1
STEPPER MOTOR CABLE
 50
90.000000
 72
2
 73
3
 11
9.000000
 21
6.100000
 31
0.000000
  0
TEXT
  7
ISOCP
  8
94
 10
9.300000
 20
6.500000
 30
0.000000
 40
0.100000
  1
see sheet 1
 50
90.000000
  0
TEXT
  7
ISOCP
  8
94
 10
9.200000
 20
6.100000
 30
0.000000
 40
0.100000
  1
see sheet 1
 50
90.000000
 72
2
 73
3
 11
9.200000
 21
6.100000
 31
0.000000
  0
TEXT
  7
ISOCP
  8
94
 10
9.800000
 20
4.500000
 30
0.000000
 40
0.100000
  1
Terminal block on end plate,
  0
TEXT
  7
ISOCP
  8
94
 10
9.800000
 20
4.350000
 30
0.000000
 40
0.100000
  1
424-100-036 in LW drive motor assembly
  0
TEXT
  7
ISOCP
  8
94
 10
9.800000
 20
3.950000
 30
0.000000
 40
0.100000
  1
through rubber grommet in end plate
  0
TEXT
  7
ISOCP
  8
94
 10
9.800000
 20
4.100000
 30
0.000000
 40
0.100000
  1
Route wires from motor and encoder
  0
TEXT
  7
ISOCP
  8
94
 10
1.600000
 20
7.800000
 30
0.000000
 40
0.076000
  1
REMOTE BOX 361-100-035
  0
TEXT
  7
ISOCP
  8
94
 10
1.500000
 20
8.000000
 30
0.000000
 40
0.150000
  1
REMOTE PENDANT
  0
TEXT
  7
ISOCP
  8
94
 10
0.200000
 20
6.900000
 30
0.000000
 40
0.076000
  1
TO MAIN BOX
 50
90.000000
 72
2
 73
3
 11
0.200000
 21
6.900000
 31
0.000000
  0
TEXT
  7
ISOCP
  8
94
 10
1.300000
 20
6.000000
 30
0.000000
 40
0.076000
  1
CABLE THROUGH GLAND
  0
TEXT
  7
ISOCP
  8
94
 10
7.300000
 20
5.500000
 30
0.000000
 40
0.070000
  1
Counter Reset
  0
TEXT
  7
ISOCP
  8
94
 10
1.300000
 20
5.900000
 30
0.000000
 40
0.076000
  1
FITTING WITH STRAIN RELIEF
  0
TEXT
  7
ISOCP
  8
94
 10
5.600000
 20
5.500000
 30
0.000000
 40
0.070000
  1
BK
 50
90.000000
  0
TEXT
  7
ISOCP
  8
94
 10
6.700000
 20
3.800000
 30
0.000000
 40
0.070000
  1
BK
  0
TEXT
  7
ISOCP
  8
94
 10
6.800000
 20
7.300000
 30
0.000000
 40
0.070000
  1
BK
  0
TEXT
  7
ISOCP
  8
94
 10
6.800000
 20
7.200000
 30
0.000000
 40
0.070000
  1
RD
  0
TEXT
  7
ISOCP
  8
94
 10
3.900000
 20
6.800000
 30
0.000000
 40
0.070000
  1
RD
  0
TEXT
  7
ISOCP
  8
94
 10
8.300000
 20
4.500000
 30
0.000000
 40
0.070000
  1
WH
  0
TEXT
  7
ISOCP
  8
94
 10
6.700000
 20
4.300000
 30
0.000000
 40
0.070000
  1
WH
  0
TEXT
  7
ISOCP
  8
94
 10
6.700000
 20
4.600000
 30
0.000000
 40
0.070000
  1
WH
  0
TEXT
  7
ISOCP
  8
94
 10
4.500000
 20
7.300000
 30
0.000000
 40
0.070000
  1
WH
 50
90.000000
  0
TEXT
  7
ISOCP
  8
94
 10
6.700000
 20
4.000000
 30
0.000000
 40
0.070000
  1
BL
  0
TEXT
  7
ISOCP
  8
94
 10
5.500000
 20
8.000000
 30
0.000000
 40
0.070000
  1
BN
  0
TEXT
  7
ISOCP
  8
94
 10
8.300000
 20
3.800000
 30
0.000000
 40
0.070000
  1
YL
  0
TEXT
  7
ISOCP
  8
94
 10
6.800000
 20
7.100000
 30
0.000000
 40
0.070000
  1
GN
  0
TEXT
  7
ISOCP
  8
94
 10
8.300000
 20
4.200000
 30
0.000000
 40
0.070000
  1
OR
  0
TEXT
  7
ISOCP
  8
94
 10
6.100000
 20
2.900000
 30
0.000000
 40
0.100000
  1
JOYSTICK
  0
TEXT
  7
ISOCP
  8
94
 10
6.100000
 20
2.750000
 30
0.000000
 40
0.100000
  1
A = forward; B = reverse
  0
TEXT
  7
ISOCP
  8
94
 10
6.100000
 20
2.600000
 30
0.000000
 40
0.100000
  1
A is S1 and B is S2
  0
TEXT
  7
ISOCP
  8
94
 10
1.000000
 20
7.100000
 30
0.000000
 40
0.076000
  1
SOOW 20/8, shld, 12'
  0
TEXT
  7
ISOCP
  8
94
 10
1.100000
 20
6.920000
 30
0.000000
 40
0.070000
  1
GN P1_SPD
 72
2
 73
3
 11
1.100000
 21
6.920000
 31
0.000000
  0
TEXT
  7
ISOCP
  8
94
 10
1.100000
 20
6.830000
 30
0.000000
 40
0.070000
  1
RD P2_STIN
 72
2
 73
3
 11
1.100000
 21
6.830000
 31
0.000000
  0
TEXT
  7
ISOCP
  8
94
 10
1.100000
 20
6.730000
 30
0.000000
 40
0.070000
  1
BK GND
 72
2
 73
3
 11
1.100000
 21
6.730000
 31
0.000000
  0
TEXT
  7
ISOCP
  8
94
 10
1.100000
 20
6.630000
 30
0.000000
 40
0.070000
  1
WT P4_JRUN
 72
2
 73
3
 11
1.100000
 21
6.630000
 31
0.000000
  0
TEXT
  7
ISOCP
  8
94
 10
1.100000
 20
6.530000
 30
0.000000
 40
0.070000
  1
YL P5_JWPR
 72
2
 73
3
 11
1.100000
 21
6.530000
 31
0.000000
  0
TEXT
  7
ISOCP
  8
94
 10
1.100000
 20
6.440000
 30
0.000000
 40
0.070000
  1
BL P6_RESET
 72
2
 73
3
 11
1.100000
 21
6.440000
 31
0.000000
  0
TEXT
  7
ISOCP
  8
94
 10
1.100000
 20
6.340000
 30
0.000000
 40
0.070000
  1
BN P7_+12V
 72
2
 73
3
 11
1.100000
 21
6.340000
 31
0.000000
  0
TEXT
  7
ISOCP
  8
94
 10
1.100000
 20
6.230000
 30
0.000000
 40
0.070000
  1
OR P8_JDIR
 72
2
 73
3
 11
1.100000
 21
6.230000
 31
0.000000
  0
TEXT
  7
ISOCP
  8
94
 10
1.800000
 20
6.900000
 30
0.000000
 40
0.070000
  1
GN
  0
TEXT
  7
ISOCP
  8
94
 10
1.800000
 20
6.800000
 30
0.000000
 40
0.070000
  1
RD
  0
TEXT
  7
ISOCP
  8
94
 10
1.800000
 20
6.700000
 30
0.000000
 40
0.070000
  1
BK
  0
TEXT
  7
ISOCP
  8
94
 10
1.800000
 20
6.600000
 30
0.000000
 40
0.070000
  1
WT
  0
TEXT
  7
ISOCP
  8
94
 10
1.800000
 20
6.500000
 30
0.000000
 40
0.070000
  1
YL
  0
TEXT
  7
ISOCP
  8
94
 10
1.800000
 20
6.400000
 30
0.000000
 40
0.070000
  1
BL
  0
TEXT
  7
ISOCP
  8
94
 10
1.800000
 20
6.300000
 30
0.000000
 40
0.070000
  1
BN
  0
TEXT
  7
ISOCP
  8
94
 10
1.800000
 20
6.200000
 30
0.000000
 40
0.070000
  1
OR
  0
TEXT
  7
ISOCP
  8
94
 10
13.200000
 20
0.200000
 30
0.000000
 40
0.070000
  1
MJC
  0
TEXT
  7
ISOCP
  8
94
 10
13.300000
 20
0.400000
 30
0.000000
 40
0.070000
  1
JOYBOX WIRING DIAGRAM
  0
LINE
  8
94
 10
3.700000
 20
7.100000
 30
0.000000
 11
3.800000
 21
7.100000
 31
0.000000
  0
LINE
  8
94
 10
4.000000
 20
7.100000
 30
0.000000
 11
3.900000
 21
7.100000
 31
0.000000
  0
INSERT
  8
94
  2
RECT
 10
3.890000
 20
7.100000
 30
0.000000
 41
0.160000
 42
0.020000
 43
1.000000
 50
90.000000
  0
INSERT
  8
94
  2
RECT
 10
3.810000
 20
7.100000
 30
0.000000
 41
0.160000
 42
0.020000
 43
1.000000
 50
90.000000
  0
TEXT
  7
ISOCP
  8
95
 10
3.840000
 20
7.285000
 30
0.000000
 40
0.070000
  1
C1
 72
2
 73
3
 11
3.840000
 21
7.285000
 31
0.000000
  0
TEXT
  7
ISOCP
  8
96
 10
3.840000
 20
6.985000
 30
0.000000
 40
0.070000
  1
10
 72
2
 73
3
 11
3.840000
 21
6.985000
 31
0.000000
  0
LINE
  8
94
 10
0.000000
 20
0.000000
 30
0.000000
 11
2.000000
 21
0.000000
 31
0.000000
  0
LINE
  8
94
 10
2.000000
 20
0.000000
 30
0.000000
 11
3.875000
 21
0.000000
 31
0.000000
  0
LINE
  8
94
 10
3.875000
 20
0.000000
 30
0.000000
 11
5.750000
 21
0.000000
 31
0.000000
  0
LINE
  8
94
 10
5.750000
 20
0.000000
 30
0.000000
 11
7.625000
 21
0.000000
 31
0.000000
  0
LINE
  8
94
 10
7.625000
 20
0.000000
 30
0.000000
 11
9.500000
 21
0.000000
 31
0.000000
  0
LINE
  8
94
 10
9.500000
 20
0.000000
 30
0.000000
 11
11.375000
 21
0.000000
 31
0.000000
  0
LINE
  8
94
 10
11.375000
 20
0.000000
 30
0.000000
 11
13.250000
 21
0.000000
 31
0.000000
  0
LINE
  8
94
 10
13.250000
 20
0.000000
 30
0.000000
 11
15.250000
 21
0.000000
 31
0.000000
  0
LINE
  8
94
 10
15.250000
 20
0.000000
 30
0.000000
 11
15.250000
 21
2.125000
 31
0.000000
  0
LINE
  8
94
 10
15.250000
 20
2.125000
 30
0.000000
 11
15.250000
 21
4.125000
 31
0.000000
  0
LINE
  8
94
 10
15.250000
 20
4.125000
 30
0.000000
 11
15.250000
 21
6.125000
 31
0.000000
  0
LINE
  8
94
 10
15.250000
 20
6.125000
 30
0.000000
 11
15.250000
 21
8.125000
 31
0.000000
  0
LINE
  8
94
 10
15.250000
 20
8.125000
 30
0.000000
 11
15.250000
 21
10.250000
 31
0.000000
  0
LINE
  8
94
 10
5.750000
 20
10.250000
 30
0.000000
 11
3.875000
 21
10.250000
 31
0.000000
  0
LINE
  8
94
 10
3.875000
 20
10.250000
 30
0.000000
 11
2.000000
 21
10.250000
 31
0.000000
  0
LINE
  8
94
 10
2.000000
 20
10.250000
 30
0.000000
 11
0.000000
 21
10.250000
 31
0.000000
  0
LINE
  8
94
 10
0.000000
 20
10.250000
 30
0.000000
 11
0.000000
 21
8.125000
 31
0.000000
  0
LINE
  8
94
 10
0.000000
 20
8.125000
 30
0.000000
 11
0.000000
 21
6.125000
 31
0.000000
  0
LINE
  8
94
 10
0.000000
 20
6.125000
 30
0.000000
 11
0.000000
 21
4.125000
 31
0.000000
  0
LINE
  8
94
 10
0.000000
 20
4.125000
 30
0.000000
 11
0.000000
 21
2.125000
 31
0.000000
  0
LINE
  8
94
 10
0.000000
 20
2.125000
 30
0.000000
 11
0.000000
 21
0.000000
 31
0.000000
  0
LINE
  8
94
 10
0.125000
 20
0.125000
 30
0.000000
 11
2.000000
 21
0.125000
 31
0.000000
  0
LINE
  8
94
 10
2.000000
 20
0.125000
 30
0.000000
 11
3.875000
 21
0.125000
 31
0.000000
  0
LINE
  8
94
 10
3.875000
 20
0.125000
 30
0.000000
 11
5.750000
 21
0.125000
 31
0.000000
  0
LINE
  8
94
 10
5.750000
 20
0.125000
 30
0.000000
 11
7.625000
 21
0.125000
 31
0.000000
  0
LINE
  8
94
 10
7.625000
 20
0.125000
 30
0.000000
 11
9.500000
 21
0.125000
 31
0.000000
  0
LINE
  8
94
 10
9.500000
 20
0.125000
 30
0.000000
 11
11.375000
 21
0.125000
 31
0.000000
  0
LINE
  8
94
 10
11.375000
 20
0.125000
 30
0.000000
 11
12.100000
 21
0.125000
 31
0.000000
  0
LINE
  8
94
 10
13.250000
 20
0.125000
 30
0.000000
 11
12.100000
 21
0.125000
 31
0.000000
  0
LINE
  8
94
 10
12.100000
 20
0.125000
 30
0.000000
 11
14.425000
 21
0.125000
 31
0.000000
  0
LINE
  8
94
 10
14.425000
 20
0.125000
 30
0.000000
 11
15.125000
 21
0.125000
 31
0.000000
  0
LINE
  8
94
 10
15.125000
 20
0.125000
 30
0.000000
 11
15.125000
 21
0.325000
 31
0.000000
  0
LINE
  8
94
 10
15.125000
 20
0.325000
 30
0.000000
 11
15.125000
 21
0.525000
 31
0.000000
  0
LINE
  8
94
 10
15.125000
 20
0.525000
 30
0.000000
 11
15.125000
 21
0.725000
 31
0.000000
  0
LINE
  8
94
 10
15.125000
 20
0.725000
 30
0.000000
 11
15.125000
 21
0.925000
 31
0.000000
  0
LINE
  8
94
 10
15.125000
 20
0.925000
 30
0.000000
 11
15.125000
 21
2.125000
 31
0.000000
  0
LINE
  8
94
 10
15.125000
 20
2.125000
 30
0.000000
 11
15.125000
 21
4.125000
 31
0.000000
  0
LINE
  8
94
 10
15.125000
 20
4.125000
 30
0.000000
 11
15.125000
 21
6.125000
 31
0.000000
  0
LINE
  8
94
 10
15.125000
 20
6.125000
 30
0.000000
 11
15.125000
 21
8.125000
 31
0.000000
  0
LINE
  8
94
 10
15.125000
 20
8.125000
 30
0.000000
 11
15.125000
 21
10.125000
 31
0.000000
  0
LINE
  8
94
 10
15.125000
 20
10.125000
 30
0.000000
 11
13.250000
 21
10.125000
 31
0.000000
  0
LINE
  8
94
 10
13.250000
 20
10.125000
 30
0.000000
 11
11.375000
 21
10.125000
 31
0.000000
  0
LINE
  8
94
 10
11.375000
 20
10.125000
 30
0.000000
 11
9.500000
 21
10.125000
 31
0.000000
  0
LINE
  8
94
 10
9.500000
 20
10.125000
 30
0.000000
 11
7.625000
 21
10.125000
 31
0.000000
  0
LINE
  8
94
 10
7.625000
 20
10.125000
 30
0.000000
 11
5.750000
 21
10.125000
 31
0.000000
  0
LINE
  8
94
 10
5.750000
 20
10.125000
 30
0.000000
 11
3.875000
 21
10.125000
 31
0.000000
  0
LINE
  8
94
 10
3.875000
 20
10.125000
 30
0.000000
 11
2.000000
 21
10.125000
 31
0.000000
  0
LINE
  8
94
 10
2.000000
 20
10.125000
 30
0.000000
 11
0.125000
 21
10.125000
 31
0.000000
  0
LINE
  8
94
 10
0.125000
 20
10.125000
 30
0.000000
 11
0.125000
 21
8.125000
 31
0.000000
  0
LINE
  8
94
 10
0.125000
 20
8.125000
 30
0.000000
 11
0.125000
 21
6.125000
 31
0.000000
  0
LINE
  8
94
 10
0.125000
 20
6.125000
 30
0.000000
 11
0.125000
 21
4.125000
 31
0.000000
  0
LINE
  8
94
 10
0.125000
 20
4.125000
 30
0.000000
 11
0.125000
 21
2.125000
 31
0.000000
  0
LINE
  8
94
 10
0.125000
 20
2.125000
 30
0.000000
 11
0.125000
 21
0.125000
 31
0.000000
  0
LINE
  8
94
 10
15.250000
 20
10.250000
 30
0.000000
 11
13.250000
 21
10.250000
 31
0.000000
  0
LINE
  8
94
 10
13.250000
 20
10.250000
 30
0.000000
 11
11.375000
 21
10.250000
 31
0.000000
  0
LINE
  8
94
 10
11.375000
 20
10.250000
 30
0.000000
 11
9.500000
 21
10.250000
 31
0.000000
  0
LINE
  8
94
 10
9.500000
 20
10.250000
 30
0.000000
 11
7.625000
 21
10.250000
 31
0.000000
  0
LINE
  8
94
 10
7.625000
 20
10.250000
 30
0.000000
 11
5.750000
 21
10.250000
 31
0.000000
  0
LINE
  8
94
 10
7.625000
 20
10.250000
 30
0.000000
 11
7.625000
 21
10.125000
 31
0.000000
  0
LINE
  8
94
 10
7.625000
 20
0.125000
 30
0.000000
 11
7.625000
 21
0.000000
 31
0.000000
  0
LINE
  8
94
 10
0.000000
 20
4.125000
 30
0.000000
 11
0.125000
 21
4.125000
 31
0.000000
  0
LINE
  8
94
 10
15.125000
 20
6.125000
 30
0.000000
 11
15.250000
 21
6.125000
 31
0.000000
  0
LINE
  8
94
 10
3.875000
 20
10.125000
 30
0.000000
 11
3.875000
 21
10.250000
 31
0.000000
  0
LINE
  8
94
 10
3.875000
 20
0.125000
 30
0.000000
 11
3.875000
 21
0.000000
 31
0.000000
  0
LINE
  8
94
 10
11.375000
 20
10.250000
 30
0.000000
 11
11.375000
 21
10.125000
 31
0.000000
  0
LINE
  8
94
 10
11.375000
 20
0.125000
 30
0.000000
 11
11.375000
 21
0.000000
 31
0.000000
  0
LINE
  8
94
 10
0.000000
 20
2.125000
 30
0.000000
 11
0.125000
 21
2.125000
 31
0.000000
  0
LINE
  8
94
 10
15.125000
 20
4.125000
 30
0.000000
 11
15.250000
 21
4.125000
 31
0.000000
  0
LINE
  8
94
 10
0.000000
 20
6.125000
 30
0.000000
 11
0.125000
 21
6.125000
 31
0.000000
  0
LINE
  8
94
 10
15.125000
 20
8.125000
 30
0.000000
 11
15.250000
 21
8.125000
 31
0.000000
  0
LINE
  8
94
 10
2.000000
 20
10.125000
 30
0.000000
 11
2.000000
 21
10.250000
 31
0.000000
  0
LINE
  8
94
 10
0.000000
 20
8.125000
 30
0.000000
 11
0.125000
 21
8.125000
 31
0.000000
  0
LINE
  8
94
 10
15.125000
 20
2.125000
 30
0.000000
 11
15.250000
 21
2.125000
 31
0.000000
  0
LINE
  8
94
 10
5.750000
 20
10.125000
 30
0.000000
 11
5.750000
 21
10.250000
 31
0.000000
  0
LINE
  8
94
 10
9.500000
 20
10.250000
 30
0.000000
 11
9.500000
 21
10.125000
 31
0.000000
  0
LINE
  8
94
 10
13.250000
 20
10.250000
 30
0.000000
 11
13.250000
 21
10.125000
 31
0.000000
  0
LINE
  8
94
 10
13.250000
 20
0.125000
 30
0.000000
 11
13.250000
 21
0.000000
 31
0.000000
  0
LINE
  8
94
 10
9.500000
 20
0.125000
 30
0.000000
 11
9.500000
 21
0.000000
 31
0.000000
  0
LINE
  8
94
 10
5.750000
 20
0.125000
 30
0.000000
 11
5.750000
 21
0.000000
 31
0.000000
  0
LINE
  8
94
 10
2.000000
 20
0.000000
 30
0.000000
 11
2.000000
 21
0.125000
 31
0.000000
  0
LINE
  8
94
 10
11.375000
 20
0.125000
 30
0.000000
 11
11.375000
 21
0.925000
 31
0.000000
  0
LINE
  8
94
 10
11.375000
 20
0.925000
 30
0.000000
 11
12.100000
 21
0.925000
 31
0.000000
  0
LINE
  8
94
 10
12.100000
 20
0.925000
 30
0.000000
 11
15.125000
 21
0.925000
 31
0.000000
  0
LINE
  8
94
 10
14.425000
 20
0.125000
 30
0.000000
 11
14.425000
 21
0.325000
 31
0.000000
  0
LINE
  8
94
 10
14.425000
 20
0.325000
 30
0.000000
 11
15.125000
 21
0.325000
 31
0.000000
  0
LINE
  8
94
 10
14.425000
 20
0.325000
 30
0.000000
 11
12.100000
 21
0.325000
 31
0.000000
  0
LINE
  8
94
 10
12.100000
 20
0.325000
 30
0.000000
 11
12.100000
 21
0.125000
 31
0.000000
  0
LINE
  8
94
 10
12.100000
 20
0.325000
 30
0.000000
 11
12.100000
 21
0.525000
 31
0.000000
  0
LINE
  8
94
 10
12.100000
 20
0.525000
 30
0.000000
 11
15.125000
 21
0.525000
 31
0.000000
  0
LINE
  8
94
 10
12.100000
 20
0.525000
 30
0.000000
 11
12.100000
 21
0.725000
 31
0.000000
  0
LINE
  8
94
 10
12.100000
 20
0.725000
 30
0.000000
 11
15.125000
 21
0.725000
 31
0.000000
  0
LINE
  8
94
 10
12.100000
 20
0.725000
 30
0.000000
 11
12.100000
 21
0.925000
 31
0.000000
  0
LINE
  8
94
 10
0.964000
 20
0.014000
 30
0.000000
 11
0.964000
 21
0.075386
 31
0.000000
  0
LINE
  8
94
 10
0.964000
 20
0.075386
 30
0.000000
 11
0.994693
 21
0.106079
 31
0.000000
  0
LINE
  8
94
 10
0.994693
 20
0.106079
 30
0.000000
 11
1.025386
 21
0.075386
 31
0.000000
  0
LINE
  8
94
 10
1.025386
 20
0.075386
 30
0.000000
 11
1.025386
 21
0.014000
 31
0.000000
  0
LINE
  8
94
 10
0.964000
 20
0.060039
 30
0.000000
 11
1.025386
 21
0.060039
 31
0.000000
  0
LINE
  8
94
 10
2.934000
 20
0.014000
 30
0.000000
 11
2.934000
 21
0.106079
 31
0.000000
  0
LINE
  8
94
 10
2.934000
 20
0.106079
 30
0.000000
 11
2.980039
 21
0.106079
 31
0.000000
  0
LINE
  8
94
 10
2.980039
 20
0.106079
 30
0.000000
 11
2.995386
 21
0.090732
 31
0.000000
  0
LINE
  8
94
 10
2.995386
 20
0.090732
 30
0.000000
 11
2.995386
 21
0.075386
 31
0.000000
  0
LINE
  8
94
 10
2.995386
 20
0.075386
 30
0.000000
 11
2.980039
 21
0.060039
 31
0.000000
  0
LINE
  8
94
 10
2.980039
 20
0.060039
 30
0.000000
 11
2.995386
 21
0.044693
 31
0.000000
  0
LINE
  8
94
 10
2.995386
 20
0.044693
 30
0.000000
 11
2.995386
 21
0.029346
 31
0.000000
  0
LINE
  8
94
 10
2.995386
 20
0.029346
 30
0.000000
 11
2.980039
 21
0.014000
 31
0.000000
  0
LINE
  8
94
 10
2.980039
 20
0.014000
 30
0.000000
 11
2.934000
 21
0.014000
 31
0.000000
  0
LINE
  8
94
 10
2.934000
 20
0.060039
 30
0.000000
 11
2.980039
 21
0.060039
 31
0.000000
  0
LINE
  8
94
 10
4.835386
 20
0.090732
 30
0.000000
 11
4.820039
 21
0.106079
 31
0.000000
  0
LINE
  8
94
 10
4.820039
 20
0.106079
 30
0.000000
 11
4.789346
 21
0.106079
 31
0.000000
  0
LINE
  8
94
 10
4.789346
 20
0.106079
 30
0.000000
 11
4.774000
 21
0.090732
 31
0.000000
  0
LINE
  8
94
 10
4.774000
 20
0.090732
 30
0.000000
 11
4.774000
 21
0.029346
 31
0.000000
  0
LINE
  8
94
 10
4.774000
 20
0.029346
 30
0.000000
 11
4.789346
 21
0.014000
 31
0.000000
  0
LINE
  8
94
 10
4.789346
 20
0.014000
 30
0.000000
 11
4.820039
 21
0.014000
 31
0.000000
  0
LINE
  8
94
 10
4.820039
 20
0.014000
 30
0.000000
 11
4.835386
 21
0.029346
 31
0.000000
  0
LINE
  8
94
 10
6.674000
 20
0.106079
 30
0.000000
 11
6.674000
 21
0.014000
 31
0.000000
  0
LINE
  8
94
 10
6.674000
 20
0.014000
 30
0.000000
 11
6.720039
 21
0.014000
 31
0.000000
  0
LINE
  8
94
 10
6.720039
 20
0.014000
 30
0.000000
 11
6.735386
 21
0.029346
 31
0.000000
  0
LINE
  8
94
 10
6.735386
 20
0.029346
 30
0.000000
 11
6.735386
 21
0.090732
 31
0.000000
  0
LINE
  8
94
 10
6.735386
 20
0.090732
 30
0.000000
 11
6.720039
 21
0.106079
 31
0.000000
  0
LINE
  8
94
 10
6.720039
 20
0.106079
 30
0.000000
 11
6.674000
 21
0.106079
 31
0.000000
  0
LINE
  8
94
 10
8.605386
 20
0.106079
 30
0.000000
 11
8.544000
 21
0.106079
 31
0.000000
  0
LINE
  8
94
 10
8.544000
 20
0.106079
 30
0.000000
 11
8.544000
 21
0.014000
 31
0.000000
  0
LINE
  8
94
 10
8.544000
 20
0.014000
 30
0.000000
 11
8.605386
 21
0.014000
 31
0.000000
  0
LINE
  8
94
 10
8.544000
 20
0.060039
 30
0.000000
 11
8.574693
 21
0.060039
 31
0.000000
  0
LINE
  8
94
 10
10.384000
 20
0.014000
 30
0.000000
 11
10.384000
 21
0.106079
 31
0.000000
  0
LINE
  8
94
 10
10.384000
 20
0.106079
 30
0.000000
 11
10.445386
 21
0.106079
 31
0.000000
  0
LINE
  8
94
 10
10.384000
 20
0.060039
 30
0.000000
 11
10.414693
 21
0.060039
 31
0.000000
  0
LINE
  8
94
 10
12.295386
 20
0.090732
 30
0.000000
 11
12.280039
 21
0.106079
 31
0.000000
  0
LINE
  8
94
 10
12.280039
 20
0.106079
 30
0.000000
 11
12.249346
 21
0.106079
 31
0.000000
  0
LINE
  8
94
 10
12.249346
 20
0.106079
 30
0.000000
 11
12.234000
 21
0.090732
 31
0.000000
  0
LINE
  8
94
 10
12.234000
 20
0.090732
 30
0.000000
 11
12.234000
 21
0.029346
 31
0.000000
  0
LINE
  8
94
 10
12.234000
 20
0.029346
 30
0.000000
 11
12.249346
 21
0.014000
 31
0.000000
  0
LINE
  8
94
 10
12.249346
 20
0.014000
 30
0.000000
 11
12.280039
 21
0.014000
 31
0.000000
  0
LINE
  8
94
 10
12.280039
 20
0.014000
 30
0.000000
 11
12.295386
 21
0.029346
 31
0.000000
  0
LINE
  8
94
 10
12.295386
 20
0.029346
 30
0.000000
 11
12.295386
 21
0.060039
 31
0.000000
  0
LINE
  8
94
 10
12.295386
 20
0.060039
 30
0.000000
 11
12.264693
 21
0.060039
 31
0.000000
  0
LINE
  8
94
 10
14.214000
 20
0.014000
 30
0.000000
 11
14.214000
 21
0.106079
 31
0.000000
  0
LINE
  8
94
 10
14.214000
 20
0.060039
 30
0.000000
 11
14.275386
 21
0.060039
 31
0.000000
  0
LINE
  8
94
 10
14.275386
 20
0.106079
 30
0.000000
 11
14.275386
 21
0.014000
 31
0.000000
  0
LINE
  8
94
 10
15.164000
 20
1.195386
 30
0.000000
 11
15.194693
 21
1.226079
 31
0.000000
  0
LINE
  8
94
 10
15.194693
 20
1.226079
 30
0.000000
 11
15.194693
 21
1.134000
 31
0.000000
  0
LINE
  8
94
 10
15.164000
 20
1.134000
 30
0.000000
 11
15.225386
 21
1.134000
 31
0.000000
  0
LINE
  8
94
 10
15.215386
 20
3.134000
 30
0.000000
 11
15.154000
 21
3.134000
 31
0.000000
  0
LINE
  8
94
 10
15.154000
 20
3.134000
 30
0.000000
 11
15.215386
 21
3.195386
 31
0.000000
  0
LINE
  8
94
 10
15.215386
 20
3.195386
 30
0.000000
 11
15.215386
 21
3.210732
 31
0.000000
  0
LINE
  8
94
 10
15.215386
 20
3.210732
 30
0.000000
 11
15.200039
 21
3.226079
 31
0.000000
  0
LINE
  8
94
 10
15.200039
 20
3.226079
 30
0.000000
 11
15.169346
 21
3.226079
 31
0.000000
  0
LINE
  8
94
 10
15.169346
 20
3.226079
 30
0.000000
 11
15.154000
 21
3.210732
 31
0.000000
  0
LINE
  8
94
 10
15.154000
 20
5.210732
 30
0.000000
 11
15.169346
 21
5.226079
 31
0.000000
  0
LINE
  8
94
 10
15.169346
 20
5.226079
 30
0.000000
 11
15.200039
 21
5.226079
 31
0.000000
  0
LINE
  8
94
 10
15.200039
 20
5.226079
 30
0.000000
 11
15.215386
 21
5.210732
 31
0.000000
  0
LINE
  8
94
 10
15.215386
 20
5.210732
 30
0.000000
 11
15.215386
 21
5.195386
 31
0.000000
  0
LINE
  8
94
 10
15.215386
 20
5.195386
 30
0.000000
 11
15.200039
 21
5.180039
 31
0.000000
  0
LINE
  8
94
 10
15.200039
 20
5.180039
 30
0.000000
 11
15.184693
 21
5.180039
 31
0.000000
  0
LINE
  8
94
 10
15.200039
 20
5.180039
 30
0.000000
 11
15.215386
 21
5.164693
 31
0.000000
  0
LINE
  8
94
 10
15.215386
 20
5.164693
 30
0.000000
 11
15.215386
 21
5.149346
 31
0.000000
  0
LINE
  8
94
 10
15.215386
 20
5.149346
 30
0.000000
 11
15.200039
 21
5.134000
 31
0.000000
  0
LINE
  8
94
 10
15.200039
 20
5.134000
 30
0.000000
 11
15.169346
 21
5.134000
 31
0.000000
  0
LINE
  8
94
 10
15.169346
 20
5.134000
 30
0.000000
 11
15.154000
 21
5.149346
 31
0.000000
  0
LINE
  8
94
 10
15.200039
 20
7.164000
 30
0.000000
 11
15.200039
 21
7.256079
 31
0.000000
  0
LINE
  8
94
 10
15.200039
 20
7.256079
 30
0.000000
 11
15.154000
 21
7.210039
 31
0.000000
  0
LINE
  8
94
 10
15.154000
 20
7.210039
 30
0.000000
 11
15.215386
 21
7.210039
 31
0.000000
  0
LINE
  8
94
 10
15.215386
 20
9.196079
 30
0.000000
 11
15.154000
 21
9.196079
 31
0.000000
  0
LINE
  8
94
 10
15.154000
 20
9.196079
 30
0.000000
 11
15.154000
 21
9.150039
 31
0.000000
  0
LINE
  8
94
 10
15.154000
 20
9.150039
 30
0.000000
 11
15.184693
 21
9.165386
 31
0.000000
  0
LINE
  8
94
 10
15.184693
 20
9.165386
 30
0.000000
 11
15.200039
 21
9.165386
 31
0.000000
  0
LINE
  8
94
 10
15.200039
 20
9.165386
 30
0.000000
 11
15.215386
 21
9.150039
 31
0.000000
  0
LINE
  8
94
 10
15.215386
 20
9.150039
 30
0.000000
 11
15.215386
 21
9.119346
 31
0.000000
  0
LINE
  8
94
 10
15.215386
 20
9.119346
 30
0.000000
 11
15.200039
 21
9.104000
 31
0.000000
  0
LINE
  8
94
 10
15.200039
 20
9.104000
 30
0.000000
 11
15.169346
 21
9.104000
 31
0.000000
  0
LINE
  8
94
 10
15.169346
 20
9.104000
 30
0.000000
 11
15.154000
 21
9.119346
 31
0.000000
  0
LINE
  8
94
 10
14.224000
 20
10.144000
 30
0.000000
 11
14.224000
 21
10.236079
 31
0.000000
  0
LINE
  8
94
 10
14.224000
 20
10.190039
 30
0.000000
 11
14.285386
 21
10.190039
 31
0.000000
  0
LINE
  8
94
 10
14.285386
 20
10.236079
 30
0.000000
 11
14.285386
 21
10.144000
 31
0.000000
  0
LINE
  8
94
 10
12.325386
 20
10.220732
 30
0.000000
 11
12.310039
 21
10.236079
 31
0.000000
  0
LINE
  8
94
 10
12.310039
 20
10.236079
 30
0.000000
 11
12.279346
 21
10.236079
 31
0.000000
  0
LINE
  8
94
 10
12.279346
 20
10.236079
 30
0.000000
 11
12.264000
 21
10.220732
 31
0.000000
  0
LINE
  8
94
 10
12.264000
 20
10.220732
 30
0.000000
 11
12.264000
 21
10.159346
 31
0.000000
  0
LINE
  8
94
 10
12.264000
 20
10.159346
 30
0.000000
 11
12.279346
 21
10.144000
 31
0.000000
  0
LINE
  8
94
 10
12.279346
 20
10.144000
 30
0.000000
 11
12.310039
 21
10.144000
 31
0.000000
  0
LINE
  8
94
 10
12.310039
 20
10.144000
 30
0.000000
 11
12.325386
 21
10.159346
 31
0.000000
  0
LINE
  8
94
 10
12.325386
 20
10.159346
 30
0.000000
 11
12.325386
 21
10.190039
 31
0.000000
  0
LINE
  8
94
 10
12.325386
 20
10.190039
 30
0.000000
 11
12.294693
 21
10.190039
 31
0.000000
  0
LINE
  8
94
 10
10.354000
 20
10.144000
 30
0.000000
 11
10.354000
 21
10.236079
 31
0.000000
  0
LINE
  8
94
 10
10.354000
 20
10.236079
 30
0.000000
 11
10.415386
 21
10.236079
 31
0.000000
  0
LINE
  8
94
 10
10.354000
 20
10.190039
 30
0.000000
 11
10.384693
 21
10.190039
 31
0.000000
  0
LINE
  8
94
 10
8.565386
 20
10.236079
 30
0.000000
 11
8.504000
 21
10.236079
 31
0.000000
  0
LINE
  8
94
 10
8.504000
 20
10.236079
 30
0.000000
 11
8.504000
 21
10.144000
 31
0.000000
  0
LINE
  8
94
 10
8.504000
 20
10.144000
 30
0.000000
 11
8.565386
 21
10.144000
 31
0.000000
  0
LINE
  8
94
 10
8.504000
 20
10.190039
 30
0.000000
 11
8.534693
 21
10.190039
 31
0.000000
  0
LINE
  8
94
 10
6.624000
 20
10.236079
 30
0.000000
 11
6.624000
 21
10.144000
 31
0.000000
  0
LINE
  8
94
 10
6.624000
 20
10.144000
 30
0.000000
 11
6.670039
 21
10.144000
 31
0.000000
  0
LINE
  8
94
 10
6.670039
 20
10.144000
 30
0.000000
 11
6.685386
 21
10.159346
 31
0.000000
  0
LINE
  8
94
 10
6.685386
 20
10.159346
 30
0.000000
 11
6.685386
 21
10.220732
 31
0.000000
  0
LINE
  8
94
 10
6.685386
 20
10.220732
 30
0.000000
 11
6.670039
 21
10.236079
 31
0.000000
  0
LINE
  8
94
 10
6.670039
 20
10.236079
 30
0.000000
 11
6.624000
 21
10.236079
 31
0.000000
  0
LINE
  8
94
 10
4.825386
 20
10.220732
 30
0.000000
 11
4.810039
 21
10.236079
 31
0.000000
  0
LINE
  8
94
 10
4.810039
 20
10.236079
 30
0.000000
 11
4.779346
 21
10.236079
 31
0.000000
  0
LINE
  8
94
 10
4.779346
 20
10.236079
 30
0.000000
 11
4.764000
 21
10.220732
 31
0.000000
  0
LINE
  8
94
 10
4.764000
 20
10.220732
 30
0.000000
 11
4.764000
 21
10.159346
 31
0.000000
  0
LINE
  8
94
 10
4.764000
 20
10.159346
 30
0.000000
 11
4.779346
 21
10.144000
 31
0.000000
  0
LINE
  8
94
 10
4.779346
 20
10.144000
 30
0.000000
 11
4.810039
 21
10.144000
 31
0.000000
  0
LINE
  8
94
 10
4.810039
 20
10.144000
 30
0.000000
 11
4.825386
 21
10.159346
 31
0.000000
  0
LINE
  8
94
 10
2.874000
 20
10.144000
 30
0.000000
 11
2.874000
 21
10.236079
 31
0.000000
  0
LINE
  8
94
 10
2.874000
 20
10.236079
 30
0.000000
 11
2.920039
 21
10.236079
 31
0.000000
  0
LINE
  8
94
 10
2.920039
 20
10.236079
 30
0.000000
 11
2.935386
 21
10.220732
 31
0.000000
  0
LINE
  8
94
 10
2.935386
 20
10.220732
 30
0.000000
 11
2.935386
 21
10.205386
 31
0.000000
  0
LINE
  8
94
 10
2.935386
 20
10.205386
 30
0.000000
 11
2.920039
 21
10.190039
 31
0.000000
  0
LINE
  8
94
 10
2.920039
 20
10.190039
 30
0.000000
 11
2.935386
 21
10.174693
 31
0.000000
  0
LINE
  8
94
 10
2.935386
 20
10.174693
 30
0.000000
 11
2.935386
 21
10.159346
 31
0.000000
  0
LINE
  8
94
 10
2.935386
 20
10.159346
 30
0.000000
 11
2.920039
 21
10.144000
 31
0.000000
  0
LINE
  8
94
 10
2.920039
 20
10.144000
 30
0.000000
 11
2.874000
 21
10.144000
 31
0.000000
  0
LINE
  8
94
 10
2.874000
 20
10.190039
 30
0.000000
 11
2.920039
 21
10.190039
 31
0.000000
  0
LINE
  8
94
 10
0.964000
 20
10.144000
 30
0.000000
 11
0.964000
 21
10.205386
 31
0.000000
  0
LINE
  8
94
 10
0.964000
 20
10.205386
 30
0.000000
 11
0.994693
 21
10.236079
 31
0.000000
  0
LINE
  8
94
 10
0.994693
 20
10.236079
 30
0.000000
 11
1.025386
 21
10.205386
 31
0.000000
  0
LINE
  8
94
 10
1.025386
 20
10.205386
 30
0.000000
 11
1.025386
 21
10.144000
 31
0.000000
  0
LINE
  8
94
 10
0.964000
 20
10.190039
 30
0.000000
 11
1.025386
 21
10.190039
 31
0.000000
  0
LINE
  8
94
 10
0.095386
 20
9.196079
 30
0.000000
 11
0.034000
 21
9.196079
 31
0.000000
  0
LINE
  8
94
 10
0.034000
 20
9.196079
 30
0.000000
 11
0.034000
 21
9.150039
 31
0.000000
  0
LINE
  8
94
 10
0.034000
 20
9.150039
 30
0.000000
 11
0.064693
 21
9.165386
 31
0.000000
  0
LINE
  8
94
 10
0.064693
 20
9.165386
 30
0.000000
 11
0.080039
 21
9.165386
 31
0.000000
  0
LINE
  8
94
 10
0.080039
 20
9.165386
 30
0.000000
 11
0.095386
 21
9.150039
 31
0.000000
  0
LINE
  8
94
 10
0.095386
 20
9.150039
 30
0.000000
 11
0.095386
 21
9.119346
 31
0.000000
  0
LINE
  8
94
 10
0.095386
 20
9.119346
 30
0.000000
 11
0.080039
 21
9.104000
 31
0.000000
  0
LINE
  8
94
 10
0.080039
 20
9.104000
 30
0.000000
 11
0.049346
 21
9.104000
 31
0.000000
  0
LINE
  8
94
 10
0.049346
 20
9.104000
 30
0.000000
 11
0.034000
 21
9.119346
 31
0.000000
  0
LINE
  8
94
 10
0.080039
 20
7.154000
 30
0.000000
 11
0.080039
 21
7.246079
 31
0.000000
  0
LINE
  8
94
 10
0.080039
 20
7.246079
 30
0.000000
 11
0.034000
 21
7.200039
 31
0.000000
  0
LINE
  8
94
 10
0.034000
 20
7.200039
 30
0.000000
 11
0.095386
 21
7.200039
 31
0.000000
  0
LINE
  8
94
 10
0.034000
 20
5.210732
 30
0.000000
 11
0.049346
 21
5.226079
 31
0.000000
  0
LINE
  8
94
 10
0.049346
 20
5.226079
 30
0.000000
 11
0.080039
 21
5.226079
 31
0.000000
  0
LINE
  8
94
 10
0.080039
 20
5.226079
 30
0.000000
 11
0.095386
 21
5.210732
 31
0.000000
  0
LINE
  8
94
 10
0.095386
 20
5.210732
 30
0.000000
 11
0.095386
 21
5.195386
 31
0.000000
  0
LINE
  8
94
 10
0.095386
 20
5.195386
 30
0.000000
 11
0.080039
 21
5.180039
 31
0.000000
  0
LINE
  8
94
 10
0.080039
 20
5.180039
 30
0.000000
 11
0.064693
 21
5.180039
 31
0.000000
  0
LINE
  8
94
 10
0.080039
 20
5.180039
 30
0.000000
 11
0.095386
 21
5.164693
 31
0.000000
  0
LINE
  8
94
 10
0.095386
 20
5.164693
 30
0.000000
 11
0.095386
 21
5.149346
 31
0.000000
  0
LINE
  8
94
 10
0.095386
 20
5.149346
 30
0.000000
 11
0.080039
 21
5.134000
 31
0.000000
  0
LINE
  8
94
 10
0.080039
 20
5.134000
 30
0.000000
 11
0.049346
 21
5.134000
 31
0.000000
  0
LINE
  8
94
 10
0.049346
 20
5.134000
 30
0.000000
 11
0.034000
 21
5.149346
 31
0.000000
  0
LINE
  8
94
 10
0.095386
 20
3.124000
 30
0.000000
 11
0.034000
 21
3.124000
 31
0.000000
  0
LINE
  8
94
 10
0.034000
 20
3.124000
 30
0.000000
 11
0.095386
 21
3.185386
 31
0.000000
  0
LINE
  8
94
 10
0.095386
 20
3.185386
 30
0.000000
 11
0.095386
 21
3.200732
 31
0.000000
  0
LINE
  8
94
 10
0.095386
 20
3.200732
 30
0.000000
 11
0.080039
 21
3.216079
 31
0.000000
  0
LINE
  8
94
 10
0.080039
 20
3.216079
 30
0.000000
 11
0.049346
 21
3.216079
 31
0.000000
  0
LINE
  8
94
 10
0.049346
 20
3.216079
 30
0.000000
 11
0.034000
 21
3.200732
 31
0.000000
  0
LINE
  8
94
 10
0.044000
 20
1.115386
 30
0.000000
 11
0.074693
 21
1.146079
 31
0.000000
  0
LINE
  8
94
 10
0.074693
 20
1.146079
 30
0.000000
 11
0.074693
 21
1.054000
 31
0.000000
  0
LINE
  8
94
 10
0.044000
 20
1.054000
 30
0.000000
 11
0.105386
 21
1.054000
 31
0.000000
  0
LINE
  8
94
 10
12.569000
 20
0.830386
 30
0.000000
 11
12.599693
 21
0.861079
 31
0.000000
  0
LINE
  8
94
 10
12.599693
 20
0.861079
 30
0.000000
 11
12.599693
 21
0.769000
 31
0.000000
  0
LINE
  8
94
 10
12.569000
 20
0.769000
 30
0.000000
 11
12.630386
 21
0.769000
 31
0.000000
  0
LINE
  8
94
 10
12.661079
 20
0.845732
 30
0.000000
 11
12.676425
 21
0.861079
 31
0.000000
  0
LINE
  8
94
 10
12.676425
 20
0.861079
 30
0.000000
 11
12.707118
 21
0.861079
 31
0.000000
  0
LINE
  8
94
 10
12.707118
 20
0.861079
 30
0.000000
 11
12.722464
 21
0.845732
 31
0.000000
  0
LINE
  8
94
 10
12.722464
 20
0.845732
 30
0.000000
 11
12.722464
 21
0.830386
 31
0.000000
  0
LINE
  8
94
 10
12.722464
 20
0.830386
 30
0.000000
 11
12.707118
 21
0.815039
 31
0.000000
  0
LINE
  8
94
 10
12.707118
 20
0.815039
 30
0.000000
 11
12.691771
 21
0.815039
 31
0.000000
  0
LINE
  8
94
 10
12.707118
 20
0.815039
 30
0.000000
 11
12.722464
 21
0.799693
 31
0.000000
  0
LINE
  8
94
 10
12.722464
 20
0.799693
 30
0.000000
 11
12.722464
 21
0.784346
 31
0.000000
  0
LINE
  8
94
 10
12.722464
 20
0.784346
 30
0.000000
 11
12.707118
 21
0.769000
 31
0.000000
  0
LINE
  8
94
 10
12.707118
 20
0.769000
 30
0.000000
 11
12.676425
 21
0.769000
 31
0.000000
  0
LINE
  8
94
 10
12.676425
 20
0.769000
 30
0.000000
 11
12.661079
 21
0.784346
 31
0.000000
  0
LINE
  8
94
 10
12.753157
 20
0.784346
 30
0.000000
 11
12.753157
 21
0.845732
 31
0.000000
  0
LINE
  8
94
 10
12.753157
 20
0.845732
 30
0.000000
 11
12.768504
 21
0.861079
 31
0.000000
  0
LINE
  8
94
 10
12.768504
 20
0.861079
 30
0.000000
 11
12.799196
 21
0.861079
 31
0.000000
  0
LINE
  8
94
 10
12.799196
 20
0.861079
 30
0.000000
 11
12.814543
 21
0.845732
 31
0.000000
  0
LINE
  8
94
 10
12.814543
 20
0.845732
 30
0.000000
 11
12.814543
 21
0.784346
 31
0.000000
  0
LINE
  8
94
 10
12.814543
 20
0.784346
 30
0.000000
 11
12.799196
 21
0.769000
 31
0.000000
  0
LINE
  8
94
 10
12.799196
 20
0.769000
 30
0.000000
 11
12.768504
 21
0.769000
 31
0.000000
  0
LINE
  8
94
 10
12.768504
 20
0.769000
 30
0.000000
 11
12.753157
 21
0.784346
 31
0.000000
  0
LINE
  8
94
 10
12.753157
 20
0.784346
 30
0.000000
 11
12.814543
 21
0.845732
 31
0.000000
  0
LINE
  8
94
 10
12.845236
 20
0.784346
 30
0.000000
 11
12.845236
 21
0.845732
 31
0.000000
  0
LINE
  8
94
 10
12.845236
 20
0.845732
 30
0.000000
 11
12.860582
 21
0.861079
 31
0.000000
  0
LINE
  8
94
 10
12.860582
 20
0.861079
 30
0.000000
 11
12.891275
 21
0.861079
 31
0.000000
  0
LINE
  8
94
 10
12.891275
 20
0.861079
 30
0.000000
 11
12.906622
 21
0.845732
 31
0.000000
  0
LINE
  8
94
 10
12.906622
 20
0.845732
 30
0.000000
 11
12.906622
 21
0.784346
 31
0.000000
  0
LINE
  8
94
 10
12.906622
 20
0.784346
 30
0.000000
 11
12.891275
 21
0.769000
 31
0.000000
  0
LINE
  8
94
 10
12.891275
 20
0.769000
 30
0.000000
 11
12.860582
 21
0.769000
 31
0.000000
  0
LINE
  8
94
 10
12.860582
 20
0.769000
 30
0.000000
 11
12.845236
 21
0.784346
 31
0.000000
  0
LINE
  8
94
 10
12.845236
 20
0.784346
 30
0.000000
 11
12.906622
 21
0.845732
 31
0.000000
  0
LINE
  8
94
 10
12.937314
 20
0.861079
 30
0.000000
 11
12.998700
 21
0.769000
 31
0.000000
  0
LINE
  8
94
 10
12.998700
 20
0.861079
 30
0.000000
 11
12.937314
 21
0.769000
 31
0.000000
  0
LINE
  8
94
 10
13.029393
 20
0.861079
 30
0.000000
 11
13.090779
 21
0.769000
 31
0.000000
  0
LINE
  8
94
 10
13.090779
 20
0.861079
 30
0.000000
 11
13.029393
 21
0.769000
 31
0.000000
  0
LINE
  8
94
 10
13.121472
 20
0.753654
 30
0.000000
 11
13.182857
 21
0.753654
 31
0.000000
  0
LINE
  8
94
 10
13.213550
 20
0.845732
 30
0.000000
 11
13.228897
 21
0.861079
 31
0.000000
  0
LINE
  8
94
 10
13.228897
 20
0.861079
 30
0.000000
 11
13.259590
 21
0.861079
 31
0.000000
  0
LINE
  8
94
 10
13.259590
 20
0.861079
 30
0.000000
 11
13.274936
 21
0.845732
 31
0.000000
  0
LINE
  8
94
 10
13.274936
 20
0.845732
 30
0.000000
 11
13.274936
 21
0.830386
 31
0.000000
  0
LINE
  8
94
 10
13.274936
 20
0.830386
 30
0.000000
 11
13.259590
 21
0.815039
 31
0.000000
  0
LINE
  8
94
 10
13.259590
 20
0.815039
 30
0.000000
 11
13.244243
 21
0.815039
 31
0.000000
  0
LINE
  8
94
 10
13.259590
 20
0.815039
 30
0.000000
 11
13.274936
 21
0.799693
 31
0.000000
  0
LINE
  8
94
 10
13.274936
 20
0.799693
 30
0.000000
 11
13.274936
 21
0.784346
 31
0.000000
  0
LINE
  8
94
 10
13.274936
 20
0.784346
 30
0.000000
 11
13.259590
 21
0.769000
 31
0.000000
  0
LINE
  8
94
 10
13.259590
 20
0.769000
 30
0.000000
 11
13.228897
 21
0.769000
 31
0.000000
  0
LINE
  8
94
 10
13.228897
 20
0.769000
 30
0.000000
 11
13.213550
 21
0.784346
 31
0.000000
  0
LINE
  8
94
 10
13.305629
 20
0.769000
 30
0.000000
 11
13.305629
 21
0.861079
 31
0.000000
  0
LINE
  8
94
 10
13.305629
 20
0.815039
 30
0.000000
 11
13.367015
 21
0.815039
 31
0.000000
  0
LINE
  8
94
 10
13.367015
 20
0.861079
 30
0.000000
 11
13.367015
 21
0.769000
 31
0.000000
  0
LINE
  8
94
 10
13.397708
 20
0.769000
 30
0.000000
 11
13.397708
 21
0.861079
 31
0.000000
  0
LINE
  8
94
 10
13.397708
 20
0.861079
 30
0.000000
 11
13.443747
 21
0.861079
 31
0.000000
  0
LINE
  8
94
 10
13.443747
 20
0.861079
 30
0.000000
 11
13.459093
 21
0.845732
 31
0.000000
  0
LINE
  8
94
 10
13.459093
 20
0.845732
 30
0.000000
 11
13.459093
 21
0.815039
 31
0.000000
  0
LINE
  8
94
 10
13.459093
 20
0.815039
 30
0.000000
 11
13.443747
 21
0.799693
 31
0.000000
  0
LINE
  8
94
 10
13.443747
 20
0.799693
 30
0.000000
 11
13.397708
 21
0.799693
 31
0.000000
  0
LINE
  8
94
 10
13.489786
 20
0.753654
 30
0.000000
 11
13.551172
 21
0.753654
 31
0.000000
  0
LINE
  8
94
 10
13.581865
 20
0.861079
 30
0.000000
 11
13.581865
 21
0.784346
 31
0.000000
  0
LINE
  8
94
 10
13.581865
 20
0.784346
 30
0.000000
 11
13.597211
 21
0.769000
 31
0.000000
  0
LINE
  8
94
 10
13.597211
 20
0.769000
 30
0.000000
 11
13.627904
 21
0.769000
 31
0.000000
  0
LINE
  8
94
 10
13.627904
 20
0.769000
 30
0.000000
 11
13.643250
 21
0.784346
 31
0.000000
  0
LINE
  8
94
 10
13.643250
 20
0.784346
 30
0.000000
 11
13.643250
 21
0.861079
 31
0.000000
  0
LINE
  8
94
 10
13.673943
 20
0.738307
 30
0.000000
 11
13.673943
 21
0.830386
 31
0.000000
  0
LINE
  8
94
 10
13.673943
 20
0.830386
 30
0.000000
 11
13.719983
 21
0.830386
 31
0.000000
  0
LINE
  8
94
 10
13.719983
 20
0.830386
 30
0.000000
 11
13.735329
 21
0.815039
 31
0.000000
  0
LINE
  8
94
 10
13.735329
 20
0.815039
 30
0.000000
 11
13.735329
 21
0.784346
 31
0.000000
  0
LINE
  8
94
 10
13.735329
 20
0.784346
 30
0.000000
 11
13.719983
 21
0.769000
 31
0.000000
  0
LINE
  8
94
 10
13.719983
 20
0.769000
 30
0.000000
 11
13.673943
 21
0.769000
 31
0.000000
  0
LINE
  8
94
 10
13.796715
 20
0.738307
 30
0.000000
 11
13.812061
 21
0.738307
 31
0.000000
  0
LINE
  8
94
 10
13.812061
 20
0.738307
 30
0.000000
 11
13.827408
 21
0.753654
 31
0.000000
  0
LINE
  8
94
 10
13.827408
 20
0.753654
 30
0.000000
 11
13.827408
 21
0.830386
 31
0.000000
  0
LINE
  8
94
 10
13.827408
 20
0.830386
 30
0.000000
 11
13.781368
 21
0.830386
 31
0.000000
  0
LINE
  8
94
 10
13.781368
 20
0.830386
 30
0.000000
 11
13.766022
 21
0.815039
 31
0.000000
  0
LINE
  8
94
 10
13.766022
 20
0.815039
 30
0.000000
 11
13.766022
 21
0.784346
 31
0.000000
  0
LINE
  8
94
 10
13.766022
 20
0.784346
 30
0.000000
 11
13.781368
 21
0.769000
 31
0.000000
  0
LINE
  8
94
 10
13.781368
 20
0.769000
 30
0.000000
 11
13.827408
 21
0.769000
 31
0.000000
  0
LINE
  8
94
 10
13.858101
 20
0.769000
 30
0.000000
 11
13.858101
 21
0.830386
 31
0.000000
  0
LINE
  8
94
 10
13.858101
 20
0.799693
 30
0.000000
 11
13.888793
 21
0.830386
 31
0.000000
  0
LINE
  8
94
 10
13.888793
 20
0.830386
 30
0.000000
 11
13.904140
 21
0.830386
 31
0.000000
  0
LINE
  8
94
 10
13.950179
 20
0.830386
 30
0.000000
 11
13.980872
 21
0.830386
 31
0.000000
  0
LINE
  8
94
 10
13.980872
 20
0.830386
 30
0.000000
 11
13.996219
 21
0.815039
 31
0.000000
  0
LINE
  8
94
 10
13.996219
 20
0.815039
 30
0.000000
 11
13.996219
 21
0.769000
 31
0.000000
  0
LINE
  8
94
 10
13.996219
 20
0.769000
 30
0.000000
 11
13.950179
 21
0.769000
 31
0.000000
  0
LINE
  8
94
 10
13.950179
 20
0.769000
 30
0.000000
 11
13.934833
 21
0.784346
 31
0.000000
  0
LINE
  8
94
 10
13.934833
 20
0.784346
 30
0.000000
 11
13.950179
 21
0.799693
 31
0.000000
  0
LINE
  8
94
 10
13.950179
 20
0.799693
 30
0.000000
 11
13.996219
 21
0.799693
 31
0.000000
  0
LINE
  8
94
 10
14.088297
 20
0.861079
 30
0.000000
 11
14.088297
 21
0.769000
 31
0.000000
  0
LINE
  8
94
 10
14.088297
 20
0.769000
 30
0.000000
 11
14.042258
 21
0.769000
 31
0.000000
  0
LINE
  8
94
 10
14.042258
 20
0.769000
 30
0.000000
 11
14.026911
 21
0.784346
 31
0.000000
  0
LINE
  8
94
 10
14.026911
 20
0.784346
 30
0.000000
 11
14.026911
 21
0.815039
 31
0.000000
  0
LINE
  8
94
 10
14.026911
 20
0.815039
 30
0.000000
 11
14.042258
 21
0.830386
 31
0.000000
  0
LINE
  8
94
 10
14.042258
 20
0.830386
 30
0.000000
 11
14.088297
 21
0.830386
 31
0.000000
  0
LINE
  8
94
 10
14.165029
 20
0.769000
 30
0.000000
 11
14.134336
 21
0.769000
 31
0.000000
  0
LINE
  8
94
 10
14.134336
 20
0.769000
 30
0.000000
 11
14.118990
 21
0.784346
 31
0.000000
  0
LINE
  8
94
 10
14.118990
 20
0.784346
 30
0.000000
 11
14.118990
 21
0.815039
 31
0.000000
  0
LINE
  8
94
 10
14.118990
 20
0.815039
 30
0.000000
 11
14.134336
 21
0.830386
 31
0.000000
  0
LINE
  8
94
 10
14.134336
 20
0.830386
 30
0.000000
 11
14.165029
 21
0.830386
 31
0.000000
  0
LINE
  8
94
 10
14.165029
 20
0.830386
 30
0.000000
 11
14.180376
 21
0.815039
 31
0.000000
  0
LINE
  8
94
 10
14.180376
 20
0.815039
 30
0.000000
 11
14.180376
 21
0.799693
 31
0.000000
  0
LINE
  8
94
 10
14.180376
 20
0.799693
 30
0.000000
 11
14.118990
 21
0.799693
 31
0.000000
  0
LINE
  8
94
 10
14.211069
 20
0.769000
 30
0.000000
 11
14.257108
 21
0.769000
 31
0.000000
  0
LINE
  8
94
 10
14.257108
 20
0.769000
 30
0.000000
 11
14.272454
 21
0.784346
 31
0.000000
  0
LINE
  8
94
 10
14.272454
 20
0.784346
 30
0.000000
 11
14.257108
 21
0.799693
 31
0.000000
  0
LINE
  8
94
 10
14.257108
 20
0.799693
 30
0.000000
 11
14.226415
 21
0.799693
 31
0.000000
  0
LINE
  8
94
 10
14.226415
 20
0.799693
 30
0.000000
 11
14.211069
 21
0.815039
 31
0.000000
  0
LINE
  8
94
 10
14.211069
 20
0.815039
 30
0.000000
 11
14.226415
 21
0.830386
 31
0.000000
  0
LINE
  8
94
 10
14.226415
 20
0.830386
 30
0.000000
 11
14.272454
 21
0.830386
 31
0.000000
  0
LINE
  8
94
 10
14.303147
 20
0.753654
 30
0.000000
 11
14.364533
 21
0.753654
 31
0.000000
  0
LINE
  8
94
 10
14.395226
 20
0.769000
 30
0.000000
 11
14.395226
 21
0.861079
 31
0.000000
  0
LINE
  8
94
 10
14.395226
 20
0.861079
 30
0.000000
 11
14.441265
 21
0.861079
 31
0.000000
  0
LINE
  8
94
 10
14.441265
 20
0.861079
 30
0.000000
 11
14.456612
 21
0.845732
 31
0.000000
  0
LINE
  8
94
 10
14.456612
 20
0.845732
 30
0.000000
 11
14.456612
 21
0.815039
 31
0.000000
  0
LINE
  8
94
 10
14.456612
 20
0.815039
 30
0.000000
 11
14.441265
 21
0.799693
 31
0.000000
  0
LINE
  8
94
 10
14.441265
 20
0.799693
 30
0.000000
 11
14.395226
 21
0.799693
 31
0.000000
  0
LINE
  8
94
 10
14.425919
 20
0.799693
 30
0.000000
 11
14.456612
 21
0.769000
 31
0.000000
  0
LINE
  8
94
 10
14.487305
 20
0.784346
 30
0.000000
 11
14.487305
 21
0.845732
 31
0.000000
  0
LINE
  8
94
 10
14.487305
 20
0.845732
 30
0.000000
 11
14.502651
 21
0.861079
 31
0.000000
  0
LINE
  8
94
 10
14.502651
 20
0.861079
 30
0.000000
 11
14.533344
 21
0.861079
 31
0.000000
  0
LINE
  8
94
 10
14.533344
 20
0.861079
 30
0.000000
 11
14.548690
 21
0.845732
 31
0.000000
  0
LINE
  8
94
 10
14.548690
 20
0.845732
 30
0.000000
 11
14.548690
 21
0.784346
 31
0.000000
  0
LINE
  8
94
 10
14.548690
 20
0.784346
 30
0.000000
 11
14.533344
 21
0.769000
 31
0.000000
  0
LINE
  8
94
 10
14.533344
 20
0.769000
 30
0.000000
 11
14.502651
 21
0.769000
 31
0.000000
  0
LINE
  8
94
 10
14.502651
 20
0.769000
 30
0.000000
 11
14.487305
 21
0.784346
 31
0.000000
  0
LINE
  8
94
 10
14.487305
 20
0.784346
 30
0.000000
 11
14.548690
 21
0.845732
 31
0.000000
  0
LINE
  8
94
 10
14.579383
 20
0.784346
 30
0.000000
 11
14.579383
 21
0.845732
 31
0.000000
  0
LINE
  8
94
 10
14.579383
 20
0.845732
 30
0.000000
 11
14.594729
 21
0.861079
 31
0.000000
  0
LINE
  8
94
 10
14.594729
 20
0.861079
 30
0.000000
 11
14.625422
 21
0.861079
 31
0.000000
  0
LINE
  8
94
 10
14.625422
 20
0.861079
 30
0.000000
 11
14.640769
 21
0.845732
 31
0.000000
  0
LINE
  8
94
 10
14.640769
 20
0.845732
 30
0.000000
 11
14.640769
 21
0.784346
 31
0.000000
  0
LINE
  8
94
 10
14.640769
 20
0.784346
 30
0.000000
 11
14.625422
 21
0.769000
 31
0.000000
  0
LINE
  8
94
 10
14.625422
 20
0.769000
 30
0.000000
 11
14.594729
 21
0.769000
 31
0.000000
  0
LINE
  8
94
 10
14.594729
 20
0.769000
 30
0.000000
 11
14.579383
 21
0.784346
 31
0.000000
  0
LINE
  8
94
 10
14.579383
 20
0.784346
 30
0.000000
 11
14.640769
 21
0.845732
 31
0.000000
  0
LINE
  8
94
 10
14.732847
 20
0.769000
 30
0.000000
 11
14.671462
 21
0.769000
 31
0.000000
  0
LINE
  8
94
 10
14.671462
 20
0.769000
 30
0.000000
 11
14.732847
 21
0.830386
 31
0.000000
  0
LINE
  8
94
 10
14.732847
 20
0.830386
 30
0.000000
 11
14.732847
 21
0.845732
 31
0.000000
  0
LINE
  8
94
 10
14.732847
 20
0.845732
 30
0.000000
 11
14.717501
 21
0.861079
 31
0.000000
  0
LINE
  8
94
 10
14.717501
 20
0.861079
 30
0.000000
 11
14.686808
 21
0.861079
 31
0.000000
  0
LINE
  8
94
 10
14.686808
 20
0.861079
 30
0.000000
 11
14.671462
 21
0.845732
 31
0.000000
  0
LINE
  8
94
 10
12.253881
 20
0.378500
 30
0.000000
 11
12.198500
 21
0.378500
 31
0.000000
  0
LINE
  8
94
 10
12.198500
 20
0.378500
 30
0.000000
 11
12.253881
 21
0.433881
 31
0.000000
  0
LINE
  8
94
 10
12.253881
 20
0.433881
 30
0.000000
 11
12.253881
 21
0.447726
 31
0.000000
  0
LINE
  8
94
 10
12.253881
 20
0.447726
 30
0.000000
 11
12.240035
 21
0.461571
 31
0.000000
  0
LINE
  8
94
 10
12.240035
 20
0.461571
 30
0.000000
 11
12.212345
 21
0.461571
 31
0.000000
  0
LINE
  8
94
 10
12.212345
 20
0.461571
 30
0.000000
 11
12.198500
 21
0.447726
 31
0.000000
  0
LINE
  8
94
 10
12.281371
 20
0.378500
 30
0.000000
 11
12.336751
 21
0.461571
 31
0.000000
  0
LINE
  8
94
 10
12.364242
 20
0.433881
 30
0.000000
 11
12.391932
 21
0.461571
 31
0.000000
  0
LINE
  8
94
 10
12.391932
 20
0.461571
 30
0.000000
 11
12.391932
 21
0.378500
 31
0.000000
  0
LINE
  8
94
 10
12.364242
 20
0.378500
 30
0.000000
 11
12.419622
 21
0.378500
 31
0.000000
  0
LINE
  8
94
 10
12.447112
 20
0.433881
 30
0.000000
 11
12.474803
 21
0.461571
 31
0.000000
  0
LINE
  8
94
 10
12.474803
 20
0.461571
 30
0.000000
 11
12.474803
 21
0.378500
 31
0.000000
  0
LINE
  8
94
 10
12.447112
 20
0.378500
 30
0.000000
 11
12.502493
 21
0.378500
 31
0.000000
  0
LINE
  8
94
 10
12.529983
 20
0.378500
 30
0.000000
 11
12.585364
 21
0.461571
 31
0.000000
  0
LINE
  8
94
 10
12.668235
 20
0.378500
 30
0.000000
 11
12.612854
 21
0.378500
 31
0.000000
  0
LINE
  8
94
 10
12.612854
 20
0.378500
 30
0.000000
 11
12.668235
 21
0.433881
 31
0.000000
  0
LINE
  8
94
 10
12.668235
 20
0.433881
 30
0.000000
 11
12.668235
 21
0.447726
 31
0.000000
  0
LINE
  8
94
 10
12.668235
 20
0.447726
 30
0.000000
 11
12.654390
 21
0.461571
 31
0.000000
  0
LINE
  8
94
 10
12.654390
 20
0.461571
 30
0.000000
 11
12.626699
 21
0.461571
 31
0.000000
  0
LINE
  8
94
 10
12.626699
 20
0.461571
 30
0.000000
 11
12.612854
 21
0.447726
 31
0.000000
  0
LINE
  8
94
 10
12.695725
 20
0.392345
 30
0.000000
 11
12.695725
 21
0.447726
 31
0.000000
  0
LINE
  8
94
 10
12.695725
 20
0.447726
 30
0.000000
 11
12.709570
 21
0.461571
 31
0.000000
  0
LINE
  8
94
 10
12.709570
 20
0.461571
 30
0.000000
 11
12.737260
 21
0.461571
 31
0.000000
  0
LINE
  8
94
 10
12.737260
 20
0.461571
 30
0.000000
 11
12.751106
 21
0.447726
 31
0.000000
  0
LINE
  8
94
 10
12.751106
 20
0.447726
 30
0.000000
 11
12.751106
 21
0.392345
 31
0.000000
  0
LINE
  8
94
 10
12.751106
 20
0.392345
 30
0.000000
 11
12.737260
 21
0.378500
 31
0.000000
  0
LINE
  8
94
 10
12.737260
 20
0.378500
 30
0.000000
 11
12.709570
 21
0.378500
 31
0.000000
  0
LINE
  8
94
 10
12.709570
 20
0.378500
 30
0.000000
 11
12.695725
 21
0.392345
 31
0.000000
  0
LINE
  8
94
 10
12.695725
 20
0.392345
 30
0.000000
 11
12.751106
 21
0.447726
 31
0.000000
  0
LINE
  8
94
 10
12.778596
 20
0.433881
 30
0.000000
 11
12.806286
 21
0.461571
 31
0.000000
  0
LINE
  8
94
 10
12.806286
 20
0.461571
 30
0.000000
 11
12.806286
 21
0.378500
 31
0.000000
  0
LINE
  8
94
 10
12.778596
 20
0.378500
 30
0.000000
 11
12.833976
 21
0.378500
 31
0.000000
  0
LINE
  8
94
 10
12.903002
 20
0.378500
 30
0.000000
 11
12.903002
 21
0.461571
 31
0.000000
  0
LINE
  8
94
 10
12.903002
 20
0.461571
 30
0.000000
 11
12.861467
 21
0.420035
 31
0.000000
  0
LINE
  8
94
 10
12.861467
 20
0.420035
 30
0.000000
 11
12.916847
 21
0.420035
 31
0.000000
  0
LINE
  8
94
 10
13.027208
 20
0.392345
 30
0.000000
 11
13.041053
 21
0.378500
 31
0.000000
  0
LINE
  8
94
 10
13.041053
 20
0.378500
 30
0.000000
 11
13.068744
 21
0.378500
 31
0.000000
  0
LINE
  8
94
 10
13.068744
 20
0.378500
 30
0.000000
 11
13.082589
 21
0.392345
 31
0.000000
  0
LINE
  8
94
 10
13.082589
 20
0.392345
 30
0.000000
 11
13.082589
 21
0.447726
 31
0.000000
  0
LINE
  8
94
 10
13.082589
 20
0.447726
 30
0.000000
 11
13.068744
 21
0.461571
 31
0.000000
  0
LINE
  8
94
 10
13.068744
 20
0.461571
 30
0.000000
 11
13.041053
 21
0.461571
 31
0.000000
  0
LINE
  8
94
 10
13.041053
 20
0.461571
 30
0.000000
 11
13.027208
 21
0.447726
 31
0.000000
  0
LINE
  8
94
 10
13.027208
 20
0.447726
 30
0.000000
 11
13.027208
 21
0.433881
 31
0.000000
  0
LINE
  8
94
 10
13.027208
 20
0.433881
 30
0.000000
 11
13.041053
 21
0.420035
 31
0.000000
  0
LINE
  8
94
 10
13.041053
 20
0.420035
 30
0.000000
 11
13.082589
 21
0.420035
 31
0.000000
  0
LINE
  8
94
 10
13.110079
 20
0.433881
 30
0.000000
 11
13.123924
 21
0.433881
 31
0.000000
  0
LINE
  8
94
 10
13.123924
 20
0.433881
 30
0.000000
 11
13.123924
 21
0.420035
 31
0.000000
  0
LINE
  8
94
 10
13.123924
 20
0.420035
 30
0.000000
 11
13.110079
 21
0.420035
 31
0.000000
  0
LINE
  8
94
 10
13.110079
 20
0.420035
 30
0.000000
 11
13.110079
 21
0.433881
 31
0.000000
  0
LINE
  8
94
 10
13.110079
 20
0.392345
 30
0.000000
 11
13.123924
 21
0.392345
 31
0.000000
  0
LINE
  8
94
 10
13.123924
 20
0.392345
 30
0.000000
 11
13.123924
 21
0.378500
 31
0.000000
  0
LINE
  8
94
 10
13.123924
 20
0.378500
 30
0.000000
 11
13.110079
 21
0.378500
 31
0.000000
  0
LINE
  8
94
 10
13.110079
 20
0.378500
 30
0.000000
 11
13.110079
 21
0.392345
 31
0.000000
  0
LINE
  8
94
 10
13.193050
 20
0.378500
 30
0.000000
 11
13.193050
 21
0.461571
 31
0.000000
  0
LINE
  8
94
 10
13.193050
 20
0.461571
 30
0.000000
 11
13.151514
 21
0.420035
 31
0.000000
  0
LINE
  8
94
 10
13.151514
 20
0.420035
 30
0.000000
 11
13.206895
 21
0.420035
 31
0.000000
  0
LINE
  8
94
 10
13.234385
 20
0.433881
 30
0.000000
 11
13.262076
 21
0.461571
 31
0.000000
  0
LINE
  8
94
 10
13.262076
 20
0.461571
 30
0.000000
 11
13.262076
 21
0.378500
 31
0.000000
  0
LINE
  8
94
 10
13.234385
 20
0.378500
 30
0.000000
 11
13.289766
 21
0.378500
 31
0.000000
  0
LINE
  8
94
 10
13.317256
 20
0.433881
 30
0.000000
 11
13.331101
 21
0.433881
 31
0.000000
  0
LINE
  8
94
 10
13.331101
 20
0.433881
 30
0.000000
 11
13.331101
 21
0.420035
 31
0.000000
  0
LINE
  8
94
 10
13.331101
 20
0.420035
 30
0.000000
 11
13.317256
 21
0.420035
 31
0.000000
  0
LINE
  8
94
 10
13.317256
 20
0.420035
 30
0.000000
 11
13.317256
 21
0.433881
 31
0.000000
  0
LINE
  8
94
 10
13.317256
 20
0.392345
 30
0.000000
 11
13.331101
 21
0.392345
 31
0.000000
  0
LINE
  8
94
 10
13.331101
 20
0.392345
 30
0.000000
 11
13.331101
 21
0.378500
 31
0.000000
  0
LINE
  8
94
 10
13.331101
 20
0.378500
 30
0.000000
 11
13.317256
 21
0.378500
 31
0.000000
  0
LINE
  8
94
 10
13.317256
 20
0.378500
 30
0.000000
 11
13.317256
 21
0.392345
 31
0.000000
  0
LINE
  8
94
 10
13.358691
 20
0.392345
 30
0.000000
 11
13.358691
 21
0.447726
 31
0.000000
  0
LINE
  8
94
 10
13.358691
 20
0.447726
 30
0.000000
 11
13.372537
 21
0.461571
 31
0.000000
  0
LINE
  8
94
 10
13.372537
 20
0.461571
 30
0.000000
 11
13.400227
 21
0.461571
 31
0.000000
  0
LINE
  8
94
 10
13.400227
 20
0.461571
 30
0.000000
 11
13.414072
 21
0.447726
 31
0.000000
  0
LINE
  8
94
 10
13.414072
 20
0.447726
 30
0.000000
 11
13.414072
 21
0.392345
 31
0.000000
  0
LINE
  8
94
 10
13.414072
 20
0.392345
 30
0.000000
 11
13.400227
 21
0.378500
 31
0.000000
  0
LINE
  8
94
 10
13.400227
 20
0.378500
 30
0.000000
 11
13.372537
 21
0.378500
 31
0.000000
  0
LINE
  8
94
 10
13.372537
 20
0.378500
 30
0.000000
 11
13.358691
 21
0.392345
 31
0.000000
  0
LINE
  8
94
 10
13.358691
 20
0.392345
 30
0.000000
 11
13.414072
 21
0.447726
 31
0.000000
  0
LINE
  8
94
 10
13.441562
 20
0.433881
 30
0.000000
 11
13.469253
 21
0.461571
 31
0.000000
  0
LINE
  8
94
 10
13.469253
 20
0.461571
 30
0.000000
 11
13.469253
 21
0.378500
 31
0.000000
  0
LINE
  8
94
 10
13.441562
 20
0.378500
 30
0.000000
 11
13.496943
 21
0.378500
 31
0.000000
  0
LINE
  8
94
 10
13.607304
 20
0.378500
 30
0.000000
 11
13.607304
 21
0.461571
 31
0.000000
  0
LINE
  8
94
 10
13.607304
 20
0.461571
 30
0.000000
 11
13.648839
 21
0.461571
 31
0.000000
  0
LINE
  8
94
 10
13.648839
 20
0.461571
 30
0.000000
 11
13.662685
 21
0.447726
 31
0.000000
  0
LINE
  8
94
 10
13.662685
 20
0.447726
 30
0.000000
 11
13.662685
 21
0.420035
 31
0.000000
  0
LINE
  8
94
 10
13.662685
 20
0.420035
 30
0.000000
 11
13.648839
 21
0.406190
 31
0.000000
  0
LINE
  8
94
 10
13.648839
 20
0.406190
 30
0.000000
 11
13.607304
 21
0.406190
 31
0.000000
  0
LINE
  8
94
 10
13.690175
 20
0.378500
 30
0.000000
 11
13.690175
 21
0.461571
 31
0.000000
  0
LINE
  8
94
 10
13.690175
 20
0.461571
 30
0.000000
 11
13.717865
 21
0.433881
 31
0.000000
  0
LINE
  8
94
 10
13.717865
 20
0.433881
 30
0.000000
 11
13.745555
 21
0.461571
 31
0.000000
  0
LINE
  8
94
 10
13.745555
 20
0.461571
 30
0.000000
 11
13.745555
 21
0.378500
 31
0.000000
  0
LINE
  8
94
 10
14.504000
 20
0.255732
 30
0.000000
 11
14.519346
 21
0.271079
 31
0.000000
  0
LINE
  8
94
 10
14.519346
 20
0.271079
 30
0.000000
 11
14.550039
 21
0.271079
 31
0.000000
  0
LINE
  8
94
 10
14.550039
 20
0.271079
 30
0.000000
 11
14.565386
 21
0.255732
 31
0.000000
  0
LINE
  8
94
 10
14.565386
 20
0.255732
 30
0.000000
 11
14.565386
 21
0.240386
 31
0.000000
  0
LINE
  8
94
 10
14.565386
 20
0.240386
 30
0.000000
 11
14.550039
 21
0.225039
 31
0.000000
  0
LINE
  8
94
 10
14.550039
 20
0.225039
 30
0.000000
 11
14.534693
 21
0.225039
 31
0.000000
  0
LINE
  8
94
 10
14.550039
 20
0.225039
 30
0.000000
 11
14.565386
 21
0.209693
 31
0.000000
  0
LINE
  8
94
 10
14.565386
 20
0.209693
 30
0.000000
 11
14.565386
 21
0.194346
 31
0.000000
  0
LINE
  8
94
 10
14.565386
 20
0.194346
 30
0.000000
 11
14.550039
 21
0.179000
 31
0.000000
  0
LINE
  8
94
 10
14.550039
 20
0.179000
 30
0.000000
 11
14.519346
 21
0.179000
 31
0.000000
  0
LINE
  8
94
 10
14.519346
 20
0.179000
 30
0.000000
 11
14.504000
 21
0.194346
 31
0.000000
  0
LINE
  8
94
 10
14.596079
 20
0.179000
 30
0.000000
 11
14.657464
 21
0.271079
 31
0.000000
  0
LINE
  8
94
 10
14.734196
 20
0.179000
 30
0.000000
 11
14.734196
 21
0.271079
 31
0.000000
  0
LINE
  8
94
 10
14.734196
 20
0.271079
 30
0.000000
 11
14.688157
 21
0.225039
 31
0.000000
  0
LINE
  8
94
 10
14.688157
 20
0.225039
 30
0.000000
 11
14.749543
 21
0.225039
 31
0.000000
  0
TEXT
  7
ISOCP
  8
94
 10
12.190000
 20
0.170000
 30
0.000000
 40
0.100000
  1
Drawn By:
  0
TEXT
  7
ISOCP
  8
94
 10
12.200000
 20
0.770000
 30
0.000000
 40
0.100000
  1
Title:
  0
TEXT
  7
ISOCP
  8
94
 10
12.210000
 20
0.570000
 30
0.000000
 40
0.100000
  1
Version:
  0
LINE
  8
94
 10
7.300000
 20
5.800000
 30
0.000000
 11
7.500000
 21
5.800000
 31
0.000000
  0
LINE
  8
94
 10
7.500000
 20
5.800000
 30
0.000000
 11
7.700000
 21
5.800000
 31
0.000000
  0
ARC
  8
94
 10
7.500000
 20
5.818752
 30
0.000000
 40
0.128846
 50
39.093179
 51
140.906821
  0
LINE
  8
94
 10
7.500000
 20
5.950000
 30
0.000000
 11
7.500000
 21
5.800000
 31
0.000000
  0
TEXT
  7
ISOCP
  8
95
 10
7.325000
 20
5.975000
 30
0.000000
 40
0.070000
  1
U$16
  0
TEXT
  7
ISOCP
  8
96
 10
7.320000
 20
6.070000
 30
0.000000
 40
0.070000
  1
9210-0072
  0
LINE
  8
94
 10
7.100000
 20
5.700000
 30
0.000000
 11
7.300000
 21
5.700000
 31
0.000000
  0
LINE
  8
94
 10
7.900000
 20
5.700000
 30
0.000000
 11
7.700000
 21
5.700000
 31
0.000000
  0
CIRCLE
  8
94
 10
7.300000
 20
5.700000
 30
0.000000
 40
0.025000
  0
CIRCLE
  8
94
 10
7.700000
 20
5.700000
 30
0.000000
 40
0.025000
  0
LINE
  8
94
 10
5.010000
 20
8.300000
 30
0.000000
 11
5.190000
 21
8.300000
 31
0.000000
  0
LINE
  8
94
 10
5.100000
 20
7.970000
 30
0.000000
 11
5.100000
 21
8.440000
 31
0.000000
  0
LINE
  8
94
 10
5.010000
 20
7.960000
 30
0.000000
 11
5.190000
 21
7.960000
 31
0.000000
  0
ARC
  8
94
 10
5.100000
 20
8.300000
 30
0.000000
 40
0.141421
 50
45.000000
 51
135.000000
  0
ARC
  8
94
 10
5.055004
 20
7.868327
 30
0.000000
 40
0.087716
 50
231.165341
 51
14.305111
  0
ARC
  8
94
 10
5.145001
 20
7.868335
 30
0.000000
 40
0.087719
 50
165.700689
 51
308.828858
  0
ARC
  8
94
 10
5.100000
 20
7.890000
 30
0.000000
 40
0.040000
 50
0.000000
 51
180.000000
  0
TEXT
  7
ISOCP
  8
94
 10
4.930000
 20
8.470000
 30
0.000000
 40
0.070000
  1
E-STOP
  0
LINE
  8
94
 10
4.800000
 20
8.200000
 30
0.000000
 11
5.000000
 21
8.200000
 31
0.000000
  0
LINE
  8
94
 10
4.800000
 20
8.000000
 30
0.000000
 11
5.000000
 21
8.000000
 31
0.000000
  0
LINE
  8
94
 10
5.400000
 20
8.200000
 30
0.000000
 11
5.200000
 21
8.200000
 31
0.000000
  0
LINE
  8
94
 10
5.400000
 20
8.000000
 30
0.000000
 11
5.200000
 21
8.000000
 31
0.000000
  0
LINE
  8
94
 10
4.800000
 20
7.800000
 30
0.000000
 11
5.000000
 21
7.800000
 31
0.000000
  0
LINE
  8
94
 10
5.400000
 20
7.800000
 30
0.000000
 11
5.200000
 21
7.800000
 31
0.000000
  0
CIRCLE
  8
94
 10
5.030000
 20
8.200000
 30
0.000000
 40
0.030000
  0
CIRCLE
  8
94
 10
5.170000
 20
8.200000
 30
0.000000
 40
0.030000
  0
CIRCLE
  8
94
 10
5.030000
 20
8.000000
 30
0.000000
 40
0.030000
  0
CIRCLE
  8
94
 10
5.170000
 20
8.000000
 30
0.000000
 40
0.030000
  0
LINE
  8
94
 10
7.320000
 20
3.630000
 30
0.000000
 11
7.280000
 21
3.660000
 31
0.000000
  0
LINE
  8
94
 10
7.280000
 20
3.660000
 30
0.000000
 11
7.360000
 21
3.700000
 31
0.000000
  0
LINE
  8
94
 10
7.360000
 20
3.700000
 30
0.000000
 11
7.280000
 21
3.750000
 31
0.000000
  0
LINE
  8
94
 10
7.280000
 20
3.750000
 30
0.000000
 11
7.360000
 21
3.800000
 31
0.000000
  0
LINE
  8
94
 10
7.360000
 20
3.800000
 30
0.000000
 11
7.280000
 21
3.850000
 31
0.000000
  0
LINE
  8
94
 10
7.280000
 20
3.850000
 30
0.000000
 11
7.360000
 21
3.900000
 31
0.000000
  0
LINE
  8
94
 10
7.360000
 20
3.900000
 30
0.000000
 11
7.280000
 21
3.950000
 31
0.000000
  0
LINE
  8
94
 10
7.280000
 20
3.950000
 30
0.000000
 11
7.320000
 21
3.980000
 31
0.000000
  0
LINE
  8
94
 10
7.430000
 20
3.840000
 30
0.000000
 11
7.390000
 21
3.800000
 31
0.000000
  0
LINE
  8
94
 10
7.390000
 20
3.800000
 30
0.000000
 11
7.430000
 21
3.760000
 31
0.000000
  0
LINE
  8
94
 10
7.000000
 20
4.800000
 30
0.000000
 11
8.000000
 21
4.800000
 31
0.000000
  0
LINE
  8
94
 10
8.000000
 20
4.800000
 30
0.000000
 11
8.000000
 21
4.700000
 31
0.000000
  0
LINE
  8
94
 10
8.000000
 20
4.700000
 30
0.000000
 11
8.000000
 21
4.500000
 31
0.000000
  0
LINE
  8
94
 10
8.000000
 20
4.500000
 30
0.000000
 11
8.000000
 21
4.400000
 31
0.000000
  0
LINE
  8
94
 10
8.000000
 20
4.400000
 30
0.000000
 11
8.000000
 21
4.200000
 31
0.000000
  0
LINE
  8
94
 10
8.000000
 20
4.200000
 30
0.000000
 11
8.000000
 21
3.800000
 31
0.000000
  0
LINE
  8
94
 10
8.000000
 20
3.800000
 30
0.000000
 11
8.000000
 21
3.500000
 31
0.000000
  0
LINE
  8
94
 10
8.000000
 20
3.500000
 30
0.000000
 11
7.000000
 21
3.500000
 31
0.000000
  0
LINE
  8
94
 10
7.000000
 20
3.500000
 30
0.000000
 11
7.000000
 21
3.600000
 31
0.000000
  0
LINE
  8
94
 10
7.000000
 20
3.600000
 30
0.000000
 11
7.000000
 21
3.800000
 31
0.000000
  0
LINE
  8
94
 10
7.000000
 20
3.800000
 30
0.000000
 11
7.000000
 21
4.000000
 31
0.000000
  0
LINE
  8
94
 10
7.000000
 20
4.000000
 30
0.000000
 11
7.000000
 21
4.300000
 31
0.000000
  0
LINE
  8
94
 10
7.000000
 20
4.300000
 30
0.000000
 11
7.000000
 21
4.600000
 31
0.000000
  0
LINE
  8
94
 10
7.000000
 20
4.600000
 30
0.000000
 11
7.000000
 21
4.800000
 31
0.000000
  0
LINE
  8
94
 10
7.160000
 20
4.000000
 30
0.000000
 11
7.320000
 21
4.000000
 31
0.000000
  0
LINE
  8
94
 10
7.320000
 20
4.000000
 30
0.000000
 11
7.320000
 21
3.980000
 31
0.000000
  0
LINE
  8
94
 10
7.320000
 20
3.630000
 30
0.000000
 11
7.320000
 21
3.600000
 31
0.000000
  0
LINE
  8
94
 10
7.320000
 20
3.600000
 30
0.000000
 11
7.170000
 21
3.600000
 31
0.000000
  0
LINE
  8
94
 10
7.390000
 20
3.800000
 30
0.000000
 11
7.600000
 21
3.800000
 31
0.000000
  0
LINE
  8
94
 10
7.660000
 20
3.800000
 30
0.000000
 11
7.820000
 21
3.800000
 31
0.000000
  0
LINE
  8
94
 10
7.320000
 20
3.800000
 30
0.000000
 11
7.160000
 21
3.800000
 31
0.000000
  0
LINE
  8
94
 10
7.000000
 20
4.600000
 30
0.000000
 11
7.080000
 21
4.600000
 31
0.000000
  0
LINE
  8
94
 10
7.000000
 20
4.300000
 30
0.000000
 11
7.080000
 21
4.300000
 31
0.000000
  0
LINE
  8
94
 10
7.000000
 20
3.600000
 30
0.000000
 11
7.080000
 21
3.600000
 31
0.000000
  0
LINE
  8
94
 10
7.000000
 20
3.800000
 30
0.000000
 11
7.080000
 21
3.800000
 31
0.000000
  0
LINE
  8
94
 10
7.000000
 20
4.000000
 30
0.000000
 11
7.080000
 21
4.000000
 31
0.000000
  0
LINE
  8
94
 10
8.000000
 20
3.800000
 30
0.000000
 11
7.920000
 21
3.800000
 31
0.000000
  0
LINE
  8
94
 10
8.000000
 20
4.700000
 30
0.000000
 11
7.920000
 21
4.700000
 31
0.000000
  0
LINE
  8
94
 10
8.000000
 20
4.500000
 30
0.000000
 11
7.920000
 21
4.500000
 31
0.000000
  0
LINE
  8
94
 10
8.000000
 20
4.400000
 30
0.000000
 11
7.920000
 21
4.400000
 31
0.000000
  0
LINE
  8
94
 10
8.000000
 20
4.200000
 30
0.000000
 11
7.920000
 21
4.200000
 31
0.000000
  0
LINE
  8
94
 10
7.680000
 20
4.200000
 30
0.000000
 11
7.720000
 21
4.200000
 31
0.000000
  0
LINE
  8
94
 10
7.680000
 20
4.400000
 30
0.000000
 11
7.720000
 21
4.400000
 31
0.000000
  0
LINE
  8
94
 10
7.680000
 20
4.500000
 30
0.000000
 11
7.720000
 21
4.500000
 31
0.000000
  0
LINE
  8
94
 10
7.680000
 20
4.700000
 30
0.000000
 11
7.720000
 21
4.700000
 31
0.000000
  0
LINE
  8
94
 10
7.430000
 20
4.600000
 30
0.000000
 11
7.680000
 21
4.670000
 31
0.000000
  0
LINE
  8
94
 10
7.430000
 20
4.600000
 30
0.000000
 11
7.530000
 21
4.670000
 31
0.000000
  0
LINE
  8
94
 10
7.530000
 20
4.670000
 30
0.000000
 11
7.670000
 21
4.670000
 31
0.000000
  0
LINE
  8
94
 10
7.530000
 20
4.670000
 30
0.000000
 11
7.500000
 21
4.730000
 31
0.000000
  0
LINE
  8
94
 10
7.530000
 20
4.670000
 30
0.000000
 11
7.570000
 21
4.590000
 31
0.000000
  0
LINE
  8
94
 10
7.570000
 20
4.590000
 30
0.000000
 11
7.540000
 21
4.600000
 31
0.000000
  0
LINE
  8
94
 10
7.570000
 20
4.590000
 30
0.000000
 11
7.580000
 21
4.610000
 31
0.000000
  0
LINE
  8
94
 10
7.430000
 20
4.300000
 30
0.000000
 11
7.530000
 21
4.370000
 31
0.000000
  0
LINE
  8
94
 10
7.530000
 20
4.370000
 30
0.000000
 11
7.670000
 21
4.370000
 31
0.000000
  0
LINE
  8
94
 10
7.530000
 20
4.370000
 30
0.000000
 11
7.500000
 21
4.430000
 31
0.000000
  0
LINE
  8
94
 10
7.530000
 20
4.370000
 30
0.000000
 11
7.570000
 21
4.290000
 31
0.000000
  0
LINE
  8
94
 10
7.570000
 20
4.290000
 30
0.000000
 11
7.540000
 21
4.300000
 31
0.000000
  0
LINE
  8
94
 10
7.570000
 20
4.290000
 30
0.000000
 11
7.580000
 21
4.310000
 31
0.000000
  0
LINE
  8
94
 10
7.430000
 20
4.300000
 30
0.000000
 11
7.680000
 21
4.370000
 31
0.000000
  0
LINE
  8
94
 10
6.800000
 20
4.600000
 30
0.000000
 11
7.000000
 21
4.600000
 31
0.000000
  0
TEXT
  7
ISOCP
  8
95
 10
7.092000
 20
4.570000
 30
0.000000
 40
0.060000
  1
COM1
  0
LINE
  8
94
 10
6.800000
 20
4.300000
 30
0.000000
 11
7.000000
 21
4.300000
 31
0.000000
  0
TEXT
  7
ISOCP
  8
95
 10
7.092000
 20
4.270000
 30
0.000000
 40
0.060000
  1
COM2
  0
LINE
  8
94
 10
6.800000
 20
4.000000
 30
0.000000
 11
7.000000
 21
4.000000
 31
0.000000
  0
TEXT
  7
ISOCP
  8
95
 10
7.092000
 20
3.970000
 30
0.000000
 40
0.060000
  1
L
  0
LINE
  8
94
 10
8.200000
 20
4.700000
 30
0.000000
 11
8.000000
 21
4.700000
 31
0.000000
  0
TEXT
  7
ISOCP
  8
95
 10
7.908000
 20
4.730000
 30
0.000000
 40
0.060000
  1
NC1
 72
2
 73
3
 11
7.908000
 21
4.730000
 31
0.000000
  0
LINE
  8
94
 10
8.200000
 20
4.400000
 30
0.000000
 11
8.000000
 21
4.400000
 31
0.000000
  0
TEXT
  7
ISOCP
  8
95
 10
7.908000
 20
4.430000
 30
0.000000
 40
0.060000
  1
NC2
 72
2
 73
3
 11
7.908000
 21
4.430000
 31
0.000000
  0
LINE
  8
94
 10
8.200000
 20
4.500000
 30
0.000000
 11
8.000000
 21
4.500000
 31
0.000000
  0
TEXT
  7
ISOCP
  8
95
 10
7.908000
 20
4.530000
 30
0.000000
 40
0.060000
  1
NO1
 72
2
 73
3
 11
7.908000
 21
4.530000
 31
0.000000
  0
LINE
  8
94
 10
8.200000
 20
4.200000
 30
0.000000
 11
8.000000
 21
4.200000
 31
0.000000
  0
TEXT
  7
ISOCP
  8
95
 10
7.908000
 20
4.230000
 30
0.000000
 40
0.060000
  1
NO2
 72
2
 73
3
 11
7.908000
 21
4.230000
 31
0.000000
  0
LINE
  8
94
 10
6.800000
 20
3.600000
 30
0.000000
 11
7.000000
 21
3.600000
 31
0.000000
  0
TEXT
  7
ISOCP
  8
95
 10
7.092000
 20
3.570000
 30
0.000000
 40
0.060000
  1
R
  0
LINE
  8
94
 10
6.800000
 20
3.800000
 30
0.000000
 11
7.000000
 21
3.800000
 31
0.000000
  0
TEXT
  7
ISOCP
  8
95
 10
7.092000
 20
3.770000
 30
0.000000
 40
0.060000
  1
T
  0
LINE
  8
94
 10
8.200000
 20
3.800000
 30
0.000000
 11
8.000000
 21
3.800000
 31
0.000000
  0
TEXT
  7
ISOCP
  8
95
 10
7.908000
 20
3.830000
 30
0.000000
 40
0.060000
  1
W
 72
2
 73
3
 11
7.908000
 21
3.830000
 31
0.000000
  0
CIRCLE
  8
94
 10
7.630000
 20
3.800000
 30
0.000000
 40
0.030000
  0
CIRCLE
  8
94
 10
7.320000
 20
3.800000
 30
0.000000
 40
0.010000
  0
CIRCLE
  8
94
 10
7.400000
 20
4.600000
 30
0.000000
 40
0.030000
  0
CIRCLE
  8
94
 10
7.650000
 20
4.700000
 30
0.000000
 40
0.030000
  0
CIRCLE
  8
94
 10
7.650000
 20
4.500000
 30
0.000000
 40
0.030000
  0
CIRCLE
  8
94
 10
7.650000
 20
4.400000
 30
0.000000
 40
0.030000
  0
CIRCLE
  8
94
 10
7.650000
 20
4.200000
 30
0.000000
 40
0.030000
  0
CIRCLE
  8
94
 10
7.400000
 20
4.300000
 30
0.000000
 40
0.030000
  0
LINE
  8
94
 10
7.200000
 20
7.500000
 30
0.000000
 11
8.000000
 21
7.500000
 31
0.000000
  0
LINE
  8
94
 10
8.000000
 20
7.500000
 30
0.000000
 11
8.000000
 21
6.700000
 31
0.000000
  0
LINE
  8
94
 10
8.000000
 20
6.700000
 30
0.000000
 11
7.200000
 21
6.700000
 31
0.000000
  0
LINE
  8
94
 10
7.200000
 20
6.700000
 30
0.000000
 11
7.200000
 21
7.500000
 31
0.000000
  0
LINE
  8
94
 10
7.700000
 20
7.400000
 30
0.000000
 11
7.900000
 21
7.400000
 31
0.000000
  0
LINE
  8
94
 10
7.900000
 20
7.400000
 30
0.000000
 11
7.900000
 21
6.800000
 31
0.000000
  0
LINE
  8
94
 10
7.900000
 20
6.800000
 30
0.000000
 11
7.700000
 21
6.800000
 31
0.000000
  0
LINE
  8
94
 10
7.700000
 20
6.800000
 30
0.000000
 11
7.700000
 21
7.400000
 31
0.000000
  0
TEXT
  7
ISOCP
  8
95
 10
7.300000
 20
7.650000
 30
0.000000
 40
0.070000
  1
U$19
  0
TEXT
  7
ISOCP
  8
96
 10
7.300000
 20
7.550000
 30
0.000000
 40
0.070000
  1
DISPLAY_COUNTER_ELW
  0
LINE
  8
94
 10
7.000000
 20
7.200000
 30
0.000000
 11
7.200000
 21
7.200000
 31
0.000000
  0
TEXT
  7
ISOCP
  8
95
 10
7.292000
 20
7.170000
 30
0.000000
 40
0.060000
  1
+V
  0
LINE
  8
94
 10
7.000000
 20
7.300000
 30
0.000000
 11
7.200000
 21
7.300000
 31
0.000000
  0
TEXT
  7
ISOCP
  8
95
 10
7.292000
 20
7.270000
 30
0.000000
 40
0.060000
  1
COM
  0
LINE
  8
94
 10
7.000000
 20
6.900000
 30
0.000000
 11
7.200000
 21
6.900000
 31
0.000000
  0
TEXT
  7
ISOCP
  8
95
 10
7.292000
 20
6.870000
 30
0.000000
 40
0.060000
  1
COM
  0
LINE
  8
94
 10
7.000000
 20
7.000000
 30
0.000000
 11
7.200000
 21
7.000000
 31
0.000000
  0
TEXT
  7
ISOCP
  8
95
 10
7.292000
 20
6.970000
 30
0.000000
 40
0.060000
  1
RST
  0
LINE
  8
94
 10
7.000000
 20
7.100000
 30
0.000000
 11
7.200000
 21
7.100000
 31
0.000000
  0
TEXT
  7
ISOCP
  8
95
 10
7.292000
 20
7.070000
 30
0.000000
 40
0.060000
  1
SPD
  0
LINE
  8
94
 10
10.400000
 20
5.800000
 30
0.000000
 11
10.400000
 21
5.900000
 31
0.000000
  0
LINE
  8
94
 10
10.400000
 20
5.900000
 30
0.000000
 11
10.400000
 21
6.000000
 31
0.000000
  0
LINE
  8
94
 10
10.400000
 20
6.000000
 30
0.000000
 11
10.400000
 21
6.100000
 31
0.000000
  0
LINE
  8
94
 10
10.400000
 20
6.100000
 30
0.000000
 11
10.400000
 21
6.200000
 31
0.000000
  0
LINE
  8
94
 10
10.400000
 20
6.200000
 30
0.000000
 11
10.400000
 21
6.300000
 31
0.000000
  0
LINE
  8
94
 10
10.400000
 20
6.300000
 30
0.000000
 11
10.400000
 21
6.400000
 31
0.000000
  0
LINE
  8
94
 10
10.400000
 20
6.400000
 30
0.000000
 11
10.400000
 21
6.500000
 31
0.000000
  0
LINE
  8
94
 10
10.400000
 20
6.500000
 30
0.000000
 11
10.400000
 21
6.600000
 31
0.000000
  0
LINE
  8
94
 10
10.400000
 20
6.600000
 30
0.000000
 11
10.400000
 21
6.700000
 31
0.000000
  0
LINE
  8
94
 10
10.400000
 20
6.600000
 30
0.000000
 11
10.460000
 21
6.600000
 31
0.000000
  0
LINE
  8
94
 10
10.400000
 20
6.500000
 30
0.000000
 11
10.460000
 21
6.500000
 31
0.000000
  0
LINE
  8
94
 10
10.400000
 20
6.400000
 30
0.000000
 11
10.460000
 21
6.400000
 31
0.000000
  0
LINE
  8
94
 10
10.400000
 20
5.900000
 30
0.000000
 11
10.460000
 21
5.900000
 31
0.000000
  0
LINE
  8
94
 10
10.400000
 20
6.000000
 30
0.000000
 11
10.460000
 21
6.000000
 31
0.000000
  0
LINE
  8
94
 10
10.400000
 20
6.100000
 30
0.000000
 11
10.460000
 21
6.100000
 31
0.000000
  0
LINE
  8
94
 10
10.400000
 20
6.300000
 30
0.000000
 11
10.460000
 21
6.300000
 31
0.000000
  0
LINE
  8
94
 10
10.400000
 20
6.200000
 30
0.000000
 11
10.460000
 21
6.200000
 31
0.000000
  0
LINE
  8
94
 10
10.800000
 20
5.800000
 30
0.000000
 11
10.400000
 21
5.800000
 31
0.000000
  0
LINE
  8
94
 10
10.400000
 20
6.700000
 30
0.000000
 11
10.800000
 21
6.700000
 31
0.000000
  0
LINE
  8
94
 10
10.800000
 20
6.700000
 30
0.000000
 11
10.800000
 21
6.600000
 31
0.000000
  0
LINE
  8
94
 10
10.800000
 20
6.600000
 30
0.000000
 11
10.800000
 21
6.500000
 31
0.000000
  0
LINE
  8
94
 10
10.800000
 20
6.500000
 30
0.000000
 11
10.800000
 21
6.400000
 31
0.000000
  0
LINE
  8
94
 10
10.800000
 20
6.400000
 30
0.000000
 11
10.800000
 21
6.300000
 31
0.000000
  0
LINE
  8
94
 10
10.800000
 20
6.300000
 30
0.000000
 11
10.800000
 21
6.200000
 31
0.000000
  0
LINE
  8
94
 10
10.800000
 20
6.200000
 30
0.000000
 11
10.800000
 21
6.100000
 31
0.000000
  0
LINE
  8
94
 10
10.800000
 20
6.100000
 30
0.000000
 11
10.800000
 21
6.000000
 31
0.000000
  0
LINE
  8
94
 10
10.800000
 20
6.000000
 30
0.000000
 11
10.800000
 21
5.900000
 31
0.000000
  0
LINE
  8
94
 10
10.800000
 20
5.900000
 30
0.000000
 11
10.800000
 21
5.800000
 31
0.000000
  0
LINE
  8
94
 10
10.800000
 20
6.600000
 30
0.000000
 11
10.740000
 21
6.600000
 31
0.000000
  0
LINE
  8
94
 10
10.800000
 20
6.500000
 30
0.000000
 11
10.740000
 21
6.500000
 31
0.000000
  0
LINE
  8
94
 10
10.800000
 20
6.400000
 30
0.000000
 11
10.740000
 21
6.400000
 31
0.000000
  0
LINE
  8
94
 10
10.800000
 20
6.300000
 30
0.000000
 11
10.740000
 21
6.300000
 31
0.000000
  0
LINE
  8
94
 10
10.800000
 20
6.200000
 30
0.000000
 11
10.740000
 21
6.200000
 31
0.000000
  0
LINE
  8
94
 10
10.800000
 20
6.100000
 30
0.000000
 11
10.740000
 21
6.100000
 31
0.000000
  0
LINE
  8
94
 10
10.800000
 20
6.000000
 30
0.000000
 11
10.740000
 21
6.000000
 31
0.000000
  0
LINE
  8
94
 10
10.800000
 20
5.900000
 30
0.000000
 11
10.740000
 21
5.900000
 31
0.000000
  0
LINE
  8
94
 10
10.540000
 20
5.900000
 30
0.000000
 11
10.660000
 21
5.900000
 31
0.000000
  0
LINE
  8
94
 10
10.540000
 20
6.000000
 30
0.000000
 11
10.660000
 21
6.000000
 31
0.000000
  0
LINE
  8
94
 10
10.540000
 20
6.100000
 30
0.000000
 11
10.660000
 21
6.100000
 31
0.000000
  0
LINE
  8
94
 10
10.540000
 20
6.200000
 30
0.000000
 11
10.660000
 21
6.200000
 31
0.000000
  0
LINE
  8
94
 10
10.540000
 20
6.300000
 30
0.000000
 11
10.660000
 21
6.300000
 31
0.000000
  0
LINE
  8
94
 10
10.540000
 20
6.400000
 30
0.000000
 11
10.660000
 21
6.400000
 31
0.000000
  0
LINE
  8
94
 10
10.540000
 20
6.500000
 30
0.000000
 11
10.660000
 21
6.500000
 31
0.000000
  0
LINE
  8
94
 10
10.540000
 20
6.600000
 30
0.000000
 11
10.660000
 21
6.600000
 31
0.000000
  0
TEXT
  7
ISOCP
  8
94
 10
10.420000
 20
6.630000
 30
0.000000
 40
0.050000
  1
1
  0
TEXT
  7
ISOCP
  8
94
 10
10.410000
 20
5.810000
 30
0.000000
 40
0.050000
  1
14
  0
LINE
  8
94
 10
10.200000
 20
6.600000
 30
0.000000
 11
10.400000
 21
6.600000
 31
0.000000
  0
LINE
  8
94
 10
10.200000
 20
6.500000
 30
0.000000
 11
10.400000
 21
6.500000
 31
0.000000
  0
LINE
  8
94
 10
10.200000
 20
6.400000
 30
0.000000
 11
10.400000
 21
6.400000
 31
0.000000
  0
LINE
  8
94
 10
10.200000
 20
6.300000
 30
0.000000
 11
10.400000
 21
6.300000
 31
0.000000
  0
LINE
  8
94
 10
10.200000
 20
6.200000
 30
0.000000
 11
10.400000
 21
6.200000
 31
0.000000
  0
LINE
  8
94
 10
10.200000
 20
6.100000
 30
0.000000
 11
10.400000
 21
6.100000
 31
0.000000
  0
LINE
  8
94
 10
10.200000
 20
6.000000
 30
0.000000
 11
10.400000
 21
6.000000
 31
0.000000
  0
LINE
  8
94
 10
10.200000
 20
5.900000
 30
0.000000
 11
10.400000
 21
5.900000
 31
0.000000
  0
LINE
  8
94
 10
11.000000
 20
5.900000
 30
0.000000
 11
10.800000
 21
5.900000
 31
0.000000
  0
LINE
  8
94
 10
11.000000
 20
6.000000
 30
0.000000
 11
10.800000
 21
6.000000
 31
0.000000
  0
LINE
  8
94
 10
11.000000
 20
6.100000
 30
0.000000
 11
10.800000
 21
6.100000
 31
0.000000
  0
LINE
  8
94
 10
11.000000
 20
6.200000
 30
0.000000
 11
10.800000
 21
6.200000
 31
0.000000
  0
LINE
  8
94
 10
11.000000
 20
6.300000
 30
0.000000
 11
10.800000
 21
6.300000
 31
0.000000
  0
LINE
  8
94
 10
11.000000
 20
6.400000
 30
0.000000
 11
10.800000
 21
6.400000
 31
0.000000
  0
LINE
  8
94
 10
11.000000
 20
6.500000
 30
0.000000
 11
10.800000
 21
6.500000
 31
0.000000
  0
LINE
  8
94
 10
11.000000
 20
6.600000
 30
0.000000
 11
10.800000
 21
6.600000
 31
0.000000
  0
CIRCLE
  8
94
 10
10.500000
 20
6.600000
 30
0.000000
 40
0.040000
  0
CIRCLE
  8
94
 10
10.500000
 20
6.500000
 30
0.000000
 40
0.040000
  0
CIRCLE
  8
94
 10
10.500000
 20
6.400000
 30
0.000000
 40
0.040000
  0
CIRCLE
  8
94
 10
10.500000
 20
6.300000
 30
0.000000
 40
0.040000
  0
CIRCLE
  8
94
 10
10.500000
 20
6.200000
 30
0.000000
 40
0.040000
  0
CIRCLE
  8
94
 10
10.500000
 20
6.100000
 30
0.000000
 40
0.040000
  0
CIRCLE
  8
94
 10
10.500000
 20
6.100000
 30
0.000000
 40
0.040000
  0
CIRCLE
  8
94
 10
10.500000
 20
6.000000
 30
0.000000
 40
0.040000
  0
CIRCLE
  8
94
 10
10.500000
 20
5.900000
 30
0.000000
 40
0.040000
  0
CIRCLE
  8
94
 10
10.700000
 20
6.100000
 30
0.000000
 40
0.040000
  0
CIRCLE
  8
94
 10
10.700000
 20
6.200000
 30
0.000000
 40
0.040000
  0
CIRCLE
  8
94
 10
10.700000
 20
6.300000
 30
0.000000
 40
0.040000
  0
CIRCLE
  8
94
 10
10.700000
 20
6.400000
 30
0.000000
 40
0.040000
  0
CIRCLE
  8
94
 10
10.700000
 20
6.400000
 30
0.000000
 40
0.040000
  0
CIRCLE
  8
94
 10
10.700000
 20
6.500000
 30
0.000000
 40
0.040000
  0
CIRCLE
  8
94
 10
10.700000
 20
5.900000
 30
0.000000
 40
0.040000
  0
CIRCLE
  8
94
 10
10.700000
 20
6.000000
 30
0.000000
 40
0.040000
  0
CIRCLE
  8
94
 10
10.700000
 20
6.100000
 30
0.000000
 40
0.040000
  0
CIRCLE
  8
94
 10
10.700000
 20
6.600000
 30
0.000000
 40
0.040000
  0
ARC
  8
94
 10
12.100000
 20
6.750000
 30
0.000000
 40
0.050000
 50
270.000000
 51
90.000000
  0
ARC
  8
94
 10
12.100000
 20
6.650000
 30
0.000000
 40
0.050000
 50
270.000000
 51
90.000000
  0
ARC
  8
94
 10
12.100000
 20
6.350000
 30
0.000000
 40
0.050000
 50
270.000000
 51
90.000000
  0
ARC
  8
94
 10
12.100000
 20
6.250000
 30
0.000000
 40
0.050000
 50
270.000000
 51
90.000000
  0
ARC
  8
94
 10
12.750000
 20
5.600000
 30
0.000000
 40
0.050000
 50
0.000000
 51
180.000000
  0
ARC
  8
94
 10
12.850000
 20
5.600000
 30
0.000000
 40
0.050000
 50
0.000000
 51
180.000000
  0
ARC
  8
94
 10
13.150000
 20
5.600000
 30
0.000000
 40
0.050000
 50
0.000000
 51
180.000000
  0
ARC
  8
94
 10
13.250000
 20
5.600000
 30
0.000000
 40
0.050000
 50
0.000000
 51
180.000000
  0
TEXT
  7
ISOCP
  8
94
 10
12.800000
 20
6.600000
 30
0.000000
 40
0.070000
  1
Stepper
  0
TEXT
  7
ISOCP
  8
94
 10
12.800000
 20
6.500000
 30
0.000000
 40
0.070000
  1
Unipolar
  0
LINE
  8
94
 10
12.000000
 20
6.800000
 30
0.000000
 11
12.100000
 21
6.800000
 31
0.000000
  0
TEXT
  7
ISOCP
  8
95
 10
12.192000
 20
6.770000
 30
0.000000
 40
0.060000
  1
A1(BK)
  0
LINE
  8
94
 10
12.000000
 20
6.400000
 30
0.000000
 11
12.100000
 21
6.400000
 31
0.000000
  0
TEXT
  7
ISOCP
  8
95
 10
12.192000
 20
6.370000
 30
0.000000
 40
0.060000
  1
A2(OR/WH)
  0
LINE
  8
94
 10
12.000000
 20
6.600000
 30
0.000000
 11
12.100000
 21
6.600000
 31
0.000000
  0
TEXT
  7
ISOCP
  8
95
 10
12.192000
 20
6.570000
 30
0.000000
 40
0.060000
  1
A3(BK/WH)
  0
LINE
  8
94
 10
12.000000
 20
6.200000
 30
0.000000
 11
12.100000
 21
6.200000
 31
0.000000
  0
TEXT
  7
ISOCP
  8
95
 10
12.192000
 20
6.170000
 30
0.000000
 40
0.060000
  1
A4(OR)
  0
LINE
  8
94
 10
12.700000
 20
5.500000
 30
0.000000
 11
12.700000
 21
5.600000
 31
0.000000
  0
TEXT
  7
ISOCP
  8
95
 10
12.730000
 20
5.692000
 30
0.000000
 40
0.060000
  1
B5(RD)
 50
90.000000
  0
LINE
  8
94
 10
13.100000
 20
5.500000
 30
0.000000
 11
13.100000
 21
5.600000
 31
0.000000
  0
TEXT
  7
ISOCP
  8
95
 10
13.130000
 20
5.692000
 30
0.000000
 40
0.060000
  1
B6(YL/WH)
 50
90.000000
  0
LINE
  8
94
 10
12.900000
 20
5.500000
 30
0.000000
 11
12.900000
 21
5.600000
 31
0.000000
  0
TEXT
  7
ISOCP
  8
95
 10
12.930000
 20
5.692000
 30
0.000000
 40
0.060000
  1
B7(RD/WH)
 50
90.000000
  0
LINE
  8
94
 10
13.300000
 20
5.500000
 30
0.000000
 11
13.300000
 21
5.600000
 31
0.000000
  0
TEXT
  7
ISOCP
  8
95
 10
13.330000
 20
5.692000
 30
0.000000
 40
0.060000
  1
B8(YL)
 50
90.000000
  0
CIRCLE
  8
94
 10
13.000000
 20
6.500000
 30
0.000000
 40
0.316224
  0
ARC
  8
94
 10
12.800000
 20
8.500000
 30
0.000000
 40
0.300000
 50
0.000000
 51
180.000000
  0
LINE
  8
94
 10
12.500000
 20
8.500000
 30
0.000000
 11
12.500000
 21
8.000000
 31
0.000000
  0
LINE
  8
94
 10
12.500000
 20
8.000000
 30
0.000000
 11
13.100000
 21
8.000000
 31
0.000000
  0
LINE
  8
94
 10
13.100000
 20
8.000000
 30
0.000000
 11
13.100000
 21
8.500000
 31
0.000000
  0
TEXT
  7
ISOCP
  8
96
 10
12.600000
 20
8.820000
 30
0.000000
 40
0.070000
  1
ENCODER_1000SI
  0
TEXT
  7
ISOCP
  8
94
 10
12.600000
 20
8.900000
 30
0.000000
 40
0.070000
  1
Encoder
  0
LINE
  8
94
 10
12.900000
 20
7.800000
 30
0.000000
 11
12.900000
 21
8.000000
 31
0.000000
  0
TEXT
  7
ISOCP
  8
95
 10
12.930000
 20
8.092000
 30
0.000000
 40
0.060000
  1
+5VDC
 50
90.000000
  0
LINE
  8
94
 10
12.800000
 20
7.800000
 30
0.000000
 11
12.800000
 21
8.000000
 31
0.000000
  0
TEXT
  7
ISOCP
  8
95
 10
12.830000
 20
8.092000
 30
0.000000
 40
0.060000
  1
CH_A
 50
90.000000
  0
LINE
  8
94
 10
13.000000
 20
7.800000
 30
0.000000
 11
13.000000
 21
8.000000
 31
0.000000
  0
TEXT
  7
ISOCP
  8
95
 10
13.030000
 20
8.092000
 30
0.000000
 40
0.060000
  1
CH_B
 50
90.000000
  0
LINE
  8
94
 10
12.600000
 20
7.800000
 30
0.000000
 11
12.600000
 21
8.000000
 31
0.000000
  0
TEXT
  7
ISOCP
  8
95
 10
12.630000
 20
8.092000
 30
0.000000
 40
0.060000
  1
GROUND
 50
90.000000
  0
LINE
  8
94
 10
12.700000
 20
7.800000
 30
0.000000
 11
12.700000
 21
8.000000
 31
0.000000
  0
TEXT
  7
ISOCP
  8
95
 10
12.730000
 20
8.092000
 30
0.000000
 40
0.060000
  1
INDEX
 50
90.000000
  0
CIRCLE
  8
94
 10
12.800000
 20
8.500000
 30
0.000000
 40
0.100496
  0
LINE
  8
91
 10
7.000000
 20
7.300000
 30
0.000000
 11
5.600000
 21
7.300000
 31
0.000000
  0
LINE
  8
91
 10
5.600000
 20
7.300000
 30
0.000000
 11
5.600000
 21
6.700000
 31
0.000000
  0
LINE
  8
91
 10
5.600000
 20
6.700000
 30
0.000000
 11
5.600000
 21
3.600000
 31
0.000000
  0
LINE
  8
91
 10
5.400000
 20
7.800000
 30
0.000000
 11
5.600000
 21
7.800000
 31
0.000000
  0
LINE
  8
91
 10
5.600000
 20
7.800000
 30
0.000000
 11
5.600000
 21
7.300000
 31
0.000000
  0
LINE
  8
91
 10
1.200000
 20
6.700000
 30
0.000000
 11
5.600000
 21
6.700000
 31
0.000000
  0
LINE
  8
91
 10
6.800000
 20
3.600000
 30
0.000000
 11
5.600000
 21
3.600000
 31
0.000000
  0
CIRCLE
  8
91
 10
1.200000
 20
6.700000
 30
0.000000
 40
0.020000
  0
CIRCLE
  8
91
 10
5.600000
 20
7.300000
 30
0.000000
 40
0.020000
  0
CIRCLE
  8
91
 10
5.600000
 20
6.700000
 30
0.000000
 40
0.020000
  0
LINE
  8
91
 10
4.000000
 20
7.100000
 30
0.000000
 11
7.000000
 21
7.100000
 31
0.000000
  0
LINE
  8
91
 10
3.200000
 20
6.900000
 30
0.000000
 11
1.200000
 21
6.900000
 31
0.000000
  0
LINE
  8
91
 10
3.200000
 20
7.100000
 30
0.000000
 11
3.200000
 21
6.900000
 31
0.000000
  0
LINE
  8
91
 10
3.200000
 20
7.100000
 30
0.000000
 11
3.700000
 21
7.100000
 31
0.000000
  0
CIRCLE
  8
91
 10
1.200000
 20
6.900000
 30
0.000000
 40
0.020000
  0
LINE
  8
91
 10
1.200000
 20
6.600000
 30
0.000000
 11
6.400000
 21
6.600000
 31
0.000000
  0
LINE
  8
91
 10
6.400000
 20
6.600000
 30
0.000000
 11
6.400000
 21
5.100000
 31
0.000000
  0
LINE
  8
91
 10
6.400000
 20
5.100000
 30
0.000000
 11
8.600000
 21
5.100000
 31
0.000000
  0
LINE
  8
91
 10
8.600000
 20
5.100000
 30
0.000000
 11
8.600000
 21
4.500000
 31
0.000000
  0
LINE
  8
91
 10
8.600000
 20
4.500000
 30
0.000000
 11
8.200000
 21
4.500000
 31
0.000000
  0
CIRCLE
  8
91
 10
1.200000
 20
6.600000
 30
0.000000
 40
0.020000
  0
LINE
  8
91
 10
5.400000
 20
6.500000
 30
0.000000
 11
1.200000
 21
6.500000
 31
0.000000
  0
LINE
  8
91
 10
5.400000
 20
6.500000
 30
0.000000
 11
5.400000
 21
3.300000
 31
0.000000
  0
LINE
  8
91
 10
5.400000
 20
3.300000
 30
0.000000
 11
8.400000
 21
3.300000
 31
0.000000
  0
LINE
  8
91
 10
8.400000
 20
3.300000
 30
0.000000
 11
8.400000
 21
3.800000
 31
0.000000
  0
LINE
  8
91
 10
8.400000
 20
3.800000
 30
0.000000
 11
8.200000
 21
3.800000
 31
0.000000
  0
CIRCLE
  8
91
 10
1.200000
 20
6.500000
 30
0.000000
 40
0.020000
  0
LINE
  8
91
 10
1.200000
 20
6.400000
 30
0.000000
 11
6.200000
 21
6.400000
 31
0.000000
  0
LINE
  8
91
 10
6.200000
 20
6.400000
 30
0.000000
 11
6.200000
 21
5.700000
 31
0.000000
  0
LINE
  8
91
 10
6.200000
 20
5.700000
 30
0.000000
 11
6.800000
 21
5.700000
 31
0.000000
  0
CIRCLE
  8
91
 10
1.200000
 20
6.400000
 30
0.000000
 40
0.020000
  0
LINE
  8
91
 10
7.000000
 20
7.200000
 30
0.000000
 11
5.800000
 21
7.200000
 31
0.000000
  0
LINE
  8
91
 10
5.800000
 20
7.200000
 30
0.000000
 11
5.800000
 21
8.000000
 31
0.000000
  0
LINE
  8
91
 10
5.800000
 20
8.000000
 30
0.000000
 11
5.400000
 21
8.000000
 31
0.000000
  0
LINE
  8
91
 10
5.800000
 20
6.300000
 30
0.000000
 11
1.200000
 21
6.300000
 31
0.000000
  0
LINE
  8
91
 10
5.800000
 20
6.300000
 30
0.000000
 11
5.800000
 21
7.200000
 31
0.000000
  0
CIRCLE
  8
91
 10
1.200000
 20
6.300000
 30
0.000000
 40
0.020000
  0
CIRCLE
  8
91
 10
5.800000
 20
7.200000
 30
0.000000
 40
0.020000
  0
LINE
  8
91
 10
8.200000
 20
4.200000
 30
0.000000
 11
8.600000
 21
4.200000
 31
0.000000
  0
LINE
  8
91
 10
8.600000
 20
4.200000
 30
0.000000
 11
8.600000
 21
3.100000
 31
0.000000
  0
LINE
  8
91
 10
8.600000
 20
3.100000
 30
0.000000
 11
5.200000
 21
3.100000
 31
0.000000
  0
LINE
  8
91
 10
5.200000
 20
3.100000
 30
0.000000
 11
5.200000
 21
6.200000
 31
0.000000
  0
LINE
  8
91
 10
5.200000
 20
6.200000
 30
0.000000
 11
1.200000
 21
6.200000
 31
0.000000
  0
CIRCLE
  8
91
 10
1.200000
 20
6.200000
 30
0.000000
 40
0.020000
  0
LINE
  8
91
 10
6.800000
 20
5.700000
 30
0.000000
 11
7.100000
 21
5.700000
 31
0.000000
  0
LINE
  8
91
 10
6.600000
 20
5.300000
 30
0.000000
 11
8.000000
 21
5.300000
 31
0.000000
  0
LINE
  8
91
 10
8.000000
 20
5.300000
 30
0.000000
 11
8.000000
 21
5.700000
 31
0.000000
  0
LINE
  8
91
 10
8.000000
 20
5.700000
 30
0.000000
 11
7.900000
 21
5.700000
 31
0.000000
  0
LINE
  8
91
 10
4.500000
 20
4.600000
 30
0.000000
 11
4.500000
 21
6.800000
 31
0.000000
  0
LINE
  8
91
 10
4.500000
 20
6.800000
 30
0.000000
 11
4.500000
 21
7.800000
 31
0.000000
  0
LINE
  8
91
 10
4.500000
 20
7.800000
 30
0.000000
 11
4.800000
 21
7.800000
 31
0.000000
  0
LINE
  8
91
 10
4.800000
 20
8.000000
 30
0.000000
 11
4.500000
 21
8.000000
 31
0.000000
  0
LINE
  8
91
 10
4.500000
 20
8.000000
 30
0.000000
 11
4.500000
 21
7.800000
 31
0.000000
  0
LINE
  8
91
 10
4.500000
 20
6.800000
 30
0.000000
 11
1.200000
 21
6.800000
 31
0.000000
  0
LINE
  8
91
 10
6.800000
 20
4.600000
 30
0.000000
 11
6.600000
 21
4.600000
 31
0.000000
  0
LINE
  8
91
 10
6.600000
 20
4.600000
 30
0.000000
 11
4.500000
 21
4.600000
 31
0.000000
  0
LINE
  8
91
 10
6.800000
 20
4.300000
 30
0.000000
 11
6.600000
 21
4.300000
 31
0.000000
  0
LINE
  8
91
 10
6.600000
 20
4.300000
 30
0.000000
 11
6.600000
 21
4.600000
 31
0.000000
  0
LINE
  8
91
 10
6.600000
 20
5.300000
 30
0.000000
 11
6.600000
 21
4.600000
 31
0.000000
  0
LINE
  8
91
 10
6.600000
 20
4.000000
 30
0.000000
 11
6.800000
 21
4.000000
 31
0.000000
  0
LINE
  8
91
 10
6.600000
 20
4.300000
 30
0.000000
 11
6.600000
 21
4.000000
 31
0.000000
  0
CIRCLE
  8
91
 10
1.200000
 20
6.800000
 30
0.000000
 40
0.020000
  0
CIRCLE
  8
91
 10
4.500000
 20
7.800000
 30
0.000000
 40
0.020000
  0
CIRCLE
  8
91
 10
4.500000
 20
6.800000
 30
0.000000
 40
0.020000
  0
CIRCLE
  8
91
 10
6.600000
 20
4.600000
 30
0.000000
 40
0.020000
  0
CIRCLE
  8
91
 10
6.600000
 20
4.300000
 30
0.000000
 40
0.020000
  0
LINE
  8
91
 10
11.700000
 20
6.800000
 30
0.000000
 11
12.000000
 21
6.800000
 31
0.000000
  0
LINE
  8
91
 10
11.000000
 20
6.200000
 30
0.000000
 11
11.700000
 21
6.200000
 31
0.000000
  0
LINE
  8
91
 10
11.700000
 20
6.200000
 30
0.000000
 11
11.700000
 21
6.400000
 31
0.000000
  0
LINE
  8
91
 10
11.700000
 20
6.400000
 30
0.000000
 11
11.700000
 21
6.800000
 31
0.000000
  0
LINE
  8
91
 10
12.000000
 20
6.400000
 30
0.000000
 11
11.700000
 21
6.400000
 31
0.000000
  0
CIRCLE
  8
91
 10
11.700000
 20
6.400000
 30
0.000000
 40
0.020000
  0
LINE
  8
91
 10
12.000000
 20
6.200000
 30
0.000000
 11
11.800000
 21
6.200000
 31
0.000000
  0
LINE
  8
91
 10
11.000000
 20
6.100000
 30
0.000000
 11
11.800000
 21
6.100000
 31
0.000000
  0
LINE
  8
91
 10
11.800000
 20
6.100000
 30
0.000000
 11
11.800000
 21
6.200000
 31
0.000000
  0
LINE
  8
91
 10
12.000000
 20
6.600000
 30
0.000000
 11
11.800000
 21
6.600000
 31
0.000000
  0
LINE
  8
91
 10
11.800000
 20
6.600000
 30
0.000000
 11
11.800000
 21
6.200000
 31
0.000000
  0
CIRCLE
  8
91
 10
11.800000
 20
6.200000
 30
0.000000
 40
0.020000
  0
LINE
  8
91
 10
13.300000
 20
5.500000
 30
0.000000
 11
13.300000
 21
5.000000
 31
0.000000
  0
LINE
  8
91
 10
13.300000
 20
5.000000
 30
0.000000
 11
12.900000
 21
5.000000
 31
0.000000
  0
LINE
  8
91
 10
12.900000
 20
5.000000
 30
0.000000
 11
11.800000
 21
5.000000
 31
0.000000
  0
LINE
  8
91
 10
11.800000
 20
5.000000
 30
0.000000
 11
11.800000
 21
5.900000
 31
0.000000
  0
LINE
  8
91
 10
11.000000
 20
5.900000
 30
0.000000
 11
11.800000
 21
5.900000
 31
0.000000
  0
LINE
  8
91
 10
12.900000
 20
5.500000
 30
0.000000
 11
12.900000
 21
5.000000
 31
0.000000
  0
CIRCLE
  8
91
 10
12.900000
 20
5.000000
 30
0.000000
 40
0.020000
  0
LINE
  8
91
 10
12.700000
 20
5.500000
 30
0.000000
 11
12.700000
 21
5.100000
 31
0.000000
  0
LINE
  8
91
 10
12.700000
 20
5.100000
 30
0.000000
 11
11.700000
 21
5.100000
 31
0.000000
  0
LINE
  8
91
 10
11.700000
 20
5.100000
 30
0.000000
 11
11.700000
 21
6.000000
 31
0.000000
  0
LINE
  8
91
 10
11.000000
 20
6.000000
 30
0.000000
 11
11.700000
 21
6.000000
 31
0.000000
  0
LINE
  8
91
 10
13.100000
 20
5.500000
 30
0.000000
 11
13.100000
 21
5.100000
 31
0.000000
  0
LINE
  8
91
 10
13.100000
 20
5.100000
 30
0.000000
 11
12.700000
 21
5.100000
 31
0.000000
  0
CIRCLE
  8
91
 10
12.700000
 20
5.100000
 30
0.000000
 40
0.020000
  0
LINE
  8
91
 10
11.000000
 20
6.600000
 30
0.000000
 11
11.100000
 21
6.600000
 31
0.000000
  0
LINE
  8
91
 10
11.100000
 20
6.600000
 30
0.000000
 11
11.100000
 21
7.700000
 31
0.000000
  0
LINE
  8
91
 10
11.100000
 20
7.700000
 30
0.000000
 11
12.600000
 21
7.700000
 31
0.000000
  0
LINE
  8
91
 10
12.600000
 20
7.700000
 30
0.000000
 11
12.600000
 21
7.800000
 31
0.000000
  0
LINE
  8
91
 10
11.000000
 20
6.500000
 30
0.000000
 11
11.200000
 21
6.500000
 31
0.000000
  0
LINE
  8
91
 10
11.200000
 20
6.500000
 30
0.000000
 11
11.200000
 21
7.600000
 31
0.000000
  0
LINE
  8
91
 10
11.200000
 20
7.600000
 30
0.000000
 11
12.800000
 21
7.600000
 31
0.000000
  0
LINE
  8
91
 10
12.800000
 20
7.600000
 30
0.000000
 11
12.800000
 21
7.800000
 31
0.000000
  0
LINE
  8
91
 10
11.000000
 20
6.400000
 30
0.000000
 11
11.300000
 21
6.400000
 31
0.000000
  0
LINE
  8
91
 10
11.300000
 20
6.400000
 30
0.000000
 11
11.300000
 21
7.500000
 31
0.000000
  0
LINE
  8
91
 10
11.300000
 20
7.500000
 30
0.000000
 11
12.900000
 21
7.500000
 31
0.000000
  0
LINE
  8
91
 10
12.900000
 20
7.500000
 30
0.000000
 11
12.900000
 21
7.800000
 31
0.000000
  0
LINE
  8
91
 10
11.000000
 20
6.300000
 30
0.000000
 11
11.400000
 21
6.300000
 31
0.000000
  0
LINE
  8
91
 10
11.400000
 20
6.300000
 30
0.000000
 11
11.400000
 21
7.400000
 31
0.000000
  0
LINE
  8
91
 10
11.400000
 20
7.400000
 30
0.000000
 11
13.000000
 21
7.400000
 31
0.000000
  0
LINE
  8
91
 10
13.000000
 20
7.400000
 30
0.000000
 11
13.000000
 21
7.800000
 31
0.000000
  0
LINE
  8
91
 10
10.200000
 20
6.600000
 30
0.000000
 11
10.100000
 21
6.600000
 31
0.000000
  0
LINE
  8
91
 10
10.100000
 20
6.600000
 30
0.000000
 11
10.100000
 21
6.800000
 31
0.000000
  0
LINE
  8
91
 10
10.100000
 20
6.800000
 30
0.000000
 11
9.500000
 21
6.800000
 31
0.000000
  0
CIRCLE
  8
91
 10
9.500000
 20
6.800000
 30
0.000000
 40
0.020000
  0
LINE
  8
91
 10
10.200000
 20
6.500000
 30
0.000000
 11
10.000000
 21
6.500000
 31
0.000000
  0
LINE
  8
91
 10
10.000000
 20
6.500000
 30
0.000000
 11
10.000000
 21
6.700000
 31
0.000000
  0
LINE
  8
91
 10
10.000000
 20
6.700000
 30
0.000000
 11
9.500000
 21
6.700000
 31
0.000000
  0
CIRCLE
  8
91
 10
9.500000
 20
6.700000
 30
0.000000
 40
0.020000
  0
LINE
  8
91
 10
10.200000
 20
6.400000
 30
0.000000
 11
9.900000
 21
6.400000
 31
0.000000
  0
LINE
  8
91
 10
9.900000
 20
6.400000
 30
0.000000
 11
9.900000
 21
6.600000
 31
0.000000
  0
LINE
  8
91
 10
9.900000
 20
6.600000
 30
0.000000
 11
9.500000
 21
6.600000
 31
0.000000
  0
CIRCLE
  8
91
 10
9.500000
 20
6.600000
 30
0.000000
 40
0.020000
  0
LINE
  8
91
 10
10.200000
 20
6.300000
 30
0.000000
 11
9.800000
 21
6.300000
 31
0.000000
  0
LINE
  8
91
 10
9.800000
 20
6.300000
 30
0.000000
 11
9.800000
 21
6.500000
 31
0.000000
  0
LINE
  8
91
 10
9.800000
 20
6.500000
 30
0.000000
 11
9.500000
 21
6.500000
 31
0.000000
  0
CIRCLE
  8
91
 10
9.500000
 20
6.500000
 30
0.000000
 40
0.020000
  0
LINE
  8
91
 10
10.200000
 20
5.900000
 30
0.000000
 11
10.100000
 21
5.900000
 31
0.000000
  0
LINE
  8
91
 10
10.100000
 20
5.900000
 30
0.000000
 11
10.100000
 21
5.700000
 31
0.000000
  0
LINE
  8
91
 10
10.100000
 20
5.700000
 30
0.000000
 11
9.500000
 21
5.700000
 31
0.000000
  0
CIRCLE
  8
91
 10
9.500000
 20
5.700000
 30
0.000000
 40
0.020000
  0
LINE
  8
91
 10
10.200000
 20
6.000000
 30
0.000000
 11
10.000000
 21
6.000000
 31
0.000000
  0
LINE
  8
91
 10
10.000000
 20
6.000000
 30
0.000000
 11
10.000000
 21
5.800000
 31
0.000000
  0
LINE
  8
91
 10
10.000000
 20
5.800000
 30
0.000000
 11
9.500000
 21
5.800000
 31
0.000000
  0
CIRCLE
  8
91
 10
9.500000
 20
5.800000
 30
0.000000
 40
0.020000
  0
LINE
  8
91
 10
10.200000
 20
6.100000
 30
0.000000
 11
9.900000
 21
6.100000
 31
0.000000
  0
LINE
  8
91
 10
9.900000
 20
6.100000
 30
0.000000
 11
9.900000
 21
5.900000
 31
0.000000
  0
LINE
  8
91
 10
9.900000
 20
5.900000
 30
0.000000
 11
9.500000
 21
5.900000
 31
0.000000
  0
CIRCLE
  8
91
 10
9.500000
 20
5.900000
 30
0.000000
 40
0.020000
  0
LINE
  8
91
 10
10.200000
 20
6.200000
 30
0.000000
 11
9.800000
 21
6.200000
 31
0.000000
  0
LINE
  8
91
 10
9.800000
 20
6.200000
 30
0.000000
 11
9.800000
 21
6.000000
 31
0.000000
  0
LINE
  8
91
 10
9.800000
 20
6.000000
 30
0.000000
 11
9.500000
 21
6.000000
 31
0.000000
  0
CIRCLE
  8
91
 10
9.500000
 20
6.000000
 30
0.000000
 40
0.020000
  0
ENDSEC
  0
EOF
