  0
SECTION
  2
HEADER
  9
$ACADVER
  1
AC1009
  9
$FILLMODE
 70
0
  9
$EXTMIN
 10
-0.5080
 20
-0.5927
 30
0.0000
  9
$EXTMAX
 10
388.2495
 20
260.9427
 30
0.0000
  0
ENDSEC
  0
SECTION
  2
TABLES
  0
TABLE
  2
LTYPE
 70
1
  0
LTYPE
  2
CONTINUOUS
 70
64
  3
Solid line
 72
65
 73
0
 40
0
  0
ENDTAB
  0
TABLE
  2
LAYER
 70
255
  0
LAYER
  2
91
 70
64
 62
94
  6
CONTINUOUS
  0
LAYER
  2
92
 70
64
 62
174
  6
CONTINUOUS
  0
LAYER
  2
94
 70
64
 62
14
  6
CONTINUOUS
  0
LAYER
  2
95
 70
64
 62
251
  6
CONTINUOUS
  0
LAYER
  2
96
 70
64
 62
251
  6
CONTINUOUS
  0
LAYER
  2
97
 70
64
 62
251
  6
CONTINUOUS
  0
LAYER
  2
98
 70
64
 62
54
  6
CONTINUOUS
  0
LAYER
  2
199
 70
64
 62
251
  6
CONTINUOUS
  0
LAYER
  2
200
 70
64
 62
174
  6
CONTINUOUS
  0
ENDTAB
  0
ENDSEC
  0
SECTION
  2
BLOCKS
  0
BLOCK
  8
0
  2
RECT
 70
64
 10
0.0000
 20
0.0000
 30
0.0000
  3
RECT
  0
SOLID
  8
0
 10
-0.5000
 20
-0.5000
 30
0.0000
 11
0.5000
 21
-0.5000
 31
0.0000
 12
-0.5000
 22
0.5000
 32
0.0000
 13
0.5000
 23
0.5000
 33
0.0000
  0
ENDBLK
  8
0
  0
BLOCK
  8
0
  2
PIE
 70
64
 10
0.0000
 20
0.0000
 30
0.0000
  3
PIE
  0
CIRCLE
  8
0
 10
0.0000
 20
0.0000
 30
0.0000
 40
0.5000
  0
ENDBLK
  8
0
  0
ENDSEC
  0
SECTION
  2
ENTITIES
  0
TEXT
  7
ISOCP
  8
94
 10
101.6000
 20
203.2000
 30
0.0000
 40
3.8100
  1
STEPPER MOTOR
  0
TEXT
  7
ISOCP
  8
94
 10
172.7200
 20
185.4200
 30
0.0000
 40
1.7780
  1
BK
  0
TEXT
  7
ISOCP
  8
94
 10
144.7800
 20
147.3200
 30
0.0000
 40
1.7780
  1
BK OR/WH
  0
TEXT
  7
ISOCP
  8
94
 10
106.6800
 20
139.7000
 30
0.0000
 40
1.7780
  1
BK1
  0
TEXT
  7
ISOCP
  8
94
 10
106.6800
 20
162.5600
 30
0.0000
 40
1.7780
  1
BK
  0
TEXT
  7
ISOCP
  8
94
 10
106.6800
 20
134.6200
 30
0.0000
 40
1.7780
  1
BK2
  0
TEXT
  7
ISOCP
  8
94
 10
106.6800
 20
157.4800
 30
0.0000
 40
1.7780
  1
RD
  0
TEXT
  7
ISOCP
  8
94
 10
144.7800
 20
142.2400
 30
0.0000
 40
1.7780
  1
RD YL/WH
  0
TEXT
  7
ISOCP
  8
94
 10
172.7200
 20
180.3400
 30
0.0000
 40
1.7780
  1
RD
  0
TEXT
  7
ISOCP
  8
94
 10
144.7800
 20
144.7800
 30
0.0000
 40
1.7780
  1
OR BK/WH
  0
TEXT
  7
ISOCP
  8
94
 10
144.7800
 20
139.7000
 30
0.0000
 40
1.7780
  1
YL RD/WH
  0
TEXT
  7
ISOCP
  8
94
 10
106.6800
 20
154.9400
 30
0.0000
 40
1.7780
  1
GN
  0
TEXT
  7
ISOCP
  8
94
 10
172.7200
 20
177.8000
 30
0.0000
 40
1.7780
  1
GN
  0
TEXT
  7
ISOCP
  8
94
 10
106.6800
 20
160.0200
 30
0.0000
 40
1.7780
  1
WH
  0
TEXT
  7
ISOCP
  8
94
 10
172.7200
 20
182.8800
 30
0.0000
 40
1.7780
  1
WH
  0
TEXT
  7
ISOCP
  8
94
 10
106.6800
 20
142.2400
 30
0.0000
 40
1.7780
  1
RD1
  0
TEXT
  7
ISOCP
  8
94
 10
106.6800
 20
137.1600
 30
0.0000
 40
1.7780
  1
RD2
  0
TEXT
  7
ISOCP
  8
94
 10
93.9800
 20
154.9400
 30
0.0000
 40
2.5400
  1
ENOCDER CABLE
 50
90.0000
  0
TEXT
  7
ISOCP
  8
94
 10
91.4400
 20
144.7800
 30
0.0000
 40
2.5400
  1
STEPPER MOTOR CABLE
 50
90.0000
 72
2
 73
3
 11
91.4400
 21
144.7800
 31
0.0000
  0
TEXT
  7
ISOCP
  8
94
 10
99.0600
 20
154.9400
 30
0.0000
 40
2.5400
  1
see sheet 1
 50
90.0000
  0
TEXT
  7
ISOCP
  8
94
 10
96.5200
 20
144.7800
 30
0.0000
 40
2.5400
  1
see sheet 1
 50
90.0000
 72
2
 73
3
 11
96.5200
 21
144.7800
 31
0.0000
  0
TEXT
  7
ISOCP
  8
94
 10
111.7600
 20
104.1400
 30
0.0000
 40
2.5400
  1
Terminal block on end plate,
  0
TEXT
  7
ISOCP
  8
94
 10
111.7600
 20
100.3300
 30
0.0000
 40
2.5400
  1
424-100-036 in LW drive motor assembly
  0
TEXT
  7
ISOCP
  8
94
 10
111.7600
 20
90.1700
 30
0.0000
 40
2.5400
  1
through rubber grommet in end plate
  0
TEXT
  7
ISOCP
  8
94
 10
111.7600
 20
93.9800
 30
0.0000
 40
2.5400
  1
Route wires from motor and encoder
  0
TEXT
  7
ISOCP
  8
94
 10
5.0800
 20
175.2600
 30
0.0000
 40
1.9304
  1
TO MAIN BOX
 50
90.0000
 72
2
 73
3
 11
5.0800
 21
175.2600
 31
0.0000
  0
TEXT
  7
ISOCP
  8
94
 10
335.2800
 20
5.0800
 30
0.0000
 40
1.7780
  1
MJC
  0
TEXT
  7
ISOCP
  8
94
 10
337.8200
 20
10.1600
 30
0.0000
 40
1.7780
  1
JOYBOX WIRING DIAGRAM
  0
TEXT
  7
ISOCP
  8
94
 10
119.3800
 20
147.3200
 30
0.0000
 40
1.7780
  1
A+
  0
TEXT
  7
ISOCP
  8
94
 10
119.3800
 20
144.7800
 30
0.0000
 40
1.7780
  1
A-
  0
TEXT
  7
ISOCP
  8
94
 10
119.3800
 20
142.2400
 30
0.0000
 40
1.7780
  1
B+
  0
TEXT
  7
ISOCP
  8
94
 10
119.3800
 20
139.7000
 30
0.0000
 40
1.7780
  1
B-
  0
TEXT
  7
ISOCP
  8
94
 10
289.5600
 20
233.6800
 30
0.0000
 40
1.7780
  1
LEESON PARAMETERS
  0
TEXT
  7
ISOCP
  8
94
 10
292.1000
 20
228.6000
 30
0.0000
 40
1.7780
  1
P05 = 03     Speed source 0-10V
  0
TEXT
  7
ISOCP
  8
94
 10
292.1000
 20
226.0600
 30
0.0000
 40
1.7780
  1
P06 = 02     Brake release
  0
TEXT
  7
ISOCP
  8
94
 10
292.1000
 20
223.5200
 30
0.0000
 40
1.7780
  1
P10 = 06     13A=Run reverse
  0
TEXT
  7
ISOCP
  8
94
 10
292.1000
 20
220.9800
 30
0.0000
 40
1.7780
  1
P11 = 10     13B=Shunt overheat
  0
TEXT
  7
ISOCP
  8
94
 10
292.1000
 20
218.4400
 30
0.0000
 40
1.7780
  1
P12 = 20     13E=Dynamic braking
  0
TEXT
  7
ISOCP
  8
94
 10
292.1000
 20
215.9000
 30
0.0000
 40
1.7780
  1
P17 = 02     Forward and reverse
  0
TEXT
  7
ISOCP
  8
94
 10
292.1000
 20
213.3600
 30
0.0000
 40
1.7780
  1
P19 = 2.0     Accel
  0
TEXT
  7
ISOCP
  8
94
 10
292.1000
 20
210.8200
 30
0.0000
 40
1.7780
  1
P20 = 2.0     Decel
  0
TEXT
  7
ISOCP
  8
94
 10
292.1000
 20
208.2800
 30
0.0000
 40
1.7780
  1
P23 = 6.6     Min freq
  0
TEXT
  7
ISOCP
  8
94
 10
292.1000
 20
205.7400
 30
0.0000
 40
1.7780
  1
P24 = 66     Max freq
  0
TEXT
  7
ISOCP
  8
94
 10
292.1000
 20
203.2000
 30
0.0000
 40
1.7780
  1
P28 = 4.4     Percent fixed boost
  0
TEXT
  7
ISOCP
  8
94
 10
292.1000
 20
200.6600
 30
0.0000
 40
1.7780
  1
P33 = 6.4     Brake enable
  0
TEXT
  7
ISOCP
  8
94
 10
292.1000
 20
198.1200
 30
0.0000
 40
1.7780
  1
P45 = 6.6     Speed at min
  0
TEXT
  7
ISOCP
  8
94
 10
292.1000
 20
195.5800
 30
0.0000
 40
1.7780
  1
P46 = 66      Speed at max
  0
TEXT
  7
ISOCP
  8
94
 10
292.1000
 20
190.5000
 30
0.0000
 40
1.7780
  1
ALL OTHER VALUES DEFAULT
  0
TEXT
  7
ISOCP
  8
94
 10
289.5600
 20
172.7200
 30
0.0000
 40
1.7780
  1
SURESTEP STP-DRV-80100 PARAMETERS
  0
TEXT
  7
ISOCP
  8
94
 10
292.1000
 20
167.6400
 30
0.0000
 40
1.7780
  1
PULSE & DIRECTION CONTROL
  0
TEXT
  7
ISOCP
  8
94
 10
292.1000
 20
165.1000
 30
0.0000
 40
1.7780
  1
Steps/Rev = 2200
  0
TEXT
  7
ISOCP
  8
94
 10
292.1000
 20
162.5600
 30
0.0000
 40
1.7780
  1
Step Smoothing Filter = 1000HZ
  0
TEXT
  7
ISOCP
  8
94
 10
292.1000
 20
160.0200
 30
0.0000
 40
1.7780
  1
Input Noise Filter = 1.875MHZ
  0
TEXT
  7
ISOCP
  8
94
 10
292.1000
 20
157.4800
 30
0.0000
 40
1.7780
  1
EN Input = NOT USED
  0
TEXT
  7
ISOCP
  8
94
 10
292.1000
 20
154.9400
 30
0.0000
 40
1.7780
  1
Output = NOT USED
  0
TEXT
  7
ISOCP
  8
94
 10
292.1000
 20
149.8600
 30
0.0000
 40
1.7780
  1
MOTOR   - Custom Motor Settings
  0
TEXT
  7
ISOCP
  8
94
 10
292.1000
 20
147.3200
 30
0.0000
 40
1.7780
  1
Maximum Current = 8.5amps
  0
TEXT
  7
ISOCP
  8
94
 10
292.1000
 20
144.7800
 30
0.0000
 40
1.7780
  1
Holding Torque = 2974 oz-in
  0
TEXT
  7
ISOCP
  8
94
 10
292.1000
 20
142.2400
 30
0.0000
 40
1.7780
  1
Rotor Inertia = 0.154 oz-in-sec^2
  0
TEXT
  7
ISOCP
  8
94
 10
292.1000
 20
139.7000
 30
0.0000
 40
1.7780
  1
Idle Current = 50%
  0
TEXT
  7
ISOCP
  8
94
 10
292.1000
 20
137.1600
 30
0.0000
 40
1.7780
  1
Idle Current Delay = 0.40secs
  0
TEXT
  7
ISOCP
  8
94
 10
292.1000
 20
134.6200
 30
0.0000
 40
1.7780
  1
Load Inertia = 4x rotor inertia
  0
TEXT
  7
ISOCP
  8
94
 10
292.1000
 20
129.5400
 30
0.0000
 40
1.7780
  1
ALL OTHER VALUES DEFAULT
  0
LINE
  8
94
 10
0.0000
 20
0.0000
 30
0.0000
 11
50.8000
 21
0.0000
 31
0.0000
  0
LINE
  8
94
 10
50.8000
 20
0.0000
 30
0.0000
 11
98.4250
 21
0.0000
 31
0.0000
  0
LINE
  8
94
 10
98.4250
 20
0.0000
 30
0.0000
 11
146.0500
 21
0.0000
 31
0.0000
  0
LINE
  8
94
 10
146.0500
 20
0.0000
 30
0.0000
 11
193.6750
 21
0.0000
 31
0.0000
  0
LINE
  8
94
 10
193.6750
 20
0.0000
 30
0.0000
 11
241.3000
 21
0.0000
 31
0.0000
  0
LINE
  8
94
 10
241.3000
 20
0.0000
 30
0.0000
 11
288.9250
 21
0.0000
 31
0.0000
  0
LINE
  8
94
 10
288.9250
 20
0.0000
 30
0.0000
 11
336.5500
 21
0.0000
 31
0.0000
  0
LINE
  8
94
 10
336.5500
 20
0.0000
 30
0.0000
 11
387.3500
 21
0.0000
 31
0.0000
  0
LINE
  8
94
 10
387.3500
 20
0.0000
 30
0.0000
 11
387.3500
 21
53.9750
 31
0.0000
  0
LINE
  8
94
 10
387.3500
 20
53.9750
 30
0.0000
 11
387.3500
 21
104.7750
 31
0.0000
  0
LINE
  8
94
 10
387.3500
 20
104.7750
 30
0.0000
 11
387.3500
 21
155.5750
 31
0.0000
  0
LINE
  8
94
 10
387.3500
 20
155.5750
 30
0.0000
 11
387.3500
 21
206.3750
 31
0.0000
  0
LINE
  8
94
 10
387.3500
 20
206.3750
 30
0.0000
 11
387.3500
 21
260.3500
 31
0.0000
  0
LINE
  8
94
 10
146.0500
 20
260.3500
 30
0.0000
 11
98.4250
 21
260.3500
 31
0.0000
  0
LINE
  8
94
 10
98.4250
 20
260.3500
 30
0.0000
 11
50.8000
 21
260.3500
 31
0.0000
  0
LINE
  8
94
 10
50.8000
 20
260.3500
 30
0.0000
 11
0.0000
 21
260.3500
 31
0.0000
  0
LINE
  8
94
 10
0.0000
 20
260.3500
 30
0.0000
 11
0.0000
 21
206.3750
 31
0.0000
  0
LINE
  8
94
 10
0.0000
 20
206.3750
 30
0.0000
 11
0.0000
 21
155.5750
 31
0.0000
  0
LINE
  8
94
 10
0.0000
 20
155.5750
 30
0.0000
 11
0.0000
 21
104.7750
 31
0.0000
  0
LINE
  8
94
 10
0.0000
 20
104.7750
 30
0.0000
 11
0.0000
 21
53.9750
 31
0.0000
  0
LINE
  8
94
 10
0.0000
 20
53.9750
 30
0.0000
 11
0.0000
 21
0.0000
 31
0.0000
  0
LINE
  8
94
 10
3.1750
 20
3.1750
 30
0.0000
 11
50.8000
 21
3.1750
 31
0.0000
  0
LINE
  8
94
 10
50.8000
 20
3.1750
 30
0.0000
 11
98.4250
 21
3.1750
 31
0.0000
  0
LINE
  8
94
 10
98.4250
 20
3.1750
 30
0.0000
 11
146.0500
 21
3.1750
 31
0.0000
  0
LINE
  8
94
 10
146.0500
 20
3.1750
 30
0.0000
 11
193.6750
 21
3.1750
 31
0.0000
  0
LINE
  8
94
 10
193.6750
 20
3.1750
 30
0.0000
 11
241.3000
 21
3.1750
 31
0.0000
  0
LINE
  8
94
 10
241.3000
 20
3.1750
 30
0.0000
 11
288.9250
 21
3.1750
 31
0.0000
  0
LINE
  8
94
 10
288.9250
 20
3.1750
 30
0.0000
 11
307.3400
 21
3.1750
 31
0.0000
  0
LINE
  8
94
 10
336.5500
 20
3.1750
 30
0.0000
 11
307.3400
 21
3.1750
 31
0.0000
  0
LINE
  8
94
 10
307.3400
 20
3.1750
 30
0.0000
 11
366.3950
 21
3.1750
 31
0.0000
  0
LINE
  8
94
 10
366.3950
 20
3.1750
 30
0.0000
 11
384.1750
 21
3.1750
 31
0.0000
  0
LINE
  8
94
 10
384.1750
 20
3.1750
 30
0.0000
 11
384.1750
 21
8.2550
 31
0.0000
  0
LINE
  8
94
 10
384.1750
 20
8.2550
 30
0.0000
 11
384.1750
 21
13.3350
 31
0.0000
  0
LINE
  8
94
 10
384.1750
 20
13.3350
 30
0.0000
 11
384.1750
 21
18.4150
 31
0.0000
  0
LINE
  8
94
 10
384.1750
 20
18.4150
 30
0.0000
 11
384.1750
 21
23.4950
 31
0.0000
  0
LINE
  8
94
 10
384.1750
 20
23.4950
 30
0.0000
 11
384.1750
 21
53.9750
 31
0.0000
  0
LINE
  8
94
 10
384.1750
 20
53.9750
 30
0.0000
 11
384.1750
 21
104.7750
 31
0.0000
  0
LINE
  8
94
 10
384.1750
 20
104.7750
 30
0.0000
 11
384.1750
 21
155.5750
 31
0.0000
  0
LINE
  8
94
 10
384.1750
 20
155.5750
 30
0.0000
 11
384.1750
 21
206.3750
 31
0.0000
  0
LINE
  8
94
 10
384.1750
 20
206.3750
 30
0.0000
 11
384.1750
 21
257.1750
 31
0.0000
  0
LINE
  8
94
 10
384.1750
 20
257.1750
 30
0.0000
 11
336.5500
 21
257.1750
 31
0.0000
  0
LINE
  8
94
 10
336.5500
 20
257.1750
 30
0.0000
 11
288.9250
 21
257.1750
 31
0.0000
  0
LINE
  8
94
 10
288.9250
 20
257.1750
 30
0.0000
 11
241.3000
 21
257.1750
 31
0.0000
  0
LINE
  8
94
 10
241.3000
 20
257.1750
 30
0.0000
 11
193.6750
 21
257.1750
 31
0.0000
  0
LINE
  8
94
 10
193.6750
 20
257.1750
 30
0.0000
 11
146.0500
 21
257.1750
 31
0.0000
  0
LINE
  8
94
 10
146.0500
 20
257.1750
 30
0.0000
 11
98.4250
 21
257.1750
 31
0.0000
  0
LINE
  8
94
 10
98.4250
 20
257.1750
 30
0.0000
 11
50.8000
 21
257.1750
 31
0.0000
  0
LINE
  8
94
 10
50.8000
 20
257.1750
 30
0.0000
 11
3.1750
 21
257.1750
 31
0.0000
  0
LINE
  8
94
 10
3.1750
 20
257.1750
 30
0.0000
 11
3.1750
 21
206.3750
 31
0.0000
  0
LINE
  8
94
 10
3.1750
 20
206.3750
 30
0.0000
 11
3.1750
 21
155.5750
 31
0.0000
  0
LINE
  8
94
 10
3.1750
 20
155.5750
 30
0.0000
 11
3.1750
 21
104.7750
 31
0.0000
  0
LINE
  8
94
 10
3.1750
 20
104.7750
 30
0.0000
 11
3.1750
 21
53.9750
 31
0.0000
  0
LINE
  8
94
 10
3.1750
 20
53.9750
 30
0.0000
 11
3.1750
 21
3.1750
 31
0.0000
  0
LINE
  8
94
 10
387.3500
 20
260.3500
 30
0.0000
 11
336.5500
 21
260.3500
 31
0.0000
  0
LINE
  8
94
 10
336.5500
 20
260.3500
 30
0.0000
 11
288.9250
 21
260.3500
 31
0.0000
  0
LINE
  8
94
 10
288.9250
 20
260.3500
 30
0.0000
 11
241.3000
 21
260.3500
 31
0.0000
  0
LINE
  8
94
 10
241.3000
 20
260.3500
 30
0.0000
 11
193.6750
 21
260.3500
 31
0.0000
  0
LINE
  8
94
 10
193.6750
 20
260.3500
 30
0.0000
 11
146.0500
 21
260.3500
 31
0.0000
  0
LINE
  8
94
 10
193.6750
 20
260.3500
 30
0.0000
 11
193.6750
 21
257.1750
 31
0.0000
  0
LINE
  8
94
 10
193.6750
 20
3.1750
 30
0.0000
 11
193.6750
 21
0.0000
 31
0.0000
  0
LINE
  8
94
 10
0.0000
 20
104.7750
 30
0.0000
 11
3.1750
 21
104.7750
 31
0.0000
  0
LINE
  8
94
 10
384.1750
 20
155.5750
 30
0.0000
 11
387.3500
 21
155.5750
 31
0.0000
  0
LINE
  8
94
 10
98.4250
 20
257.1750
 30
0.0000
 11
98.4250
 21
260.3500
 31
0.0000
  0
LINE
  8
94
 10
98.4250
 20
3.1750
 30
0.0000
 11
98.4250
 21
0.0000
 31
0.0000
  0
LINE
  8
94
 10
288.9250
 20
260.3500
 30
0.0000
 11
288.9250
 21
257.1750
 31
0.0000
  0
LINE
  8
94
 10
288.9250
 20
3.1750
 30
0.0000
 11
288.9250
 21
0.0000
 31
0.0000
  0
LINE
  8
94
 10
0.0000
 20
53.9750
 30
0.0000
 11
3.1750
 21
53.9750
 31
0.0000
  0
LINE
  8
94
 10
384.1750
 20
104.7750
 30
0.0000
 11
387.3500
 21
104.7750
 31
0.0000
  0
LINE
  8
94
 10
0.0000
 20
155.5750
 30
0.0000
 11
3.1750
 21
155.5750
 31
0.0000
  0
LINE
  8
94
 10
384.1750
 20
206.3750
 30
0.0000
 11
387.3500
 21
206.3750
 31
0.0000
  0
LINE
  8
94
 10
50.8000
 20
257.1750
 30
0.0000
 11
50.8000
 21
260.3500
 31
0.0000
  0
LINE
  8
94
 10
0.0000
 20
206.3750
 30
0.0000
 11
3.1750
 21
206.3750
 31
0.0000
  0
LINE
  8
94
 10
384.1750
 20
53.9750
 30
0.0000
 11
387.3500
 21
53.9750
 31
0.0000
  0
LINE
  8
94
 10
146.0500
 20
257.1750
 30
0.0000
 11
146.0500
 21
260.3500
 31
0.0000
  0
LINE
  8
94
 10
241.3000
 20
260.3500
 30
0.0000
 11
241.3000
 21
257.1750
 31
0.0000
  0
LINE
  8
94
 10
336.5500
 20
260.3500
 30
0.0000
 11
336.5500
 21
257.1750
 31
0.0000
  0
LINE
  8
94
 10
336.5500
 20
3.1750
 30
0.0000
 11
336.5500
 21
0.0000
 31
0.0000
  0
LINE
  8
94
 10
241.3000
 20
3.1750
 30
0.0000
 11
241.3000
 21
0.0000
 31
0.0000
  0
LINE
  8
94
 10
146.0500
 20
3.1750
 30
0.0000
 11
146.0500
 21
0.0000
 31
0.0000
  0
LINE
  8
94
 10
50.8000
 20
0.0000
 30
0.0000
 11
50.8000
 21
3.1750
 31
0.0000
  0
LINE
  8
94
 10
288.9250
 20
3.1750
 30
0.0000
 11
288.9250
 21
23.4950
 31
0.0000
  0
LINE
  8
94
 10
288.9250
 20
23.4950
 30
0.0000
 11
307.3400
 21
23.4950
 31
0.0000
  0
LINE
  8
94
 10
307.3400
 20
23.4950
 30
0.0000
 11
384.1750
 21
23.4950
 31
0.0000
  0
LINE
  8
94
 10
366.3950
 20
3.1750
 30
0.0000
 11
366.3950
 21
8.2550
 31
0.0000
  0
LINE
  8
94
 10
366.3950
 20
8.2550
 30
0.0000
 11
384.1750
 21
8.2550
 31
0.0000
  0
LINE
  8
94
 10
366.3950
 20
8.2550
 30
0.0000
 11
307.3400
 21
8.2550
 31
0.0000
  0
LINE
  8
94
 10
307.3400
 20
8.2550
 30
0.0000
 11
307.3400
 21
3.1750
 31
0.0000
  0
LINE
  8
94
 10
307.3400
 20
8.2550
 30
0.0000
 11
307.3400
 21
13.3350
 31
0.0000
  0
LINE
  8
94
 10
307.3400
 20
13.3350
 30
0.0000
 11
384.1750
 21
13.3350
 31
0.0000
  0
LINE
  8
94
 10
307.3400
 20
13.3350
 30
0.0000
 11
307.3400
 21
18.4150
 31
0.0000
  0
LINE
  8
94
 10
307.3400
 20
18.4150
 30
0.0000
 11
384.1750
 21
18.4150
 31
0.0000
  0
LINE
  8
94
 10
307.3400
 20
18.4150
 30
0.0000
 11
307.3400
 21
23.4950
 31
0.0000
  0
LINE
  8
94
 10
24.4856
 20
0.3556
 30
0.0000
 11
24.4856
 21
1.9148
 31
0.0000
  0
LINE
  8
94
 10
24.4856
 20
1.9148
 30
0.0000
 11
25.2652
 21
2.6944
 31
0.0000
  0
LINE
  8
94
 10
25.2652
 20
2.6944
 30
0.0000
 11
26.0448
 21
1.9148
 31
0.0000
  0
LINE
  8
94
 10
26.0448
 20
1.9148
 30
0.0000
 11
26.0448
 21
0.3556
 31
0.0000
  0
LINE
  8
94
 10
24.4856
 20
1.5250
 30
0.0000
 11
26.0448
 21
1.5250
 31
0.0000
  0
LINE
  8
94
 10
74.5236
 20
0.3556
 30
0.0000
 11
74.5236
 21
2.6944
 31
0.0000
  0
LINE
  8
94
 10
74.5236
 20
2.6944
 30
0.0000
 11
75.6930
 21
2.6944
 31
0.0000
  0
LINE
  8
94
 10
75.6930
 20
2.6944
 30
0.0000
 11
76.0828
 21
2.3046
 31
0.0000
  0
LINE
  8
94
 10
76.0828
 20
2.3046
 30
0.0000
 11
76.0828
 21
1.9148
 31
0.0000
  0
LINE
  8
94
 10
76.0828
 20
1.9148
 30
0.0000
 11
75.6930
 21
1.5250
 31
0.0000
  0
LINE
  8
94
 10
75.6930
 20
1.5250
 30
0.0000
 11
76.0828
 21
1.1352
 31
0.0000
  0
LINE
  8
94
 10
76.0828
 20
1.1352
 30
0.0000
 11
76.0828
 21
0.7454
 31
0.0000
  0
LINE
  8
94
 10
76.0828
 20
0.7454
 30
0.0000
 11
75.6930
 21
0.3556
 31
0.0000
  0
LINE
  8
94
 10
75.6930
 20
0.3556
 30
0.0000
 11
74.5236
 21
0.3556
 31
0.0000
  0
LINE
  8
94
 10
74.5236
 20
1.5250
 30
0.0000
 11
75.6930
 21
1.5250
 31
0.0000
  0
LINE
  8
94
 10
122.8188
 20
2.3046
 30
0.0000
 11
122.4290
 21
2.6944
 31
0.0000
  0
LINE
  8
94
 10
122.4290
 20
2.6944
 30
0.0000
 11
121.6494
 21
2.6944
 31
0.0000
  0
LINE
  8
94
 10
121.6494
 20
2.6944
 30
0.0000
 11
121.2596
 21
2.3046
 31
0.0000
  0
LINE
  8
94
 10
121.2596
 20
2.3046
 30
0.0000
 11
121.2596
 21
0.7454
 31
0.0000
  0
LINE
  8
94
 10
121.2596
 20
0.7454
 30
0.0000
 11
121.6494
 21
0.3556
 31
0.0000
  0
LINE
  8
94
 10
121.6494
 20
0.3556
 30
0.0000
 11
122.4290
 21
0.3556
 31
0.0000
  0
LINE
  8
94
 10
122.4290
 20
0.3556
 30
0.0000
 11
122.8188
 21
0.7454
 31
0.0000
  0
LINE
  8
94
 10
169.5196
 20
2.6944
 30
0.0000
 11
169.5196
 21
0.3556
 31
0.0000
  0
LINE
  8
94
 10
169.5196
 20
0.3556
 30
0.0000
 11
170.6890
 21
0.3556
 31
0.0000
  0
LINE
  8
94
 10
170.6890
 20
0.3556
 30
0.0000
 11
171.0788
 21
0.7454
 31
0.0000
  0
LINE
  8
94
 10
171.0788
 20
0.7454
 30
0.0000
 11
171.0788
 21
2.3046
 31
0.0000
  0
LINE
  8
94
 10
171.0788
 20
2.3046
 30
0.0000
 11
170.6890
 21
2.6944
 31
0.0000
  0
LINE
  8
94
 10
170.6890
 20
2.6944
 30
0.0000
 11
169.5196
 21
2.6944
 31
0.0000
  0
LINE
  8
94
 10
218.5768
 20
2.6944
 30
0.0000
 11
217.0176
 21
2.6944
 31
0.0000
  0
LINE
  8
94
 10
217.0176
 20
2.6944
 30
0.0000
 11
217.0176
 21
0.3556
 31
0.0000
  0
LINE
  8
94
 10
217.0176
 20
0.3556
 30
0.0000
 11
218.5768
 21
0.3556
 31
0.0000
  0
LINE
  8
94
 10
217.0176
 20
1.5250
 30
0.0000
 11
217.7972
 21
1.5250
 31
0.0000
  0
LINE
  8
94
 10
263.7536
 20
0.3556
 30
0.0000
 11
263.7536
 21
2.6944
 31
0.0000
  0
LINE
  8
94
 10
263.7536
 20
2.6944
 30
0.0000
 11
265.3128
 21
2.6944
 31
0.0000
  0
LINE
  8
94
 10
263.7536
 20
1.5250
 30
0.0000
 11
264.5332
 21
1.5250
 31
0.0000
  0
LINE
  8
94
 10
312.3028
 20
2.3046
 30
0.0000
 11
311.9130
 21
2.6944
 31
0.0000
  0
LINE
  8
94
 10
311.9130
 20
2.6944
 30
0.0000
 11
311.1334
 21
2.6944
 31
0.0000
  0
LINE
  8
94
 10
311.1334
 20
2.6944
 30
0.0000
 11
310.7436
 21
2.3046
 31
0.0000
  0
LINE
  8
94
 10
310.7436
 20
2.3046
 30
0.0000
 11
310.7436
 21
0.7454
 31
0.0000
  0
LINE
  8
94
 10
310.7436
 20
0.7454
 30
0.0000
 11
311.1334
 21
0.3556
 31
0.0000
  0
LINE
  8
94
 10
311.1334
 20
0.3556
 30
0.0000
 11
311.9130
 21
0.3556
 31
0.0000
  0
LINE
  8
94
 10
311.9130
 20
0.3556
 30
0.0000
 11
312.3028
 21
0.7454
 31
0.0000
  0
LINE
  8
94
 10
312.3028
 20
0.7454
 30
0.0000
 11
312.3028
 21
1.5250
 31
0.0000
  0
LINE
  8
94
 10
312.3028
 20
1.5250
 30
0.0000
 11
311.5232
 21
1.5250
 31
0.0000
  0
LINE
  8
94
 10
361.0356
 20
0.3556
 30
0.0000
 11
361.0356
 21
2.6944
 31
0.0000
  0
LINE
  8
94
 10
361.0356
 20
1.5250
 30
0.0000
 11
362.5948
 21
1.5250
 31
0.0000
  0
LINE
  8
94
 10
362.5948
 20
2.6944
 30
0.0000
 11
362.5948
 21
0.3556
 31
0.0000
  0
LINE
  8
94
 10
385.1656
 20
30.3628
 30
0.0000
 11
385.9452
 21
31.1424
 31
0.0000
  0
LINE
  8
94
 10
385.9452
 20
31.1424
 30
0.0000
 11
385.9452
 21
28.8036
 31
0.0000
  0
LINE
  8
94
 10
385.1656
 20
28.8036
 30
0.0000
 11
386.7248
 21
28.8036
 31
0.0000
  0
LINE
  8
94
 10
386.4708
 20
79.6036
 30
0.0000
 11
384.9116
 21
79.6036
 31
0.0000
  0
LINE
  8
94
 10
384.9116
 20
79.6036
 30
0.0000
 11
386.4708
 21
81.1628
 31
0.0000
  0
LINE
  8
94
 10
386.4708
 20
81.1628
 30
0.0000
 11
386.4708
 21
81.5526
 31
0.0000
  0
LINE
  8
94
 10
386.4708
 20
81.5526
 30
0.0000
 11
386.0810
 21
81.9424
 31
0.0000
  0
LINE
  8
94
 10
386.0810
 20
81.9424
 30
0.0000
 11
385.3014
 21
81.9424
 31
0.0000
  0
LINE
  8
94
 10
385.3014
 20
81.9424
 30
0.0000
 11
384.9116
 21
81.5526
 31
0.0000
  0
LINE
  8
94
 10
384.9116
 20
132.3526
 30
0.0000
 11
385.3014
 21
132.7424
 31
0.0000
  0
LINE
  8
94
 10
385.3014
 20
132.7424
 30
0.0000
 11
386.0810
 21
132.7424
 31
0.0000
  0
LINE
  8
94
 10
386.0810
 20
132.7424
 30
0.0000
 11
386.4708
 21
132.3526
 31
0.0000
  0
LINE
  8
94
 10
386.4708
 20
132.3526
 30
0.0000
 11
386.4708
 21
131.9628
 31
0.0000
  0
LINE
  8
94
 10
386.4708
 20
131.9628
 30
0.0000
 11
386.0810
 21
131.5730
 31
0.0000
  0
LINE
  8
94
 10
386.0810
 20
131.5730
 30
0.0000
 11
385.6912
 21
131.5730
 31
0.0000
  0
LINE
  8
94
 10
386.0810
 20
131.5730
 30
0.0000
 11
386.4708
 21
131.1832
 31
0.0000
  0
LINE
  8
94
 10
386.4708
 20
131.1832
 30
0.0000
 11
386.4708
 21
130.7934
 31
0.0000
  0
LINE
  8
94
 10
386.4708
 20
130.7934
 30
0.0000
 11
386.0810
 21
130.4036
 31
0.0000
  0
LINE
  8
94
 10
386.0810
 20
130.4036
 30
0.0000
 11
385.3014
 21
130.4036
 31
0.0000
  0
LINE
  8
94
 10
385.3014
 20
130.4036
 30
0.0000
 11
384.9116
 21
130.7934
 31
0.0000
  0
LINE
  8
94
 10
386.0810
 20
181.9656
 30
0.0000
 11
386.0810
 21
184.3044
 31
0.0000
  0
LINE
  8
94
 10
386.0810
 20
184.3044
 30
0.0000
 11
384.9116
 21
183.1350
 31
0.0000
  0
LINE
  8
94
 10
384.9116
 20
183.1350
 30
0.0000
 11
386.4708
 21
183.1350
 31
0.0000
  0
LINE
  8
94
 10
386.4708
 20
233.5804
 30
0.0000
 11
384.9116
 21
233.5804
 31
0.0000
  0
LINE
  8
94
 10
384.9116
 20
233.5804
 30
0.0000
 11
384.9116
 21
232.4110
 31
0.0000
  0
LINE
  8
94
 10
384.9116
 20
232.4110
 30
0.0000
 11
385.6912
 21
232.8008
 31
0.0000
  0
LINE
  8
94
 10
385.6912
 20
232.8008
 30
0.0000
 11
386.0810
 21
232.8008
 31
0.0000
  0
LINE
  8
94
 10
386.0810
 20
232.8008
 30
0.0000
 11
386.4708
 21
232.4110
 31
0.0000
  0
LINE
  8
94
 10
386.4708
 20
232.4110
 30
0.0000
 11
386.4708
 21
231.6314
 31
0.0000
  0
LINE
  8
94
 10
386.4708
 20
231.6314
 30
0.0000
 11
386.0810
 21
231.2416
 31
0.0000
  0
LINE
  8
94
 10
386.0810
 20
231.2416
 30
0.0000
 11
385.3014
 21
231.2416
 31
0.0000
  0
LINE
  8
94
 10
385.3014
 20
231.2416
 30
0.0000
 11
384.9116
 21
231.6314
 31
0.0000
  0
LINE
  8
94
 10
361.2896
 20
257.6576
 30
0.0000
 11
361.2896
 21
259.9964
 31
0.0000
  0
LINE
  8
94
 10
361.2896
 20
258.8270
 30
0.0000
 11
362.8488
 21
258.8270
 31
0.0000
  0
LINE
  8
94
 10
362.8488
 20
259.9964
 30
0.0000
 11
362.8488
 21
257.6576
 31
0.0000
  0
LINE
  8
94
 10
313.0648
 20
259.6066
 30
0.0000
 11
312.6750
 21
259.9964
 31
0.0000
  0
LINE
  8
94
 10
312.6750
 20
259.9964
 30
0.0000
 11
311.8954
 21
259.9964
 31
0.0000
  0
LINE
  8
94
 10
311.8954
 20
259.9964
 30
0.0000
 11
311.5056
 21
259.6066
 31
0.0000
  0
LINE
  8
94
 10
311.5056
 20
259.6066
 30
0.0000
 11
311.5056
 21
258.0474
 31
0.0000
  0
LINE
  8
94
 10
311.5056
 20
258.0474
 30
0.0000
 11
311.8954
 21
257.6576
 31
0.0000
  0
LINE
  8
94
 10
311.8954
 20
257.6576
 30
0.0000
 11
312.6750
 21
257.6576
 31
0.0000
  0
LINE
  8
94
 10
312.6750
 20
257.6576
 30
0.0000
 11
313.0648
 21
258.0474
 31
0.0000
  0
LINE
  8
94
 10
313.0648
 20
258.0474
 30
0.0000
 11
313.0648
 21
258.8270
 31
0.0000
  0
LINE
  8
94
 10
313.0648
 20
258.8270
 30
0.0000
 11
312.2852
 21
258.8270
 31
0.0000
  0
LINE
  8
94
 10
262.9916
 20
257.6576
 30
0.0000
 11
262.9916
 21
259.9964
 31
0.0000
  0
LINE
  8
94
 10
262.9916
 20
259.9964
 30
0.0000
 11
264.5508
 21
259.9964
 31
0.0000
  0
LINE
  8
94
 10
262.9916
 20
258.8270
 30
0.0000
 11
263.7712
 21
258.8270
 31
0.0000
  0
LINE
  8
94
 10
217.5608
 20
259.9964
 30
0.0000
 11
216.0016
 21
259.9964
 31
0.0000
  0
LINE
  8
94
 10
216.0016
 20
259.9964
 30
0.0000
 11
216.0016
 21
257.6576
 31
0.0000
  0
LINE
  8
94
 10
216.0016
 20
257.6576
 30
0.0000
 11
217.5608
 21
257.6576
 31
0.0000
  0
LINE
  8
94
 10
216.0016
 20
258.8270
 30
0.0000
 11
216.7812
 21
258.8270
 31
0.0000
  0
LINE
  8
94
 10
168.2496
 20
259.9964
 30
0.0000
 11
168.2496
 21
257.6576
 31
0.0000
  0
LINE
  8
94
 10
168.2496
 20
257.6576
 30
0.0000
 11
169.4190
 21
257.6576
 31
0.0000
  0
LINE
  8
94
 10
169.4190
 20
257.6576
 30
0.0000
 11
169.8088
 21
258.0474
 31
0.0000
  0
LINE
  8
94
 10
169.8088
 20
258.0474
 30
0.0000
 11
169.8088
 21
259.6066
 31
0.0000
  0
LINE
  8
94
 10
169.8088
 20
259.6066
 30
0.0000
 11
169.4190
 21
259.9964
 31
0.0000
  0
LINE
  8
94
 10
169.4190
 20
259.9964
 30
0.0000
 11
168.2496
 21
259.9964
 31
0.0000
  0
LINE
  8
94
 10
122.5648
 20
259.6066
 30
0.0000
 11
122.1750
 21
259.9964
 31
0.0000
  0
LINE
  8
94
 10
122.1750
 20
259.9964
 30
0.0000
 11
121.3954
 21
259.9964
 31
0.0000
  0
LINE
  8
94
 10
121.3954
 20
259.9964
 30
0.0000
 11
121.0056
 21
259.6066
 31
0.0000
  0
LINE
  8
94
 10
121.0056
 20
259.6066
 30
0.0000
 11
121.0056
 21
258.0474
 31
0.0000
  0
LINE
  8
94
 10
121.0056
 20
258.0474
 30
0.0000
 11
121.3954
 21
257.6576
 31
0.0000
  0
LINE
  8
94
 10
121.3954
 20
257.6576
 30
0.0000
 11
122.1750
 21
257.6576
 31
0.0000
  0
LINE
  8
94
 10
122.1750
 20
257.6576
 30
0.0000
 11
122.5648
 21
258.0474
 31
0.0000
  0
LINE
  8
94
 10
72.9996
 20
257.6576
 30
0.0000
 11
72.9996
 21
259.9964
 31
0.0000
  0
LINE
  8
94
 10
72.9996
 20
259.9964
 30
0.0000
 11
74.1690
 21
259.9964
 31
0.0000
  0
LINE
  8
94
 10
74.1690
 20
259.9964
 30
0.0000
 11
74.5588
 21
259.6066
 31
0.0000
  0
LINE
  8
94
 10
74.5588
 20
259.6066
 30
0.0000
 11
74.5588
 21
259.2168
 31
0.0000
  0
LINE
  8
94
 10
74.5588
 20
259.2168
 30
0.0000
 11
74.1690
 21
258.8270
 31
0.0000
  0
LINE
  8
94
 10
74.1690
 20
258.8270
 30
0.0000
 11
74.5588
 21
258.4372
 31
0.0000
  0
LINE
  8
94
 10
74.5588
 20
258.4372
 30
0.0000
 11
74.5588
 21
258.0474
 31
0.0000
  0
LINE
  8
94
 10
74.5588
 20
258.0474
 30
0.0000
 11
74.1690
 21
257.6576
 31
0.0000
  0
LINE
  8
94
 10
74.1690
 20
257.6576
 30
0.0000
 11
72.9996
 21
257.6576
 31
0.0000
  0
LINE
  8
94
 10
72.9996
 20
258.8270
 30
0.0000
 11
74.1690
 21
258.8270
 31
0.0000
  0
LINE
  8
94
 10
24.4856
 20
257.6576
 30
0.0000
 11
24.4856
 21
259.2168
 31
0.0000
  0
LINE
  8
94
 10
24.4856
 20
259.2168
 30
0.0000
 11
25.2652
 21
259.9964
 31
0.0000
  0
LINE
  8
94
 10
25.2652
 20
259.9964
 30
0.0000
 11
26.0448
 21
259.2168
 31
0.0000
  0
LINE
  8
94
 10
26.0448
 20
259.2168
 30
0.0000
 11
26.0448
 21
257.6576
 31
0.0000
  0
LINE
  8
94
 10
24.4856
 20
258.8270
 30
0.0000
 11
26.0448
 21
258.8270
 31
0.0000
  0
LINE
  8
94
 10
2.4228
 20
233.5804
 30
0.0000
 11
0.8636
 21
233.5804
 31
0.0000
  0
LINE
  8
94
 10
0.8636
 20
233.5804
 30
0.0000
 11
0.8636
 21
232.4110
 31
0.0000
  0
LINE
  8
94
 10
0.8636
 20
232.4110
 30
0.0000
 11
1.6432
 21
232.8008
 31
0.0000
  0
LINE
  8
94
 10
1.6432
 20
232.8008
 30
0.0000
 11
2.0330
 21
232.8008
 31
0.0000
  0
LINE
  8
94
 10
2.0330
 20
232.8008
 30
0.0000
 11
2.4228
 21
232.4110
 31
0.0000
  0
LINE
  8
94
 10
2.4228
 20
232.4110
 30
0.0000
 11
2.4228
 21
231.6314
 31
0.0000
  0
LINE
  8
94
 10
2.4228
 20
231.6314
 30
0.0000
 11
2.0330
 21
231.2416
 31
0.0000
  0
LINE
  8
94
 10
2.0330
 20
231.2416
 30
0.0000
 11
1.2534
 21
231.2416
 31
0.0000
  0
LINE
  8
94
 10
1.2534
 20
231.2416
 30
0.0000
 11
0.8636
 21
231.6314
 31
0.0000
  0
LINE
  8
94
 10
2.0330
 20
181.7116
 30
0.0000
 11
2.0330
 21
184.0504
 31
0.0000
  0
LINE
  8
94
 10
2.0330
 20
184.0504
 30
0.0000
 11
0.8636
 21
182.8810
 31
0.0000
  0
LINE
  8
94
 10
0.8636
 20
182.8810
 30
0.0000
 11
2.4228
 21
182.8810
 31
0.0000
  0
LINE
  8
94
 10
0.8636
 20
132.3526
 30
0.0000
 11
1.2534
 21
132.7424
 31
0.0000
  0
LINE
  8
94
 10
1.2534
 20
132.7424
 30
0.0000
 11
2.0330
 21
132.7424
 31
0.0000
  0
LINE
  8
94
 10
2.0330
 20
132.7424
 30
0.0000
 11
2.4228
 21
132.3526
 31
0.0000
  0
LINE
  8
94
 10
2.4228
 20
132.3526
 30
0.0000
 11
2.4228
 21
131.9628
 31
0.0000
  0
LINE
  8
94
 10
2.4228
 20
131.9628
 30
0.0000
 11
2.0330
 21
131.5730
 31
0.0000
  0
LINE
  8
94
 10
2.0330
 20
131.5730
 30
0.0000
 11
1.6432
 21
131.5730
 31
0.0000
  0
LINE
  8
94
 10
2.0330
 20
131.5730
 30
0.0000
 11
2.4228
 21
131.1832
 31
0.0000
  0
LINE
  8
94
 10
2.4228
 20
131.1832
 30
0.0000
 11
2.4228
 21
130.7934
 31
0.0000
  0
LINE
  8
94
 10
2.4228
 20
130.7934
 30
0.0000
 11
2.0330
 21
130.4036
 31
0.0000
  0
LINE
  8
94
 10
2.0330
 20
130.4036
 30
0.0000
 11
1.2534
 21
130.4036
 31
0.0000
  0
LINE
  8
94
 10
1.2534
 20
130.4036
 30
0.0000
 11
0.8636
 21
130.7934
 31
0.0000
  0
LINE
  8
94
 10
2.4228
 20
79.3496
 30
0.0000
 11
0.8636
 21
79.3496
 31
0.0000
  0
LINE
  8
94
 10
0.8636
 20
79.3496
 30
0.0000
 11
2.4228
 21
80.9088
 31
0.0000
  0
LINE
  8
94
 10
2.4228
 20
80.9088
 30
0.0000
 11
2.4228
 21
81.2986
 31
0.0000
  0
LINE
  8
94
 10
2.4228
 20
81.2986
 30
0.0000
 11
2.0330
 21
81.6884
 31
0.0000
  0
LINE
  8
94
 10
2.0330
 20
81.6884
 30
0.0000
 11
1.2534
 21
81.6884
 31
0.0000
  0
LINE
  8
94
 10
1.2534
 20
81.6884
 30
0.0000
 11
0.8636
 21
81.2986
 31
0.0000
  0
LINE
  8
94
 10
1.1176
 20
28.3308
 30
0.0000
 11
1.8972
 21
29.1104
 31
0.0000
  0
LINE
  8
94
 10
1.8972
 20
29.1104
 30
0.0000
 11
1.8972
 21
26.7716
 31
0.0000
  0
LINE
  8
94
 10
1.1176
 20
26.7716
 30
0.0000
 11
2.6768
 21
26.7716
 31
0.0000
  0
LINE
  8
94
 10
320.8118
 20
21.4816
 30
0.0000
 11
320.4220
 21
21.8714
 31
0.0000
  0
LINE
  8
94
 10
320.4220
 20
21.8714
 30
0.0000
 11
319.6424
 21
21.8714
 31
0.0000
  0
LINE
  8
94
 10
319.6424
 20
21.8714
 30
0.0000
 11
319.2526
 21
21.4816
 31
0.0000
  0
LINE
  8
94
 10
319.2526
 20
21.4816
 30
0.0000
 11
319.2526
 21
21.0918
 31
0.0000
  0
LINE
  8
94
 10
319.2526
 20
21.0918
 30
0.0000
 11
319.6424
 21
20.7020
 31
0.0000
  0
LINE
  8
94
 10
319.6424
 20
20.7020
 30
0.0000
 11
320.4220
 21
20.7020
 31
0.0000
  0
LINE
  8
94
 10
320.4220
 20
20.7020
 30
0.0000
 11
320.8118
 21
20.3122
 31
0.0000
  0
LINE
  8
94
 10
320.8118
 20
20.3122
 30
0.0000
 11
320.8118
 21
19.9224
 31
0.0000
  0
LINE
  8
94
 10
320.8118
 20
19.9224
 30
0.0000
 11
320.4220
 21
19.5326
 31
0.0000
  0
LINE
  8
94
 10
320.4220
 20
19.5326
 30
0.0000
 11
319.6424
 21
19.5326
 31
0.0000
  0
LINE
  8
94
 10
319.6424
 20
19.5326
 30
0.0000
 11
319.2526
 21
19.9224
 31
0.0000
  0
LINE
  8
94
 10
321.5914
 20
21.0918
 30
0.0000
 11
322.3710
 21
21.8714
 31
0.0000
  0
LINE
  8
94
 10
322.3710
 20
21.8714
 30
0.0000
 11
322.3710
 21
19.5326
 31
0.0000
  0
LINE
  8
94
 10
321.5914
 20
19.5326
 30
0.0000
 11
323.1506
 21
19.5326
 31
0.0000
  0
LINE
  8
94
 10
323.9302
 20
21.4816
 30
0.0000
 11
324.3200
 21
21.8714
 31
0.0000
  0
LINE
  8
94
 10
324.3200
 20
21.8714
 30
0.0000
 11
325.0996
 21
21.8714
 31
0.0000
  0
LINE
  8
94
 10
325.0996
 20
21.8714
 30
0.0000
 11
325.4894
 21
21.4816
 31
0.0000
  0
LINE
  8
94
 10
325.4894
 20
21.4816
 30
0.0000
 11
325.4894
 21
21.0918
 31
0.0000
  0
LINE
  8
94
 10
325.4894
 20
21.0918
 30
0.0000
 11
325.0996
 21
20.7020
 31
0.0000
  0
LINE
  8
94
 10
325.0996
 20
20.7020
 30
0.0000
 11
324.7098
 21
20.7020
 31
0.0000
  0
LINE
  8
94
 10
325.0996
 20
20.7020
 30
0.0000
 11
325.4894
 21
20.3122
 31
0.0000
  0
LINE
  8
94
 10
325.4894
 20
20.3122
 30
0.0000
 11
325.4894
 21
19.9224
 31
0.0000
  0
LINE
  8
94
 10
325.4894
 20
19.9224
 30
0.0000
 11
325.0996
 21
19.5326
 31
0.0000
  0
LINE
  8
94
 10
325.0996
 20
19.5326
 30
0.0000
 11
324.3200
 21
19.5326
 31
0.0000
  0
LINE
  8
94
 10
324.3200
 20
19.5326
 30
0.0000
 11
323.9302
 21
19.9224
 31
0.0000
  0
LINE
  8
94
 10
326.2690
 20
19.9224
 30
0.0000
 11
326.2690
 21
21.4816
 31
0.0000
  0
LINE
  8
94
 10
326.2690
 20
21.4816
 30
0.0000
 11
326.6588
 21
21.8714
 31
0.0000
  0
LINE
  8
94
 10
326.6588
 20
21.8714
 30
0.0000
 11
327.4384
 21
21.8714
 31
0.0000
  0
LINE
  8
94
 10
327.4384
 20
21.8714
 30
0.0000
 11
327.8282
 21
21.4816
 31
0.0000
  0
LINE
  8
94
 10
327.8282
 20
21.4816
 30
0.0000
 11
327.8282
 21
19.9224
 31
0.0000
  0
LINE
  8
94
 10
327.8282
 20
19.9224
 30
0.0000
 11
327.4384
 21
19.5326
 31
0.0000
  0
LINE
  8
94
 10
327.4384
 20
19.5326
 30
0.0000
 11
326.6588
 21
19.5326
 31
0.0000
  0
LINE
  8
94
 10
326.6588
 20
19.5326
 30
0.0000
 11
326.2690
 21
19.9224
 31
0.0000
  0
LINE
  8
94
 10
326.2690
 20
19.9224
 30
0.0000
 11
327.8282
 21
21.4816
 31
0.0000
  0
LINE
  8
94
 10
328.6078
 20
19.9224
 30
0.0000
 11
328.6078
 21
21.4816
 31
0.0000
  0
LINE
  8
94
 10
328.6078
 20
21.4816
 30
0.0000
 11
328.9976
 21
21.8714
 31
0.0000
  0
LINE
  8
94
 10
328.9976
 20
21.8714
 30
0.0000
 11
329.7772
 21
21.8714
 31
0.0000
  0
LINE
  8
94
 10
329.7772
 20
21.8714
 30
0.0000
 11
330.1670
 21
21.4816
 31
0.0000
  0
LINE
  8
94
 10
330.1670
 20
21.4816
 30
0.0000
 11
330.1670
 21
19.9224
 31
0.0000
  0
LINE
  8
94
 10
330.1670
 20
19.9224
 30
0.0000
 11
329.7772
 21
19.5326
 31
0.0000
  0
LINE
  8
94
 10
329.7772
 20
19.5326
 30
0.0000
 11
328.9976
 21
19.5326
 31
0.0000
  0
LINE
  8
94
 10
328.9976
 20
19.5326
 30
0.0000
 11
328.6078
 21
19.9224
 31
0.0000
  0
LINE
  8
94
 10
328.6078
 20
19.9224
 30
0.0000
 11
330.1670
 21
21.4816
 31
0.0000
  0
LINE
  8
94
 10
332.5058
 20
21.8714
 30
0.0000
 11
330.9466
 21
21.8714
 31
0.0000
  0
LINE
  8
94
 10
330.9466
 20
21.8714
 30
0.0000
 11
330.9466
 21
20.7020
 31
0.0000
  0
LINE
  8
94
 10
330.9466
 20
20.7020
 30
0.0000
 11
331.7262
 21
21.0918
 31
0.0000
  0
LINE
  8
94
 10
331.7262
 20
21.0918
 30
0.0000
 11
332.1160
 21
21.0918
 31
0.0000
  0
LINE
  8
94
 10
332.1160
 20
21.0918
 30
0.0000
 11
332.5058
 21
20.7020
 31
0.0000
  0
LINE
  8
94
 10
332.5058
 20
20.7020
 30
0.0000
 11
332.5058
 21
19.9224
 31
0.0000
  0
LINE
  8
94
 10
332.5058
 20
19.9224
 30
0.0000
 11
332.1160
 21
19.5326
 31
0.0000
  0
LINE
  8
94
 10
332.1160
 20
19.5326
 30
0.0000
 11
331.3364
 21
19.5326
 31
0.0000
  0
LINE
  8
94
 10
331.3364
 20
19.5326
 30
0.0000
 11
330.9466
 21
19.9224
 31
0.0000
  0
LINE
  8
94
 10
333.2854
 20
19.9224
 30
0.0000
 11
333.2854
 21
21.4816
 31
0.0000
  0
LINE
  8
94
 10
333.2854
 20
21.4816
 30
0.0000
 11
333.6752
 21
21.8714
 31
0.0000
  0
LINE
  8
94
 10
333.6752
 20
21.8714
 30
0.0000
 11
334.4548
 21
21.8714
 31
0.0000
  0
LINE
  8
94
 10
334.4548
 20
21.8714
 30
0.0000
 11
334.8446
 21
21.4816
 31
0.0000
  0
LINE
  8
94
 10
334.8446
 20
21.4816
 30
0.0000
 11
334.8446
 21
19.9224
 31
0.0000
  0
LINE
  8
94
 10
334.8446
 20
19.9224
 30
0.0000
 11
334.4548
 21
19.5326
 31
0.0000
  0
LINE
  8
94
 10
334.4548
 20
19.5326
 30
0.0000
 11
333.6752
 21
19.5326
 31
0.0000
  0
LINE
  8
94
 10
333.6752
 20
19.5326
 30
0.0000
 11
333.2854
 21
19.9224
 31
0.0000
  0
LINE
  8
94
 10
333.2854
 20
19.9224
 30
0.0000
 11
334.8446
 21
21.4816
 31
0.0000
  0
LINE
  8
94
 10
335.6242
 20
19.1428
 30
0.0000
 11
337.1834
 21
19.1428
 31
0.0000
  0
LINE
  8
94
 10
339.5222
 20
21.8714
 30
0.0000
 11
337.9630
 21
21.8714
 31
0.0000
  0
LINE
  8
94
 10
337.9630
 20
21.8714
 30
0.0000
 11
337.9630
 21
19.5326
 31
0.0000
  0
LINE
  8
94
 10
337.9630
 20
19.5326
 30
0.0000
 11
339.5222
 21
19.5326
 31
0.0000
  0
LINE
  8
94
 10
337.9630
 20
20.7020
 30
0.0000
 11
338.7426
 21
20.7020
 31
0.0000
  0
LINE
  8
94
 10
340.3018
 20
19.5326
 30
0.0000
 11
340.3018
 21
21.0918
 31
0.0000
  0
LINE
  8
94
 10
340.3018
 20
21.0918
 30
0.0000
 11
341.4712
 21
21.0918
 31
0.0000
  0
LINE
  8
94
 10
341.4712
 20
21.0918
 30
0.0000
 11
341.8610
 21
20.7020
 31
0.0000
  0
LINE
  8
94
 10
341.8610
 20
20.7020
 30
0.0000
 11
341.8610
 21
19.5326
 31
0.0000
  0
LINE
  8
94
 10
344.1998
 20
21.0918
 30
0.0000
 11
343.0304
 21
21.0918
 31
0.0000
  0
LINE
  8
94
 10
343.0304
 20
21.0918
 30
0.0000
 11
342.6406
 21
20.7020
 31
0.0000
  0
LINE
  8
94
 10
342.6406
 20
20.7020
 30
0.0000
 11
342.6406
 21
19.9224
 31
0.0000
  0
LINE
  8
94
 10
342.6406
 20
19.9224
 30
0.0000
 11
343.0304
 21
19.5326
 31
0.0000
  0
LINE
  8
94
 10
343.0304
 20
19.5326
 30
0.0000
 11
344.1998
 21
19.5326
 31
0.0000
  0
LINE
  8
94
 10
344.9794
 20
21.8714
 30
0.0000
 11
345.3692
 21
21.8714
 31
0.0000
  0
LINE
  8
94
 10
345.3692
 20
21.8714
 30
0.0000
 11
345.3692
 21
19.5326
 31
0.0000
  0
LINE
  8
94
 10
344.9794
 20
19.5326
 30
0.0000
 11
345.7590
 21
19.5326
 31
0.0000
  0
LINE
  8
94
 10
346.9284
 20
19.5326
 30
0.0000
 11
347.7080
 21
19.5326
 31
0.0000
  0
LINE
  8
94
 10
347.7080
 20
19.5326
 30
0.0000
 11
348.0978
 21
19.9224
 31
0.0000
  0
LINE
  8
94
 10
348.0978
 20
19.9224
 30
0.0000
 11
348.0978
 21
20.7020
 31
0.0000
  0
LINE
  8
94
 10
348.0978
 20
20.7020
 30
0.0000
 11
347.7080
 21
21.0918
 31
0.0000
  0
LINE
  8
94
 10
347.7080
 20
21.0918
 30
0.0000
 11
346.9284
 21
21.0918
 31
0.0000
  0
LINE
  8
94
 10
346.9284
 20
21.0918
 30
0.0000
 11
346.5386
 21
20.7020
 31
0.0000
  0
LINE
  8
94
 10
346.5386
 20
20.7020
 30
0.0000
 11
346.5386
 21
19.9224
 31
0.0000
  0
LINE
  8
94
 10
346.5386
 20
19.9224
 30
0.0000
 11
346.9284
 21
19.5326
 31
0.0000
  0
LINE
  8
94
 10
348.8774
 20
19.5326
 30
0.0000
 11
350.0468
 21
19.5326
 31
0.0000
  0
LINE
  8
94
 10
350.0468
 20
19.5326
 30
0.0000
 11
350.4366
 21
19.9224
 31
0.0000
  0
LINE
  8
94
 10
350.4366
 20
19.9224
 30
0.0000
 11
350.0468
 21
20.3122
 31
0.0000
  0
LINE
  8
94
 10
350.0468
 20
20.3122
 30
0.0000
 11
349.2672
 21
20.3122
 31
0.0000
  0
LINE
  8
94
 10
349.2672
 20
20.3122
 30
0.0000
 11
348.8774
 21
20.7020
 31
0.0000
  0
LINE
  8
94
 10
348.8774
 20
20.7020
 30
0.0000
 11
349.2672
 21
21.0918
 31
0.0000
  0
LINE
  8
94
 10
349.2672
 20
21.0918
 30
0.0000
 11
350.4366
 21
21.0918
 31
0.0000
  0
LINE
  8
94
 10
351.2162
 20
21.0918
 30
0.0000
 11
351.2162
 21
19.9224
 31
0.0000
  0
LINE
  8
94
 10
351.2162
 20
19.9224
 30
0.0000
 11
351.6060
 21
19.5326
 31
0.0000
  0
LINE
  8
94
 10
351.6060
 20
19.5326
 30
0.0000
 11
352.7754
 21
19.5326
 31
0.0000
  0
LINE
  8
94
 10
352.7754
 20
19.5326
 30
0.0000
 11
352.7754
 21
21.0918
 31
0.0000
  0
LINE
  8
94
 10
353.5550
 20
19.5326
 30
0.0000
 11
353.5550
 21
21.0918
 31
0.0000
  0
LINE
  8
94
 10
353.5550
 20
20.3122
 30
0.0000
 11
354.3346
 21
21.0918
 31
0.0000
  0
LINE
  8
94
 10
354.3346
 20
21.0918
 30
0.0000
 11
354.7244
 21
21.0918
 31
0.0000
  0
LINE
  8
94
 10
356.6733
 20
19.5326
 30
0.0000
 11
355.8937
 21
19.5326
 31
0.0000
  0
LINE
  8
94
 10
355.8937
 20
19.5326
 30
0.0000
 11
355.5040
 21
19.9224
 31
0.0000
  0
LINE
  8
94
 10
355.5040
 20
19.9224
 30
0.0000
 11
355.5040
 21
20.7020
 31
0.0000
  0
LINE
  8
94
 10
355.5040
 20
20.7020
 30
0.0000
 11
355.8937
 21
21.0918
 31
0.0000
  0
LINE
  8
94
 10
355.8937
 20
21.0918
 30
0.0000
 11
356.6733
 21
21.0918
 31
0.0000
  0
LINE
  8
94
 10
356.6733
 20
21.0918
 30
0.0000
 11
357.0631
 21
20.7020
 31
0.0000
  0
LINE
  8
94
 10
357.0631
 20
20.7020
 30
0.0000
 11
357.0631
 21
20.3122
 31
0.0000
  0
LINE
  8
94
 10
357.0631
 20
20.3122
 30
0.0000
 11
355.5040
 21
20.3122
 31
0.0000
  0
LINE
  8
94
 10
357.8427
 20
19.1428
 30
0.0000
 11
359.4019
 21
19.1428
 31
0.0000
  0
LINE
  8
94
 10
360.1815
 20
21.8714
 30
0.0000
 11
360.1815
 21
19.5326
 31
0.0000
  0
LINE
  8
94
 10
360.1815
 20
19.5326
 30
0.0000
 11
360.9611
 21
20.3122
 31
0.0000
  0
LINE
  8
94
 10
360.9611
 20
20.3122
 30
0.0000
 11
361.7407
 21
19.5326
 31
0.0000
  0
LINE
  8
94
 10
361.7407
 20
19.5326
 30
0.0000
 11
361.7407
 21
21.8714
 31
0.0000
  0
LINE
  8
94
 10
362.5203
 20
21.8714
 30
0.0000
 11
362.5203
 21
19.5326
 31
0.0000
  0
LINE
  8
94
 10
362.5203
 20
19.5326
 30
0.0000
 11
363.6897
 21
19.5326
 31
0.0000
  0
LINE
  8
94
 10
363.6897
 20
19.5326
 30
0.0000
 11
364.0795
 21
19.9224
 31
0.0000
  0
LINE
  8
94
 10
364.0795
 20
19.9224
 30
0.0000
 11
364.0795
 21
21.4816
 31
0.0000
  0
LINE
  8
94
 10
364.0795
 20
21.4816
 30
0.0000
 11
363.6897
 21
21.8714
 31
0.0000
  0
LINE
  8
94
 10
363.6897
 20
21.8714
 30
0.0000
 11
362.5203
 21
21.8714
 31
0.0000
  0
LINE
  8
94
 10
364.8591
 20
19.1428
 30
0.0000
 11
366.4183
 21
19.1428
 31
0.0000
  0
LINE
  8
94
 10
367.1979
 20
19.5326
 30
0.0000
 11
367.1979
 21
21.0918
 31
0.0000
  0
LINE
  8
94
 10
367.1979
 20
20.3122
 30
0.0000
 11
367.9775
 21
21.0918
 31
0.0000
  0
LINE
  8
94
 10
367.9775
 20
21.0918
 30
0.0000
 11
368.3673
 21
21.0918
 31
0.0000
  0
LINE
  8
94
 10
370.3163
 20
19.5326
 30
0.0000
 11
369.5367
 21
19.5326
 31
0.0000
  0
LINE
  8
94
 10
369.5367
 20
19.5326
 30
0.0000
 11
369.1469
 21
19.9224
 31
0.0000
  0
LINE
  8
94
 10
369.1469
 20
19.9224
 30
0.0000
 11
369.1469
 21
20.7020
 31
0.0000
  0
LINE
  8
94
 10
369.1469
 20
20.7020
 30
0.0000
 11
369.5367
 21
21.0918
 31
0.0000
  0
LINE
  8
94
 10
369.5367
 20
21.0918
 30
0.0000
 11
370.3163
 21
21.0918
 31
0.0000
  0
LINE
  8
94
 10
370.3163
 20
21.0918
 30
0.0000
 11
370.7061
 21
20.7020
 31
0.0000
  0
LINE
  8
94
 10
370.7061
 20
20.7020
 30
0.0000
 11
370.7061
 21
20.3122
 31
0.0000
  0
LINE
  8
94
 10
370.7061
 20
20.3122
 30
0.0000
 11
369.1469
 21
20.3122
 31
0.0000
  0
LINE
  8
94
 10
371.4857
 20
21.0918
 30
0.0000
 11
372.2653
 21
19.5326
 31
0.0000
  0
LINE
  8
94
 10
372.2653
 20
19.5326
 30
0.0000
 11
373.0449
 21
21.0918
 31
0.0000
  0
LINE
  8
94
 10
373.8245
 20
19.1428
 30
0.0000
 11
375.3837
 21
19.1428
 31
0.0000
  0
LINE
  8
94
 10
376.1633
 20
19.9224
 30
0.0000
 11
376.1633
 21
21.4816
 31
0.0000
  0
LINE
  8
94
 10
376.1633
 20
21.4816
 30
0.0000
 11
376.5531
 21
21.8714
 31
0.0000
  0
LINE
  8
94
 10
376.5531
 20
21.8714
 30
0.0000
 11
377.3327
 21
21.8714
 31
0.0000
  0
LINE
  8
94
 10
377.3327
 20
21.8714
 30
0.0000
 11
377.7225
 21
21.4816
 31
0.0000
  0
LINE
  8
94
 10
377.7225
 20
21.4816
 30
0.0000
 11
377.7225
 21
19.9224
 31
0.0000
  0
LINE
  8
94
 10
377.7225
 20
19.9224
 30
0.0000
 11
377.3327
 21
19.5326
 31
0.0000
  0
LINE
  8
94
 10
377.3327
 20
19.5326
 30
0.0000
 11
376.5531
 21
19.5326
 31
0.0000
  0
LINE
  8
94
 10
376.5531
 20
19.5326
 30
0.0000
 11
376.1633
 21
19.9224
 31
0.0000
  0
LINE
  8
94
 10
376.1633
 20
19.9224
 30
0.0000
 11
377.7225
 21
21.4816
 31
0.0000
  0
LINE
  8
94
 10
378.5021
 20
19.1428
 30
0.0000
 11
380.0613
 21
19.1428
 31
0.0000
  0
LINE
  8
94
 10
382.4001
 20
19.5326
 30
0.0000
 11
380.8409
 21
19.5326
 31
0.0000
  0
LINE
  8
94
 10
380.8409
 20
19.5326
 30
0.0000
 11
382.4001
 21
21.0918
 31
0.0000
  0
LINE
  8
94
 10
382.4001
 20
21.0918
 30
0.0000
 11
382.4001
 21
21.4816
 31
0.0000
  0
LINE
  8
94
 10
382.4001
 20
21.4816
 30
0.0000
 11
382.0103
 21
21.8714
 31
0.0000
  0
LINE
  8
94
 10
382.0103
 20
21.8714
 30
0.0000
 11
381.2307
 21
21.8714
 31
0.0000
  0
LINE
  8
94
 10
381.2307
 20
21.8714
 30
0.0000
 11
380.8409
 21
21.4816
 31
0.0000
  0
LINE
  8
94
 10
311.2486
 20
9.6139
 30
0.0000
 11
309.8419
 21
9.6139
 31
0.0000
  0
LINE
  8
94
 10
309.8419
 20
9.6139
 30
0.0000
 11
311.2486
 21
11.0206
 31
0.0000
  0
LINE
  8
94
 10
311.2486
 20
11.0206
 30
0.0000
 11
311.2486
 21
11.3722
 31
0.0000
  0
LINE
  8
94
 10
311.2486
 20
11.3722
 30
0.0000
 11
310.8969
 21
11.7239
 31
0.0000
  0
LINE
  8
94
 10
310.8969
 20
11.7239
 30
0.0000
 11
310.1936
 21
11.7239
 31
0.0000
  0
LINE
  8
94
 10
310.1936
 20
11.7239
 30
0.0000
 11
309.8419
 21
11.3722
 31
0.0000
  0
LINE
  8
94
 10
311.9468
 20
9.6139
 30
0.0000
 11
313.3535
 21
11.7239
 31
0.0000
  0
LINE
  8
94
 10
315.4584
 20
9.6139
 30
0.0000
 11
314.0517
 21
9.6139
 31
0.0000
  0
LINE
  8
94
 10
314.0517
 20
9.6139
 30
0.0000
 11
315.4584
 21
11.0206
 31
0.0000
  0
LINE
  8
94
 10
315.4584
 20
11.0206
 30
0.0000
 11
315.4584
 21
11.3722
 31
0.0000
  0
LINE
  8
94
 10
315.4584
 20
11.3722
 30
0.0000
 11
315.1067
 21
11.7239
 31
0.0000
  0
LINE
  8
94
 10
315.1067
 20
11.7239
 30
0.0000
 11
314.4034
 21
11.7239
 31
0.0000
  0
LINE
  8
94
 10
314.4034
 20
11.7239
 30
0.0000
 11
314.0517
 21
11.3722
 31
0.0000
  0
LINE
  8
94
 10
317.5633
 20
11.7239
 30
0.0000
 11
316.1567
 21
11.7239
 31
0.0000
  0
LINE
  8
94
 10
316.1567
 20
11.7239
 30
0.0000
 11
316.1567
 21
10.6689
 31
0.0000
  0
LINE
  8
94
 10
316.1567
 20
10.6689
 30
0.0000
 11
316.8600
 21
11.0206
 31
0.0000
  0
LINE
  8
94
 10
316.8600
 20
11.0206
 30
0.0000
 11
317.2117
 21
11.0206
 31
0.0000
  0
LINE
  8
94
 10
317.2117
 20
11.0206
 30
0.0000
 11
317.5633
 21
10.6689
 31
0.0000
  0
LINE
  8
94
 10
317.5633
 20
10.6689
 30
0.0000
 11
317.5633
 21
9.9656
 31
0.0000
  0
LINE
  8
94
 10
317.5633
 20
9.9656
 30
0.0000
 11
317.2117
 21
9.6139
 31
0.0000
  0
LINE
  8
94
 10
317.2117
 20
9.6139
 30
0.0000
 11
316.5083
 21
9.6139
 31
0.0000
  0
LINE
  8
94
 10
316.5083
 20
9.6139
 30
0.0000
 11
316.1567
 21
9.9656
 31
0.0000
  0
LINE
  8
94
 10
318.2616
 20
9.6139
 30
0.0000
 11
319.6682
 21
11.7239
 31
0.0000
  0
LINE
  8
94
 10
321.7732
 20
9.6139
 30
0.0000
 11
320.3665
 21
9.6139
 31
0.0000
  0
LINE
  8
94
 10
320.3665
 20
9.6139
 30
0.0000
 11
321.7732
 21
11.0206
 31
0.0000
  0
LINE
  8
94
 10
321.7732
 20
11.0206
 30
0.0000
 11
321.7732
 21
11.3722
 31
0.0000
  0
LINE
  8
94
 10
321.7732
 20
11.3722
 30
0.0000
 11
321.4215
 21
11.7239
 31
0.0000
  0
LINE
  8
94
 10
321.4215
 20
11.7239
 30
0.0000
 11
320.7182
 21
11.7239
 31
0.0000
  0
LINE
  8
94
 10
320.7182
 20
11.7239
 30
0.0000
 11
320.3665
 21
11.3722
 31
0.0000
  0
LINE
  8
94
 10
322.4714
 20
9.9656
 30
0.0000
 11
322.4714
 21
11.3722
 31
0.0000
  0
LINE
  8
94
 10
322.4714
 20
11.3722
 30
0.0000
 11
322.8231
 21
11.7239
 31
0.0000
  0
LINE
  8
94
 10
322.8231
 20
11.7239
 30
0.0000
 11
323.5264
 21
11.7239
 31
0.0000
  0
LINE
  8
94
 10
323.5264
 20
11.7239
 30
0.0000
 11
323.8781
 21
11.3722
 31
0.0000
  0
LINE
  8
94
 10
323.8781
 20
11.3722
 30
0.0000
 11
323.8781
 21
9.9656
 31
0.0000
  0
LINE
  8
94
 10
323.8781
 20
9.9656
 30
0.0000
 11
323.5264
 21
9.6139
 31
0.0000
  0
LINE
  8
94
 10
323.5264
 20
9.6139
 30
0.0000
 11
322.8231
 21
9.6139
 31
0.0000
  0
LINE
  8
94
 10
322.8231
 20
9.6139
 30
0.0000
 11
322.4714
 21
9.9656
 31
0.0000
  0
LINE
  8
94
 10
322.4714
 20
9.9656
 30
0.0000
 11
323.8781
 21
11.3722
 31
0.0000
  0
LINE
  8
94
 10
324.5763
 20
11.0206
 30
0.0000
 11
325.2797
 21
11.7239
 31
0.0000
  0
LINE
  8
94
 10
325.2797
 20
11.7239
 30
0.0000
 11
325.2797
 21
9.6139
 31
0.0000
  0
LINE
  8
94
 10
324.5763
 20
9.6139
 30
0.0000
 11
325.9830
 21
9.6139
 31
0.0000
  0
LINE
  8
94
 10
327.7363
 20
9.6139
 30
0.0000
 11
327.7363
 21
11.7239
 31
0.0000
  0
LINE
  8
94
 10
327.7363
 20
11.7239
 30
0.0000
 11
326.6813
 21
10.6689
 31
0.0000
  0
LINE
  8
94
 10
326.6813
 20
10.6689
 30
0.0000
 11
328.0879
 21
10.6689
 31
0.0000
  0
LINE
  8
94
 10
330.8911
 20
11.0206
 30
0.0000
 11
331.5944
 21
11.7239
 31
0.0000
  0
LINE
  8
94
 10
331.5944
 20
11.7239
 30
0.0000
 11
331.5944
 21
9.6139
 31
0.0000
  0
LINE
  8
94
 10
330.8911
 20
9.6139
 30
0.0000
 11
332.2978
 21
9.6139
 31
0.0000
  0
LINE
  8
94
 10
332.9960
 20
9.9656
 30
0.0000
 11
332.9960
 21
11.3722
 31
0.0000
  0
LINE
  8
94
 10
332.9960
 20
11.3722
 30
0.0000
 11
333.3477
 21
11.7239
 31
0.0000
  0
LINE
  8
94
 10
333.3477
 20
11.7239
 30
0.0000
 11
334.0510
 21
11.7239
 31
0.0000
  0
LINE
  8
94
 10
334.0510
 20
11.7239
 30
0.0000
 11
334.4027
 21
11.3722
 31
0.0000
  0
LINE
  8
94
 10
334.4027
 20
11.3722
 30
0.0000
 11
334.4027
 21
9.9656
 31
0.0000
  0
LINE
  8
94
 10
334.4027
 20
9.9656
 30
0.0000
 11
334.0510
 21
9.6139
 31
0.0000
  0
LINE
  8
94
 10
334.0510
 20
9.6139
 30
0.0000
 11
333.3477
 21
9.6139
 31
0.0000
  0
LINE
  8
94
 10
333.3477
 20
9.6139
 30
0.0000
 11
332.9960
 21
9.9656
 31
0.0000
  0
LINE
  8
94
 10
332.9960
 20
9.9656
 30
0.0000
 11
334.4027
 21
11.3722
 31
0.0000
  0
LINE
  8
94
 10
335.1009
 20
11.0206
 30
0.0000
 11
335.4526
 21
11.0206
 31
0.0000
  0
LINE
  8
94
 10
335.4526
 20
11.0206
 30
0.0000
 11
335.4526
 21
10.6689
 31
0.0000
  0
LINE
  8
94
 10
335.4526
 20
10.6689
 30
0.0000
 11
335.1009
 21
10.6689
 31
0.0000
  0
LINE
  8
94
 10
335.1009
 20
10.6689
 30
0.0000
 11
335.1009
 21
11.0206
 31
0.0000
  0
LINE
  8
94
 10
335.1009
 20
9.9656
 30
0.0000
 11
335.4526
 21
9.9656
 31
0.0000
  0
LINE
  8
94
 10
335.4526
 20
9.9656
 30
0.0000
 11
335.4526
 21
9.6139
 31
0.0000
  0
LINE
  8
94
 10
335.4526
 20
9.6139
 30
0.0000
 11
335.1009
 21
9.6139
 31
0.0000
  0
LINE
  8
94
 10
335.1009
 20
9.6139
 30
0.0000
 11
335.1009
 21
9.9656
 31
0.0000
  0
LINE
  8
94
 10
336.1534
 20
11.3722
 30
0.0000
 11
336.5051
 21
11.7239
 31
0.0000
  0
LINE
  8
94
 10
336.5051
 20
11.7239
 30
0.0000
 11
337.2084
 21
11.7239
 31
0.0000
  0
LINE
  8
94
 10
337.2084
 20
11.7239
 30
0.0000
 11
337.5601
 21
11.3722
 31
0.0000
  0
LINE
  8
94
 10
337.5601
 20
11.3722
 30
0.0000
 11
337.5601
 21
11.0206
 31
0.0000
  0
LINE
  8
94
 10
337.5601
 20
11.0206
 30
0.0000
 11
337.2084
 21
10.6689
 31
0.0000
  0
LINE
  8
94
 10
337.2084
 20
10.6689
 30
0.0000
 11
336.8567
 21
10.6689
 31
0.0000
  0
LINE
  8
94
 10
337.2084
 20
10.6689
 30
0.0000
 11
337.5601
 21
10.3172
 31
0.0000
  0
LINE
  8
94
 10
337.5601
 20
10.3172
 30
0.0000
 11
337.5601
 21
9.9656
 31
0.0000
  0
LINE
  8
94
 10
337.5601
 20
9.9656
 30
0.0000
 11
337.2084
 21
9.6139
 31
0.0000
  0
LINE
  8
94
 10
337.2084
 20
9.6139
 30
0.0000
 11
336.5051
 21
9.6139
 31
0.0000
  0
LINE
  8
94
 10
336.5051
 20
9.6139
 30
0.0000
 11
336.1534
 21
9.9656
 31
0.0000
  0
LINE
  8
94
 10
339.3133
 20
9.6139
 30
0.0000
 11
339.3133
 21
11.7239
 31
0.0000
  0
LINE
  8
94
 10
339.3133
 20
11.7239
 30
0.0000
 11
338.2583
 21
10.6689
 31
0.0000
  0
LINE
  8
94
 10
338.2583
 20
10.6689
 30
0.0000
 11
339.6650
 21
10.6689
 31
0.0000
  0
LINE
  8
94
 10
340.3632
 20
11.0206
 30
0.0000
 11
340.7149
 21
11.0206
 31
0.0000
  0
LINE
  8
94
 10
340.7149
 20
11.0206
 30
0.0000
 11
340.7149
 21
10.6689
 31
0.0000
  0
LINE
  8
94
 10
340.7149
 20
10.6689
 30
0.0000
 11
340.3632
 21
10.6689
 31
0.0000
  0
LINE
  8
94
 10
340.3632
 20
10.6689
 30
0.0000
 11
340.3632
 21
11.0206
 31
0.0000
  0
LINE
  8
94
 10
340.3632
 20
9.9656
 30
0.0000
 11
340.7149
 21
9.9656
 31
0.0000
  0
LINE
  8
94
 10
340.7149
 20
9.9656
 30
0.0000
 11
340.7149
 21
9.6139
 31
0.0000
  0
LINE
  8
94
 10
340.7149
 20
9.6139
 30
0.0000
 11
340.3632
 21
9.6139
 31
0.0000
  0
LINE
  8
94
 10
340.3632
 20
9.6139
 30
0.0000
 11
340.3632
 21
9.9656
 31
0.0000
  0
LINE
  8
94
 10
342.4707
 20
9.6139
 30
0.0000
 11
342.4707
 21
11.7239
 31
0.0000
  0
LINE
  8
94
 10
342.4707
 20
11.7239
 30
0.0000
 11
341.4157
 21
10.6689
 31
0.0000
  0
LINE
  8
94
 10
341.4157
 20
10.6689
 30
0.0000
 11
342.8224
 21
10.6689
 31
0.0000
  0
LINE
  8
94
 10
343.5206
 20
11.3722
 30
0.0000
 11
343.8723
 21
11.7239
 31
0.0000
  0
LINE
  8
94
 10
343.8723
 20
11.7239
 30
0.0000
 11
344.5756
 21
11.7239
 31
0.0000
  0
LINE
  8
94
 10
344.5756
 20
11.7239
 30
0.0000
 11
344.9273
 21
11.3722
 31
0.0000
  0
LINE
  8
94
 10
344.9273
 20
11.3722
 30
0.0000
 11
344.9273
 21
11.0206
 31
0.0000
  0
LINE
  8
94
 10
344.9273
 20
11.0206
 30
0.0000
 11
344.5756
 21
10.6689
 31
0.0000
  0
LINE
  8
94
 10
344.5756
 20
10.6689
 30
0.0000
 11
344.2239
 21
10.6689
 31
0.0000
  0
LINE
  8
94
 10
344.5756
 20
10.6689
 30
0.0000
 11
344.9273
 21
10.3172
 31
0.0000
  0
LINE
  8
94
 10
344.9273
 20
10.3172
 30
0.0000
 11
344.9273
 21
9.9656
 31
0.0000
  0
LINE
  8
94
 10
344.9273
 20
9.9656
 30
0.0000
 11
344.5756
 21
9.6139
 31
0.0000
  0
LINE
  8
94
 10
344.5756
 20
9.6139
 30
0.0000
 11
343.8723
 21
9.6139
 31
0.0000
  0
LINE
  8
94
 10
343.8723
 20
9.6139
 30
0.0000
 11
343.5206
 21
9.9656
 31
0.0000
  0
LINE
  8
94
 10
347.7304
 20
9.6139
 30
0.0000
 11
347.7304
 21
11.0206
 31
0.0000
  0
LINE
  8
94
 10
347.7304
 20
11.0206
 30
0.0000
 11
348.4338
 21
11.7239
 31
0.0000
  0
LINE
  8
94
 10
348.4338
 20
11.7239
 30
0.0000
 11
349.1371
 21
11.0206
 31
0.0000
  0
LINE
  8
94
 10
349.1371
 20
11.0206
 30
0.0000
 11
349.1371
 21
9.6139
 31
0.0000
  0
LINE
  8
94
 10
347.7304
 20
10.6689
 30
0.0000
 11
349.1371
 21
10.6689
 31
0.0000
  0
LINE
  8
94
 10
349.8354
 20
9.6139
 30
0.0000
 11
349.8354
 21
11.7239
 31
0.0000
  0
LINE
  8
94
 10
349.8354
 20
11.7239
 30
0.0000
 11
350.5387
 21
11.0206
 31
0.0000
  0
LINE
  8
94
 10
350.5387
 20
11.0206
 30
0.0000
 11
351.2420
 21
11.7239
 31
0.0000
  0
LINE
  8
94
 10
351.2420
 20
11.7239
 30
0.0000
 11
351.2420
 21
9.6139
 31
0.0000
  0
LINE
  8
94
 10
369.5710
 20
4.5466
 30
0.0000
 11
369.5710
 21
6.8854
 31
0.0000
  0
LINE
  8
94
 10
369.5710
 20
6.8854
 30
0.0000
 11
368.4016
 21
5.7160
 31
0.0000
  0
LINE
  8
94
 10
368.4016
 20
5.7160
 30
0.0000
 11
369.9608
 21
5.7160
 31
0.0000
  0
LINE
  8
94
 10
370.7404
 20
4.5466
 30
0.0000
 11
372.2996
 21
6.8854
 31
0.0000
  0
LINE
  8
94
 10
374.2486
 20
4.5466
 30
0.0000
 11
374.2486
 21
6.8854
 31
0.0000
  0
LINE
  8
94
 10
374.2486
 20
6.8854
 30
0.0000
 11
373.0792
 21
5.7160
 31
0.0000
  0
LINE
  8
94
 10
373.0792
 20
5.7160
 30
0.0000
 11
374.6384
 21
5.7160
 31
0.0000
  0
TEXT
  7
ISOCP
  8
94
 10
309.6260
 20
4.3180
 30
0.0000
 40
2.5400
  1
Drawn By:
  0
TEXT
  7
ISOCP
  8
94
 10
309.8800
 20
19.5580
 30
0.0000
 40
2.5400
  1
Title:
  0
TEXT
  7
ISOCP
  8
94
 10
310.1340
 20
14.4780
 30
0.0000
 40
2.5400
  1
Version:
  0
LINE
  8
94
 10
127.0000
 20
137.1600
 30
0.0000
 11
127.0000
 21
139.7000
 31
0.0000
  0
LINE
  8
94
 10
127.0000
 20
139.7000
 30
0.0000
 11
127.0000
 21
142.2400
 31
0.0000
  0
LINE
  8
94
 10
127.0000
 20
142.2400
 30
0.0000
 11
127.0000
 21
144.7800
 31
0.0000
  0
LINE
  8
94
 10
127.0000
 20
144.7800
 30
0.0000
 11
127.0000
 21
147.3200
 31
0.0000
  0
LINE
  8
94
 10
127.0000
 20
147.3200
 30
0.0000
 11
127.0000
 21
149.8600
 31
0.0000
  0
LINE
  8
94
 10
127.0000
 20
149.8600
 30
0.0000
 11
127.0000
 21
152.4000
 31
0.0000
  0
LINE
  8
94
 10
127.0000
 20
152.4000
 30
0.0000
 11
127.0000
 21
154.9400
 31
0.0000
  0
LINE
  8
94
 10
127.0000
 20
154.9400
 30
0.0000
 11
127.0000
 21
157.4800
 31
0.0000
  0
LINE
  8
94
 10
127.0000
 20
157.4800
 30
0.0000
 11
127.0000
 21
160.0200
 31
0.0000
  0
LINE
  8
94
 10
127.0000
 20
157.4800
 30
0.0000
 11
128.5240
 21
157.4800
 31
0.0000
  0
LINE
  8
94
 10
127.0000
 20
154.9400
 30
0.0000
 11
128.5240
 21
154.9400
 31
0.0000
  0
LINE
  8
94
 10
127.0000
 20
152.4000
 30
0.0000
 11
128.5240
 21
152.4000
 31
0.0000
  0
LINE
  8
94
 10
127.0000
 20
139.7000
 30
0.0000
 11
128.5240
 21
139.7000
 31
0.0000
  0
LINE
  8
94
 10
127.0000
 20
142.2400
 30
0.0000
 11
128.5240
 21
142.2400
 31
0.0000
  0
LINE
  8
94
 10
127.0000
 20
144.7800
 30
0.0000
 11
128.5240
 21
144.7800
 31
0.0000
  0
LINE
  8
94
 10
127.0000
 20
149.8600
 30
0.0000
 11
128.5240
 21
149.8600
 31
0.0000
  0
LINE
  8
94
 10
127.0000
 20
147.3200
 30
0.0000
 11
128.5240
 21
147.3200
 31
0.0000
  0
LINE
  8
94
 10
137.1600
 20
137.1600
 30
0.0000
 11
127.0000
 21
137.1600
 31
0.0000
  0
LINE
  8
94
 10
127.0000
 20
160.0200
 30
0.0000
 11
137.1600
 21
160.0200
 31
0.0000
  0
LINE
  8
94
 10
137.1600
 20
160.0200
 30
0.0000
 11
137.1600
 21
157.4800
 31
0.0000
  0
LINE
  8
94
 10
137.1600
 20
157.4800
 30
0.0000
 11
137.1600
 21
154.9400
 31
0.0000
  0
LINE
  8
94
 10
137.1600
 20
154.9400
 30
0.0000
 11
137.1600
 21
152.4000
 31
0.0000
  0
LINE
  8
94
 10
137.1600
 20
152.4000
 30
0.0000
 11
137.1600
 21
149.8600
 31
0.0000
  0
LINE
  8
94
 10
137.1600
 20
149.8600
 30
0.0000
 11
137.1600
 21
147.3200
 31
0.0000
  0
LINE
  8
94
 10
137.1600
 20
147.3200
 30
0.0000
 11
137.1600
 21
144.7800
 31
0.0000
  0
LINE
  8
94
 10
137.1600
 20
144.7800
 30
0.0000
 11
137.1600
 21
142.2400
 31
0.0000
  0
LINE
  8
94
 10
137.1600
 20
142.2400
 30
0.0000
 11
137.1600
 21
139.7000
 31
0.0000
  0
LINE
  8
94
 10
137.1600
 20
139.7000
 30
0.0000
 11
137.1600
 21
137.1600
 31
0.0000
  0
LINE
  8
94
 10
137.1600
 20
157.4800
 30
0.0000
 11
135.6360
 21
157.4800
 31
0.0000
  0
LINE
  8
94
 10
137.1600
 20
154.9400
 30
0.0000
 11
135.6360
 21
154.9400
 31
0.0000
  0
LINE
  8
94
 10
137.1600
 20
152.4000
 30
0.0000
 11
135.6360
 21
152.4000
 31
0.0000
  0
LINE
  8
94
 10
137.1600
 20
149.8600
 30
0.0000
 11
135.6360
 21
149.8600
 31
0.0000
  0
LINE
  8
94
 10
137.1600
 20
147.3200
 30
0.0000
 11
135.6360
 21
147.3200
 31
0.0000
  0
LINE
  8
94
 10
137.1600
 20
144.7800
 30
0.0000
 11
135.6360
 21
144.7800
 31
0.0000
  0
LINE
  8
94
 10
137.1600
 20
142.2400
 30
0.0000
 11
135.6360
 21
142.2400
 31
0.0000
  0
LINE
  8
94
 10
137.1600
 20
139.7000
 30
0.0000
 11
135.6360
 21
139.7000
 31
0.0000
  0
LINE
  8
94
 10
130.5560
 20
139.7000
 30
0.0000
 11
133.6040
 21
139.7000
 31
0.0000
  0
LINE
  8
94
 10
130.5560
 20
142.2400
 30
0.0000
 11
133.6040
 21
142.2400
 31
0.0000
  0
LINE
  8
94
 10
130.5560
 20
144.7800
 30
0.0000
 11
133.6040
 21
144.7800
 31
0.0000
  0
LINE
  8
94
 10
130.5560
 20
147.3200
 30
0.0000
 11
133.6040
 21
147.3200
 31
0.0000
  0
LINE
  8
94
 10
130.5560
 20
149.8600
 30
0.0000
 11
133.6040
 21
149.8600
 31
0.0000
  0
LINE
  8
94
 10
130.5560
 20
152.4000
 30
0.0000
 11
133.6040
 21
152.4000
 31
0.0000
  0
LINE
  8
94
 10
130.5560
 20
154.9400
 30
0.0000
 11
133.6040
 21
154.9400
 31
0.0000
  0
LINE
  8
94
 10
130.5560
 20
157.4800
 30
0.0000
 11
133.6040
 21
157.4800
 31
0.0000
  0
TEXT
  7
ISOCP
  8
94
 10
127.5080
 20
158.2420
 30
0.0000
 40
1.2700
  1
1
  0
TEXT
  7
ISOCP
  8
94
 10
127.2540
 20
137.4140
 30
0.0000
 40
1.2700
  1
14
  0
LINE
  8
94
 10
121.9200
 20
157.4800
 30
0.0000
 11
127.0000
 21
157.4800
 31
0.0000
  0
LINE
  8
94
 10
121.9200
 20
154.9400
 30
0.0000
 11
127.0000
 21
154.9400
 31
0.0000
  0
LINE
  8
94
 10
121.9200
 20
152.4000
 30
0.0000
 11
127.0000
 21
152.4000
 31
0.0000
  0
LINE
  8
94
 10
121.9200
 20
149.8600
 30
0.0000
 11
127.0000
 21
149.8600
 31
0.0000
  0
LINE
  8
94
 10
121.9200
 20
147.3200
 30
0.0000
 11
127.0000
 21
147.3200
 31
0.0000
  0
LINE
  8
94
 10
121.9200
 20
144.7800
 30
0.0000
 11
127.0000
 21
144.7800
 31
0.0000
  0
LINE
  8
94
 10
121.9200
 20
142.2400
 30
0.0000
 11
127.0000
 21
142.2400
 31
0.0000
  0
LINE
  8
94
 10
121.9200
 20
139.7000
 30
0.0000
 11
127.0000
 21
139.7000
 31
0.0000
  0
LINE
  8
94
 10
142.2400
 20
139.7000
 30
0.0000
 11
137.1600
 21
139.7000
 31
0.0000
  0
LINE
  8
94
 10
142.2400
 20
142.2400
 30
0.0000
 11
137.1600
 21
142.2400
 31
0.0000
  0
LINE
  8
94
 10
142.2400
 20
144.7800
 30
0.0000
 11
137.1600
 21
144.7800
 31
0.0000
  0
LINE
  8
94
 10
142.2400
 20
147.3200
 30
0.0000
 11
137.1600
 21
147.3200
 31
0.0000
  0
LINE
  8
94
 10
142.2400
 20
149.8600
 30
0.0000
 11
137.1600
 21
149.8600
 31
0.0000
  0
LINE
  8
94
 10
142.2400
 20
152.4000
 30
0.0000
 11
137.1600
 21
152.4000
 31
0.0000
  0
LINE
  8
94
 10
142.2400
 20
154.9400
 30
0.0000
 11
137.1600
 21
154.9400
 31
0.0000
  0
LINE
  8
94
 10
142.2400
 20
157.4800
 30
0.0000
 11
137.1600
 21
157.4800
 31
0.0000
  0
CIRCLE
  8
94
 10
129.5400
 20
157.4800
 30
0.0000
 40
1.0160
  0
CIRCLE
  8
94
 10
129.5400
 20
154.9400
 30
0.0000
 40
1.0160
  0
CIRCLE
  8
94
 10
129.5400
 20
152.4000
 30
0.0000
 40
1.0160
  0
CIRCLE
  8
94
 10
129.5400
 20
149.8600
 30
0.0000
 40
1.0160
  0
CIRCLE
  8
94
 10
129.5400
 20
147.3200
 30
0.0000
 40
1.0160
  0
CIRCLE
  8
94
 10
129.5400
 20
144.7800
 30
0.0000
 40
1.0160
  0
CIRCLE
  8
94
 10
129.5400
 20
144.7800
 30
0.0000
 40
1.0160
  0
CIRCLE
  8
94
 10
129.5400
 20
142.2400
 30
0.0000
 40
1.0160
  0
CIRCLE
  8
94
 10
129.5400
 20
139.7000
 30
0.0000
 40
1.0160
  0
CIRCLE
  8
94
 10
134.6200
 20
144.7800
 30
0.0000
 40
1.0160
  0
CIRCLE
  8
94
 10
134.6200
 20
147.3200
 30
0.0000
 40
1.0160
  0
CIRCLE
  8
94
 10
134.6200
 20
149.8600
 30
0.0000
 40
1.0160
  0
CIRCLE
  8
94
 10
134.6200
 20
152.4000
 30
0.0000
 40
1.0160
  0
CIRCLE
  8
94
 10
134.6200
 20
152.4000
 30
0.0000
 40
1.0160
  0
CIRCLE
  8
94
 10
134.6200
 20
154.9400
 30
0.0000
 40
1.0160
  0
CIRCLE
  8
94
 10
134.6200
 20
139.7000
 30
0.0000
 40
1.0160
  0
CIRCLE
  8
94
 10
134.6200
 20
142.2400
 30
0.0000
 40
1.0160
  0
CIRCLE
  8
94
 10
134.6200
 20
144.7800
 30
0.0000
 40
1.0160
  0
CIRCLE
  8
94
 10
134.6200
 20
157.4800
 30
0.0000
 40
1.0160
  0
ARC
  8
94
 10
170.1800
 20
161.2900
 30
0.0000
 40
1.2700
 50
270.0000
 51
90.0000
  0
ARC
  8
94
 10
170.1800
 20
158.7500
 30
0.0000
 40
1.2700
 50
270.0000
 51
90.0000
  0
ARC
  8
94
 10
170.1800
 20
151.1300
 30
0.0000
 40
1.2700
 50
270.0000
 51
90.0000
  0
ARC
  8
94
 10
170.1800
 20
148.5900
 30
0.0000
 40
1.2700
 50
270.0000
 51
90.0000
  0
ARC
  8
94
 10
186.6900
 20
132.0800
 30
0.0000
 40
1.2700
 50
0.0000
 51
180.0000
  0
ARC
  8
94
 10
189.2300
 20
132.0800
 30
0.0000
 40
1.2700
 50
0.0000
 51
180.0000
  0
ARC
  8
94
 10
196.8500
 20
132.0800
 30
0.0000
 40
1.2700
 50
0.0000
 51
180.0000
  0
ARC
  8
94
 10
199.3900
 20
132.0800
 30
0.0000
 40
1.2700
 50
0.0000
 51
180.0000
  0
TEXT
  7
ISOCP
  8
94
 10
187.9600
 20
157.4800
 30
0.0000
 40
1.7780
  1
Stepper
  0
TEXT
  7
ISOCP
  8
94
 10
187.9600
 20
154.9400
 30
0.0000
 40
1.7780
  1
Unipolar
  0
LINE
  8
94
 10
167.6400
 20
162.5600
 30
0.0000
 11
170.1800
 21
162.5600
 31
0.0000
  0
TEXT
  7
ISOCP
  8
95
 10
172.5168
 20
161.7980
 30
0.0000
 40
1.5240
  1
A1(BK)
  0
LINE
  8
94
 10
167.6400
 20
152.4000
 30
0.0000
 11
170.1800
 21
152.4000
 31
0.0000
  0
TEXT
  7
ISOCP
  8
95
 10
172.5168
 20
151.6380
 30
0.0000
 40
1.5240
  1
A2(OR/WH)
  0
LINE
  8
94
 10
167.6400
 20
157.4800
 30
0.0000
 11
170.1800
 21
157.4800
 31
0.0000
  0
TEXT
  7
ISOCP
  8
95
 10
172.5168
 20
156.7180
 30
0.0000
 40
1.5240
  1
A3(BK/WH)
  0
LINE
  8
94
 10
167.6400
 20
147.3200
 30
0.0000
 11
170.1800
 21
147.3200
 31
0.0000
  0
TEXT
  7
ISOCP
  8
95
 10
172.5168
 20
146.5580
 30
0.0000
 40
1.5240
  1
A4(OR)
  0
LINE
  8
94
 10
185.4200
 20
129.5400
 30
0.0000
 11
185.4200
 21
132.0800
 31
0.0000
  0
TEXT
  7
ISOCP
  8
95
 10
186.1820
 20
134.4168
 30
0.0000
 40
1.5240
  1
B5(RD)
 50
90.0000
  0
LINE
  8
94
 10
195.5800
 20
129.5400
 30
0.0000
 11
195.5800
 21
132.0800
 31
0.0000
  0
TEXT
  7
ISOCP
  8
95
 10
196.3420
 20
134.4168
 30
0.0000
 40
1.5240
  1
B6(YL/WH)
 50
90.0000
  0
LINE
  8
94
 10
190.5000
 20
129.5400
 30
0.0000
 11
190.5000
 21
132.0800
 31
0.0000
  0
TEXT
  7
ISOCP
  8
95
 10
191.2620
 20
134.4168
 30
0.0000
 40
1.5240
  1
B7(RD/WH)
 50
90.0000
  0
LINE
  8
94
 10
200.6600
 20
129.5400
 30
0.0000
 11
200.6600
 21
132.0800
 31
0.0000
  0
TEXT
  7
ISOCP
  8
95
 10
201.4220
 20
134.4168
 30
0.0000
 40
1.5240
  1
B8(YL)
 50
90.0000
  0
CIRCLE
  8
94
 10
193.0400
 20
154.9400
 30
0.0000
 40
8.0321
  0
ARC
  8
94
 10
187.9600
 20
205.7400
 30
0.0000
 40
7.6200
 50
0.0000
 51
180.0000
  0
LINE
  8
94
 10
180.3400
 20
205.7400
 30
0.0000
 11
180.3400
 21
193.0400
 31
0.0000
  0
LINE
  8
94
 10
180.3400
 20
193.0400
 30
0.0000
 11
195.5800
 21
193.0400
 31
0.0000
  0
LINE
  8
94
 10
195.5800
 20
193.0400
 30
0.0000
 11
195.5800
 21
205.7400
 31
0.0000
  0
TEXT
  7
ISOCP
  8
96
 10
182.8800
 20
213.8680
 30
0.0000
 40
1.7780
  1
ENCODER_1000SI
  0
TEXT
  7
ISOCP
  8
94
 10
182.8800
 20
215.9000
 30
0.0000
 40
1.7780
  1
Encoder
  0
LINE
  8
94
 10
190.5000
 20
187.9600
 30
0.0000
 11
190.5000
 21
193.0400
 31
0.0000
  0
TEXT
  7
ISOCP
  8
95
 10
191.2620
 20
195.3768
 30
0.0000
 40
1.5240
  1
+5VDC
 50
90.0000
  0
LINE
  8
94
 10
187.9600
 20
187.9600
 30
0.0000
 11
187.9600
 21
193.0400
 31
0.0000
  0
TEXT
  7
ISOCP
  8
95
 10
188.7220
 20
195.3768
 30
0.0000
 40
1.5240
  1
CH_A
 50
90.0000
  0
LINE
  8
94
 10
193.0400
 20
187.9600
 30
0.0000
 11
193.0400
 21
193.0400
 31
0.0000
  0
TEXT
  7
ISOCP
  8
95
 10
193.8020
 20
195.3768
 30
0.0000
 40
1.5240
  1
CH_B
 50
90.0000
  0
LINE
  8
94
 10
182.8800
 20
187.9600
 30
0.0000
 11
182.8800
 21
193.0400
 31
0.0000
  0
TEXT
  7
ISOCP
  8
95
 10
183.6420
 20
195.3768
 30
0.0000
 40
1.5240
  1
GROUND
 50
90.0000
  0
LINE
  8
94
 10
185.4200
 20
187.9600
 30
0.0000
 11
185.4200
 21
193.0400
 31
0.0000
  0
TEXT
  7
ISOCP
  8
95
 10
186.1820
 20
195.3768
 30
0.0000
 40
1.5240
  1
INDEX
 50
90.0000
  0
CIRCLE
  8
94
 10
187.9600
 20
205.7400
 30
0.0000
 40
2.5526
  0
LINE
  8
91
 10
200.6600
 20
129.5400
 30
0.0000
 11
200.6600
 21
116.8400
 31
0.0000
  0
LINE
  8
91
 10
200.6600
 20
116.8400
 30
0.0000
 11
190.5000
 21
116.8400
 31
0.0000
  0
LINE
  8
91
 10
190.5000
 20
116.8400
 30
0.0000
 11
162.5600
 21
116.8400
 31
0.0000
  0
LINE
  8
91
 10
162.5600
 20
116.8400
 30
0.0000
 11
162.5600
 21
139.7000
 31
0.0000
  0
LINE
  8
91
 10
142.2400
 20
139.7000
 30
0.0000
 11
162.5600
 21
139.7000
 31
0.0000
  0
LINE
  8
91
 10
190.5000
 20
129.5400
 30
0.0000
 11
190.5000
 21
116.8400
 31
0.0000
  0
CIRCLE
  8
91
 10
190.5000
 20
116.8400
 30
0.0000
 40
0.5080
  0
LINE
  8
91
 10
185.4200
 20
129.5400
 30
0.0000
 11
185.4200
 21
119.3800
 31
0.0000
  0
LINE
  8
91
 10
185.4200
 20
119.3800
 30
0.0000
 11
160.0200
 21
119.3800
 31
0.0000
  0
LINE
  8
91
 10
160.0200
 20
119.3800
 30
0.0000
 11
160.0200
 21
142.2400
 31
0.0000
  0
LINE
  8
91
 10
142.2400
 20
142.2400
 30
0.0000
 11
160.0200
 21
142.2400
 31
0.0000
  0
LINE
  8
91
 10
195.5800
 20
129.5400
 30
0.0000
 11
195.5800
 21
119.3800
 31
0.0000
  0
LINE
  8
91
 10
195.5800
 20
119.3800
 30
0.0000
 11
185.4200
 21
119.3800
 31
0.0000
  0
CIRCLE
  8
91
 10
185.4200
 20
119.3800
 30
0.0000
 40
0.5080
  0
LINE
  8
91
 10
142.2400
 20
157.4800
 30
0.0000
 11
144.7800
 21
157.4800
 31
0.0000
  0
LINE
  8
91
 10
144.7800
 20
157.4800
 30
0.0000
 11
144.7800
 21
185.4200
 31
0.0000
  0
LINE
  8
91
 10
144.7800
 20
185.4200
 30
0.0000
 11
182.8800
 21
185.4200
 31
0.0000
  0
LINE
  8
91
 10
182.8800
 20
185.4200
 30
0.0000
 11
182.8800
 21
187.9600
 31
0.0000
  0
LINE
  8
91
 10
121.9200
 20
154.9400
 30
0.0000
 11
116.8400
 21
154.9400
 31
0.0000
  0
LINE
  8
91
 10
116.8400
 20
154.9400
 30
0.0000
 11
116.8400
 21
160.0200
 31
0.0000
  0
LINE
  8
91
 10
116.8400
 20
160.0200
 30
0.0000
 11
104.1400
 21
160.0200
 31
0.0000
  0
CIRCLE
  8
91
 10
104.1400
 20
160.0200
 30
0.0000
 40
0.5080
  0
LINE
  8
91
 10
287.0200
 20
175.2600
 30
0.0000
 11
345.4400
 21
175.2600
 31
0.0000
  0
LINE
  8
91
 10
345.4400
 20
175.2600
 30
0.0000
 11
345.4400
 21
127.0000
 31
0.0000
  0
LINE
  8
91
 10
345.4400
 20
127.0000
 30
0.0000
 11
287.0200
 21
127.0000
 31
0.0000
  0
LINE
  8
91
 10
287.0200
 20
236.2200
 30
0.0000
 11
345.4400
 21
236.2200
 31
0.0000
  0
LINE
  8
91
 10
345.4400
 20
236.2200
 30
0.0000
 11
345.4400
 21
187.9600
 31
0.0000
  0
LINE
  8
91
 10
345.4400
 20
187.9600
 30
0.0000
 11
287.0200
 21
187.9600
 31
0.0000
  0
LINE
  8
91
 10
287.0200
 20
187.9600
 30
0.0000
 11
287.0200
 21
236.2200
 31
0.0000
  0
LINE
  8
91
 10
287.0200
 20
127.0000
 30
0.0000
 11
287.0200
 21
175.2600
 31
0.0000
  0
LINE
  8
91
 10
160.0200
 20
162.5600
 30
0.0000
 11
167.6400
 21
162.5600
 31
0.0000
  0
LINE
  8
91
 10
142.2400
 20
147.3200
 30
0.0000
 11
160.0200
 21
147.3200
 31
0.0000
  0
LINE
  8
91
 10
160.0200
 20
147.3200
 30
0.0000
 11
160.0200
 21
152.4000
 31
0.0000
  0
LINE
  8
91
 10
160.0200
 20
152.4000
 30
0.0000
 11
160.0200
 21
162.5600
 31
0.0000
  0
LINE
  8
91
 10
167.6400
 20
152.4000
 30
0.0000
 11
160.0200
 21
152.4000
 31
0.0000
  0
CIRCLE
  8
91
 10
160.0200
 20
152.4000
 30
0.0000
 40
0.5080
  0
LINE
  8
91
 10
167.6400
 20
147.3200
 30
0.0000
 11
162.5600
 21
147.3200
 31
0.0000
  0
LINE
  8
91
 10
142.2400
 20
144.7800
 30
0.0000
 11
162.5600
 21
144.7800
 31
0.0000
  0
LINE
  8
91
 10
162.5600
 20
144.7800
 30
0.0000
 11
162.5600
 21
147.3200
 31
0.0000
  0
LINE
  8
91
 10
167.6400
 20
157.4800
 30
0.0000
 11
162.5600
 21
157.4800
 31
0.0000
  0
LINE
  8
91
 10
162.5600
 20
157.4800
 30
0.0000
 11
162.5600
 21
147.3200
 31
0.0000
  0
CIRCLE
  8
91
 10
162.5600
 20
147.3200
 30
0.0000
 40
0.5080
  0
LINE
  8
91
 10
142.2400
 20
154.9400
 30
0.0000
 11
147.3200
 21
154.9400
 31
0.0000
  0
LINE
  8
91
 10
147.3200
 20
154.9400
 30
0.0000
 11
147.3200
 21
182.8800
 31
0.0000
  0
LINE
  8
91
 10
147.3200
 20
182.8800
 30
0.0000
 11
187.9600
 21
182.8800
 31
0.0000
  0
LINE
  8
91
 10
187.9600
 20
182.8800
 30
0.0000
 11
187.9600
 21
187.9600
 31
0.0000
  0
LINE
  8
91
 10
142.2400
 20
152.4000
 30
0.0000
 11
149.8600
 21
152.4000
 31
0.0000
  0
LINE
  8
91
 10
149.8600
 20
152.4000
 30
0.0000
 11
149.8600
 21
180.3400
 31
0.0000
  0
LINE
  8
91
 10
149.8600
 20
180.3400
 30
0.0000
 11
190.5000
 21
180.3400
 31
0.0000
  0
LINE
  8
91
 10
190.5000
 20
180.3400
 30
0.0000
 11
190.5000
 21
187.9600
 31
0.0000
  0
LINE
  8
91
 10
142.2400
 20
149.8600
 30
0.0000
 11
152.4000
 21
149.8600
 31
0.0000
  0
LINE
  8
91
 10
152.4000
 20
149.8600
 30
0.0000
 11
152.4000
 21
177.8000
 31
0.0000
  0
LINE
  8
91
 10
152.4000
 20
177.8000
 30
0.0000
 11
193.0400
 21
177.8000
 31
0.0000
  0
LINE
  8
91
 10
193.0400
 20
177.8000
 30
0.0000
 11
193.0400
 21
187.9600
 31
0.0000
  0
LINE
  8
91
 10
121.9200
 20
157.4800
 30
0.0000
 11
119.3800
 21
157.4800
 31
0.0000
  0
LINE
  8
91
 10
119.3800
 20
157.4800
 30
0.0000
 11
119.3800
 21
162.5600
 31
0.0000
  0
LINE
  8
91
 10
119.3800
 20
162.5600
 30
0.0000
 11
104.1400
 21
162.5600
 31
0.0000
  0
CIRCLE
  8
91
 10
104.1400
 20
162.5600
 30
0.0000
 40
0.5080
  0
LINE
  8
91
 10
121.9200
 20
152.4000
 30
0.0000
 11
114.3000
 21
152.4000
 31
0.0000
  0
LINE
  8
91
 10
114.3000
 20
152.4000
 30
0.0000
 11
114.3000
 21
157.4800
 31
0.0000
  0
LINE
  8
91
 10
114.3000
 20
157.4800
 30
0.0000
 11
104.1400
 21
157.4800
 31
0.0000
  0
CIRCLE
  8
91
 10
104.1400
 20
157.4800
 30
0.0000
 40
0.5080
  0
LINE
  8
91
 10
121.9200
 20
149.8600
 30
0.0000
 11
111.7600
 21
149.8600
 31
0.0000
  0
LINE
  8
91
 10
111.7600
 20
149.8600
 30
0.0000
 11
111.7600
 21
154.9400
 31
0.0000
  0
LINE
  8
91
 10
111.7600
 20
154.9400
 30
0.0000
 11
104.1400
 21
154.9400
 31
0.0000
  0
CIRCLE
  8
91
 10
104.1400
 20
154.9400
 30
0.0000
 40
0.5080
  0
LINE
  8
91
 10
121.9200
 20
139.7000
 30
0.0000
 11
119.3800
 21
139.7000
 31
0.0000
  0
LINE
  8
91
 10
119.3800
 20
139.7000
 30
0.0000
 11
119.3800
 21
134.6200
 31
0.0000
  0
LINE
  8
91
 10
119.3800
 20
134.6200
 30
0.0000
 11
104.1400
 21
134.6200
 31
0.0000
  0
CIRCLE
  8
91
 10
104.1400
 20
134.6200
 30
0.0000
 40
0.5080
  0
LINE
  8
91
 10
121.9200
 20
142.2400
 30
0.0000
 11
116.8400
 21
142.2400
 31
0.0000
  0
LINE
  8
91
 10
116.8400
 20
142.2400
 30
0.0000
 11
116.8400
 21
137.1600
 31
0.0000
  0
LINE
  8
91
 10
116.8400
 20
137.1600
 30
0.0000
 11
104.1400
 21
137.1600
 31
0.0000
  0
CIRCLE
  8
91
 10
104.1400
 20
137.1600
 30
0.0000
 40
0.5080
  0
LINE
  8
91
 10
121.9200
 20
144.7800
 30
0.0000
 11
114.3000
 21
144.7800
 31
0.0000
  0
LINE
  8
91
 10
114.3000
 20
144.7800
 30
0.0000
 11
114.3000
 21
139.7000
 31
0.0000
  0
LINE
  8
91
 10
114.3000
 20
139.7000
 30
0.0000
 11
104.1400
 21
139.7000
 31
0.0000
  0
CIRCLE
  8
91
 10
104.1400
 20
139.7000
 30
0.0000
 40
0.5080
  0
LINE
  8
91
 10
121.9200
 20
147.3200
 30
0.0000
 11
111.7600
 21
147.3200
 31
0.0000
  0
LINE
  8
91
 10
111.7600
 20
147.3200
 30
0.0000
 11
111.7600
 21
142.2400
 31
0.0000
  0
LINE
  8
91
 10
111.7600
 20
142.2400
 30
0.0000
 11
104.1400
 21
142.2400
 31
0.0000
  0
CIRCLE
  8
91
 10
104.1400
 20
142.2400
 30
0.0000
 40
0.5080
  0
ENDSEC
  0
EOF
